<svg xmlns="http://www.w3.org/2000/svg" xmlns:xlink="http://www.w3.org/1999/xlink" viewBox="0 0 86.49 92.84"><defs><style>.cls-1{fill:url(#linear-gradient);}.cls-2{fill:url(#linear-gradient-2);}.cls-3{fill:url(#linear-gradient-3);}.cls-4{fill:#0b84ce;}.cls-5{fill:#041742;}.cls-6{isolation:isolate;}.cls-7{fill:url(#linear-gradient-4);}.cls-8{fill:#8df;}.cls-9{fill:url(#linear-gradient-5);}</style><linearGradient id="linear-gradient" x1="13.24" y1="64.36" x2="72.4" y2="22.63" gradientUnits="userSpaceOnUse"><stop offset="0" stop-color="#0e9de5"/><stop offset="1" stop-color="#26db8d"/></linearGradient><linearGradient id="linear-gradient-2" x1="-26.58" y1="12.1" x2="32.58" y2="-29.63" gradientTransform="translate(40.21 52.38) rotate(-2.57)" xlink:href="#linear-gradient"/><linearGradient id="linear-gradient-3" x1="2105.13" y1="80.88" x2="2156.61" y2="80.88" gradientTransform="matrix(-1, 0, 0, 1, 2174.13, 0)" gradientUnits="userSpaceOnUse"><stop offset="0" stop-color="#0e9de5"/><stop offset="1" stop-color="#39bdff"/></linearGradient><linearGradient id="linear-gradient-4" x1="16.73" y1="27.97" x2="52.9" y2="27.97" gradientUnits="userSpaceOnUse"><stop offset="0" stop-color="#0e9de5"/><stop offset="0.48" stop-color="#39bdff"/><stop offset="1" stop-color="#0e9de5"/></linearGradient><linearGradient id="linear-gradient-5" x1="6.85" y1="40.03" x2="45.58" y2="40.03" gradientUnits="userSpaceOnUse"><stop offset="0" stop-color="#39bdff"/><stop offset="1" stop-color="#0e9de5"/></linearGradient></defs><title>Asset 44</title><g id="Layer_2" data-name="Layer 2"><g id="Layer_1-2" data-name="Layer 1"><path class="cls-1" d="M43.26,73.1A29.92,29.92,0,1,1,73.18,43.19,29.95,29.95,0,0,1,43.26,73.1Zm0-57.2A27.29,27.29,0,1,0,70.54,43.19,27.32,27.32,0,0,0,43.26,15.9Z"/><path class="cls-2" d="M43.9,86.45a1.31,1.31,0,0,1-1.33-1.3h0a1.3,1.3,0,0,1,1.29-1.33h0a1.32,1.32,0,0,1,1.34,1.29h0a1.33,1.33,0,0,1-1.27,1.34h0Zm4.79-1.64a1.32,1.32,0,0,1,1.09-1.51h0a1.31,1.31,0,0,1,1.51,1.09h0a1.31,1.31,0,0,1-1.08,1.51h-.16A1.32,1.32,0,0,1,48.69,84.81Zm-11.1,1.28a1.3,1.3,0,0,1-1.13-1.48h0a1.3,1.3,0,0,1,1.47-1.13h0A1.31,1.31,0,0,1,39.06,85h0a1.3,1.3,0,0,1-1.24,1.14h-.23ZM54.7,83.58a1.32,1.32,0,0,1,.86-1.65h0a1.32,1.32,0,0,1,1.66.85h0a1.34,1.34,0,0,1-.86,1.66h0a2,2,0,0,1-.34.06h0A1.34,1.34,0,0,1,54.7,83.58ZM31.39,84.81a1.33,1.33,0,0,1-.91-1.63h0a1.32,1.32,0,0,1,1.63-.9h0A1.31,1.31,0,0,1,33,83.9h0a1.31,1.31,0,0,1-1.21.95h0A1.2,1.2,0,0,1,31.39,84.81Zm29.09-3.33a1.31,1.31,0,0,1,.6-1.76h0a1.31,1.31,0,0,1,1.76.6h0a1.31,1.31,0,0,1-.61,1.76h0a1.18,1.18,0,0,1-.52.13h0A1.29,1.29,0,0,1,60.48,81.48Zm-35,1.15a1.31,1.31,0,0,1-.65-1.74h0a1.31,1.31,0,0,1,1.74-.66h0A1.32,1.32,0,0,1,27.19,82h0a1.32,1.32,0,0,1-1.13.77h0A1.44,1.44,0,0,1,25.45,82.63Zm40.42-4.08a1.31,1.31,0,0,1,.35-1.83h0a1.31,1.31,0,0,1,1.82.34h0a1.32,1.32,0,0,1-.34,1.84h0a1.28,1.28,0,0,1-.68.22h0A1.32,1.32,0,0,1,65.87,78.55Zm-46,1.06h0a1.32,1.32,0,0,1-.4-1.82h0a1.32,1.32,0,0,1,1.82-.4h0a1.34,1.34,0,0,1,.4,1.82h0a1.33,1.33,0,0,1-1,.61h0A1.34,1.34,0,0,1,19.9,79.61Zm50.89-4.74A1.31,1.31,0,0,1,70.85,73h0a1.32,1.32,0,0,1,1.87.08h0a1.3,1.3,0,0,1-.08,1.85h0a1.27,1.27,0,0,1-.83.35h0A1.31,1.31,0,0,1,70.79,74.87Zm-55.95.94A1.31,1.31,0,0,1,14.71,74h0a1.32,1.32,0,0,1,1.86-.13h0a1.33,1.33,0,0,1,.13,1.86h0a1.3,1.3,0,0,1-.94.44h0A1.23,1.23,0,0,1,14.84,75.81Zm60.27-5.29a1.31,1.31,0,0,1-.2-1.85h0a1.31,1.31,0,0,1,1.85-.2h0a1.31,1.31,0,0,1,.2,1.85h0a1.33,1.33,0,0,1-1,.49h0A1.32,1.32,0,0,1,75.11,70.52Zm-64.72.8a1.32,1.32,0,0,1,.13-1.86h0a1.33,1.33,0,0,1,1.86.15h0a1.3,1.3,0,0,1-.14,1.85h0a1.37,1.37,0,0,1-.8.32h0A1.32,1.32,0,0,1,10.39,71.32Zm68.37-5.74a1.32,1.32,0,0,1-.47-1.8h0a1.32,1.32,0,0,1,1.81-.46h0a1.31,1.31,0,0,1,.46,1.8h0a1.3,1.3,0,0,1-1.07.65h0A1.27,1.27,0,0,1,78.76,65.58Zm-72.13.65A1.31,1.31,0,0,1,7,64.41H7a1.33,1.33,0,0,1,1.82.41h0a1.32,1.32,0,0,1-.42,1.82h0a1.24,1.24,0,0,1-.64.2h0A1.31,1.31,0,0,1,6.63,66.23Zm75-6.06a1.31,1.31,0,0,1-.73-1.71h0a1.33,1.33,0,0,1,1.72-.73h0a1.34,1.34,0,0,1,.73,1.72h0a1.34,1.34,0,0,1-1.17.82h0A1.34,1.34,0,0,1,81.65,60.17Zm-78,.47a1.3,1.3,0,0,1,.67-1.73h0a1.31,1.31,0,0,1,1.74.66h0a1.33,1.33,0,0,1-.68,1.74h0a1.6,1.6,0,0,1-.47.11h0A1.33,1.33,0,0,1,3.66,60.64ZM83.72,54.4a1.32,1.32,0,0,1-1-1.59h0a1.31,1.31,0,0,1,1.58-1h0a1.3,1.3,0,0,1,1,1.58h0a1.33,1.33,0,0,1-1.22,1h0A1.55,1.55,0,0,1,83.72,54.4Zm-82.18.27a1.31,1.31,0,0,1,.92-1.62h0A1.33,1.33,0,0,1,4.08,54h0a1.34,1.34,0,0,1-.93,1.63h0a1.45,1.45,0,0,1-.29,0h0A1.32,1.32,0,0,1,1.54,54.67Zm83.38-6.3a1.3,1.3,0,0,1-1.2-1.43h0a1.31,1.31,0,0,1,1.43-1.18h0a1.32,1.32,0,0,1,1.2,1.43h0a1.33,1.33,0,0,1-1.26,1.19h0A.5.5,0,0,1,84.92,48.37Zm-84.6.1A1.3,1.3,0,0,1,1.46,47h0a1.32,1.32,0,0,1,1.47,1.15h0a1.32,1.32,0,0,1-1.16,1.46H1.68A1.3,1.3,0,0,1,.32,48.47Zm83.54-7.1A1.3,1.3,0,0,1,85.1,40h0a1.32,1.32,0,0,1,1.38,1.25h0a1.32,1.32,0,0,1-1.26,1.38h0A1.31,1.31,0,0,1,83.86,41.37ZM1.29,43.5A1.33,1.33,0,0,1,0,42.15H0a1.33,1.33,0,0,1,1.35-1.29h0a1.33,1.33,0,0,1,1.29,1.35h0a1.33,1.33,0,0,1-1.26,1.28H1.29Zm81.87-8a1.29,1.29,0,0,1,1-1.53h0a1.33,1.33,0,0,1,1.55,1h0a1.33,1.33,0,0,1-1,1.54h0l-.19,0h0A1.32,1.32,0,0,1,83.16,35.46ZM1.68,37.38A1.33,1.33,0,0,1,.61,35.85h0a1.32,1.32,0,0,1,1.52-1.07h0A1.32,1.32,0,0,1,3.21,36.3h0A1.34,1.34,0,0,1,2,37.39H2A1.36,1.36,0,0,1,1.68,37.38Zm79.93-7.65a1.32,1.32,0,0,1,.81-1.68h0a1.33,1.33,0,0,1,1.67.81h0a1.31,1.31,0,0,1-.8,1.68h0a1.69,1.69,0,0,1-.38.07h0A1.31,1.31,0,0,1,81.61,29.73ZM3,31.37a1.31,1.31,0,0,1-.85-1.65h0a1.33,1.33,0,0,1,1.67-.85h0a1.32,1.32,0,0,1,.83,1.67h0a1.3,1.3,0,0,1-1.18.9h0A1.25,1.25,0,0,1,3,31.37Zm76.25-7.08a1.32,1.32,0,0,1,.56-1.78h0a1.32,1.32,0,0,1,1.78.55h0A1.33,1.33,0,0,1,81,24.84h0a1.42,1.42,0,0,1-.56.15h0A1.35,1.35,0,0,1,79.23,24.29ZM5.13,25.63a1.31,1.31,0,0,1-.59-1.76h0a1.32,1.32,0,0,1,1.76-.59h0A1.32,1.32,0,0,1,6.89,25h0a1.31,1.31,0,0,1-1.12.73h0A1.2,1.2,0,0,1,5.13,25.63Zm71-6.39a1.3,1.3,0,0,1,.29-1.83h0a1.32,1.32,0,0,1,1.84.27h0a1.31,1.31,0,0,1-.28,1.84h0a1.31,1.31,0,0,1-.72.25h0A1.31,1.31,0,0,1,76.09,19.24Zm-68,1a1.32,1.32,0,0,1-.33-1.83h0a1.33,1.33,0,0,1,1.84-.32h0a1.32,1.32,0,0,1,.32,1.83h0a1.32,1.32,0,0,1-1,.56h0A1.27,1.27,0,0,1,8.1,20.26Zm64.15-5.55a1.3,1.3,0,0,1,0-1.86h0a1.32,1.32,0,0,1,1.86,0h0a1.32,1.32,0,0,1,0,1.86h0a1.39,1.39,0,0,1-.87.39h0A1.3,1.3,0,0,1,72.25,14.71Zm-60.44.67a1.32,1.32,0,0,1-.05-1.86h0a1.33,1.33,0,0,1,1.87,0h0a1.3,1.3,0,0,1,0,1.85h0a1.25,1.25,0,0,1-.89.42h0A1.31,1.31,0,0,1,11.81,15.38Zm56-4.6h0a1.31,1.31,0,0,1-.25-1.84h0a1.31,1.31,0,0,1,1.84-.25h0a1.31,1.31,0,0,1,.26,1.84h0a1.3,1.3,0,0,1-1,.52h0A1.22,1.22,0,0,1,67.78,10.78Zm-51.57.31a1.3,1.3,0,0,1,.21-1.84h0a1.31,1.31,0,0,1,1.85.21h0a1.32,1.32,0,0,1-.21,1.85h0a1.32,1.32,0,0,1-.76.28h0A1.29,1.29,0,0,1,16.21,11.09ZM62.8,7.56h0a1.34,1.34,0,0,1-.52-1.8h0a1.34,1.34,0,0,1,1.8-.52h0A1.34,1.34,0,0,1,64.59,7h0a1.36,1.36,0,0,1-1.11.68h0A1.31,1.31,0,0,1,62.8,7.56ZM21.17,7.49a1.33,1.33,0,0,1,.49-1.8h0a1.31,1.31,0,0,1,1.8.49h0A1.31,1.31,0,0,1,23,8h0a1.31,1.31,0,0,1-.6.18h0A1.33,1.33,0,0,1,21.17,7.49ZM57.4,5.08a1.3,1.3,0,0,1-.77-1.69h0a1.3,1.3,0,0,1,1.68-.77h0a1.31,1.31,0,0,1,.78,1.69h0a1.33,1.33,0,0,1-1.17.86h0A1.3,1.3,0,0,1,57.4,5.08ZM26.61,4.65a1.33,1.33,0,0,1,.74-1.71h0a1.31,1.31,0,0,1,1.71.74h0a1.31,1.31,0,0,1-.74,1.71h0a1.22,1.22,0,0,1-.42.09h0A1.34,1.34,0,0,1,26.61,4.65ZM51.69,3.43a1.31,1.31,0,0,1-1-1.56h0a1.32,1.32,0,0,1,1.56-1h0a1.32,1.32,0,0,1,1,1.57h0a1.3,1.3,0,0,1-1.22,1h0A1,1,0,0,1,51.69,3.43Zm-19.27-.8a1.31,1.31,0,0,1,1-1.58h0A1.33,1.33,0,0,1,35,2h0a1.32,1.32,0,0,1-1,1.58h0a1.18,1.18,0,0,1-.25,0h0A1.3,1.3,0,0,1,32.42,2.63Zm13.39,0a1.31,1.31,0,0,1-1.23-1.4h0A1.31,1.31,0,0,1,46,0h0A1.32,1.32,0,0,1,47.2,1.4h0A1.32,1.32,0,0,1,46,2.63h-.14ZM38.44,1.49A1.32,1.32,0,0,1,39.65.07h0a1.31,1.31,0,0,1,1.43,1.2h0a1.31,1.31,0,0,1-1.2,1.41h-.06A1.32,1.32,0,0,1,38.44,1.49Z"/><path class="cls-3" d="M69,68.92v9a3.64,3.64,0,0,1-1.81,3.17L50.43,90.9a14.2,14.2,0,0,1-14.34,0L19.33,81.08a3.64,3.64,0,0,1-1.81-3.17v-9Z"/><path class="cls-4" d="M50.43,55.94l16.76,9.81a3.68,3.68,0,0,1,0,6.34L50.43,81.9a14.16,14.16,0,0,1-14.34,0L19.33,72.09a3.68,3.68,0,0,1,0-6.34l16.76-9.81A14.16,14.16,0,0,1,50.43,55.94Z"/><path class="cls-5" d="M61.38,28V67.42a2.56,2.56,0,0,1-1.28,2.23L48.31,76.56a10,10,0,0,1-10.1,0L26.42,69.65a2.54,2.54,0,0,1-1.28-2.23V28Z"/><g class="cls-6"><path class="cls-7" d="M52.9,16.7h0L18.81,35.76a5,5,0,0,1-.1.56v.07c0,.17-.08.33-.13.48a1,1,0,0,0,0,.1c-.05.15-.11.3-.17.45a.2.2,0,0,0,0,.08c-.06.11-.11.22-.17.32L18,38c0,.07-.09.13-.13.19a4,4,0,0,1-.48.53l-.09.08a3.35,3.35,0,0,1-.59.42l34.09-19a4.86,4.86,0,0,0,.59-.42l.09-.09a4.1,4.1,0,0,0,.48-.53l0,0s0-.09.08-.14a1.37,1.37,0,0,0,.13-.2.22.22,0,0,0,.05-.08,1.79,1.79,0,0,0,.12-.24.3.3,0,0,0,0-.08l0,0c0-.1.09-.21.13-.32l0-.1,0-.1a.56.56,0,0,0,0-.12,2.45,2.45,0,0,0,.08-.29s0,0,0-.07,0,0,0-.07,0-.1,0-.16,0-.19,0-.29,0-.07,0-.11Z"/><path class="cls-8" d="M79.67,31.08a2.81,2.81,0,0,0,0-.29v-.08c0-.07,0-.15,0-.22a1.53,1.53,0,0,0,0-.3c0-.05,0-.09,0-.13V30s0-.07,0-.11,0-.21,0-.32,0-.15,0-.22l0-.06v-.05c0-.12,0-.23-.08-.35s0-.16-.07-.25l0-.06v-.05c0-.12-.07-.25-.11-.37l-.08-.21,0-.1s0-.06,0-.09-.11-.29-.17-.44l0-.08c0-.05,0-.1-.08-.16a2.72,2.72,0,0,0-.11-.25l-.08-.15c-.06-.13-.13-.26-.2-.39l-.09-.18L78.19,26a9.93,9.93,0,0,0-.59-.94l0-.06-.14-.18c-.09-.13-.19-.26-.29-.38l-.08-.11c-.07-.08-.15-.16-.22-.25L76.71,24l0-.06c-.11-.12-.22-.24-.34-.35l-.06-.06-.09-.08L76,23.26,75.69,23h0l0,0-.26-.2-.28-.21h0l-.24-.17-.27-.16-.08-.05L47.78,6.73l-.19-.11-.25-.13-.2-.09h0l0,0-.25-.1-.25-.1-.08,0,0,0-.12,0L46.08,6l-.23,0h0l-.27,0-.27,0H44.6l-.22,0-.23,0-.09,0H44a3,3,0,0,0-.43.12h0a4.54,4.54,0,0,0-.45.21l0,0L9,25.4a3.68,3.68,0,0,1,.49-.23h0A3.62,3.62,0,0,1,10,25l.1,0a3.11,3.11,0,0,1,.44-.06h.07a3.29,3.29,0,0,1,.54,0h0a4.17,4.17,0,0,1,.59.08h0c.19,0,.39.1.59.16l.05,0a5.05,5.05,0,0,1,.61.23l0,0a5.58,5.58,0,0,1,.64.33L40.4,41.21c.2.11.4.24.59.37l0,0c.19.13.38.27.56.42l0,0c.17.14.33.29.49.44l.09.08c.15.15.3.3.45.47l.13.14c.1.11.19.23.29.35l.3.38.17.24c.21.3.41.61.6.94a2.15,2.15,0,0,1,.14.26c.07.13.14.26.2.39s.13.27.2.4a.77.77,0,0,0,.07.16l.24.61,0,.1q.12.31.21.63v.06c.07.22.12.43.17.65v.06c0,.22.08.43.11.65v.06q0,.33.06.66v0c0,.22,0,.44,0,.67v0c0,.22,0,.44,0,.66s-.06.38-.1.57l0,.06c0,.17-.08.33-.13.49l0,.09a4.69,4.69,0,0,1-.18.45s0,0,0,.08-.11.22-.17.33l-.13.2a2.14,2.14,0,0,1-.13.19,4,4,0,0,1-.47.53l-.1.08a3.43,3.43,0,0,1-.58.42h0L77.54,35.61a3.28,3.28,0,0,0,.58-.42l.1-.08a4,4,0,0,0,.47-.53l0,0,.09-.14.13-.2s0,0,0-.08a2,2,0,0,0,.13-.25.59.59,0,0,0,0-.08v0c0-.11.09-.22.13-.33a.42.42,0,0,1,0-.1l0-.09a.56.56,0,0,1,0-.12c0-.1,0-.2.08-.3s0,0,0-.07,0,0,0-.06l0-.16c0-.1,0-.19,0-.29s0-.08,0-.12a1.11,1.11,0,0,0,0-.17l0-.29a1.34,1.34,0,0,1,0-.2v-.38Z"/><path class="cls-9" d="M40.4,41.21a11,11,0,0,1,5.13,10c-.46,3.61-3.5,5-6.79,3.1a10.94,10.94,0,0,1-5.11-10L18.81,35.76c-.46,3.61-3.5,5-6.78,3.1a11,11,0,0,1-5.13-10c.46-3.61,3.5-5,6.79-3.09Z"/></g></g></g></svg>