<svg xmlns="http://www.w3.org/2000/svg" xmlns:xlink="http://www.w3.org/1999/xlink" viewBox="0 0 198.82 198.83"><defs><style>.cls-1{fill:none;}.cls-2{clip-path:url(#clip-path);}.cls-3{fill:#95a6ba;}.cls-4{fill:url(#linear-gradient);}.cls-5{fill:url(#linear-gradient-2);}</style><clipPath id="clip-path"><path class="cls-1" d="M115.62,97.64a78.59,78.59,0,0,1,16.68,1.79h0a32.89,32.89,0,0,0-65.77-1.15c0,.39,0,.77,0,1.15a32.27,32.27,0,0,0,.3,4.39h0a71.52,71.52,0,0,0-12.34,11.43,47.63,47.63,0,0,1,66.34-58.39l16.6-10.73a65.46,65.46,0,0,0-90.74,92.14,79.44,79.44,0,0,1,11.2-15.44s6.46-6.74,11.4-10.13A78.39,78.39,0,0,1,115.62,97.64Z"/></clipPath><linearGradient id="linear-gradient" x1="168.84" y1="118.83" x2="92.6" y2="39.33" gradientTransform="matrix(1, 0, 0, -1, 0, 200)" gradientUnits="userSpaceOnUse"><stop offset="0" stop-color="#26db8d"/><stop offset="1" stop-color="#0e9de5"/></linearGradient><linearGradient id="linear-gradient-2" x1="151.09" y1="135.85" x2="74.85" y2="56.36" xlink:href="#linear-gradient"/></defs><title>hor-bp</title><g id="Layer_2" data-name="Layer 2"><g id="Layer_1-2" data-name="Layer 1"><g id="Layer_1-2-2" data-name="Layer 1-2"><g class="cls-2"><path class="cls-3" d="M21.29,82.18,80,23.5,79.43,23,21.18,81.23C21.22,81.55,21.25,81.86,21.29,82.18Z"/><path class="cls-3" d="M21.46,84.49l61-61L81.92,23,21.41,83.47C21.44,83.81,21.45,84.15,21.46,84.49Z"/><path class="cls-3" d="M21.44,87l63.5-63.5L84.41,23,21.47,85.9C21.47,86.27,21.46,86.63,21.44,87Z"/><path class="cls-3" d="M21.27,89.66,87.42,23.5,86.89,23,21.35,88.52C21.32,88.9,21.29,89.28,21.27,89.66Z"/><path class="cls-3" d="M21.08,92.31,89.9,23.49,89.37,23,21.16,91.17C21.13,91.55,21.11,91.93,21.08,92.31Z"/><path class="cls-3" d="M20.9,95,92.39,23.5,91.86,23,21,93.85C21,94.23,20.93,94.6,20.9,95Z"/><path class="cls-3" d="M20.72,97.65,94.88,23.5,94.35,23,20.8,96.52C20.78,96.89,20.75,97.27,20.72,97.65Z"/><path class="cls-3" d="M20.55,100.32,97.36,23.5,96.83,23,20.62,99.18C20.6,99.56,20.57,99.94,20.55,100.32Z"/><path class="cls-3" d="M20.38,103,99.84,23.49,99.31,23,20.45,101.82C20.43,102.2,20.4,102.58,20.38,103Z"/><path class="cls-3" d="M20.2,105.62,102.33,23.5,101.8,23,20.28,104.49C20.25,104.87,20.23,105.25,20.2,105.62Z"/><path class="cls-3" d="M20,108.29l84.8-84.79-.53-.53L20.1,107.16C20.08,107.53,20.05,107.91,20,108.29Z"/><path class="cls-3" d="M19.84,111,107.31,23.5l-.53-.53L19.92,109.82C19.9,110.2,19.87,110.58,19.84,111Z"/><path class="cls-3" d="M19.66,113.62,109.79,23.5l-.53-.53L19.74,112.48C19.72,112.86,19.69,113.24,19.66,113.62Z"/><path class="cls-3" d="M19.48,116.29l92.79-92.8-.53-.53L19.56,115.15C19.53,115.53,19.5,115.91,19.48,116.29Z"/><path class="cls-3" d="M19.28,119,114.75,23.5l-.53-.53L19.36,117.83C19.34,118.21,19.31,118.59,19.28,119Z"/><path class="cls-3" d="M19.08,121.65l98.17-98.16-.53-.53L19.17,120.51Z"/><path class="cls-3" d="M18.87,124.36,119.73,23.5,119.2,23,19,123.21Z"/><path class="cls-3" d="M18.65,127.07,122.22,23.5l-.53-.53L18.74,125.91Z"/><path class="cls-3" d="M18.42,129.78,124.69,23.5l-.53-.53L18.52,128.62C18.48,129,18.45,129.39,18.42,129.78Z"/><path class="cls-3" d="M18.17,132.5l109-109-.53-.53L18.28,131.33C18.25,131.72,18.21,132.11,18.17,132.5Z"/><path class="cls-3" d="M17.92,135.25,129.67,23.5l-.53-.53L18,134.08C18,134.47,18,134.86,17.92,135.25Z"/><rect class="cls-3" x="-5.41" y="79.73" width="160.86" height="0.75" transform="translate(-34.67 76.51) rotate(-45)"/><rect class="cls-3" x="-2.94" y="79.74" width="160.86" height="0.75" transform="translate(-33.95 78.26) rotate(-45)"/><rect class="cls-3" x="-0.44" y="79.73" width="160.86" height="0.75" transform="translate(-33.21 80.02) rotate(-45)"/><rect class="cls-3" x="2.04" y="79.73" width="160.86" height="0.75" transform="translate(-32.49 81.78) rotate(-45)"/><rect class="cls-3" x="4.53" y="79.73" width="160.86" height="0.75" transform="translate(-31.76 83.54) rotate(-45)"/><rect class="cls-3" x="7.01" y="79.73" width="160.86" height="0.75" transform="translate(-31.03 85.29) rotate(-45)"/><rect class="cls-3" x="9.49" y="79.73" width="160.86" height="0.75" transform="translate(-30.3 87.05) rotate(-45)"/><rect class="cls-3" x="11.98" y="79.73" width="160.86" height="0.75" transform="translate(-29.58 88.81) rotate(-45)"/><rect class="cls-3" x="14.47" y="79.73" width="160.86" height="0.75" transform="translate(-28.85 90.57) rotate(-45)"/><rect class="cls-3" x="16.95" y="79.73" width="160.86" height="0.75" transform="translate(-28.12 92.32) rotate(-45)"/><rect class="cls-3" x="19.44" y="79.73" width="160.86" height="0.75" transform="translate(-27.39 94.08) rotate(-45)"/><rect class="cls-3" x="21.92" y="79.73" width="160.86" height="0.75" transform="translate(-26.67 95.83) rotate(-45)"/><rect class="cls-3" x="24.41" y="79.73" width="160.86" height="0.75" transform="translate(-25.94 97.59) rotate(-45)"/><rect class="cls-3" x="26.89" y="79.73" width="160.86" height="0.75" transform="translate(-25.21 99.35) rotate(-45)"/><rect class="cls-3" x="29.38" y="79.73" width="160.86" height="0.75" transform="translate(-24.48 101.11) rotate(-45)"/><path class="cls-3" d="M167.19,24.69l-112,112,.53.53L167.3,25.64C167.26,25.32,167.22,25,167.19,24.69Z"/><path class="cls-3" d="M167.45,26.9,57.64,136.71l.53.53L167.59,27.81C167.54,27.51,167.49,27.21,167.45,26.9Z"/><path class="cls-3" d="M167.79,29,60.12,136.71l.53.53L168,29.92Z"/><path class="cls-3" d="M168.22,31.11,62.61,136.71l.53.53L168.43,32Z"/><path class="cls-3" d="M168.72,33.09,65.1,136.72l.53.53L169,33.91C168.89,33.64,168.8,33.37,168.72,33.09Z"/><path class="cls-3" d="M169.29,35,67.58,136.71l.53.53L169.56,35.79Z"/><path class="cls-3" d="M169.93,36.84,70.07,136.71l.53.53,99.62-99.62Z"/><path class="cls-3" d="M170.63,38.63,72.55,136.71l.53.54,97.86-97.86C170.83,39.14,170.73,38.89,170.63,38.63Z"/><path class="cls-3" d="M171.38,40.36,75,136.71l.53.53,96.16-96.15C171.6,40.85,171.5,40.6,171.38,40.36Z"/><path class="cls-3" d="M172.2,42,77.52,136.71l.54.53,94.49-94.5Z"/><path class="cls-3" d="M173.06,43.66,80,136.71l.53.53,92.9-92.91Z"/><path class="cls-3" d="M174,45.23,82.49,136.72l.53.53,91.36-91.37Z"/><path class="cls-3" d="M174.93,46.75,85,136.71l.53.53,89.86-89.86Z"/><path class="cls-3" d="M176,48.22l-88.5,88.49.53.53,88.42-88.41C176.26,48.63,176.1,48.42,176,48.22Z"/><path class="cls-3" d="M177,49.64,90,136.71l.53.53,87-87C177.33,50,177.18,49.84,177,49.64Z"/><path class="cls-3" d="M178.14,51,92.43,136.72l.53.53,85.67-85.67C178.46,51.39,178.3,51.19,178.14,51Z"/></g><path class="cls-4" d="M152.69,65.49a63.16,63.16,0,0,1-87.17,87.22l12.58-8.13a49.45,49.45,0,0,0,21.32,4.78,50,50,0,0,0,50-49.94,49.32,49.32,0,0,0-4.8-21.36l8.12-12.57m0-4.18h0l-10.77,16.6a47.64,47.64,0,0,1-64,64L61.34,152.66a65.46,65.46,0,0,0,91.35-91.35Z"/><path class="cls-5" d="M115.93,105.92A73.34,73.34,0,0,1,129,107.1a30.59,30.59,0,0,1-53.61,11.14,72.41,72.41,0,0,1,40.55-12.32m0-2.3a74.9,74.9,0,0,0-43.8,14.07,32.89,32.89,0,0,0,59.61-12.39A75.75,75.75,0,0,0,115.93,103.62Z"/><path class="cls-3" d="M99.41,143.52h-.13v-.46h.14c.71,0,1.43,0,2.14-.05v.46C100.87,143.5,100.14,143.52,99.41,143.52ZM97,143.45a22,22,0,0,1-2.3-.18l0-.46q1.13.12,2.28.18Zm6.92-.15v-.46c.75-.08,1.51-.17,2.26-.29l.07.46C105.41,143.12,104.69,143.22,103.89,143.3ZM92.38,143c-.76-.12-1.52-.26-2.27-.42l.1-.45q1.11.24,2.25.42Zm16.06-.36-.09-.46c.74-.15,1.49-.33,2.22-.52l.12.45c-.74.15-1.5.33-2.25.49ZM87.87,142c-.73-.2-1.47-.42-2.21-.66l.14-.44c.73.24,1.47.46,2.19.65Zm25-.58-.14-.44c.72-.23,1.44-.49,2.16-.76l.16.43c-.68.24-1.36.49-2.14.73Zm-29.42-.86c-.71-.28-1.43-.57-2.13-.89l.19-.42c.7.31,1.4.61,2.1.88Zm33.74-.79-.19-.42c.7-.3,1.39-.63,2.07-1l.21.41c-.65.33-1.35.66-2,1Zm-37.94-1.1c-.68-.35-1.36-.72-2-1.11l.23-.39c.65.38,1.33.75,2,1.09Zm42.06-1-.23-.4c.66-.38,1.31-.78,2-1.19l.25.38c-.59.4-1.27.81-1.93,1.19Zm-46-1.34c-.63-.41-1.27-.85-1.89-1.31l.27-.37c.62.45,1.25.89,1.88,1.3Zm49.93-1.17-.27-.37c.61-.45,1.22-.91,1.81-1.39l.29.36c-.61.46-1.22.93-1.84,1.38Zm-53.65-1.55c-.6-.48-1.18-1-1.75-1.5l.31-.34c.56.51,1.14,1,1.73,1.48Zm57.24-1.35-.3-.34c.56-.5,1.12-1,1.66-1.57l.32.33c-.55.52-1.12,1.05-1.69,1.56Zm-60.66-1.74c-.54-.55-1.08-1.11-1.59-1.68l.35-.31c.5.56,1,1.12,1.56,1.66ZM132.1,129l-.34-.31c.51-.56,1-1.14,1.48-1.73l.36.29C133.12,127.87,132.61,128.46,132.1,129Zm-67-1.93q-.73-.9-1.41-1.83l.38-.27c.44.61.91,1.22,1.38,1.81ZM135,125.43l-.37-.27c.44-.61.88-1.24,1.3-1.88l.39.25c-.45.68-.89,1.32-1.34,1.93Zm-72.64-2.1c-.41-.63-.82-1.29-1.21-2l.4-.23c.39.67.79,1.33,1.19,2Zm75.17-1.76-.4-.23c.39-.66.76-1.34,1.1-2l.41.21c-.37.7-.74,1.38-1.13,2Zm-77.48-2.24c-.34-.69-.68-1.39-1-2.09l.42-.18c.31.69.64,1.38,1,2.06Zm79.61-1.82-.42-.19c.31-.69.61-1.4.88-2.11l.43.17C140.26,116.09,140,116.81,139.69,117.51Zm-81.5-2.38c-.28-.72-.53-1.45-.77-2.18l.44-.14c.23.72.49,1.44.76,2.16Zm83.13-1.92-.44-.15c.23-.71.46-1.45.66-2.18l.44.12C141.78,111.74,141.56,112.48,141.32,113.21Zm-84.55-2.47c-.19-.75-.37-1.5-.53-2.25l.45-.09c.16.73.33,1.48.53,2.22Zm85.76-2-.45-.1c.16-.74.3-1.49.42-2.24l.45.07c-.12.78-.26,1.53-.42,2.29Zm-86.7-2.54c-.12-.77-.22-1.53-.29-2.29H56c.08.74.18,1.5.29,2.26Zm87.43-2h-.46c.09-.75.15-1.52.19-2.27h.46C143.41,102.66,143.34,103.44,143.26,104.2Zm-87.9-2.57v-2.3h.46v2.28Zm88.16-2h-.46v-.17c0-.77,0-1.54-.06-2.29h.46c0,.75.06,1.53.06,2.31ZM55.83,97h-.46a22,22,0,0,1,.18-2.3H56C55.93,95.52,55.87,96.28,55.83,97Zm87-2.18c-.08-.76-.17-1.52-.29-2.27l.45-.07c.12.75.22,1.52.3,2.29ZM56.31,92.5l-.45-.07c.11-.75.26-1.51.42-2.27l.45.1C56.57,91,56.43,91.76,56.31,92.5Zm85.8-2.15c-.15-.75-.33-1.5-.53-2.23L142,88c.2.73.37,1.49.54,2.24ZM57.26,88l-.44-.12c.2-.74.42-1.48.66-2.21l.44.14C57.69,86.57,57.46,87.31,57.26,88Zm83.68-2.11c-.24-.72-.49-1.44-.77-2.15l.43-.17c.28.72.54,1.45.77,2.18ZM58.69,83.7l-.43-.17c.28-.71.57-1.42.89-2.12l.42.18C59.25,82.29,59,83,58.69,83.7Zm80.62-2c-.31-.68-.64-1.38-1-2.06l.41-.21c.35.69.69,1.39,1,2.09ZM60.55,79.54l-.41-.21c.35-.68.72-1.36,1.1-2l.4.23C61.26,78.19,60.89,78.86,60.55,79.54Zm76.67-2c-.38-.67-.78-1.33-1.2-2l.39-.25c.42.65.83,1.32,1.21,2Zm-74.39-2-.38-.26c.42-.64.86-1.28,1.31-1.89l.37.27c-.44.67-.88,1.34-1.3,1.94Zm71.86-1.78c-.44-.61-.91-1.22-1.39-1.81l.36-.29c.48.6,1,1.21,1.41,1.83Zm-69.2-1.85-.35-.29c.48-.59,1-1.18,1.5-1.75l.34.3c-.48.57-1,1.15-1.46,1.74Zm66.33-1.7c-.5-.55-1-1.11-1.57-1.66l.32-.32c.55.55,1.08,1.11,1.59,1.67ZM68.55,68.52l-.32-.33c.54-.54,1.1-1.07,1.67-1.58l.31.34-1.63,1.57Zm60-1.54c-.56-.5-1.15-1-1.74-1.48l.29-.36c.6.49,1.19,1,1.76,1.5ZM71.91,65.47l-.29-.36q.9-.73,1.83-1.41l.27.38L72,65.47ZM125,64.11c-.61-.45-1.24-.88-1.88-1.3l.26-.38c.64.41,1.28.85,1.9,1.31ZM75.69,62.78l-.25-.38c.64-.42,1.3-.83,2-1.21l.23.4C77,62,76.31,62.37,75.69,62.78Zm45.57-1.16c-.65-.38-1.33-.75-2-1.09l.21-.41c.68.35,1.36.72,2,1.1ZM79.69,60.5l-.21-.41c.68-.35,1.38-.69,2.08-1l.19.42A19.78,19.78,0,0,0,79.69,60.5Zm37.55-1c-.69-.3-1.4-.6-2.1-.87l.16-.43c.72.28,1.43.57,2.13.88Zm-33.38-.9-.16-.43c.71-.27,1.45-.53,2.18-.77l.14.44c-.77.27-1.5.53-2.21.8ZM113,57.87c-.73-.24-1.46-.46-2.19-.65l.11-.45c.74.2,1.49.42,2.22.66Zm-24.77-.68-.12-.44c.73-.2,1.49-.38,2.24-.54l.1.45c-.75.2-1.55.34-2.27.57Zm20.36-.51c-.75-.15-1.5-.29-2.25-.41l.07-.46c.76.12,1.52.26,2.27.42Zm-15.9-.43-.07-.45c.75-.12,1.52-.22,2.29-.3L95,56l-2.32.33ZM104,56c-.75-.08-1.52-.14-2.28-.18v-.46a22.24,22.24,0,0,1,2.31.18Zm-6.85-.18v-.46c.75,0,1.51-.06,2.26-.06l0,.46h-.06c-.73,0-1.51,0-2.25.07Z"/><path class="cls-3" d="M36.69,180.08c0-.77-.06-1.54-.07-2.31h.46c0,.77,0,1.54.07,2.3Zm.4-4.62h-.4c0-.77,0-1.54.07-2.31h.46c-.07.77-.09,1.54-.1,2.31Zm.2-4.6h-.46q.09-1.16.21-2.31h.45c-.05.78-.11,1.55-.17,2.31Zm.47-4.57-.46-.06c.1-.77.22-1.53.34-2.29l.45.07c-.09.76-.2,1.51-.3,2.28Zm.73-4.55-.45-.08c.15-.76.3-1.52.47-2.27l.45.1c-.13.75-.27,1.51-.44,2.25Zm6.44-19.38h-.49s.16-.35.49-1l.42.2c-.31.61-.39.8-.39.8Zm1.13-2.24-.41-.21c.36-.68.72-1.36,1.1-2l.4.23c-.34.63-.71,1.31-1.06,2ZM181,132c-.42-.63-.22-.34-.67-1l.38-.27a10.82,10.82,0,0,1,.66,1Zm-2-2.82c-.46-.62-.93-1.22-1.41-1.82l.36-.29c.48.6,1,1.21,1.42,1.83Zm-2.88-3.6c-.5-.58-1-1.16-1.52-1.73l.34-.31q.78.87,1.53,1.74ZM173,122.17c-.54-.56-1.07-1.1-1.62-1.64l.32-.33c.55.54,1.09,1.09,1.63,1.65ZM169.69,119c-.56-.52-1.13-1-1.71-1.54l.3-.35c.59.51,1.16,1,1.72,1.56Zm-3.46-3c-.59-.49-1.19-1-1.79-1.44l.28-.37c.61.48,1.21,1,1.8,1.45Zm-3.63-2.83c-.61-.46-1.24-.9-1.87-1.34l.26-.38q1,.66,1.89,1.35Zm-3.78-2.62c-.64-.41-1.29-.82-1.95-1.22l.24-.39,2,1.23Zm-3.93-2.38-2-1.11.22-.41c.68.36,1.36.73,2,1.11ZM150.83,106l-2.08-1,.19-.42,2.09,1Zm-4.14-2q-1.06-.45-2.13-.87l.16-.43c.72.28,1.44.57,2.15.87Zm-4.29-1.67c-.72-.25-1.44-.5-2.17-.73l.14-.44c.73.23,1.46.48,2.19.74ZM138,101c-.73-.21-1.47-.41-2.21-.6l.11-.45c.75.19,1.49.4,2.23.61Z"/><path class="cls-3" d="M37,183.65c0-.38-.07-.76-.09-1.15h.45a11.4,11.4,0,0,0,.1,1.15Z"/><path class="cls-3" d="M99.41,176.48A77.07,77.07,0,1,1,176.47,99.4v0A77.15,77.15,0,0,1,99.41,176.48Zm0-153.67A76.61,76.61,0,1,0,176,99.43h0A76.69,76.69,0,0,0,99.41,22.81Z"/><path class="cls-3" d="M99.16,198.83H96.85v-.46h2.3Zm2.3,0v-.46c.77,0,1.53,0,2.3-.07v.46l-2.3.05Zm-6.92-.1c-.77,0-1.53-.08-2.3-.13v-.46l2.29.14Zm11.53-.1v-.46l2.29-.17v.45l-2.29.16Zm-16.13-.22-2.29-.25,0-.45q1.14.14,2.28.24Zm20.75-.21,0-.45c.76-.09,1.52-.18,2.28-.29l.06.46C112.19,198,111.43,198.12,110.69,198.2Zm-25.3-.35-2.28-.35.07-.46c.76.13,1.52.24,2.28.35Zm29.87-.27-.07-.45c.76-.12,1.51-.25,2.26-.39l.09.45-2.31.39Zm-34.42-.48-2.26-.46.09-.45c.75.16,1.5.31,2.26.45Zm39-.35-.09-.45c.75-.16,1.49-.32,2.24-.5l.1.45-2.32.5Zm-43.47-.62c-.75-.18-1.5-.36-2.24-.56l.12-.44c.74.19,1.48.38,2.22.55Zm48-.43-.12-.44,2.22-.6.12.44-2.32.6ZM71.84,195c-.74-.21-1.48-.44-2.21-.67l.13-.44,2.2.67Zm56.86-.51-.13-.44c.74-.23,1.47-.46,2.19-.71l.15.44Zm-61.27-.87c-.73-.25-1.45-.5-2.17-.77l.16-.43c.71.26,1.44.52,2.16.76Zm65.67-.6-.16-.43,2.16-.81.17.43c-.72.24-1.45.51-2.17.79Zm-70-1c-.71-.28-1.42-.56-2.13-.86l.18-.42,2.12.86Zm74.31-.68-.17-.42,2.11-.91.19.42c-.7.28-1.41.57-2.13.88Zm-78.55-1.1c-.7-.31-1.39-.63-2.09-1l.2-.41,2.08.95Zm82.78-.77-.19-.41,2.07-1,.21.42c-.69.3-1.39.64-2,1Zm-86.95-1.23c-.69-.34-1.37-.7-2-1.06l.21-.41,2,1.06Zm91.07-.86-.21-.41c.67-.36,1.35-.72,2-1.1l.22.41Zm-95.07-1.31c-.67-.37-1.33-.76-2-1.15l.23-.4c.66.39,1.32.78,2,1.15Zm99.17-.94-.24-.4,2-1.19.24.39c-.72.41-1.38.8-2,1.2ZM46.69,183.72l-1.93-1.24.25-.39,1.93,1.24Zm107.05-1-.25-.39c.64-.42,1.28-.84,1.91-1.28l.26.38-1.92,1.26ZM42.85,181.18c-.63-.43-1.26-.88-1.88-1.33l.27-.37,1.87,1.33Zm-3.73-2.71c-.61-.46-1.21-.94-1.81-1.42l.29-.36c.59.48,1.19.95,1.8,1.42Zm122.11-1.19-.29-.36c.6-.47,1.19-1,1.78-1.45l.3.36c-.59.49-1.19,1-1.79,1.45Zm-125.7-1.69c-.59-.49-1.18-1-1.75-1.5l.3-.35q.86.76,1.74,1.5Zm129.24-1.26-.3-.35q.87-.75,1.71-1.53l.31.34c-.56.52-1.14,1-1.72,1.54ZM32.06,172.55,30.39,171l.32-.34c.55.53,1.1,1.06,1.67,1.58Zm136.12-1.34-.32-.33c.55-.53,1.1-1.06,1.64-1.61l.33.33c-.55.55-1.14,1.08-1.65,1.61ZM28.75,169.34c-.55-.54-1.08-1.1-1.61-1.65l.34-.32q.78.84,1.59,1.65ZM171.43,168l-.33-.32q.79-.83,1.56-1.68l.34.31C172.49,166.83,172,167.39,171.43,168ZM25.58,166c-.52-.57-1-1.15-1.53-1.73l.35-.3c.5.58,1,1.15,1.52,1.72Zm149-1.45-.35-.31c.5-.57,1-1.16,1.48-1.75l.36.3c-.53.58-1,1.21-1.53,1.75Zm-152-2c-.48-.6-1-1.2-1.44-1.81l.36-.28c.47.6,1,1.2,1.44,1.79ZM177.47,161l-.36-.29c.48-.6.94-1.2,1.4-1.82l.37.28Q178.19,160.09,177.47,161ZM19.69,158.86c-.46-.61-.92-1.24-1.36-1.86l.37-.27,1.36,1.86Zm160.53-1.55-.38-.27c.45-.62.89-1.25,1.32-1.88l.38.26ZM17,155.1c-.43-.64-.86-1.28-1.27-1.93l.38-.25c.42.65.84,1.29,1.27,1.92Zm165.81-1.6-.39-.25c.41-.64.82-1.28,1.23-1.94l.39.25ZM14.54,151.22c-.4-.66-.8-1.32-1.18-2l.39-.23,1.18,2Zm170.72-1.64-.39-.23c.38-.66.76-1.32,1.13-2l.4.22C186,148.25,185.69,148.92,185.26,149.58Zm-173-2.36c-.37-.68-.73-1.36-1.09-2l.41-.21c.35.68.71,1.35,1.08,2Zm175.28-1.66-.41-.22c.35-.67.7-1.35,1-2l.41.2-1,2ZM10.09,143.12c-.34-.7-.67-1.39-1-2.09l.42-.2c.32.7.65,1.39,1,2.08Zm179.45-1.68-.42-.2c.32-.69.64-1.38.95-2.08l.42.18C190.18,140,189.86,140.74,189.54,141.44ZM8.15,138.92c-.3-.71-.6-1.42-.89-2.14l.42-.17c.29.71.59,1.42.89,2.12Zm183.24-1.69-.43-.18c.29-.7.58-1.42.85-2.13l.43.16c-.28.72-.55,1.44-.85,2.15Zm-185-2.6c-.27-.72-.54-1.45-.79-2.18L6,132.3c.26.73.52,1.45.79,2.17ZM193,132.92l-.43-.15c.26-.72.51-1.45.75-2.17l.43.14c-.22.73-.47,1.46-.73,2.18ZM4.87,130.26c-.24-.73-.47-1.47-.69-2.21l.44-.13c.22.74.45,1.47.69,2.2Zm189.62-1.72-.43-.13c.22-.73.43-1.47.64-2.21l.45.13c-.21.74-.46,1.48-.66,2.21Zm-191-2.7c-.2-.74-.39-1.49-.58-2.24l.44-.11c.19.75.38,1.49.59,2.22Zm192.2-1.74-.44-.11c.18-.74.37-1.49.54-2.23l.45.1c-.13.75-.31,1.5-.5,2.24ZM2.42,121.36l-.48-2.26L2.4,119c.15.76.31,1.5.47,2.25Zm194.36-1.76-.45-.09c.15-.75.3-1.5.44-2.25l.45.08C197.08,118.1,196.93,118.85,196.78,119.6ZM1.52,116.84c-.14-.76-.26-1.52-.38-2.28l.46-.07c.11.76.24,1.51.37,2.27Zm196.09-1.77-.46-.08c.12-.75.23-1.51.33-2.27l.46.06C197.84,113.55,197.69,114.31,197.61,115.07ZM.82,112.28c-.1-.76-.19-1.53-.27-2.29H1c.08.76.17,1.52.26,2.28Zm197.4-1.78-.46-.06c.09-.75.16-1.52.23-2.28h.46C198.38,109,198.3,109.73,198.22,110.5ZM.33,107.69c-.06-.77-.11-1.53-.16-2.3H.63c.05.77.1,1.53.16,2.29Zm198.29-1.79h-.46c.05-.76.09-1.53.12-2.29h.46C198.69,104.37,198.69,105.13,198.62,105.9ZM.06,103.08c0-.76,0-1.53-.06-2.3H.46c0,.77,0,1.53.06,2.3Zm198.75-1.78h-.46V97.13h.46v2.31C198.83,100,198.82,100.67,198.81,101.3ZM.46,98.48H0v-2.3H.46C.48,96.94.47,97.71.46,98.48Zm197.81-3.65c0-.77-.08-1.54-.14-2.3h.46c.06.77.1,1.53.14,2.3ZM.61,93.89H.15c0-.77.09-1.53.15-2.3H.76C.69,92.36.69,93.12.61,93.89ZM198,90.24q-.1-1.14-.24-2.28h.46c.09.76.17,1.52.24,2.29ZM1,89.31H.5c.07-.76.16-1.53.26-2.29l.45.06c-.08.71-.17,1.47-.25,2.23Zm196.47-3.63c-.11-.76-.22-1.51-.35-2.27l.46-.07c.12.75.23,1.51.34,2.28ZM1.52,84.75l-.45-.06q.16-1.16.36-2.28l.46.08c-.12.75-.2,1.51-.36,2.26Zm195.17-3.6q-.21-1.12-.45-2.25l.45-.1c.16.75.31,1.51.45,2.27ZM2.31,80.23l-.45-.09c.15-.76.31-1.51.47-2.26l.45.1C2.62,78.73,2.46,79.48,2.31,80.23Zm193.43-3.57c-.17-.75-.36-1.49-.55-2.23l.44-.12c.2.75.38,1.49.56,2.24ZM3.3,75.75l-.44-.11c.18-.75.37-1.5.57-2.24l.45.12C3.69,74.26,3.48,75,3.3,75.75Zm191.28-3.54c-.21-.73-.43-1.47-.65-2.2l.44-.13c.23.73.44,1.47.66,2.21ZM4.5,71.31l-.44-.13c.22-.74.44-1.47.68-2.2l.44.14C4.94,69.85,4.69,70.58,4.5,71.31Zm188.72-3.49c-.25-.73-.5-1.45-.76-2.18l.43-.15c.26.72.52,1.45.76,2.18ZM5.91,66.94l-.44-.15c.25-.73.51-1.45.78-2.17l.43.16C6.42,65.5,6.16,66.22,5.91,66.94Zm185.78-3.45c-.28-.72-.57-1.43-.86-2.14l.42-.17c.3.71.59,1.42.87,2.14ZM7.51,62.64l-.42-.17c.28-.71.57-1.42.88-2.13l.42.19C8.09,61.23,7.8,61.93,7.51,62.64Zm182.36-3.4c-.31-.7-.63-1.4-1-2.09l.42-.2c.33.67.67,1.37,1,2.1ZM9.31,58.43l-.41-.19c.31-.7.64-1.39,1-2.08l.42.2C10,57.05,9.63,57.74,9.31,58.43Zm178.6-3.35c-.35-.69-.7-1.37-1.06-2l.41-.21c.36.68.71,1.36,1.06,2Zm-176.6-.77-.41-.21c.35-.68.71-1.36,1.07-2l.41.22C12,53,11.69,53.63,11.31,54.31ZM185.75,51c-.38-.67-.76-1.34-1.15-2l.39-.23c.4.66.78,1.33,1.16,2Zm-2.35-4c-.41-.65-.82-1.3-1.24-1.94l.38-.25c.43.64.84,1.29,1.25,1.94Zm-2.53-3.84c-.43-.63-.87-1.26-1.32-1.88l.37-.27c.45.62.9,1.25,1.33,1.89ZM18.41,42.55,18,42.29l1.35-1.87.37.27Zm159.77-3c-.47-.61-.94-1.22-1.42-1.81l.36-.29c.48.6.95,1.21,1.42,1.82Zm-157-.64-.37-.28c.47-.6,1-1.21,1.43-1.8l.36.29a20.36,20.36,0,0,0-1.46,1.74Zm154.17-3-1.5-1.75.35-.3,1.5,1.75ZM24,35.3l-.34-.3c.5-.58,1-1.16,1.51-1.73l.35.3C25,34.14,24.52,34.72,24,35.3Zm148.25-2.84c-.52-.57-1.05-1.12-1.58-1.68l.33-.32c.54.56,1.06,1.12,1.58,1.69Zm-145.2-.58-.33-.32c.52-.56,1-1.11,1.59-1.66l.33.32Zm142-2.73c-.54-.54-1.09-1.07-1.65-1.6l.32-.33,1.66,1.6ZM30.29,28.6,30,28.27c.55-.54,1.11-1.07,1.67-1.6L32,27C31.4,27.53,30.84,28.06,30.29,28.6ZM165.76,26,164,24.48l.3-.35,1.73,1.53ZM33.69,25.47l-.3-.35c.57-.51,1.15-1,1.74-1.51l.3.35C34.8,24.45,34.23,25,33.69,25.47ZM162.28,23c-.59-.48-1.18-1-1.78-1.43l.28-.37c.61.48,1.2,1,1.8,1.45ZM37.15,22.5l-.29-.36,1.83-1.44.28.37c-.62.46-1.22.93-1.82,1.42Zm121.54-2.34c-.61-.46-1.23-.91-1.85-1.35l.26-.38c.63.45,1.25.9,1.86,1.36Zm-117.9-.48-.27-.37c.62-.46,1.24-.9,1.87-1.35l.27.38C42,18.78,41.41,19.23,40.79,19.68ZM44.55,17l-.25-.38c.64-.43,1.28-.85,1.93-1.26l.25.39C45.83,16.2,45.19,16.62,44.55,17Zm3.89-2.46-.24-.4c.66-.39,1.32-.78,2-1.16l.23.4-2,1.2Zm98.69-1.88-2-1.08.21-.41c.68.36,1.36.72,2,1.09Zm-94.7-.4-.22-.41,2-1.07.21.41c-.63.39-1.31.74-2,1.11Zm90.64-1.71-2.06-1,.19-.42c.7.32,1.39.65,2.08,1Zm-86.54-.38-.2-.42,2.1-1,.19.42c-.7.38-1.4.7-2.09,1Zm82.39-1.55-2.11-.89L137,7.3c.71.29,1.41.59,2.12.9ZM60.69,8.31l-.18-.43c.7-.3,1.42-.59,2.13-.88l.17.43Zm74-1.38c-.72-.28-1.43-.54-2.16-.8l.16-.43c.72.26,1.44.52,2.16.8ZM65,6.6l-.16-.43c.73-.27,1.45-.53,2.18-.78l.15.44Zm65.35-1.21c-.73-.24-1.45-.47-2.19-.69l.14-.44c.73.22,1.47.45,2.19.69Zm-61-.29-.14-.44L71.43,4l.13.44Zm56.6-1c-.74-.21-1.48-.4-2.22-.59l.11-.45,2.23.59ZM73.76,3.85l-.07-.48c.74-.2,1.48-.39,2.23-.57l.11.45ZM121.49,3c-.74-.17-1.49-.33-2.24-.48l.09-.45c.76.15,1.51.31,2.26.48Zm-43.27-.2-.1-.45,2.26-.47.09.46c-.78.1-1.49.26-2.24.42ZM117,2c-.76-.14-1.51-.26-2.27-.38l.07-.46,2.28.38ZM82.74,1.84l0-.44Q83.83,1.21,85,1L85,1.5c-.79.11-1.55.23-2.3.36Zm29.73-.55q-1.14-.15-2.28-.27l0-.46c.76.08,1.53.17,2.29.28ZM87.28,1.17V.72C88,.62,88.8.54,89.57.46V.92ZM107.9.82c-.76-.07-1.52-.12-2.29-.17V.19c.77,0,1.54.1,2.3.17ZM91.85.74V.28L94.16.14V.6C93.38.64,92.61.68,91.85.74ZM103.32.53c-.76,0-1.53-.05-2.29-.06V0c.77,0,1.53,0,2.3.06Zm-6.88,0V.07L98.69,0V.46Z"/><path class="cls-3" d="M183.89,183.89H14.94V14.94h169ZM15.4,183.43h168V15.4H15.4Z"/><path class="cls-3" d="M19.18,20.91V18.6h1.13a.61.61,0,0,1,.66.54v.05a.53.53,0,0,1-.4.53.57.57,0,0,1,.44.57.6.6,0,0,1-.58.62H19.18Zm1.37-1.65a.29.29,0,0,0-.28-.3h-.69v.6h.65a.29.29,0,0,0,.32-.26Zm0,1a.32.32,0,0,0-.32-.32h-.7v.64h.67a.31.31,0,0,0,.39-.2.26.26,0,0,0,0-.15Z"/><path class="cls-3" d="M22.74,20.91l-.51-.86h-.4v.86h-.41V18.6h1a.71.71,0,0,1,.76.66v.07a.64.64,0,0,1-.49.67l.57.91Zm0-1.58a.36.36,0,0,0-.35-.37H21.8v.73h.55a.35.35,0,0,0,.41-.29.2.2,0,0,0,0-.07Z"/><path class="cls-3" d="M23.6,20.91V18.6H24v2.31Z"/><path class="cls-3" d="M26.1,20.91l-1.2-1.65v1.65h-.41V18.6h.42l1.18,1.6V18.6h.4v2.31Z"/><path class="cls-3" d="M26.88,19.76A1.17,1.17,0,0,1,28,18.56h.07a1.08,1.08,0,0,1,.93.49l-.33.18a.75.75,0,0,0-.6-.31.84.84,0,0,0,0,1.68.81.81,0,0,0,.55-.21V20H28v-.36h1.1v.87a1.26,1.26,0,0,1-1,.42A1.17,1.17,0,0,1,26.88,19.76Z"/><path class="cls-3" d="M29.47,20.91V18.6h.4v2.31Z"/><path class="cls-3" d="M32,20.91l-1.21-1.65v1.65h-.4V18.6h.41L32,20.2V18.6h.41v2.31Z"/><path class="cls-3" d="M32.76,19.76a1.16,1.16,0,0,1,1.12-1.2H34a1.1,1.1,0,0,1,.93.49l-.33.18a.75.75,0,0,0-.6-.31.84.84,0,0,0,0,1.68.83.83,0,0,0,.54-.21V20h-.68v-.36h1.09v.87a1.26,1.26,0,0,1-1,.42A1.18,1.18,0,0,1,32.76,19.76Z"/><path class="cls-3" d="M180.35,35.83h-2.89V34.56a.91.91,0,1,1,1.81-.19.61.61,0,0,1,0,.19v.76h1.08Zm-2-1.7a.46.46,0,0,0-.46.46v.73h.92v-.69a.46.46,0,0,0-.42-.5h0Z"/><path class="cls-3" d="M180.35,31.54l-1.08.64v.5h1.08v.51h-2.89V31.92a.88.88,0,0,1,.82-.94h.09a.81.81,0,0,1,.85.68l1.13-.71Zm-2,0a.44.44,0,0,0-.46.44v.74h.92V32a.45.45,0,0,0-.4-.5h0Z"/><path class="cls-3" d="M180.35,30.47h-2.89V30h2.89Z"/><path class="cls-3" d="M180.35,28.51l-2.89,1.14v-.58l2.34-.87-2.34-.88v-.57l2.89,1.13Z"/><path class="cls-3" d="M180.35,24.62l-.55.21v1.33l.55.21V27l-2.89-1.14v-.63L180.35,24ZM178,25.5l1.38.52V25Z"/><path class="cls-3" d="M178.91,24a1.45,1.45,0,0,1-1.49-1.41v-.11a1.31,1.31,0,0,1,.65-1.16l.22.43a.84.84,0,0,0-.42.73,1,1,0,0,0,2.08,0,.84.84,0,0,0-.42-.73l.23-.43a1.31,1.31,0,0,1,.65,1.16A1.46,1.46,0,0,1,179,24Z"/><path class="cls-3" d="M180.35,20.19h-1.2l-1.69,1.12v-.58l1.24-.8-1.24-.79v-.58l1.69,1.12h1.2Z"/><path class="cls-3" d="M166.23,179.72v-2.49h-.89v-.46h2.35v.46h-.9v2.49Z"/><path class="cls-3" d="M167.83,178.25a1.51,1.51,0,1,1,1.51,1.52,1.47,1.47,0,0,1-1.51-1.43Zm2.48,0a1,1,0,1,0,0,.06Z"/><path class="cls-3" d="M172.48,179.72v-2.95H173v2.49h1.3v.46Z"/><path class="cls-3" d="M174.76,179.72v-2.95h.52v2.95Z"/><path class="cls-3" d="M175.91,179.72v-2.95h2v.46h-1.5V178h1.47v.46h-1.47v1.27Z"/><path class="cls-3" d="M178.39,179.72v-2.95h2v.46h-1.51V178h1.47v.46h-1.47v.81h1.51v.46Z"/><rect class="cls-3" x="36.76" y="19.44" width="22.39" height="0.46"/><rect class="cls-3" x="141.15" y="178.56" width="21.92" height="0.46"/><rect class="cls-3" x="178.6" y="38" width="0.46" height="21.94"/><circle class="cls-3" cx="68.44" cy="19.67" r="1.24"/><circle class="cls-3" cx="73.56" cy="19.67" r="1.24"/><circle class="cls-3" cx="78.69" cy="19.67" r="1.24"/><path class="cls-3" d="M15.17,50.93A3.81,3.81,0,1,1,19,47.12,3.82,3.82,0,0,1,15.17,50.93Zm0-7.39a3.59,3.59,0,1,0,3.58,3.6v0A3.6,3.6,0,0,0,15.17,43.54Z"/><circle class="cls-3" cx="15.17" cy="47.12" r="1.82"/><path class="cls-3" d="M183.69,138.39a3.82,3.82,0,1,1,3.81-3.83v0A3.83,3.83,0,0,1,183.69,138.39Zm0-7.4a3.59,3.59,0,1,0,3.58,3.6h0a3.6,3.6,0,0,0-3.58-3.58Z"/><circle class="cls-3" cx="183.66" cy="134.58" r="1.82"/><circle class="cls-3" cx="152.2" cy="15.43" r="2.2"/><path class="cls-3" d="M15.29,125.34,15,125l1.16-.75.25.39Zm3.1-2-.25-.39,1.93-1.25.25.39Zm3.86-2.5-.25-.39,1.94-1.25.25.39Zm4.14-2.67-.25-.39,1.94-1.25.25.39Zm3.87-2.5-.25-.39L31.94,114l.25.39Zm22.5-14.55-.25-.38,1.94-1.25.25.38Zm4.29-2.77L56.8,98l1.89-1.29.25.39Zm3.87-2.5-.23-.39,1.93-1.25.25.39Zm3.86-2.5L64.53,93l1.94-1.25.25.38Zm42.54-27.49-.25-.38L109,64.23l.25.38Zm3.76-2.43-.25-.38,1.93-1.25.25.38Zm3.61-2.36-.25-.38,1.94-1.25.25.38Zm3.88-2.5-.25-.38,1.94-1.25.25.38Zm19.65-12.7-.25-.38,1.93-1.25.25.38Zm3.87-2.5-.25-.38,1.93-1.25.25.38ZM146,40.88l-.25-.39,2-1.25.25.39Zm3.87-2.5-.25-.39,1.93-1.25.25.39Zm3.87-2.5-.25-.39,1.93-1.25.25.39Zm3.86-2.5L157.3,33l1.94-1.25.25.39Zm3.87-2.5-.25-.39,1.93-1.25.25.39Zm3.87-2.5L165,28,167,26.74l.25.39Z"/><path class="cls-3" d="M73.85,183.79l-.39-.25.78-1.2.38.25Zm2-3.14-.39-.25,1.25-1.93.39.25Zm2.5-3.86-.39-.25,1.25-1.94.39.25Zm2.49-3.87-.38-.25,1.25-1.94.38.25Zm2.5-3.87L83,168.8l1.24-1.93.39.25Zm2.5-3.87-.39-.25L86.69,163l.39.25Zm2.5-3.87-.39-.25,1.25-1.93.38.25Zm2.49-3.86-.38-.25,1.24-1.94.39.25Zm2.5-3.87-.39-.25,1.25-1.93.39.25Zm2.5-3.87-.39-.25,1.25-1.93.39.25Zm2.49-3.87-.38-.25,1.24-1.93.39.25Zm2.5-3.86-.39-.25,1.25-1.94.39.25Zm2.5-3.87-.39-.25,1.25-1.94.39.25Zm2.49-3.87-.38-.25,1.25-1.93.38.25Zm2.5-3.87-.39-.25,1.25-1.93.39.25Zm2.5-3.87-.39-.25,1.25-1.93.39.25Zm2.49-3.86-.38-.25,1.25-1.94.38.25Zm2.5-3.87-.38-.25,1.24-1.94.39.25Zm2.5-3.87-.39-.25,1.25-1.93.39.25Zm2.49-3.87-.38-.25,1.25-1.93.38.25Zm2.5-3.87-.38-.25,1.24-1.93.39.25Zm2.5-3.86-.39-.25,1.25-1.94.39.25Zm7.49-11.61-.39-.25,1.25-1.93.39.25Zm2.5-3.87-.39-.25,1.3-1.93.39.25Zm2.39-3.71-.39-.25L139,81.93l.39.25Zm2.23-3.45-.39-.25,1.25-1.93.39.25Zm12.85-19.91-.38-.25,1.25-1.94.38.25Zm2.5-3.87-.38-.25,1.24-1.93L157,55Zm2.5-3.87-.39-.25,1.25-1.93.39.25Zm2.5-3.86-.39-.25,1.27-1.9.38.25Zm2.49-3.87-.38-.25,1.24-1.94.39.25Zm2.5-3.87-.39-.25,1.25-1.93.39.25Zm2.5-3.87-.39-.25,1.25-1.93.38.25Zm2.49-3.87-.38-.25,1.24-1.93.39.25Z"/><path class="cls-3" d="M20.69,58.22a2,2,0,1,1,2-2A2,2,0,0,1,20.69,58.22Zm0-3.74a1.71,1.71,0,1,0,1.7,1.72v0a1.7,1.7,0,0,0-1.7-1.7Z"/><path class="cls-3" d="M20.69,65.89a2,2,0,1,1,2-2A2,2,0,0,1,20.69,65.89Zm0-3.74a1.71,1.71,0,1,0,1.7,1.72v0A1.7,1.7,0,0,0,20.69,62.15Z"/><path class="cls-3" d="M20.69,73.56a2,2,0,1,1,2-2A2,2,0,0,1,20.69,73.56Zm0-3.74a1.71,1.71,0,1,0,1.7,1.72v0A1.7,1.7,0,0,0,20.69,69.82Z"/><path class="cls-3" d="M152.2,21.49a6.06,6.06,0,1,1,6.06-6.06h0A6.06,6.06,0,0,1,152.2,21.49Zm0-11.78a5.72,5.72,0,1,0,5.72,5.72A5.72,5.72,0,0,0,152.2,9.71Z"/><path class="cls-3" d="M41.81,158.77a8.59,8.59,0,1,1,8.59-8.59A8.6,8.6,0,0,1,41.81,158.77Zm0-16.85a8.26,8.26,0,1,0,8.26,8.26h0A8.28,8.28,0,0,0,41.81,141.92Z"/><circle class="cls-3" cx="41.81" cy="150.18" r="2.29"/><circle class="cls-3" cx="37.35" cy="183.66" r="1.42"/><path class="cls-3" d="M132.26,99.06v.47l1.3.27.1-.45Z"/><path class="cls-3" d="M158.59,178.73l-1.31,1,.27.37,1.82-1.34Z"/></g></g></g></svg>