<svg xmlns="http://www.w3.org/2000/svg" xmlns:xlink="http://www.w3.org/1999/xlink" viewBox="0 0 198.82 201.67"><defs><style>.cls-1{fill:none;}.cls-2{fill:#fff;}.cls-3{fill:#95a6ba;}.cls-4{clip-path:url(#clip-path);}.cls-5{clip-path:url(#clip-path-2);}.cls-6{fill:#1abcb8;}.cls-7{fill:#1abdb7;}.cls-8{fill:#1bbeb6;}.cls-9{fill:#1bbeb5;}.cls-10{fill:#1bbfb4;}.cls-11{fill:#1cc0b3;}.cls-12{fill:#1cc1b2;}.cls-13{fill:#1cc1b1;}.cls-14{fill:#1cc2b0;}.cls-15{fill:#1dc3af;}.cls-16{fill:#1dc3ae;}.cls-17{fill:#1dc4ad;}.cls-18{fill:#1dc5ac;}.cls-19{fill:#1ec6ab;}.cls-20{fill:#1ec6aa;}.cls-21{fill:#1ec7a9;}.cls-22{fill:#1fc8a8;}.cls-23{fill:#1fc8a7;}.cls-24{fill:#1fc9a6;}.cls-25{fill:#1fcaa5;}.cls-26{fill:#20cba4;}.cls-27{fill:#20cba3;}.cls-28{fill:#20cca2;}.cls-29{fill:#20cda1;}.cls-30{fill:#21cda0;}.cls-31{fill:#21ce9f;}.cls-32{fill:#21cf9e;}.cls-33{fill:#22d09d;}.cls-34{fill:#22d09c;}.cls-35{fill:#22d19b;}.cls-36{fill:#22d29a;}.cls-37{fill:#23d299;}.cls-38{fill:#23d398;}.cls-39{fill:#23d497;}.cls-40{fill:#24d596;}.cls-41{fill:#24d595;}.cls-42{fill:#24d694;}.cls-43{fill:#24d793;}.cls-44{fill:#10a1df;}.cls-45{fill:#10a2de;}.cls-46{fill:#10a3dd;}.cls-47{fill:#10a3dc;}.cls-48{fill:#11a4db;}.cls-49{fill:#11a5da;}.cls-50{fill:#11a6d9;}.cls-51{fill:#12a6d8;}.cls-52{fill:#12a7d7;}.cls-53{fill:#12a8d6;}.cls-54{fill:#12a8d5;}.cls-55{fill:#13a9d4;}.cls-56{fill:#13aad3;}.cls-57{fill:#13abd2;}.cls-58{fill:#14abd1;}.cls-59{fill:#14acd0;}.cls-60{fill:#14adcf;}.cls-61{fill:#14adce;}.cls-62{fill:#15aecd;}.cls-63{fill:#15afcc;}.cls-64{fill:#15b0cb;}.cls-65{fill:#15b0ca;}.cls-66{fill:#16b1c9;}.cls-67{fill:#16b2c8;}.cls-68{fill:#16b2c7;}.cls-69{fill:#17b3c6;}.cls-70{fill:#17b4c5;}.cls-71{fill:#17b5c4;}.cls-72{fill:#17b5c3;}.cls-73{fill:#18b6c2;}.cls-74{fill:#18b7c1;}.cls-75{fill:#18b7c0;}.cls-76{fill:#18b8bf;}.cls-77{fill:#19b9be;}.cls-78{fill:#19babd;}.cls-79{fill:#19babc;}.cls-80{fill:#1abbbb;}.cls-81{fill:#1abcba;}.cls-82{fill:#0e9de5;}.cls-83{fill:#0e9ee4;}.cls-84{fill:#0f9ee3;}.cls-85{fill:#0f9fe2;}.cls-86{fill:#0fa0e1;}.cls-87{fill:#0fa1e0;}.cls-88{fill:#25d792;}.cls-89{fill:#25d891;}.cls-90{fill:#25d990;}.cls-91{fill:#25da8f;}.cls-92{fill:#26da8e;}.cls-93{fill:#26db8d;}.cls-94{clip-path:url(#clip-path-3);}</style><clipPath id="clip-path"><path class="cls-1" d="M116.29,112.25l25.35,14.86a5.54,5.54,0,0,1,0,9.58l-25.35,14.86a21.46,21.46,0,0,1-21.71,0L69.22,136.69a5.55,5.55,0,0,1,0-9.58l25.36-14.86A21.46,21.46,0,0,1,116.29,112.25Z"/></clipPath><clipPath id="clip-path-2"><path class="cls-1" d="M186.75,93.92l-6-3.54a5.11,5.11,0,0,0-5.18,0l-1.63,1L105.43,51.23,37,91.34l-1.63-1a5.09,5.09,0,0,0-5.17,0l-6.05,3.54a1.32,1.32,0,0,0,0,2.28l6.05,3.54a5.09,5.09,0,0,0,5.17,0L37,98.79l62.11,36.38L96.8,136.5a1.32,1.32,0,0,0,0,2.28l6,3.54a5.11,5.11,0,0,0,5.18,0l6-3.54a1.32,1.32,0,0,0,0-2.28l-2.27-1.33L173.9,98.79l1.63.95a5.11,5.11,0,0,0,5.18,0l6-3.54A1.32,1.32,0,0,0,186.75,93.92ZM105.43,53.73l66.33,38.86-2.27,1.33s0,0-.06.06h-128a.34.34,0,0,0-.06-.06L39.1,92.59ZM39.1,97.54l2.27-1.34s0,0,.06-.06h62.75l.15,36.26a5.5,5.5,0,0,0-1.49.56l-1.63,1Zm70.55,36.38L108,133a5,5,0,0,0-1.53-.56l-.15-36.26h63.09s0,0,.06.06l2.27,1.34Z"/></clipPath><clipPath id="clip-path-3"><path class="cls-1" d="M120.23,31.07l34.31,20.09a7.53,7.53,0,0,1,0,13l-34.31,20.1a29.08,29.08,0,0,1-29.38,0L56.54,64.14a7.53,7.53,0,0,1,0-13L90.85,31.07A29,29,0,0,1,120.23,31.07Z"/></clipPath></defs><title>priv</title><g id="Layer_2" data-name="Layer 2"><g id="Layer_1-2" data-name="Layer 1"><path class="cls-2" d="M169.73,131.9v10.36a9.07,9.07,0,0,1-4.54,7.91l-41.84,24.52a35.45,35.45,0,0,1-35.83,0L45.67,150.17a9.09,9.09,0,0,1-4.54-7.91V131.9Z"/><path class="cls-3" d="M105.43,179.79a35.65,35.65,0,0,1-18-4.89L45.54,150.39a9.35,9.35,0,0,1-4.66-8.13V131.65H170v10.61a9.33,9.33,0,0,1-4.66,8.13L123.47,174.9A35.65,35.65,0,0,1,105.43,179.79ZM41.38,132.15v10.11a8.85,8.85,0,0,0,4.41,7.7l41.85,24.51a35.22,35.22,0,0,0,35.58,0L165.07,150a8.85,8.85,0,0,0,4.41-7.7V132.15Z"/><path class="cls-2" d="M123.35,99.47,165.19,124a9.16,9.16,0,0,1,0,15.82l-41.84,24.52a35.45,35.45,0,0,1-35.83,0L45.67,139.81a9.16,9.16,0,0,1,0-15.82L87.52,99.47A35.45,35.45,0,0,1,123.35,99.47Z"/><path class="cls-3" d="M105.43,169.43a35.65,35.65,0,0,1-18-4.89L45.54,140a9.42,9.42,0,0,1,0-16.26L87.39,99.26a35.72,35.72,0,0,1,36.08,0l41.85,24.51a9.42,9.42,0,0,1,0,16.26l-41.85,24.51A35.65,35.65,0,0,1,105.43,169.43Zm0-74.56a35.23,35.23,0,0,0-17.79,4.82L45.79,124.2a8.93,8.93,0,0,0,0,15.4l41.85,24.51a35.22,35.22,0,0,0,35.58,0l41.85-24.51a8.93,8.93,0,0,0,0-15.4L123.22,99.69A35.23,35.23,0,0,0,105.43,94.87Z"/><g class="cls-4"><path class="cls-3" d="M25.13,144.89,95.05,75l-.53-.53L24.31,144.65C24.58,144.73,24.85,144.82,25.13,144.89Z"/><path class="cls-3" d="M27,145.48,97.53,75,97,74.44,26.23,145.21Z"/><path class="cls-3" d="M28.85,146.14,100,75l-.53-.53L28.08,145.85Z"/><path class="cls-3" d="M30.61,146.87,102.51,75l-.53-.53L29.86,146.56Z"/><path class="cls-3" d="M32.29,147.66,105,75l-.53-.53L31.57,147.32C31.81,147.43,32.06,147.54,32.29,147.66Z"/><path class="cls-3" d="M33.92,148.52,107.47,75l-.53-.53L33.23,148.15Z"/><path class="cls-3" d="M35.5,149.44,110,75l-.53-.53L34.83,149Z"/><path class="cls-3" d="M37,150.41,112.45,75l-.53-.53L36.37,150C36.59,150.12,36.8,150.27,37,150.41Z"/><path class="cls-3" d="M38.47,151.42,114.93,75l-.53-.53L37.85,151Z"/><path class="cls-3" d="M39.88,152.5,117.41,75l-.53-.53L39.29,152Z"/><path class="cls-3" d="M41.25,153.63,119.9,75l-.53-.53-78.7,78.7Z"/><path class="cls-3" d="M42.56,154.8,122.39,75l-.53-.53L42,154.3Z"/><path class="cls-3" d="M43.81,156,124.88,75l-.53-.54L43.28,155.5C43.46,155.68,43.64,155.85,43.81,156Z"/><path class="cls-3" d="M45,157.3,127.36,75l-.53-.53L44.51,156.75Z"/><path class="cls-3" d="M46.18,158.63,129.84,75l-.53-.53L45.69,158.06Z"/><path class="cls-3" d="M47.29,160l85-85-.53-.53-85,85Z"/><path class="cls-3" d="M48.36,161.42,134.81,75l-.53-.53L47.91,160.81Z"/><path class="cls-3" d="M49.38,162.89,137.31,75l-.54-.53L49,162.26Z"/><path class="cls-3" d="M50.34,164.41,139.78,75l-.53-.53L49.93,163.76C50.07,164,50.21,164.19,50.34,164.41Z"/><path class="cls-3" d="M51.25,166l91-91-.53-.53L50.86,165.31Z"/><path class="cls-3" d="M52.11,167.61,144.75,75l-.53-.53L51.75,166.91Z"/><path class="cls-3" d="M52.92,169.29,147.24,75l-.53-.53L52.58,168.57C52.7,168.81,52.81,169.05,52.92,169.29Z"/><path class="cls-3" d="M53.67,171,149.72,75l-.53-.53L53.36,170.27C53.47,170.52,53.56,170.77,53.67,171Z"/><path class="cls-3" d="M151,75.12,54.07,172c.1.25.19.51.29.77l96.55-96.55C150.93,75.88,151,75.5,151,75.12Z"/><path class="cls-3" d="M150.84,77.76,54.73,173.87c.09.27.18.53.26.8l95.86-95.86C150.85,78.46,150.84,78.11,150.84,77.76Z"/><path class="cls-3" d="M150.9,80.19,55.32,175.77c.08.27.17.54.24.82L151,81.18C150.94,80.85,150.92,80.52,150.9,80.19Z"/><path class="cls-3" d="M151.09,82.48,55.85,177.72c.07.28.15.56.21.85L151.2,83.43C151.16,83.12,151.12,82.8,151.09,82.48Z"/><path class="cls-3" d="M151.37,84.68,56.3,179.75c.06.29.13.58.18.88l95-95C151.46,85.29,151.42,85,151.37,84.68Z"/><path class="cls-3" d="M151.74,86.8,56.68,181.86l.15.91,95.09-95.09Z"/><path class="cls-3" d="M152.18,88.85,57,184.06c0,.31.08.63.11.95L152.4,89.69C152.33,89.41,152.25,89.13,152.18,88.85Z"/><path class="cls-3" d="M152.7,90.81,57.17,186.34c0,.3,0,.59.06.89v.11L153,91.62C152.86,91.35,152.78,91.08,152.7,90.81Z"/><path class="cls-3" d="M153.29,92.71,57.82,188.18l.53.53L153.56,93.5Z"/><path class="cls-3" d="M153.93,94.55,60.29,188.19l.53.53L154.24,95.3Z"/><path class="cls-3" d="M154.65,96.32,62.78,188.19l.53.53L155,97.06C154.87,96.81,154.75,96.57,154.65,96.32Z"/><path class="cls-3" d="M155.42,98,65.27,188.18l.53.53,90-90Z"/><path class="cls-3" d="M156.25,99.69,67.76,188.18l.53.53,88.32-88.32C156.48,100.16,156.37,99.93,156.25,99.69Z"/><path class="cls-3" d="M157.13,101.3,70.24,188.19l.53.53L157.51,102C157.38,101.76,157.25,101.53,157.13,101.3Z"/><path class="cls-3" d="M158.05,102.85,72.72,188.18l.53.53,85.21-85.21C158.32,103.29,158.18,103.07,158.05,102.85Z"/><path class="cls-3" d="M159,104.36,75.21,188.18l.53.53L159.46,105Z"/><path class="cls-3" d="M160.06,105.82,77.7,188.18l.53.53,82.29-82.29C160.36,106.22,160.21,106,160.06,105.82Z"/><path class="cls-3" d="M161.14,107.23l-81,81,.53.53,80.91-80.91C161.46,107.62,161.29,107.43,161.14,107.23Z"/><path class="cls-3" d="M162.26,108.58l-79.6,79.6.53.53,79.57-79.56Z"/><path class="cls-3" d="M163.44,109.89,85.15,188.18l.53.53L164,110.44Z"/><path class="cls-3" d="M164.67,111.15l-77,77,.53.53,77-77Z"/><path class="cls-3" d="M165.94,112.36,90.12,188.18l.53.53,75.85-75.85Z"/><path class="cls-3" d="M167.26,113.53,92.61,188.18l.53.53L167.85,114Z"/><path class="cls-3" d="M168.63,114.64,95.09,188.18l.53.53,73.62-73.62Z"/><path class="cls-3" d="M170.07,115.69l-72.5,72.5.53.53,72.59-72.59Z"/><path class="cls-3" d="M171.54,116.7l-71.47,71.48.53.53,71.59-71.59C172,117,171.76,116.83,171.54,116.7Z"/><path class="cls-3" d="M173.08,117.65l-70.53,70.53.53.53L173.75,118C173.52,117.92,173.3,117.78,173.08,117.65Z"/><path class="cls-3" d="M174.67,118.55,105,188.18l.53.53,69.8-69.8Z"/><path class="cls-3" d="M176.32,119.38l-68.81,68.81.53.53,69-69Z"/></g><g class="cls-5"><polygon class="cls-6" points="106.96 96.14 107.29 133.92 106.34 133.92 106.34 96.14 106.96 96.14"/><polygon class="cls-7" points="108.75 96.14 109.07 133.92 107.29 133.92 106.96 96.14 108.75 96.14"/><polygon class="cls-8" points="110.53 96.14 110.85 133.92 109.07 133.92 108.75 96.14 110.53 96.14"/><polygon class="cls-9" points="112.31 96.14 112.63 133.92 110.85 133.92 110.53 96.14 112.31 96.14"/><polygon class="cls-10" points="114.09 96.14 114.41 133.92 112.63 133.92 112.31 96.14 114.09 96.14"/><polygon class="cls-11" points="115.87 96.14 116.19 133.92 114.41 133.92 114.09 96.14 115.87 96.14"/><polygon class="cls-12" points="117.65 96.14 117.98 133.92 116.19 133.92 115.87 96.14 117.65 96.14"/><polygon class="cls-13" points="119.44 96.14 119.76 133.92 117.98 133.92 117.65 96.14 119.44 96.14"/><polygon class="cls-14" points="121.22 96.14 121.54 133.92 119.76 133.92 119.44 96.14 121.22 96.14"/><polygon class="cls-15" points="123 96.14 123.32 133.92 121.54 133.92 121.22 96.14 123 96.14"/><polygon class="cls-16" points="124.78 96.14 125.1 133.92 123.32 133.92 123 96.14 124.78 96.14"/><polygon class="cls-17" points="126.56 96.14 126.88 133.92 125.1 133.92 124.78 96.14 126.56 96.14"/><polygon class="cls-18" points="128.34 96.14 128.66 133.92 126.88 133.92 126.56 96.14 128.34 96.14"/><polygon class="cls-19" points="130.12 96.14 130.45 133.92 128.66 133.92 128.34 96.14 130.12 96.14"/><polygon class="cls-20" points="131.91 96.14 132.23 133.92 130.45 133.92 130.12 96.14 131.91 96.14"/><polygon class="cls-21" points="133.69 96.14 134.01 133.92 132.23 133.92 131.91 96.14 133.69 96.14"/><polygon class="cls-22" points="135.47 96.14 135.79 133.92 134.01 133.92 133.69 96.14 135.47 96.14"/><polygon class="cls-23" points="137.25 96.14 137.57 133.92 135.79 133.92 135.47 96.14 137.25 96.14"/><polygon class="cls-24" points="139.03 96.14 139.35 133.92 137.57 133.92 137.25 96.14 139.03 96.14"/><polygon class="cls-25" points="140.81 96.14 141.14 133.92 139.35 133.92 139.03 96.14 140.81 96.14"/><polygon class="cls-26" points="142.59 96.14 142.92 133.92 141.14 133.92 140.81 96.14 142.59 96.14"/><polygon class="cls-27" points="144.38 96.14 144.7 133.92 142.92 133.92 142.59 96.14 144.38 96.14"/><polygon class="cls-28" points="146.16 96.14 146.48 133.92 144.7 133.92 144.38 96.14 146.16 96.14"/><polygon class="cls-29" points="147.94 96.14 148.26 133.92 146.48 133.92 146.16 96.14 147.94 96.14"/><polygon class="cls-30" points="149.72 96.14 150.04 133.92 148.26 133.92 147.94 96.14 149.72 96.14"/><polygon class="cls-31" points="151.5 96.14 151.82 133.92 150.04 133.92 149.72 96.14 151.5 96.14"/><polygon class="cls-32" points="153.28 96.14 153.61 133.92 151.82 133.92 151.5 96.14 153.28 96.14"/><polygon class="cls-33" points="155.07 96.14 155.39 133.92 153.61 133.92 153.28 96.14 155.07 96.14"/><polygon class="cls-34" points="156.85 96.14 157.17 133.92 155.39 133.92 155.07 96.14 156.85 96.14"/><polygon class="cls-35" points="158.63 96.14 158.95 133.92 157.17 133.92 156.85 96.14 158.63 96.14"/><polygon class="cls-36" points="160.41 96.14 160.73 133.92 158.95 133.92 158.63 96.14 160.41 96.14"/><polygon class="cls-37" points="162.19 96.14 162.51 133.92 160.73 133.92 160.41 96.14 162.19 96.14"/><polygon class="cls-38" points="163.97 96.14 164.3 133.92 162.51 133.92 162.19 96.14 163.97 96.14"/><polygon class="cls-39" points="165.76 96.14 166.08 133.92 164.3 133.92 163.97 96.14 165.76 96.14"/><polygon class="cls-40" points="167.54 96.14 167.86 133.92 166.08 133.92 165.76 96.14 167.54 96.14"/><polygon class="cls-41" points="169.32 96.14 169.64 133.92 167.86 133.92 167.54 96.14 169.32 96.14"/><polygon class="cls-42" points="171.1 96.14 171.42 133.92 169.64 133.92 169.32 96.14 171.1 96.14"/><polygon class="cls-43" points="171.42 133.92 171.1 96.14 171.76 96.14 171.76 133.92 171.42 133.92"/><polygon class="cls-44" points="39.26 96.14 39.59 133.92 39.1 133.92 39.1 96.14 39.26 96.14"/><polygon class="cls-45" points="41.05 96.14 41.37 133.92 39.59 133.92 39.26 96.14 41.05 96.14"/><polygon class="cls-46" points="42.83 96.14 43.15 133.92 41.37 133.92 41.05 96.14 42.83 96.14"/><polygon class="cls-47" points="44.61 96.14 44.93 133.92 43.15 133.92 42.83 96.14 44.61 96.14"/><polygon class="cls-48" points="46.39 96.14 46.71 133.92 44.93 133.92 44.61 96.14 46.39 96.14"/><polygon class="cls-49" points="48.17 96.14 48.49 133.92 46.71 133.92 46.39 96.14 48.17 96.14"/><polygon class="cls-50" points="49.95 96.14 50.28 133.92 48.49 133.92 48.17 96.14 49.95 96.14"/><polygon class="cls-51" points="51.73 96.14 52.06 133.92 50.28 133.92 49.95 96.14 51.73 96.14"/><polygon class="cls-52" points="53.52 96.14 53.84 133.92 52.06 133.92 51.73 96.14 53.52 96.14"/><polygon class="cls-53" points="55.3 96.14 55.62 133.92 53.84 133.92 53.52 96.14 55.3 96.14"/><polygon class="cls-54" points="57.08 96.14 57.4 133.92 55.62 133.92 55.3 96.14 57.08 96.14"/><polygon class="cls-55" points="58.86 96.14 59.18 133.92 57.4 133.92 57.08 96.14 58.86 96.14"/><polygon class="cls-56" points="60.64 96.14 60.97 133.92 59.18 133.92 58.86 96.14 60.64 96.14"/><polygon class="cls-57" points="62.42 96.14 62.75 133.92 60.97 133.92 60.64 96.14 62.42 96.14"/><polygon class="cls-58" points="64.21 96.14 64.53 133.92 62.75 133.92 62.42 96.14 64.21 96.14"/><polygon class="cls-59" points="65.99 96.14 66.31 133.92 64.53 133.92 64.21 96.14 65.99 96.14"/><polygon class="cls-60" points="67.77 96.14 68.09 133.92 66.31 133.92 65.99 96.14 67.77 96.14"/><polygon class="cls-61" points="69.55 96.14 69.87 133.92 68.09 133.92 67.77 96.14 69.55 96.14"/><polygon class="cls-62" points="71.33 96.14 71.66 133.92 69.87 133.92 69.55 96.14 71.33 96.14"/><polygon class="cls-63" points="73.11 96.14 73.44 133.92 71.66 133.92 71.33 96.14 73.11 96.14"/><polygon class="cls-64" points="74.9 96.14 75.22 133.92 73.44 133.92 73.11 96.14 74.9 96.14"/><polygon class="cls-65" points="76.68 96.14 77 133.92 75.22 133.92 74.9 96.14 76.68 96.14"/><polygon class="cls-66" points="78.46 96.14 78.78 133.92 77 133.92 76.68 96.14 78.46 96.14"/><polygon class="cls-67" points="80.24 96.14 80.56 133.92 78.78 133.92 78.46 96.14 80.24 96.14"/><polygon class="cls-68" points="82.02 96.14 82.34 133.92 80.56 133.92 80.24 96.14 82.02 96.14"/><polygon class="cls-69" points="83.8 96.14 84.13 133.92 82.34 133.92 82.02 96.14 83.8 96.14"/><polygon class="cls-70" points="85.58 96.14 85.91 133.92 84.13 133.92 83.8 96.14 85.58 96.14"/><polygon class="cls-71" points="87.37 96.14 87.69 133.92 85.91 133.92 85.58 96.14 87.37 96.14"/><polygon class="cls-72" points="89.15 96.14 89.47 133.92 87.69 133.92 87.37 96.14 89.15 96.14"/><polygon class="cls-73" points="90.93 96.14 91.25 133.92 89.47 133.92 89.15 96.14 90.93 96.14"/><polygon class="cls-74" points="92.71 96.14 93.03 133.92 91.25 133.92 90.93 96.14 92.71 96.14"/><polygon class="cls-75" points="94.49 96.14 94.81 133.92 93.03 133.92 92.71 96.14 94.49 96.14"/><polygon class="cls-76" points="96.27 96.14 96.6 133.92 94.81 133.92 94.49 96.14 96.27 96.14"/><polygon class="cls-77" points="98.06 96.14 98.38 133.92 96.6 133.92 96.27 96.14 98.06 96.14"/><polygon class="cls-78" points="99.84 96.14 100.16 133.92 98.38 133.92 98.06 96.14 99.84 96.14"/><polygon class="cls-79" points="101.62 96.14 101.94 133.92 100.16 133.92 99.84 96.14 101.62 96.14"/><polygon class="cls-80" points="103.4 96.14 103.72 133.92 101.94 133.92 101.62 96.14 103.4 96.14"/><polygon class="cls-81" points="103.72 133.92 103.4 96.14 104.33 96.14 104.33 133.92 103.72 133.92"/><polygon class="cls-44" points="39.1 77.07 39.25 93.98 39.1 93.98 39.1 77.07"/><polygon class="cls-45" points="40.68 53.73 41.03 93.98 39.25 93.98 39.1 77.07 39.1 53.73 40.68 53.73"/><polygon class="cls-46" points="42.47 53.73 42.81 93.98 41.03 93.98 40.68 53.73 42.47 53.73"/><polygon class="cls-47" points="44.25 53.73 44.59 93.98 42.81 93.98 42.47 53.73 44.25 53.73"/><polygon class="cls-48" points="46.03 53.73 46.37 93.98 44.59 93.98 44.25 53.73 46.03 53.73"/><polygon class="cls-49" points="47.81 53.73 48.15 93.98 46.37 93.98 46.03 53.73 47.81 53.73"/><polygon class="cls-50" points="49.59 53.73 49.94 93.98 48.15 93.98 47.81 53.73 49.59 53.73"/><polygon class="cls-51" points="51.37 53.73 51.72 93.98 49.94 93.98 49.59 53.73 51.37 53.73"/><polygon class="cls-52" points="53.16 53.73 53.5 93.98 51.72 93.98 51.37 53.73 53.16 53.73"/><polygon class="cls-53" points="54.94 53.73 55.28 93.98 53.5 93.98 53.16 53.73 54.94 53.73"/><polygon class="cls-54" points="56.72 53.73 57.06 93.98 55.28 93.98 54.94 53.73 56.72 53.73"/><polygon class="cls-55" points="58.5 53.73 58.84 93.98 57.06 93.98 56.72 53.73 58.5 53.73"/><polygon class="cls-56" points="60.28 53.73 60.63 93.98 58.84 93.98 58.5 53.73 60.28 53.73"/><polygon class="cls-57" points="62.06 53.73 62.41 93.98 60.63 93.98 60.28 53.73 62.06 53.73"/><polygon class="cls-58" points="63.84 53.73 64.19 93.98 62.41 93.98 62.06 53.73 63.84 53.73"/><polygon class="cls-59" points="65.63 53.73 65.97 93.98 64.19 93.98 63.84 53.73 65.63 53.73"/><polygon class="cls-60" points="67.41 53.73 67.75 93.98 65.97 93.98 65.63 53.73 67.41 53.73"/><polygon class="cls-61" points="69.19 53.73 69.53 93.98 67.75 93.98 67.41 53.73 69.19 53.73"/><polygon class="cls-62" points="70.97 53.73 71.31 93.98 69.53 93.98 69.19 53.73 70.97 53.73"/><polygon class="cls-63" points="72.75 53.73 73.1 93.98 71.31 93.98 70.97 53.73 72.75 53.73"/><polygon class="cls-64" points="74.53 53.73 74.88 93.98 73.1 93.98 72.75 53.73 74.53 53.73"/><polygon class="cls-65" points="76.31 53.73 76.66 93.98 74.88 93.98 74.53 53.73 76.31 53.73"/><polygon class="cls-66" points="78.1 53.73 78.44 93.98 76.66 93.98 76.31 53.73 78.1 53.73"/><polygon class="cls-67" points="79.88 53.73 80.22 93.98 78.44 93.98 78.1 53.73 79.88 53.73"/><polygon class="cls-68" points="81.66 53.73 82 93.98 80.22 93.98 79.88 53.73 81.66 53.73"/><polygon class="cls-69" points="83.44 53.73 83.78 93.98 82 93.98 81.66 53.73 83.44 53.73"/><polygon class="cls-70" points="85.22 53.73 85.57 93.98 83.78 93.98 83.44 53.73 85.22 53.73"/><polygon class="cls-71" points="87 53.73 87.35 93.98 85.57 93.98 85.22 53.73 87 53.73"/><polygon class="cls-72" points="88.79 53.73 89.13 93.98 87.35 93.98 87 53.73 88.79 53.73"/><polygon class="cls-73" points="90.57 53.73 90.91 93.98 89.13 93.98 88.79 53.73 90.57 53.73"/><polygon class="cls-74" points="92.35 53.73 92.69 93.98 90.91 93.98 90.57 53.73 92.35 53.73"/><polygon class="cls-75" points="94.13 53.73 94.47 93.98 92.69 93.98 92.35 53.73 94.13 53.73"/><polygon class="cls-76" points="95.91 53.73 96.26 93.98 94.47 93.98 94.13 53.73 95.91 53.73"/><polygon class="cls-77" points="97.69 53.73 98.04 93.98 96.26 93.98 95.91 53.73 97.69 53.73"/><polygon class="cls-78" points="99.48 53.73 99.82 93.98 98.04 93.98 97.69 53.73 99.48 53.73"/><polygon class="cls-79" points="101.26 53.73 101.6 93.98 99.82 93.98 99.48 53.73 101.26 53.73"/><polygon class="cls-80" points="103.04 53.73 103.38 93.98 101.6 93.98 101.26 53.73 103.04 53.73"/><polygon class="cls-81" points="104.82 53.73 105.16 93.98 103.38 93.98 103.04 53.73 104.82 53.73"/><polygon class="cls-6" points="106.6 53.73 106.94 93.98 105.16 93.98 104.82 53.73 106.6 53.73"/><polygon class="cls-7" points="108.38 53.73 108.73 93.98 106.94 93.98 106.6 53.73 108.38 53.73"/><polygon class="cls-8" points="110.17 53.73 110.51 93.98 108.73 93.98 108.38 53.73 110.17 53.73"/><polygon class="cls-9" points="111.95 53.73 112.29 93.98 110.51 93.98 110.17 53.73 111.95 53.73"/><polygon class="cls-10" points="113.73 53.73 114.07 93.98 112.29 93.98 111.95 53.73 113.73 53.73"/><polygon class="cls-11" points="115.51 53.73 115.85 93.98 114.07 93.98 113.73 53.73 115.51 53.73"/><polygon class="cls-12" points="117.29 53.73 117.64 93.98 115.85 93.98 115.51 53.73 117.29 53.73"/><polygon class="cls-13" points="119.07 53.73 119.42 93.98 117.64 93.98 117.29 53.73 119.07 53.73"/><polygon class="cls-14" points="120.86 53.73 121.2 93.98 119.42 93.98 119.07 53.73 120.86 53.73"/><polygon class="cls-15" points="122.64 53.73 122.98 93.98 121.2 93.98 120.86 53.73 122.64 53.73"/><polygon class="cls-16" points="124.42 53.73 124.76 93.98 122.98 93.98 122.64 53.73 124.42 53.73"/><polygon class="cls-17" points="126.2 53.73 126.54 93.98 124.76 93.98 124.42 53.73 126.2 53.73"/><polygon class="cls-18" points="127.98 53.73 128.32 93.98 126.54 93.98 126.2 53.73 127.98 53.73"/><polygon class="cls-19" points="129.76 53.73 130.11 93.98 128.32 93.98 127.98 53.73 129.76 53.73"/><polygon class="cls-20" points="131.54 53.73 131.89 93.98 130.11 93.98 129.76 53.73 131.54 53.73"/><polygon class="cls-21" points="133.33 53.73 133.67 93.98 131.89 93.98 131.54 53.73 133.33 53.73"/><polygon class="cls-22" points="135.11 53.73 135.45 93.98 133.67 93.98 133.33 53.73 135.11 53.73"/><polygon class="cls-23" points="136.89 53.73 137.23 93.98 135.45 93.98 135.11 53.73 136.89 53.73"/><polygon class="cls-24" points="138.67 53.73 139.01 93.98 137.23 93.98 136.89 53.73 138.67 53.73"/><polygon class="cls-25" points="140.45 53.73 140.79 93.98 139.01 93.98 138.67 53.73 140.45 53.73"/><polygon class="cls-26" points="142.23 53.73 142.58 93.98 140.79 93.98 140.45 53.73 142.23 53.73"/><polygon class="cls-27" points="144.01 53.73 144.36 93.98 142.58 93.98 142.23 53.73 144.01 53.73"/><polygon class="cls-28" points="145.8 53.73 146.14 93.98 144.36 93.98 144.01 53.73 145.8 53.73"/><polygon class="cls-29" points="147.58 53.73 147.92 93.98 146.14 93.98 145.8 53.73 147.58 53.73"/><polygon class="cls-30" points="149.36 53.73 149.7 93.98 147.92 93.98 147.58 53.73 149.36 53.73"/><polygon class="cls-31" points="151.14 53.73 151.49 93.98 149.7 93.98 149.36 53.73 151.14 53.73"/><polygon class="cls-32" points="152.92 53.73 153.27 93.98 151.49 93.98 151.14 53.73 152.92 53.73"/><polygon class="cls-33" points="154.7 53.73 155.05 93.98 153.27 93.98 152.92 53.73 154.7 53.73"/><polygon class="cls-34" points="156.49 53.73 156.83 93.98 155.05 93.98 154.7 53.73 156.49 53.73"/><polygon class="cls-35" points="158.27 53.73 158.61 93.98 156.83 93.98 156.49 53.73 158.27 53.73"/><polygon class="cls-36" points="160.05 53.73 160.39 93.98 158.61 93.98 158.27 53.73 160.05 53.73"/><polygon class="cls-37" points="161.83 53.73 162.17 93.98 160.39 93.98 160.05 53.73 161.83 53.73"/><polygon class="cls-38" points="163.61 53.73 163.96 93.98 162.17 93.98 161.83 53.73 163.61 53.73"/><polygon class="cls-39" points="165.39 53.73 165.74 93.98 163.96 93.98 163.61 53.73 165.39 53.73"/><polygon class="cls-40" points="167.18 53.73 167.52 93.98 165.74 93.98 165.39 53.73 167.18 53.73"/><polygon class="cls-41" points="168.96 53.73 169.3 93.98 167.52 93.98 167.18 53.73 168.96 53.73"/><polygon class="cls-42" points="170.74 53.73 171.08 93.98 169.3 93.98 168.96 53.73 170.74 53.73"/><polygon class="cls-43" points="171.08 93.98 170.74 53.73 171.76 53.73 171.76 93.98 171.08 93.98"/><polygon class="cls-82" points="26.41 51.23 27.2 143.26 23.24 143.26 23.24 51.23 26.41 51.23"/><polygon class="cls-82" points="28.19 51.23 28.98 143.26 27.2 143.26 26.41 51.23 28.19 51.23"/><polygon class="cls-83" points="29.97 51.23 30.76 143.26 28.98 143.26 28.19 51.23 29.97 51.23"/><polygon class="cls-84" points="31.75 51.23 32.54 143.26 30.76 143.26 29.97 51.23 31.75 51.23"/><polygon class="cls-85" points="33.54 51.23 34.32 143.26 32.54 143.26 31.75 51.23 33.54 51.23"/><polygon class="cls-86" points="35.32 51.23 36.1 143.26 34.32 143.26 33.54 51.23 35.32 51.23"/><polygon class="cls-87" points="37.1 51.23 37.88 143.26 36.1 143.26 35.32 51.23 37.1 51.23"/><polygon class="cls-44" points="38.88 51.23 39.67 143.26 37.88 143.26 37.1 51.23 38.88 51.23"/><polygon class="cls-45" points="40.66 51.23 41.45 143.26 39.67 143.26 38.88 51.23 40.66 51.23"/><polygon class="cls-46" points="42.44 51.23 43.23 143.26 41.45 143.26 40.66 51.23 42.44 51.23"/><polygon class="cls-47" points="44.23 51.23 45.01 143.26 43.23 143.26 42.44 51.23 44.23 51.23"/><polygon class="cls-48" points="46.01 51.23 46.79 143.26 45.01 143.26 44.23 51.23 46.01 51.23"/><polygon class="cls-49" points="47.79 51.23 48.57 143.26 46.79 143.26 46.01 51.23 47.79 51.23"/><polygon class="cls-50" points="49.57 51.23 50.36 143.26 48.57 143.26 47.79 51.23 49.57 51.23"/><polygon class="cls-51" points="51.35 51.23 52.14 143.26 50.36 143.26 49.57 51.23 51.35 51.23"/><polygon class="cls-52" points="53.13 51.23 53.92 143.26 52.14 143.26 51.35 51.23 53.13 51.23"/><polygon class="cls-53" points="54.91 51.23 55.7 143.26 53.92 143.26 53.13 51.23 54.91 51.23"/><polygon class="cls-54" points="56.7 51.23 57.48 143.26 55.7 143.26 54.91 51.23 56.7 51.23"/><polygon class="cls-55" points="58.48 51.23 59.26 143.26 57.48 143.26 56.7 51.23 58.48 51.23"/><polygon class="cls-56" points="60.26 51.23 61.05 143.26 59.26 143.26 58.48 51.23 60.26 51.23"/><polygon class="cls-57" points="62.04 51.23 62.83 143.26 61.05 143.26 60.26 51.23 62.04 51.23"/><polygon class="cls-58" points="63.82 51.23 64.61 143.26 62.83 143.26 62.04 51.23 63.82 51.23"/><polygon class="cls-59" points="65.61 51.23 66.39 143.26 64.61 143.26 63.82 51.23 65.61 51.23"/><polygon class="cls-60" points="67.39 51.23 68.17 143.26 66.39 143.26 65.61 51.23 67.39 51.23"/><polygon class="cls-61" points="69.17 51.23 69.95 143.26 68.17 143.26 67.39 51.23 69.17 51.23"/><polygon class="cls-62" points="70.95 51.23 71.73 143.26 69.95 143.26 69.17 51.23 70.95 51.23"/><polygon class="cls-63" points="72.73 51.23 73.52 143.26 71.73 143.26 70.95 51.23 72.73 51.23"/><polygon class="cls-64" points="74.51 51.23 75.3 143.26 73.52 143.26 72.73 51.23 74.51 51.23"/><polygon class="cls-65" points="76.29 51.23 77.08 143.26 75.3 143.26 74.51 51.23 76.29 51.23"/><polygon class="cls-66" points="78.08 51.23 78.86 143.26 77.08 143.26 76.29 51.23 78.08 51.23"/><polygon class="cls-67" points="79.86 51.23 80.64 143.26 78.86 143.26 78.08 51.23 79.86 51.23"/><polygon class="cls-68" points="81.64 51.23 82.42 143.26 80.64 143.26 79.86 51.23 81.64 51.23"/><polygon class="cls-69" points="83.42 51.23 84.2 143.26 82.42 143.26 81.64 51.23 83.42 51.23"/><polygon class="cls-70" points="85.2 51.23 85.99 143.26 84.2 143.26 83.42 51.23 85.2 51.23"/><polygon class="cls-71" points="86.98 51.23 87.77 143.26 85.99 143.26 85.2 51.23 86.98 51.23"/><polygon class="cls-72" points="88.77 51.23 89.55 143.26 87.77 143.26 86.98 51.23 88.77 51.23"/><polygon class="cls-73" points="90.55 51.23 91.33 143.26 89.55 143.26 88.77 51.23 90.55 51.23"/><polygon class="cls-74" points="92.33 51.23 93.11 143.26 91.33 143.26 90.55 51.23 92.33 51.23"/><polygon class="cls-75" points="94.11 51.23 94.89 143.26 93.11 143.26 92.33 51.23 94.11 51.23"/><polygon class="cls-76" points="95.89 51.23 96.68 143.26 94.89 143.26 94.11 51.23 95.89 51.23"/><polygon class="cls-77" points="97.67 51.23 98.46 143.26 96.68 143.26 95.89 51.23 97.67 51.23"/><polygon class="cls-78" points="99.45 51.23 100.24 143.26 98.46 143.26 97.67 51.23 99.45 51.23"/><polygon class="cls-79" points="101.24 51.23 102.02 143.26 100.24 143.26 99.45 51.23 101.24 51.23"/><polygon class="cls-80" points="103.02 51.23 103.8 143.26 102.02 143.26 101.24 51.23 103.02 51.23"/><polygon class="cls-81" points="104.8 51.23 105.58 143.26 103.8 143.26 103.02 51.23 104.8 51.23"/><polygon class="cls-6" points="106.58 51.23 107.37 143.26 105.58 143.26 104.8 51.23 106.58 51.23"/><polygon class="cls-7" points="108.36 51.23 109.15 143.26 107.37 143.26 106.58 51.23 108.36 51.23"/><polygon class="cls-8" points="110.14 51.23 110.93 143.26 109.15 143.26 108.36 51.23 110.14 51.23"/><polygon class="cls-9" points="111.92 51.23 112.71 143.26 110.93 143.26 110.14 51.23 111.92 51.23"/><polygon class="cls-10" points="113.71 51.23 114.49 143.26 112.71 143.26 111.92 51.23 113.71 51.23"/><polygon class="cls-11" points="115.49 51.23 116.27 143.26 114.49 143.26 113.71 51.23 115.49 51.23"/><polygon class="cls-12" points="117.27 51.23 118.06 143.26 116.27 143.26 115.49 51.23 117.27 51.23"/><polygon class="cls-13" points="119.05 51.23 119.84 143.26 118.06 143.26 117.27 51.23 119.05 51.23"/><polygon class="cls-14" points="120.83 51.23 121.62 143.26 119.84 143.26 119.05 51.23 120.83 51.23"/><polygon class="cls-15" points="122.61 51.23 123.4 143.26 121.62 143.26 120.83 51.23 122.61 51.23"/><polygon class="cls-16" points="124.4 51.23 125.18 143.26 123.4 143.26 122.61 51.23 124.4 51.23"/><polygon class="cls-17" points="126.18 51.23 126.96 143.26 125.18 143.26 124.4 51.23 126.18 51.23"/><polygon class="cls-18" points="127.96 51.23 128.75 143.26 126.96 143.26 126.18 51.23 127.96 51.23"/><polygon class="cls-19" points="129.74 51.23 130.53 143.26 128.75 143.26 127.96 51.23 129.74 51.23"/><polygon class="cls-20" points="131.52 51.23 132.31 143.26 130.53 143.26 129.74 51.23 131.52 51.23"/><polygon class="cls-21" points="133.3 51.23 134.09 143.26 132.31 143.26 131.52 51.23 133.3 51.23"/><polygon class="cls-22" points="135.09 51.23 135.87 143.26 134.09 143.26 133.3 51.23 135.09 51.23"/><polygon class="cls-23" points="136.87 51.23 137.65 143.26 135.87 143.26 135.09 51.23 136.87 51.23"/><polygon class="cls-24" points="138.65 51.23 139.43 143.26 137.65 143.26 136.87 51.23 138.65 51.23"/><polygon class="cls-25" points="140.43 51.23 141.22 143.26 139.43 143.26 138.65 51.23 140.43 51.23"/><polygon class="cls-26" points="142.21 51.23 143 143.26 141.22 143.26 140.43 51.23 142.21 51.23"/><polygon class="cls-27" points="143.99 51.23 144.78 143.26 143 143.26 142.21 51.23 143.99 51.23"/><polygon class="cls-28" points="145.78 51.23 146.56 143.26 144.78 143.26 143.99 51.23 145.78 51.23"/><polygon class="cls-29" points="147.56 51.23 148.34 143.26 146.56 143.26 145.78 51.23 147.56 51.23"/><polygon class="cls-30" points="149.34 51.23 150.12 143.26 148.34 143.26 147.56 51.23 149.34 51.23"/><polygon class="cls-31" points="151.12 51.23 151.91 143.26 150.12 143.26 149.34 51.23 151.12 51.23"/><polygon class="cls-32" points="152.9 51.23 153.69 143.26 151.91 143.26 151.12 51.23 152.9 51.23"/><polygon class="cls-33" points="154.68 51.23 155.47 143.26 153.69 143.26 152.9 51.23 154.68 51.23"/><polygon class="cls-34" points="156.47 51.23 157.25 143.26 155.47 143.26 154.68 51.23 156.47 51.23"/><polygon class="cls-35" points="158.25 51.23 159.03 143.26 157.25 143.26 156.47 51.23 158.25 51.23"/><polygon class="cls-36" points="160.03 51.23 160.81 143.26 159.03 143.26 158.25 51.23 160.03 51.23"/><polygon class="cls-37" points="161.81 51.23 162.59 143.26 160.81 143.26 160.03 51.23 161.81 51.23"/><polygon class="cls-38" points="163.59 51.23 164.38 143.26 162.59 143.26 161.81 51.23 163.59 51.23"/><polygon class="cls-39" points="165.37 51.23 166.16 143.26 164.38 143.26 163.59 51.23 165.37 51.23"/><polygon class="cls-40" points="167.15 51.23 167.94 143.26 166.16 143.26 165.37 51.23 167.15 51.23"/><polygon class="cls-41" points="168.94 51.23 169.72 143.26 167.94 143.26 167.15 51.23 168.94 51.23"/><polygon class="cls-42" points="170.72 51.23 171.5 143.26 169.72 143.26 168.94 51.23 170.72 51.23"/><polygon class="cls-43" points="172.5 51.23 173.28 143.26 171.5 143.26 170.72 51.23 172.5 51.23"/><polygon class="cls-88" points="174.28 51.23 175.07 143.26 173.28 143.26 172.5 51.23 174.28 51.23"/><polygon class="cls-89" points="176.06 51.23 176.85 143.26 175.07 143.26 174.28 51.23 176.06 51.23"/><polygon class="cls-90" points="177.84 51.23 178.63 143.26 176.85 143.26 176.06 51.23 177.84 51.23"/><polygon class="cls-91" points="179.63 51.23 180.41 143.26 178.63 143.26 177.84 51.23 179.63 51.23"/><polygon class="cls-92" points="181.41 51.23 182.19 143.26 180.41 143.26 179.63 51.23 181.41 51.23"/><polygon class="cls-93" points="183.19 51.23 183.97 143.26 182.19 143.26 181.41 51.23 183.19 51.23"/><polygon class="cls-93" points="183.97 143.26 183.19 51.23 187.62 51.23 187.62 143.26 183.97 143.26"/></g><path class="cls-2" d="M97.43,49.7,74.25,36.12a19.64,19.64,0,0,0-19.85,0L31.22,49.7a5.07,5.07,0,0,0,0,8.76L54.4,72a19.64,19.64,0,0,0,19.85,0L97.43,58.46A5.07,5.07,0,0,0,97.43,49.7ZM87.26,57.12,71.2,66.53a13.64,13.64,0,0,1-13.75,0L41.38,57.12a3.53,3.53,0,0,1,0-6.08l16.07-9.41a13.64,13.64,0,0,1,13.75,0L87.26,51A3.53,3.53,0,0,1,87.26,57.12Z"/><path class="cls-3" d="M64.32,75a19.94,19.94,0,0,1-10-2.72L31.09,58.68a5.33,5.33,0,0,1,0-9.2L54.27,35.9a19.91,19.91,0,0,1,20.1,0L97.56,49.48a5.34,5.34,0,0,1,0,9.2L74.37,72.26A19.91,19.91,0,0,1,64.32,75Zm0-41.3a19.39,19.39,0,0,0-9.8,2.65L31.34,49.91a4.83,4.83,0,0,0,0,8.34L54.52,71.83a19.41,19.41,0,0,0,19.6,0L97.3,58.25a4.83,4.83,0,0,0,0-8.34L74.12,36.33A19.37,19.37,0,0,0,64.32,33.68Zm0,35a13.8,13.8,0,0,1-7-1.9L41.26,57.33a3.76,3.76,0,0,1,0-6.5l16.06-9.41a13.86,13.86,0,0,1,14,0l16.07,9.41a3.77,3.77,0,0,1,0,6.5L71.32,66.74A13.77,13.77,0,0,1,64.32,68.64Zm0-28.62a13.35,13.35,0,0,0-6.75,1.83L41.51,51.26a3.26,3.26,0,0,0,0,5.64l16.06,9.41a13.36,13.36,0,0,0,13.5,0L87.14,56.9a3.27,3.27,0,0,0,0-5.64L71.07,41.85A13.32,13.32,0,0,0,64.32,40Z"/><path class="cls-2" d="M99.94,48v8a5.05,5.05,0,0,1-2.51,4.39L74.25,74A19.64,19.64,0,0,1,54.4,74L31.22,60.38A5,5,0,0,1,28.7,56V48L64.32,65.75Z"/><path class="cls-3" d="M64.32,76.9a19.85,19.85,0,0,1-10-2.73L31.09,60.59A5.27,5.27,0,0,1,28.45,56V47.62L64.32,65.47l35.87-17.85V56a5.26,5.26,0,0,1-2.63,4.6L74.37,74.17A19.83,19.83,0,0,1,64.32,76.9ZM29,48.43V56a4.79,4.79,0,0,0,2.39,4.17L54.52,73.74a19.41,19.41,0,0,0,19.6,0L97.3,60.16A4.78,4.78,0,0,0,99.69,56V48.43L64.32,66l-.11,0Z"/><path class="cls-2" d="M97.43,43.35,74.25,29.77a19.64,19.64,0,0,0-19.85,0L31.22,43.35a5.08,5.08,0,0,0,0,8.77L54.4,65.7a19.64,19.64,0,0,0,19.85,0L97.43,52.12A5.08,5.08,0,0,0,97.43,43.35ZM87.26,50.77,71.2,60.18a13.59,13.59,0,0,1-13.75,0L41.38,50.77a3.52,3.52,0,0,1,0-6.07l16.07-9.41a13.59,13.59,0,0,1,13.75,0L87.26,44.7A3.52,3.52,0,0,1,87.26,50.77Z"/><path class="cls-3" d="M64.32,68.64a19.94,19.94,0,0,1-10-2.72L31.09,52.34a5.33,5.33,0,0,1,0-9.2L54.27,29.56a19.91,19.91,0,0,1,20.1,0L97.56,43.14a5.34,5.34,0,0,1,0,9.2L74.37,65.92A19.91,19.91,0,0,1,64.32,68.64Zm0-41.31A19.41,19.41,0,0,0,54.52,30L31.34,43.57a4.82,4.82,0,0,0,0,8.33L54.52,65.48a19.41,19.41,0,0,0,19.6,0L97.3,51.9a4.82,4.82,0,0,0,0-8.33L74.12,30A19.38,19.38,0,0,0,64.32,27.33Zm0,35a13.9,13.9,0,0,1-7-1.9L41.26,51a3.77,3.77,0,0,1,0-6.51l16.06-9.41a13.86,13.86,0,0,1,14,0l16.07,9.41a3.78,3.78,0,0,1,0,6.51L71.32,60.4A13.87,13.87,0,0,1,64.32,62.3Zm0-28.62a13.35,13.35,0,0,0-6.75,1.83L41.51,44.92a3.26,3.26,0,0,0,0,5.64L57.57,60a13.36,13.36,0,0,0,13.5,0l16.07-9.41a3.27,3.27,0,0,0,0-5.64L71.07,35.51A13.32,13.32,0,0,0,64.32,33.68Z"/><path class="cls-2" d="M158.25,57.65V84.89a7.45,7.45,0,0,1-3.71,6.49l-34.31,20.09a29,29,0,0,1-29.38,0L56.54,91.38a7.46,7.46,0,0,1-3.72-6.49V57.65Z"/><path class="cls-3" d="M105.54,115.7a29.22,29.22,0,0,1-14.81-4L56.42,91.59a7.69,7.69,0,0,1-3.85-6.7V57.4H158.5V84.89a7.68,7.68,0,0,1-3.84,6.7l-34.31,20.1A29.25,29.25,0,0,1,105.54,115.7ZM53.07,57.9v27a7.2,7.2,0,0,0,3.6,6.27L91,111.26a28.84,28.84,0,0,0,29.12,0l34.31-20.1A7.2,7.2,0,0,0,158,84.89v-27Z"/><path class="cls-2" d="M120.23,31.07l34.31,20.09a7.53,7.53,0,0,1,0,13l-34.31,20.1a29.08,29.08,0,0,1-29.38,0L56.54,64.14a7.53,7.53,0,0,1,0-13L90.85,31.07A29,29,0,0,1,120.23,31.07Z"/><path class="cls-2" d="M110.26,59.77V55.49a3.14,3.14,0,0,0,.1-.74c0-3.18-4.67-5.76-10.42-5.76s-10.41,2.58-10.41,5.76a4,4,0,0,0,1.4,2.88c1.81-1.72,5.16-2.87,9-2.87C105.24,54.76,109.6,56.94,110.26,59.77Z"/><path class="cls-3" d="M110.51,62,110,59.83c-.64-2.75-5-4.83-10.08-4.83-3.63,0-7,1.08-8.83,2.81l-.18.16-.17-.16a4.28,4.28,0,0,1-1.48-3.06c0-3.31,4.78-6,10.66-6s10.67,2.7,10.67,6a3.4,3.4,0,0,1-.11.79ZM99.94,54.5c4.6,0,8.61,1.67,10.07,4v-3a3.44,3.44,0,0,0,.1-.74c0-3-4.56-5.51-10.17-5.51s-10.16,2.47-10.16,5.51a3.67,3.67,0,0,0,1.16,2.53C92.88,55.57,96.3,54.5,99.94,54.5Z"/><path class="cls-2" d="M125,64.14l-14.75-8.65v5.76L121.77,68l3.24-1.9A1.13,1.13,0,0,0,125,64.14Z"/><path class="cls-3" d="M121.77,68.28,110,61.39V55.05l15.13,8.87a1.34,1.34,0,0,1,.68,1.19,1.37,1.37,0,0,1-.68,1.2Zm-11.26-7.17,11.26,6.6,3.12-1.83a.89.89,0,0,0,.43-.77.86.86,0,0,0-.43-.76l-14.38-8.43Z"/><path class="cls-2" d="M110.26,61.25V59.77c-.66-2.83-5-5-10.32-5-3.85,0-7.2,1.15-9,2.87,1.81,1.72,5.16,2.87,9,2.87l.72,0,14.75,8.64a4.33,4.33,0,0,0,4.09.14,2.44,2.44,0,0,0,.34-.14L121.77,68Z"/><path class="cls-3" d="M117.57,70a4.53,4.53,0,0,1-2.29-.62l-14.68-8.6h-.66c-3.75,0-7.27-1.12-9.18-2.94l-.19-.18.19-.18c1.91-1.82,5.43-3,9.18-3,5.33,0,9.87,2.24,10.56,5.21v1.4L122.26,68,120,69.34l-.23.1-.12,0A4.75,4.75,0,0,1,117.57,70Zm-16.85-9.73,14.81,8.68a4.12,4.12,0,0,0,3.86.13l.17-.07a.94.94,0,0,0,.15-.06l1.56-.92L110,61.39V59.77c-.63-2.69-5-4.77-10.07-4.77-3.5,0-6.78,1-8.63,2.63,1.85,1.62,5.13,2.62,8.63,2.62h.78Z"/><path class="cls-3" d="M99.66,2.84H102V3.3h-2.3Zm-2.3,0V3.3c-.77,0-1.53,0-2.3.07V2.91l2.3-.05Zm6.92.1c.77,0,1.53.08,2.3.13v.46l-2.29-.14ZM92.75,3V3.5l-2.29.17V3.22l2.29-.16Zm16.13.22,2.29.25,0,.45-2.28-.24Zm-20.75.21.05.45c-.76.09-1.52.18-2.28.29l-.06-.46C86.63,3.67,87.39,3.55,88.13,3.47Zm25.3.35,2.28.35-.07.46c-.76-.13-1.52-.24-2.28-.35Zm-29.87.27.07.45c-.76.12-1.51.25-2.26.39l-.09-.45,2.31-.39ZM118,4.57l2.26.46-.09.45c-.75-.16-1.5-.31-2.26-.45ZM79,4.92l.09.45c-.75.16-1.49.32-2.24.5l-.1-.45,2.32-.5Zm43.47.62c.75.18,1.5.36,2.24.56l-.12.44c-.74-.19-1.48-.38-2.22-.55ZM74.45,6l.12.44L72.35,7l-.12-.44c.81-.22,1.58-.42,2.32-.6Zm52.53.7c.74.21,1.48.44,2.21.67l-.13.44-2.2-.67Zm-56.86.51.13.44c-.74.23-1.47.46-2.19.71l-.15-.44Zm61.27.87c.73.25,1.45.5,2.17.77l-.16.43c-.71-.26-1.44-.52-2.16-.76Zm-65.67.6.16.43-2.16.81-.17-.43c.72-.24,1.45-.51,2.17-.79Zm70,1c.71.28,1.42.56,2.13.86l-.18.42-2.12-.86Zm-74.31.68.17.42-2.11.91-.19-.42c.7-.28,1.41-.57,2.13-.88ZM140,11.43c.7.31,1.39.63,2.09,1l-.2.41-2.08-.95Zm-82.78.77.19.41-2.07,1-.21-.42c.69-.3,1.39-.64,2-1Zm86.95,1.23c.69.34,1.37.7,2,1.06l-.21.41-2-1.06Zm-91.07.86.21.41c-.67.36-1.35.72-2,1.1l-.22-.41Zm95.07,1.31c.67.37,1.33.76,2,1.15l-.23.4c-.66-.39-1.32-.78-2-1.15ZM49,16.54l.24.4-2,1.19L47,17.74c.72-.41,1.38-.8,2-1.2ZM152.13,18l1.93,1.24-.25.39-1.93-1.24Zm-107,1,.25.39c-.64.42-1.28.84-1.91,1.28l-.26-.38L45.08,19ZM156,20.49c.63.43,1.26.88,1.88,1.33l-.27.37-1.87-1.33Zm3.73,2.71c.61.46,1.21.94,1.81,1.42l-.29.36c-.59-.48-1.19-.95-1.8-1.42ZM37.59,24.39l.29.36c-.6.47-1.19,1-1.78,1.45l-.3-.36c.59-.49,1.19-1,1.79-1.45Zm3.5-2.69.29.36c-.6.47-1.19,1-1.78,1.45l-.3-.36c.59-.49,1.19-1,1.79-1.45Zm122.2,4.38c.59.49,1.18,1,1.75,1.5l-.3.35q-.86-.76-1.74-1.5ZM34.05,27.34l.3.35q-.87.75-1.71,1.53l-.31-.34c.56-.52,1.14-1,1.72-1.54Zm132.71,1.78,1.67,1.55-.32.34c-.55-.53-1.1-1.06-1.67-1.58ZM30.64,30.46l.32.33c-.55.53-1.1,1.06-1.64,1.61L29,32.07c.55-.55,1.14-1.08,1.65-1.61Zm139.43,1.87c.55.54,1.08,1.1,1.61,1.65l-.34.32q-.78-.84-1.59-1.65ZM27.39,33.67l.33.32q-.79.81-1.56,1.68l-.34-.31C26.33,34.84,26.86,34.28,27.39,33.67Zm145.85,2c.52.57,1,1.15,1.53,1.73l-.35.3c-.5-.58-1-1.15-1.52-1.72Zm-149,1.45.35.31c-.5.57-1,1.16-1.48,1.75l-.36-.3c.53-.58,1-1.21,1.53-1.75Zm152,2c.48.6,1,1.2,1.44,1.81l-.36.28c-.47-.6-1-1.2-1.44-1.79ZM21.35,40.67l.36.29c-.48.6-.94,1.2-1.4,1.82l-.37-.28Q20.63,41.59,21.35,40.67Zm157.78,2.14c.46.61.92,1.24,1.36,1.86l-.37.27-1.36-1.86ZM18.6,44.36l.38.27c-.45.62-.89,1.25-1.32,1.88l-.38-.26Zm163.18,2.21c.43.64.86,1.28,1.27,1.93l-.38.25c-.42-.65-.84-1.29-1.27-1.92ZM16,48.17l.39.25c-.41.64-.82,1.28-1.23,1.94l-.39-.25Zm168.31,2.28c.4.66.8,1.32,1.18,2l-.39.23-1.18-2ZM13.56,52.09l.39.23c-.38.66-.76,1.32-1.13,2l-.4-.22C12.79,53.42,13.13,52.75,13.56,52.09Zm173,2.36c.37.68.73,1.36,1.09,2l-.41.21c-.35-.68-.71-1.35-1.08-2ZM11.28,56.11l.41.22c-.35.67-.7,1.35-1,2l-.41-.2,1-2Zm177.45,2.44c.34.7.67,1.39,1,2.09l-.42.2c-.32-.7-.65-1.39-1-2.08ZM9.28,60.23l.42.2c-.32.69-.64,1.38-.95,2.08l-.42-.18C8.64,61.67,9,60.93,9.28,60.23Zm181.39,2.52c.3.71.6,1.42.89,2.14l-.42.17c-.29-.71-.59-1.42-.89-2.12ZM7.43,64.44l.43.18c-.29.7-.58,1.42-.85,2.13l-.43-.16c.28-.72.55-1.44.85-2.15Zm185,2.6c.27.72.54,1.45.79,2.18l-.43.15c-.26-.73-.52-1.45-.79-2.17ZM5.8,68.75l.43.15c-.26.72-.51,1.45-.75,2.17l-.43-.14c.22-.73.47-1.46.73-2.18ZM194,71.41c.24.73.47,1.47.69,2.21l-.44.13c-.22-.74-.45-1.47-.69-2.2ZM4.33,73.13l.43.13c-.22.73-.43,1.47-.64,2.21l-.45-.13c.21-.74.46-1.48.66-2.21Zm191,2.7c.2.74.39,1.49.58,2.24l-.44.11c-.19-.75-.38-1.49-.59-2.22ZM3.13,77.57l.44.11c-.18.74-.37,1.49-.54,2.23l-.45-.1c.13-.75.31-1.5.5-2.24ZM196.4,80.31l.48,2.26-.46.09c-.15-.76-.31-1.5-.47-2.25ZM2,82.07l.45.09c-.15.75-.3,1.5-.44,2.25l-.45-.08C1.74,83.57,1.89,82.82,2,82.07ZM197.3,84.83c.14.76.26,1.52.38,2.28l-.46.07c-.11-.76-.24-1.51-.37-2.27ZM1.21,86.6l.46.08c-.12.75-.23,1.51-.33,2.27l-.46-.06C1,88.12,1.13,87.36,1.21,86.6ZM198,89.39c.1.76.19,1.53.27,2.29h-.46c-.08-.76-.17-1.52-.26-2.28ZM.6,91.17l.46.06C1,92,.9,92.75.83,93.51H.37C.44,92.67.52,91.94.6,91.17ZM198.49,94c.06.77.11,1.53.16,2.3h-.46c-.05-.77-.1-1.53-.16-2.29ZM.2,95.77H.66c-.05.76-.09,1.53-.12,2.29H.08C.13,97.3.13,96.54.2,95.77Zm198.56,2.82c0,.76,0,1.53.06,2.3h-.46c0-.77,0-1.53-.06-2.3ZM0,100.37H.47v4.17H0v-2.31C0,101.67,0,101,0,100.37Zm198.35,2.82h.46v2.3h-.46C198.34,104.73,198.35,104,198.36,103.19ZM.55,106.84c0,.77.08,1.54.14,2.3H.23c-.06-.77-.1-1.53-.14-2.3Zm197.66.94h.46c0,.77-.09,1.53-.15,2.3h-.46C198.13,109.31,198.13,108.55,198.21,107.78ZM.87,111.43q.1,1.14.24,2.28H.65c-.09-.76-.17-1.52-.24-2.29Zm197,.93h.45c-.07.76-.16,1.53-.26,2.29l-.45-.06c.08-.71.17-1.47.25-2.23ZM1.4,116c.11.76.22,1.51.35,2.27l-.46.07c-.12-.75-.23-1.51-.34-2.28Zm195.9.93.45.06q-.17,1.15-.36,2.28l-.46-.08c.12-.75.2-1.51.36-2.26ZM2.13,120.52q.21,1.11.45,2.25l-.45.1c-.16-.75-.31-1.51-.45-2.27Zm194.38.92.45.09c-.15.76-.31,1.51-.47,2.26l-.45-.1C196.2,122.94,196.36,122.19,196.51,121.44ZM3.08,125c.17.75.36,1.49.55,2.23l-.44.12c-.2-.75-.38-1.49-.56-2.24Zm192.44.91.44.11c-.18.75-.37,1.5-.57,2.24l-.45-.12C195.13,127.41,195.34,126.67,195.52,125.92ZM4.24,129.46c.21.73.43,1.47.65,2.2l-.44.13c-.23-.73-.44-1.47-.66-2.21Zm190.08.9.44.13c-.22.74-.44,1.47-.68,2.2l-.44-.14C193.88,131.82,194.13,131.09,194.32,130.36ZM5.6,133.85c.25.73.5,1.45.76,2.18l-.43.15c-.26-.72-.52-1.45-.76-2.18Zm187.31.88.44.15c-.25.73-.51,1.45-.78,2.17l-.43-.16C192.4,136.17,192.66,135.45,192.91,134.73ZM7.13,138.18c.28.72.57,1.43.86,2.14l-.42.17c-.3-.71-.59-1.42-.87-2.14Zm184.18.85.42.17c-.28.71-.57,1.42-.88,2.13l-.42-.19C190.73,140.44,191,139.74,191.31,139ZM9,142.43c.31.7.63,1.4,1,2.09l-.42.2c-.33-.67-.67-1.37-1-2.1Zm180.56.81.41.19c-.31.7-.64,1.39-1,2.08l-.42-.2C188.87,144.62,189.19,143.93,189.51,143.24Zm-178.6,3.35c.35.69.7,1.37,1.06,2l-.41.21c-.36-.68-.71-1.36-1.06-2Zm176.6.77.41.21c-.35.68-.71,1.36-1.07,2l-.41-.22C186.81,148.67,187.13,148,187.51,147.36ZM13.07,150.67c.38.67.76,1.34,1.15,2l-.39.23c-.4-.66-.78-1.33-1.16-2Zm2.35,4c.41.65.82,1.3,1.24,1.94l-.38.25c-.43-.64-.84-1.29-1.25-1.94ZM18,158.51c.43.63.87,1.26,1.32,1.88l-.37.27c-.45-.62-.9-1.25-1.33-1.89Zm162.46.61.38.26-1.35,1.87-.37-.27Zm-159.77,3c.47.61.94,1.22,1.42,1.81l-.36.29c-.48-.6-.95-1.21-1.42-1.82Zm157,.64.37.28c-.47.6-1,1.21-1.43,1.8l-.36-.29a20.36,20.36,0,0,0,1.46-1.74Zm-154.17,3,1.5,1.75-.35.3-1.5-1.75Zm151.32.61.34.3c-.5.58-1,1.16-1.51,1.73l-.35-.3C173.79,167.53,174.3,167,174.79,166.37ZM26.54,169.21c.52.57,1.05,1.12,1.58,1.68l-.33.32c-.54-.56-1.06-1.12-1.58-1.69Zm145.2.58.33.32c-.52.56-1,1.11-1.59,1.66l-.33-.32Zm-142,2.73c.54.54,1.09,1.07,1.65,1.6l-.32.33-1.66-1.6Zm138.79.55.32.33c-.55.54-1.11,1.07-1.67,1.6l-.32-.34C167.42,174.14,168,173.61,168.53,173.07Zm-135.47,2.6,1.72,1.52-.3.35L32.75,176Zm132.07.53.3.35c-.57.51-1.15,1-1.74,1.51l-.3-.35C164,177.22,164.59,176.67,165.13,176.2ZM36.54,178.67c.59.48,1.18,1,1.78,1.43l-.28.37c-.61-.48-1.2-1-1.8-1.45Zm125.13.5.29.36L160.13,181l-.28-.37c.62-.46,1.22-.93,1.82-1.42ZM40.13,181.51c.61.46,1.23.91,1.85,1.35l-.26.38c-.63-.45-1.25-.9-1.86-1.36ZM158,182l.27.37c-.62.46-1.24.9-1.87,1.35l-.27-.38C156.79,182.89,157.41,182.44,158,182Zm-3.76,2.68.25.38c-.64.43-1.28.85-1.93,1.26l-.25-.39C153,185.47,153.63,185.05,154.27,184.67Zm-3.89,2.46.24.4c-.66.39-1.32.78-2,1.16l-.23-.4,2-1.2ZM51.69,189l2,1.08-.21.41c-.68-.36-1.36-.72-2-1.09Zm94.7.4.22.41-2,1.07-.21-.41c.63-.39,1.31-.74,2-1.11Zm-90.64,1.71,2.06,1-.19.42c-.7-.32-1.39-.65-2.08-1Zm86.54.38.2.42-2.1,1-.19-.42c.7-.38,1.4-.7,2.09-1ZM59.9,193.05l2.11.89-.18.43c-.71-.29-1.41-.59-2.12-.9Zm78.23.31.18.43c-.7.3-1.42.59-2.13.88l-.17-.43Zm-74,1.38c.72.28,1.43.54,2.16.8l-.16.43c-.72-.26-1.44-.52-2.16-.8Zm69.69.33.16.43c-.73.27-1.45.53-2.18.78l-.15-.44Zm-65.35,1.21c.73.24,1.45.47,2.19.69l-.14.44c-.73-.22-1.47-.45-2.19-.69Zm61,.29.14.44-2.22.66-.13-.44Zm-56.6,1c.74.21,1.48.4,2.22.59l-.11.45L72.75,198Zm52.19.25.07.48c-.74.2-1.48.39-2.23.57l-.11-.45Zm-47.73.88c.74.17,1.49.33,2.24.48l-.09.45c-.76-.15-1.51-.31-2.26-.48Zm43.27.2.1.45-2.26.47-.09-.46c.78-.1,1.49-.26,2.24-.42Zm-38.79.77c.76.14,1.51.26,2.27.38l-.07.46-2.28-.38Zm34.27.16,0,.44-2.28.36-.07-.46c.79-.11,1.55-.23,2.3-.36Zm-29.73.55,2.28.27,0,.46c-.76-.08-1.53-.17-2.29-.28Zm25.19.12V201c-.76.1-1.52.18-2.29.26v-.46Zm-20.62.35c.76.07,1.52.12,2.29.17v.46c-.77,0-1.54-.1-2.3-.17Zm16,.08v.46l-2.31.14v-.46C105.44,201,106.21,201,107,200.93Zm-11.47.21c.76,0,1.53.05,2.29.06v.47c-.77,0-1.53,0-2.3-.06Zm6.88,0v.46l-2.25.07v-.46Z"/><path class="cls-3" d="M14.93,17.78h169v169h-169Zm168.49.46h-168v168h168Z"/><path class="cls-3" d="M183.65,150.74a3.81,3.81,0,1,1-3.81,3.81A3.8,3.8,0,0,1,183.65,150.74Zm0,7.39a3.59,3.59,0,1,0-3.58-3.6v0A3.6,3.6,0,0,0,183.65,158.13Z"/><circle class="cls-3" cx="183.65" cy="154.55" r="1.82"/><circle class="cls-3" cx="46.62" cy="186.24" r="2.2"/><path class="cls-3" d="M46.62,180.18a6.06,6.06,0,1,1-6.06,6.06h0A6.06,6.06,0,0,1,46.62,180.18Zm0,11.78a5.72,5.72,0,1,0-5.72-5.72A5.73,5.73,0,0,0,46.62,192Z"/><circle class="cls-3" cx="151.47" cy="18.01" r="1.42"/><circle class="cls-3" cx="177.2" cy="182.31" r="1.24"/><circle class="cls-3" cx="172.08" cy="182.31" r="1.24"/><circle class="cls-3" cx="166.95" cy="182.31" r="1.24"/><path class="cls-3" d="M19.94,142.29a2,2,0,1,1-2,2A2,2,0,0,1,19.94,142.29Zm0,3.74a1.71,1.71,0,1,0-1.7-1.72v0a1.7,1.7,0,0,0,1.7,1.7Z"/><path class="cls-3" d="M19.94,134.62a2,2,0,1,1-2,2A2,2,0,0,1,19.94,134.62Zm0,3.74a1.71,1.71,0,1,0-1.7-1.72v0A1.7,1.7,0,0,0,19.94,138.36Z"/><path class="cls-3" d="M19.94,127a2,2,0,1,1-2,2A2,2,0,0,1,19.94,127Zm0,3.74a1.71,1.71,0,1,0-1.7-1.72v0A1.7,1.7,0,0,0,19.94,130.69Z"/><rect class="cls-3" x="180.56" y="20.42" width="0.46" height="18.99"/><rect class="cls-3" x="17.75" y="68.27" width="0.46" height="21.92"/><g class="cls-94"><path class="cls-3" d="M15.43,80.17,95.05.54,94.52,0,15,79.55Z"/><path class="cls-3" d="M16.43,81.64,97.53.54,97,0,16,81Z"/><path class="cls-3" d="M17.4,83.16,100,.54,99.49,0,17,82.51C17.12,82.73,17.27,82.94,17.4,83.16Z"/><path class="cls-3" d="M18.3,84.75,102.51.54,102,0,17.92,84.07C18,84.3,18.18,84.52,18.3,84.75Z"/><path class="cls-3" d="M19.15,86.37,105,.53,104.46,0,18.79,85.67Z"/><path class="cls-3" d="M20,88.06,107.47.54,106.94,0,19.62,87.34Z"/><path class="cls-3" d="M20.69,89.81,110,.54,109.43,0l-89,89Z"/><path class="cls-3" d="M21.38,91.61,112.45.54,111.92,0,21.1,90.83C21.2,91.09,21.28,91.35,21.38,91.61Z"/><path class="cls-3" d="M22,93.46,114.93.53,114.4,0,21.74,92.66C21.83,92.92,21.91,93.19,22,93.46Z"/><path class="cls-3" d="M22.56,95.39,117.41.54,116.88,0,22.33,94.56Z"/><path class="cls-3" d="M23.05,97.39,119.9.54,119.37,0,22.85,96.53C22.92,96.82,23,97.1,23.05,97.39Z"/><path class="cls-3" d="M23.46,99.47,122.39.54,121.86,0,23.29,98.58C23.35,98.87,23.41,99.17,23.46,99.47Z"/><path class="cls-3" d="M23.79,101.62,124.88.54,124.35,0,23.66,100.69C23.7,101,23.75,101.31,23.79,101.62Z"/><path class="cls-3" d="M24,103.86,127.36.53,126.83,0,23.94,102.89C24,103.21,24,103.53,24,103.86Z"/><path class="cls-3" d="M24.16,105.79c0,.14,0,.28,0,.42L129.84.54,129.31,0,24.12,105.2A5.65,5.65,0,0,1,24.16,105.79Z"/><path class="cls-3" d="M24.13,108.73,132.33.53,131.8,0,24.18,107.62C24.18,108,24.15,108.36,24.13,108.73Z"/><path class="cls-3" d="M23.88,111.47,134.81.54,134.28,0,24,110.26C24,110.66,23.94,111.07,23.88,111.47Z"/><path class="cls-3" d="M136.77,0,23.62,113.16c-.06.34-.11.67-.18,1l.12.12L137.31.54Z"/><rect class="cls-3" x="2.21" y="56.77" width="160.86" height="0.75" transform="translate(-16.21 75.17) rotate(-45)"/><rect class="cls-3" x="4.7" y="56.76" width="160.86" height="0.75" transform="translate(-15.47 76.93) rotate(-45)"/><rect class="cls-3" x="7.19" y="56.77" width="160.86" height="0.75" transform="translate(-14.75 78.69) rotate(-45)"/><rect class="cls-3" x="9.68" y="56.77" width="160.86" height="0.75" transform="translate(-14.02 80.45) rotate(-45)"/><rect class="cls-3" x="12.15" y="56.78" width="160.86" height="0.75" transform="translate(-13.3 82.2) rotate(-45)"/><rect class="cls-3" x="14.64" y="56.77" width="160.86" height="0.75" transform="translate(-12.56 83.96) rotate(-45)"/><rect class="cls-3" x="17.12" y="56.77" width="160.86" height="0.75" transform="translate(-11.84 85.72) rotate(-45)"/><rect class="cls-3" x="19.61" y="56.77" width="160.86" height="0.75" transform="translate(-11.11 87.48) rotate(-45)"/><rect class="cls-3" x="22.1" y="56.77" width="160.86" height="0.75" transform="translate(-10.38 89.24) rotate(-45)"/><rect class="cls-3" x="24.58" y="56.77" width="160.86" height="0.75" transform="translate(-9.65 90.99) rotate(-45)"/><rect class="cls-3" x="27.06" y="56.77" width="160.86" height="0.75" transform="translate(-8.93 92.75) rotate(-45)"/><rect class="cls-3" x="29.55" y="56.77" width="160.86" height="0.75" transform="translate(-8.2 94.51) rotate(-45)"/><rect class="cls-3" x="32.04" y="56.77" width="160.86" height="0.75" transform="translate(-7.47 96.26) rotate(-45)"/><rect class="cls-3" x="34.53" y="56.77" width="160.86" height="0.75" transform="translate(-6.74 98.02) rotate(-45)"/><path class="cls-3" d="M173.58.47,60.29,113.76l.53.53,112-112C173.09,1.66,173.33,1.06,173.58.47Z"/><path class="cls-3" d="M172.06,4.48,62.78,113.76l.53.53L171.59,6C171.74,5.5,171.89,5,172.06,4.48Z"/><path class="cls-3" d="M171.09,7.93,65.27,113.75l.53.53,105-105C170.87,8.85,171,8.39,171.09,7.93Z"/><path class="cls-3" d="M170.46,11.05,67.76,113.75l.53.53,102-102C170.36,11.86,170.4,11.45,170.46,11.05Z"/><path class="cls-3" d="M170.15,13.85,70.24,113.76l.53.53L170.09,15C170.1,14.6,170.12,14.22,170.15,13.85Z"/><path class="cls-3" d="M170.07,16.4,72.72,113.75l.53.53,96.83-96.83C170.07,17.1,170.07,16.75,170.07,16.4Z"/><path class="cls-3" d="M170.17,18.79l-95,95,.53.53,94.5-94.5C170.21,19.45,170.19,19.12,170.17,18.79Z"/><path class="cls-3" d="M170.38,21.07,77.7,113.75l.53.53L170.5,22C170.45,21.7,170.42,21.38,170.38,21.07Z"/><path class="cls-3" d="M170.69,23.25,80.18,113.76l.53.53,90.13-90.13Z"/><path class="cls-3" d="M171.08,25.33,82.66,113.75l.53.53,88.07-88.07Z"/><path class="cls-3" d="M171.55,27.35l-86.4,86.4.53.53L171.76,28.2Z"/><path class="cls-3" d="M172.09,29.3,87.64,113.75l.53.54,84.17-84.17C172.25,29.85,172.17,29.57,172.09,29.3Z"/><path class="cls-3" d="M172.69,31.18,90.12,113.75l.53.53L173,32C172.87,31.7,172.78,31.44,172.69,31.18Z"/><path class="cls-3" d="M173.36,33,92.61,113.75l.53.53,80.53-80.53C173.56,33.5,173.46,33.25,173.36,33Z"/><path class="cls-3" d="M174.09,34.75l-79,79,.53.53,78.8-78.8C174.31,35.24,174.19,35,174.09,34.75Z"/><path class="cls-3" d="M174.87,36.46l-77.3,77.3.53.53,77.13-77.13C175.11,36.93,175,36.7,174.87,36.46Z"/><path class="cls-3" d="M175.71,38.1l-75.64,75.65.53.53,75.49-75.5C176,38.56,175.83,38.33,175.71,38.1Z"/><path class="cls-3" d="M176.61,39.7l-74.06,74.05.53.53L177,40.36Z"/><path class="cls-3" d="M177.55,41.24,105,113.75l.53.53L178,41.89C177.82,41.67,177.69,41.45,177.55,41.24Z"/><path class="cls-3" d="M178.55,42.72l-71,71,.53.53L179,43.35Z"/></g><path class="cls-2" d="M110.26,59.77V55.49a3.14,3.14,0,0,0,.1-.74c0-3.18-4.67-5.76-10.42-5.76s-10.41,2.58-10.41,5.76a4,4,0,0,0,1.4,2.88c1.81-1.72,5.16-2.87,9-2.87C105.24,54.76,109.6,56.94,110.26,59.77Z"/><path class="cls-3" d="M110.51,62,110,59.83c-.64-2.75-5-4.83-10.08-4.83-3.63,0-7,1.08-8.83,2.81l-.18.16-.17-.16a4.28,4.28,0,0,1-1.48-3.06c0-3.31,4.78-6,10.66-6s10.67,2.7,10.67,6a3.4,3.4,0,0,1-.11.79ZM99.94,54.5c4.6,0,8.61,1.67,10.07,4v-3a3.44,3.44,0,0,0,.1-.74c0-3-4.56-5.51-10.17-5.51s-10.16,2.47-10.16,5.51a3.67,3.67,0,0,0,1.16,2.53C92.88,55.57,96.3,54.5,99.94,54.5Z"/><path class="cls-2" d="M125,64.14l-14.75-8.65v5.76L121.77,68l3.24-1.9A1.13,1.13,0,0,0,125,64.14Z"/><path class="cls-3" d="M121.77,68.28,110,61.39V55.05l15.13,8.87a1.34,1.34,0,0,1,.68,1.19,1.37,1.37,0,0,1-.68,1.2Zm-11.26-7.17,11.26,6.6,3.12-1.83a.89.89,0,0,0,.43-.77.86.86,0,0,0-.43-.76l-14.38-8.43Z"/><path class="cls-2" d="M110.26,61.25V59.77c-.66-2.83-5-5-10.32-5-3.85,0-7.2,1.15-9,2.87,1.81,1.72,5.16,2.87,9,2.87l.72,0,14.75,8.64a4.33,4.33,0,0,0,4.09.14,2.44,2.44,0,0,0,.34-.14L121.77,68Z"/><path class="cls-3" d="M117.57,70a4.53,4.53,0,0,1-2.29-.62l-14.68-8.6h-.66c-3.75,0-7.27-1.12-9.18-2.94l-.19-.18.19-.18c1.91-1.82,5.43-3,9.18-3,5.33,0,9.87,2.24,10.56,5.21v1.4L122.26,68,120,69.34l-.23.1-.12,0A4.75,4.75,0,0,1,117.57,70Zm-16.85-9.73,14.81,8.68a4.12,4.12,0,0,0,3.86.13l.17-.07a.94.94,0,0,0,.15-.06l1.56-.92L110,61.39V59.77c-.63-2.69-5-4.77-10.07-4.77-3.5,0-6.78,1-8.63,2.63,1.85,1.62,5.13,2.62,8.63,2.62h.78Z"/><path class="cls-3" d="M182.52,58l-1.74-1,.25-.43,1.74,1Zm-3.47-2-1.73-1,.25-.43,1.73,1Zm-3.46-2-1.73-1,.25-.43,1.73,1Zm-3.47-2-1.73-1,.25-.43,1.73,1Zm-3.46-2-1.73-1,.25-.43,1.73,1Zm-3.47-2-1.73-1,.25-.43,1.73,1Zm-3.46-2L160,45l.25-.43,1.73,1Zm-3.46-2-1.74-1,.25-.44,1.74,1Zm-3.47-2-1.73-1,.25-.44,1.73,1Zm-3.46-2-1.74-1,.25-.44,1.74,1Zm-3.47-2-1.73-1,.25-.44,1.73,1Zm-3.46-2-1.73-1,.25-.44,1.73,1Zm-3.47-2-1.73-1,.25-.43,1.73,1Zm-3.46-2-1.73-1,.25-.43,1.73,1ZM134,30l-1.74-1,.25-.43,1.74,1Zm-3.47-2-1.73-1,.25-.43,1.73,1Zm-3.46-2-1.74-1,.25-.43,1.74,1Zm-3.47-2-1.73-1,.25-.43,1.73,1Zm-3.46-2-1.73-1,.25-.43,1.73,1Zm-3.47-2L115,19l.25-.43,1.73,1Z"/><path class="cls-3" d="M18,62l-.25-.43,1.73-1,.25.43Zm3.46-2-.25-.43,1.74-1,.25.43Zm3.47-2-.25-.43,1.73-1,.25.43Zm3.46-2-.25-.43,1.74-1,.25.43Zm3.47-2-.25-.43,1.73-1,.25.43Zm3.46-2-.25-.43,1.73-1,.25.43Zm3.47-2-.25-.43,1.73-1,.25.43Zm3.46-2L42,47.55l1.73-1L44,47Zm3.46-2-.25-.43,1.74-1,.25.43Zm3.47-2-.25-.43,1.73-1,.25.43Zm3.46-2-.25-.44,1.74-1,.25.44Zm3.47-2-.25-.44,1.73-1,.25.44Zm3.46-2-.25-.44,1.73-1,.25.44Zm3.47-2-.25-.44,1.73-1,.25.44Zm3.46-2-.25-.44,1.73-1,.25.43ZM70,32l-.25-.43,1.73-1,.25.43Zm3.46-2-.25-.43,1.73-1,.25.43Zm3.46-2-.25-.43,1.74-1,.25.43Zm3.47-2-.25-.43,1.73-1,.25.43Zm3.46-2-.25-.43,1.74-1,.25.43Zm3.47-2-.25-.43,1.73-1L89,21Zm3.46-2-.25-.43,1.73-1,.25.43Z"/><path class="cls-3" d="M68.71,186.43l-.25-.43,1.72-1,.26.43Zm3.45-2L71.9,184l1.72-1,.26.43Zm3.44-2-.26-.43,1.72-1,.26.43Zm3.44-2-.25-.43,1.72-1,.25.43Zm3.44-2-.25-.43,1.72-1,.25.43Zm3.44-2-.25-.43,1.72-1,.25.43Zm3.44-2-.25-.43,1.72-1,.26.43Zm3.45-2-.26-.43,1.72-1,.26.43Zm3.44-2L96,169.7l1.72-1,.26.43Zm3.44-2-.26-.43,1.73-1,.25.43Zm3.44-2-.25-.43,1.72-1,.25.43Zm3.44-2-.25-.43,1.72-1,.25.43Zm3.44-2-.25-.43,1.72-1,.25.43Zm3.45-2-.26-.43,1.72-1,.26.43Zm3.44-2-.26-.43,1.72-1,.26.43Zm3.44-2-.26-.43,1.73-1,.25.43Zm3.44-2-.25-.43,1.72-1,.25.43Zm3.44-2-.25-.43,1.72-1,.25.43Zm3.44-2-.25-.43,1.72-1,.25.43Zm3.44-2-.25-.43,1.72-1,.26.43Zm3.45-2-.26-.43,1.72-1,.26.43Zm3.44-2-.26-.43,1.73-1,.25.43Zm3.44-2-.25-.43,1.72-1,.25.43Zm3.44-2-.25-.43,1.72-1,.25.43Zm3.44-2-.25-.43,1.72-1,.25.43Zm3.44-2-.25-.43,1.72-1,.25.43Zm3.45-2-.26-.43,1.72-1,.26.43Zm3.44-2-.26-.43,1.72-1,.26.43Zm3.44-2-.26-.43,1.73-1,.25.43Zm3.44-2-.25-.43,1.72-1,.25.43Zm3.44-2-.25-.43,1.72-1,.25.43Zm3.44-2-.25-.43,1.72-1,.26.43Zm3.45-2-.26-.43,1.72-1,.26.43Zm3.44-2-.26-.43,1.72-1,.26.43Z"/><path class="cls-3" d="M142.87,186.52l-.24-.14.26-.43.24.14Zm-2-1.16-1.72-1,.26-.43,1.72,1Zm-3.44-2-1.72-1,.25-.43,1.72,1Zm-3.44-2-1.72-1,.25-.43,1.72,1Zm-3.44-2-1.72-1,.25-.43,1.72,1Zm-3.44-2-1.72-1,.25-.43,1.72,1Zm-3.45-2-1.72-1,.26-.43,1.72,1Zm-3.44-2-1.72-1,.26-.43,1.72,1Zm-3.44-2-1.72-1,.25-.43,1.73,1Zm-3.44-2-1.72-1,.25-.43,1.72,1Zm-3.44-2-1.72-1,.25-.43,1.72,1Zm-3.44-2-1.72-1,.25-.43,1.72,1Zm-3.44-2-1.73-1,.26-.43,1.72,1Zm-3.45-2-1.72-1,.26-.43,1.72,1Zm-3.44-2-1.72-1,.26-.43,1.72,1Zm-3.44-2-1.72-1,.26-.43,1.71,1Zm-3.44-2-1.72-1,.25-.43,1.72,1Zm-3.44-2-1.72-1,.25-.43,1.72,1Zm-3.44-2-1.73-1,.26-.43,1.72,1Zm-3.45-2-1.72-1,.26-.43,1.72,1Zm-3.44-2-1.72-1,.26-.43,1.72,1Zm-3.44-2-1.72-1,.25-.43,1.72,1Zm-3.44-2-1.72-1,.25-.43,1.72,1Zm-3.44-2-1.72-1,.25-.43,1.72,1Zm-3.44-2-1.72-1,.25-.43L62,138Zm-3.45-2-1.72-1,.26-.43,1.72,1Zm-3.44-2-1.72-1,.26-.43,1.72,1Zm-3.44-2-1.72-1,.25-.43,1.73,1Zm-3.44-2-1.72-1,.25-.43,1.72,1Zm-3.44-2-1.72-1,.25-.43,1.72,1Zm-3.44-2-1.72-1,.25-.43,1.72,1Zm-3.45-2-1.72-1,.26-.43,1.72,1Zm-3.44-2-1.72-1,.26-.43,1.72,1Zm-3.44-2-1.72-1,.25-.43,1.73,1Zm-3.44-2-1.72-1,.25-.43,1.72,1Zm-3.44-2-1.72-1,.25-.43,1.72,1Zm-3.44-2-1.73-1,.26-.43,1.72,1ZM17,112l-1.73-1,.26-.43,1.72,1Z"/><circle class="cls-3" cx="113.54" cy="17.78" r="2.2"/><path class="cls-3" d="M113.54,11.72a6.06,6.06,0,1,1-6.06,6.06h0A6.06,6.06,0,0,1,113.54,11.72Zm0,11.78a5.72,5.72,0,1,0-5.72-5.72A5.73,5.73,0,0,0,113.54,23.5Z"/></g></g></svg>