<svg xmlns="http://www.w3.org/2000/svg" viewBox="0 0 99.9 92.91"><defs><style>.cls-1{fill:#103468;}.cls-2{fill:#3e6993;}.cls-3{fill:#041742;}.cls-4{fill:#123d70;}</style></defs><title>Asset 49</title><g id="Layer_2" data-name="Layer 2"><g id="Layer_1-2" data-name="Layer 1"><path class="cls-1" d="M89.13,63.87v6.32A5.54,5.54,0,0,1,86.37,75L60.87,90A21.61,21.61,0,0,1,39,90L13.53,75a5.54,5.54,0,0,1-2.76-4.82V63.87Z"/><path class="cls-2" d="M60.87,44.11l25.5,14.94a5.59,5.59,0,0,1,0,9.64L60.87,83.63a21.61,21.61,0,0,1-21.84,0L13.53,68.69a5.59,5.59,0,0,1,0-9.64L39,44.11A21.61,21.61,0,0,1,60.87,44.11Z"/><path class="cls-3" d="M56.57,51.9,72,61a3.39,3.39,0,0,1,0,5.84L56.57,75.85a13.1,13.1,0,0,1-13.23,0L27.88,66.79a3.39,3.39,0,0,1,0-5.84L43.34,51.9A13.1,13.1,0,0,1,56.57,51.9Z"/><path class="cls-1" d="M99.5,40.73l-3.68-2.16a3.12,3.12,0,0,0-3.15,0l-1,.59L50,14.72,8.23,39.16l-1-.59a3.12,3.12,0,0,0-3.15,0L.4,40.73a.81.81,0,0,0,0,1.39l3.68,2.16a3.12,3.12,0,0,0,3.15,0l1-.59L46.08,65.86l-1.39.82a.81.81,0,0,0,0,1.39l3.68,2.15a3.13,3.13,0,0,0,3.16,0l3.68-2.15a.81.81,0,0,0,0-1.39l-1.39-.82L91.67,43.69l1,.59a3.12,3.12,0,0,0,3.15,0l3.68-2.16A.81.81,0,0,0,99.5,40.73ZM50,16.24,90.37,39.92,89,40.73l0,0H11l0,0-1.39-.81ZM9.53,42.93l1.39-.81,0,0H49.19l.09,22.1a3.14,3.14,0,0,0-.91.34l-1,.58Zm43,22.17-1-.58a3,3,0,0,0-.93-.34l-.09-22.1H89s0,0,0,0l1.38.81Z"/><path class="cls-3" d="M45.07,13.78,31,5.51a12,12,0,0,0-12.1,0L4.73,13.78a3.09,3.09,0,0,0,0,5.34L18.85,27.4a12,12,0,0,0,12.1,0l14.12-8.28A3.09,3.09,0,0,0,45.07,13.78ZM38.88,18.3,29.09,24a8.32,8.32,0,0,1-8.38,0L10.92,18.3a2.15,2.15,0,0,1,0-3.7l9.79-5.73a8.27,8.27,0,0,1,8.38,0l9.79,5.73A2.15,2.15,0,0,1,38.88,18.3Z"/><path class="cls-1" d="M46.6,12.76v4.86a3.06,3.06,0,0,1-1.53,2.67L31,28.56a12,12,0,0,1-12.1,0L4.73,20.29A3.08,3.08,0,0,1,3.2,17.62V12.76L24.9,23.57Z"/><path class="cls-2" d="M45.07,9.92,31,1.64a12,12,0,0,0-12.1,0L4.73,9.92a3.09,3.09,0,0,0,0,5.34l14.12,8.27a12,12,0,0,0,12.1,0l14.12-8.27A3.09,3.09,0,0,0,45.07,9.92Zm-6.19,4.52-9.79,5.73a8.27,8.27,0,0,1-8.38,0l-9.79-5.73a2.15,2.15,0,0,1,0-3.7L20.71,5a8.32,8.32,0,0,1,8.38,0l9.79,5.74A2.15,2.15,0,0,1,38.88,14.44Z"/><path class="cls-4" d="M82.14,18.63v16.6a4.55,4.55,0,0,1-2.27,4L59,51.43a17.74,17.74,0,0,1-17.9,0L20.16,39.18a4.55,4.55,0,0,1-2.27-4V18.63Z"/><path class="cls-2" d="M59,2.43l20.9,12.25a4.58,4.58,0,0,1,0,7.9L59,34.83a17.7,17.7,0,0,1-17.9,0L20.16,22.58a4.58,4.58,0,0,1,0-7.9L41.07,2.43A17.7,17.7,0,0,1,59,2.43Z"/><path class="cls-3" d="M52.89,19.92V17.31a1.74,1.74,0,0,0,.06-.45c0-1.94-2.84-3.51-6.35-3.51s-6.34,1.57-6.34,3.51a2.4,2.4,0,0,0,.86,1.75,8.22,8.22,0,0,1,5.48-1.75C49.83,16.86,52.49,18.2,52.89,19.92Z"/><path class="cls-3" d="M61.88,22.58l-9-5.27v3.51l7,4.11,2-1.16A.69.69,0,0,0,61.88,22.58Z"/><path class="cls-4" d="M52.89,20.82v-.9c-.4-1.72-3.06-3.06-6.29-3.06a8.22,8.22,0,0,0-5.48,1.75,8.17,8.17,0,0,0,5.48,1.76l.44,0,9,5.27a2.65,2.65,0,0,0,2.49.09l.21-.09,1.17-.69Z"/></g></g></svg>