<svg xmlns="http://www.w3.org/2000/svg" xmlns:xlink="http://www.w3.org/1999/xlink" viewBox="0 0 198.82 201.67"><defs><style>.cls-1{fill:none;}.cls-2{fill:#95a6ba;}.cls-3{clip-path:url(#clip-path);}.cls-4{fill:#19babc;}.cls-5{fill:#1abbbb;}.cls-6{fill:#1abcba;}.cls-7{fill:#1abcb8;}.cls-8{fill:#1abdb7;}.cls-9{fill:#1bbeb6;}.cls-10{fill:#1bbeb5;}.cls-11{fill:#1bbfb4;}.cls-12{fill:#1cc0b3;}.cls-13{fill:#1cc1b2;}.cls-14{fill:#1cc1b1;}.cls-15{fill:#1cc2b0;}.cls-16{fill:#1dc3af;}.cls-17{fill:#1dc3ae;}.cls-18{fill:#1dc4ad;}.cls-19{fill:#1dc5ac;}.cls-20{fill:#1ec6ab;}.cls-21{fill:#1ec6aa;}.cls-22{fill:#1ec7a9;}.cls-23{fill:#1fc8a8;}.cls-24{fill:#1fc8a7;}.cls-25{fill:#1fc9a6;}.cls-26{fill:#1fcaa5;}.cls-27{fill:#20cba4;}.cls-28{fill:#20cba3;}.cls-29{fill:#20cca2;}.cls-30{fill:#20cda1;}.cls-31{fill:#21cda0;}.cls-32{fill:#21ce9f;}.cls-33{fill:#21cf9e;}.cls-34{fill:#18b7c1;}.cls-35{fill:#18b7c0;}.cls-36{fill:#18b8bf;}.cls-37{fill:#19b9be;}.cls-38{fill:#19babd;}.cls-39{fill:#14acd0;}.cls-40{fill:#14adcf;}.cls-41{fill:#14adce;}.cls-42{fill:#15aecd;}.cls-43{fill:#15afcc;}.cls-44{fill:#15b0cb;}.cls-45{fill:#15b0ca;}.cls-46{fill:#16b1c9;}.cls-47{fill:#16b2c8;}.cls-48{fill:#16b2c7;}.cls-49{fill:#17b3c6;}.cls-50{fill:#17b4c5;}.cls-51{fill:#17b5c4;}.cls-52{fill:#17b5c3;}.cls-53{fill:#18b6c2;}.cls-54{fill:#11a4db;}.cls-55{fill:#11a5da;}.cls-56{fill:#11a6d9;}.cls-57{fill:#12a6d8;}.cls-58{fill:#12a7d7;}.cls-59{fill:#12a8d6;}.cls-60{fill:#12a8d5;}.cls-61{fill:#13a9d4;}.cls-62{fill:#13aad3;}.cls-63{fill:#13abd2;}.cls-64{fill:#14abd1;}.cls-65{fill:#22d09d;}.cls-66{fill:#22d09c;}.cls-67{fill:#22d19b;}.cls-68{fill:#0e9de5;}.cls-69{fill:#0e9ee4;}.cls-70{fill:#0f9ee3;}.cls-71{fill:#0f9fe2;}.cls-72{fill:#0fa0e1;}.cls-73{fill:#0fa1e0;}.cls-74{fill:#10a1df;}.cls-75{fill:#10a2de;}.cls-76{fill:#10a3dd;}.cls-77{fill:#10a3dc;}.cls-78{fill:#22d29a;}.cls-79{fill:#23d299;}.cls-80{fill:#23d398;}.cls-81{fill:#23d497;}.cls-82{fill:#24d596;}.cls-83{fill:#24d595;}.cls-84{fill:#24d694;}.cls-85{fill:#24d793;}.cls-86{fill:#25d792;}.cls-87{fill:#25d891;}.cls-88{fill:#25d990;}.cls-89{fill:#25da8f;}.cls-90{fill:#26da8e;}.cls-91{fill:#26db8d;}.cls-92{fill:#fff;}.cls-93{clip-path:url(#clip-path-2);}.cls-94{clip-path:url(#clip-path-3);}</style><clipPath id="clip-path"><path class="cls-1" d="M180.8,129.24,175.23,126a4.73,4.73,0,0,0-4.77,0l-5.57,3.27-.08,0H149l-23-13.46,29.82-17.49.59.35a3,3,0,0,0,3,0L163,96.62a.77.77,0,0,0,0-1.33l-3.53-2.07a3,3,0,0,0-3,0l-3.53,2.07a.77.77,0,0,0,0,1.33l1,.57-29.82,17.49L99.41,100.24,74.75,114.69,45.21,97.39l.67-.39a.78.78,0,0,0,0-1.34l-3.53-2.07a3,3,0,0,0-3,0L35.8,95.66a.78.78,0,0,0,0,1.34l3.53,2.06a3,3,0,0,0,3,0l.89-.52,29.54,17.3-23,13.45H34l-.08,0L28.36,126a4.71,4.71,0,0,0-4.76,0L18,129.24a1.21,1.21,0,0,0,0,2.1l5.57,3.26a4.67,4.67,0,0,0,4.76,0l5.57-3.26s0,0,.08-.06H49.82l23,13.45L43,162.21l-.6-.35a3,3,0,0,0-3,0l-3.53,2.07a.77.77,0,0,0,0,1.33l3.53,2.07a3,3,0,0,0,3,0l3.53-2.07a.77.77,0,0,0,0-1.33l-1-.56,29.83-17.48,24,14.07v8.55a4.39,4.39,0,0,0-1.38.53l-5.57,3.26a1.22,1.22,0,0,0,0,2.11l5.57,3.26a4.71,4.71,0,0,0,4.76,0l5.57-3.26a1.22,1.22,0,0,0,0-2.11L102.15,169a4.39,4.39,0,0,0-1.38-.53v-9l23.29-13.65,29.81,17.48-1,.56a.77.77,0,0,0,0,1.33l3.53,2.07a3,3,0,0,0,3,0l3.53-2.07a.77.77,0,0,0,0-1.33l-3.53-2.07a3,3,0,0,0-3,0l-.59.35L126,144.74l23-13.46h15.81s.05.05.08.06l5.57,3.26a4.69,4.69,0,0,0,4.77,0l5.57-3.26A1.22,1.22,0,0,0,180.8,129.24Zm-35.74,0h-42l21-12.3ZM99.41,102.55l22.67,13.28-22.67,13.3L76.72,115.84ZM74.75,117l21,12.29h-42Zm-21,14.28h42l-21,12.3Zm23,13.45,22-12.91v25.83Zm24,12.5v-25l21.32,12.5Zm23.29-13.65-21-12.3h42Z"/></clipPath><clipPath id="clip-path-2"><path class="cls-1" d="M141.29,50.47a5.9,5.9,0,0,0-2.95-5.15l-27.26-16a23.1,23.1,0,0,0-23.34,0l-27.26,16a6,6,0,0,0,0,10.3l27.26,16a23.1,23.1,0,0,0,23.34,0l27.26-16a5.9,5.9,0,0,0,2.95-5.15Z"/></clipPath><clipPath id="clip-path-3"><path class="cls-1" d="M151.3,91.31,115,112.59a30.74,30.74,0,0,1-31.1,0L47.52,91.31a7.9,7.9,0,0,1-3.93-6.87h0v44.1a7.89,7.89,0,0,0,3.93,6.87l36.34,21.28a30.74,30.74,0,0,0,31.1,0l36.34-21.28a7.87,7.87,0,0,0,3.93-6.87V84.44A7.9,7.9,0,0,1,151.3,91.31Z"/></clipPath></defs><title>tech</title><g id="Layer_2" data-name="Layer 2"><g id="Layer_1-2" data-name="Layer 1"><path class="cls-2" d="M99.41,173.76q-.78,0-1.56,0l0-.5,1.54,0h.45v.5Zm2.47-.07,0-.5c.65,0,1.31-.1,2-.17l0,.5C103.21,173.59,102.54,173.65,101.88,173.69Zm-6-.08c-.66-.06-1.34-.13-2-.22l.06-.5c.66.09,1.33.16,2,.22Zm10-.36-.08-.49c.65-.1,1.31-.22,2-.36l.1.49C107.2,173,106.54,173.15,105.88,173.25Zm-14-.18c-.65-.12-1.31-.26-2-.41l.11-.49c.65.15,1.31.29,2,.41Zm18-.63-.12-.48c.64-.17,1.28-.35,1.91-.55l.15.48C111.11,172.09,110.46,172.27,109.81,172.44Zm-21.87-.29q-1-.27-1.92-.6l.16-.47c.63.21,1.27.41,1.9.59Zm25.72-.9-.18-.47c.62-.22,1.24-.47,1.85-.72l.2.46C114.91,170.78,114.28,171,113.66,171.25Zm-29.53-.39c-.61-.24-1.23-.5-1.85-.78l.2-.46c.62.28,1.23.54,1.83.77Zm33.23-1.16-.21-.46c.59-.28,1.19-.58,1.77-.89l.24.44C118.57,169.1,118,169.41,117.36,169.7Zm-36.89-.49c-.6-.31-1.19-.63-1.78-1l.25-.44c.58.33,1.17.65,1.75.95Zm40.43-1.42-.25-.43,1.73-1,.25.43ZM77,167.24l-1.73-1,.25-.44,1.73,1Zm47.39-1.47-.26-.43,1.73-1,.25.43Zm-50.85-.55-1.72-1,.25-.43,1.73,1Zm54.3-1.47-.25-.43,1.72-1,.25.43Zm-57.75-.56-1.72-1,.25-.43,1.72,1Zm61.2-1.46-.25-.43,1.72-1,.25.43Zm-64.65-.56-1.72-1,.25-.43,1.72,1Zm68.1-1.46-.25-.43,1.72-1,.26.44Zm-71.55-.56-1.73-1,.25-.43,1.73,1Zm75-1.46-.25-.44,1.73-1,.25.43Zm-78.45-.56-1.73-1,.25-.43,1.73,1Zm81.9-1.47-.25-.43,1.73-1,.25.43Zm-85.35-.55-1.73-1,.25-.44,1.73,1Zm88.8-1.47-.25-.43,1.73-1,.25.43Zm-92.25-.55-1.73-1,.25-.43,1.73,1Zm95.71-1.47-.26-.43,1.73-1,.25.43Zm-99.17-.56-1.72-1,.25-.43,1.73,1ZM152,149.6l-.25-.43,1.72-1,.25.43ZM45.9,149l-1.72-1,.25-.43,1.72,1Zm109.52-1.46-.25-.43,1.72-1,.25.44Zm-113-.56-1.73-1,.26-.43,1.72,1Zm116.42-1.47-.25-.43,1.72-1,.26.43ZM39,145l-1.73-1,.26-.44,1.72,1Zm123.32-1.47-.25-.43,1.73-1,.25.43ZM35.55,143l-1.73-1,.25-.43,1.73,1Zm130.22-1.47-.25-.43,1.73-1,.25.43ZM32.1,141l-1.73-1,.25-.43,1.73,1Zm137.12-1.46-.25-.43.2-.12a10,10,0,0,0,1.42-1l.32.39a10.38,10.38,0,0,1-1.49,1Zm-140.57-.6a11,11,0,0,1-1.57-1.31l.36-.35a10,10,0,0,0,1.49,1.25Zm143.7-2-.38-.32a10,10,0,0,0,1.09-1.62l.44.25A10.5,10.5,0,0,1,172.35,136.9ZM25.79,136a11.1,11.1,0,0,1-1-1.8l.46-.19a10.05,10.05,0,0,0,.92,1.71Zm148.52-2.66-.47-.16a10.06,10.06,0,0,0,.42-1.9l.5.07A11.45,11.45,0,0,1,174.31,133.33ZM24.22,132.24a11.5,11.5,0,0,1-.25-2h.5a10.4,10.4,0,0,0,.24,1.93Zm150.63-2.33h-.5a10.56,10.56,0,0,0-.18-2l.49-.09A10.68,10.68,0,0,1,174.85,129.91ZM24.6,128.25l-.5-.08a11.07,11.07,0,0,1,.51-2l.47.17A10.07,10.07,0,0,0,24.6,128.25Zm149-2.16a10.19,10.19,0,0,0-.87-1.75l.42-.26a10.8,10.8,0,0,1,.92,1.83ZM25.9,124.59l-.43-.25a11,11,0,0,1,1.2-1.66L27,123A10.39,10.39,0,0,0,25.9,124.59Zm145.68-1.8a10.45,10.45,0,0,0-1.45-1.29l.29-.41a11.09,11.09,0,0,1,1.53,1.36ZM28.46,121.67l-.31-.39a10.91,10.91,0,0,1,1.25-.84l.45-.27.26.43-.46.27A9.89,9.89,0,0,0,28.46,121.67Zm140-1.22-1.73-1L167,119l1.73,1Zm-136.63-.86-.25-.43,1.73-1,.25.43ZM165,118.43l-1.73-1,.25-.43,1.73,1Zm-129.73-.86-.25-.43,1.73-1,.25.43Zm126.27-1.16-1.72-1,.25-.44,1.73,1Zm-122.81-.86-.26-.44,1.73-1,.25.44Zm119.36-1.17-1.72-1,.25-.43,1.72,1Zm-115.91-.86-.26-.43,1.73-1,.25.43Zm112.46-1.16-1.72-1,.25-.43,1.72,1Zm-109-.86-.25-.43,1.72-1,.25.43Zm105.56-1.16-1.73-1,.26-.43,1.72,1Zm-102.11-.86-.25-.43,1.72-1,.26.43Zm98.66-1.16-1.73-1,.25-.43,1.73,1Zm-95.21-.86-.25-.43L54,106l.25.43Zm91.76-1.16-1.73-1,.25-.44,1.73,1ZM56,105.44l-.25-.44,1.73-1,.25.44Zm84.86-1.16-1.73-1,.25-.43,1.73,1Zm-81.41-.86-.25-.44,1.73-1,.25.43Zm77.95-1.17-1.72-1,.25-.43,1.73,1Zm-74.49-.86-.26-.43,1.73-1,.25.43Zm71-1.16-1.72-1,.25-.43,1.72,1Zm-67.59-.86-.25-.43,1.72-1,.25.43Zm64.14-1.16-1.72-1,.25-.43,1.72,1ZM69.8,97.35l-.25-.43,1.72-1,.25.43ZM127,96.19l-1.73-1,.26-.43,1.72,1Zm-53.79-.86L73,94.9l1.72-1,.26.43Zm50.34-1.16-1.73-1,.25-.44,1.73,1ZM76.7,93.31l-.25-.44,1.73-1,.25.44Zm43.44-1.16c-.58-.34-1.17-.66-1.75-1l.24-.45c.58.31,1.17.63,1.76,1Zm-40-.83-.23-.44c.58-.31,1.19-.61,1.8-.89l.21.45C81.34,90.72,80.74,91,80.16,91.32Zm36.45-1c-.6-.27-1.22-.54-1.83-.78l.19-.47c.62.25,1.24.52,1.85.8Zm-32.85-.67-.19-.46c.62-.26,1.25-.5,1.88-.72l.17.47C85,89.15,84.37,89.39,83.76,89.64Zm29.16-.81c-.63-.22-1.27-.42-1.89-.61l.14-.48c.63.19,1.28.39,1.92.62ZM87.5,88.31l-.14-.48c.64-.19,1.3-.37,1.94-.53l.12.48C88.78,87.94,88.14,88.12,87.5,88.31Zm21.61-.6c-.64-.16-1.3-.3-2-.42l.1-.49c.65.12,1.31.26,2,.42Zm-17.75-.36-.1-.49c.65-.13,1.32-.25,2-.35l.08.49C92.66,87.1,92,87.22,91.36,87.35ZM105.2,87c-.65-.09-1.31-.17-2-.23l0-.5c.66.06,1.34.14,2,.24Zm-9.91-.2-.05-.5q1-.11,2-.15l0,.5C96.62,86.64,96,86.69,95.29,86.76Zm6-.17c-.62,0-1.23,0-1.84,0h-.15v-.5h.15c.62,0,1.24,0,1.86,0Z"/><g class="cls-3"><polygon class="cls-4" points="103.08 140.05 104.43 143.59 103.08 143.59 103.08 140.05"/><polygon class="cls-5" points="103.08 135.89 106.02 143.59 104.43 143.59 103.08 140.05 103.08 135.89"/><polygon class="cls-6" points="103.08 131.72 107.61 143.59 106.02 143.59 103.08 135.89 103.08 131.72"/><polygon class="cls-7" points="104.51 131.28 109.21 143.59 107.61 143.59 103.08 131.72 103.08 131.28 104.51 131.28"/><polygon class="cls-8" points="106.1 131.28 110.8 143.59 109.21 143.59 104.51 131.28 106.1 131.28"/><polygon class="cls-9" points="107.69 131.28 112.39 143.59 110.8 143.59 106.1 131.28 107.69 131.28"/><polygon class="cls-10" points="109.28 131.28 113.98 143.59 112.39 143.59 107.69 131.28 109.28 131.28"/><polygon class="cls-11" points="110.88 131.28 115.58 143.59 113.98 143.59 109.28 131.28 110.88 131.28"/><polygon class="cls-12" points="112.47 131.28 117.17 143.59 115.58 143.59 110.88 131.28 112.47 131.28"/><polygon class="cls-13" points="114.06 131.28 118.76 143.59 117.17 143.59 112.47 131.28 114.06 131.28"/><polygon class="cls-14" points="115.65 131.28 120.35 143.59 118.76 143.59 114.06 131.28 115.65 131.28"/><polygon class="cls-15" points="117.25 131.28 121.95 143.59 120.35 143.59 115.65 131.28 117.25 131.28"/><polygon class="cls-16" points="118.84 131.28 123.54 143.59 121.95 143.59 117.25 131.28 118.84 131.28"/><polygon class="cls-17" points="120.43 131.28 125.13 143.59 123.54 143.59 118.84 131.28 120.43 131.28"/><polygon class="cls-18" points="122.03 131.28 126.72 143.59 125.13 143.59 120.43 131.28 122.03 131.28"/><polygon class="cls-19" points="123.62 131.28 128.32 143.59 126.72 143.59 122.03 131.28 123.62 131.28"/><polygon class="cls-20" points="125.21 131.28 129.88 143.5 129.66 143.59 128.32 143.59 123.62 131.28 125.21 131.28"/><polygon class="cls-21" points="126.8 131.28 131.27 142.97 129.88 143.5 125.21 131.28 126.8 131.28"/><polygon class="cls-22" points="128.4 131.28 132.66 142.44 131.27 142.97 126.8 131.28 128.4 131.28"/><polygon class="cls-23" points="129.99 131.28 134.05 141.91 132.66 142.44 128.4 131.28 129.99 131.28"/><polygon class="cls-24" points="131.58 131.28 135.44 141.38 134.05 141.91 129.99 131.28 131.58 131.28"/><polygon class="cls-25" points="133.17 131.28 136.83 140.85 135.44 141.38 131.58 131.28 133.17 131.28"/><polygon class="cls-26" points="134.77 131.28 138.22 140.32 136.83 140.85 133.17 131.28 134.77 131.28"/><polygon class="cls-27" points="136.36 131.28 139.61 139.79 138.22 140.32 134.77 131.28 136.36 131.28"/><polygon class="cls-28" points="137.95 131.28 141 139.26 139.61 139.79 136.36 131.28 137.95 131.28"/><polygon class="cls-29" points="139.54 131.28 142.39 138.72 141 139.26 137.95 131.28 139.54 131.28"/><polygon class="cls-30" points="141.14 131.28 143.78 138.19 142.39 138.72 139.54 131.28 141.14 131.28"/><polygon class="cls-31" points="142.73 131.28 145.06 137.38 145.06 137.7 143.78 138.19 141.14 131.28 142.73 131.28"/><polygon class="cls-32" points="144.32 131.28 145.06 133.22 145.06 137.38 142.73 131.28 144.32 131.28"/><polygon class="cls-33" points="145.06 133.22 144.32 131.28 145.06 131.28 145.06 133.22"/><polygon class="cls-34" points="100.77 154.84 101.68 157.23 100.77 157.23 100.77 154.84"/><polygon class="cls-35" points="100.77 150.67 103.27 157.23 101.68 157.23 100.77 154.84 100.77 150.67"/><polygon class="cls-36" points="100.77 146.5 104.86 157.23 103.27 157.23 100.77 150.67 100.77 146.5"/><polygon class="cls-37" points="100.77 142.34 106.45 157.2 106.37 157.23 104.86 157.23 100.77 146.5 100.77 142.34"/><polygon class="cls-38" points="100.77 138.17 107.83 156.67 106.45 157.2 100.77 142.34 100.77 138.17"/><polygon class="cls-4" points="100.77 134 109.22 156.14 107.83 156.67 100.77 138.17 100.77 134"/><polygon class="cls-5" points="101.69 132.24 110.61 155.61 109.22 156.14 100.77 134 100.77 132.24 101.69 132.24"/><polygon class="cls-6" points="103.28 132.24 112 155.08 110.61 155.61 101.69 132.24 103.28 132.24"/><polygon class="cls-7" points="104.87 132.24 113.39 154.55 112 155.08 103.28 132.24 104.87 132.24"/><polygon class="cls-8" points="106.46 132.24 114.78 154.02 113.39 154.55 104.87 132.24 106.46 132.24"/><polygon class="cls-9" points="108.06 132.24 116.17 153.49 114.78 154.02 106.46 132.24 108.06 132.24"/><polygon class="cls-10" points="109.65 132.24 117.56 152.96 116.17 153.49 108.06 132.24 109.65 132.24"/><polygon class="cls-11" points="111.24 132.24 118.95 152.42 117.56 152.96 109.65 132.24 111.24 132.24"/><polygon class="cls-12" points="112.83 132.24 120.34 151.89 118.95 152.42 111.24 132.24 112.83 132.24"/><polygon class="cls-13" points="114.43 132.24 121.73 151.36 120.34 151.89 112.83 132.24 114.43 132.24"/><polygon class="cls-14" points="116.02 132.24 122.09 148.13 122.09 151.22 121.73 151.36 114.43 132.24 116.02 132.24"/><polygon class="cls-15" points="117.61 132.24 122.09 143.96 122.09 148.13 116.02 132.24 117.61 132.24"/><polygon class="cls-16" points="119.2 132.24 122.09 139.8 122.09 143.96 117.61 132.24 119.2 132.24"/><polygon class="cls-17" points="120.8 132.24 122.09 135.63 122.09 139.8 119.2 132.24 120.8 132.24"/><polygon class="cls-18" points="122.09 135.63 120.8 132.24 122.09 132.24 122.09 135.63"/><polygon class="cls-39" points="76.72 154.44 77.95 157.65 76.72 157.65 76.72 154.44"/><polygon class="cls-40" points="76.72 150.27 79.54 157.65 77.95 157.65 76.72 154.44 76.72 150.27"/><polygon class="cls-41" points="76.72 146.1 81.14 157.65 79.54 157.65 76.72 150.27 76.72 146.1"/><polygon class="cls-42" points="76.72 141.93 82.73 157.65 81.14 157.65 76.72 146.1 76.72 141.93"/><polygon class="cls-43" points="76.72 138.1 76.83 138.06 84.32 157.65 82.73 157.65 76.72 141.93 76.72 138.1"/><polygon class="cls-44" points="76.83 138.06 78.22 137.53 85.91 157.65 84.32 157.65 76.83 138.06"/><polygon class="cls-45" points="78.22 137.53 79.61 137 87.51 157.65 85.91 157.65 78.22 137.53"/><polygon class="cls-46" points="79.61 137 81 136.47 89.1 157.65 87.51 157.65 79.61 137"/><polygon class="cls-47" points="81 136.47 82.39 135.93 90.69 157.65 89.1 157.65 81 136.47"/><polygon class="cls-48" points="82.39 135.93 83.78 135.4 92.28 157.65 90.69 157.65 82.39 135.93"/><polygon class="cls-49" points="83.78 135.4 85.17 134.87 93.88 157.65 92.28 157.65 83.78 135.4"/><polygon class="cls-50" points="85.17 134.87 86.56 134.34 95.47 157.65 93.88 157.65 85.17 134.87"/><polygon class="cls-51" points="86.56 134.34 87.95 133.81 97.06 157.65 95.47 157.65 86.56 134.34"/><polygon class="cls-52" points="87.95 133.81 89.34 133.28 98.65 157.65 97.06 157.65 87.95 133.81"/><polygon class="cls-53" points="89.34 133.28 90.73 132.75 98.77 153.8 98.77 157.65 98.65 157.65 89.34 133.28"/><polygon class="cls-34" points="90.73 132.75 92.12 132.22 98.77 149.63 98.77 153.8 90.73 132.75"/><polygon class="cls-35" points="92.12 132.22 93.17 131.82 93.56 131.82 98.77 145.46 98.77 149.63 92.12 132.22"/><polygon class="cls-36" points="95.15 131.82 98.77 141.29 98.77 145.46 93.56 131.82 95.15 131.82"/><polygon class="cls-37" points="96.75 131.82 98.77 137.12 98.77 141.29 95.15 131.82 96.75 131.82"/><polygon class="cls-38" points="98.34 131.82 98.77 132.95 98.77 137.12 96.75 131.82 98.34 131.82"/><polygon class="cls-4" points="98.77 132.95 98.34 131.82 98.77 131.82 98.77 132.95"/><polygon class="cls-54" points="53.76 140.2 55.05 143.58 53.76 143.58 53.76 140.2"/><polygon class="cls-55" points="53.76 136.03 56.65 143.58 55.05 143.58 53.76 140.2 53.76 136.03"/><polygon class="cls-56" points="53.76 131.86 58.24 143.58 56.65 143.58 53.76 136.03 53.76 131.86"/><polygon class="cls-57" points="55.13 131.28 59.83 143.58 58.24 143.58 53.76 131.86 53.76 131.28 55.13 131.28"/><polygon class="cls-58" points="56.73 131.28 61.42 143.58 59.83 143.58 55.13 131.28 56.73 131.28"/><polygon class="cls-59" points="58.32 131.28 63.02 143.58 61.42 143.58 56.73 131.28 58.32 131.28"/><polygon class="cls-60" points="59.91 131.28 64.61 143.58 63.02 143.58 58.32 131.28 59.91 131.28"/><polygon class="cls-61" points="61.51 131.28 66.2 143.58 64.61 143.58 59.91 131.28 61.51 131.28"/><polygon class="cls-62" points="63.1 131.28 67.8 143.58 66.2 143.58 61.51 131.28 63.1 131.28"/><polygon class="cls-63" points="64.69 131.28 69.39 143.58 67.8 143.58 63.1 131.28 64.69 131.28"/><polygon class="cls-64" points="66.28 131.28 70.98 143.58 69.39 143.58 64.69 131.28 66.28 131.28"/><polygon class="cls-39" points="67.88 131.28 72.57 143.58 70.98 143.58 66.28 131.28 67.88 131.28"/><polygon class="cls-40" points="69.47 131.28 74.17 143.58 72.57 143.58 67.88 131.28 69.47 131.28"/><polygon class="cls-41" points="71.06 131.28 75.76 143.58 74.17 143.58 69.47 131.28 71.06 131.28"/><polygon class="cls-42" points="72.65 131.28 77.35 143.58 75.76 143.58 71.06 131.28 72.65 131.28"/><polygon class="cls-43" points="74.25 131.28 78.94 143.58 77.35 143.58 72.65 131.28 74.25 131.28"/><polygon class="cls-44" points="75.84 131.28 80.51 143.52 80.36 143.58 78.94 143.58 74.25 131.28 75.84 131.28"/><polygon class="cls-45" points="77.43 131.28 81.9 142.99 80.51 143.52 75.84 131.28 77.43 131.28"/><polygon class="cls-46" points="79.02 131.28 83.29 142.46 81.9 142.99 77.43 131.28 79.02 131.28"/><polygon class="cls-47" points="80.62 131.28 84.68 141.93 83.29 142.46 79.02 131.28 80.62 131.28"/><polygon class="cls-48" points="82.21 131.28 86.07 141.4 84.68 141.93 80.62 131.28 82.21 131.28"/><polygon class="cls-49" points="83.8 131.28 87.46 140.86 86.07 141.4 82.21 131.28 83.8 131.28"/><polygon class="cls-50" points="85.39 131.28 88.85 140.33 87.46 140.86 83.8 131.28 85.39 131.28"/><polygon class="cls-51" points="86.99 131.28 90.24 139.8 88.85 140.33 85.39 131.28 86.99 131.28"/><polygon class="cls-52" points="88.58 131.28 91.63 139.27 90.24 139.8 86.99 131.28 88.58 131.28"/><polygon class="cls-53" points="90.17 131.28 93.02 138.74 91.63 139.27 88.58 131.28 90.17 131.28"/><polygon class="cls-34" points="91.77 131.28 94.41 138.21 93.02 138.74 90.17 131.28 91.77 131.28"/><polygon class="cls-35" points="93.36 131.28 95.74 137.52 95.74 137.7 94.41 138.21 91.77 131.28 93.36 131.28"/><polygon class="cls-36" points="94.95 131.28 95.74 133.35 95.74 137.52 93.36 131.28 94.95 131.28"/><polygon class="cls-37" points="95.74 133.35 94.95 131.28 95.74 131.28 95.74 133.35"/><polygon class="cls-57" points="53.76 127.69 54.37 129.29 53.76 129.29 53.76 127.69"/><polygon class="cls-58" points="53.76 123.52 55.97 129.29 54.37 129.29 53.76 127.69 53.76 123.52"/><polygon class="cls-59" points="53.76 122.88 54.94 122.43 57.56 129.29 55.97 129.29 53.76 123.52 53.76 122.88"/><polygon class="cls-60" points="54.94 122.43 56.33 121.9 59.15 129.29 57.56 129.29 54.94 122.43"/><polygon class="cls-61" points="56.33 121.9 57.72 121.36 60.74 129.29 59.15 129.29 56.33 121.9"/><polygon class="cls-62" points="57.72 121.36 59.1 120.83 62.34 129.29 60.74 129.29 57.72 121.36"/><polygon class="cls-63" points="59.1 120.83 60.49 120.3 63.93 129.29 62.34 129.29 59.1 120.83"/><polygon class="cls-64" points="60.49 120.3 61.88 119.77 65.52 129.29 63.93 129.29 60.49 120.3"/><polygon class="cls-39" points="61.88 119.77 63.27 119.24 67.11 129.29 65.52 129.29 61.88 119.77"/><polygon class="cls-40" points="63.27 119.24 64.66 118.71 68.71 129.29 67.11 129.29 63.27 119.24"/><polygon class="cls-41" points="64.66 118.71 66.05 118.18 70.3 129.29 68.71 129.29 64.66 118.71"/><polygon class="cls-42" points="66.05 118.18 67.44 117.65 71.89 129.29 70.3 129.29 66.05 118.18"/><polygon class="cls-43" points="67.44 117.65 68.83 117.12 73.48 129.29 71.89 129.29 67.44 117.65"/><polygon class="cls-44" points="68.83 117.12 69.15 117 70.38 117 75.08 129.29 73.48 129.29 68.83 117.12"/><polygon class="cls-45" points="71.97 117 76.67 129.29 75.08 129.29 70.38 117 71.97 117"/><polygon class="cls-46" points="73.56 117 78.26 129.29 76.67 129.29 71.97 117 73.56 117"/><polygon class="cls-47" points="75.16 117 79.86 129.29 78.26 129.29 73.56 117 75.16 117"/><polygon class="cls-48" points="76.75 117 81.45 129.29 79.86 129.29 75.16 117 76.75 117"/><polygon class="cls-49" points="78.34 117 83.04 129.29 81.45 129.29 76.75 117 78.34 117"/><polygon class="cls-50" points="79.94 117 84.63 129.29 83.04 129.29 78.34 117 79.94 117"/><polygon class="cls-51" points="81.53 117 86.23 129.29 84.63 129.29 79.94 117 81.53 117"/><polygon class="cls-52" points="83.12 117 87.82 129.29 86.23 129.29 81.53 117 83.12 117"/><polygon class="cls-53" points="84.71 117 89.41 129.29 87.82 129.29 83.12 117 84.71 117"/><polygon class="cls-34" points="86.31 117 91 129.29 89.41 129.29 84.71 117 86.31 117"/><polygon class="cls-35" points="87.9 117 92.6 129.29 91 129.29 86.31 117 87.9 117"/><polygon class="cls-36" points="89.49 117 94.19 129.29 92.6 129.29 87.9 117 89.49 117"/><polygon class="cls-37" points="91.08 117 95.74 129.19 95.74 129.29 94.19 129.29 89.49 117 91.08 117"/><polygon class="cls-38" points="92.68 117 95.74 125.02 95.74 129.19 91.08 117 92.68 117"/><polygon class="cls-4" points="94.27 117 95.74 120.85 95.74 125.02 92.68 117 94.27 117"/><polygon class="cls-5" points="95.74 120.85 94.27 117 95.74 117 95.74 120.85"/><polygon class="cls-46" points="76.72 125.26 78.2 129.13 76.72 129.13 76.72 125.26"/><polygon class="cls-47" points="76.72 121.09 79.8 129.13 78.2 129.13 76.72 125.26 76.72 121.09"/><polygon class="cls-48" points="76.72 116.92 81.39 129.13 79.8 129.13 76.72 121.09 76.72 116.92"/><polygon class="cls-49" points="76.72 112.75 82.98 129.13 81.39 129.13 76.72 116.92 76.72 112.75"/><polygon class="cls-50" points="76.72 109.08 76.89 109.02 84.57 129.13 82.98 129.13 76.72 112.75 76.72 109.08"/><polygon class="cls-51" points="76.89 109.02 78.28 108.49 86.17 129.13 84.57 129.13 76.89 109.02"/><polygon class="cls-52" points="78.28 108.49 79.67 107.95 87.76 129.13 86.17 129.13 78.28 108.49"/><polygon class="cls-53" points="79.67 107.95 81.06 107.42 89.35 129.13 87.76 129.13 79.67 107.95"/><polygon class="cls-34" points="81.06 107.42 82.45 106.89 90.94 129.13 89.35 129.13 81.06 107.42"/><polygon class="cls-35" points="82.45 106.89 83.83 106.36 92.54 129.13 90.94 129.13 82.45 106.89"/><polygon class="cls-36" points="83.83 106.36 85.22 105.83 94.13 129.13 92.54 129.13 83.83 106.36"/><polygon class="cls-37" points="85.22 105.83 86.61 105.3 95.72 129.13 94.13 129.13 85.22 105.83"/><polygon class="cls-38" points="86.61 105.3 88 104.77 97.31 129.13 95.72 129.13 86.61 105.3"/><polygon class="cls-4" points="88 104.77 89.39 104.24 98.91 129.13 97.31 129.13 88 104.77"/><polygon class="cls-5" points="89.39 104.24 90.78 103.71 100.5 129.13 98.91 129.13 89.39 104.24"/><polygon class="cls-6" points="90.78 103.71 92.17 103.18 102.09 129.13 100.5 129.13 90.78 103.71"/><polygon class="cls-7" points="92.17 103.18 93.56 102.64 103.69 129.13 102.09 129.13 92.17 103.18"/><polygon class="cls-8" points="93.56 102.64 93.81 102.55 95.12 102.55 105.24 129.05 105.01 129.13 103.69 129.13 93.56 102.64"/><polygon class="cls-9" points="96.71 102.55 106.63 128.52 105.24 129.05 95.12 102.55 96.71 102.55"/><polygon class="cls-10" points="98.31 102.55 108.02 127.98 106.63 128.52 96.71 102.55 98.31 102.55"/><polygon class="cls-11" points="99.9 102.55 109.41 127.45 108.02 127.98 98.31 102.55 99.9 102.55"/><polygon class="cls-12" points="101.49 102.55 110.8 126.92 109.41 127.45 99.9 102.55 101.49 102.55"/><polygon class="cls-13" points="103.08 102.55 112.19 126.39 110.8 126.92 101.49 102.55 103.08 102.55"/><polygon class="cls-14" points="104.68 102.55 113.58 125.86 112.19 126.39 103.08 102.55 104.68 102.55"/><polygon class="cls-15" points="106.27 102.55 114.97 125.33 113.58 125.86 104.68 102.55 106.27 102.55"/><polygon class="cls-16" points="107.86 102.55 116.36 124.8 114.97 125.33 106.27 102.55 107.86 102.55"/><polygon class="cls-17" points="109.45 102.55 117.75 124.27 116.36 124.8 107.86 102.55 109.45 102.55"/><polygon class="cls-18" points="111.05 102.55 119.14 123.74 117.75 124.27 109.45 102.55 111.05 102.55"/><polygon class="cls-19" points="112.64 102.55 120.53 123.21 119.14 123.74 111.05 102.55 112.64 102.55"/><polygon class="cls-20" points="114.23 102.55 121.92 122.67 120.53 123.21 112.64 102.55 114.23 102.55"/><polygon class="cls-21" points="115.83 102.55 122.08 118.93 122.08 122.61 121.92 122.67 114.23 102.55 115.83 102.55"/><polygon class="cls-22" points="117.42 102.55 122.08 114.77 122.08 118.93 115.83 102.55 117.42 102.55"/><polygon class="cls-23" points="119.01 102.55 122.08 110.6 122.08 114.77 117.42 102.55 119.01 102.55"/><polygon class="cls-24" points="120.6 102.55 122.08 106.43 122.08 110.6 119.01 102.55 120.6 102.55"/><polygon class="cls-25" points="122.08 106.43 120.6 102.55 122.08 102.55 122.08 106.43"/><polygon class="cls-7" points="103.08 127.54 103.75 129.29 103.08 129.29 103.08 127.54"/><polygon class="cls-8" points="103.08 123.38 105.34 129.29 103.75 129.29 103.08 127.54 103.08 123.38"/><polygon class="cls-9" points="103.08 122.86 104.3 122.4 106.93 129.29 105.34 129.29 103.08 123.38 103.08 122.86"/><polygon class="cls-10" points="104.3 122.4 105.69 121.86 108.52 129.29 106.93 129.29 104.3 122.4"/><polygon class="cls-11" points="105.69 121.86 107.08 121.33 110.12 129.29 108.52 129.29 105.69 121.86"/><polygon class="cls-12" points="107.08 121.33 108.46 120.8 111.71 129.29 110.12 129.29 107.08 121.33"/><polygon class="cls-13" points="108.46 120.8 109.85 120.27 113.3 129.29 111.71 129.29 108.46 120.8"/><polygon class="cls-14" points="109.85 120.27 111.24 119.74 114.89 129.29 113.3 129.29 109.85 120.27"/><polygon class="cls-15" points="111.24 119.74 112.63 119.21 116.49 129.29 114.89 129.29 111.24 119.74"/><polygon class="cls-16" points="112.63 119.21 114.02 118.68 118.08 129.29 116.49 129.29 112.63 119.21"/><polygon class="cls-17" points="114.02 118.68 115.41 118.15 119.67 129.29 118.08 129.29 114.02 118.68"/><polygon class="cls-18" points="115.41 118.15 116.8 117.62 121.26 129.29 119.67 129.29 115.41 118.15"/><polygon class="cls-19" points="116.8 117.62 118.19 117.09 122.86 129.29 121.26 129.29 116.8 117.62"/><polygon class="cls-20" points="118.19 117.09 118.45 116.99 119.75 116.99 124.45 129.29 122.86 129.29 118.19 117.09"/><polygon class="cls-21" points="121.34 116.99 126.04 129.29 124.45 129.29 119.75 116.99 121.34 116.99"/><polygon class="cls-22" points="122.93 116.99 127.63 129.29 126.04 129.29 121.34 116.99 122.93 116.99"/><polygon class="cls-23" points="124.53 116.99 129.23 129.29 127.63 129.29 122.93 116.99 124.53 116.99"/><polygon class="cls-24" points="126.12 116.99 130.82 129.29 129.23 129.29 124.53 116.99 126.12 116.99"/><polygon class="cls-25" points="127.71 116.99 132.41 129.29 130.82 129.29 126.12 116.99 127.71 116.99"/><polygon class="cls-26" points="129.3 116.99 134 129.29 132.41 129.29 127.71 116.99 129.3 116.99"/><polygon class="cls-27" points="130.9 116.99 135.6 129.29 134 129.29 129.3 116.99 130.9 116.99"/><polygon class="cls-28" points="132.49 116.99 137.19 129.29 135.6 129.29 130.9 116.99 132.49 116.99"/><polygon class="cls-29" points="134.08 116.99 138.78 129.29 137.19 129.29 132.49 116.99 134.08 116.99"/><polygon class="cls-30" points="135.67 116.99 140.38 129.29 138.78 129.29 134.08 116.99 135.67 116.99"/><polygon class="cls-31" points="137.27 116.99 141.97 129.29 140.38 129.29 135.67 116.99 137.27 116.99"/><polygon class="cls-32" points="138.86 116.99 143.56 129.29 141.97 129.29 137.27 116.99 138.86 116.99"/><polygon class="cls-33" points="140.45 116.99 145.06 129.05 145.06 129.29 143.56 129.29 138.86 116.99 140.45 116.99"/><polygon class="cls-65" points="142.04 116.99 145.06 124.88 145.06 129.05 140.45 116.99 142.04 116.99"/><polygon class="cls-66" points="143.64 116.99 145.06 120.71 145.06 124.88 142.04 116.99 143.64 116.99"/><polygon class="cls-67" points="145.06 120.71 143.64 116.99 145.06 116.99 145.06 120.71"/><polygon class="cls-68" points="17.22 99.71 20.32 98.53 50.89 178.53 17.22 178.53 17.22 99.71"/><polygon class="cls-68" points="20.32 98.53 21.71 98 52.48 178.53 50.89 178.53 20.32 98.53"/><polygon class="cls-69" points="21.71 98 23.1 97.46 54.08 178.53 52.48 178.53 21.71 98"/><polygon class="cls-70" points="23.1 97.46 24.49 96.93 55.67 178.53 54.08 178.53 23.1 97.46"/><polygon class="cls-71" points="24.49 96.93 25.88 96.4 57.26 178.53 55.67 178.53 24.49 96.93"/><polygon class="cls-72" points="25.88 96.4 27.27 95.87 58.85 178.53 57.26 178.53 25.88 96.4"/><polygon class="cls-73" points="27.27 95.87 28.66 95.34 60.45 178.53 58.85 178.53 27.27 95.87"/><polygon class="cls-74" points="28.66 95.34 30.05 94.81 62.04 178.53 60.45 178.53 28.66 95.34"/><polygon class="cls-75" points="30.05 94.81 31.44 94.28 63.63 178.53 62.04 178.53 30.05 94.81"/><polygon class="cls-76" points="31.44 94.28 32.83 93.75 65.22 178.53 63.63 178.53 31.44 94.28"/><polygon class="cls-77" points="32.83 93.75 34.22 93.22 66.82 178.53 65.22 178.53 32.83 93.75"/><polygon class="cls-54" points="34.22 93.22 35.61 92.69 68.41 178.53 66.82 178.53 34.22 93.22"/><polygon class="cls-55" points="35.61 92.69 35.64 92.67 37.2 92.67 70 178.53 68.41 178.53 35.61 92.69"/><polygon class="cls-56" points="38.79 92.67 71.59 178.53 70 178.53 37.2 92.67 38.79 92.67"/><polygon class="cls-57" points="40.38 92.67 73.19 178.53 71.59 178.53 38.79 92.67 40.38 92.67"/><polygon class="cls-58" points="41.98 92.67 74.78 178.53 73.19 178.53 40.38 92.67 41.98 92.67"/><polygon class="cls-59" points="43.57 92.67 76.37 178.53 74.78 178.53 41.98 92.67 43.57 92.67"/><polygon class="cls-60" points="45.16 92.67 77.97 178.53 76.37 178.53 43.57 92.67 45.16 92.67"/><polygon class="cls-61" points="46.75 92.67 79.56 178.53 77.97 178.53 45.16 92.67 46.75 92.67"/><polygon class="cls-62" points="48.35 92.67 81.15 178.53 79.56 178.53 46.75 92.67 48.35 92.67"/><polygon class="cls-63" points="49.94 92.67 82.74 178.53 81.15 178.53 48.35 92.67 49.94 92.67"/><polygon class="cls-64" points="51.53 92.67 84.33 178.53 82.74 178.53 49.94 92.67 51.53 92.67"/><polygon class="cls-39" points="53.12 92.67 85.93 178.53 84.33 178.53 51.53 92.67 53.12 92.67"/><polygon class="cls-40" points="54.72 92.67 87.52 178.53 85.93 178.53 53.12 92.67 54.72 92.67"/><polygon class="cls-41" points="56.31 92.67 89.11 178.53 87.52 178.53 54.72 92.67 56.31 92.67"/><polygon class="cls-42" points="57.9 92.67 90.71 178.53 89.11 178.53 56.31 92.67 57.9 92.67"/><polygon class="cls-43" points="59.49 92.67 92.3 178.53 90.71 178.53 57.9 92.67 59.49 92.67"/><polygon class="cls-44" points="61.09 92.67 93.89 178.53 92.3 178.53 59.49 92.67 61.09 92.67"/><polygon class="cls-45" points="62.68 92.67 95.48 178.53 93.89 178.53 61.09 92.67 62.68 92.67"/><polygon class="cls-46" points="64.27 92.67 97.08 178.53 95.48 178.53 62.68 92.67 64.27 92.67"/><polygon class="cls-47" points="65.86 92.67 98.67 178.53 97.08 178.53 64.27 92.67 65.86 92.67"/><polygon class="cls-48" points="67.46 92.67 100.26 178.53 98.67 178.53 65.86 92.67 67.46 92.67"/><polygon class="cls-49" points="69.05 92.67 101.85 178.53 100.26 178.53 67.46 92.67 69.05 92.67"/><polygon class="cls-50" points="70.64 92.67 103.45 178.53 101.85 178.53 69.05 92.67 70.64 92.67"/><polygon class="cls-51" points="72.23 92.67 105.04 178.53 103.45 178.53 70.64 92.67 72.23 92.67"/><polygon class="cls-52" points="73.83 92.67 106.63 178.53 105.04 178.53 72.23 92.67 73.83 92.67"/><polygon class="cls-53" points="75.42 92.67 108.22 178.53 106.63 178.53 73.83 92.67 75.42 92.67"/><polygon class="cls-34" points="77.01 92.67 109.82 178.53 108.22 178.53 75.42 92.67 77.01 92.67"/><polygon class="cls-35" points="78.61 92.67 111.41 178.53 109.82 178.53 77.01 92.67 78.61 92.67"/><polygon class="cls-36" points="80.2 92.67 113 178.53 111.41 178.53 78.61 92.67 80.2 92.67"/><polygon class="cls-37" points="81.79 92.67 114.59 178.53 113 178.53 80.2 92.67 81.79 92.67"/><polygon class="cls-38" points="83.38 92.67 116.19 178.53 114.59 178.53 81.79 92.67 83.38 92.67"/><polygon class="cls-4" points="84.98 92.67 117.78 178.53 116.19 178.53 83.38 92.67 84.98 92.67"/><polygon class="cls-5" points="86.57 92.67 119.37 178.53 117.78 178.53 84.98 92.67 86.57 92.67"/><polygon class="cls-6" points="88.16 92.67 120.97 178.53 119.37 178.53 86.57 92.67 88.16 92.67"/><polygon class="cls-7" points="89.75 92.67 122.56 178.53 120.97 178.53 88.16 92.67 89.75 92.67"/><polygon class="cls-8" points="91.35 92.67 124.15 178.53 122.56 178.53 89.75 92.67 91.35 92.67"/><polygon class="cls-9" points="92.94 92.67 125.74 178.53 124.15 178.53 91.35 92.67 92.94 92.67"/><polygon class="cls-10" points="94.53 92.67 127.34 178.53 125.74 178.53 92.94 92.67 94.53 92.67"/><polygon class="cls-11" points="96.13 92.67 128.93 178.53 127.34 178.53 94.53 92.67 96.13 92.67"/><polygon class="cls-12" points="97.72 92.67 130.52 178.53 128.93 178.53 96.13 92.67 97.72 92.67"/><polygon class="cls-13" points="99.31 92.67 132.11 178.53 130.52 178.53 97.72 92.67 99.31 92.67"/><polygon class="cls-14" points="100.9 92.67 133.71 178.53 132.11 178.53 99.31 92.67 100.9 92.67"/><polygon class="cls-15" points="102.5 92.67 135.3 178.53 133.71 178.53 100.9 92.67 102.5 92.67"/><polygon class="cls-16" points="104.09 92.67 136.81 178.31 136.24 178.53 135.3 178.53 102.5 92.67 104.09 92.67"/><polygon class="cls-17" points="105.68 92.67 138.2 177.78 136.81 178.31 104.09 92.67 105.68 92.67"/><polygon class="cls-18" points="107.27 92.67 139.59 177.25 138.2 177.78 105.68 92.67 107.27 92.67"/><polygon class="cls-19" points="108.87 92.67 140.98 176.72 139.59 177.25 107.27 92.67 108.87 92.67"/><polygon class="cls-20" points="110.46 92.67 142.37 176.19 140.98 176.72 108.87 92.67 110.46 92.67"/><polygon class="cls-21" points="112.05 92.67 143.76 175.66 142.37 176.19 110.46 92.67 112.05 92.67"/><polygon class="cls-22" points="113.64 92.67 145.15 175.13 143.76 175.66 112.05 92.67 113.64 92.67"/><polygon class="cls-23" points="115.24 92.67 146.54 174.6 145.15 175.13 113.64 92.67 115.24 92.67"/><polygon class="cls-24" points="116.83 92.67 147.93 174.06 146.54 174.6 115.24 92.67 116.83 92.67"/><polygon class="cls-25" points="118.42 92.67 149.32 173.53 147.93 174.06 116.83 92.67 118.42 92.67"/><polygon class="cls-26" points="120.01 92.67 150.71 173 149.32 173.53 118.42 92.67 120.01 92.67"/><polygon class="cls-27" points="121.61 92.67 152.09 172.47 150.71 173 120.01 92.67 121.61 92.67"/><polygon class="cls-28" points="123.2 92.67 153.49 171.94 152.09 172.47 121.61 92.67 123.2 92.67"/><polygon class="cls-29" points="124.79 92.67 154.88 171.41 153.49 171.94 123.2 92.67 124.79 92.67"/><polygon class="cls-30" points="126.39 92.67 156.26 170.88 154.88 171.41 124.79 92.67 126.39 92.67"/><polygon class="cls-31" points="127.98 92.67 157.65 170.35 156.26 170.88 126.39 92.67 127.98 92.67"/><polygon class="cls-32" points="129.57 92.67 159.04 169.82 157.65 170.35 127.98 92.67 129.57 92.67"/><polygon class="cls-33" points="131.16 92.67 160.43 169.29 159.04 169.82 129.57 92.67 131.16 92.67"/><polygon class="cls-65" points="132.75 92.67 161.82 168.75 160.43 169.29 131.16 92.67 132.75 92.67"/><polygon class="cls-66" points="134.35 92.67 163.21 168.22 161.82 168.75 132.75 92.67 134.35 92.67"/><polygon class="cls-67" points="135.94 92.67 164.6 167.69 163.21 168.22 134.35 92.67 135.94 92.67"/><polygon class="cls-78" points="137.53 92.67 165.99 167.16 164.6 167.69 135.94 92.67 137.53 92.67"/><polygon class="cls-79" points="139.13 92.67 167.38 166.63 165.99 167.16 137.53 92.67 139.13 92.67"/><polygon class="cls-80" points="140.72 92.67 168.77 166.1 167.38 166.63 139.13 92.67 140.72 92.67"/><polygon class="cls-81" points="142.31 92.67 170.16 165.57 168.77 166.1 140.72 92.67 142.31 92.67"/><polygon class="cls-82" points="143.9 92.67 171.55 165.04 170.16 165.57 142.31 92.67 143.9 92.67"/><polygon class="cls-83" points="145.5 92.67 172.94 164.51 171.55 165.04 143.9 92.67 145.5 92.67"/><polygon class="cls-84" points="147.09 92.67 174.33 163.98 172.94 164.51 145.5 92.67 147.09 92.67"/><polygon class="cls-85" points="148.68 92.67 175.72 163.45 174.33 163.98 147.09 92.67 148.68 92.67"/><polygon class="cls-86" points="150.27 92.67 177.11 162.91 175.72 163.45 148.68 92.67 150.27 92.67"/><polygon class="cls-87" points="151.87 92.67 178.5 162.38 177.11 162.91 150.27 92.67 151.87 92.67"/><polygon class="cls-88" points="153.46 92.67 179.89 161.85 178.5 162.38 151.87 92.67 153.46 92.67"/><polygon class="cls-89" points="155.05 92.67 181.28 161.32 179.89 161.85 153.46 92.67 155.05 92.67"/><polygon class="cls-90" points="156.64 92.67 181.6 157.99 181.6 161.2 181.28 161.32 155.05 92.67 156.64 92.67"/><polygon class="cls-91" points="158.24 92.67 181.6 153.82 181.6 157.99 156.64 92.67 158.24 92.67"/><polygon class="cls-91" points="181.6 153.82 158.24 92.67 181.6 92.67 181.6 153.82"/></g><path class="cls-92" d="M151.3,91.31,115,112.59a30.74,30.74,0,0,1-31.1,0L47.52,91.31a7.9,7.9,0,0,1-3.93-6.87h0v44.1a7.89,7.89,0,0,0,3.93,6.87l36.34,21.28a30.74,30.74,0,0,0,31.1,0l36.34-21.28a7.87,7.87,0,0,0,3.93-6.87V84.44A7.9,7.9,0,0,1,151.3,91.31Z"/><path class="cls-92" d="M155.23,84.44a7.89,7.89,0,0,0-3.93-6.87L115,56.29a30.74,30.74,0,0,0-31.1,0L47.52,77.57a8,8,0,0,0,0,13.74l36.34,21.28a30.74,30.74,0,0,0,31.1,0L151.3,91.31a7.9,7.9,0,0,0,3.93-6.87Z"/><path class="cls-2" d="M99.41,117.06a31.05,31.05,0,0,1-15.68-4.25L47.4,91.52a8.21,8.21,0,0,1,0-14.17L83.73,56.07a31.06,31.06,0,0,1,31.36,0l36.33,21.28a8.12,8.12,0,0,1,4.06,7.09h0a8.11,8.11,0,0,1-4.06,7.08l-36.33,21.29A31,31,0,0,1,99.41,117.06Zm0-64.74A30.5,30.5,0,0,0,84,56.5L47.65,77.78a7.72,7.72,0,0,0,0,13.31L84,112.38a30.58,30.58,0,0,0,30.86,0l36.33-21.29A7.62,7.62,0,0,0,155,84.44h0a7.64,7.64,0,0,0-3.81-6.66L114.84,56.5A30.48,30.48,0,0,0,99.41,52.32Z"/><path class="cls-92" d="M108,69l19.94,11.68a4.37,4.37,0,0,1,0,7.54L108,99.89a16.89,16.89,0,0,1-17.08,0L70.93,88.21a4.37,4.37,0,0,1,0-7.54L90.87,69A16.89,16.89,0,0,1,108,69Z"/><path class="cls-2" d="M99.41,102.45a17.15,17.15,0,0,1-8.66-2.34L70.81,88.42a4.61,4.61,0,0,1,0-8L90.75,68.77a17.15,17.15,0,0,1,17.32,0l20,11.68a4.62,4.62,0,0,1,0,8l-20,11.69A17.15,17.15,0,0,1,99.41,102.45Zm0-35.53A16.61,16.61,0,0,0,91,69.2L71.06,80.88a4.12,4.12,0,0,0,0,7.11L91,99.67a16.65,16.65,0,0,0,16.82,0L127.76,88a4.12,4.12,0,0,0,0-7.11L107.82,69.2A16.61,16.61,0,0,0,99.41,66.92Z"/><path class="cls-92" d="M108,89.15l9.17,5.37,10.77-6.31a4.37,4.37,0,0,0,0-7.54L108,69a16.89,16.89,0,0,0-17.08,0L70.93,80.67a4.37,4.37,0,0,0,0,7.54L81.7,94.52l9.17-5.37A16.89,16.89,0,0,1,108,89.15Z"/><path class="cls-2" d="M117.12,94.81l-9.3-5.45a16.65,16.65,0,0,0-16.82,0l-9.3,5.45L70.81,88.42a4.61,4.61,0,0,1,0-8L90.75,68.77a17.15,17.15,0,0,1,17.32,0l20,11.68a4.62,4.62,0,0,1,0,8ZM99.41,86.58a17.06,17.06,0,0,1,8.66,2.35l9.05,5.3L127.76,88a4.12,4.12,0,0,0,0-7.11L107.82,69.2A16.65,16.65,0,0,0,91,69.2L71.06,80.88a4.12,4.12,0,0,0,0,7.11L81.7,94.23l9-5.3A17.06,17.06,0,0,1,99.41,86.58Z"/><path class="cls-92" d="M108,99.89l9.17-5.37L108,89.15a16.89,16.89,0,0,0-17.08,0L81.7,94.52l9.17,5.37A16.89,16.89,0,0,0,108,99.89Z"/><path class="cls-2" d="M99.41,102.45a17.15,17.15,0,0,1-8.66-2.34l-9.54-5.59,9.54-5.59a17.15,17.15,0,0,1,17.32,0l9.54,5.59-9.54,5.59A17.15,17.15,0,0,1,99.41,102.45ZM82.2,94.52,91,99.67a16.65,16.65,0,0,0,16.82,0l8.81-5.15-8.81-5.16a16.65,16.65,0,0,0-16.82,0Z"/><path class="cls-2" d="M99.41,128.29q-.78,0-1.56,0l0-.5c.51,0,1,0,1.54,0h.45v.5Zm2.47-.07,0-.5c.65,0,1.31-.09,2-.17l0,.5C103.21,128.12,102.54,128.18,101.88,128.22Zm-6-.08c-.66-.06-1.34-.13-2-.22l.06-.5c.66.09,1.33.16,2,.22Zm10-.35-.08-.5c.65-.1,1.31-.22,2-.35l.1.49C107.2,127.56,106.54,127.68,105.88,127.79Zm-14-.19c-.65-.12-1.31-.25-2-.41l.11-.48c.66.15,1.31.28,2,.4Zm18-.63-.12-.48c.64-.17,1.28-.35,1.91-.54l.15.48C111.11,126.62,110.46,126.81,109.81,127Zm-21.87-.29c-.63-.18-1.28-.38-1.92-.6l.16-.47c.63.21,1.27.41,1.9.59Zm25.72-.9-.18-.47c.62-.22,1.24-.47,1.86-.72l.19.46C114.91,125.31,114.28,125.56,113.66,125.78Zm-29.53-.39c-.61-.24-1.23-.5-1.85-.78l.2-.46q.93.42,1.83.78Zm33.23-1.16-.21-.45c.59-.29,1.19-.59,1.77-.9l.24.44C118.57,123.64,118,123.94,117.36,124.23Zm-36.89-.49c-.6-.3-1.19-.62-1.78-1l.25-.43c.58.33,1.17.65,1.75.94Zm40.43-1.41-.25-.43,1.73-1,.25.44ZM77,121.77l-1.73-1,.25-.43,1.73,1Zm47.39-1.46-.26-.44,1.73-1,.25.43Zm-50.85-.56-1.72-1,.25-.43,1.73,1Zm54.3-1.47-.25-.43,1.72-1,.25.43Zm-57.75-.55-1.72-1,.25-.44,1.72,1Zm61.2-1.47-.25-.43,1.72-1,.25.43Zm-64.65-.55-1.72-1,.25-.43,1.72,1Zm68.1-1.47-.25-.43,1.72-1,.26.43Zm-71.55-.56-1.73-1,.26-.43,1.72,1Zm75-1.46-.25-.43,1.73-1,.25.43Zm-78.45-.56-1.73-1,.25-.43,1.73,1Zm81.9-1.46-.25-.43,1.73-1,.25.44Zm-85.35-.56-1.73-1,.25-.43,1.73,1Zm88.8-1.47-.25-.43,1.73-1,.25.43Zm-92.25-.55-1.73-1,.25-.43,1.73,1Zm95.71-1.47-.26-.43,1.73-1,.25.43Zm-99.17-.55-1.72-1,.25-.44,1.73,1ZM152,104.13l-.25-.43,1.72-1,.25.43ZM45.9,103.57l-1.72-1,.25-.43,1.72,1Zm109.52-1.46-.25-.43,1.72-1,.25.43Zm-113-.56-1.73-1,.26-.43,1.72,1Zm116.42-1.46-.25-.43,1.72-1,.26.43ZM39,99.53l-1.73-1,.26-.43,1.72,1Zm123.32-1.46-.25-.44,1.73-1,.25.44ZM35.55,97.51l-1.73-1,.25-.43,1.73,1ZM165.77,96l-.25-.43,1.73-1,.25.43ZM32.1,95.49l-1.73-1,.25-.44,1.73,1ZM169.22,94l-.25-.43.2-.12a10.84,10.84,0,0,0,1.42-1l.32.38a11.31,11.31,0,0,1-1.49,1ZM28.65,93.43a11.67,11.67,0,0,1-1.57-1.32l.36-.35A11.28,11.28,0,0,0,28.93,93Zm143.7-2-.38-.32a10.35,10.35,0,0,0,1.09-1.61l.44.24A9.69,9.69,0,0,1,172.35,91.43ZM25.8,90.52a10.06,10.06,0,0,1-1-1.8l.46-.19a10.15,10.15,0,0,0,.92,1.72Zm148.51-2.66-.47-.15a10.33,10.33,0,0,0,.42-1.91l.5.07A11.24,11.24,0,0,1,174.31,87.86ZM24.22,86.77a11.38,11.38,0,0,1-.25-2h.5a10.61,10.61,0,0,0,.24,1.94Zm150.63-2.33h-.5a10.45,10.45,0,0,0-.18-1.94l.49-.1A10.76,10.76,0,0,1,174.85,84.44ZM24.6,82.78l-.49-.07a10.08,10.08,0,0,1,.5-2l.47.16A10.27,10.27,0,0,0,24.6,82.78Zm149-2.16a10.19,10.19,0,0,0-.87-1.75l.42-.26a11.19,11.19,0,0,1,.92,1.83ZM25.9,79.12l-.43-.25a10.77,10.77,0,0,1,1.2-1.66l.37.33A10.39,10.39,0,0,0,25.9,79.12Zm145.68-1.79a11.21,11.21,0,0,0-1.45-1.3l.29-.4A10.41,10.41,0,0,1,172,77ZM28.46,76.21l-.31-.4A12.39,12.39,0,0,1,29.4,75l.45-.27.26.43-.46.27A11.3,11.3,0,0,0,28.46,76.21Zm140-1.23-1.73-1,.25-.43,1.73,1ZM31.83,74.12l-.25-.43,1.73-1,.25.43ZM165,73l-1.73-1,.25-.43,1.73,1ZM35.28,72.1,35,71.67l1.73-1,.25.43Zm126.27-1.16-1.72-1,.25-.43,1.73,1ZM38.74,70.08l-.26-.43,1.73-1,.25.43ZM158.1,68.92l-1.72-1,.25-.43,1.72,1ZM42.19,68.06l-.26-.43,1.73-1,.25.43ZM154.65,66.9l-1.72-1,.25-.44,1.72,1ZM45.64,66l-.25-.44,1.72-1,.25.43ZM151.2,64.87l-1.73-1,.26-.43,1.72,1ZM49.09,64l-.25-.43,1.72-1,.26.43Zm98.66-1.16-1.73-1,.25-.43,1.73,1ZM52.54,62l-.25-.43,1.73-1,.25.43Zm91.76-1.16-1.73-1,.25-.43,1.73,1ZM56,60l-.25-.43,1.73-1,.25.43Zm84.86-1.16-1.73-1,.25-.43,1.73,1ZM59.44,58l-.25-.43,1.73-1,.25.43Zm77.95-1.16-1.72-1,.25-.44,1.73,1ZM62.9,55.93l-.26-.43,1.73-1,.25.44Zm71-1.16-1.72-1,.25-.43,1.72,1Zm-67.59-.86-.25-.44,1.72-1,.25.43Zm64.14-1.17-1.72-1,.25-.43,1.72,1ZM69.8,51.88l-.25-.43,1.72-1,.25.43ZM127,50.72l-1.73-1,.26-.43,1.72,1Zm-53.79-.86L73,49.43l1.72-1,.25.43Zm50.34-1.16-1.73-1,.25-.43,1.73,1ZM76.7,47.84l-.25-.43,1.73-1,.25.43Zm43.44-1.16c-.58-.34-1.17-.66-1.75-1l.24-.44c.58.3,1.17.63,1.76,1Zm-40-.82-.23-.44c.58-.31,1.19-.61,1.8-.9l.21.45C81.34,45.25,80.74,45.55,80.16,45.86Zm36.45-1c-.6-.28-1.22-.54-1.83-.79l.19-.46c.62.24,1.24.51,1.85.79Zm-32.85-.68-.19-.46c.62-.25,1.25-.5,1.88-.72l.17.47C85,43.68,84.37,43.92,83.76,44.17Zm29.16-.81c-.62-.21-1.26-.42-1.89-.6l.14-.48c.64.18,1.29.39,1.92.61ZM87.5,42.84l-.14-.48c.64-.19,1.3-.37,1.94-.53l.12.48C88.78,42.47,88.14,42.65,87.5,42.84Zm21.61-.6c-.64-.15-1.3-.3-2-.42l.1-.49c.65.12,1.31.27,2,.43Zm-17.75-.36-.1-.49c.65-.13,1.32-.25,2-.35l.08.5C92.66,41.64,92,41.75,91.36,41.88Zm13.84-.39c-.65-.09-1.31-.17-2-.23l0-.5c.66.07,1.34.15,2,.24Zm-9.91-.2-.05-.5q1-.09,2-.15l0,.5C96.62,41.17,96,41.23,95.29,41.29Zm6-.16c-.62,0-1.23,0-1.84,0h-.15v-.5h.15c.62,0,1.24,0,1.86,0Z"/><path class="cls-92" d="M141.29,50.47a5.9,5.9,0,0,0-2.95-5.15l-27.26-16a23.1,23.1,0,0,0-23.34,0l-27.26,16a6,6,0,0,0,0,10.3l27.26,16a23.1,23.1,0,0,0,23.34,0l27.26-16a5.9,5.9,0,0,0,2.95-5.15Z"/><path class="cls-92" d="M99.41,75a23.28,23.28,0,0,1-11.79-3.19l-27.26-16a6.22,6.22,0,0,1,0-10.74l27.26-16a23.37,23.37,0,0,1,23.59,0l27.25,16a6.17,6.17,0,0,1,3.08,5.37h0a6.17,6.17,0,0,1-3.08,5.37l-27.25,16A23.35,23.35,0,0,1,99.41,75Zm0-48.56a22.77,22.77,0,0,0-11.54,3.13l-27.26,16a5.73,5.73,0,0,0,0,9.88l27.26,16a22.85,22.85,0,0,0,23.08,0l27.26-16A5.68,5.68,0,0,0,141,50.47h0a5.68,5.68,0,0,0-2.83-4.94L111,29.57A22.77,22.77,0,0,0,99.41,26.44Z"/><path class="cls-92" d="M138.34,55.62l-27.26,16a23.1,23.1,0,0,1-23.34,0l-27.26-16a5.92,5.92,0,0,1-2.95-5.15v6.75a5.9,5.9,0,0,0,2.95,5.15l27.26,16a23.1,23.1,0,0,0,23.34,0l27.26-16a5.9,5.9,0,0,0,2.95-5.15V50.47A5.9,5.9,0,0,1,138.34,55.62Z"/><path class="cls-2" d="M99.41,81.75a23.28,23.28,0,0,1-11.79-3.19l-27.26-16a6.17,6.17,0,0,1-3.08-5.37V50.47h.5a5.68,5.68,0,0,0,2.83,4.94l27.26,16a22.85,22.85,0,0,0,23.08,0l27.26-16,.13.21-.13-.21A5.68,5.68,0,0,0,141,50.47h.5v6.75a6.17,6.17,0,0,1-3.08,5.37l-27.25,16A23.35,23.35,0,0,1,99.41,81.75ZM57.78,52.94v4.28a5.68,5.68,0,0,0,2.83,4.94l27.26,16a22.85,22.85,0,0,0,23.08,0l27.26-16A5.68,5.68,0,0,0,141,57.22V52.93a6.16,6.16,0,0,1-2.58,2.91l-27.25,16a23.37,23.37,0,0,1-23.59,0l-27.26-16A6.18,6.18,0,0,1,57.78,52.94Z"/><path class="cls-2" d="M99.16,201.67H96.85v-.46h2.3Zm2.3,0v-.46c.77,0,1.53,0,2.3-.07v.46l-2.3.05Zm-6.92-.1c-.77,0-1.53-.08-2.3-.13V201l2.29.14Zm11.53-.1V201l2.29-.17v.45l-2.29.16Zm-16.13-.22L87.65,201l0-.45,2.28.24Zm20.75-.21,0-.45c.76-.09,1.52-.18,2.28-.29l.06.46C112.19,200.84,111.43,201,110.69,201Zm-25.3-.35-2.28-.35.07-.46c.76.13,1.52.24,2.28.35Zm29.87-.27-.07-.45c.76-.12,1.51-.25,2.26-.39l.09.45-2.31.39Zm-34.42-.48-2.26-.46.09-.45c.75.16,1.5.31,2.26.45Zm39-.35-.09-.45c.75-.16,1.49-.32,2.24-.5l.1.45-2.32.5ZM76.37,199c-.75-.18-1.5-.36-2.24-.56l.12-.44c.74.19,1.48.38,2.22.55Zm48-.43-.12-.44,2.22-.6.12.44-2.32.6Zm-52.53-.7c-.74-.21-1.48-.44-2.21-.67l.13-.44,2.2.67Zm56.86-.51-.13-.44c.74-.23,1.47-.46,2.19-.71l.15.44Zm-61.27-.87c-.73-.25-1.45-.5-2.17-.77l.16-.43c.71.26,1.44.52,2.16.76Zm65.67-.6-.16-.43,2.16-.81.17.43c-.72.24-1.45.51-2.17.79Zm-70-1c-.71-.28-1.42-.56-2.13-.86l.18-.42,2.12.86Zm74.31-.68-.17-.42,2.11-.91.19.42c-.7.28-1.41.57-2.13.88Zm-78.55-1.1c-.7-.31-1.39-.63-2.09-1l.2-.41,2.08,1Zm82.78-.77-.19-.41,2.07-1,.21.42c-.69.3-1.39.64-2,1Zm-86.95-1.23c-.69-.34-1.37-.7-2-1.06l.21-.41,2,1.06Zm91.07-.86-.21-.41c.67-.36,1.35-.72,2-1.1l.22.41Zm-95.07-1.31c-.67-.37-1.33-.76-2-1.15l.23-.4c.66.39,1.32.78,2,1.15Zm99.17-.94-.24-.4,2-1.19.24.39c-.72.41-1.38.8-2,1.2ZM46.69,186.56l-1.93-1.24.25-.39,1.93,1.24Zm107.05-1-.25-.39c.64-.42,1.28-.84,1.91-1.28l.26.38-1.92,1.26ZM42.85,184c-.63-.43-1.26-.88-1.88-1.33l.27-.37,1.87,1.33Zm-3.73-2.71c-.61-.46-1.21-.94-1.81-1.42l.29-.36c.59.48,1.19.95,1.8,1.42Zm122.11-1.19-.29-.36c.6-.47,1.19-1,1.78-1.45l.3.36c-.59.49-1.19,1-1.79,1.45Zm-3.5,2.68-.29-.36c.6-.47,1.19-1,1.78-1.45l.3.36c-.59.49-1.19,1-1.79,1.45Zm-122.2-4.37c-.59-.49-1.18-1-1.75-1.5l.3-.35,1.74,1.5Zm129.24-1.26-.3-.35c.58-.5,1.15-1,1.71-1.53l.31.34c-.56.52-1.14,1-1.72,1.54ZM32.06,175.39l-1.67-1.55.32-.34c.55.53,1.1,1.06,1.67,1.58Zm136.12-1.34-.32-.33c.55-.53,1.1-1.06,1.64-1.61l.33.33c-.55.55-1.14,1.08-1.65,1.61ZM28.75,172.18c-.55-.54-1.08-1.1-1.61-1.65l.34-.32q.78.84,1.59,1.65Zm142.68-1.34-.33-.32q.79-.83,1.56-1.68l.34.31C172.49,169.67,172,170.23,171.43,170.84Zm-145.85-2c-.52-.57-1-1.15-1.53-1.73l.35-.3c.5.58,1,1.15,1.52,1.72Zm149-1.45-.35-.31c.5-.57,1-1.16,1.48-1.75l.36.3c-.53.58-1,1.21-1.53,1.75Zm-152-2c-.48-.6-1-1.2-1.44-1.81l.36-.28c.47.6,1,1.2,1.44,1.79Zm154.89-1.55-.36-.29c.48-.6.94-1.2,1.4-1.82l.37.28ZM19.69,161.7c-.46-.61-.92-1.24-1.36-1.86l.37-.27,1.36,1.86Zm160.53-1.55-.38-.27c.45-.62.89-1.25,1.32-1.88l.38.26ZM17,157.94c-.43-.64-.86-1.28-1.27-1.93l.38-.25c.42.65.84,1.29,1.27,1.92Zm165.81-1.6-.39-.25c.41-.64.82-1.28,1.23-1.94l.39.25ZM14.54,154.06c-.4-.66-.8-1.32-1.18-2l.39-.23,1.18,2Zm170.72-1.64-.39-.23c.38-.66.76-1.32,1.13-2l.4.22C186,151.09,185.69,151.76,185.26,152.42Zm-173-2.36c-.37-.68-.73-1.36-1.09-2l.41-.21c.35.68.71,1.35,1.08,2Zm175.28-1.66-.41-.22c.35-.67.7-1.35,1-2l.41.2-1,2ZM10.09,146c-.34-.7-.67-1.39-1-2.09l.42-.2c.32.7.65,1.39,1,2.08Zm179.45-1.68-.42-.2c.32-.69.64-1.38.95-2.08l.42.18C190.18,142.84,189.86,143.58,189.54,144.28ZM8.15,141.76c-.3-.71-.6-1.42-.89-2.14l.42-.17c.29.71.59,1.42.89,2.12Zm183.24-1.69-.43-.18c.29-.7.58-1.42.85-2.13l.43.16c-.28.72-.55,1.44-.85,2.15Zm-185-2.6c-.27-.72-.54-1.45-.79-2.18l.43-.15c.26.73.52,1.45.79,2.17ZM193,135.76l-.43-.15c.26-.72.51-1.45.75-2.17l.43.14c-.22.73-.47,1.46-.73,2.18ZM4.87,133.1c-.24-.73-.47-1.47-.69-2.21l.44-.13c.22.74.45,1.47.69,2.2Zm189.62-1.72-.43-.13c.22-.73.43-1.47.64-2.21l.45.13c-.21.74-.46,1.48-.66,2.21Zm-191-2.7c-.2-.74-.39-1.49-.58-2.24l.44-.11c.19.75.38,1.49.59,2.22Zm192.2-1.74-.44-.11c.18-.74.37-1.49.54-2.23l.45.1c-.13.75-.31,1.5-.5,2.24ZM2.42,124.2l-.48-2.26.46-.09c.15.76.31,1.5.47,2.25Zm194.36-1.76-.45-.09c.15-.75.3-1.5.44-2.25l.45.08C197.08,120.94,196.93,121.69,196.78,122.44ZM1.52,119.68c-.14-.76-.26-1.52-.38-2.28l.46-.07c.11.76.24,1.51.37,2.27Zm196.09-1.77-.46-.08c.12-.75.23-1.51.33-2.27l.46.06C197.84,116.39,197.69,117.15,197.61,117.91ZM.82,115.12c-.1-.76-.19-1.53-.27-2.29H1c.08.76.17,1.52.26,2.28Zm197.4-1.78-.46-.06c.09-.75.16-1.52.23-2.28h.46C198.38,111.84,198.3,112.57,198.22,113.34ZM.33,110.53c-.06-.77-.11-1.53-.16-2.3H.63c.05.77.1,1.53.16,2.29Zm198.29-1.79h-.46c.05-.76.09-1.53.12-2.29h.46C198.69,107.21,198.69,108,198.62,108.74ZM.06,105.92c0-.76,0-1.53-.06-2.3H.46c0,.77,0,1.53.06,2.3Zm198.75-1.78h-.46V100h.46v2.31C198.83,102.84,198.82,103.51,198.81,104.14ZM.46,101.32H0V99H.46C.48,99.78.47,100.55.46,101.32Zm197.81-3.65c0-.77-.08-1.54-.14-2.3h.46c.06.77.1,1.53.14,2.3ZM.61,96.73H.15c0-.77.09-1.53.15-2.3H.76C.69,95.2.69,96,.61,96.73ZM198,93.08q-.1-1.14-.24-2.28h.46c.09.76.17,1.52.24,2.29ZM1,92.15H.5c.07-.76.16-1.53.26-2.29l.45.06c-.08.71-.17,1.47-.25,2.23Zm196.47-3.63c-.11-.76-.22-1.51-.35-2.27l.46-.07c.12.75.23,1.51.34,2.28ZM1.52,87.59l-.45-.06q.16-1.17.36-2.28l.46.08c-.12.75-.2,1.51-.36,2.26ZM196.69,84q-.21-1.12-.45-2.25l.45-.1c.16.75.31,1.51.45,2.27ZM2.31,83.07,1.86,83c.15-.76.31-1.51.47-2.26l.45.1C2.62,81.57,2.46,82.32,2.31,83.07ZM195.74,79.5c-.17-.75-.36-1.49-.55-2.23l.44-.12c.2.75.38,1.49.56,2.24ZM3.3,78.59l-.44-.11c.18-.75.37-1.5.57-2.24l.45.12C3.69,77.1,3.48,77.84,3.3,78.59Zm191.28-3.54c-.21-.73-.43-1.47-.65-2.2l.44-.13c.23.73.44,1.47.66,2.21ZM4.5,74.15,4.06,74c.22-.74.44-1.47.68-2.2l.44.14C4.94,72.69,4.69,73.42,4.5,74.15Zm188.72-3.49c-.25-.73-.5-1.45-.76-2.18l.43-.15c.26.72.52,1.45.76,2.18ZM5.91,69.78l-.44-.15c.25-.73.51-1.45.78-2.17l.43.16C6.42,68.34,6.16,69.06,5.91,69.78Zm185.78-3.45c-.28-.72-.57-1.43-.86-2.14l.42-.17c.3.71.59,1.42.87,2.14ZM7.51,65.48l-.42-.17c.28-.71.57-1.42.88-2.13l.42.19C8.09,64.07,7.8,64.77,7.51,65.48Zm182.36-3.4c-.31-.7-.63-1.4-1-2.09l.42-.2c.33.66.67,1.36,1,2.1ZM9.31,61.27l-.41-.19c.31-.7.64-1.39,1-2.08l.42.2C10,59.89,9.63,60.58,9.31,61.27Zm178.6-3.35c-.35-.69-.7-1.37-1.06-2l.41-.21c.36.68.71,1.36,1.06,2Zm-176.6-.77-.41-.21c.35-.68.71-1.36,1.07-2l.41.22C12,55.84,11.69,56.47,11.31,57.15Zm174.44-3.31c-.38-.67-.76-1.34-1.15-2l.39-.23c.4.66.78,1.33,1.16,2Zm-2.35-4c-.41-.65-.82-1.3-1.24-1.94l.38-.25c.43.64.84,1.29,1.25,1.94ZM180.87,46c-.43-.63-.87-1.26-1.32-1.88l.37-.27c.45.62.9,1.25,1.33,1.89ZM18.41,45.39,18,45.13l1.35-1.87.37.27Zm159.77-3c-.47-.61-.94-1.22-1.42-1.81l.36-.29c.48.6.95,1.21,1.42,1.82Zm-157-.64-.37-.28c.47-.6,1-1.21,1.43-1.8l.36.29a20.36,20.36,0,0,0-1.46,1.74Zm154.17-3L173.85,37l.35-.3,1.5,1.75ZM24,38.14l-.34-.3c.5-.58,1-1.16,1.51-1.73l.35.3C25,37,24.52,37.56,24,38.14ZM172.28,35.3c-.52-.57-1.05-1.12-1.58-1.68l.33-.32c.54.56,1.06,1.12,1.58,1.69Zm-145.2-.58-.33-.32c.52-.56,1-1.11,1.59-1.66l.33.32Zm142-2.73c-.54-.54-1.09-1.07-1.65-1.6l.32-.33,1.66,1.6ZM30.29,31.44,30,31.11c.55-.54,1.11-1.07,1.67-1.6l.32.34C31.4,30.37,30.84,30.9,30.29,31.44Zm135.47-2.6L164,27.32l.3-.35,1.73,1.53ZM33.69,28.31l-.3-.35c.57-.51,1.15-1,1.74-1.51l.3.35C34.8,27.29,34.23,27.84,33.69,28.31Zm128.59-2.47c-.59-.48-1.18-1-1.78-1.43l.28-.37c.61.48,1.2,1,1.8,1.45Zm-125.13-.5L36.86,25l1.83-1.44.28.37c-.62.46-1.22.93-1.82,1.42ZM158.69,23c-.61-.46-1.23-.91-1.85-1.35l.26-.38c.63.45,1.25.9,1.86,1.36Zm-117.9-.48-.27-.37c.62-.46,1.24-.9,1.87-1.35l.27.38C42,21.62,41.41,22.07,40.79,22.52Zm3.76-2.68-.25-.38c.64-.43,1.28-.85,1.93-1.26l.25.39C45.83,19,45.19,19.46,44.55,19.84Zm3.89-2.46L48.2,17c.66-.39,1.32-.78,2-1.16l.23.4-2,1.2Zm98.69-1.88-2-1.08.21-.41c.68.36,1.36.72,2,1.09Zm-94.7-.4-.22-.41,2-1.07.21.41c-.63.39-1.31.74-2,1.11Zm90.64-1.71-2.06-1,.19-.42c.7.32,1.39.65,2.08,1ZM56.53,13l-.2-.42,2.1-1,.19.42c-.7.38-1.4.7-2.09,1Zm82.39-1.55-2.11-.89.18-.43c.71.29,1.41.59,2.12.9Zm-78.23-.31-.18-.43c.7-.3,1.42-.59,2.13-.88l.17.43Zm74-1.38c-.72-.28-1.43-.54-2.16-.8l.16-.43c.72.26,1.44.52,2.16.8ZM65,9.44,64.84,9c.73-.27,1.45-.53,2.18-.78l.15.44Zm65.35-1.21c-.73-.24-1.45-.47-2.19-.69l.14-.44c.73.22,1.47.45,2.19.69Zm-61-.29-.14-.44,2.22-.66.13.44Zm56.6-1c-.74-.21-1.48-.4-2.22-.59l.11-.45,2.23.59ZM73.76,6.69l-.07-.48c.74-.2,1.48-.39,2.23-.57l.11.45Zm47.73-.88c-.74-.17-1.49-.33-2.24-.48l.09-.45c.76.15,1.51.31,2.26.48Zm-43.27-.2-.1-.45,2.26-.47.09.46c-.78.1-1.49.26-2.24.42ZM117,4.84c-.76-.14-1.51-.26-2.27-.38l.07-.46,2.28.38ZM82.74,4.68l0-.44Q83.83,4,85,3.88l.07.46c-.79.11-1.55.23-2.3.36Zm29.73-.55q-1.14-.15-2.28-.27l0-.46c.76.08,1.53.17,2.29.28ZM87.28,4V3.56c.76-.1,1.52-.18,2.29-.26v.46Zm20.62-.35c-.76-.07-1.52-.12-2.29-.17V3c.77,0,1.54.1,2.3.17ZM91.85,3.58V3.12L94.16,3v.46C93.38,3.48,92.61,3.52,91.85,3.58Zm11.47-.21c-.76,0-1.53-.05-2.29-.06V2.84c.77,0,1.53,0,2.3.06Zm-6.88,0V2.91l2.25-.07V3.3Z"/><path class="cls-2" d="M183.89,186.73H14.94V17.78h169ZM15.4,186.27h168v-168H15.4Z"/><path class="cls-2" d="M15.17,53.77A3.81,3.81,0,1,1,19,50,3.82,3.82,0,0,1,15.17,53.77Zm0-7.39A3.59,3.59,0,1,0,18.75,50v0A3.59,3.59,0,0,0,15.17,46.38Z"/><circle class="cls-2" cx="15.17" cy="49.96" r="1.82"/><circle class="cls-2" cx="152.2" cy="18.27" r="2.2"/><path class="cls-2" d="M152.2,24.33a6.06,6.06,0,1,1,6.06-6.06h0A6.06,6.06,0,0,1,152.2,24.33Zm0-11.78a5.72,5.72,0,1,0,5.72,5.72A5.72,5.72,0,0,0,152.2,12.55Z"/><circle class="cls-2" cx="47.35" cy="186.5" r="1.42"/><g class="cls-93"><path class="cls-2" d="M14.29,82.63,96.38.54,95.85,0,14,81.9Z"/><path class="cls-2" d="M15,84.37,98.86.54,98.33,0l-83.6,83.6Z"/><path class="cls-2" d="M15.71,86.18,101.35.54,100.82,0,15.44,85.39Z"/><path class="cls-2" d="M16.33,88.05,103.84.54,103.31,0,16.08,87.24C16.17,87.5,16.25,87.78,16.33,88.05Z"/><path class="cls-2" d="M16.89,90,106.32.53,105.79,0,16.66,89.13C16.74,89.41,16.81,89.69,16.89,90Z"/><path class="cls-2" d="M17.37,92,108.8.54,108.27,0l-91.1,91.1C17.24,91.39,17.31,91.68,17.37,92Z"/><path class="cls-2" d="M17.78,94.05,111.29.54,110.76,0,17.61,93.15C17.67,93.45,17.73,93.75,17.78,94.05Z"/><path class="cls-2" d="M18.11,96.21,113.78.54,113.24,0,18,95.28C18,95.59,18.07,95.9,18.11,96.21Z"/><path class="cls-2" d="M18.34,98.45,116.26.53,115.73,0,18.25,97.48Z"/><path class="cls-2" d="M18.46,100.25c0,.18,0,.37,0,.56L118.74.54,118.21,0,18.43,99.79C18.44,99.94,18.46,100.09,18.46,100.25Z"/><path class="cls-2" d="M18.42,103.35,121.23.54,120.7,0,18.48,102.23C18.47,102.6,18.45,103,18.42,103.35Z"/><path class="cls-2" d="M18.16,106.1,123.72.54,123.19,0,18.31,104.89C18.26,105.29,18.22,105.7,18.16,106.1Z"/><path class="cls-2" d="M17.62,109.12,126.2.54,125.67,0,17.88,107.79C17.8,108.24,17.72,108.68,17.62,109.12Z"/><path class="cls-2" d="M16.73,112.49l112-112L128.15,0l-111,111C17,111.49,16.89,112,16.73,112.49Z"/><rect class="cls-2" x="-6.4" y="56.77" width="160.86" height="0.75" transform="translate(-18.73 69.09) rotate(-45)"/><rect class="cls-2" x="-3.91" y="56.76" width="160.86" height="0.75" transform="translate(-17.99 70.84) rotate(-45)"/><rect class="cls-2" x="-1.42" y="56.77" width="160.86" height="0.75" transform="translate(-17.27 72.6) rotate(-45)"/><rect class="cls-2" x="1.07" y="56.77" width="160.86" height="0.75" transform="translate(-16.54 74.36) rotate(-45)"/><rect class="cls-2" x="3.54" y="56.77" width="160.86" height="0.75" transform="translate(-15.82 76.11) rotate(-45)"/><rect class="cls-2" x="6.03" y="56.76" width="160.86" height="0.75" transform="translate(-15.08 77.87) rotate(-45)"/><rect class="cls-2" x="8.51" y="56.77" width="160.86" height="0.75" transform="translate(-14.36 79.63) rotate(-45)"/><rect class="cls-2" x="11" y="56.77" width="160.86" height="0.75" transform="translate(-13.63 81.39) rotate(-45)"/><rect class="cls-2" x="13.48" y="56.78" width="160.86" height="0.75" transform="translate(-12.91 83.14) rotate(-45)"/><rect class="cls-2" x="15.97" y="56.77" width="160.86" height="0.75" transform="translate(-12.17 84.9) rotate(-45)"/><rect class="cls-2" x="18.45" y="56.77" width="160.86" height="0.75" transform="translate(-11.45 86.66) rotate(-45)"/><rect class="cls-2" x="20.94" y="56.77" width="160.86" height="0.75" transform="translate(-10.72 88.42) rotate(-45)"/><rect class="cls-2" x="23.43" y="56.77" width="160.86" height="0.75" transform="translate(-9.99 90.17) rotate(-45)"/><rect class="cls-2" x="25.91" y="56.77" width="160.86" height="0.75" transform="translate(-9.26 91.93) rotate(-45)"/><path class="cls-2" d="M164.2,1.24,51.68,113.76l.53.53L163.86,2.64C164,2.17,164.08,1.7,164.2,1.24Z"/><path class="cls-2" d="M163.49,4.44,54.17,113.75l.53.54L163.26,5.73C163.32,5.3,163.41,4.87,163.49,4.44Z"/><path class="cls-2" d="M163.07,7.34,56.66,113.75l.53.53L163,8.5C163,8.11,163,7.73,163.07,7.34Z"/><path class="cls-2" d="M162.9,10,59.15,113.75l.53.53L162.91,11.05C162.9,10.7,162.89,10.36,162.9,10Z"/><path class="cls-2" d="M163,12.43,61.62,113.76l.53.53L163,13.43C163,13.1,163,12.76,163,12.43Z"/><path class="cls-2" d="M163.13,14.74l-99,99,.53.53,98.6-98.6C163.2,15.38,163.16,15.06,163.13,14.74Z"/><path class="cls-2" d="M163.4,17l-96.8,96.8.53.53,96.42-96.42Z"/><path class="cls-2" d="M163.77,19.07,69.09,113.75l.53.53L164,20C163.89,19.66,163.82,19.37,163.77,19.07Z"/><path class="cls-2" d="M164.21,21.12,71.57,113.76l.53.53L164.42,22Z"/><path class="cls-2" d="M164.72,23.08,74.05,113.75l.53.53L165,23.9Z"/><path class="cls-2" d="M165.3,25,76.53,113.75l.54.53,88.5-88.51Z"/><path class="cls-2" d="M166,26.83,79,113.75l.53.53,86.69-86.69C166.15,27.34,166,27.09,166,26.83Z"/><path class="cls-2" d="M166.66,28.61,81.51,113.76l.53.53L167,29.35C166.87,29.1,166.76,28.86,166.66,28.61Z"/><path class="cls-2" d="M167.42,30.32,84,113.75l.53.53L167.76,31C167.64,30.8,167.53,30.56,167.42,30.32Z"/><path class="cls-2" d="M168.24,32,86.48,113.75l.53.53L168.6,32.69C168.48,32.46,168.37,32.22,168.24,32Z"/><path class="cls-2" d="M169.12,33.6,89,113.75l.53.54,80-80C169.37,34.05,169.25,33.82,169.12,33.6Z"/><path class="cls-2" d="M170,35.16,91.45,113.75l.53.53,78.47-78.47C170.32,35.59,170.18,35.37,170,35.16Z"/><path class="cls-2" d="M171,36.67,93.94,113.75l.53.53,77-77Z"/><path class="cls-2" d="M172,38.13,96.42,113.75l.53.53L172.5,38.73Z"/><path class="cls-2" d="M173.12,39.54,98.9,113.76l.53.53L173.6,40.12Z"/><path class="cls-2" d="M174.25,40.89l-72.86,72.86.53.53,72.82-72.82C174.57,41.28,174.41,41.08,174.25,40.89Z"/><path class="cls-2" d="M175.42,42.21l-71.54,71.54.53.53,71.52-71.52Z"/><path class="cls-2" d="M176.65,43.47l-70.28,70.28.53.53L177.18,44C177,43.82,176.82,43.65,176.65,43.47Z"/><path class="cls-2" d="M177.91,44.69l-69.07,69.07.53.53,69.1-69.1Z"/></g><g class="cls-94"><path class="cls-2" d="M22.61,144.3,96.38,70.54,95.85,70,22,143.83Z"/><path class="cls-2" d="M23.92,145.48,98.86,70.54,98.33,70l-75,75Z"/><path class="cls-2" d="M25.19,146.7l76.16-76.16-.53-.53L24.66,146.17Z"/><path class="cls-2" d="M26.41,148l77.43-77.43-.53-.53L25.9,147.42Z"/><path class="cls-2" d="M27.57,149.28l78.75-78.75-.53-.53-78.7,78.7Z"/><path class="cls-2" d="M28.7,150.64l80.1-80.1-.53-.53-80,80Z"/><path class="cls-2" d="M29.78,152.05l81.51-81.51-.53-.53L29.32,151.45Z"/><path class="cls-2" d="M30.8,153.52l83-83-.54-.53L30.37,152.89Z"/><path class="cls-2" d="M31.76,155l84.5-84.5-.53-.53L31.35,154.37C31.49,154.59,31.63,154.81,31.76,155Z"/><path class="cls-2" d="M32.69,156.59l86.05-86-.53-.53L32.3,155.92Z"/><path class="cls-2" d="M33.56,158.21l87.67-87.67L120.7,70l-87.5,87.5Z"/><path class="cls-2" d="M34.38,159.88l89.34-89.34-.53-.53L34,159.16C34.16,159.4,34.26,159.64,34.38,159.88Z"/><path class="cls-2" d="M35.14,161.6,126.2,70.54l-.53-.53L34.82,160.86C34.93,161.1,35,161.35,35.14,161.6Z"/><path class="cls-2" d="M35.84,163.38l92.85-92.85-.54-.53L35.54,162.61C35.64,162.87,35.75,163.12,35.84,163.38Z"/><path class="cls-2" d="M36.49,165.22l94.68-94.68-.53-.53L36.21,164.44Z"/><path class="cls-2" d="M37.06,167.13l96.6-96.6-.53-.53L36.82,166.31C36.9,166.58,37,166.85,37.06,167.13Z"/><path class="cls-2" d="M37.57,169.11l98.57-98.57-.53-.53L37.36,168.26Z"/><path class="cls-2" d="M38,171.16,138.63,70.54,138.1,70,37.83,170.28Z"/><path class="cls-2" d="M38.36,173.29,141.11,70.54l-.53-.53L38.22,172.37C38.27,172.68,38.32,173,38.36,173.29Z"/><path class="cls-2" d="M38.63,175.5l105-105-.53-.53L38.52,174.55C38.56,174.86,38.6,175.18,38.63,175.5Z"/><path class="cls-2" d="M38.8,177.82,146.08,70.54l-.53-.53L38.74,176.82C38.76,177.15,38.79,177.48,38.8,177.82Z"/><path class="cls-2" d="M38.84,180.27,148.57,70.54,148,70,38.84,179.21C38.84,179.57,38.85,179.92,38.84,180.27Z"/><path class="cls-2" d="M38.65,182.94l112.4-112.4-.53-.53L38.75,181.78C38.72,182.16,38.69,182.55,38.65,182.94Z"/><rect class="cls-2" x="15.97" y="126.77" width="160.86" height="0.75" transform="translate(-61.67 105.4) rotate(-45)"/><rect class="cls-2" x="18.45" y="126.77" width="160.86" height="0.75" transform="translate(-60.94 107.16) rotate(-45)"/><rect class="cls-2" x="20.94" y="126.77" width="160.86" height="0.75" transform="translate(-60.21 108.92) rotate(-45)"/><rect class="cls-2" x="23.43" y="126.77" width="160.86" height="0.75" transform="translate(-59.48 110.68) rotate(-45)"/><rect class="cls-2" x="25.91" y="126.77" width="160.86" height="0.75" transform="translate(-58.76 112.43) rotate(-45)"/><rect class="cls-2" x="28.39" y="126.77" width="160.86" height="0.75" transform="translate(-58.03 114.19) rotate(-45)"/><path class="cls-2" d="M167.45,70.48,54.17,183.75l.53.54L167.3,71.69C167.34,71.29,167.39,70.88,167.45,70.48Z"/><path class="cls-2" d="M167.19,73.22,56.66,183.75l.53.53L167.13,74.34C167.14,74,167.17,73.59,167.19,73.22Z"/><path class="cls-2" d="M167.15,76.3c0-.18,0-.36,0-.55l-108,108,.53.53,107.5-107.5Z"/><path class="cls-2" d="M167.27,78.11,61.62,183.76l.53.53L167.36,79.08Z"/><path class="cls-2" d="M167.51,80.36,64.11,183.76l.53.53,103-103C167.59,81,167.55,80.67,167.51,80.36Z"/><path class="cls-2" d="M167.83,82.52,66.6,183.75l.53.53L168,83.41C167.94,83.11,167.89,82.81,167.83,82.52Z"/><path class="cls-2" d="M168.24,84.59,69.09,183.75l.53.53,98.82-98.82C168.37,85.17,168.31,84.88,168.24,84.59Z"/><path class="cls-2" d="M168.73,86.6,71.57,183.76l.53.53L169,87.43C168.88,87.16,168.8,86.88,168.73,86.6Z"/><path class="cls-2" d="M169.28,88.52,74.05,183.75l.53.53,95-94.95C169.44,89.06,169.37,88.79,169.28,88.52Z"/><path class="cls-2" d="M169.9,90.39,76.53,183.75l.54.53,93.11-93.11C170.08,90.91,170,90.65,169.9,90.39Z"/><path class="cls-2" d="M170.59,92.19,79,183.75l.53.53L170.89,93Z"/><path class="cls-2" d="M171.33,93.94,81.51,183.76l.53.53,89.62-89.62Z"/><path class="cls-2" d="M172.12,95.62,84,183.75l.53.53,88-88Z"/><path class="cls-2" d="M173,97.26,86.48,183.75l.53.53,86.34-86.34C173.22,97.71,173.09,97.49,173,97.26Z"/><path class="cls-2" d="M173.87,98.85,89,183.75l.53.54L174.28,99.5C174.14,99.28,174,99.07,173.87,98.85Z"/><path class="cls-2" d="M174.83,100.37,91.45,183.75l.53.53L175.25,101Z"/><path class="cls-2" d="M175.84,101.85l-81.9,81.9.53.53,81.81-81.81C176.13,102.27,176,102.06,175.84,101.85Z"/><path class="cls-2" d="M176.89,103.28,96.42,183.75l.53.53,80.4-80.4Z"/><path class="cls-2" d="M178,104.66l-79.1,79.1.53.53,79-79Z"/><path class="cls-2" d="M179.14,106l-77.75,77.76.53.53,77.73-77.73Z"/><path class="cls-2" d="M180.34,107.29l-76.46,76.46.53.53,76.47-76.47Z"/><path class="cls-2" d="M181.6,108.52l-75.23,75.23.53.53L182.15,109Z"/><path class="cls-2" d="M182.9,109.7l-74.06,74.06.53.53,74.09-74.09Z"/><path class="cls-2" d="M3.8,73v.88l3.39-3.38L6.66,70,3.8,72.86Z"/><polygon class="cls-2" points="3.8 76.41 9.68 70.54 9.15 70.01 3.8 75.35 3.8 76.41"/><polygon class="cls-2" points="3.8 78.89 12.15 70.54 11.62 70.01 3.8 77.83 3.8 78.89"/><polygon class="cls-2" points="3.8 81.37 14.64 70.53 14.11 70 3.8 80.31 3.8 81.37"/><polygon class="cls-2" points="3.8 83.86 17.13 70.54 16.59 70.01 3.8 82.8 3.8 83.86"/><polygon class="cls-2" points="3.8 86.35 19.61 70.54 19.09 70.01 3.8 85.29 3.8 86.35"/><polygon class="cls-2" points="3.8 88.83 22.09 70.54 21.56 70.01 3.8 87.77 3.8 88.83"/><polygon class="cls-2" points="3.8 91.31 24.58 70.53 24.05 70 3.8 90.25 3.8 91.31"/><polygon class="cls-2" points="3.8 93.8 27.06 70.54 26.53 70.01 3.8 92.74 3.8 93.8"/><polygon class="cls-2" points="3.8 96.29 29.55 70.54 29.02 70.01 3.8 95.23 3.8 96.29"/><polygon class="cls-2" points="3.8 98.77 32.04 70.53 31.51 70 3.8 97.71 3.8 98.77"/><polygon class="cls-2" points="3.8 101.25 34.52 70.53 33.99 70 3.8 100.19 3.8 101.25"/><polygon class="cls-2" points="3.8 103.74 37 70.54 36.47 70.01 3.8 102.68 3.8 103.74"/><polygon class="cls-2" points="3.8 106.23 39.49 70.54 38.96 70.01 3.8 105.17 3.8 106.23"/><polygon class="cls-2" points="3.8 108.71 41.98 70.54 41.45 70.01 3.8 107.65 3.8 108.71"/><polygon class="cls-2" points="3.8 111.2 44.47 70.54 43.94 70 3.8 110.14 3.8 111.2"/><polygon class="cls-2" points="3.8 113.68 46.94 70.54 46.41 70.01 3.8 112.62 3.8 113.68"/><polygon class="cls-2" points="3.8 116.17 49.43 70.54 48.9 70.01 3.8 115.11 3.8 116.17"/><polygon class="cls-2" points="3.8 118.65 51.91 70.54 51.38 70.01 3.8 117.59 3.8 118.65"/><polygon class="cls-2" points="3.8 121.14 54.41 70.54 53.88 70.01 3.8 120.08 3.8 121.14"/><polygon class="cls-2" points="3.8 123.63 56.89 70.54 56.36 70.01 3.8 122.57 3.8 123.63"/><polygon class="cls-2" points="3.8 126.1 59.37 70.53 58.84 70 3.8 125.04 3.8 126.1"/><polygon class="cls-2" points="3.8 128.59 61.85 70.54 61.32 70.01 3.8 127.53 3.8 128.59"/><polygon class="cls-2" points="3.8 131.08 64.34 70.54 63.81 70.01 3.8 130.02 3.8 131.08"/><polygon class="cls-2" points="3.8 133.57 66.83 70.55 66.3 70.02 3.8 132.51 3.8 133.57"/><polygon class="cls-2" points="3.8 136.04 69.31 70.53 68.78 70 3.8 134.98 3.8 136.04"/><polygon class="cls-2" points="3.8 138.53 71.8 70.53 71.27 70 3.8 137.47 3.8 138.53"/><polygon class="cls-2" points="3.8 141.02 74.28 70.54 73.75 70.01 3.8 139.96 3.8 141.02"/><polygon class="cls-2" points="3.8 143.5 76.77 70.54 76.24 70.01 3.8 142.44 3.8 143.5"/><polygon class="cls-2" points="3.8 145.99 79.26 70.54 78.73 70 3.8 144.93 3.8 145.99"/><polygon class="cls-2" points="3.8 148.47 81.74 70.53 81.21 70 3.8 147.41 3.8 148.47"/><polygon class="cls-2" points="3.8 150.96 84.22 70.54 83.69 70.01 3.8 149.9 3.8 150.96"/><polygon class="cls-2" points="3.8 153.44 86.71 70.53 86.18 70 3.8 152.38 3.8 153.44"/><polygon class="cls-2" points="3.8 155.93 89.2 70.54 88.67 70.01 3.8 154.87 3.8 155.93"/><polygon class="cls-2" points="3.8 158.42 91.69 70.54 91.16 70.01 3.8 157.36 3.8 158.42"/><polygon class="cls-2" points="3.8 160.9 94.16 70.54 93.63 70.01 3.8 159.84 3.8 160.9"/></g><path class="cls-2" d="M15.3,150.75l-.26-.43.11-.07.25.43Zm1.82-1.09-.26-.43,1.72-1,.26.43Zm3.43-2.06-.26-.43,1.72-1,.26.43ZM24,145.54l-.26-.43,1.72-1,.26.43Zm3.43-2-.25-.43,1.71-1,.26.43Zm3.44-2.06-.26-.43,1.71-1,.26.43Zm3.43-2.05L34,139l1.71-1,.26.43Zm3.43-2.06-.26-.43,1.71-1,.26.43Zm3.43-2.06-.26-.43,1.72-1,.25.43Zm3.43-2-.26-.43,1.72-1,.25.43ZM48,131.15l-.26-.43,1.72-1,.26.43Zm3.43-2.06-.26-.42,1.72-1,.26.43Zm3.43-2-.26-.43,1.72-1,.26.43ZM58.29,125l-.25-.43,1.71-1L60,124Zm3.43-2-.25-.43,1.71-1,.26.43Zm3.44-2.06-.26-.43,1.71-1,.26.43Zm3.43-2.06-.26-.43,1.71-1,.26.43Zm3.43-2-.26-.43,1.72-1,.25.43Zm3.43-2.06-.26-.43,1.72-1,.25.43Zm3.43-2-.26-.43,1.72-1,.26.43Zm3.43-2.06-.26-.43,1.72-1,.26.43Zm3.43-2.06-.26-.43,1.72-1,.26.43Zm3.43-2-.25-.43,1.71-1,.26.43Zm3.43-2.06-.25-.43,1.71-1,.26.43ZM130.35,81.8l-.26-.42,1.71-1,.26.43Zm3.43-2-.26-.43,1.72-1,.25.43Zm3.43-2.06-.26-.43,1.72-1,.25.43Zm3.43-2-.26-.43,1.72-1,.26.43Zm3.43-2.06-.26-.43,1.72-1,.26.43Zm3.43-2.06-.26-.43,1.72-1,.26.43Zm3.43-2-.25-.43,1.71-1,.26.43Zm3.43-2.06-.25-.43,1.71-1,.26.43Zm3.44-2-.26-.43,1.71-1,.26.43Zm3.43-2.06-.26-.43,1.71-1,.26.43Zm3.43-2.06-.26-.43,1.72-1,.25.42Zm3.43-2.05-.26-.43,1.72-1,.25.43Zm3.43-2.06-.26-.43,1.72-1,.26.43ZM175,55.07l-.26-.42,1.72-1,.26.43Zm3.43-2-.26-.43,1.72-1,.26.43ZM181.81,51l-.25-.43,1.71-1,.26.42Z"/><path class="cls-2" d="M183.27,150.75l-.1-.07.25-.43.11.07Zm-1.82-1.09-1.72-1,.26-.43,1.72,1ZM178,147.6l-1.72-1,.26-.43,1.72,1Zm-3.43-2.06-1.72-1,.26-.43,1.72,1Zm-3.43-2-1.72-1,.26-.43,1.71,1Zm-3.44-2.06-1.71-1,.26-.43,1.71,1Zm-3.43-2.05-1.71-1,.26-.43,1.71,1Zm-3.43-2.06-1.71-1,.26-.43,1.71,1Zm-3.43-2.06-1.71-1,.25-.43,1.72,1Zm-3.43-2-1.71-1,.25-.43,1.72,1Zm-3.43-2.06-1.72-1,.26-.43,1.72,1Zm-3.43-2.06-1.72-1,.26-.43,1.72,1Zm-3.43-2L142,126l.26-.43,1.72,1ZM140.28,125l-1.72-1,.26-.43,1.71,1Zm-3.43-2-1.72-1,.26-.43,1.71,1Zm-3.44-2.06-1.71-1,.26-.43,1.71,1ZM130,118.81l-1.71-1,.26-.43,1.71,1Zm-3.43-2-1.71-1,.25-.43,1.72,1Zm-3.43-2.06-1.71-1,.25-.43,1.72,1Zm-3.43-2-1.72-1,.26-.43,1.72,1Zm-3.43-2.06-1.72-1,.26-.43,1.72,1Zm-3.43-2.06-1.72-1,.26-.43,1.72,1Zm-3.43-2-1.72-1,.26-.43,1.71,1ZM106,104.42l-1.72-1,.26-.43,1.71,1ZM68.22,81.8l-1.71-1,.26-.43,1.71,1Zm-3.43-2-1.71-1,.25-.43,1.72,1Zm-3.43-2.06-1.71-1,.25-.43,1.72,1Zm-3.43-2-1.72-1,.26-.43,1.72,1ZM54.5,73.58l-1.72-1,.26-.43,1.72,1Zm-3.43-2.06-1.72-1,.26-.43,1.72,1Zm-3.43-2-1.72-1,.26-.43,1.71,1Zm-3.43-2.06-1.72-1,.26-.43,1.71,1Zm-3.44-2-1.71-1,.26-.43,1.71,1ZM37.34,63.3l-1.71-1,.26-.43,1.71,1Zm-3.43-2.06-1.71-1,.25-.42,1.72,1Zm-3.43-2.05-1.71-1,.25-.43,1.72,1Zm-3.43-2.06-1.72-1,.26-.43,1.72,1Zm-3.43-2.06-1.72-1,.26-.43,1.72,1Zm-3.43-2-1.72-1,.26-.43,1.72,1ZM16.76,51l-1.72-1,.26-.42,1.72,1Z"/><circle class="cls-2" cx="21.63" cy="22.19" r="1.24"/><circle class="cls-2" cx="26.75" cy="22.19" r="1.24"/><circle class="cls-2" cx="31.88" cy="22.19" r="1.24"/><path class="cls-2" d="M178.88,62.21a2,2,0,1,1,2-2A2,2,0,0,1,178.88,62.21Zm0-3.74a1.71,1.71,0,1,0,1.7,1.72v0a1.7,1.7,0,0,0-1.7-1.7Z"/><path class="cls-2" d="M178.88,69.88a2,2,0,1,1,2-2A2,2,0,0,1,178.88,69.88Zm0-3.74a1.71,1.71,0,1,0,1.7,1.72v0A1.7,1.7,0,0,0,178.88,66.14Z"/><path class="cls-2" d="M178.88,77.55a2,2,0,1,1,2-2A2,2,0,0,1,178.88,77.55Zm0-3.74a1.71,1.71,0,1,0,1.7,1.72v0A1.7,1.7,0,0,0,178.88,73.81Z"/><rect class="cls-2" x="17.8" y="165.09" width="0.46" height="18.99"/><rect class="cls-2" x="120.74" y="21.24" width="21.92" height="0.46"/></g></g></svg>