<svg xmlns="http://www.w3.org/2000/svg" xmlns:xlink="http://www.w3.org/1999/xlink" viewBox="0 0 99.93 92.71"><defs><style>.cls-1{fill:url(#linear-gradient);}.cls-2{fill:url(#linear-gradient-2);}.cls-3{fill:#0b84ce;}.cls-4{fill:#041742;}.cls-5{fill:url(#linear-gradient-3);}.cls-6{fill:url(#linear-gradient-4);}.cls-7{fill:#8df;}</style><linearGradient id="linear-gradient" x1="14.39" y1="77.13" x2="88.92" y2="48.66" gradientUnits="userSpaceOnUse"><stop offset="0" stop-color="#0e9de5"/><stop offset="1" stop-color="#26db8d"/></linearGradient><linearGradient id="linear-gradient-2" x1="2346.85" y1="58.8" x2="2414.88" y2="58.8" gradientTransform="matrix(-1, 0, 0, 1, 2430.83, 0)" gradientUnits="userSpaceOnUse"><stop offset="0" stop-color="#0e9de5"/><stop offset="1" stop-color="#39bdff"/></linearGradient><linearGradient id="linear-gradient-3" x1="39.17" y1="41.64" x2="60.75" y2="41.64" xlink:href="#linear-gradient"/><linearGradient id="linear-gradient-4" x1="2355.34" y1="24.26" x2="2406.39" y2="24.26" xlink:href="#linear-gradient-2"/></defs><title>Asset 38</title><g id="Layer_2" data-name="Layer 2"><g id="Layer_1-2" data-name="Layer 1"><path class="cls-1" d="M99.56,62.8l-3.4-2a2.89,2.89,0,0,0-2.9,0l-3.4,2,0,0H80.18l-14-8.2L84.35,44l.36.21a1.79,1.79,0,0,0,1.84,0l2.15-1.26a.47.47,0,0,0,0-.81l-2.15-1.26a1.83,1.83,0,0,0-1.84,0l-2.15,1.26a.47.47,0,0,0,0,.81l.59.35L65,53.93l-15-8.8-15,8.8-18-10.54.41-.24a.47.47,0,0,0,0-.81l-2.15-1.26a1.83,1.83,0,0,0-1.84,0L11.2,42.34a.47.47,0,0,0,0,.81l2.15,1.26a1.83,1.83,0,0,0,1.84,0l.54-.32,18,10.55-14,8.19H10.11l0,0-3.39-2a2.91,2.91,0,0,0-2.91,0l-3.39,2a.74.74,0,0,0,0,1.28l3.39,2a2.86,2.86,0,0,0,2.91,0l3.39-2,0,0h9.63l14,8.19L15.55,82.89l-.36-.21a1.83,1.83,0,0,0-1.84,0L11.2,83.94a.48.48,0,0,0,0,.82L13.35,86a1.79,1.79,0,0,0,1.84,0l2.15-1.25a.48.48,0,0,0,0-.82l-.59-.34L34.94,73l14.63,8.57v5.21a3,3,0,0,0-.84.32l-3.4,2a.75.75,0,0,0,0,1.29l3.4,2a2.84,2.84,0,0,0,2.9,0l3.4-2A.75.75,0,0,0,55,89l-3.4-2a2.86,2.86,0,0,0-.84-.32V81.27L65,73,83.15,83.6l-.59.34a.48.48,0,0,0,0,.82L84.71,86a1.79,1.79,0,0,0,1.84,0l2.15-1.25a.48.48,0,0,0,0-.82l-2.15-1.26a1.83,1.83,0,0,0-1.84,0l-.36.21L66.19,72.25l14-8.2h9.64l0,0,3.4,2a2.84,2.84,0,0,0,2.9,0l3.4-2A.74.74,0,0,0,99.56,62.8Zm-21.78,0H52.2L65,55.34ZM50,46.54l13.82,8.09L50,62.74l-13.82-8.1Zm-15,8.8,12.79,7.49H22.15ZM22.15,64.05H47.73L34.94,71.54Zm14,8.19,13.43-7.87V80.12Zm14.65,7.62V64.63l13,7.62ZM65,71.54,52.2,64.05H77.78Z"/><path class="cls-2" d="M84,35.5V62.37a4.81,4.81,0,0,1-2.4,4.19l-22.14,13a18.75,18.75,0,0,1-19,0l-22.14-13a4.81,4.81,0,0,1-2.4-4.18V35.5Z"/><path class="cls-3" d="M59.44,18.34l22.14,13a4.86,4.86,0,0,1,0,8.38l-22.14,13a18.8,18.8,0,0,1-19,0l-22.14-13a4.86,4.86,0,0,1,0-8.38l22.14-13A18.75,18.75,0,0,1,59.44,18.34Z"/><path class="cls-4" d="M55.17,26.08,67.32,33.2a2.67,2.67,0,0,1,0,4.6L55.17,44.92a10.31,10.31,0,0,1-10.41,0L32.61,37.8a2.66,2.66,0,0,1,0-4.6l12.15-7.12A10.31,10.31,0,0,1,55.17,26.08Z"/><path class="cls-4" d="M55.17,38.37l5.58,3.27,6.57-3.84a2.67,2.67,0,0,0,0-4.6L55.17,26.08a10.31,10.31,0,0,0-10.41,0L32.61,33.2a2.66,2.66,0,0,0,0,4.6l6.56,3.84,5.59-3.27A10.31,10.31,0,0,1,55.17,38.37Z"/><path class="cls-5" d="M55.17,44.92l5.58-3.28-5.58-3.27a10.31,10.31,0,0,0-10.41,0l-5.59,3.27,5.59,3.28A10.31,10.31,0,0,0,55.17,44.92Z"/><path class="cls-6" d="M75.48,14.8v4.11a3.6,3.6,0,0,1-1.8,3.14L57.07,31.78a14,14,0,0,1-14.22,0L26.24,22.05a3.6,3.6,0,0,1-1.8-3.14V14.8Z"/><path class="cls-7" d="M57.07,1.93l16.61,9.73a3.64,3.64,0,0,1,0,6.28L57.07,27.67a14.08,14.08,0,0,1-14.22,0L26.24,17.94a3.64,3.64,0,0,1,0-6.28L42.85,1.93A14.08,14.08,0,0,1,57.07,1.93Z"/></g></g></svg>