<svg xmlns="http://www.w3.org/2000/svg" viewBox="0 0 100 92.78"><defs><style>.cls-1{fill:#103468;}.cls-2{fill:#123d70;}.cls-3{fill:#3e6993;}.cls-4{fill:#041742;}</style></defs><title>Asset 47</title><g id="Layer_2" data-name="Layer 2"><g id="Layer_1-2" data-name="Layer 1"><path class="cls-1" d="M99.63,62.85l-3.39-2a2.86,2.86,0,0,0-2.91,0l-3.4,2,0,0H80.24l-14-8.21L84.41,44l.36.21a1.83,1.83,0,0,0,1.84,0L88.77,43a.48.48,0,0,0,0-.82l-2.16-1.26a1.83,1.83,0,0,0-1.84,0l-2.15,1.26a.48.48,0,0,0,0,.82l.59.34L65,54,50,45.16,35,54,17,43.42l.4-.24a.46.46,0,0,0,0-.81L15.2,41.11a1.83,1.83,0,0,0-1.84,0l-2.15,1.26a.47.47,0,0,0,0,.81l2.15,1.26a1.79,1.79,0,0,0,1.84,0l.55-.31,18,10.55-14,8.2H10.11l0,0-3.4-2a2.86,2.86,0,0,0-2.91,0l-3.39,2a.74.74,0,0,0,0,1.28l3.39,2a2.86,2.86,0,0,0,2.91,0l3.4-2,0,0h9.65l14,8.2L15.56,83l-.36-.22a1.83,1.83,0,0,0-1.84,0L11.21,84a.48.48,0,0,0,0,.82l2.15,1.26a1.83,1.83,0,0,0,1.84,0l2.15-1.26a.47.47,0,0,0,0-.82l-.58-.34L35,73l14.65,8.58v5.21a3.06,3.06,0,0,0-.85.33l-3.39,2a.74.74,0,0,0,0,1.28l3.39,2a2.86,2.86,0,0,0,2.91,0l3.4-2a.74.74,0,0,0,0-1.28l-3.4-2a2.88,2.88,0,0,0-.84-.33V81.33L65,73,83.21,83.66l-.59.34a.48.48,0,0,0,0,.82l2.15,1.26a1.83,1.83,0,0,0,1.84,0l2.16-1.26a.48.48,0,0,0,0-.82l-2.16-1.26a1.83,1.83,0,0,0-1.84,0l-.36.22L66.23,72.3l14-8.2h9.65l0,0,3.4,2a2.86,2.86,0,0,0,2.91,0l3.39-2A.74.74,0,0,0,99.63,62.85Zm-21.79,0H52.24L65,55.38ZM50,46.57l13.83,8.1L50,62.78l-13.84-8.1ZM35,55.38l12.8,7.5H22.16ZM22.16,64.1h25.6L35,71.59Zm14,8.2,13.45-7.88V80.18Zm14.67,7.62V64.68l13,7.62ZM65,71.6,52.24,64.1h25.6Z"/><path class="cls-2" d="M84,35.53V62.42a4.81,4.81,0,0,1-2.4,4.19l-22.15,13a18.79,18.79,0,0,1-19,0l-22.15-13A4.81,4.81,0,0,1,16,62.42V35.53Z"/><path class="cls-3" d="M59.49,18.36l22.15,13a4.86,4.86,0,0,1,0,8.38l-22.15,13a18.74,18.74,0,0,1-19,0l-22.15-13a4.86,4.86,0,0,1,0-8.38l22.15-13A18.79,18.79,0,0,1,59.49,18.36Z"/><path class="cls-4" d="M55.21,26.1l12.16,7.13a2.66,2.66,0,0,1,0,4.6L55.21,45a10.33,10.33,0,0,1-10.42,0L32.63,37.83a2.66,2.66,0,0,1,0-4.6L44.79,26.1A10.33,10.33,0,0,1,55.21,26.1Z"/><path class="cls-4" d="M55.21,38.4l5.59,3.27,6.57-3.84a2.66,2.66,0,0,0,0-4.6L55.21,26.1a10.33,10.33,0,0,0-10.42,0L32.63,33.23a2.66,2.66,0,0,0,0,4.6l6.57,3.84,5.59-3.27A10.28,10.28,0,0,1,55.21,38.4Z"/><path class="cls-1" d="M55.21,45l5.59-3.28L55.21,38.4a10.28,10.28,0,0,0-10.42,0L39.2,41.67,44.79,45A10.33,10.33,0,0,0,55.21,45Z"/><path class="cls-2" d="M75.54,14.81v4.12a3.6,3.6,0,0,1-1.8,3.14L57.12,31.81a14.11,14.11,0,0,1-14.24,0L26.26,22.07a3.6,3.6,0,0,1-1.8-3.14V14.81Z"/><path class="cls-3" d="M57.12,1.93l16.62,9.74a3.64,3.64,0,0,1,0,6.28L57.12,27.69a14.07,14.07,0,0,1-14.24,0L26.26,18a3.64,3.64,0,0,1,0-6.28L42.88,1.93A14.11,14.11,0,0,1,57.12,1.93Z"/></g></g></svg>