<svg xmlns="http://www.w3.org/2000/svg" xmlns:xlink="http://www.w3.org/1999/xlink" viewBox="0 0 236.68 110.17"><defs><style>.cls-1{fill:none;}.cls-2{fill:#f5f6fa;}.cls-3{fill:#0e9de5;}.cls-4{clip-path:url(#clip-path);}.cls-5{fill:#041742;}.cls-6{fill:#fff;}.cls-7{clip-path:url(#clip-path-2);}.cls-8{fill:#ccc;}.cls-9{fill:#9ee7ff;}.cls-10{fill:#d2dbeb;}</style><clipPath id="clip-path"><circle class="cls-1" cx="14.68" cy="55.37" r="14.68"/></clipPath><clipPath id="clip-path-2"><rect class="cls-1" x="14.68" y="1.37" width="222" height="108"/></clipPath></defs><title>attacks</title><g id="Layer_2" data-name="Layer 2"><g id="Layer_1-2" data-name="Layer 1"><rect class="cls-2" x="14.68" y="1.37" width="222" height="108"/><circle class="cls-3" cx="14.68" cy="55.37" r="14.68"/><g class="cls-4"><polygon class="cls-5" points="11.13 59.83 23.94 72.64 30.66 60.37 18.3 48.01 12.27 51.18 11.13 59.83"/></g><path class="cls-6" d="M18.3,50.35a8.36,8.36,0,0,0-1.18,0c-2.7.2-3.9,1.6-4.24,3.1h.06a3.76,3.76,0,0,1,2.76-1,4,4,0,0,1,4,4.24,4.65,4.65,0,0,1-4.78,4.7c-3.48,0-5.18-2.58-5.18-5.68a7.8,7.8,0,0,1,2.32-5.8,7.72,7.72,0,0,1,5-1.9,6.4,6.4,0,0,1,1.22,0Zm-3.4,8.82c1.06,0,1.74-1,1.74-2.3a2,2,0,0,0-1.94-2.24,2,2,0,0,0-1.78,1.14,1.6,1.6,0,0,0-.14.78c.06,1.38.72,2.62,2.1,2.62Z"/><g class="cls-7"><path class="cls-8" d="M92.38,0A29.42,29.42,0,0,0,89,13.5s1.38,15.65,3,33.93,20.91,33.64,33.65,33.64,31.84-15,33.64-33.64,3-33.93,3-33.93A29.42,29.42,0,0,0,159,0Z"/><path class="cls-8" d="M165.31,24.36a7.79,7.79,0,0,0-4.94-.21C159.48,29,158.82,37,158.48,41c2.8.21,7.69-3.32,8.93-6.5C168.71,31.08,167.94,25.5,165.31,24.36Z"/><path class="cls-8" d="M86,24.36A7.79,7.79,0,0,1,91,24.15C91.87,29,92.53,37,92.87,41c-2.8.21-7.69-3.32-8.92-6.5C82.64,31.08,83.41,25.5,86,24.36Z"/><path class="cls-6" d="M91,24.15s17.53-1.7,34.7,3.36c15.65-5.06,34.69-3.36,34.69-3.36l-1.1,8.25s-11.41,23.5-33.59,4.88c-22.24,18.13-33.6-4.88-33.6-4.88Z"/><path class="cls-8" d="M97.79,28.89c-3,2,4,10.31,10.35,11.27s12.94-5.09,12.94-7.53S100.78,26.86,97.79,28.89Z"/><path class="cls-8" d="M152.87,28.89c3,2-4,10.31-10.35,11.27s-12.94-5.09-12.94-7.53S149.89,26.86,152.87,28.89Z"/><path class="cls-9" d="M164.41,12.47A51.84,51.84,0,0,0,161.76,0H89.6A51.31,51.31,0,0,0,87,12.47c-6.4,2.86-3,8.84,0,8.84s20.53-4.42,38.73-4.42,35.76,4.42,38.73,4.42S170.81,15.33,164.41,12.47Z"/><path class="cls-10" d="M56.82,110.17H194.53l17.89-59.75a3.19,3.19,0,0,0-3.06-4.11H42a3.19,3.19,0,0,0-3.06,4.11Z"/><path class="cls-6" d="M125.68,67h0a13.3,13.3,0,0,0-12.12,18.77l1.85,4.09v.55a2.81,2.81,0,0,0,2.81,2.81h1.34A1.73,1.73,0,0,1,121.3,95h0A1.74,1.74,0,0,0,123,96.71h5.28A1.74,1.74,0,0,0,130.06,95a1.74,1.74,0,0,1,1.74-1.76h1.34A2.81,2.81,0,0,0,136,90.39v-.55l1.84-4.09A13.29,13.29,0,0,0,125.68,67ZM120.3,89.2A3.68,3.68,0,1,1,124,85.53,3.67,3.67,0,0,1,120.3,89.2Zm6.2,3.7-.82-.4-.82.4a.73.73,0,0,1-1-1l1.78-2.68,1.77,2.68A.73.73,0,0,1,126.5,92.9Zm4.55-3.7a3.68,3.68,0,1,1,3.68-3.67A3.67,3.67,0,0,1,131.05,89.2Z"/></g></g></g></svg>