<svg xmlns="http://www.w3.org/2000/svg" xmlns:xlink="http://www.w3.org/1999/xlink" viewBox="0 0 236.63 108"><defs><style>.cls-1{fill:none;}.cls-2{fill:#f5f6fa;}.cls-3{fill:#0e9de5;}.cls-4{clip-path:url(#clip-path);}.cls-5{fill:#041742;}.cls-6{fill:#fff;}.cls-7{fill:#9ee7ff;}.cls-8{fill:#6ef9b7;}.cls-9{fill:#26db8d;}</style><clipPath id="clip-path"><circle class="cls-1" cx="14.68" cy="54" r="14.68"/></clipPath></defs><title>Hash</title><g id="Layer_2" data-name="Layer 2"><g id="Layer_1-2" data-name="Layer 1"><rect class="cls-2" x="14.63" width="222" height="108"/><circle class="cls-3" cx="14.68" cy="54" r="14.68"/><g class="cls-4"><polygon class="cls-5" points="11.09 50.1 15.84 54.86 10.06 59.83 21.99 71.75 21.91 70.45 29.84 59.75 17.95 47.86 10.91 47.86 11.09 50.1"/></g><path class="cls-6" d="M10.07,59.83V58l1.66-1.5c2.86-2.56,4.24-4,4.26-5.54,0-1.06-.62-1.9-2.12-1.9a4.86,4.86,0,0,0-2.79,1.06l-.86-2.16a7.19,7.19,0,0,1,4.25-1.34c3,0,4.56,1.72,4.56,4.08,0,2.18-1.56,3.92-3.46,5.6l-1.2,1v0h4.92v2.51Z"/><circle class="cls-6" cx="125.63" cy="54" r="46.3"/><path class="cls-7" d="M202.6,37.85l5.32-1.25-2.63-11.24L200,26.61A31.48,31.48,0,0,0,192.31,16l2.88-4.65-9.82-6.09-2.88,4.66a31.25,31.25,0,0,0-10.1-2.13c-.9,0-1.82,0-2.74,0h-.11L168.3,2.41,157.06,5.05l1.24,5.33A31.85,31.85,0,0,0,155.16,12,31,31,0,0,0,147.64,18L143,15.16,136.91,25l4.64,2.88a31.74,31.74,0,0,0-2.12,13l-5.32,1.25,2.63,11.24L142.07,52a31.37,31.37,0,0,0,7.66,10.66l-2.89,4.65,9.81,6.08,2.89-4.65a31.22,31.22,0,0,0,13,2.12l1.25,5.33L185,73.6l-1.25-5.33a30.94,30.94,0,0,0,3.15-1.59,31.62,31.62,0,0,0,7.51-6.06L199,63.5l6.08-9.81-4.64-2.89A31.5,31.5,0,0,0,202.6,37.85ZM171,58.42a19.1,19.1,0,1,1,19.09-19.1A19.1,19.1,0,0,1,171,58.42Z"/><path class="cls-8" d="M130.48,77.31l3.63-.85-1.8-7.66-3.62.85a21.55,21.55,0,0,0-5.22-7.26l2-3.17-6.68-4.14-2,3.17a21.29,21.29,0,0,0-6.88-1.45c-.62,0-1.24,0-1.87,0H108l-.85-3.63L99.46,55l.85,3.63a23.8,23.8,0,0,0-2.14,1.08,21.65,21.65,0,0,0-5.12,4.13l-3.17-2-4.14,6.68,3.17,2a21.52,21.52,0,0,0-1.45,8.83l-3.62.85,1.79,7.65L89.26,87a21.39,21.39,0,0,0,5.21,7.26l-2,3.17,6.68,4.14,2-3.17A21.28,21.28,0,0,0,110,99.82l.85,3.63,7.65-1.8L117.63,98a21.47,21.47,0,0,0,2.14-1.09,21.21,21.21,0,0,0,5.12-4.13l3.17,2,4.14-6.69-3.16-2A21.46,21.46,0,0,0,130.48,77.31ZM109,91.32a13,13,0,1,1,13-13A13,13,0,0,1,109,91.32Z"/><path class="cls-9" d="M84.71,44.45l2.61-.61L86,38.34l-2.6.61a15.49,15.49,0,0,0-3.75-5.21l1.41-2.27-4.8-3-1.41,2.27a15.84,15.84,0,0,0-4.94-1c-.44,0-.89,0-1.34,0h-.06l-.6-2.61-5.5,1.29L63.05,31a17,17,0,0,0-1.54.77,15.63,15.63,0,0,0-3.68,3l-2.27-1.41-3,4.8,2.28,1.41a15.18,15.18,0,0,0-1,6.33l-2.61.62L52.5,52l2.61-.61a15.36,15.36,0,0,0,3.74,5.22l-1.41,2.27,4.8,3,1.41-2.28a15.2,15.2,0,0,0,6.34,1l.61,2.61,5.49-1.29-.61-2.61A13.06,13.06,0,0,0,77,58.55a15.15,15.15,0,0,0,3.68-3L83,57l3-4.8-2.27-1.41A15.36,15.36,0,0,0,84.71,44.45ZM69.27,54.51a9.34,9.34,0,1,1,9.34-9.34A9.34,9.34,0,0,1,69.27,54.51Z"/></g></g></svg>