<svg xmlns="http://www.w3.org/2000/svg" xmlns:xlink="http://www.w3.org/1999/xlink" viewBox="0 0 236.63 109.73"><defs><style>.cls-1{fill:none;}.cls-2{fill:#f5f6fa;}.cls-3{fill:#0e9de5;}.cls-4{clip-path:url(#clip-path);}.cls-5{fill:#041742;}.cls-6{fill:#fff;}.cls-7{clip-path:url(#clip-path-2);}.cls-8{fill:#9ee7ff;}.cls-9{fill:#6ef9b7;}.cls-10{fill:#88dbf2;}.cls-11{fill:#26db8d;}</style><clipPath id="clip-path"><circle class="cls-1" cx="14.68" cy="54.58" r="14.68"/></clipPath><clipPath id="clip-path-2"><rect class="cls-1" x="14.63" y="0.58" width="222" height="108"/></clipPath></defs><title>P2P</title><g id="Layer_2" data-name="Layer 2"><g id="Layer_1-2" data-name="Layer 1"><rect class="cls-2" x="14.63" y="0.58" width="222" height="108"/><circle class="cls-3" cx="14.68" cy="54.58" r="14.68"/><g class="cls-4"><polygon class="cls-5" points="9.59 57.3 23.32 71.04 32.06 61.23 18.23 47.4 14.68 48.44 9.59 57.3"/></g><path class="cls-6" d="M15.35,60.41v-3.1H9.58v-2l4.91-7.92h3.74V55h1.54v2.28H18.23v3.1Zm0-5.38V52.14c0-.78,0-1.58.08-2.42h-.06c-.42.84-.78,1.6-1.22,2.42L12.43,55l0,0Z"/><g class="cls-7"><polygon class="cls-8" points="64.89 82.39 98.38 109.73 103.43 109.73 67.19 80.14 37.82 19.02 101.24 0 90.11 0 35.11 16.49 34.13 18.72 64.46 81.85 64.89 82.39"/><polygon class="cls-8" points="210.9 48.42 173.18 85.99 135.54 109.73 141.54 109.73 175.03 88.6 214.27 49.59 214.3 47.35 181.43 12.79 161.33 0 155.41 0 179.25 15.13 210.9 48.42"/><polygon class="cls-8" points="137.54 29.04 138.81 0 135.61 0 134.24 31.36 136.42 32.91 180.86 15.38 179.69 12.4 137.54 29.04"/><path class="cls-8" d="M174,88.84l-56.87-6.09-1.33-2.15,18.52-49.73,2.82-.35L175.5,86.34Zm-54.48-9,51.36,5.5L136.26,34.87Z"/><path class="cls-8" d="M117.31,82.76H65.91l-1.23-2.63,39.5-46.91,2.78.64,11.9,46.9Zm-48-3.2h45.92l-10.64-41.9Z"/><polygon class="cls-8" points="100.01 0 103.57 32.18 35.94 16.47 35.21 19.58 105.05 35.8 107 34.07 103.23 0 100.01 0"/><rect class="cls-8" x="105.34" y="31.24" width="30.56" height="3.2" transform="translate(-2.53 11.33) rotate(-5.32)"/><rect class="cls-8" x="115.71" y="81.16" width="3.2" height="28.58"/><circle class="cls-9" cx="135.83" cy="31.43" r="10.09"/><path class="cls-6" d="M135.83,42.54a11.11,11.11,0,1,1,11.11-11.11A11.12,11.12,0,0,1,135.83,42.54Zm0-20.18a9.07,9.07,0,1,0,9.07,9.07A9.07,9.07,0,0,0,135.83,22.36Z"/><path class="cls-10" d="M180.27,3.8a10.09,10.09,0,1,0,10.09,10.09A10.11,10.11,0,0,0,180.27,3.8Z"/><path class="cls-6" d="M180.27,25a11.11,11.11,0,1,1,11.11-11.11A11.13,11.13,0,0,1,180.27,25Zm0-20.18a9.07,9.07,0,1,0,9.07,9.07A9.08,9.08,0,0,0,180.27,4.82Z"/><path class="cls-10" d="M115.49,34.25a10.09,10.09,0,1,0-10.08,10.09A10.1,10.1,0,0,0,115.49,34.25Z"/><path class="cls-6" d="M105.41,45.36a11.11,11.11,0,1,1,11.1-11.11A11.12,11.12,0,0,1,105.41,45.36Zm0-20.18a9.07,9.07,0,1,0,9.06,9.07A9.08,9.08,0,0,0,105.41,25.18Z"/><path class="cls-11" d="M35.57,7.94A10.09,10.09,0,1,0,45.66,18,10.09,10.09,0,0,0,35.57,7.94Z"/><path class="cls-6" d="M35.57,29.13A11.11,11.11,0,1,1,46.68,18,11.12,11.12,0,0,1,35.57,29.13ZM35.57,9A9.07,9.07,0,1,0,44.64,18,9.06,9.06,0,0,0,35.57,9Z"/><circle class="cls-10" cx="65.91" cy="81.16" r="10.09"/><path class="cls-6" d="M65.91,92.26A11.11,11.11,0,1,1,77,81.16,11.12,11.12,0,0,1,65.91,92.26Zm0-20.17A9.07,9.07,0,1,0,75,81.16,9.08,9.08,0,0,0,65.91,72.09Z"/><path class="cls-11" d="M117.31,70.9A10.09,10.09,0,1,0,127.4,81,10.11,10.11,0,0,0,117.31,70.9Z"/><path class="cls-6" d="M117.31,92.1A11.11,11.11,0,1,1,128.42,81,11.12,11.12,0,0,1,117.31,92.1Zm0-20.18A9.07,9.07,0,1,0,126.38,81,9.08,9.08,0,0,0,117.31,71.92Z"/><path class="cls-9" d="M174.18,77.16a10.09,10.09,0,1,0,10.09,10.09A10.1,10.1,0,0,0,174.18,77.16Z"/><path class="cls-6" d="M174.18,98.36a11.11,11.11,0,1,1,11.11-11.11A11.13,11.13,0,0,1,174.18,98.36Zm0-20.18a9.07,9.07,0,1,0,9.07,9.07A9.08,9.08,0,0,0,174.18,78.18Z"/><circle class="cls-11" cx="213.14" cy="48.45" r="10.09"/><path class="cls-6" d="M213.14,59.56a11.11,11.11,0,1,1,11.11-11.11A11.12,11.12,0,0,1,213.14,59.56Zm0-20.18a9.07,9.07,0,1,0,9.07,9.07A9.08,9.08,0,0,0,213.14,39.38Z"/><path class="cls-9" d="M91.5,0a10.11,10.11,0,0,0,9.93,8.36A10.09,10.09,0,0,0,111.36,0Z"/><path class="cls-6" d="M110.33,0a9.08,9.08,0,0,1-8.9,7.34A9.08,9.08,0,0,1,92.53,0H90.47a11.12,11.12,0,0,0,11,9.38,11.1,11.1,0,0,0,11-9.38Z"/></g></g></g></svg>