<svg xmlns="http://www.w3.org/2000/svg" xmlns:xlink="http://www.w3.org/1999/xlink" viewBox="0 0 475.75 68.63"><defs><style>.cls-1{fill:#041742;}.cls-2{fill:url(#radial-gradient);}.cls-3{fill:#244972;}.cls-4{fill:#1b2f59;}.cls-5{fill:#69ffbd;}.cls-6{fill:none;stroke:#bfcadb;stroke-linecap:round;stroke-linejoin:round;}.cls-7{fill:#bfcadb;}</style><radialGradient id="radial-gradient" cx="319.78" cy="9.04" r="36.5" gradientUnits="userSpaceOnUse"><stop offset="0.1" stop-color="#26db8d"/><stop offset="0.26" stop-color="#23d29a"/><stop offset="0.56" stop-color="#1abbbb"/><stop offset="0.89" stop-color="#0e9de5"/></radialGradient></defs><title>HZ-logos</title><g id="Layer_2" data-name="Layer 2"><g id="content"><polygon class="cls-1" points="263.51 19.17 252.42 19.17 252.42 7.28 247.07 7.28 247.07 36.1 252.42 36.1 252.42 24.11 263.51 24.11 263.51 36.1 268.87 36.1 268.87 7.28 263.51 7.28 263.51 19.17"/><path class="cls-1" d="M351.72,23.75A9.91,9.91,0,0,0,354.1,17a9.87,9.87,0,0,0-2.37-6.78,9.28,9.28,0,0,0-7.31-2.95h-8.75V36.1H341V26.69h2.43l7,9.41h6.17l-7.71-10.32A8.19,8.19,0,0,0,351.72,23.75ZM349.16,17a4.88,4.88,0,0,1-1.11,3.45,4.63,4.63,0,0,1-3.63,1.33H341V12.22h3.4a4.67,4.67,0,0,1,3.64,1.3A5,5,0,0,1,349.16,17Z"/><rect class="cls-1" x="368.4" y="7.28" width="5.35" height="28.82"/><polygon class="cls-1" points="389.33 7.28 389.33 12.63 400.11 12.63 386.79 36.1 409.65 36.1 409.65 30.75 396.34 30.75 409.65 7.28 389.33 7.28"/><polygon class="cls-1" points="422.37 36.1 440.05 36.1 440.05 31.17 427.72 31.17 427.72 23.54 437.88 23.54 437.88 18.61 427.72 18.61 427.72 12.18 440.05 12.18 440.05 7.28 422.37 7.28 422.37 36.1"/><polygon class="cls-1" points="470.36 25.34 456.81 7.28 452.89 7.28 452.89 36.1 458.24 36.1 458.24 18.01 471.86 36.1 475.75 36.1 475.75 7.28 470.36 7.28 470.36 25.34"/><path class="cls-2" d="M319.78,9.07h0l-3.55,5.5A15.78,15.78,0,0,1,295,35.78l-5.49,3.56A21.69,21.69,0,0,0,319.78,9.07Z"/><path class="cls-2" d="M302.14,32.56a10.9,10.9,0,0,0,10.71-8.92,25.11,25.11,0,0,0-5.24-.55,24.84,24.84,0,0,0-14.51,4.66A10.9,10.9,0,0,0,302.14,32.56Z"/><path class="cls-1" d="M307.51,21.11a25.81,25.81,0,0,1,5.53.59h0a10.9,10.9,0,0,0-21.79,0,10,10,0,0,0,.1,1.46h0a24,24,0,0,0-4.08,3.79,15.79,15.79,0,0,1,22-19.35L314.74,4a21.69,21.69,0,0,0-30.05,30.53,25.63,25.63,0,0,1,3.71-5.12,31.65,31.65,0,0,1,3.77-3.35A26,26,0,0,1,307.51,21.11Z"/><path class="cls-1" d="M276.19,56.62h4.56A2.38,2.38,0,0,1,283.4,59a2.08,2.08,0,0,1-1.62,2.13,2.28,2.28,0,0,1,1.8,2.28,2.44,2.44,0,0,1-2.7,2.5h-4.69Zm4.23,3.84a1.18,1.18,0,0,0,1.31-1.2,1.19,1.19,0,0,0-1.31-1.21h-2.6v2.41Zm.07,4a1.25,1.25,0,0,0,1.42-1.29,1.28,1.28,0,0,0-1.42-1.28h-2.67v2.57Z"/><path class="cls-1" d="M286.56,59.18H288v1A2.87,2.87,0,0,1,290.2,59v1.44a2.71,2.71,0,0,0-.46,0,2.32,2.32,0,0,0-1.72.89V65.9h-1.46Z"/><path class="cls-1" d="M292.6,57.16a.91.91,0,0,1,1.81,0,.91.91,0,1,1-1.81,0m.18,2h1.46V65.9h-1.46Z"/><path class="cls-1" d="M302.06,61.7c0-1-.53-1.39-1.35-1.39a2.19,2.19,0,0,0-1.72.9V65.9h-1.47V59.18H299v.92A3.15,3.15,0,0,1,301.35,59a1.94,1.94,0,0,1,2.17,2.16V65.9h-1.46Z"/><path class="cls-1" d="M307.41,66.57a2.59,2.59,0,0,0,2.13.87,1.77,1.77,0,0,0,2-1.83V64.8a2.74,2.74,0,0,1-2.16,1.12c-1.71,0-3-1.24-3-3.45s1.25-3.46,3-3.46a2.69,2.69,0,0,1,2.16,1.1v-.93H313v6.38c0,2.42-1.8,3.07-3.45,3.07a3.82,3.82,0,0,1-2.82-1Zm4.12-5.36a2.19,2.19,0,0,0-1.73-.9,2.17,2.17,0,0,0,0,4.31,2.19,2.19,0,0,0,1.73-.9Z"/><path class="cls-1" d="M316.09,57.16a.91.91,0,0,1,.91-.9.91.91,0,0,1,0,1.81.92.92,0,0,1-.91-.91m.18,2h1.46V65.9h-1.46Z"/><path class="cls-1" d="M325.56,61.7c0-1-.53-1.39-1.35-1.39a2.2,2.2,0,0,0-1.73.9V65.9H321V59.18h1.46v.92A3.17,3.17,0,0,1,324.85,59,1.94,1.94,0,0,1,327,61.17V65.9h-1.46Z"/><path class="cls-1" d="M330.9,66.57a2.6,2.6,0,0,0,2.13.87,1.77,1.77,0,0,0,2-1.83V64.8a2.74,2.74,0,0,1-2.16,1.12c-1.71,0-3-1.24-3-3.45s1.26-3.46,3-3.46a2.68,2.68,0,0,1,2.16,1.1v-.93h1.46v6.38c0,2.42-1.79,3.07-3.45,3.07a3.8,3.8,0,0,1-2.81-1ZM335,61.21a2.18,2.18,0,0,0-1.73-.9,2.17,2.17,0,0,0,0,4.31,2.18,2.18,0,0,0,1.73-.9Z"/><path class="cls-1" d="M344.73,68.47V59.18h1.47v.92A2.68,2.68,0,0,1,348.35,59c1.74,0,3,1.31,3,3.53s-1.24,3.53-3,3.53A2.61,2.61,0,0,1,346.2,65v3.5Zm3.19-8.16a2.17,2.17,0,0,0-1.72.9v2.66a2.21,2.21,0,0,0,1.72.91,2.27,2.27,0,0,0,0-4.47"/><path class="cls-1" d="M354.2,59.18h1.46v1A2.87,2.87,0,0,1,357.84,59v1.44a2.68,2.68,0,0,0-.45,0,2.32,2.32,0,0,0-1.73.89V65.9H354.2Z"/><path class="cls-1" d="M360.24,57.16a.91.91,0,1,1,.9.91.91.91,0,0,1-.9-.91m.18,2h1.46V65.9h-1.46Z"/><polygon class="cls-1" points="364.19 59.18 365.75 59.18 367.71 64.22 369.68 59.18 371.25 59.18 368.51 65.9 366.93 65.9 364.19 59.18"/><path class="cls-1" d="M377.66,65.18a2.84,2.84,0,0,1-2.17.89,2.24,2.24,0,0,1-2.34-2.23,2.16,2.16,0,0,1,2.34-2.18,2.76,2.76,0,0,1,2.17.86v-1c0-.78-.64-1.25-1.57-1.25a2.73,2.73,0,0,0-2,.85l-.6-1A4,4,0,0,1,376.33,59c1.49,0,2.8.63,2.8,2.44V65.9h-1.47Zm0-1.82a2,2,0,0,0-1.6-.7,1.22,1.22,0,1,0,0,2.41,2,2,0,0,0,1.6-.7Z"/><path class="cls-1" d="M385.47,59a3,3,0,0,1,2.58,1.2l-1,.89a1.8,1.8,0,0,0-1.55-.79,2.25,2.25,0,0,0,0,4.47,1.83,1.83,0,0,0,1.55-.8l1,.89a3,3,0,0,1-2.58,1.2,3.53,3.53,0,0,1,0-7.06"/><path class="cls-1" d="M391.21,67.34a.91.91,0,0,0,1-.59l.33-.76-2.76-6.81h1.56l2,5,2-5h1.57l-3.24,7.93a2.24,2.24,0,0,1-2.31,1.52,3.83,3.83,0,0,1-.82-.1l.22-1.3a1.51,1.51,0,0,0,.56.11"/><path class="cls-1" d="M404.37,64.34V60.46h-1.11V59.18h1.11V57.34h1.46v1.84h1.37v1.28h-1.37V64c0,.46.23.8.64.8a1,1,0,0,0,.66-.24l.35,1.1a2,2,0,0,1-1.38.43,1.55,1.55,0,0,1-1.73-1.73"/><path class="cls-1" d="M409.49,62.54A3.46,3.46,0,1,1,413,66.07a3.37,3.37,0,0,1-3.46-3.53m5.4,0A2,2,0,1,0,413,64.78a2,2,0,0,0,1.94-2.24"/><rect class="cls-1" x="424.25" y="56.62" width="1.46" height="9.28"/><path class="cls-1" d="M428.81,57.16a.91.91,0,0,1,.91-.9.91.91,0,0,1,0,1.81.92.92,0,0,1-.91-.91m.18,2h1.47V65.9H429Z"/><path class="cls-1" d="M434.09,60.46H433V59.18h1.12v-.37a2.08,2.08,0,0,1,2.13-2.33,2.41,2.41,0,0,1,1.17.27l-.32,1.07a1.17,1.17,0,0,0-.59-.14c-.57,0-.93.37-.93,1.13v.37h1.36v1.28h-1.36V65.9h-1.46Z"/><path class="cls-1" d="M442.41,59c2,0,3.31,1.55,3.31,3.66V63h-5.19a2,2,0,0,0,2.14,1.85,2.84,2.84,0,0,0,1.91-.73l.67,1a3.93,3.93,0,0,1-2.73,1,3.53,3.53,0,0,1-.11-7.06m-1.89,3h3.78a1.79,1.79,0,0,0-1.89-1.78A1.85,1.85,0,0,0,440.52,62"/><polygon class="cls-1" points="448.19 57.17 447.59 57.17 447.59 56.78 449.23 56.78 449.23 57.17 448.63 57.17 448.63 58.83 448.19 58.83 448.19 57.17"/><polygon class="cls-1" points="451.29 57.36 450.71 58.83 450.52 58.83 449.94 57.36 449.94 58.83 449.51 58.83 449.51 56.78 450.12 56.78 450.62 58.06 451.11 56.78 451.73 56.78 451.73 58.83 451.29 58.83 451.29 57.36"/><path class="cls-3" d="M27.69,24.72,39,18.18,27.68,11.66,16.42,18.2Z"/><path class="cls-3" d="M11.27,34.43,0,27.9V41L11.28,47.5Z"/><path class="cls-3" d="M27.64,43.91V57l11.26-6.54V37.37Z"/><path class="cls-4" d="M39,18.18,27.69,24.72V37.79L39,31.25Z"/><path class="cls-4" d="M0,27.9l11.27,6.53,11.26-6.54L11.26,21.36Z"/><path class="cls-4" d="M27.65,57V43.91L16.37,37.38V50.45Z"/><path class="cls-5" d="M16.42,18.2l11.27,6.52V37.79l-4-2.32V27.24l-7.25-4.19Z"/><path class="cls-5" d="M11.28,47.5V34.43l11.26-6.54v4.54L15.19,36.7v8.52Z"/><path class="cls-5" d="M38.9,37.37,27.64,43.91,16.37,37.38,20.55,35l7.19,4.16L34.82,35l4.08,2.37Z"/><path class="cls-4" d="M49.85,24.2H66.32v3.13L54.71,40.94h12.2v3.53H49.06V41.34L60.28,27.73H49.85Z"/><path class="cls-4" d="M73.26,35.49a7.91,7.91,0,0,0,.33,2.28,5.85,5.85,0,0,0,1,1.92A4.78,4.78,0,0,0,76.28,41a5.52,5.52,0,0,0,2.43.49,5.4,5.4,0,0,0,3.16-.84,5,5,0,0,0,1.78-2.53h4.24a8.5,8.5,0,0,1-3.29,5.12,9,9,0,0,1-2.73,1.33,11,11,0,0,1-3.16.45,10.75,10.75,0,0,1-4.23-.78A8.74,8.74,0,0,1,71.36,42a9.25,9.25,0,0,1-1.92-3.37,13.5,13.5,0,0,1-.65-4.32,12.11,12.11,0,0,1,.69-4.09,10.33,10.33,0,0,1,2-3.42,9.2,9.2,0,0,1,7.15-3.19,9.06,9.06,0,0,1,4.3,1,9.44,9.44,0,0,1,3.16,2.64,10.84,10.84,0,0,1,1.82,3.79,11.44,11.44,0,0,1,.29,4.41Zm10.43-2.94a7,7,0,0,0-.45-2,5.63,5.63,0,0,0-1-1.71,5,5,0,0,0-1.57-1.17,4.62,4.62,0,0,0-2.06-.45,5.26,5.26,0,0,0-2.13.41,4.78,4.78,0,0,0-1.65,1.14,5.66,5.66,0,0,0-1.1,1.7,6.17,6.17,0,0,0-.45,2.12Z"/><path class="cls-4" d="M92,24.2H96.2v3l.08.07A7.5,7.5,0,0,1,99,24.61a7.11,7.11,0,0,1,3.65-1,7.57,7.57,0,0,1,5.25,1.72,6.62,6.62,0,0,1,1.93,5.18V44.47H105.3V31.73a5.45,5.45,0,0,0-1-3.47,3.68,3.68,0,0,0-2.94-1.08,4.77,4.77,0,0,0-2,.41,4.33,4.33,0,0,0-1.53,1.14,5.57,5.57,0,0,0-1,1.7,6.26,6.26,0,0,0-.35,2.08v12H92Z"/><path class="cls-4" d="M129.5,30.55a5.81,5.81,0,0,0-.68-2.35,5.23,5.23,0,0,0-1.47-1.69,7,7,0,0,0-2.1-1,8.92,8.92,0,0,0-2.57-.35,7.06,7.06,0,0,0-3.34.76,7.49,7.49,0,0,0-2.43,2,9.37,9.37,0,0,0-1.49,2.9,11.22,11.22,0,0,0-.51,3.36,14.39,14.39,0,0,0,.47,3.76,8.73,8.73,0,0,0,1.45,3,6.8,6.8,0,0,0,2.44,2,7.69,7.69,0,0,0,3.41.71,7.16,7.16,0,0,0,2.61-.47,6.91,6.91,0,0,0,2.11-1.3,6.54,6.54,0,0,0,1.52-2,8,8,0,0,0,.78-2.53h1.49a9.41,9.41,0,0,1-1,3.22A8,8,0,0,1,128.33,43a8.18,8.18,0,0,1-2.59,1.47,10.06,10.06,0,0,1-7.28-.37,8.09,8.09,0,0,1-2.86-2.37A10.12,10.12,0,0,1,114,38.26a15.53,15.53,0,0,1-.53-4.06,12.78,12.78,0,0,1,.61-4,9.74,9.74,0,0,1,1.79-3.3,8.44,8.44,0,0,1,2.9-2.23,9.07,9.07,0,0,1,4-.83,11.29,11.29,0,0,1,3.08.41,8.17,8.17,0,0,1,2.55,1.24,6.5,6.5,0,0,1,1.82,2.1,7.42,7.42,0,0,1,.86,3Z"/><path class="cls-4" d="M148.45,40.47h-.08a6.56,6.56,0,0,1-1,1.71,7.57,7.57,0,0,1-1.63,1.43,7.88,7.88,0,0,1-2.18,1,9.36,9.36,0,0,1-2.66.35,7.83,7.83,0,0,1-5-1.39,5.13,5.13,0,0,1-1.77-4.29,5,5,0,0,1,2.49-4.65,7.66,7.66,0,0,1,2.39-.92,20.24,20.24,0,0,1,2.53-.39l2.32-.2a13.94,13.94,0,0,0,2.53-.37,3.24,3.24,0,0,0,1.39-.71,2.05,2.05,0,0,0,.59-1.16,10.79,10.79,0,0,0,.12-1.76,3.71,3.71,0,0,0-.32-1.53,3.43,3.43,0,0,0-1-1.26,5,5,0,0,0-1.72-.86,9.23,9.23,0,0,0-2.59-.31,6.81,6.81,0,0,0-4.38,1.33,5.28,5.28,0,0,0-1.82,4h-1.49a6.59,6.59,0,0,1,2.14-5A8.5,8.5,0,0,1,143,23.84q3.64,0,5.31,1.43A4.73,4.73,0,0,1,149.94,29V40.75c0,.29,0,.57,0,.86a3,3,0,0,0,.13.78,1.12,1.12,0,0,0,.4.57,1.19,1.19,0,0,0,.78.22,7,7,0,0,0,1.1-.12v1.26a4.91,4.91,0,0,1-1.22.15,3.71,3.71,0,0,1-1.43-.23,1.91,1.91,0,0,1-.8-.63,2.15,2.15,0,0,1-.37-.92,6,6,0,0,1-.1-1.16Zm0-7.45a2.77,2.77,0,0,1-1.67.9,20.65,20.65,0,0,1-2.49.36l-2.51.23c-.73.08-1.47.19-2.2.33a6.59,6.59,0,0,0-2,.73A4,4,0,0,0,136.17,37a4.28,4.28,0,0,0-.55,2.3A3.9,3.9,0,0,0,137,42.57a6.27,6.27,0,0,0,3.89,1.08,7.7,7.7,0,0,0,4-.92,7.17,7.17,0,0,0,2.27-2.12,6.54,6.54,0,0,0,1-2.31,10.74,10.74,0,0,0,.22-1.51Z"/><path class="cls-4" d="M155.78,37.77a6.1,6.1,0,0,0,.63,2.49,5.89,5.89,0,0,0,1.43,1.84,6,6,0,0,0,2.06,1.16,8,8,0,0,0,2.55.39,13.34,13.34,0,0,0,2.1-.18,7.2,7.2,0,0,0,2.08-.64,4.32,4.32,0,0,0,1.58-1.32,3.46,3.46,0,0,0,.63-2.14,3.13,3.13,0,0,0-1-2.54,7.11,7.11,0,0,0-2.57-1.34,25.49,25.49,0,0,0-3.33-.76,16.92,16.92,0,0,1-3.33-.89A6.69,6.69,0,0,1,156,32.18,4.43,4.43,0,0,1,155,29a4.44,4.44,0,0,1,.66-2.49,5,5,0,0,1,1.71-1.59,7.77,7.77,0,0,1,2.33-.84,13.46,13.46,0,0,1,2.59-.26,11.5,11.5,0,0,1,2.94.36,6.33,6.33,0,0,1,2.38,1.13,5.55,5.55,0,0,1,1.57,2,7,7,0,0,1,.56,2.94h-1.49a5.63,5.63,0,0,0-.45-2.35,4.2,4.2,0,0,0-1.25-1.59,5.67,5.67,0,0,0-1.9-.9,9.42,9.42,0,0,0-2.36-.29,11.2,11.2,0,0,0-2.06.19,6,6,0,0,0-1.86.67A4.06,4.06,0,0,0,157,27.22a3,3,0,0,0-.53,1.8,3,3,0,0,0,.59,2,4.09,4.09,0,0,0,1.55,1.2,10.43,10.43,0,0,0,2.15.72l2.41.55c1,.19,1.93.4,2.81.65a8,8,0,0,1,2.27,1,4.57,4.57,0,0,1,1.51,1.67,5.36,5.36,0,0,1,.55,2.58,4.66,4.66,0,0,1-.74,2.71,5.74,5.74,0,0,1-1.89,1.71,8,8,0,0,1-2.52.9,15.15,15.15,0,0,1-2.73.25,10.9,10.9,0,0,1-3.2-.45,7.39,7.39,0,0,1-2.57-1.37A6.54,6.54,0,0,1,155,40.86a7.6,7.6,0,0,1-.67-3.09Z"/><path class="cls-4" d="M175.82,16.47V28.63h.08a6.52,6.52,0,0,1,1.12-2,7.18,7.18,0,0,1,1.69-1.51,7.44,7.44,0,0,1,2.09-.94,8.66,8.66,0,0,1,2.32-.32,9.38,9.38,0,0,1,3,.43,5.93,5.93,0,0,1,2,1.14A5.49,5.49,0,0,1,189.37,27a7.37,7.37,0,0,1,.65,1.78,11.28,11.28,0,0,1,.24,1.75c0,.56,0,1,0,1.47V44.47h-1.49V31.73a18.67,18.67,0,0,0-.12-1.89,5.74,5.74,0,0,0-.69-2.17,5,5,0,0,0-1.72-1.79,6,6,0,0,0-3.2-.74,7.24,7.24,0,0,0-3.06.62,6.51,6.51,0,0,0-2.27,1.75,7.71,7.71,0,0,0-1.44,2.67,11.38,11.38,0,0,0-.49,3.39v10.9h-1.49v-28Z"/><line class="cls-6" x1="204.95" y1="34.3" x2="226.96" y2="34.3"/><polygon class="cls-7" points="231.2 34.3 225.23 36.74 226.64 34.3 225.23 31.86 231.2 34.3"/></g></g></svg>