<svg xmlns="http://www.w3.org/2000/svg" xmlns:xlink="http://www.w3.org/1999/xlink" viewBox="0 0 85.69 90.43"><defs><style>.cls-1{fill:url(#linear-gradient);}.cls-2{fill:#f6f8fb;}.cls-3{fill:#e5e9f4;}.cls-4{fill:url(#New_Gradient_Swatch_2);}.cls-5{fill:url(#linear-gradient-2);}.cls-6{fill:#fdfeff;}.cls-7{fill:#f1f2f2;}.cls-8{fill:#f3f8fe;}.cls-9{fill:url(#linear-gradient-3);}.cls-10{fill:#4cdfdd;}.cls-11{fill:#fff;}.cls-12{fill:#122e60;}.cls-13{fill:url(#New_Gradient_Swatch_3);}.cls-14{fill:#231f20;opacity:0.3;}.cls-15{fill:url(#New_Gradient_Swatch_3-2);}.cls-16{fill:#cccee0;}.cls-17{fill:url(#New_Gradient_Swatch_3-3);}.cls-18{fill:#041742;}</style><linearGradient id="linear-gradient" x1="34.51" y1="53.8" x2="51.12" y2="76.28" gradientUnits="userSpaceOnUse"><stop offset="0" stop-color="#d3daed"/><stop offset="0.08" stop-color="#d6dcee" stop-opacity="0.91"/><stop offset="0.54" stop-color="#e5e9f4" stop-opacity="0.43"/><stop offset="0.85" stop-color="#eef1f8" stop-opacity="0.12"/><stop offset="1" stop-color="#f2f4fa" stop-opacity="0"/></linearGradient><linearGradient id="New_Gradient_Swatch_2" x1="1.36" y1="38.77" x2="58.19" y2="38.77" gradientUnits="userSpaceOnUse"><stop offset="0" stop-color="#0e9de5"/><stop offset="1" stop-color="#26db8d"/></linearGradient><linearGradient id="linear-gradient-2" x1="6.91" y1="74.14" x2="7.2" y2="44.27" gradientUnits="userSpaceOnUse"><stop offset="0" stop-color="#f2f4fa"/><stop offset="0.92" stop-color="#d6dcee"/><stop offset="1" stop-color="#d3daed"/></linearGradient><linearGradient id="linear-gradient-3" x1="17.58" y1="79.49" x2="17.29" y2="46.78" xlink:href="#linear-gradient-2"/><linearGradient id="New_Gradient_Swatch_3" x1="54.15" y1="45.92" x2="57.77" y2="47.67" gradientUnits="userSpaceOnUse"><stop offset="0" stop-color="#0e9de5"/><stop offset="1" stop-color="#4cdfdd"/></linearGradient><linearGradient id="New_Gradient_Swatch_3-2" x1="49.47" y1="52.06" x2="54.31" y2="37.9" xlink:href="#New_Gradient_Swatch_3"/><linearGradient id="New_Gradient_Swatch_3-3" x1="43.31" y1="43.47" x2="50.35" y2="41.59" xlink:href="#New_Gradient_Swatch_3"/></defs><title>read</title><g id="Layer_2" data-name="Layer 2"><g id="content"><polygon class="cls-1" points="1.36 76.76 25.99 90.43 85.69 55.25 56.31 44.39 1.36 76.76"/><polygon class="cls-2" points="56.84 0 0.04 32.89 1.4 33.68 58.19 0.78 56.84 0"/><polygon class="cls-3" points="0.04 32.89 0 75.97 1.36 76.76 1.4 33.68 0.04 32.89"/><polygon class="cls-4" points="1.36 76.76 58.19 43.82 58.19 0.78 1.4 33.68 1.36 76.76"/><polygon class="cls-2" points="56.64 5.69 4.31 36 9.88 39.26 62.2 8.95 56.64 5.69"/><polygon class="cls-5" points="4.31 36 4.28 75.1 9.84 78.36 9.88 39.26 4.31 36"/><polygon class="cls-2" points="9.84 78.36 62.2 48.01 62.2 8.95 9.88 39.26 9.84 78.36"/><polygon class="cls-3" points="9.13 38.81 9.13 77.91 8.43 77.5 8.43 38.37 9.13 38.81"/><polygon class="cls-3" points="7.72 38.01 7.72 77.12 7.02 76.7 7.02 37.58 7.72 38.01"/><polygon class="cls-3" points="6.32 37.18 6.32 76.28 5.61 75.87 5.61 36.75 6.32 37.18"/><polygon class="cls-3" points="5.02 36.44 5.02 75.54 4.31 75.13 4.31 36 5.02 36.44"/><polygon class="cls-3" points="62.2 8.95 9.88 39.26 9.13 38.81 61.5 8.54 62.2 8.95"/><polygon class="cls-6" points="36.47 24.47 36.47 62.81 66.93 49.75 66.93 11.44 36.47 24.47"/><polygon class="cls-7" points="36.71 24.77 36.71 62.81 36.02 62.46 36.02 24.46 36.71 24.77"/><polygon class="cls-3" points="66.93 11.44 36.81 24.32 35.99 24.06 66.28 11.16 66.93 11.44"/><polygon class="cls-3" points="60.79 8.06 8.46 38.37 7.72 37.93 60.09 7.65 60.79 8.06"/><polygon class="cls-3" points="59.34 7.27 7.01 37.58 6.28 37.14 58.64 6.86 59.34 7.27"/><polygon class="cls-3" points="57.97 6.48 5.64 36.79 5.02 36.44 57.27 6.07 57.97 6.48"/><polygon class="cls-8" points="17.77 43.37 17.77 82.05 36.81 62.82 36.81 24.18 17.77 43.37"/><polygon class="cls-3" points="18.72 45.62 18.72 47.16 35.87 29.67 35.87 28.32 18.72 45.62"/><polygon class="cls-3" points="18.72 49.03 18.72 50.58 35.87 33.09 35.87 31.74 18.72 49.03"/><polygon class="cls-3" points="18.72 52.45 18.72 53.99 35.87 36.51 35.87 35.16 18.72 52.45"/><polygon class="cls-3" points="18.72 55.87 18.72 57.41 35.87 39.93 35.87 38.58 18.72 55.87"/><polygon class="cls-3" points="18.72 59.29 18.72 60.83 35.87 43.35 35.87 42 18.72 59.29"/><polygon class="cls-3" points="18.72 62.71 18.72 64.25 35.87 46.77 35.87 45.41 18.72 62.71"/><polygon class="cls-3" points="18.72 66.13 18.72 67.67 35.87 50.18 35.87 48.83 18.72 66.13"/><polygon class="cls-3" points="18.72 69.55 18.72 71.09 35.87 53.6 35.87 52.25 18.72 69.55"/><polygon class="cls-3" points="18.72 72.97 18.72 74.5 35.87 57.02 35.87 55.67 18.72 72.97"/><polygon class="cls-3" points="18.72 76.38 18.72 77.92 35.87 60.44 35.87 59.09 18.72 76.38"/><polygon class="cls-9" points="17.77 43.37 17.77 82.05 17.08 81.7 17.08 43.05 17.77 43.37"/><polygon class="cls-3" points="36.81 24.18 17.77 43.36 17.08 43.05 36.16 23.9 36.81 24.18"/><polygon class="cls-3" points="38.02 27.37 38.02 28.74 65.37 17.05 65.37 15.71 38.02 27.37"/><polygon class="cls-3" points="38.02 30.82 38.02 32.18 65.37 20.49 65.37 19.15 38.02 30.82"/><polygon class="cls-3" points="38.02 34.26 38.02 35.63 65.37 23.94 65.37 22.6 38.02 34.26"/><polygon class="cls-3" points="38.02 37.71 38.02 39.08 65.37 27.39 65.37 26.04 38.02 37.71"/><polygon class="cls-3" points="38.02 41.16 38.02 42.52 65.37 30.83 65.37 29.49 38.02 41.16"/><polygon class="cls-3" points="38.02 44.6 38.02 45.97 65.37 34.28 65.37 32.94 38.02 44.6"/><polygon class="cls-3" points="38.02 48.05 38.02 49.41 65.37 37.72 65.37 36.38 38.02 48.05"/><polygon class="cls-3" points="38.02 51.49 38.02 52.86 65.37 41.17 65.37 39.83 38.02 51.49"/><polygon class="cls-3" points="38.02 54.94 38.02 56.31 65.37 44.62 65.37 43.27 38.02 54.94"/><polygon class="cls-3" points="38.02 58.39 38.02 59.75 65.37 48.06 65.37 46.72 38.02 58.39"/><path class="cls-10" d="M47,74.29l.87-.44c.68-.39,2-.07,2.86.23a.8.8,0,0,0,.66,0l.74-.42.36.32,2.16-.37L54.73,76c0,.16,0,.42-.11.5l-.7.46a2.72,2.72,0,0,1-2.69,0L47,75.32A.59.59,0,0,1,47,74.29Z"/><path class="cls-11" d="M47,74.29l.87-.44c.68-.39,2-.07,2.86.23a.8.8,0,0,0,.66,0l.74-.42,1,.46,1.53-.51.08,1.64a1.53,1.53,0,0,1-.82,1.27h0a2.67,2.67,0,0,1-2.69,0L47,74.79a.25.25,0,0,1,0-.5Z"/><path class="cls-12" d="M54.69,73.66,54.33,64l.59-13.73a1.39,1.39,0,0,0-1.36-1.43c-.76,0-3.88.58-3.9,1.35l1.13,13.53v0l1.3,9.81C52.12,74.36,54.73,74.43,54.69,73.66Z"/><path class="cls-10" d="M43.25,75.61l.87-.44c.68-.39,2-.08,2.86.23a.77.77,0,0,0,.66-.06l.74-.42.36.32,2.16-.36L51,77.35c0,.16,0,.43-.1.51l-.71.46a2.69,2.69,0,0,1-2.69,0l-4.22-1.68A.59.59,0,0,1,43.25,75.61Z"/><path class="cls-11" d="M43.25,75.61l.87-.44c.68-.39,2-.08,2.86.23a.77.77,0,0,0,.66-.06l.74-.42,1,.47,1.53-.51L51,76.66a1.33,1.33,0,0,1-.82,1.13h0a2.69,2.69,0,0,1-2.69,0l-4.22-1.69a.25.25,0,0,1,0-.5Z"/><path class="cls-13" d="M53.52,52.6a1,1,0,0,0,.88-.51l1.84-3.18a7.64,7.64,0,0,0-2-9.87l-.5-.38a1,1,0,1,0-1.23,1.62l.5.38a5.59,5.59,0,0,1,1.45,7.23l-1.84,3.19A1,1,0,0,0,53,52.47,1,1,0,0,0,53.52,52.6Z"/><path class="cls-12" d="M54.82,53.79l.1-3.49-5.59-2.14.05,3.08c-.61.12-1.72.63-1.76,1.27l-.13,12.21.92,11.12c.06.73,2.54.65,2.49,0l.3-11.22.38-8.18L54.09,55A1.44,1.44,0,0,0,54.82,53.79Z"/><path class="cls-14" d="M54.4,52.09a1,1,0,0,1-1.38.38,1,1,0,0,1-.38-1.39l1.84-3.19a5.36,5.36,0,0,0,.63-1.65A18.4,18.4,0,0,0,55.28,49l.14,1.33Z"/><path class="cls-15" d="M51.08,36.09l-.28.16a6.29,6.29,0,0,0-3.14,5.44v12.8c.89.62,2.53.5,4.07,0,.18-.07.93-.37,1.11-.46a5.08,5.08,0,0,0,2.35-2l-.29-3a20,20,0,0,1-.16-3.28L55,38.46A2.62,2.62,0,0,0,51.08,36.09Z"/><path class="cls-16" d="M53.36,35.62V30H47.71v.87C47.71,34,48.43,36,53.36,35.62Z"/><path class="cls-16" d="M51.76,37.46h0a1.08,1.08,0,0,0,1.08-1.08V33.14H50.68v3.24A1.08,1.08,0,0,0,51.76,37.46Z"/><path class="cls-14" d="M47.66,44.43a.89.89,0,0,0,.57-.74l.41-3.17a1,1,0,0,1,1.14-.88c.56.07.58.65.51,1.21l0,3.1a2.92,2.92,0,0,1-2.07,2.45,3.18,3.18,0,0,1-.52.1Z"/><path class="cls-17" d="M45.1,45l-3-3.35a1,1,0,0,1,1.53-1.34l2.94,3.34a.92.92,0,0,0,1.61-.49L48.64,40a1,1,0,0,1,2,.26l-.41,3.17a2.91,2.91,0,0,1-2.07,2.45,3,3,0,0,1-.88.13A2.91,2.91,0,0,1,45.1,45Z"/><path class="cls-16" d="M44.17,40.83l-.49-.55a1,1,0,0,0-1.53,1.34l.59.67Z"/><path class="cls-16" d="M41.2,40.64a1.23,1.23,0,1,0,1.23-1.23A1.23,1.23,0,0,0,41.2,40.64Z"/><path class="cls-16" d="M41.38,38.52l1.54,1.62a.27.27,0,0,0,.39,0h0a.28.28,0,0,0,0-.38l-1.55-1.63a.28.28,0,0,0-.38,0h0A.27.27,0,0,0,41.38,38.52Z"/><path class="cls-18" d="M54.69,32.31a1.89,1.89,0,0,0-.35-.34,1.43,1.43,0,0,0,.46-1c0-.37-.39-.72-.74-.6A1.28,1.28,0,0,0,53.89,29a1.29,1.29,0,0,0-1.39-.35A1.34,1.34,0,0,0,51,27.7a.86.86,0,0,1-.39,0,1.07,1.07,0,0,1-.32-.2,1.63,1.63,0,0,0-1.38-.17A5.15,5.15,0,0,0,47.6,28c-.5-.23-1.17-.38-1.54,0a1.34,1.34,0,0,0,0,1.38,2.06,2.06,0,0,0,.86,1.06c.13.07.84.45.86.28,0,.3.34.48.64.52s.67.07.79.35-.35,1-.07,1.29c.16-.07.27-.22.43-.3a.77.77,0,0,1,.84.16,2.34,2.34,0,0,1,.49.78l.15.33c.25.54,1.69,2.39,2.46,1.75.26-.22.06-.72.32-.95a5.34,5.34,0,0,0,1-.82A1.25,1.25,0,0,0,54.69,32.31Z"/></g></g></svg>