<svg xmlns="http://www.w3.org/2000/svg" xmlns:xlink="http://www.w3.org/1999/xlink" viewBox="0 0 484.48 361.4"><defs><style>.cls-1{fill:none;}.cls-2{clip-path:url(#clip-path);}.cls-3{fill:url(#linear-gradient);}.cls-4{fill:#fff;}.cls-5{fill:#edf0f8;}.cls-6{fill:url(#linear-gradient-2);}.cls-7{fill:#0e9de5;}.cls-8{fill:url(#New_Gradient_Swatch_2);}.cls-9{fill:url(#New_Gradient_Swatch_2-2);}.cls-10{fill:url(#New_Gradient_Swatch_2-3);}.cls-11{fill:#041742;}.cls-12{fill:#4cdfdd;}.cls-13{fill:#8bfcf6;}</style><clipPath id="clip-path"><circle class="cls-1" cx="238.39" cy="174.55" r="132.84"/></clipPath><linearGradient id="linear-gradient" x1="238.39" y1="316.95" x2="238.39" y2="128.73" gradientUnits="userSpaceOnUse"><stop offset="0" stop-color="#97ffd2"/><stop offset="1" stop-color="#b0ecff"/></linearGradient><linearGradient id="linear-gradient-2" x1="240.66" y1="147.88" x2="240.66" y2="-0.73" gradientUnits="userSpaceOnUse"><stop offset="0" stop-color="#edf0f8"/><stop offset="1" stop-color="#fbfbfd"/></linearGradient><linearGradient id="New_Gradient_Swatch_2" x1="214.24" y1="133.93" x2="214.24" y2="103.71" gradientUnits="userSpaceOnUse"><stop offset="0" stop-color="#0e9de5"/><stop offset="1" stop-color="#26db8d"/></linearGradient><linearGradient id="New_Gradient_Swatch_2-2" x1="266.69" y1="133.93" x2="266.69" y2="103.71" xlink:href="#New_Gradient_Swatch_2"/><linearGradient id="New_Gradient_Swatch_2-3" x1="240.34" y1="32.64" x2="241.93" y2="1.65" xlink:href="#New_Gradient_Swatch_2"/></defs><title>rocket</title><g id="Layer_2" data-name="Layer 2"><g id="content"><g class="cls-2"><circle class="cls-3" cx="238.39" cy="174.55" r="132.84"/><circle class="cls-4" cx="89.16" cy="308.24" r="53.17"/><circle class="cls-4" cx="155.64" cy="272.79" r="53.17"/><circle class="cls-4" cx="221.12" cy="292.45" r="64.64"/><circle class="cls-4" cx="312.55" cy="272.79" r="53.17"/><circle class="cls-4" cx="394.93" cy="308.24" r="53.17"/><circle class="cls-4" cx="102.48" cy="262.09" r="23.93"/><circle class="cls-4" cx="23.93" cy="300.57" r="23.93"/><circle class="cls-4" cx="341.77" cy="231.14" r="23.93"/><circle class="cls-4" cx="232.73" cy="231.14" r="23.93"/><circle class="cls-4" cx="252.64" cy="200.13" r="14.1"/><circle class="cls-4" cx="246.64" cy="183.26" r="8.71"/><circle class="cls-4" cx="232.73" cy="205.53" r="8.71"/><circle class="cls-4" cx="215.31" cy="165.84" r="5.81"/><circle class="cls-4" cx="299.38" cy="200.13" r="8.71"/><circle class="cls-4" cx="189.84" cy="208.84" r="8.71"/><circle class="cls-4" cx="460.55" cy="295.78" r="23.93"/><circle class="cls-4" cx="436.62" cy="276.64" r="23.93"/><circle class="cls-4" cx="264.74" cy="229.45" r="23.93"/><rect class="cls-4" x="234.45" y="135.01" width="12.71" height="157.66" rx="2.51"/></g><path class="cls-5" d="M249.16,135.62h-17l0,8.29c0,1.25.83,2.51,2.48,3.46a13.34,13.34,0,0,0,12,0c1.66-1,2.49-2.21,2.49-3.46h0Z"/><path class="cls-6" d="M249.41,142.87,254.58,122a218.14,218.14,0,0,0,6.31-42.2Q261,78.42,261,77a137.18,137.18,0,0,0-14.61-66.4L241.08,0h-.84l-5.33,10.64A137.3,137.3,0,0,0,220.3,77q.06,1.38.12,2.79a218.91,218.91,0,0,0,6.31,42.2l5.18,20.84Z"/><polygon class="cls-7" points="222.73 93.1 205.14 108.3 196.58 162.24 230.72 133.93 223.92 94.29 222.73 93.1"/><polygon class="cls-8" points="223.92 94.29 206.34 109.49 196.58 162.24 231.91 135.12 223.92 94.29"/><polygon class="cls-7" points="258.21 93.1 275.79 108.3 284.36 162.24 250.22 133.93 257.02 94.29 258.21 93.1"/><polygon class="cls-9" points="257.02 94.29 274.6 109.49 284.36 162.24 249.03 135.12 257.02 94.29"/><path class="cls-10" d="M253.18,26.56a139.84,139.84,0,0,0-6.78-15.92L241.08,0h-.84l-5.33,10.64a140.14,140.14,0,0,0-6.78,15.94A46.92,46.92,0,0,0,253.18,26.56Z"/><path class="cls-11" d="M221.57,86.35c-.27-.15-.51-.32-.76-.48.07,1,.16,1.93.25,2.9,5.48,3,12.5,4.47,19.55,4.47a42.23,42.23,0,0,0,19.65-4.49c.08-1,.17-1.94.25-2.91a9.29,9.29,0,0,1-.81.51C249.16,92.41,232.05,92.41,221.57,86.35Z"/><path class="cls-11" d="M251.47,59.34a11,11,0,0,1-21.62,0,10.87,10.87,0,1,1,21.62,0Z"/><path class="cls-12" d="M249.67,59.1a9.14,9.14,0,0,1-18,0,9.06,9.06,0,1,1,18,0Z"/><path class="cls-13" d="M240.7,49.05l-9.13,9.14c0,.3,0,.6.08.91A8.64,8.64,0,0,0,234.1,64l12.67-12.67A9.15,9.15,0,0,0,240.7,49.05Z"/><path class="cls-13" d="M248.94,54.21a8.74,8.74,0,0,0-1.15-1.84L235.22,64.93A9.51,9.51,0,0,0,237.14,66Z"/><path class="cls-11" d="M251,136.41a7.92,7.92,0,0,1-2.39,2c-4.72,2.71-12.38,2.72-17.07,0a8.54,8.54,0,0,1-.89-.58l.41,1.68a20.31,20.31,0,0,0,18.15-.06,11.88,11.88,0,0,0,1.25-.85Z"/></g></g></svg>