<svg xmlns="http://www.w3.org/2000/svg" xmlns:xlink="http://www.w3.org/1999/xlink" viewBox="0 0 74.35 53.35"><defs><style>.cls-1{fill:url(#radial-gradient);}.cls-2{fill:#041742;}.cls-3{fill:#26db8d;}</style><radialGradient id="radial-gradient" cx="61.73" cy="-0.81" r="46.13" gradientUnits="userSpaceOnUse"><stop offset="0.1" stop-color="#26db8d"/><stop offset="0.26" stop-color="#23d29a"/><stop offset="0.56" stop-color="#1abbbb"/><stop offset="0.89" stop-color="#0e9de5"/></radialGradient></defs><title>superNodes</title><g id="Layer_2" data-name="Layer 2"><g id="content"><polygon class="cls-1" points="74.35 16.18 58.17 0 16.18 0 19.75 8.63 54.6 8.63 62.14 16.18 37.17 41.14 37.17 53.35 74.35 16.18"/><polygon class="cls-2" points="16.18 0 19.75 8.63 12.21 16.18 37.17 41.14 37.17 53.35 0 16.18 16.18 0"/><path class="cls-3" d="M53.15,12.13l4.05,4-20,20-20-20,4.05-4h32m.51-1.24h-33l-.36.37-4,4-.87.88.87.87,20,20,.87.87.88-.87,20-20,.87-.87-.87-.88-4-4-.36-.37Z"/><path class="cls-2" d="M41,28.62l-2.46-7a3.32,3.32,0,1,0-2.75,0l-2.46,7Z"/></g></g></svg>