<?xml version="1.0" encoding="utf-8"?>
<!-- Generator: Adobe Illustrator 23.0.1, SVG Export Plug-In . SVG Version: 6.00 Build 0)  -->
<svg version="1.1" id="Layer_1" xmlns="http://www.w3.org/2000/svg" xmlns:xlink="http://www.w3.org/1999/xlink" x="0px" y="0px"
	 viewBox="0 0 34.4 34.4" style="enable-background:new 0 0 34.4 34.4;" xml:space="preserve">
<style type="text/css">
	.st0{fill:#547bbc;}
	.st1{fill:#FFFFFF;}
</style>
<title>F-FB</title>
<g>
	<g id="footer">
		<path class="st0" d="M17.2,34.4c9.5,0,17.2-7.7,17.2-17.2S26.7,0,17.2,0S0,7.7,0,17.2c0,0,0,0,0,0C0,26.7,7.7,34.4,17.2,34.4"/>
		<path class="st1" d="M13,14.3h1.8v-1.7c-0.1-0.9,0.1-1.9,0.6-2.7C16,9,17,8.5,18.1,8.6c1.1,0,2.1,0.1,3.2,0.3l-0.5,2.6
			c-0.5-0.1-0.9-0.2-1.4-0.2c-0.7,0-1.3,0.2-1.3,0.9v2H21l-0.2,2.6h-2.7v8.9h-3.3v-8.9H13V14.3z"/>
	</g>
</g>
</svg>
