<?xml version="1.0" encoding="utf-8"?>
<!-- Generator: Adobe Illustrator 23.0.1, SVG Export Plug-In . SVG Version: 6.00 Build 0)  -->
<svg version="1.1" id="Layer_1" xmlns="http://www.w3.org/2000/svg" xmlns:xlink="http://www.w3.org/1999/xlink" x="0px" y="0px"
	 viewBox="0 0 34.4 34.4" style="enable-background:new 0 0 34.4 34.4;" xml:space="preserve">
<style type="text/css">
	.st0{fill:#1384c7;}
	.st1{fill:#FFFFFF;}
</style>
<title>F-LI</title>
<g>
	<g id="footer">
		<path class="st0" d="M17.2,34.4c9.5,0,17.2-7.7,17.2-17.2S26.7,0,17.2,0S0,7.7,0,17.2c0,0,0,0,0,0C0,26.7,7.7,34.4,17.2,34.4"/>
		<path class="st1" d="M12.4,24.4H9V13.6h3.4L12.4,24.4z M10.6,12.3L10.6,12.3c-1,0.1-1.9-0.7-2-1.7c-0.1-1,0.7-1.9,1.7-2
			c0.1,0,0.3,0,0.4,0c1-0.1,1.9,0.6,2.1,1.7s-0.6,1.9-1.7,2.1C10.9,12.3,10.8,12.3,10.6,12.3L10.6,12.3z M25.8,24.4H22v-5.6
			c0-1.5-0.6-2.4-1.9-2.4c-0.8,0-1.6,0.5-1.8,1.3c-0.1,0.3-0.1,0.6-0.1,0.9v5.8h-3.8c0,0,0.1-9.8,0-10.7h3.8v1.7
			c0.7-1.2,2-1.9,3.3-1.8c2.4,0,4.2,1.5,4.2,4.9V24.4z"/>
	</g>
</g>
</svg>
