<?xml version="1.0" encoding="utf-8"?>
<!-- Generator: Adobe Illustrator 23.0.1, SVG Export Plug-In . SVG Version: 6.00 Build 0)  -->
<svg version="1.1" id="Layer_1" xmlns="http://www.w3.org/2000/svg" xmlns:xlink="http://www.w3.org/1999/xlink" x="0px" y="0px"
	 viewBox="0 0 34.4 34.4" style="enable-background:new 0 0 34.4 34.4;" xml:space="preserve">
<style type="text/css">
	.st0{fill:#78cbef;}
	.st1{fill:#FFFFFF;}
</style>
<title>F-TW</title>
<g>
	<g id="footer">
		<path class="st0" d="M17.2,34.4c9.5,0,17.2-7.7,17.2-17.2S26.7,0,17.2,0S0,7.7,0,17.2c0,0,0,0,0,0C0,26.7,7.7,34.4,17.2,34.4"/>
		<path class="st1" d="M25.8,12.7c-0.6,0.3-1.3,0.5-2,0.6c0.7-0.5,1.3-1.2,1.5-2c-0.7,0.4-1.4,0.7-2.2,0.9c-1.4-1.4-3.6-1.4-5-0.1
			c-0.9,0.9-1.3,2.1-1,3.3c-2.8-0.1-5.5-1.5-7.3-3.7c-0.9,1.6-0.5,3.7,1.1,4.7c-0.6,0-1.1-0.1-1.6-0.4l0,0c0,1.7,1.2,3.1,2.8,3.5
			c-0.3,0.1-0.6,0.1-0.9,0.1c-0.2,0-0.4,0-0.7-0.1C11,21,12.3,22,13.8,22c-1.3,1-2.8,1.5-4.4,1.5c-0.3,0-0.6,0-0.8,0
			c4.7,3,10.9,1.6,13.9-3.1c1-1.6,1.6-3.5,1.6-5.4c0-0.2,0-0.3,0-0.5C24.7,14,25.3,13.4,25.8,12.7"/>
	</g>
</g>
</svg>
