<svg xmlns="http://www.w3.org/2000/svg" viewBox="0 0 39.8 39.8"><defs><style>.cls-1{fill:#f5f6fa;}.cls-2{fill:#d2dbeb;}</style></defs><title>Asset 42</title><g id="Layer_2" data-name="Layer 2"><g id="content"><path class="cls-1" d="M8,19.9A12,12,0,0,1,19.9,8V0A19.89,19.89,0,0,0,2.68,29.86l6.89-4A11.89,11.89,0,0,1,8,19.9Z"/><path class="cls-2" d="M19.9,0V8A11.94,11.94,0,0,1,30.25,25.85l6.9,4A19.89,19.89,0,0,0,19.9,0Z"/><path class="cls-2" d="M19.9,31.84a11.94,11.94,0,0,1-10.33-6l-6.89,4a19.89,19.89,0,0,0,34.47-.05l-6.9-4A12,12,0,0,1,19.9,31.84Z"/></g></g></svg>