<svg xmlns="http://www.w3.org/2000/svg" xmlns:xlink="http://www.w3.org/1999/xlink" viewBox="0 0 236.63 108"><defs><style>.cls-1{fill:none;}.cls-2{fill:#f5f6fa;}.cls-3{fill:#0e9de5;}.cls-4{clip-path:url(#clip-path);}.cls-5{fill:#041742;}.cls-6{fill:#fff;}.cls-7{fill:#9ee7ff;}.cls-8{fill:#88dbf2;}.cls-9{fill:#26db8d;}.cls-10{fill:#6ef9b7;}</style><clipPath id="clip-path"><circle class="cls-1" cx="14.68" cy="54" r="14.68"/></clipPath></defs><title>2FA</title><g id="Layer_2" data-name="Layer 2"><g id="Layer_1-2" data-name="Layer 1"><rect class="cls-2" x="14.63" width="222" height="108"/><circle class="cls-3" cx="14.68" cy="54" r="14.68"/><g class="cls-4"><polygon class="cls-5" points="11.09 50.1 15.84 54.86 10.06 59.83 21.99 71.75 21.91 70.45 29.84 59.75 17.95 47.86 10.91 47.86 11.09 50.1"/></g><path class="cls-6" d="M10.07,59.83V58l1.66-1.5c2.86-2.56,4.24-4,4.26-5.54,0-1.06-.62-1.9-2.12-1.9a4.86,4.86,0,0,0-2.79,1.06l-.86-2.16a7.19,7.19,0,0,1,4.25-1.34c3,0,4.56,1.72,4.56,4.08,0,2.18-1.56,3.92-3.46,5.6l-1.2,1v0h4.92v2.51Z"/><path class="cls-7" d="M186.69,0h-12.9A26.45,26.45,0,1,1,134.9,0H122a37,37,0,1,0,67.49,6.46A37.79,37.79,0,0,0,186.69,0Z"/><rect class="cls-8" x="123.94" y="16.07" width="84.14" height="75.31" rx="0.95" transform="translate(-8.48 54.06) rotate(-18.04)"/><path class="cls-6" d="M174.41,43.82A11.06,11.06,0,1,0,161.68,58l3,9.18A5.45,5.45,0,0,0,175,63.84l-3-9.18A11,11,0,0,0,174.41,43.82Z"/><path class="cls-9" d="M140.14,0H100.78a38.62,38.62,0,1,0,39.36,0ZM120.46,60.83A27.63,27.63,0,1,1,148.09,33.2,27.65,27.65,0,0,1,120.46,60.83Z"/><path class="cls-10" d="M164.39,108V34.15a.94.94,0,0,0-.94-.95h-86a.94.94,0,0,0-.94.95V108Z"/><path class="cls-6" d="M132,65.41a11.55,11.55,0,1,0-17.24,10V85.49a5.69,5.69,0,0,0,11.38,0V75.4A11.47,11.47,0,0,0,132,65.41Z"/></g></g></svg>