<svg xmlns="http://www.w3.org/2000/svg" xmlns:xlink="http://www.w3.org/1999/xlink" viewBox="0 0 170.35 287.15"><defs><style>.cls-1{fill:url(#linear-gradient);}.cls-2{fill:#f6f8fb;}.cls-3{opacity:0.51;fill:url(#radial-gradient);}.cls-4{fill:#26db8d;}.cls-5{fill:url(#linear-gradient-2);}.cls-6{fill:url(#linear-gradient-3);}.cls-7{fill:url(#linear-gradient-4);}.cls-8{fill:#041742;}.cls-9{fill:url(#linear-gradient-5);}.cls-10{fill:url(#linear-gradient-6);}.cls-11{fill:url(#linear-gradient-7);}.cls-12{fill:url(#radial-gradient-2);}</style><linearGradient id="linear-gradient" y1="255.42" x2="170.35" y2="255.42" gradientUnits="userSpaceOnUse"><stop offset="0.07" stop-color="#eff2f9"/><stop offset="0.28" stop-color="#fff"/><stop offset="1" stop-color="#e7ebf5"/></linearGradient><radialGradient id="radial-gradient" cx="45.03" cy="411.44" r="20.19" gradientTransform="translate(0 18.24) scale(1 0.5)" gradientUnits="userSpaceOnUse"><stop offset="0" stop-color="#8b8bb1"/><stop offset="0.23" stop-color="#8d8db2" stop-opacity="0.99"/><stop offset="0.38" stop-color="#9292b6" stop-opacity="0.94"/><stop offset="0.5" stop-color="#9c9cbd" stop-opacity="0.85"/><stop offset="0.61" stop-color="#aaaac6" stop-opacity="0.73"/><stop offset="0.72" stop-color="#bcbcd2" stop-opacity="0.58"/><stop offset="0.81" stop-color="#d1d1e0" stop-opacity="0.39"/><stop offset="0.9" stop-color="#ebebf1" stop-opacity="0.17"/><stop offset="0.97" stop-color="#fff" stop-opacity="0"/></radialGradient><linearGradient id="linear-gradient-2" x1="123.45" y1="-3.71" x2="13.54" y2="216.11" gradientUnits="userSpaceOnUse"><stop offset="0" stop-color="#fff"/><stop offset="1" stop-color="#c6cee9"/></linearGradient><linearGradient id="linear-gradient-3" x1="152.97" y1="-18.03" x2="82.1" y2="143.95" gradientUnits="userSpaceOnUse"><stop offset="0" stop-color="#ebe9ec"/><stop offset="1" stop-color="#c6cee9"/></linearGradient><linearGradient id="linear-gradient-4" x1="122.87" y1="47.22" x2="61.51" y2="64.09" gradientUnits="userSpaceOnUse"><stop offset="0.1" stop-color="#26db8d"/><stop offset="0.26" stop-color="#23d29a"/><stop offset="0.56" stop-color="#1abbbb"/><stop offset="0.89" stop-color="#0e9de5"/></linearGradient><linearGradient id="linear-gradient-5" x1="106.05" y1="37.7" x2="71.87" y2="38.24" xlink:href="#linear-gradient-3"/><linearGradient id="linear-gradient-6" x1="142.18" y1="7.87" x2="51.48" y2="26.17" xlink:href="#linear-gradient-4"/><linearGradient id="linear-gradient-7" x1="140.47" y1="-0.59" x2="49.78" y2="17.71" xlink:href="#linear-gradient-4"/><radialGradient id="radial-gradient-2" cx="96.58" cy="7.1" r="23.52" gradientUnits="userSpaceOnUse"><stop offset="0" stop-color="#ebe9ec"/><stop offset="0.69" stop-color="#c6cee9"/><stop offset="0.82" stop-color="#cbd2e9"/><stop offset="0.97" stop-color="#d9dceb"/><stop offset="1" stop-color="#dddfeb"/></radialGradient></defs><title>faucet</title><g id="Layer_2" data-name="Layer 2"><g id="content"><path class="cls-1" d="M170.35,223.69H0v14.15H.2c-.06.75-.2,1.48-.2,2.24,0,26,38.13,47.07,85.18,47.07s85.17-21.07,85.17-47.07c0-.76-.14-1.49-.2-2.24h.2Z"/><ellipse class="cls-2" cx="85.18" cy="225.93" rx="85.18" ry="47.07"/><ellipse class="cls-3" cx="45.03" cy="225.93" rx="20.7" ry="11.28"/><path class="cls-4" d="M44.59,179.44l-14.43,25a16.66,16.66,0,0,0,14.43,25h0a16.66,16.66,0,0,0,14.43-25Z"/><path class="cls-5" d="M49.26,165.39V115.92s.05-16.16,8.61-19.74L77.6,87.93s38.76,11.12,62.08-35.52c37.9-18.9,14.68-30,14.49-30.15a25.85,25.85,0,0,0-17.6-2.49L61.82,58.15,40,69.31a45.6,45.6,0,0,0-24.84,40.6v54.83s2.76,9.15,24,10.57C41.52,174.59,49.26,171.71,49.26,165.39Z"/><path class="cls-6" d="M74.38,164V117.71s0-6.46,7.33-9.69c26.39,8.62,58.33-19.37,60.84-30.5C150.09,73.22,163.12,65,163.12,65s12.92-10.77,2.52-30.5c-3.29-6.23-7.39-10-11.47-12.22.19.19,23.41,11.25-14.49,30.15C116.36,99.05,77.6,87.93,77.6,87.93L57.87,96.18c-8.56,3.58-8.61,19.74-8.61,19.74v49.47c0,6.32-7.74,9.2-10.09,9.92,1.79.13,3.71.2,5.78.2C71.5,175.51,74.38,164,74.38,164Z"/><path class="cls-7" d="M118.27,42.09H62.19V60l.06-13.21c0,.24-.06,13.7-.06,14,0,8.56,12.55,15.5,28,15.5s28-6.94,28-15.5c0-.25,0-.49-.07-.74h.07Z"/><ellipse class="cls-8" cx="90.23" cy="42.83" rx="28.04" ry="15.5"/><path class="cls-9" d="M110.39,25.84H70.07V38.7l0-9.51c0,.18,0,9.86,0,10,0,6.15,9,11.14,20.16,11.14s20.16-5,20.16-11.14c0-.18,0-.36,0-.53h0Z"/><ellipse class="cls-2" cx="90.23" cy="26.38" rx="20.16" ry="11.14"/><path class="cls-10" d="M96.5,9.7,144.43.14a7.25,7.25,0,0,1,8.7,7h0a7.23,7.23,0,0,1-6.89,7.23L96.56,16.93Z"/><path class="cls-11" d="M80.6,18.87,32.68,28.43a7.24,7.24,0,0,1-8.7-7h0a7.21,7.21,0,0,1,6.88-7.22l49.69-2.58Z"/><circle class="cls-12" cx="90.23" cy="14.64" r="13.93"/></g></g></svg>