<svg xmlns="http://www.w3.org/2000/svg" xmlns:xlink="http://www.w3.org/1999/xlink" viewBox="0 0 170.35 291.16"><defs><style>.cls-1{fill:none;}.cls-2{fill:url(#linear-gradient);}.cls-3{fill:#f6f8fb;}.cls-4{opacity:0.36;}.cls-5{fill:#fff;opacity:0;}.cls-6{fill:#fbfbfb;opacity:0.02;}.cls-7{fill:#f6f6f8;opacity:0.05;}.cls-8{fill:#f2f2f4;opacity:0.07;}.cls-9{fill:#ededf0;opacity:0.1;}.cls-10{fill:#e9e9ed;opacity:0.12;}.cls-11{fill:#e4e4e9;opacity:0.15;}.cls-12{fill:#e0e0e6;opacity:0.17;}.cls-13{fill:#dbdbe2;opacity:0.2;}.cls-14{fill:#d7d7de;opacity:0.22;}.cls-15{fill:#d2d2db;opacity:0.24;}.cls-16{fill:#ceced7;opacity:0.27;}.cls-17{fill:#c9c9d3;opacity:0.29;}.cls-18{fill:#c5c5d0;opacity:0.32;}.cls-19{fill:#c1c1cc;opacity:0.34;}.cls-20{fill:#bcbcc8;opacity:0.37;}.cls-21{fill:#b8b8c5;opacity:0.39;}.cls-22{fill:#b3b3c1;opacity:0.41;}.cls-23{fill:#afafbe;opacity:0.44;}.cls-24{fill:#aaaaba;opacity:0.46;}.cls-25{fill:#a6a6b6;opacity:0.49;}.cls-26{fill:#a1a1b3;opacity:0.51;}.cls-27{fill:#9d9daf;opacity:0.54;}.cls-28{fill:#9898ab;opacity:0.56;}.cls-29{fill:#9494a8;opacity:0.59;}.cls-30{fill:#8f8fa4;opacity:0.61;}.cls-31{fill:#8b8ba1;opacity:0.63;}.cls-32{fill:#86869d;opacity:0.66;}.cls-33{fill:#828299;opacity:0.68;}.cls-34{fill:#7e7e96;opacity:0.71;}.cls-35{fill:#797992;opacity:0.73;}.cls-36{fill:#75758e;opacity:0.76;}.cls-37{fill:#70708b;opacity:0.78;}.cls-38{fill:#6c6c87;opacity:0.8;}.cls-39{fill:#676783;opacity:0.83;}.cls-40{fill:#636380;opacity:0.85;}.cls-41{fill:#5e5e7c;opacity:0.88;}.cls-42{fill:#5a5a79;opacity:0.9;}.cls-43{fill:#555575;opacity:0.93;}.cls-44{fill:#515171;opacity:0.95;}.cls-45{fill:#4c4c6e;opacity:0.98;}.cls-46{fill:#48486a;}.cls-47{fill:url(#linear-gradient-2);}.cls-48{fill:url(#linear-gradient-3);}.cls-49{fill:url(#linear-gradient-4);}.cls-50{fill:url(#linear-gradient-5);}.cls-51{fill:url(#linear-gradient-6);}.cls-52{fill:url(#linear-gradient-7);}.cls-53{isolation:isolate;}.cls-54{fill:url(#linear-gradient-8);}.cls-55{fill:url(#linear-gradient-9);}.cls-56{fill:url(#linear-gradient-10);}.cls-57{clip-path:url(#clip-path);}.cls-58{fill:#5d5d5d;}.cls-59{fill:#616161;}.cls-60{fill:url(#linear-gradient-11);}.cls-61{fill:url(#linear-gradient-12);}.cls-62{fill:url(#New_Gradient_Swatch_1);}.cls-63{fill:url(#linear-gradient-13);}.cls-64{fill:url(#linear-gradient-14);}.cls-65{fill:#041742;}.cls-66{fill:url(#linear-gradient-15);}.cls-67{fill:url(#New_Gradient_Swatch_1-2);}.cls-68{fill:url(#linear-gradient-16);}</style><linearGradient id="linear-gradient" y1="259.43" x2="170.35" y2="259.43" gradientUnits="userSpaceOnUse"><stop offset="0.07" stop-color="#eff2f9"/><stop offset="0.28" stop-color="#fff"/><stop offset="1" stop-color="#e7ebf5"/></linearGradient><linearGradient id="linear-gradient-2" x1="55.57" y1="133.61" x2="55.57" y2="195.86" gradientUnits="userSpaceOnUse"><stop offset="0" stop-color="#ebe9ec"/><stop offset="1" stop-color="#c6cee9"/></linearGradient><linearGradient id="linear-gradient-3" x1="114.78" y1="104.29" x2="114.78" y2="166.54" xlink:href="#linear-gradient-2"/><linearGradient id="linear-gradient-4" x1="11.81" y1="238.93" x2="82.76" y2="184.04" xlink:href="#linear-gradient-2"/><linearGradient id="linear-gradient-5" x1="141.63" y1="222.26" x2="78.88" y2="182.1" gradientUnits="userSpaceOnUse"><stop offset="0" stop-color="#fff"/><stop offset="1" stop-color="#c6cee9"/></linearGradient><linearGradient id="linear-gradient-6" x1="115.88" y1="203.68" x2="114.38" y2="161.01" gradientUnits="userSpaceOnUse"><stop offset="0" stop-color="#b6c0e3"/><stop offset="1" stop-color="#ebe9ec" stop-opacity="0"/></linearGradient><linearGradient id="linear-gradient-7" x1="56.25" y1="205.78" x2="54.74" y2="163.11" xlink:href="#linear-gradient-6"/><linearGradient id="linear-gradient-8" x1="44.22" y1="117.19" x2="74.31" y2="117.19" gradientTransform="matrix(0.99, 0.11, -0.11, 0.99, 3.1, -16.32)" gradientUnits="userSpaceOnUse"><stop offset="0" stop-color="#c3c9e2"/><stop offset="1" stop-color="#8194c4"/></linearGradient><linearGradient id="linear-gradient-9" x1="38.43" y1="97.62" x2="58" y2="84.69" xlink:href="#linear-gradient-8"/><linearGradient id="linear-gradient-10" x1="48.09" y1="72.38" x2="63.81" y2="34.38" xlink:href="#linear-gradient-8"/><clipPath id="clip-path"><path class="cls-1" d="M43.88,65.91l15.86-4.69a47.39,47.39,0,0,1,5-1.18L48.92,64.73A47.39,47.39,0,0,0,43.88,65.91Z"/></clipPath><linearGradient id="linear-gradient-11" x1="73.53" y1="117.35" x2="113.87" y2="144.79" gradientTransform="matrix(0.99, 0.11, -0.11, 0.99, 3.1, -16.32)" gradientUnits="userSpaceOnUse"><stop offset="0" stop-color="#ebe9ec"/><stop offset="1" stop-color="#99a7d8"/></linearGradient><linearGradient id="linear-gradient-12" x1="109.31" y1="104.9" x2="110.01" y2="123.9" xlink:href="#linear-gradient-8"/><linearGradient id="New_Gradient_Swatch_1" x1="130.41" y1="74.43" x2="58.63" y2="118.53" gradientTransform="matrix(0.99, 0.11, -0.11, 0.99, 3.1, -16.32)" gradientUnits="userSpaceOnUse"><stop offset="0" stop-color="#26db8d"/><stop offset="1" stop-color="#0e9de5"/></linearGradient><linearGradient id="linear-gradient-13" x1="73.83" y1="86.15" x2="110.66" y2="110.31" xlink:href="#linear-gradient-8"/><linearGradient id="linear-gradient-14" x1="105.94" y1="87.13" x2="86.47" y2="47.72" xlink:href="#linear-gradient-11"/><linearGradient id="linear-gradient-15" x1="104.11" y1="29.92" x2="23.42" y2="34.15" xlink:href="#linear-gradient-11"/><linearGradient id="New_Gradient_Swatch_1-2" x1="145.17" y1="98.45" x2="73.39" y2="142.55" xlink:href="#New_Gradient_Swatch_1"/><linearGradient id="linear-gradient-16" x1="135.33" y1="79.98" x2="129.7" y2="150.12" xlink:href="#linear-gradient-11"/></defs><title>SbH</title><g id="Layer_2" data-name="Layer 2"><g id="content"><path class="cls-2" d="M170.35,227.7H0v14.15H.2c-.06.75-.2,1.48-.2,2.24,0,26,38.13,47.07,85.18,47.07s85.17-21.07,85.17-47.07c0-.76-.14-1.49-.2-2.24h.2Z"/><ellipse class="cls-3" cx="85.18" cy="229.94" rx="85.18" ry="47.07"/><g class="cls-4"><path class="cls-5" d="M7.93,226.29c-3.51-2-3.51-5.35,0-7.38l70-40.4a14.17,14.17,0,0,1,12.78,0l70,40.4c3.52,2,3.52,5.35,0,7.38l-70,40.39a14.17,14.17,0,0,1-12.78,0Z"/><path class="cls-6" d="M8.58,226.26c-3.49-2-3.49-5.31,0-7.32L78,178.89a14,14,0,0,1,12.68,0L160,218.94c3.49,2,3.49,5.3,0,7.32L90.63,266.31a14.09,14.09,0,0,1-12.68,0Z"/><path class="cls-7" d="M9.22,226.23c-3.45-2-3.45-5.27,0-7.26L78,179.26a13.92,13.92,0,0,1,12.57,0L159.35,219c3.46,2,3.46,5.26,0,7.26L90.57,265.94a14,14,0,0,1-12.57,0Z"/><path class="cls-8" d="M9.87,226.2c-3.43-2-3.43-5.22,0-7.2l68.19-39.37a13.81,13.81,0,0,1,12.46,0L158.71,219c3.43,2,3.43,5.22,0,7.2L90.52,265.56a13.81,13.81,0,0,1-12.46,0Z"/><path class="cls-9" d="M10.51,226.16c-3.4-2-3.4-5.17,0-7.13l67.6-39a13.73,13.73,0,0,1,12.36,0l67.6,39c3.39,2,3.39,5.17,0,7.13l-67.6,39a13.73,13.73,0,0,1-12.36,0Z"/><path class="cls-10" d="M11.15,226.13c-3.36-1.94-3.36-5.12,0-7.07l67-38.69a13.62,13.62,0,0,1,12.25,0l67,38.69c3.37,1.95,3.37,5.13,0,7.07l-67,38.69a13.56,13.56,0,0,1-12.25,0Z"/><path class="cls-11" d="M11.8,226.1c-3.34-1.93-3.34-5.08,0-7l66.42-38.34a13.45,13.45,0,0,1,12.14,0l66.42,38.34c3.34,1.93,3.34,5.08,0,7L90.36,264.45a13.45,13.45,0,0,1-12.14,0Z"/><path class="cls-12" d="M12.44,226.07c-3.31-1.91-3.31-5,0-6.95l65.83-38a13.34,13.34,0,0,1,12,0l65.83,38c3.31,1.91,3.31,5,0,6.95l-65.83,38a13.34,13.34,0,0,1-12,0Z"/><path class="cls-13" d="M13.09,226c-3.28-1.89-3.28-5,0-6.88l65.24-37.67a13.24,13.24,0,0,1,11.92,0l65.24,37.67c3.28,1.89,3.28,5,0,6.88L90.25,263.71a13.24,13.24,0,0,1-11.92,0Z"/><path class="cls-14" d="M13.73,226c-3.25-1.88-3.25-4.95,0-6.82l64.65-37.33a13.15,13.15,0,0,1,11.82,0l64.64,37.33c3.25,1.87,3.25,4.94,0,6.82L90.2,263.33a13.09,13.09,0,0,1-11.82,0Z"/><path class="cls-15" d="M14.38,226c-3.22-1.86-3.22-4.9,0-6.76l64.05-37a13,13,0,0,1,11.71,0l64.06,37c3.22,1.86,3.22,4.9,0,6.76L90.14,263a13,13,0,0,1-11.71,0Z"/><path class="cls-16" d="M15,226c-3.19-1.85-3.19-4.86,0-6.7l63.47-36.64a12.82,12.82,0,0,1,11.6,0l63.47,36.64c3.19,1.84,3.19,4.85,0,6.7L90.09,262.59a12.88,12.88,0,0,1-11.6,0Z"/><path class="cls-17" d="M15.66,225.91c-3.16-1.82-3.16-4.81,0-6.63L78.54,183A12.71,12.71,0,0,1,90,183l62.88,36.3c3.16,1.82,3.16,4.81,0,6.63L90,262.22a12.77,12.77,0,0,1-11.49,0Z"/><path class="cls-18" d="M16.31,225.88c-3.13-1.8-3.13-4.76,0-6.57l62.29-36a12.6,12.6,0,0,1,11.38,0l62.29,36c3.13,1.81,3.13,4.77,0,6.57L90,261.85a12.67,12.67,0,0,1-11.38,0Z"/><path class="cls-19" d="M17,225.85c-3.1-1.79-3.1-4.72,0-6.51l61.7-35.62a12.52,12.52,0,0,1,11.28,0l61.69,35.62c3.1,1.79,3.1,4.72,0,6.51L89.93,261.47a12.52,12.52,0,0,1-11.28,0Z"/><path class="cls-20" d="M17.6,225.82c-3.07-1.77-3.07-4.67,0-6.45l61.1-35.28a12.41,12.41,0,0,1,11.17,0L151,219.37c3.07,1.78,3.07,4.68,0,6.45L89.87,261.1a12.41,12.41,0,0,1-11.17,0Z"/><path class="cls-21" d="M18.24,225.79c-3-1.76-3-4.63,0-6.39l60.52-34.93a12.24,12.24,0,0,1,11.06,0l60.52,34.93c3,1.76,3,4.63,0,6.39L89.82,260.73a12.24,12.24,0,0,1-11.06,0Z"/><path class="cls-22" d="M18.89,225.76c-3-1.74-3-4.59,0-6.32l59.92-34.6a12.14,12.14,0,0,1,11,0l59.93,34.6c3,1.73,3,4.58,0,6.32l-59.93,34.6a12.14,12.14,0,0,1-11,0Z"/><path class="cls-23" d="M19.53,225.73c-3-1.72-3-4.54,0-6.26l59.34-34.26a12,12,0,0,1,10.84,0l59.34,34.26c3,1.72,3,4.54,0,6.26L89.71,260a12,12,0,0,1-10.84,0Z"/><path class="cls-24" d="M20.17,225.7c-3-1.71-3-4.5,0-6.2l58.75-33.92a12,12,0,0,1,10.74,0L148.4,219.5c3,1.7,3,4.49,0,6.2L89.66,259.61a11.88,11.88,0,0,1-10.74,0Z"/><path class="cls-25" d="M20.82,225.67c-2.92-1.69-2.92-4.45,0-6.14L79,186a11.84,11.84,0,0,1,10.63,0l58.16,33.58c2.92,1.69,2.92,4.45,0,6.14L89.6,259.24a11.78,11.78,0,0,1-10.63,0Z"/><path class="cls-26" d="M21.46,225.63c-2.89-1.67-2.89-4.4,0-6.07L79,186.33a11.61,11.61,0,0,1,10.52,0l57.56,33.23c2.9,1.67,2.9,4.4,0,6.07L89.55,258.87a11.67,11.67,0,0,1-10.52,0Z"/><path class="cls-27" d="M22.11,225.6c-2.87-1.65-2.87-4.36,0-6l57-32.89a11.5,11.5,0,0,1,10.41,0l57,32.89c2.86,1.65,2.86,4.36,0,6l-57,32.9a11.57,11.57,0,0,1-10.41,0Z"/><path class="cls-28" d="M22.75,225.57c-2.83-1.63-2.83-4.31,0-5.95l56.39-32.55a11.4,11.4,0,0,1,10.3,0l56.39,32.55c2.83,1.64,2.83,4.32,0,5.95L89.44,258.13a11.46,11.46,0,0,1-10.3,0Z"/><path class="cls-29" d="M23.4,225.54c-2.81-1.62-2.81-4.27,0-5.89l55.79-32.21a11.31,11.31,0,0,1,10.2,0l55.79,32.21c2.81,1.62,2.81,4.27,0,5.89L89.39,257.75a11.31,11.31,0,0,1-10.2,0Z"/><path class="cls-30" d="M24,225.51c-2.78-1.6-2.78-4.22,0-5.83l55.2-31.87a11.21,11.21,0,0,1,10.09,0l55.21,31.87c2.77,1.61,2.77,4.23,0,5.83L89.33,257.38a11.21,11.21,0,0,1-10.09,0Z"/><path class="cls-31" d="M24.68,225.48c-2.74-1.59-2.74-4.18,0-5.76L79.3,188.18a11.1,11.1,0,0,1,10,0l54.61,31.54c2.75,1.58,2.75,4.17,0,5.76L89.28,257a11.1,11.1,0,0,1-10,0Z"/><path class="cls-32" d="M25.33,225.45c-2.72-1.57-2.72-4.14,0-5.7l54-31.19a10.93,10.93,0,0,1,9.87,0l54,31.19c2.71,1.56,2.71,4.13,0,5.7l-54,31.19a11,11,0,0,1-9.88,0Z"/><path class="cls-33" d="M26,225.42c-2.68-1.55-2.68-4.09,0-5.64l53.44-30.85a10.82,10.82,0,0,1,9.76,0l53.43,30.85c2.69,1.55,2.69,4.09,0,5.64L89.17,256.27a10.82,10.82,0,0,1-9.76,0Z"/><path class="cls-34" d="M26.62,225.39c-2.66-1.54-2.66-4,0-5.58L79.46,189.3a10.74,10.74,0,0,1,9.66,0L142,219.81c2.66,1.53,2.66,4,0,5.58l-52.84,30.5a10.68,10.68,0,0,1-9.66,0Z"/><path class="cls-35" d="M27.26,225.35c-2.63-1.51-2.63-4,0-5.51l52.25-30.17a10.63,10.63,0,0,1,9.55,0l52.26,30.17c2.62,1.52,2.62,4,0,5.51L89.06,255.52a10.57,10.57,0,0,1-9.55,0Z"/><path class="cls-36" d="M27.9,225.32c-2.59-1.5-2.59-3.95,0-5.45L79.57,190A10.53,10.53,0,0,1,89,190l51.66,29.83c2.6,1.5,2.6,3.95,0,5.45L89,255.15a10.46,10.46,0,0,1-9.44,0Z"/><path class="cls-37" d="M28.55,225.29c-2.57-1.48-2.57-3.91,0-5.39l51.07-29.48a10.32,10.32,0,0,1,9.34,0L140,219.9c2.56,1.48,2.56,3.91,0,5.39L89,254.78a10.38,10.38,0,0,1-9.34,0Z"/><path class="cls-38" d="M29.19,225.26c-2.53-1.46-2.53-3.86,0-5.33l50.49-29.14a10.19,10.19,0,0,1,9.22,0l50.48,29.14c2.54,1.47,2.54,3.87,0,5.33L88.9,254.41a10.25,10.25,0,0,1-9.22,0Z"/><path class="cls-39" d="M29.84,225.23c-2.51-1.45-2.51-3.82,0-5.26l49.89-28.81a10.1,10.1,0,0,1,9.12,0L138.74,220c2.51,1.44,2.51,3.81,0,5.26L88.85,254a10.1,10.1,0,0,1-9.12,0Z"/><path class="cls-40" d="M30.48,225.2c-2.48-1.43-2.48-3.77,0-5.2l49.3-28.47a10,10,0,0,1,9,0L138.09,220c2.48,1.43,2.48,3.77,0,5.2l-49.3,28.46a10,10,0,0,1-9,0Z"/><path class="cls-41" d="M31.13,225.17c-2.45-1.42-2.45-3.73,0-5.14L79.84,191.9a9.89,9.89,0,0,1,8.9,0L137.45,220c2.45,1.41,2.45,3.72,0,5.14L88.74,253.29a9.89,9.89,0,0,1-8.9,0Z"/><path class="cls-42" d="M31.77,225.14c-2.42-1.4-2.42-3.68,0-5.08l48.12-27.78a9.74,9.74,0,0,1,8.8,0l48.12,27.78c2.41,1.4,2.41,3.68,0,5.08L88.69,252.92a9.74,9.74,0,0,1-8.8,0Z"/><path class="cls-43" d="M32.41,225.11c-2.38-1.38-2.38-3.64,0-5l47.53-27.44a9.64,9.64,0,0,1,8.69,0l47.53,27.44c2.39,1.38,2.39,3.64,0,5L88.63,252.55a9.62,9.62,0,0,1-8.68,0Z"/><path class="cls-44" d="M33.06,225.07c-2.36-1.36-2.36-3.59,0-4.95L80,193a9.53,9.53,0,0,1,8.58,0l46.94,27.1c2.36,1.36,2.36,3.59,0,4.95l-46.94,27.1a9.47,9.47,0,0,1-8.58,0Z"/><path class="cls-45" d="M33.7,225c-2.33-1.34-2.33-3.54,0-4.89l46.35-26.76a9.43,9.43,0,0,1,8.47,0l46.35,26.76c2.33,1.35,2.33,3.55,0,4.89L88.52,251.8a9.36,9.36,0,0,1-8.47,0Z"/><path class="cls-46" d="M34.35,225c-2.3-1.33-2.3-3.5,0-4.83l45.76-26.42a9.32,9.32,0,0,1,8.36,0l45.76,26.42c2.3,1.33,2.3,3.5,0,4.83L88.47,251.43a9.26,9.26,0,0,1-8.36,0Z"/></g><polygon class="cls-47" points="85.18 119.61 25.96 153.79 85.18 187.98 85.18 119.61 85.18 119.61"/><polygon class="cls-48" points="85.18 119.61 85.18 187.98 144.39 153.79 85.18 119.61"/><polygon class="cls-49" points="25.96 153.79 25.96 222.17 85.18 256.36 85.18 187.98 25.96 153.79"/><polygon class="cls-50" points="85.18 256.36 144.39 222.17 144.39 153.79 85.18 187.98 85.18 256.36"/><polygon class="cls-3" points="25.96 153.79 4.2 127.03 63.42 92.84 85.18 119.61 25.96 153.79"/><polygon class="cls-3" points="144.39 153.79 166.15 127.03 106.93 92.84 85.18 119.61 144.39 153.79"/><polygon class="cls-51" points="144.39 184.55 144.39 156.99 85.18 188.04 100.9 209.87 144.39 184.55"/><polygon class="cls-3" points="85.22 188.06 103.26 205.12 162.43 170.85 144.39 153.79 85.22 188.06"/><polygon class="cls-52" points="25.96 157.43 25.96 184.87 69.47 209.87 85.18 188.11 85.18 188.04 26 157.39 25.96 157.43"/><polygon class="cls-3" points="85.18 188.06 67.14 205.12 7.96 170.85 26 153.79 85.18 188.06"/><g class="cls-53"><polygon class="cls-54" points="33.67 109.48 49.53 104.79 64.55 103.88 48.69 108.57 33.67 109.48"/><path class="cls-55" d="M60.06,71.2,44.19,75.89a57.06,57.06,0,0,0-6.34,2.33,42.41,42.41,0,0,0-12,8.68l15.86-4.69a42.41,42.41,0,0,1,12-8.68c.11,0,.89-.39,2-.84s2.68-1,4.31-1.49h0Z"/><path class="cls-56" d="M52.81,59.69c0-1.41.11-2.81.23-4.2a.71.71,0,0,1,0-.14c.12-1.41.29-2.81.5-4.2a.43.43,0,0,0,0,0c.22-1.39.48-2.76.79-4.11.18-.76.37-1.5.57-2.23.07-.25.15-.5.22-.75.15-.52.31-1,.47-1.52.09-.26.17-.53.26-.79.18-.52.37-1,.56-1.52.08-.21.16-.44.25-.65.21-.53.44-1.05.67-1.56l.24-.55c.18-.38.37-.74.56-1.11s.31-.65.48-1,.19-.33.29-.5c.29-.52.58-1,.88-1.53l.34-.5c.35-.54.71-1.07,1.08-1.58.13-.19.27-.37.41-.55.64-.83,1.29-1.63,2-2.37l.13-.13A26.86,26.86,0,0,1,66,26.11l.32-.28a25.8,25.8,0,0,1,2.36-1.72l.47-.29a24.1,24.1,0,0,1,2.5-1.35l.41-.18a22.91,22.91,0,0,1,2.76-1L58.91,26a22.91,22.91,0,0,0-2.76,1l-.42.18a23.12,23.12,0,0,0-2.49,1.35l-.47.29a24,24,0,0,0-2.36,1.72l-.32.27a28.84,28.84,0,0,0-2.21,2.09.81.81,0,0,1-.1.09l0,0c-.69.74-1.34,1.54-2,2.37l-.22.26a2.9,2.9,0,0,0-.19.29c-.37.5-.73,1-1.08,1.58l-.27.38a.75.75,0,0,1-.07.12c-.3.49-.6,1-.88,1.53-.09.15-.19.3-.27.46l0,0c-.17.31-.32.63-.48,1s-.36.7-.53,1.06l0,.05-.24.56c-.21.46-.42.92-.61,1.39l-.06.17c-.09.21-.17.44-.25.66s-.29.74-.43,1.12c0,.12-.08.26-.13.38s-.17.54-.26.8l-.27.81c-.07.23-.13.47-.2.7s-.15.51-.22.76-.09.32-.14.49c-.15.57-.29,1.15-.43,1.74l-.06.27c-.15.64-.28,1.29-.41,1.95s-.22,1.26-.32,1.89a.43.43,0,0,1,0,.05v0q-.15,1-.27,2c-.09.69-.16,1.38-.22,2.07a.22.22,0,0,1,0,.08.76.76,0,0,1,0,.15c-.05.63-.1,1.27-.13,1.91S37,63.57,37,64.31c0,0,0,0,0,.07v.13c0,.71,0,1.41,0,2.12s0,1.44,0,2.17h0l15.86-4.69c0-1.44-.06-2.87,0-4.3C52.81,59.77,52.8,59.73,52.81,59.69Z"/><g class="cls-53"><g class="cls-57"><g class="cls-53"><path class="cls-58" d="M43.88,65.91l15.86-4.69c1-.28,2-.55,3.16-.8L47,65.1c-1.14.25-2.19.53-3.15.81"/><path class="cls-59" d="M47,65.1,62.9,60.42c.6-.14,1.22-.26,1.88-.38L48.92,64.73c-.66.12-1.28.24-1.89.37"/></g></g></g><path class="cls-60" d="M104,128.46c-.52.09-1,.17-1.57.24s-1.2.12-1.82.15l-.93,0a27.11,27.11,0,0,1-2.84-.13l-.26,0a25.38,25.38,0,0,1-2.93-.52l-.32-.06a31.44,31.44,0,0,1-3.11-.94l-.28-.1a34.7,34.7,0,0,1-3.24-1.39l-.12-.06c-1.12-.55-2.23-1.18-3.35-1.87l-.18-.12c-1.11-.7-2.21-1.46-3.32-2.3-.62-.48-1.24-1-1.84-1.5-.16-.12-.31-.25-.46-.38-.63-.54-1.26-1.11-1.87-1.69l-.39-.38q-.73-.7-1.44-1.44l-.64-.69c-.39-.42-.78-.84-1.16-1.28l-.71-.81c-.35-.41-.69-.83-1-1.26l-.78-1c-.3-.39-.6-.79-.89-1.19s-.6-.81-.89-1.22l-.77-1.12c-.34-.5-.68-1-1-1.53s-.86-1.33-1.27-2l-15.86,4.69c.32.52.63,1,1,1.55l.3.46,1,1.54c.17.24.33.5.5.75s.18.23.26.35l.9,1.23.61.84.28.35.78,1,.65.82c.12.15.25.29.38.44l.71.81c.19.22.37.44.56.65l.59.63c.22.23.43.46.65.68s.24.27.37.39c.35.36.71.71,1.07,1.06l.39.38.1.1c.52.49,1,1,1.56,1.41l.21.18c.15.13.3.26.46.38l.87.74,1,.76.57.43c.52.38,1,.74,1.54,1.09s.81.53,1.21.78l.18.12.15.1c.52.31,1,.62,1.55.9s1,.57,1.56.83l.08,0,.13,0c.45.23.91.45,1.37.65s1.09.46,1.63.66l.24.09.28.1,1.14.39c.59.19,1.18.36,1.77.5l.2,0,.31.06c.44.1.88.21,1.31.28s1.09.17,1.63.24l.25,0,.11,0c.74.08,1.48.12,2.2.14l.53,0c.32,0,.63,0,.94,0s.7,0,1,0,.52-.08.78-.12c.53-.06,1-.14,1.57-.23.26-.05.52-.07.78-.12.51-.12,1-.25,1.52-.4l15.86-4.69A22.5,22.5,0,0,1,104,128.46Z"/><path class="cls-61" d="M113.25,100.21c.17-.36.33-.72.49-1.1L97.88,103.8c-.31.75-.66,1.45-1,2.14,0,.08-.08.17-.13.25q-.51,1-1.08,1.83c-.13.21-.27.4-.41.59-.25.38-.52.74-.79,1.09s-.54.66-.82,1-.46.52-.7.77-.64.61-1,.91-.47.43-.71.62-.72.54-1.09.79-.47.34-.71.49c-.42.25-.85.47-1.28.68-.21.11-.41.23-.63.33a17.82,17.82,0,0,1-2,.75l15.86-4.69a16.06,16.06,0,0,0,2-.75c.22-.09.42-.22.63-.32.43-.22.86-.44,1.28-.69.24-.15.47-.33.71-.49s.73-.5,1.09-.79.48-.41.71-.62.66-.59,1-.91l.27-.26c.15-.16.28-.34.43-.51s.56-.64.82-1c.1-.13.2-.23.3-.36s.33-.48.49-.72.28-.39.41-.59l.18-.26c.29-.47.57-1,.85-1.46l0-.12c.05-.08.09-.17.13-.25C112.91,100.91,113.09,100.57,113.25,100.21Z"/><path class="cls-62" d="M86.25,93a87.31,87.31,0,0,1,11.63,10.8c-5.62,13.4-18.43,17-30.67,7.66-8.62-6.58-14.91-18-17.41-30C61.18,79.88,73.84,83.53,86.25,93Z"/><path class="cls-63" d="M91.58,97.48l.86.78c.77.72,1.53,1.47,2.28,2.23l.43.41c.92.95,1.83,1.91,2.73,2.9l15.86-4.69-.09-.1c-.85-.94-1.72-1.86-2.6-2.75l0-.05c-.14-.14-.29-.27-.43-.42-.67-.67-1.35-1.35-2-2l-.24-.22-.85-.77c-.46-.42-.92-.85-1.39-1.26l-.52-.44c-.32-.27-.64-.54-1-.8s-.62-.54-.94-.8l-1.52-1.19-.91-.68-.68-.48c-.42-.31-.85-.61-1.27-.9l-.48-.34c-.21-.15-.43-.28-.64-.42l-1.25-.81-.53-.34c-.2-.13-.4-.23-.6-.35-.42-.26-.84-.51-1.27-.75l-.57-.33-.54-.29-1.29-.68-.62-.33L91,81.39l-1.35-.64L89,80.44l-.38-.16c-.49-.21-1-.4-1.47-.6l-.71-.29-.27-.09c-.58-.22-1.16-.42-1.74-.61l-.63-.22-.12,0q-1.27-.41-2.55-.72l-.09,0-.42-.09c-.72-.17-1.43-.33-2.14-.47l-.34-.07L77.63,77c-.73-.12-1.46-.23-2.19-.31L75,76.61h-.2c-1-.11-2-.17-3-.19l-.24,0H71.2c-1.19,0-2.36,0-3.52.11H67.6c-.65,0-1.29.12-1.94.21L49.8,81.41c.67-.09,1.34-.16,2-.22,1.17-.09,2.34-.12,3.53-.1h.56c1,0,2,.09,3,.19l.67.08c.73.09,1.46.2,2.2.32l.8.14c.72.14,1.44.3,2.16.47l.5.11c.85.22,1.7.46,2.55.73l.75.25c.58.19,1.16.39,1.74.61l1,.38q.73.28,1.47.6l1,.47,1.35.63,1.1.56,1.29.68,1.11.62c.43.24.85.49,1.27.75s.75.45,1.12.69.84.53,1.26.81l1.12.76c.42.29.85.59,1.27.9s1.06.76,1.59,1.16c.83.64,1.65,1.31,2.46,2,.33.26.65.53,1,.8C90.32,96.34,91,96.91,91.58,97.48Z"/><path class="cls-64" d="M116.14,90.12l.12-.84.15-1.44.06-.91a2.28,2.28,0,0,0,0-.26,3,3,0,0,0,0-.31q0-.75.06-1.5c0-.52,0-1,0-1.57v-.13c0-.49,0-1,0-1.48s0-1.1-.09-1.65c0-.1,0-.2,0-.3l0-.32c0-.37,0-.74-.09-1.11-.06-.58-.13-1.17-.21-1.76l-.06-.38-.06-.42c0-.35-.1-.7-.16-1-.11-.66-.23-1.32-.36-2a1.74,1.74,0,0,0,0-.22l-.09-.4c-.11-.51-.21-1-.33-1.52s-.22-.8-.32-1.2-.16-.61-.25-.92-.08-.34-.13-.51-.17-.48-.24-.72c-.36-1.17-.75-2.32-1.17-3.46-.14-.39-.28-.78-.44-1.17-.56-1.42-1.16-2.81-1.82-4.17l0-.06c-.47-1-1-1.9-1.48-2.82a.57.57,0,0,1-.08-.13l-.25-.41q-.48-.84-1-1.65c-.15-.25-.32-.48-.47-.72s-.27-.4-.4-.6-.25-.39-.38-.57c-.4-.57-.81-1.13-1.22-1.68l-.17-.21-.24-.3c-.25-.32-.5-.64-.76-1s-.75-.89-1.14-1.31l-.1-.12-.15-.15c-.29-.32-.58-.63-.88-.93s-.71-.71-1.07-1.06l-.24-.21-.2-.19-.64-.58c-.36-.31-.71-.61-1.07-.9L98,42.35l-.4-.3c-.35-.26-.71-.51-1.06-.75l-.83-.54-.13-.08-.1-.07c-.36-.22-.71-.42-1.07-.62s-.71-.39-1.07-.57l-.06,0-.09,0c-.32-.16-.63-.31-.94-.44s-.75-.32-1.13-.46L91,38.39l-.2-.07L90,38.05c-.41-.13-.82-.24-1.23-.35l-.14,0-.21,0-.9-.2c-.38-.07-.76-.11-1.13-.16l-.17,0h-.08c-.51-.06-1-.09-1.52-.1h-.36c-.22,0-.43,0-.65,0s-.48,0-.71,0-.36.06-.55.08c-.36,0-.72.1-1.07.17-.18,0-.37,0-.55.08q-.53.12-1,.27L63.79,42.49c.52-.15,1.06-.25,1.59-.36.36-.06.72-.12,1.08-.16s.84-.09,1.26-.11l.65,0a18.61,18.61,0,0,1,2,.09l.17,0a18.41,18.41,0,0,1,2,.36l.21,0a20.21,20.21,0,0,1,2.15.65l.2.07a22.37,22.37,0,0,1,2.23,1l.09,0c.76.38,1.53.81,2.3,1.29l.13.08c.76.48,1.53,1,2.29,1.59s1.61,1.3,2.39,2a1.8,1.8,0,0,1,.2.19c.75.69,1.48,1.43,2.18,2.19l.15.16c.7.76,1.36,1.56,2,2.38l.24.3c.61.79,1.19,1.61,1.76,2.45l.41.61c.5.77,1,1.55,1.45,2.36.09.14.18.28.26.42.56,1,1.08,2,1.59,3,.66,1.35,1.26,2.75,1.82,4.17.15.39.3.78.44,1.17.42,1.14.81,2.29,1.16,3.45.13.42.27.82.38,1.24s.17.61.25.92c.23.9.46,1.8.65,2.71l.09.41q.33,1.61.57,3.24l.06.42c.16,1.08.27,2.17.36,3.25l0,.32c.08,1.15.13,2.29.14,3.43,0,0,0,.05,0,.08,0,1.15,0,2.29-.1,3.43,0,.08,0,.17,0,.26-.07,1.07-.18,2.14-.33,3.19l0,.25c-.17,1.11-.37,2.21-.62,3.29h0l15.86-4.69a1.16,1.16,0,0,0,0-.18c.11-.46.2-.92.29-1.39s.17-.93.24-1.4c0-.1,0-.21,0-.32Z"/><path class="cls-65" d="M89.53,15.06c10.77,8.23,19.71,20.26,26.09,34l-15,.9a61.62,61.62,0,0,0-15.1-17.41c-20-15.25-41-6.69-47,19.13A66.25,66.25,0,0,0,37,68.8c.12-.1,4.24-2.7,12-4.07a43.83,43.83,0,0,1,.78-4.49C53.83,42.43,68.35,36.52,82.13,47s21.62,33.5,17.5,51.31A90.87,90.87,0,0,0,87.38,87c-13.14-10-26.56-13.81-38.57-12.06-4.53.47-10.64,3.18-11,3.32a42.41,42.41,0,0,0-12,8.68C22.22,71.58,21.66,55.63,25,41.35,33.17,5.88,62.08-5.89,89.53,15.06Z"/><path class="cls-66" d="M97.2,21.86l.06.07c1.09,1.1,2.14,2.26,3.17,3.44l.71.82c1,1.22,2,2.45,3,3.74l.32.43q1.3,1.73,2.53,3.53c.33.49.66,1,1,1.48.59.9,1.18,1.81,1.74,2.74q.6,1,1.17,2,.69,1.19,1.35,2.4c.54,1,1.06,2,1.57,3,.62,1.2,1.23,2.4,1.8,3.63l15.86-4.69c-.38-.82-.77-1.64-1.17-2.44-.2-.41-.42-.79-.62-1.18-.52-1-1-2-1.58-3-.23-.42-.44-.86-.68-1.29s-.45-.73-.67-1.11c-.38-.65-.77-1.3-1.16-1.94-.26-.42-.5-.85-.76-1.26s-.66-1-1-1.49-.65-1-1-1.48c-.17-.25-.33-.51-.51-.76-.65-.94-1.32-1.85-2-2.75-.12-.15-.22-.31-.34-.46l-.07-.09c-.76-1-1.54-2-2.33-2.92l-.61-.71-.72-.83c-.31-.35-.61-.72-.93-1.07-.72-.8-1.46-1.58-2.21-2.35l0,0-.06-.06c-.68-.69-1.36-1.37-2.06-2-.45-.42-.91-.82-1.36-1.23l-.46-.42-.32-.29c-.71-.61-1.42-1.21-2.13-1.79l-1.34-1-.79-.6c-.31-.23-.62-.44-.93-.66l-.9-.63-.28-.21-1.18-.76L100.52,7l-.15-.1c-.59-.36-1.19-.71-1.78-1l-.32-.19h0c-.72-.4-1.43-.78-2.15-1.14l-.09,0-.73-.34c-.45-.22-.9-.44-1.35-.63l-.18-.08-1-.4L91.69,2.6l-.24-.08c-.36-.14-.72-.25-1.08-.38s-.64-.23-1-.33l-.26-.07c-.44-.14-.88-.26-1.33-.38-.28-.08-.56-.17-.84-.24l-.2,0C86.25,1,85.72.84,85.2.74,85,.69,84.71.62,84.48.58h-.1C83.53.41,82.68.29,81.84.2h-.1c-.13,0-.26,0-.38,0C80.6.09,79.84.05,79.1,0l-.39,0h-.38c-1,0-2,0-3.06.1h0c-.34,0-.69.09-1,.13s-.76.07-1.14.13-.73.14-1.1.21-.69.11-1,.19h0c-.7.16-1.4.34-2.09.54L53,6c.69-.2,1.38-.38,2.09-.54.47-.11,1-.18,1.42-.27.24,0,.47-.1.71-.13l1-.12c.39-.05.77-.11,1.16-.14,1-.08,2-.11,3.06-.1h.76c.75,0,1.51.07,2.27.14l.48,0c.84.09,1.69.21,2.54.36l.82.17c.52.11,1,.22,1.58.35.35.08.69.18,1,.28l1.33.37,1.21.41c.37.12.73.24,1.09.38s.87.34,1.3.51l1,.41c.51.22,1,.46,1.53.71l.73.34c.76.37,1.51.77,2.26,1.19l.32.19c.64.36,1.29.74,1.93,1.14l.79.51c.49.32,1,.63,1.46,1l.9.63c.57.41,1.15.82,1.72,1.25,1.29,1,2.55,2,3.79,3.13l.46.42C94.94,19.65,96.09,20.73,97.2,21.86Z"/><path class="cls-67" d="M123.72,72.77c3.41,15,3.88,30.52.65,44.47-8.21,35.49-37.12,47.26-64.58,26.3C49,135.3,40.08,123.24,33.67,109.48l15-.91A61.92,61.92,0,0,0,63.84,126c20,15.25,41,6.68,47-19.14a69.43,69.43,0,0,0,1-24.06Z"/><path class="cls-68" d="M141.37,106.65c.14-.93.27-1.86.38-2.8.07-.54.12-1.09.17-1.63,0-.22.05-.44.07-.65l.06-.58q.13-1.45.21-2.91c0-.45,0-.9.06-1.35l0-.79c0-.29,0-.57,0-.86,0-1,0-2.07,0-3.1,0-.3,0-.59,0-.89s0-.59,0-.88c0-.47,0-.95,0-1.43,0-1.09-.1-2.2-.17-3.3l0-.26c0-.19,0-.38,0-.57-.07-.86-.14-1.72-.22-2.58-.07-.7-.16-1.4-.25-2.09,0-.3-.06-.59-.1-.89l-.06-.54c-.17-1.22-.35-2.43-.55-3.65,0-.24-.09-.49-.13-.73-.07-.41-.15-.81-.23-1.22-.12-.64-.22-1.29-.35-1.93q-.3-1.47-.63-2.94l-15.86,4.69c.36,1.62.68,3.24,1,4.87.08.41.15.81.22,1.21.29,1.64.54,3.29.75,4.93,0,.29.07.59.1.89.19,1.56.35,3.12.47,4.68,0,.18,0,.37,0,.55.12,1.67.19,3.34.23,5,0,.29,0,.59,0,.88,0,1.62,0,3.24,0,4.85l0,.79c-.07,1.62-.18,3.24-.33,4.84,0,.21,0,.42-.07.64-.16,1.63-.37,3.25-.63,4.85,0,.17-.06.35-.09.53-.27,1.67-.59,3.33-1,5-.24,1.05-.51,2.06-.79,3.07-.09.34-.19.69-.29,1-.21.71-.43,1.4-.65,2.08l-.36,1.1c-.25.7-.5,1.39-.76,2.07-.12.3-.23.61-.35.91-.29.73-.61,1.44-.92,2.14-.12.25-.22.52-.33.76-.25.54-.52,1-.78,1.56s-.42.87-.65,1.28c-.13.25-.27.47-.41.72-.39.7-.79,1.4-1.21,2.07-.15.24-.31.46-.46.7-.48.74-1,1.47-1.48,2.16l-.57.76a41.38,41.38,0,0,1-2.72,3.25c-.59.64-1.19,1.24-1.81,1.82l-.49.43c-.47.43-1,.85-1.43,1.25l-.72.56c-.43.33-.85.65-1.28,1l-.81.54c-.42.28-.85.55-1.28.81-.28.17-.56.34-.84.49-.44.25-.89.49-1.34.71l-.83.41c-.5.24-1,.45-1.5.65l-.72.3c-.75.29-1.51.55-2.28.77l15.86-4.68q1.15-.34,2.28-.78c.24-.09.48-.2.72-.3.5-.2,1-.41,1.5-.64.28-.13.56-.28.83-.42.45-.22.9-.46,1.34-.7l.84-.5,1.28-.8.81-.55c.43-.31.85-.63,1.28-1,.24-.18.48-.36.72-.56.49-.4,1-.82,1.44-1.25l.48-.42q.9-.85,1.77-1.77l0-.05a41.55,41.55,0,0,0,2.72-3.26c.1-.13.21-.23.3-.36s.18-.27.27-.39c.51-.7,1-1.43,1.49-2.17.11-.18.24-.35.36-.53l.09-.17c.42-.67.82-1.37,1.22-2.08.12-.22.25-.42.37-.64l0-.07c.23-.42.44-.87.66-1.31s.5-.95.73-1.45a.25.25,0,0,1,0-.07l.33-.77c.28-.63.57-1.26.83-1.91,0-.08.06-.16.09-.23l.35-.9c.19-.52.4-1,.58-1.55l.18-.53.36-1.1c.12-.37.25-.73.37-1.11s.18-.65.28-1l.3-1c.06-.23.13-.45.19-.68.21-.78.41-1.58.59-2.39l.09-.37c.2-.91.4-1.83.57-2.76.12-.6.21-1.22.32-1.83,0-.18.06-.35.09-.53S141.35,106.79,141.37,106.65Z"/></g></g></g></svg>