<svg xmlns="http://www.w3.org/2000/svg" xmlns:xlink="http://www.w3.org/1999/xlink" viewBox="0 0 152.99 152.99"><defs><style>.cls-1{fill:#041742;}.cls-2{fill:url(#radial-gradient);}.cls-3{fill:#26db8d;}</style><radialGradient id="radial-gradient" cx="153.14" cy="-0.64" r="130.88" gradientUnits="userSpaceOnUse"><stop offset="0.1" stop-color="#26db8d"/><stop offset="0.26" stop-color="#23d29a"/><stop offset="0.56" stop-color="#1abbbb"/><stop offset="0.89" stop-color="#0e9de5"/></radialGradient></defs><title>chaticon</title><g id="Layer_2" data-name="Layer 2"><g id="content"><polygon class="cls-1" points="125.84 125.84 27.15 125.84 27.15 27.15 0 0 0 152.99 15.76 152.99 27.15 152.99 152.99 152.99 125.84 125.84"/><polygon class="cls-2" points="27.15 27.15 0 0 152.99 0 152.99 152.99 125.84 125.84 125.84 27.15 27.15 27.15"/><path class="cls-3" d="M114.71,38.28v66H55.3l-17,10.48V38.28h76.43m3.62-3.62H34.66v86.53l5.52-3.4,16.15-9.94h62V34.66Z"/><rect class="cls-1" x="55.3" y="56.27" width="42.38" height="5.78"/><rect class="cls-1" x="55.3" y="67.82" width="42.38" height="5.78"/><rect class="cls-1" x="55.3" y="79.38" width="21.19" height="5.78"/></g></g></svg>