<svg xmlns="http://www.w3.org/2000/svg" xmlns:xlink="http://www.w3.org/1999/xlink" viewBox="0 0 236.68 108"><defs><style>.cls-1{fill:none;}.cls-2{fill:#f5f6fa;}.cls-3{fill:#0e9de5;}.cls-4{clip-path:url(#clip-path);}.cls-5{fill:#041742;}.cls-6{fill:#fff;}.cls-7{fill:#88dbf2;}.cls-8{fill:#9ee7ff;}.cls-9{fill:#6ef9b7;}.cls-10{fill:#26db8d;}</style><clipPath id="clip-path"><circle class="cls-1" cx="14.68" cy="54" r="14.68"/></clipPath></defs><title>How does a bc work</title><g id="Layer_2" data-name="Layer 2"><g id="Layer_1-2" data-name="Layer 1"><rect class="cls-2" x="14.68" width="222" height="108"/><circle class="cls-3" cx="14.68" cy="54" r="14.68"/><g class="cls-4"><polygon class="cls-5" points="11.09 50.1 15.84 54.86 10.06 59.83 21.99 71.75 21.91 70.45 29.84 59.75 17.95 47.86 10.91 47.86 11.09 50.1"/></g><path class="cls-6" d="M10.07,59.83V58l1.66-1.5c2.86-2.56,4.24-4,4.26-5.54,0-1.06-.62-1.9-2.12-1.9a4.86,4.86,0,0,0-2.79,1.06l-.86-2.16a7.19,7.19,0,0,1,4.25-1.34c3,0,4.56,1.72,4.56,4.08,0,2.18-1.56,3.92-3.46,5.6l-1.2,1v0h4.92v2.51Z"/><polygon class="cls-1" points="127.53 13.15 134.33 9.2 173.28 31.68 173.28 41.4 180.08 37.45 219.03 59.93 219.03 69.65 225.83 65.69 236.68 71.95 236.68 0 121.59 0 127.53 3.43 127.53 13.15"/><polygon class="cls-1" points="140.82 105.57 140.82 95.93 134.18 99.81 95.07 77.32 95.07 67.68 88.43 71.56 49.32 49.07 49.32 39.43 42.68 43.3 14.68 27.2 14.68 108 145.05 108 140.82 105.57"/><polygon class="cls-6" points="42.83 0 14.68 0 14.68 27.2 42.68 43.3 42.83 0"/><polygon class="cls-7" points="49.32 39.43 49.32 3.76 55.79 0 42.83 0 42.68 43.3 49.32 39.43"/><polygon class="cls-6" points="80.17 21.43 49.32 3.76 49.32 39.43 49.32 49.07 88.43 71.56 88.58 26.25 80.17 21.43"/><polygon class="cls-8" points="121.59 0 88.58 0 81.78 0 55.79 0 49.32 3.76 80.17 21.43 88.58 26.25 127.53 3.43 121.59 0"/><polygon class="cls-7" points="127.53 13.15 127.53 3.43 88.58 26.25 88.43 71.56 95.07 67.68 95.07 32.01 127.53 13.15"/><polygon class="cls-6" points="125.92 49.68 95.07 32.01 95.07 67.68 95.07 77.32 134.18 99.81 134.33 54.5 125.92 49.68"/><polygon class="cls-8" points="134.33 9.2 127.53 13.15 95.07 32.01 125.92 49.68 134.33 54.5 173.28 31.68 134.33 9.2"/><polygon class="cls-7" points="173.28 41.4 173.28 31.68 134.33 54.5 134.18 99.81 140.82 95.93 140.82 60.26 173.28 41.4"/><polygon class="cls-6" points="171.67 77.93 140.82 60.26 140.82 95.93 140.82 105.57 145.05 108 180 108 180.08 82.75 171.67 77.93"/><polygon class="cls-9" points="180.08 37.45 173.28 41.4 140.82 60.26 171.67 77.93 180.08 82.75 219.03 59.93 180.08 37.45"/><polygon class="cls-10" points="219.03 69.65 219.03 59.93 180.08 82.75 180 108 186.57 108 186.57 88.51 219.03 69.65"/><polygon class="cls-6" points="217.42 106.18 186.57 88.51 186.57 108 214.3 108 220.6 108 217.42 106.18"/><polygon class="cls-8" points="225.83 65.69 219.03 69.65 186.57 88.51 217.42 106.18 220.6 108 225.83 108 230.96 108 236.68 104.65 236.68 71.95 225.83 65.69"/><polygon class="cls-7" points="236.68 108 236.68 104.65 230.96 108 236.68 108"/></g></g></svg>