<svg xmlns="http://www.w3.org/2000/svg" xmlns:xlink="http://www.w3.org/1999/xlink" viewBox="0 0 236.68 108"><defs><style>.cls-1{fill:none;}.cls-2{fill:#f5f6fa;}.cls-3{fill:#0e9de5;}.cls-4{clip-path:url(#clip-path);}.cls-5{fill:#041742;}.cls-6{fill:#fff;}.cls-7{fill:#9ee7ff;}.cls-8{fill:#d2dbeb;}.cls-9{fill:#26db8d;}.cls-10{fill:#6ef9b7;}</style><clipPath id="clip-path"><circle class="cls-1" cx="14.68" cy="54" r="14.68"/></clipPath></defs><title>summary1</title><g id="Layer_2" data-name="Layer 2"><g id="Layer_1-2" data-name="Layer 1"><rect class="cls-2" x="14.68" width="222" height="108"/><circle class="cls-3" cx="14.68" cy="54" r="14.68"/><g class="cls-4"><polygon class="cls-5" points="11.13 58.46 23.94 71.27 30.66 59.01 18.3 46.64 12.27 49.82 11.13 58.46"/></g><path class="cls-6" d="M18.3,49a8.36,8.36,0,0,0-1.18,0c-2.7.2-3.9,1.6-4.24,3.1h.06a3.76,3.76,0,0,1,2.76-1,4,4,0,0,1,4,4.24,4.65,4.65,0,0,1-4.78,4.71c-3.48,0-5.18-2.58-5.18-5.69a7.8,7.8,0,0,1,2.32-5.8,7.72,7.72,0,0,1,5-1.9,6.4,6.4,0,0,1,1.22,0Zm-3.4,8.83c1.06,0,1.74-1,1.74-2.31a2,2,0,0,0-1.94-2.24,2,2,0,0,0-1.78,1.14,1.6,1.6,0,0,0-.14.78c.06,1.38.72,2.63,2.1,2.63Z"/><path class="cls-7" d="M79.05,24.48c21.91-13.56,57.76-13.56,79.67,0s21.91,35.73,0,49.28-57.76,13.55-79.67,0S57.14,38,79.05,24.48Z"/><path class="cls-8" d="M60.47,42.6v9h0c0,10.11,6.39,19.37,18,26.07,11,6.34,25.41,9.51,39.83,9.51S147.2,84,158.18,77.69c11.6-6.7,18-16,18-26.07v-9l-1.72.16c-2.62-6.59-8.17-12.52-16.27-17.2-22-12.68-57.71-12.68-79.67,0-8.11,4.68-13.66,10.61-16.28,17.2Zm10.66,9c0-6.15,4.51-12.14,12.69-16.87,9.35-5.4,21.94-8.1,34.52-8.1s25.17,2.7,34.53,8.1c8.18,4.73,12.68,10.72,12.68,16.87s-4.5,12.15-12.68,16.87c-18.72,10.81-50.34,10.81-69.05,0C75.64,63.77,71.13,57.78,71.13,51.62Z"/><path class="cls-6" d="M119.28,51.31c-8.3,4.8-21.89,4.8-30.19,0s-8.31-12.64,0-17.43,21.89-4.8,30.19,0S127.59,46.52,119.28,51.31Z"/><path class="cls-6" d="M78.51,68.66c-11.61-6.7-18-15.95-18-26.06s6.39-19.37,18-26.07c22-12.68,57.7-12.68,79.67,0,11.6,6.7,18,16,18,26.07s-6.39,19.36-18,26.06h0c-11,6.34-25.41,9.51-39.84,9.51S89.49,75,78.51,68.66Zm5.31-42.93C75.64,30.45,71.13,36.44,71.13,42.6s4.51,12.14,12.69,16.86c18.71,10.81,50.33,10.81,69.05,0h0c8.18-4.72,12.68-10.71,12.68-16.86s-4.5-12.15-12.68-16.87c-9.36-5.41-21.94-8.11-34.53-8.11S93.17,20.33,83.82,25.73Z"/><path class="cls-9" d="M204.67,106.37a5.08,5.08,0,0,0,2.55-9.47L159.7,69.49c-2.43-1.4-8.4,4.38-5.08,8.79l47.52,27.41A5.06,5.06,0,0,0,204.67,106.37Z"/><path class="cls-10" d="M194.1,108h42.58L172.74,71.2c-5.08-2.93-17.56,9.18-10.62,18.39Z"/></g></g></svg>