<svg xmlns="http://www.w3.org/2000/svg" xmlns:xlink="http://www.w3.org/1999/xlink" viewBox="0 0 236.68 108"><defs><style>.cls-1{fill:none;}.cls-2{fill:#f5f6fa;}.cls-3{fill:#0e9de5;}.cls-4{clip-path:url(#clip-path);}.cls-5{fill:#041742;}.cls-6{fill:#fff;}.cls-7{fill:#6ef9b7;}.cls-8{fill:#9ee7ff;}.cls-9{fill:#d2dbeb;}.cls-10{fill:#88dbf2;}.cls-11{fill:#26db8d;}</style><clipPath id="clip-path"><circle class="cls-1" cx="14.68" cy="54" r="14.68"/></clipPath></defs><title>transactions</title><g id="Layer_2" data-name="Layer 2"><g id="Layer_1-2" data-name="Layer 1"><rect class="cls-2" x="14.68" width="222" height="108"/><circle class="cls-3" cx="14.68" cy="54" r="14.68"/><g class="cls-4"><polygon class="cls-5" points="9.59 56.73 23.32 70.46 32.06 60.65 18.23 46.82 14.68 47.86 9.59 56.73"/></g><path class="cls-6" d="M15.35,59.83V56.72H9.58v-2l4.91-7.92h3.74v7.62h1.54v2.28H18.23v3.11Zm0-5.39V51.56c0-.78,0-1.58.08-2.42h-.06c-.42.84-.78,1.6-1.22,2.42L12.43,54.4l0,0Z"/><polygon class="cls-7" points="216.13 33.88 190.68 8.42 190.68 18.38 125.68 18.38 125.68 49.38 190.68 49.38 190.68 59.33 216.13 33.88"/><polygon class="cls-8" points="35.22 74.13 60.68 99.58 60.68 89.63 125.68 89.63 125.68 58.63 60.68 58.63 60.68 48.67 35.22 74.13"/><path class="cls-9" d="M157.68,50.38h-3.34a22.75,22.75,0,0,0-6.08-4.94c-12.56-7.25-33.1-7.25-45.66,0a22.75,22.75,0,0,0-6.08,4.94H93.27v7h0c-.6,5.19,2.48,10.5,9.31,14.44,12.56,7.25,33.1,7.25,45.66,0,6.83-3.94,9.91-9.25,9.31-14.44h.11Z"/><path class="cls-10" d="M109.14,42.56c-1.1.37-2.16.77-3.19,1.22V73.46c1,.45,2.09.85,3.19,1.22Z"/><path class="cls-10" d="M99.58,47.48V69.75a27.43,27.43,0,0,0,3,2l.17.09V45.35l-.17.09A28.38,28.38,0,0,0,99.58,47.48Z"/><path class="cls-10" d="M115.5,40.91c-1.08.2-2.14.44-3.18.71v34c1,.26,2.1.5,3.18.7Z"/><path class="cls-10" d="M150.53,46.92V70.34a20.92,20.92,0,0,0,3.18-2.8V49.7A21.91,21.91,0,0,0,150.53,46.92Z"/><path class="cls-10" d="M156.89,62.56a11.24,11.24,0,0,0,.68-5.2h.11v-7h-.79Z"/><path class="cls-10" d="M141,42.3c-1-.33-2.1-.63-3.19-.88V75.83c1.09-.26,2.15-.56,3.19-.89Z"/><path class="cls-10" d="M96.4,66.74V50.38H93.27v7h0A12.33,12.33,0,0,0,96.4,66.74Z"/><path class="cls-10" d="M147.34,45a34.37,34.37,0,0,0-3.18-1.49V73.78c1.1-.46,2.17-1,3.18-1.5Z"/><path class="cls-10" d="M121.87,40.13c-1.07.07-2.13.17-3.18.29v36.4c1,.13,2.11.23,3.18.29Z"/><path class="cls-10" d="M128.24,77.16V40.08c-1.06,0-2.12-.07-3.18-.07V77.23C126.12,77.23,127.18,77.21,128.24,77.16Z"/><path class="cls-10" d="M134.61,40.76c-1.05-.17-2.12-.32-3.19-.43V76.91c1.07-.11,2.14-.26,3.19-.43Z"/><path class="cls-8" d="M148.26,36.2C135.7,29,115.16,29,102.6,36.2s-12.55,19.11,0,26.36,33.1,7.25,45.66,0S160.81,43.45,148.26,36.2Z"/><path class="cls-7" d="M146,36.92c-11.3-6.52-29.8-6.52-41.1,0s-11.31,17.21,0,23.73,29.8,6.53,41.1,0S157.29,43.45,146,36.92Z"/><path class="cls-11" d="M143.46,38.3c-9.91-5.62-26.14-5.62-36.06,0s-9.92,14.83,0,20.45,26.15,5.62,36.06,0S153.38,43.92,143.46,38.3Z"/></g></g></svg>