<svg xmlns="http://www.w3.org/2000/svg" xmlns:xlink="http://www.w3.org/1999/xlink" viewBox="0 0 236.88 108.77"><defs><style>.cls-1{fill:none;}.cls-2{fill:#f5f6fa;}.cls-3{clip-path:url(#clip-path);}.cls-4{fill:#95bde4;}.cls-5{fill:#d2dbeb;}.cls-6{fill:url(#Degradado_sin_nombre_6);}.cls-7{fill:#fff;}.cls-8{fill:#9ee7ff;}.cls-9{fill:#88dbf2;}.cls-10{fill:#6ef9b7;}.cls-11{fill:#26db8d;}.cls-12{fill:#0e9de5;}.cls-13{clip-path:url(#clip-path-2);}.cls-14{fill:#041742;}</style><clipPath id="clip-path"><rect class="cls-1" x="14.46" width="222" height="108"/></clipPath><radialGradient id="Degradado_sin_nombre_6" cx="154.05" cy="117.22" r="108.22" gradientUnits="userSpaceOnUse"><stop offset="0" stop-color="#cadcff"/><stop offset="0" stop-color="#cadcff"/><stop offset="0.38" stop-color="#cadcff" stop-opacity="0.58"/><stop offset="0.68" stop-color="#cadcff" stop-opacity="0.27"/><stop offset="0.89" stop-color="#cadcff" stop-opacity="0.07"/><stop offset="1" stop-color="#cadcff" stop-opacity="0"/></radialGradient><clipPath id="clip-path-2"><circle class="cls-1" cx="14.68" cy="54" r="14.68"/></clipPath></defs><title>wallets</title><g id="Layer_2" data-name="Layer 2"><g id="Layer_1-2" data-name="Layer 1"><rect class="cls-2" x="14.46" width="222" height="108"/><g class="cls-3"><path class="cls-4" d="M45.52,96.21l-.06,0V97A5,5,0,0,1,45.52,96.21Z"/><polygon class="cls-5" points="168.41 108.5 236.88 68.31 236.88 61.7 157.15 108.5 168.41 108.5"/><path class="cls-5" d="M48.86,108.77a42.1,42.1,0,0,1,4.62-.27h6.1l-10.29-6C46.74,100.94,45.46,99,45.46,97v6.61C45.46,105.45,46.6,107.31,48.86,108.77Z"/><polygon class="cls-6" points="157.79 108.5 236.88 62.07 236.88 61.7 157.15 108.5 157.79 108.5"/><path class="cls-6" d="M49.29,102.83l9.64,5.67h.65l-10.29-6c-2.47-1.46-3.74-3.36-3.82-5.28C45.39,99.21,46.66,101.27,49.29,102.83Z"/><path class="cls-7" d="M49.29,102.45l10.29,6h97.57l79.73-46.81v-23l-39.5-23.2c-5.12-3-13.5-3-18.61,0L49.3,91.51C44.18,94.51,44.18,99.44,49.29,102.45Z"/><polygon class="cls-8" points="151.57 108.5 236.88 58.26 236.88 51.59 180.01 18.14 66.11 84.95 106.02 108.5 151.57 108.5"/><path class="cls-5" d="M225.2,37.32l-.07-.06a.05.05,0,0,0,0,0s0,0,0,0L210.94,29l-.07,0a3.49,3.49,0,0,0-1.61-.35c-1.17,0-2.12.44-2.12,1a.62.62,0,0,0,.23.44.49.49,0,0,0,.13.1l0,0,14.09,8.2.07,0a3.47,3.47,0,0,0,1.65.37c1.17,0,2.12-.44,2.12-1A.63.63,0,0,0,225.2,37.32Z"/><path class="cls-5" d="M162.34,59.61H159a23,23,0,0,0-6.09-4.94c-12.55-7.25-33.1-7.25-45.65,0a23,23,0,0,0-6.09,4.94H97.93v7h0c-.61,5.19,2.48,10.5,9.31,14.44,12.55,7.25,33.1,7.25,45.65,0,6.84-3.94,9.92-9.25,9.32-14.44h.1Z"/><path class="cls-9" d="M113.8,51.79c-1.09.37-2.15.77-3.18,1.22V82.69c1,.45,2.09.85,3.18,1.22Z"/><path class="cls-9" d="M104.25,56.71V79a27.43,27.43,0,0,0,3,2l.16.09V54.59l-.16.08A26.48,26.48,0,0,0,104.25,56.71Z"/><path class="cls-9" d="M120.17,50.14c-1.08.2-2.14.44-3.18.71v34c1,.26,2.1.5,3.18.7Z"/><path class="cls-9" d="M155.19,56.15V79.57a21.53,21.53,0,0,0,3.19-2.79V58.93A22,22,0,0,0,155.19,56.15Z"/><path class="cls-9" d="M161.56,71.79a11.24,11.24,0,0,0,.68-5.2h.1v-7h-.78Z"/><path class="cls-9" d="M145.64,51.53c-1-.33-2.1-.63-3.18-.88V85.06c1.08-.26,2.14-.56,3.18-.89Z"/><path class="cls-9" d="M101.07,76V59.61H97.93v7h0A12.25,12.25,0,0,0,101.07,76Z"/><path class="cls-9" d="M152,54.19a34.56,34.56,0,0,0-3.19-1.49V83c1.11-.46,2.17-1,3.19-1.5Z"/><path class="cls-9" d="M126.54,49.36c-1.07.07-2.13.17-3.19.29v36.4c1.06.13,2.12.23,3.19.29Z"/><path class="cls-9" d="M132.91,86.39V49.31c-1.06-.05-2.13-.07-3.19-.07V86.46C130.78,86.46,131.85,86.44,132.91,86.39Z"/><path class="cls-9" d="M139.27,50c-1.05-.18-2.11-.33-3.18-.44V86.14c1.07-.11,2.13-.25,3.18-.43Z"/><path class="cls-8" d="M152.92,45.43c-12.55-7.25-33.1-7.25-45.65,0s-12.56,19.11,0,26.36,33.1,7.25,45.65,0S165.48,52.68,152.92,45.43Z"/><path class="cls-10" d="M150.65,46.15c-11.3-6.52-29.8-6.52-41.11,0s-11.3,17.21,0,23.74,29.81,6.52,41.11,0S162,52.68,150.65,46.15Z"/><path class="cls-11" d="M148.13,47.53c-9.92-5.62-26.15-5.62-36.06,0s-9.92,14.83,0,20.45,26.14,5.62,36.06,0S158.05,53.15,148.13,47.53Z"/><polygon class="cls-7" points="129.09 50.46 126.82 51.77 115.23 53.19 119.82 55.84 117.22 57.35 109.12 52.68 111.39 51.36 122.97 49.94 118.59 47.41 121.19 45.9 129.09 50.46"/><polygon class="cls-7" points="138.91 56.13 136.32 57.64 131.13 54.65 129.15 55.8 133.58 58.36 130.98 59.87 126.55 57.31 124.47 58.52 129.65 61.52 127.05 63.03 118.93 58.34 130.8 51.45 138.91 56.13"/><polygon class="cls-7" points="150.32 62.72 138.46 69.61 135.89 68.13 138.03 62.46 132.06 65.92 129.13 64.23 140.99 57.33 143.56 58.81 141.42 64.49 147.38 61.02 150.32 62.72"/><path class="cls-5" d="M153.05,46.94h-3.33A23,23,0,0,0,143.63,42c-12.55-7.25-33.1-7.25-45.65,0a23,23,0,0,0-6.09,4.94H88.64v7h0c-.6,5.19,2.48,10.49,9.32,14.44,12.55,7.25,33.1,7.25,45.65,0,6.83-4,9.92-9.25,9.32-14.44h.1Z"/><path class="cls-9" d="M104.51,39.12c-1.1.37-2.16.77-3.18,1.22V70c1,.45,2.08.85,3.18,1.22Z"/><path class="cls-9" d="M95,44V66.31a27.43,27.43,0,0,0,3,2,1.29,1.29,0,0,1,.16.09V41.91L98,42A25.23,25.23,0,0,0,95,44Z"/><path class="cls-9" d="M110.88,37.47c-1.08.2-2.14.44-3.19.7v34c1,.27,2.11.51,3.19.71Z"/><path class="cls-9" d="M145.9,43.48V66.9a22.07,22.07,0,0,0,3.18-2.8V46.26A21.39,21.39,0,0,0,145.9,43.48Z"/><path class="cls-9" d="M152.27,59.12a11.24,11.24,0,0,0,.68-5.2h.1v-7h-.78Z"/><path class="cls-9" d="M136.35,38.86c-1-.33-2.1-.63-3.19-.89V72.38c1.09-.25,2.15-.55,3.19-.88Z"/><path class="cls-9" d="M91.77,63.29V46.94H88.64v7h0A12.32,12.32,0,0,0,91.77,63.29Z"/><path class="cls-9" d="M142.72,41.52c-1-.54-2.08-1-3.19-1.5V70.33a34.56,34.56,0,0,0,3.19-1.49Z"/><path class="cls-9" d="M117.24,36.69c-1.06.06-2.13.16-3.18.29v36.4c1,.12,2.12.22,3.18.29Z"/><path class="cls-9" d="M123.61,73.72V36.64c-1.06,0-2.12-.07-3.18-.07V73.79C121.49,73.79,122.55,73.77,123.61,73.72Z"/><path class="cls-9" d="M130,37.32c-1-.17-2.11-.32-3.18-.43V73.47c1.07-.11,2.13-.26,3.18-.44Z"/><path class="cls-8" d="M143.63,32.76c-12.55-7.25-33.1-7.25-45.65,0S85.42,51.87,98,59.12s33.1,7.25,45.65,0S156.19,40,143.63,32.76Z"/><path class="cls-10" d="M141.36,33.48c-11.31-6.53-29.8-6.53-41.11,0s-11.3,17.21,0,23.73,29.8,6.53,41.11,0S152.66,40,141.36,33.48Z"/><path class="cls-11" d="M138.84,34.86c-9.92-5.62-26.15-5.62-36.07,0s-9.91,14.82,0,20.45,26.15,5.62,36.07,0S148.75,40.48,138.84,34.86Z"/><polygon class="cls-7" points="119.79 37.79 117.53 39.1 105.93 40.52 110.53 43.17 107.93 44.68 99.83 40 102.1 38.69 113.67 37.26 109.3 34.73 111.89 33.23 119.79 37.79"/><polygon class="cls-7" points="129.62 43.46 127.02 44.97 121.84 41.98 119.86 43.13 124.29 45.69 121.69 47.2 117.26 44.64 115.18 45.85 120.36 48.84 117.76 50.36 109.64 45.67 121.5 38.77 129.62 43.46"/><polygon class="cls-7" points="141.03 50.05 129.16 56.94 126.6 55.46 128.74 49.78 122.77 53.25 119.84 51.56 131.7 44.66 134.27 46.14 132.13 51.82 138.09 48.35 141.03 50.05"/><path class="cls-5" d="M162.34,34.26H159a23,23,0,0,0-6.09-4.93c-12.55-7.25-33.1-7.25-45.65,0a23,23,0,0,0-6.09,4.93H97.93v7h0c-.61,5.19,2.48,10.5,9.31,14.45,12.55,7.25,33.1,7.25,45.65,0,6.84-3.95,9.92-9.26,9.32-14.45h.1Z"/><path class="cls-9" d="M113.8,26.44q-1.64.55-3.18,1.23V57.34q1.55.67,3.18,1.23Z"/><path class="cls-9" d="M104.25,31.37V53.63a26.14,26.14,0,0,0,3,2.06l.16.08V29.24l-.16.09A25.23,25.23,0,0,0,104.25,31.37Z"/><path class="cls-9" d="M120.17,24.8c-1.08.2-2.14.44-3.18.7v34c1,.27,2.1.5,3.18.7Z"/><path class="cls-9" d="M155.19,30.81V54.22a21.53,21.53,0,0,0,3.19-2.79V33.59A22,22,0,0,0,155.19,30.81Z"/><path class="cls-9" d="M161.56,46.45a11.3,11.3,0,0,0,.68-5.21h.1v-7h-.78Z"/><path class="cls-9" d="M145.64,26.19c-1-.33-2.1-.63-3.18-.89V59.71c1.08-.26,2.14-.56,3.18-.89Z"/><path class="cls-9" d="M101.07,50.62V34.26H97.93v7h0A12.25,12.25,0,0,0,101.07,50.62Z"/><path class="cls-9" d="M152,28.85c-1-.54-2.08-1-3.19-1.5V57.66a32.18,32.18,0,0,0,3.19-1.5Z"/><path class="cls-9" d="M126.54,24c-1.07.07-2.13.17-3.19.3V60.7c1.06.13,2.12.23,3.19.3Z"/><path class="cls-9" d="M132.91,61.05V24c-1.06-.06-2.13-.08-3.19-.07V61.11C130.78,61.12,131.85,61.1,132.91,61.05Z"/><path class="cls-9" d="M139.27,24.65c-1.05-.18-2.11-.32-3.18-.44V60.8c1.07-.12,2.13-.26,3.18-.44Z"/><path class="cls-8" d="M152.92,20.09c-12.55-7.25-33.1-7.25-45.65,0s-12.56,19.11,0,26.35,33.1,7.25,45.65,0S165.48,27.33,152.92,20.09Z"/><path class="cls-10" d="M150.65,20.81c-11.3-6.53-29.8-6.53-41.11,0s-11.3,17.2,0,23.73,29.81,6.53,41.11,0S162,27.33,150.65,20.81Z"/><path class="cls-11" d="M148.13,22.19c-9.92-5.63-26.15-5.63-36.06,0s-9.92,14.82,0,20.44,26.14,5.63,36.06,0S158.05,27.81,148.13,22.19Z"/></g><circle class="cls-12" cx="14.68" cy="54" r="14.68"/><g class="cls-13"><polygon class="cls-14" points="18.46 48.44 29.6 59.58 21.89 70.88 20.38 69.44 10.09 59.15 16.25 58.03 12.27 54.04 14.41 53.07 11.13 49.78 11.46 47.91 14.68 47.43 18.46 48.44"/></g><path class="cls-7" d="M10.71,56.84a6.88,6.88,0,0,0,3,.8c1.58,0,2.38-.76,2.38-1.72,0-1.3-1.28-1.88-2.6-1.88H12.27V51.86h1.18c1,0,2.3-.4,2.3-1.5,0-.78-.62-1.36-1.92-1.36a5.77,5.77,0,0,0-2.7.78l-.62-2.2a8.09,8.09,0,0,1,4-1c2.76,0,4.3,1.46,4.3,3.24a3.1,3.1,0,0,1-2.38,3v0a3.23,3.23,0,0,1,2.82,3.18c0,2.29-2,4-5.32,4a7.92,7.92,0,0,1-3.86-.9Z"/></g></g></svg>