<svg xmlns="http://www.w3.org/2000/svg" xmlns:xlink="http://www.w3.org/1999/xlink" viewBox="0 0 236.68 110.52"><defs><style>.cls-1{fill:none;}.cls-2{fill:#f5f6fa;}.cls-3{fill:#0e9de5;}.cls-4{clip-path:url(#clip-path);}.cls-5{fill:#041742;}.cls-6{fill:#fff;}.cls-7{clip-path:url(#clip-path-2);}.cls-8{fill:#6ef9b7;}.cls-9{fill:#26db8d;}.cls-10{fill:#afc4d5;}.cls-11{fill:#9ee7ff;}</style><clipPath id="clip-path"><circle class="cls-1" cx="14.68" cy="55.77" r="14.68"/></clipPath><clipPath id="clip-path-2"><rect class="cls-1" x="14.92" y="1.77" width="222" height="108"/></clipPath></defs><title>what-is-blockchain</title><g id="Layer_2" data-name="Layer 2"><g id="Layer_1-2" data-name="Layer 1"><rect class="cls-2" x="14.68" y="1.77" width="222" height="108"/><circle class="cls-3" cx="14.68" cy="55.77" r="14.68"/><g class="cls-4"><polygon class="cls-5" points="10.87 53.3 16.09 58.53 13.82 63.99 27.14 77.3 35.02 66.51 17.26 48.76 10.87 53.3"/></g><path class="cls-6" d="M13.82,51.92h-.05l-2.9,1.38-.59-2.67,4.05-1.87h2.93V64H13.82Z"/><g class="cls-7"><polygon class="cls-6" points="176.55 110.52 176.55 69.39 126.13 40.28 75.29 69.82 75.29 110.52 176.55 110.52"/><polygon class="cls-8" points="126.13 40.28 75.29 69.82 126.13 98.94 176.55 69.39 126.13 40.28"/><polygon class="cls-9" points="176.55 110.52 176.55 69.39 126.13 98.94 126.08 110.52 176.55 110.52"/><path class="cls-10" d="M126.41,42.29c-2.55,0-4.64,1.42-4.64,3.16V52c0,1.74,2.09,3.17,4.64,3.17S131,53.72,131,52V45.45C131,43.71,129,42.29,126.41,42.29Zm2.38,9.09c0,.9-1.07,1.63-2.38,1.63S124,52.28,124,51.38V46.05c0-.89,1.07-1.62,2.38-1.62s2.38.73,2.38,1.62Z"/><path class="cls-10" d="M126.41,54.9c-2.55,0-4.64,1.42-4.64,3.16v6.53c0,1.74,2.09,3.17,4.64,3.17S131,66.33,131,64.59V58.06C131,56.32,129,54.9,126.41,54.9ZM128.79,64c0,.9-1.07,1.63-2.38,1.63S124,64.89,124,64V58.66c0-.89,1.07-1.62,2.38-1.62s2.38.73,2.38,1.62Z"/><rect class="cls-10" x="125.09" y="63.83" width="2.64" height="7.36" rx="0.95"/><rect class="cls-10" x="125.09" y="51.46" width="2.64" height="7.36" rx="0.95"/><polygon class="cls-6" points="75.29 0 75.29 17.32 125.92 46.43 176.55 16.89 176.55 0 75.29 0"/><polygon class="cls-11" points="126.08 0 125.92 46.43 176.55 16.89 176.55 0 126.08 0"/></g></g></g></svg>