<svg width="237" height="109" viewBox="0 0 237 109" fill="none" xmlns="http://www.w3.org/2000/svg">
<g clip-path="url(#clip0)">
<path d="M236.63 0.280273H14.6299V108.28H236.63V0.280273Z" fill="#F5F6FA"/>
<path d="M14.68 68.9596C22.7875 68.9596 29.36 62.3871 29.36 54.2796C29.36 46.1721 22.7875 39.5996 14.68 39.5996C6.57246 39.5996 0 46.1721 0 54.2796C0 62.3871 6.57246 68.9596 14.68 68.9596Z" fill="#0E9DE5"/>
<path d="M161.451 108.28L189.271 92.05V52.89L155.611 33.46L121.681 53.18V92.33L149.421 108.28H161.451Z" fill="white"/>
<path d="M155.611 33.46L121.681 53.18L155.611 72.61L189.271 52.89L155.611 33.46Z" fill="#6EF9B7"/>
<path d="M161.45 108.28L189.27 92.0497V52.8896L155.61 72.6096L155.49 108.28H161.45Z" fill="#26DB8D"/>
<path d="M149.351 0.26C145.651 0.26 141.944 0.303333 138.231 0.39L121.681 10V49.16L155.481 68.6L189.271 48.88V9.72L172.441 0C164.741 0.11 157.051 0.21 149.351 0.26Z" fill="white"/>
<path d="M149.351 0.26C145.651 0.26 141.944 0.303333 138.231 0.39L121.681 10L155.611 29.43L189.271 9.72L172.441 0C164.741 0.11 157.051 0.21 149.351 0.26Z" fill="#9EE7FF"/>
<path d="M155.61 29.4397L189.27 9.71973V48.8797L155.48 68.5997L155.61 29.4397Z" fill="#6EF9B7"/>
<path d="M226.26 108.28V74.9205L192.6 55.4805L158.66 75.2005V108.28H226.26Z" fill="white"/>
<path d="M192.6 55.4805L158.66 75.2005L192.6 94.6405L226.26 74.9205L192.6 55.4805Z" fill="#6EF9B7"/>
<path d="M226.26 108.28V74.9199L192.6 94.6399L192.55 108.28H226.26Z" fill="#26DB8D"/>
<path d="M158.66 31.3196L192.6 11.5996L226.26 31.0296V70.1896L192.46 89.9096L158.66 70.4696V31.3196Z" fill="white"/>
<path d="M192.6 11.5996L158.66 31.3196L192.6 50.7496L226.26 31.0296L192.6 11.5996Z" fill="#9EE7FF"/>
<path d="M192.6 50.7503L226.26 31.0303V70.1903L192.46 89.9103L192.6 50.7503Z" fill="#6EF9B7"/>
<path d="M236.63 82.4001L229.59 78.3301L195.65 98.0501V108.28H236.63V82.4001Z" fill="white"/>
<path d="M236.63 82.4001L229.59 78.3301L195.65 98.0501L213.51 108.28H236.63V82.4001Z" fill="#6EF9B7"/>
<path d="M236.63 38.5102L229.59 34.4502L195.65 54.1702V93.3202L221.67 108.28H236.63V38.5102Z" fill="white"/>
<path d="M236.63 38.5102L229.59 34.4502L195.65 54.1702L229.59 73.6002L236.63 69.4702V38.5102Z" fill="#9EE7FF"/>
<path d="M236.63 69.4697L229.59 73.5997L229.47 108.28H236.63V69.4697Z" fill="#6EF9B7"/>
<path d="M152.29 108.28V74.0599L118.63 54.6299L84.6904 74.3499V108.28H152.29Z" fill="white"/>
<path d="M118.63 54.6299L84.6904 74.3499L118.63 93.7899L152.29 74.0599L118.63 54.6299Z" fill="#6EF9B7"/>
<path d="M152.29 108.28V74.0596L118.63 93.7896L118.58 108.28H152.29Z" fill="#26DB8D"/>
<path d="M84.6904 31.18L118.63 11.46L152.29 30.89V70.05L118.49 89.77L84.6904 70.34V31.18Z" fill="white"/>
<path d="M118.63 11.46L84.6904 31.18L118.63 50.62L152.29 30.89L118.63 11.46Z" fill="#9EE7FF"/>
<path d="M118.63 50.6196L152.29 30.8896V70.0497L118.49 89.7696L118.63 50.6196Z" fill="#6EF9B7"/>
<path d="M189.271 108.28V96.0901L155.611 76.6602L121.681 96.3801V108.28H189.271Z" fill="white"/>
<path d="M168.471 108.28L189.271 96.0901L155.611 76.6602L121.681 96.3801L142.461 108.28H168.471Z" fill="#6EF9B7"/>
<path d="M189.27 108.28V96.0898L168.47 108.28H189.27Z" fill="#26DB8D"/>
<path d="M160.281 108.28L189.271 91.3595V52.2095L155.611 32.7695L121.681 52.4895V91.6495L150.611 108.28H160.281Z" fill="white"/>
<path d="M155.611 32.7695L121.681 52.4895L155.611 71.9295L189.271 52.2095L155.611 32.7695Z" fill="#9EE7FF"/>
<path d="M160.28 108.28L189.27 91.36V52.21L155.61 71.93L155.49 108.28H160.28Z" fill="#6EF9B7"/>
<path d="M207.8 108.28L192.6 99.5098L177.5 108.28H207.8Z" fill="white"/>
<path d="M207.8 108.28L192.6 99.5098L177.5 108.28H207.8Z" fill="#6EF9B7"/>
<path d="M226.26 108.28V75.0601L192.6 55.6201L158.66 75.3401V108.28H226.26Z" fill="white"/>
<path d="M192.6 55.6201L158.66 75.3401L192.6 94.7801L226.26 75.0601L192.6 55.6201Z" fill="#9EE7FF"/>
<path d="M226.26 108.28V75.0596L192.6 94.7796L192.55 108.28H226.26Z" fill="#6EF9B7"/>
<path d="M115.3 108.28V95.2396L81.6402 75.8096L47.7002 95.5296V108.28H115.3Z" fill="white"/>
<path d="M93.0402 108.28L115.3 95.2396L81.6402 75.8096L47.7002 95.5296L69.9802 108.28H93.0402Z" fill="#9EE7FF"/>
<path d="M115.3 108.28V95.2402L93.04 108.28H115.3Z" fill="#26DB8D"/>
<path d="M86.0602 108.28L115.3 91.2199V52.0699L81.6402 32.6299L47.7002 52.3599V91.5099L76.8702 108.28H86.0602Z" fill="white"/>
<path d="M81.6402 32.6299L47.7002 52.3599L81.6402 71.7899L115.3 52.0699L81.6402 32.6299Z" fill="#9EE7FF"/>
<path d="M86.0598 108.28L115.3 91.2203V52.0703L81.6398 71.7903L81.5098 108.28H86.0598Z" fill="#6EF9B7"/>
<path d="M136.721 108.28L118.631 97.8301L100.641 108.28H136.721Z" fill="white"/>
<path d="M136.721 108.28L118.631 97.8301L100.641 108.28H136.721Z" fill="#6EF9B7"/>
<path d="M152.29 108.28V73.3802L118.63 53.9502L84.6904 73.6702V108.28H152.29Z" fill="white"/>
<path d="M118.63 53.9502L84.6904 73.6702L118.63 93.1002L152.29 73.3802L118.63 53.9502Z" fill="#9EE7FF"/>
<path d="M152.29 108.28V73.3799L118.63 93.0999L118.57 108.28H152.29Z" fill="#6EF9B7"/>
<path d="M189.271 108.28V96.2298L155.611 76.7998L121.681 96.5198V108.28H189.271Z" fill="white"/>
<path d="M168.701 108.28L189.271 96.2298L155.611 76.7998L121.681 96.5198L142.221 108.28H168.701Z" fill="#9EE7FF"/>
<path d="M189.27 108.28V96.2305L168.7 108.28H189.27Z" fill="#6EF9B7"/>
<path d="M9 57.5258L22.1709 70.7309L30.5576 61.2954L17.2966 48L13.8856 49.0045L9 57.5258Z" fill="#041742"/>
<path d="M14.5273 60.5047V57.5251H9V55.6177L13.7055 48.0332H17.2853V55.3581H18.7713V57.5477H17.2853V60.5273L14.5273 60.5047ZM14.5273 55.3355V52.5478C14.5273 51.8029 14.5273 51.0354 14.6061 50.2228H14.5498C14.1445 51.0354 13.7956 51.769 13.4241 52.5478L11.7693 55.2791L14.5273 55.3355Z" fill="white"/>
</g>
<defs>
<clipPath id="clip0">
<rect width="236.63" height="108.28" fill="white"/>
</clipPath>
</defs>
</svg>
