<svg xmlns="http://www.w3.org/2000/svg" xmlns:xlink="http://www.w3.org/1999/xlink" viewBox="0 0 236.63 108.28"><defs><style>.cls-1{fill:none;}.cls-2{fill:#f5f6fa;}.cls-3{clip-path:url(#clip-path);}.cls-4{fill:#fff;}.cls-5{fill:#6ef9b7;}.cls-6{fill:#26db8d;}.cls-7{fill:#9ee7ff;}.cls-8{fill:#0e9de5;}.cls-9{clip-path:url(#clip-path-2);}.cls-10{fill:#041742;}</style><clipPath id="clip-path" transform="translate(0 0.28)"><rect class="cls-1" x="14.63" width="222" height="108"/></clipPath><clipPath id="clip-path-2" transform="translate(0 0.28)"><circle class="cls-1" cx="14.68" cy="54" r="14.68"/></clipPath></defs><title>cons</title><g id="Layer_2" data-name="Layer 2"><g id="Layer_1-2" data-name="Layer 1"><rect class="cls-2" x="14.63" y="0.28" width="222" height="108"/><g class="cls-3"><polygon class="cls-4" points="161.45 108.28 189.27 92.05 189.27 52.89 155.61 33.46 121.68 53.18 121.68 92.33 149.42 108.28 161.45 108.28"/><polygon class="cls-5" points="155.61 33.46 121.68 53.18 155.61 72.61 189.27 52.89 155.61 33.46"/><polygon class="cls-6" points="161.45 108.28 189.27 92.05 189.27 52.89 155.61 72.61 155.49 108.28 161.45 108.28"/><path class="cls-4" d="M149.35,0,138.23.1,121.68,9.72V48.88l33.8,19.43,33.79-19.72V9.44L172.44-.28C164.74-.17,157.05-.07,149.35,0Z" transform="translate(0 0.28)"/><path class="cls-7" d="M149.35,0,138.23.1,121.68,9.72l33.93,19.44L189.27,9.44,172.44-.28C164.74-.17,157.05-.07,149.35,0Z" transform="translate(0 0.28)"/><polygon class="cls-5" points="155.61 29.44 189.27 9.72 189.27 48.88 155.48 68.6 155.61 29.44"/><polygon class="cls-4" points="226.26 108.28 226.26 74.92 192.6 55.48 158.66 75.2 158.66 108.28 226.26 108.28"/><polygon class="cls-5" points="192.6 55.48 158.66 75.2 192.6 94.64 226.26 74.92 192.6 55.48"/><polygon class="cls-6" points="226.26 108.28 226.26 74.92 192.6 94.64 192.55 108.28 226.26 108.28"/><polygon class="cls-4" points="158.66 31.32 192.6 11.6 226.26 31.03 226.26 70.19 192.46 89.91 158.66 70.47 158.66 31.32"/><polygon class="cls-7" points="192.6 11.6 158.66 31.32 192.6 50.75 226.26 31.03 192.6 11.6"/><polygon class="cls-5" points="192.6 50.75 226.26 31.03 226.26 70.19 192.46 89.91 192.6 50.75"/><polygon class="cls-4" points="236.63 82.4 229.59 78.33 195.65 98.05 195.65 108.28 236.63 108.28 236.63 82.4"/><polygon class="cls-5" points="236.63 82.4 229.59 78.33 195.65 98.05 213.51 108.28 236.63 108.28 236.63 82.4"/><polygon class="cls-4" points="236.63 38.51 229.59 34.45 195.65 54.17 195.65 93.32 221.67 108.28 236.63 108.28 236.63 38.51"/><polygon class="cls-7" points="236.63 38.51 229.59 34.45 195.65 54.17 229.59 73.6 236.63 69.47 236.63 38.51"/><polygon class="cls-5" points="236.63 69.47 229.59 73.6 229.47 108.28 236.63 108.28 236.63 69.47"/><polygon class="cls-4" points="152.29 108.28 152.29 74.06 118.63 54.63 84.69 74.35 84.69 108.28 152.29 108.28"/><polygon class="cls-5" points="118.63 54.63 84.69 74.35 118.63 93.79 152.29 74.06 118.63 54.63"/><polygon class="cls-6" points="152.29 108.28 152.29 74.06 118.63 93.79 118.58 108.28 152.29 108.28"/><polygon class="cls-4" points="84.69 31.18 118.63 11.46 152.29 30.89 152.29 70.05 118.49 89.77 84.69 70.34 84.69 31.18"/><polygon class="cls-7" points="118.63 11.46 84.69 31.18 118.63 50.62 152.29 30.89 118.63 11.46"/><polygon class="cls-5" points="118.63 50.62 152.29 30.89 152.29 70.05 118.49 89.77 118.63 50.62"/><polygon class="cls-4" points="189.27 108.28 189.27 96.09 155.61 76.66 121.68 96.38 121.68 108.28 189.27 108.28"/><polygon class="cls-5" points="168.47 108.28 189.27 96.09 155.61 76.66 121.68 96.38 142.46 108.28 168.47 108.28"/><polygon class="cls-6" points="189.27 108.28 189.27 96.09 168.47 108.28 189.27 108.28"/><polygon class="cls-4" points="160.28 108.28 189.27 91.36 189.27 52.21 155.61 32.77 121.68 52.49 121.68 91.65 150.61 108.28 160.28 108.28"/><polygon class="cls-7" points="155.61 32.77 121.68 52.49 155.61 71.93 189.27 52.21 155.61 32.77"/><polygon class="cls-5" points="160.28 108.28 189.27 91.36 189.27 52.21 155.61 71.93 155.49 108.28 160.28 108.28"/><polygon class="cls-4" points="207.8 108.28 192.6 99.51 177.5 108.28 207.8 108.28"/><polygon class="cls-5" points="207.8 108.28 192.6 99.51 177.5 108.28 207.8 108.28"/><polygon class="cls-4" points="226.26 108.28 226.26 75.06 192.6 55.62 158.66 75.34 158.66 108.28 226.26 108.28"/><polygon class="cls-7" points="192.6 55.62 158.66 75.34 192.6 94.78 226.26 75.06 192.6 55.62"/><polygon class="cls-5" points="226.26 108.28 226.26 75.06 192.6 94.78 192.55 108.28 226.26 108.28"/><polygon class="cls-4" points="115.3 108.28 115.3 95.24 81.64 75.81 47.7 95.53 47.7 108.28 115.3 108.28"/><polygon class="cls-7" points="93.04 108.28 115.3 95.24 81.64 75.81 47.7 95.53 69.98 108.28 93.04 108.28"/><polygon class="cls-6" points="115.3 108.28 115.3 95.24 93.04 108.28 115.3 108.28"/><polygon class="cls-4" points="86.06 108.28 115.3 91.22 115.3 52.07 81.64 32.63 47.7 52.36 47.7 91.51 76.87 108.28 86.06 108.28"/><polygon class="cls-7" points="81.64 32.63 47.7 52.36 81.64 71.79 115.3 52.07 81.64 32.63"/><polygon class="cls-5" points="86.06 108.28 115.3 91.22 115.3 52.07 81.64 71.79 81.51 108.28 86.06 108.28"/><polygon class="cls-4" points="136.72 108.28 118.63 97.83 100.64 108.28 136.72 108.28"/><polygon class="cls-5" points="136.72 108.28 118.63 97.83 100.64 108.28 136.72 108.28"/><polygon class="cls-4" points="152.29 108.28 152.29 73.38 118.63 53.95 84.69 73.67 84.69 108.28 152.29 108.28"/><polygon class="cls-7" points="118.63 53.95 84.69 73.67 118.63 93.1 152.29 73.38 118.63 53.95"/><polygon class="cls-5" points="152.29 108.28 152.29 73.38 118.63 93.1 118.57 108.28 152.29 108.28"/><polygon class="cls-4" points="189.27 108.28 189.27 96.23 155.61 76.8 121.68 96.52 121.68 108.28 189.27 108.28"/><polygon class="cls-7" points="168.7 108.28 189.27 96.23 155.61 76.8 121.68 96.52 142.22 108.28 168.7 108.28"/><polygon class="cls-5" points="189.27 108.28 189.27 96.23 168.7 108.28 189.27 108.28"/></g><circle class="cls-8" cx="14.68" cy="54.28" r="14.68"/><g class="cls-9"><polygon class="cls-10" points="9.59 57.01 23.32 70.74 32.06 60.94 18.23 47.1 14.68 48.14 9.59 57.01"/></g><path class="cls-4" d="M15.35,59.83V56.72H9.58v-2l4.91-7.92h3.74v7.62h1.54v2.28H18.23v3.11Zm0-5.39V51.56c0-.78,0-1.58.08-2.42h-.06c-.42.84-.78,1.6-1.22,2.42L12.43,54.4l0,0Z" transform="translate(0 0.28)"/></g></g></svg>