<svg xmlns="http://www.w3.org/2000/svg" xmlns:xlink="http://www.w3.org/1999/xlink" viewBox="0 0 236.63 108"><defs><style>.cls-1{fill:none;}.cls-2{fill:#f5f6fa;}.cls-3{fill:#0e9de5;}.cls-4{clip-path:url(#clip-path);}.cls-5{fill:#041742;}.cls-6{fill:#fff;}.cls-7{fill:#6ef9b7;}.cls-8{fill:#26db8d;}.cls-9{fill:url(#linear-gradient);}.cls-10{fill:url(#linear-gradient-2);}.cls-11{fill:#9ee7ff;}</style><clipPath id="clip-path"><circle class="cls-1" cx="14.68" cy="54" r="14.68"/></clipPath><linearGradient id="linear-gradient" x1="153.52" y1="73.14" x2="182.72" y2="73.14" gradientUnits="userSpaceOnUse"><stop offset="0" stop-color="#75757a"/><stop offset="0.52" stop-color="#939496"/><stop offset="1" stop-color="#858689"/></linearGradient><linearGradient id="linear-gradient-2" x1="153.52" y1="57.44" x2="182.72" y2="57.44" xlink:href="#linear-gradient"/></defs><title>elements-of-blockchain</title><g id="Layer_2" data-name="Layer 2"><g id="Layer_1-2" data-name="Layer 1"><rect class="cls-2" x="14.63" width="222" height="108"/><circle class="cls-3" cx="14.68" cy="54" r="14.68"/><g class="cls-4"><polygon class="cls-5" points="10.87 51.53 16.09 56.75 13.82 62.21 27.14 75.53 35.02 64.74 17.26 46.98 10.87 51.53"/></g><path class="cls-6" d="M13.82,50.15h-.05l-2.9,1.38-.59-2.67L14.33,47h2.93V62.21H13.82Z"/><rect class="cls-6" x="201.64" y="-13.29" width="2" height="74.32" transform="translate(82.83 189.03) rotate(-60.76)"/><rect class="cls-6" x="96.36" y="17" width="75.89" height="2" transform="translate(1.39 44.38) rotate(-18.86)"/><polygon class="cls-6" points="99.38 30.54 97.44 30.03 105.28 0 107.35 0 99.38 30.54"/><rect class="cls-6" x="39.13" y="32.67" width="57.44" height="2" transform="translate(-3.5 8.25) rotate(-6.79)"/><rect class="cls-6" x="100.54" y="30.1" width="2" height="54.58" transform="translate(-5.92 12.05) rotate(-6.6)"/><path class="cls-7" d="M190.68,72.54H145.56V84.09h.06c0,.2-.06.4-.06.6,0,6.88,10.1,12.46,22.56,12.46s22.56-5.58,22.56-12.46c0-.2,0-.4-.05-.6h.05Z"/><ellipse class="cls-8" cx="168.12" cy="73.14" rx="22.56" ry="12.47"/><ellipse class="cls-9" cx="168.12" cy="73.14" rx="14.6" ry="8.07"/><path class="cls-7" d="M190.68,56.84H145.56V68.39h.06a5.9,5.9,0,0,0-.06.59c0,6.89,10.1,12.47,22.56,12.47S190.68,75.87,190.68,69c0-.2,0-.39-.05-.59h.05Z"/><ellipse class="cls-8" cx="168.12" cy="57.44" rx="22.56" ry="12.47"/><ellipse class="cls-10" cx="168.12" cy="57.44" rx="14.6" ry="8.07"/><path class="cls-7" d="M190.68,41.14H145.56V52.69h.06a5.9,5.9,0,0,0-.06.59c0,6.89,10.1,12.47,22.56,12.47s22.56-5.58,22.56-12.47c0-.2,0-.39-.05-.59h.05Z"/><ellipse class="cls-8" cx="168.12" cy="41.73" rx="22.56" ry="12.47"/><ellipse class="cls-7" cx="168.12" cy="41.73" rx="14.6" ry="8.07"/><path class="cls-11" d="M229.52,107.94a16,16,0,0,0-30.68,0Z"/><path class="cls-11" d="M236.63,30.87a12,12,0,0,0,0,23.05Z"/><circle class="cls-11" cx="104.68" cy="84.5" r="11.06"/><path class="cls-11" d="M160.61,0a11.07,11.07,0,1,0,19.21,0Z"/><circle class="cls-11" cx="45.2" cy="37.07" r="11.06"/><circle class="cls-11" cx="98.41" cy="30.28" r="20.09"/></g></g></svg>