<svg xmlns="http://www.w3.org/2000/svg" xmlns:xlink="http://www.w3.org/1999/xlink" viewBox="0 0 236.68 110.31"><defs><style>.cls-1{fill:none;}.cls-2{isolation:isolate;}.cls-3{fill:#f5f6fa;}.cls-4{fill:#0e9de5;}.cls-5{clip-path:url(#clip-path);}.cls-6{fill:#041742;}.cls-7{fill:#fff;}.cls-8{clip-path:url(#clip-path-2);}.cls-11,.cls-9{fill:#6ef9b7;}.cls-10,.cls-15{fill:#9ee7ff;}.cls-11,.cls-15{mix-blend-mode:hard-light;}.cls-12{fill:#88dbf2;}.cls-13{fill:#d2dbeb;}.cls-14{fill:#58e89c;}.cls-16{fill:#26db8d;}</style><clipPath id="clip-path" transform="translate(0 1.09)"><circle class="cls-1" cx="14.68" cy="54" r="14.68"/></clipPath><clipPath id="clip-path-2" transform="translate(0 1.09)"><rect class="cls-1" x="14.68" width="222" height="108"/></clipPath></defs><title>Governance</title><g class="cls-2"><g id="Layer_2" data-name="Layer 2"><g id="Layer_1-2" data-name="Layer 1"><rect class="cls-3" x="14.68" y="1.09" width="222" height="108"/><circle class="cls-4" cx="14.68" cy="55.09" r="14.68"/><g class="cls-5"><polygon class="cls-6" points="11.13 59.55 23.94 72.36 30.66 60.1 18.3 47.74 12.27 50.91 11.13 59.55"/></g><path class="cls-7" d="M18.3,49a8.36,8.36,0,0,0-1.18,0c-2.7.2-3.9,1.6-4.24,3.1h.06a3.76,3.76,0,0,1,2.76-1,4,4,0,0,1,4,4.24,4.65,4.65,0,0,1-4.78,4.71c-3.48,0-5.18-2.58-5.18-5.69a7.8,7.8,0,0,1,2.32-5.8,7.72,7.72,0,0,1,5-1.9,6.4,6.4,0,0,1,1.22,0Zm-3.4,8.83c1.06,0,1.74-1,1.74-2.31a2,2,0,0,0-1.94-2.24,2,2,0,0,0-1.78,1.14,1.6,1.6,0,0,0-.14.78c.06,1.38.72,2.63,2.1,2.63Z" transform="translate(0 1.09)"/><g class="cls-8"><path class="cls-9" d="M130.41-1.09a56.87,56.87,0,0,1,15.16,36.23A57.15,57.15,0,0,1,181.75,88.3c0,.86,0,1.71-.06,2.56a57.12,57.12,0,0,0,21-91.95Z" transform="translate(0 1.09)"/><path class="cls-10" d="M46.55-1.09a57.13,57.13,0,0,0,21,92c0-.85-.06-1.7-.06-2.56a57.14,57.14,0,0,1,36.18-53.16A56.91,56.91,0,0,1,118.8-1.09Z" transform="translate(0 1.09)"/><path class="cls-11" d="M118.8-1.09a56.91,56.91,0,0,0-15.15,36.23,57.18,57.18,0,0,1,41.92,0A56.87,56.87,0,0,0,130.41-1.09Z" transform="translate(0 1.09)"/><path class="cls-12" d="M118.8-1.09a56.91,56.91,0,0,0-15.15,36.23,57.18,57.18,0,0,1,41.92,0A56.87,56.87,0,0,0,130.41-1.09Z" transform="translate(0 1.09)"/><path class="cls-13" d="M177.78,109.22a57.15,57.15,0,0,0,3.91-18.36A57.16,57.16,0,0,1,124.61,82a57.16,57.16,0,0,1-57.08,8.88,56.88,56.88,0,0,0,3.91,18.36Z" transform="translate(0 1.09)"/><path class="cls-11" d="M145.57,35.14c0,.85.06,1.7.06,2.56a57,57,0,0,1-21,44.28,57.16,57.16,0,0,0,57.08,8.88c0-.85.06-1.7.06-2.56A57.15,57.15,0,0,0,145.57,35.14Z" transform="translate(0 1.09)"/><path class="cls-14" d="M145.57,35.14c0,.85.06,1.7.06,2.56a57,57,0,0,1-21,44.28,57.16,57.16,0,0,0,57.08,8.88c0-.85.06-1.7.06-2.56A57.15,57.15,0,0,0,145.57,35.14Z" transform="translate(0 1.09)"/><path class="cls-15" d="M124.61,82a57,57,0,0,1-21-44.28c0-.86,0-1.71.07-2.56A57.14,57.14,0,0,0,67.47,88.3c0,.86,0,1.71.06,2.56A57.16,57.16,0,0,0,124.61,82Z" transform="translate(0 1.09)"/><path class="cls-12" d="M124.61,82a57,57,0,0,1-21-44.28c0-.86,0-1.71.07-2.56A57.14,57.14,0,0,0,67.47,88.3c0,.86,0,1.71.06,2.56A57.16,57.16,0,0,0,124.61,82Z" transform="translate(0 1.09)"/><path class="cls-11" d="M103.65,35.14c0,.85-.07,1.7-.07,2.56a57,57,0,0,0,21,44.28,57,57,0,0,0,21-44.28c0-.86,0-1.71-.06-2.56a57.18,57.18,0,0,0-41.92,0Z" transform="translate(0 1.09)"/><path class="cls-15" d="M103.65,35.14c0,.85-.07,1.7-.07,2.56a57,57,0,0,0,21,44.28,57,57,0,0,0,21-44.28c0-.86,0-1.71-.06-2.56a57.18,57.18,0,0,0-41.92,0Z" transform="translate(0 1.09)"/><path class="cls-16" d="M103.65,35.14c0,.85-.07,1.7-.07,2.56a57,57,0,0,0,21,44.28,57,57,0,0,0,21-44.28c0-.86,0-1.71-.06-2.56a57.18,57.18,0,0,0-41.92,0Z" transform="translate(0 1.09)"/><rect class="cls-7" x="113.6" y="59.3" width="22.01" height="3.36"/><rect class="cls-7" x="113.6" y="47.07" width="22.01" height="2.15"/><rect class="cls-7" x="116.51" y="49.22" width="3.36" height="10.08"/><rect class="cls-7" x="122.93" y="49.22" width="3.36" height="10.08"/><rect class="cls-7" x="129.34" y="49.22" width="3.36" height="10.08"/><polygon class="cls-7" points="124.61 40.75 115.5 47.57 133.72 47.57 124.61 40.75"/><rect class="cls-7" x="112.5" y="61.75" width="24.23" height="1.52"/><rect class="cls-7" x="122.11" y="57.97" width="4.99" height="1.52"/><rect class="cls-7" x="128.53" y="57.97" width="4.99" height="1.52"/><rect class="cls-7" x="115.7" y="57.97" width="4.99" height="1.52"/><rect class="cls-7" x="122.11" y="48.97" width="4.99" height="1.52"/><rect class="cls-7" x="128.53" y="48.97" width="4.99" height="1.52"/><rect class="cls-7" x="115.7" y="48.97" width="4.99" height="1.52"/></g></g></g></g></svg>