<svg xmlns="http://www.w3.org/2000/svg" xmlns:xlink="http://www.w3.org/1999/xlink" viewBox="0 0 236.63 108"><defs><style>.cls-1{fill:none;}.cls-2{fill:#f5f6fa;}.cls-3{fill:#0e9de5;}.cls-4{clip-path:url(#clip-path);}.cls-5{fill:#041742;}.cls-6{fill:#fff;}.cls-7{fill:#9ee7ff;}.cls-8{fill:#6ef9b7;}.cls-9{fill:#26db8d;}</style><clipPath id="clip-path"><circle class="cls-1" cx="14.68" cy="54" r="14.68"/></clipPath></defs><title>mining</title><g id="Layer_2" data-name="Layer 2"><g id="Layer_1-2" data-name="Layer 1"><rect class="cls-2" x="14.63" width="222" height="108"/><circle class="cls-3" cx="14.68" cy="54" r="14.68"/><g class="cls-4"><polygon class="cls-5" points="11.13 58.46 23.94 71.27 30.66 59.01 18.3 46.64 12.27 49.82 11.13 58.46"/></g><path class="cls-6" d="M18.3,49a8.36,8.36,0,0,0-1.18,0c-2.7.2-3.9,1.6-4.24,3.1h.06a3.76,3.76,0,0,1,2.76-1,4,4,0,0,1,4,4.24,4.65,4.65,0,0,1-4.78,4.71c-3.48,0-5.18-2.58-5.18-5.69a7.8,7.8,0,0,1,2.32-5.8,7.72,7.72,0,0,1,5-1.9,6.4,6.4,0,0,1,1.22,0Zm-3.4,8.83c1.06,0,1.74-1,1.74-2.31a2,2,0,0,0-1.94-2.24,2,2,0,0,0-1.78,1.14,1.6,1.6,0,0,0-.14.78c.06,1.38.72,2.63,2.1,2.63Z"/><circle class="cls-6" cx="74.85" cy="39.89" r="35.96"/><circle class="cls-6" cx="170.7" cy="39.32" r="32.27"/><circle class="cls-6" cx="128.16" cy="79.03" r="20.18"/><path class="cls-7" d="M99.46,28.55l1.64-1.64-2.74-2.74c-.58-.59.07-1.91,1.54-3.5h0a3.44,3.44,0,0,1,.27-.27h0A21.42,21.42,0,0,1,102,18.67l0,0a35.25,35.25,0,0,1,12.81-6.76,8.58,8.58,0,0,0-1.23-3.41,17.66,17.66,0,0,0-2.23-3.11A145.2,145.2,0,0,0,93.81,19.63L93.19,19l-9,9,.63.63c-11,11.71-18.61,22.91-20.38,29.48l2.63-.84c3.34-5.86,13.68-19.13,22-24.38l3,3,1.37-1.36h0L96.92,38h0l63.17,63.17,6-6Z"/><polygon class="cls-8" points="172.47 34.27 169.56 14.8 150.09 11.88 132.69 29.28 131.98 28.58 130.07 30.48 130.78 31.19 130.78 31.19 139.24 39.66 133.41 45.49 138.86 50.95 144.7 45.11 153.16 53.58 153.87 54.29 155.78 52.38 155.07 51.67 172.47 34.27"/><path class="cls-9" d="M133.84,45.93l-1,1h0l-24.32,24.3L107.23,70l-7.44,7.44-2,2-9-1.3-5.65,5.66,1.38,1.38,1.65-1.64-1,1L99.79,99.2l1.49-1.49L99.2,99.79l1.38,1.38,5.66-5.65-1.3-9,2-2h0l7.44-7.44-1.27-1.27,25.35-25.35ZM102.73,85.57l1.46,9.23-1.39,1.39L88.16,81.55l1.39-1.38,9.23,1.46,2.59-2.6,3.95,4Z"/></g></g></svg>