<svg width="237" height="110" viewBox="0 0 237 110" fill="none" xmlns="http://www.w3.org/2000/svg">
<g clip-path="url(#clip0)">
<path d="M236.63 0.580078H14.6299V108.58H236.63V0.580078Z" fill="#F5F6FA"/>
<path d="M14.68 69.2604C22.7875 69.2604 29.36 62.6879 29.36 54.5804C29.36 46.4729 22.7875 39.9004 14.68 39.9004C6.57246 39.9004 0 46.4729 0 54.5804C0 62.6879 6.57246 69.2604 14.68 69.2604Z" fill="#0E9DE5"/>
<path d="M64.8899 82.39L98.3799 109.73H103.43L67.1899 80.14L37.8199 19.02L101.24 0H90.1099L35.1099 16.49L34.1299 18.72L64.4599 81.85L64.8899 82.39Z" fill="#9EE7FF"/>
<path d="M210.9 48.42L173.18 85.99L135.54 109.73H141.54L175.03 88.6L214.27 49.59L214.3 47.35L181.43 12.79L161.33 0H155.41L179.25 15.13L210.9 48.42Z" fill="#9EE7FF"/>
<path d="M137.54 29.04L138.81 0H135.61L134.24 31.36L136.42 32.91L180.86 15.38L179.69 12.4L137.54 29.04Z" fill="#9EE7FF"/>
<path d="M174 88.8395L117.13 82.7495L115.8 80.5995L134.32 30.8695L137.14 30.5195L175.5 86.3395L174 88.8395ZM119.52 79.8395L170.88 85.3395L136.26 34.8695L119.52 79.8395Z" fill="#9EE7FF"/>
<path d="M117.31 82.7597H65.9097L64.6797 80.1297L104.18 33.2197L106.96 33.8597L118.86 80.7597L117.31 82.7597ZM69.3097 79.5597H115.23L104.59 37.6597L69.3097 79.5597Z" fill="#9EE7FF"/>
<path d="M100.01 0L103.57 32.18L35.94 16.47L35.21 19.58L105.05 35.8L107 34.07L103.23 0H100.01Z" fill="#9EE7FF"/>
<path d="M135.681 29.8355L105.253 32.6689L105.55 35.8552L135.978 33.0217L135.681 29.8355Z" fill="#9EE7FF"/>
<path d="M118.91 81.1602H115.71V109.74H118.91V81.1602Z" fill="#9EE7FF"/>
<path d="M135.83 41.5198C141.403 41.5198 145.92 37.0024 145.92 31.4298C145.92 25.8573 141.403 21.3398 135.83 21.3398C130.258 21.3398 125.74 25.8573 125.74 31.4298C125.74 37.0024 130.258 41.5198 135.83 41.5198Z" fill="#6EF9B7"/>
<path d="M135.83 42.5403C133.632 42.5403 131.484 41.8887 129.657 40.6679C127.83 39.4472 126.406 37.712 125.565 35.6819C124.725 33.6518 124.505 31.418 124.933 29.2629C125.362 27.1077 126.42 25.1281 127.974 23.5744C129.528 22.0206 131.507 20.9625 133.662 20.5338C135.817 20.1051 138.051 20.3251 140.081 21.166C142.111 22.0069 143.847 23.4309 145.067 25.2579C146.288 27.085 146.94 29.233 146.94 31.4303C146.937 34.3761 145.766 37.2004 143.683 39.2833C141.6 41.3663 138.775 42.5377 135.83 42.5403ZM135.83 22.3603C134.036 22.3603 132.282 22.8923 130.791 23.8889C129.299 24.8855 128.137 26.3021 127.45 27.9594C126.764 29.6167 126.584 31.4404 126.934 33.1998C127.284 34.9592 128.148 36.5753 129.416 37.8438C130.685 39.1122 132.301 39.9761 134.06 40.326C135.82 40.676 137.643 40.4964 139.301 39.8099C140.958 39.1234 142.375 37.9609 143.371 36.4693C144.368 34.9778 144.9 33.2242 144.9 31.4303C144.9 29.0248 143.944 26.7178 142.243 25.0169C140.542 23.3159 138.235 22.3603 135.83 22.3603Z" fill="white"/>
<path d="M180.27 3.7998C178.274 3.7998 176.323 4.39157 174.664 5.50028C173.005 6.60898 171.711 8.18482 170.948 10.0285C170.184 11.8722 169.984 13.901 170.374 15.8583C170.763 17.8155 171.724 19.6134 173.135 21.0245C174.546 22.4356 176.344 23.3966 178.301 23.7859C180.259 24.1753 182.287 23.9754 184.131 23.2118C185.975 22.4481 187.551 21.1548 188.659 19.4955C189.768 17.8362 190.36 15.8854 190.36 13.8898C190.354 11.2154 189.29 8.65203 187.399 6.76094C185.507 4.86984 182.944 3.80509 180.27 3.7998V3.7998Z" fill="#88DBF2"/>
<path d="M180.27 25.0003C178.073 25.0003 175.925 24.3487 174.098 23.1279C172.271 21.9071 170.847 20.172 170.006 18.1419C169.165 16.1118 168.945 13.878 169.374 11.7228C169.802 9.5677 170.86 7.58808 172.414 6.03432C173.968 4.48056 175.948 3.42244 178.103 2.99375C180.258 2.56507 182.492 2.78509 184.522 3.62598C186.552 4.46687 188.287 5.89086 189.508 7.71789C190.729 9.54492 191.38 11.6929 191.38 13.8903C191.375 16.8352 190.203 19.658 188.12 21.7404C186.038 23.8228 183.215 24.995 180.27 25.0003ZM180.27 4.82028C178.476 4.82028 176.723 5.35222 175.231 6.34885C173.74 7.34547 172.577 8.76201 171.891 10.4193C171.204 12.0767 171.024 13.9003 171.374 15.6597C171.724 17.4192 172.588 19.0353 173.857 20.3037C175.125 21.5722 176.741 22.436 178.501 22.786C180.26 23.136 182.084 22.9564 183.741 22.2699C185.398 21.5834 186.815 20.4209 187.812 18.9293C188.808 17.4377 189.34 15.6842 189.34 13.8903C189.338 11.4856 188.381 9.18012 186.681 7.47974C184.98 5.77936 182.675 4.82293 180.27 4.82028V4.82028Z" fill="white"/>
<path d="M115.49 34.2502C115.49 32.2541 114.898 30.3029 113.788 28.6434C112.679 26.9839 111.103 25.6907 109.259 24.9273C107.414 24.1639 105.385 23.9646 103.427 24.3548C101.47 24.7449 99.672 25.7069 98.2613 27.119C96.8506 28.5311 95.8904 30.3299 95.5022 32.2878C95.114 34.2458 95.3153 36.2748 96.0805 38.1184C96.8457 39.9619 98.1405 41.537 99.8012 42.6445C101.462 43.752 103.414 44.3421 105.41 44.3402C108.083 44.3349 110.645 43.2698 112.535 41.3784C114.424 39.487 115.487 36.9236 115.49 34.2502V34.2502Z" fill="#88DBF2"/>
<path d="M105.41 45.3596C103.212 45.3616 101.063 44.7117 99.2349 43.4921C97.4066 42.2726 95.981 40.5381 95.1386 38.5082C94.2962 36.4783 94.0747 34.2441 94.5023 32.0883C94.9299 29.9325 95.9872 27.952 97.5405 26.3972C99.0939 24.8425 101.074 23.7834 103.229 23.3539C105.384 22.9244 107.619 23.1438 109.649 23.9844C111.68 24.825 113.416 26.249 114.637 28.0762C115.858 29.9035 116.51 32.0519 116.51 34.2496C116.507 37.1937 115.337 40.0165 113.257 42.0992C111.176 44.1818 108.354 45.3544 105.41 45.3596V45.3596ZM105.41 25.1796C103.616 25.1777 101.861 25.7079 100.368 26.7034C98.8754 27.6988 97.7113 29.1146 97.0233 30.7718C96.3353 32.4289 96.1543 34.2529 96.5031 36.013C96.8519 37.773 97.715 39.3901 98.983 40.6596C100.251 41.929 101.867 42.7939 103.627 43.1446C105.387 43.4954 107.211 43.3164 108.869 42.6302C110.527 41.944 111.944 40.7815 112.941 39.2897C113.938 37.7979 114.47 36.044 114.47 34.2496C114.467 31.8467 113.512 29.5427 111.814 27.8426C110.116 26.1425 107.813 25.1849 105.41 25.1796Z" fill="white"/>
<path d="M35.5704 7.94043C33.5735 7.94044 31.6216 8.53297 29.9616 9.64301C28.3017 10.753 27.0084 12.3307 26.2456 14.1761C25.4828 16.0216 25.2848 18.0519 25.6766 20.01C26.0683 21.968 27.0323 23.7658 28.4464 25.1758C29.8605 26.5857 31.6612 27.5443 33.6204 27.9302C35.5797 28.3161 37.6094 28.112 39.4525 27.3437C41.2957 26.5754 42.8695 25.2775 43.9746 23.6143C45.0796 21.951 45.6664 19.9973 45.6604 18.0004C45.6525 15.3296 44.5859 12.7709 42.6945 10.8851C40.8032 8.99935 38.2413 7.94042 35.5704 7.94043V7.94043Z" fill="#26DB8D"/>
<path d="M35.5699 29.1302C33.3735 29.1302 31.2262 28.4791 29.3996 27.2592C27.5731 26.0393 26.149 24.3053 25.3076 22.2764C24.4661 20.2475 24.2449 18.0146 24.672 15.8601C25.099 13.7055 26.1552 11.7258 27.7069 10.1713C29.2587 8.61672 31.2365 7.55702 33.3903 7.12608C35.5441 6.69514 37.7773 6.91231 39.8077 7.75013C41.8382 8.58795 43.5747 10.0088 44.7979 11.8332C46.021 13.6576 46.676 15.8037 46.6799 18.0002C46.6813 19.4605 46.3949 20.9067 45.8373 22.2564C45.2797 23.606 44.4617 24.8326 43.43 25.8661C42.3984 26.8996 41.1733 27.7198 39.8246 28.2799C38.476 28.8399 37.0302 29.1288 35.5699 29.1302V29.1302ZM35.5699 9.00016C33.7731 9.00021 32.0168 9.53397 30.5237 10.5337C29.0307 11.5335 27.8683 12.9542 27.1839 14.6156C26.4995 16.277 26.324 18.1042 26.6797 19.8655C27.0354 21.6268 27.9062 23.2428 29.1817 24.5084C30.4571 25.774 32.0798 26.6323 33.8438 26.9743C35.6078 27.3164 37.4336 27.1267 39.0897 26.4295C40.7457 25.7323 42.1574 24.5588 43.1455 23.0581C44.1337 21.5574 44.6538 19.797 44.6399 18.0002C44.6241 15.606 43.6612 13.3154 41.9617 11.629C40.2621 9.94259 37.9642 8.99747 35.5699 9.00016V9.00016Z" fill="white"/>
<path d="M65.9103 91.2503C71.4829 91.2503 76.0003 86.7329 76.0003 81.1603C76.0003 75.5878 71.4829 71.0703 65.9103 71.0703C60.3378 71.0703 55.8203 75.5878 55.8203 81.1603C55.8203 86.7329 60.3378 91.2503 65.9103 91.2503Z" fill="#88DBF2"/>
<path d="M65.9103 92.26C63.7117 92.264 61.5613 91.6155 59.7314 90.3967C57.9015 89.1779 56.4744 87.4435 55.6308 85.4132C54.7871 83.3829 54.5648 81.1479 54.992 78.9912C55.4193 76.8345 56.4768 74.853 58.0308 73.2976C59.5847 71.7423 61.5653 70.6829 63.7216 70.2538C65.8779 69.8246 68.1131 70.0449 70.1442 70.8867C72.1753 71.7285 73.9109 73.1541 75.1314 74.9828C76.3518 76.8116 77.0023 78.9614 77.0003 81.16C76.995 84.1006 75.8252 86.9193 73.7469 88.9996C71.6685 91.0798 68.8508 92.2521 65.9103 92.26V92.26ZM65.9103 72.09C64.1173 72.094 62.3656 72.6293 60.8767 73.6283C59.3878 74.6273 58.2284 76.0453 57.545 77.7029C56.8615 79.3606 56.6848 81.1836 57.037 82.9417C57.3892 84.6998 58.2546 86.3141 59.5239 87.5805C60.7931 88.847 62.4093 89.7088 64.1682 90.0572C65.927 90.4055 67.7497 90.2248 69.4058 89.5377C71.062 88.8506 72.4773 87.6881 73.4731 86.197C74.4688 84.7058 75.0003 82.9531 75.0003 81.16C74.999 79.9676 74.7628 78.7872 74.3053 77.686C73.8477 76.5849 73.1778 75.5847 72.3337 74.7424C71.4896 73.9002 70.4879 73.2325 69.3858 72.7774C68.2837 72.3223 67.1027 72.0887 65.9103 72.09V72.09Z" fill="white"/>
<path d="M117.31 70.9004C115.315 70.9004 113.364 71.4919 111.705 72.6002C110.046 73.7084 108.753 75.2837 107.989 77.1268C107.225 78.9699 107.024 80.9982 107.413 82.9552C107.801 84.9122 108.761 86.71 110.171 88.1216C111.582 89.5331 113.379 90.4948 115.335 90.8853C117.292 91.2757 119.32 91.0774 121.164 90.3152C123.008 89.553 124.584 88.2613 125.694 86.6034C126.804 84.9454 127.398 82.9956 127.4 81.0004C127.397 78.3242 126.334 75.7583 124.442 73.8651C122.551 71.9718 119.986 70.9057 117.31 70.9004V70.9004Z" fill="#26DB8D"/>
<path d="M117.31 92.0999C115.112 92.0999 112.964 91.448 111.137 90.2268C109.31 89.0056 107.886 87.2699 107.045 85.2392C106.204 83.2085 105.985 80.9742 106.414 78.8188C106.844 76.6634 107.903 74.6838 109.458 73.1304C111.013 71.577 112.993 70.5197 115.149 70.0921C117.305 69.6646 119.539 69.886 121.569 70.7285C123.599 71.5709 125.333 72.9964 126.553 74.8248C127.772 76.6531 128.422 78.8021 128.42 80.9999C128.415 83.9439 127.242 86.7657 125.16 88.8465C123.077 90.9273 120.254 92.0972 117.31 92.0999V92.0999ZM117.31 71.9199C115.517 71.9199 113.764 72.4516 112.272 73.4478C110.781 74.4439 109.618 75.8599 108.932 77.5166C108.245 79.1734 108.065 80.9965 108.414 82.7557C108.763 84.5148 109.626 86.131 110.893 87.3998C112.161 88.6687 113.776 89.5333 115.535 89.8844C117.293 90.2355 119.117 90.0573 120.774 89.3723C122.432 88.6874 123.849 87.5264 124.847 86.0362C125.845 84.5459 126.378 82.7933 126.38 80.9999C126.38 78.5935 125.425 76.2854 123.724 74.5829C122.024 72.8803 119.717 71.9225 117.31 71.9199V71.9199Z" fill="white"/>
<path d="M174.18 77.1602C172.184 77.1602 170.233 77.7519 168.574 78.8606C166.915 79.9693 165.622 81.5452 164.858 83.3889C164.094 85.2326 163.894 87.2613 164.284 89.2186C164.673 91.1759 165.634 92.9737 167.045 94.3849C168.456 95.796 170.254 96.757 172.211 97.1463C174.169 97.5356 176.197 97.3358 178.041 96.5721C179.885 95.8084 181.461 94.5151 182.569 92.8559C183.678 91.1966 184.27 89.2458 184.27 87.2502C184.267 84.5749 183.203 82.01 181.312 80.1184C179.42 78.2267 176.855 77.1628 174.18 77.1602V77.1602Z" fill="#6EF9B7"/>
<path d="M174.18 98.3597C171.983 98.3597 169.835 97.7081 168.008 96.4873C166.181 95.2665 164.757 93.5313 163.916 91.5013C163.075 89.4712 162.855 87.2373 163.284 85.0822C163.712 82.9271 164.771 80.9475 166.324 79.3937C167.878 77.8399 169.858 76.7818 172.013 76.3531C174.168 75.9244 176.402 76.1445 178.432 76.9853C180.462 77.8262 182.197 79.2502 183.418 81.0773C184.639 82.9043 185.29 85.0523 185.29 87.2497C185.285 90.1946 184.113 93.0174 182.03 95.0998C179.948 97.1821 177.125 98.3544 174.18 98.3597V98.3597ZM174.18 78.1797C172.386 78.1797 170.633 78.7116 169.141 79.7082C167.65 80.7048 166.487 82.1214 165.801 83.7787C165.114 85.436 164.935 87.2597 165.285 89.0191C165.635 90.7785 166.498 92.3947 167.767 93.6631C169.035 94.9316 170.651 95.7954 172.411 96.1454C174.17 96.4953 175.994 96.3157 177.651 95.6292C179.309 94.9428 180.725 93.7802 181.722 92.2887C182.718 90.7971 183.25 89.0435 183.25 87.2497C183.248 84.845 182.291 82.5395 180.591 80.8391C178.89 79.1387 176.585 78.1823 174.18 78.1797V78.1797Z" fill="white"/>
<path d="M213.14 58.5404C218.712 58.5404 223.23 54.0229 223.23 48.4504C223.23 42.8778 218.712 38.3604 213.14 38.3604C207.567 38.3604 203.05 42.8778 203.05 48.4504C203.05 54.0229 207.567 58.5404 213.14 58.5404Z" fill="#26DB8D"/>
<path d="M213.14 59.5599C210.943 59.5599 208.795 58.9083 206.968 57.6875C205.141 56.4667 203.717 54.7316 202.876 52.7015C202.035 50.6714 201.815 48.4375 202.244 46.2824C202.672 44.1273 203.731 42.1477 205.284 40.5939C206.838 39.0401 208.818 37.982 210.973 37.5533C213.128 37.1246 215.362 37.3447 217.392 38.1855C219.422 39.0264 221.157 40.4504 222.378 42.2775C223.599 44.1045 224.25 46.2525 224.25 48.4499C224.248 51.3956 223.076 54.2199 220.993 56.3029C218.91 58.3858 216.086 59.5572 213.14 59.5599V59.5599ZM213.14 39.3799C211.346 39.3799 209.593 39.9118 208.101 40.9084C206.61 41.905 205.447 43.3216 204.761 44.9789C204.074 46.6362 203.895 48.4599 204.245 50.2193C204.595 51.9787 205.458 53.5948 206.727 54.8633C207.995 56.1318 209.611 56.9956 211.371 57.3456C213.13 57.6955 214.954 57.5159 216.611 56.8294C218.269 56.1429 219.685 54.9804 220.682 53.4889C221.678 51.9973 222.21 50.2437 222.21 48.4499C222.208 46.0451 221.251 43.7397 219.551 42.0393C217.85 40.3389 215.545 39.3825 213.14 39.3799V39.3799Z" fill="white"/>
<path d="M91.5 0C91.9108 2.33734 93.1307 4.45568 94.9461 5.9841C96.7616 7.51251 99.0568 8.35357 101.43 8.36C103.804 8.35751 106.102 7.51786 107.918 5.98877C109.734 4.45967 110.953 2.33907 111.36 0L91.5 0Z" fill="#6EF9B7"/>
<path d="M110.33 0C109.927 2.0652 108.819 3.92624 107.195 5.26504C105.572 6.60384 103.534 7.33728 101.43 7.34C99.3255 7.33728 97.2876 6.60384 95.6643 5.26504C94.0409 3.92624 92.9329 2.0652 92.5297 0L90.4697 0C90.8845 2.6179 92.2207 5.00156 94.2375 6.72138C96.2544 8.4412 98.8192 9.38405 101.47 9.38C104.121 9.38814 106.688 8.44674 108.706 6.7262C110.724 5.00566 112.059 2.61965 112.47 0L110.33 0Z" fill="white"/>
<path d="M18.6418 48L30.2188 59.563L26.161 71.1727L23.4714 73.8707L10 60.4156L15.4143 59.5162L10.6666 54.7859L12.6428 49.2497L18.6418 48Z" fill="#041742"/>
<path d="M18.6418 50.4879H13.6251L13.3445 52.4734C13.6251 52.4734 13.859 52.4734 14.1747 52.4734C15.3823 52.4249 16.5752 52.7514 17.5894 53.4078C18.1057 53.7682 18.5209 54.2549 18.7953 54.8213C19.0696 55.3878 19.1939 56.015 19.1563 56.6431C19.1563 59.0491 17.0865 61.1865 13.6017 61.1865C12.3608 61.2172 11.1292 60.9656 10 60.4507L10.5613 58.1498C11.4794 58.554 12.4698 58.7686 13.4731 58.7805C14.7243 58.7805 16.0575 58.1848 16.0575 56.8066C16.0575 55.4284 15.005 54.6575 12.4206 54.6575C11.8373 54.6521 11.2545 54.695 10.6782 54.786L11.5085 48.0234H18.6418V50.4879Z" fill="white"/>
</g>
<defs>
<clipPath id="clip0">
<rect width="236.63" height="109.73" fill="white"/>
</clipPath>
</defs>
</svg>
