<svg xmlns="http://www.w3.org/2000/svg" xmlns:xlink="http://www.w3.org/1999/xlink" viewBox="0 0 236.63 109.73"><defs><style>.cls-1{fill:none;}.cls-2{fill:#f5f6fa;}.cls-3{clip-path:url(#clip-path);}.cls-4{fill:#9ee7ff;}.cls-5{fill:#6ef9b7;}.cls-6{fill:#fff;}.cls-7{fill:#88dbf2;}.cls-8{fill:#26db8d;}.cls-9{fill:#0e9de5;}.cls-10{clip-path:url(#clip-path-2);}.cls-11{fill:#041742;}</style><clipPath id="clip-path" transform="translate(0 0.58)"><rect class="cls-1" x="14.63" width="222" height="108"/></clipPath><clipPath id="clip-path-2" transform="translate(0 0.58)"><circle class="cls-1" cx="14.68" cy="54" r="14.68"/></clipPath></defs><title>PtP</title><g id="Layer_2" data-name="Layer 2"><g id="Layer_1-2" data-name="Layer 1"><rect class="cls-2" x="14.63" y="0.58" width="222" height="108"/><g class="cls-3"><polygon class="cls-4" points="64.89 82.39 98.38 109.73 103.43 109.73 67.19 80.14 37.82 19.02 101.24 0 90.11 0 35.11 16.49 34.13 18.72 64.46 81.85 64.89 82.39"/><polygon class="cls-4" points="210.9 48.42 173.18 85.99 135.54 109.73 141.54 109.73 175.03 88.6 214.27 49.59 214.3 47.35 181.43 12.79 161.33 0 155.41 0 179.25 15.13 210.9 48.42"/><polygon class="cls-4" points="137.54 29.04 138.81 0 135.61 0 134.24 31.36 136.42 32.91 180.86 15.38 179.69 12.4 137.54 29.04"/><path class="cls-4" d="M174,88.26l-56.87-6.09L115.81,80l18.52-49.73,2.82-.35L175.5,85.76Zm-54.48-9.05,51.36,5.5L136.26,34.29Z" transform="translate(0 0.58)"/><path class="cls-4" d="M117.31,82.18H65.91l-1.23-2.63,39.5-46.91,2.78.63,11.9,46.91Zm-48-3.2h45.92l-10.64-41.9Z" transform="translate(0 0.58)"/><polygon class="cls-4" points="100.01 0 103.57 32.18 35.94 16.47 35.21 19.58 105.05 35.8 107 34.07 103.23 0 100.01 0"/><rect class="cls-4" x="105.34" y="30.66" width="30.56" height="3.2" transform="translate(-2.47 11.91) rotate(-5.32)"/><rect class="cls-4" x="115.71" y="81.16" width="3.2" height="28.58"/><circle class="cls-5" cx="135.83" cy="31.43" r="10.09"/><path class="cls-6" d="M135.83,42a11.11,11.11,0,1,1,11.11-11.1A11.11,11.11,0,0,1,135.83,42Zm0-20.17a9.07,9.07,0,1,0,9.07,9.07A9.07,9.07,0,0,0,135.83,21.78Z" transform="translate(0 0.58)"/><path class="cls-7" d="M180.27,3.22a10.09,10.09,0,1,0,10.09,10.09A10.1,10.1,0,0,0,180.27,3.22Z" transform="translate(0 0.58)"/><path class="cls-6" d="M180.27,24.42a11.11,11.11,0,1,1,11.11-11.11A11.13,11.13,0,0,1,180.27,24.42Zm0-20.18a9.07,9.07,0,1,0,9.07,9.07A9.08,9.08,0,0,0,180.27,4.24Z" transform="translate(0 0.58)"/><path class="cls-7" d="M115.49,33.67a10.09,10.09,0,1,0-10.08,10.09A10.1,10.1,0,0,0,115.49,33.67Z" transform="translate(0 0.58)"/><path class="cls-6" d="M105.41,44.78a11.11,11.11,0,1,1,11.1-11.11A11.12,11.12,0,0,1,105.41,44.78Zm0-20.18a9.07,9.07,0,1,0,9.06,9.07A9.08,9.08,0,0,0,105.41,24.6Z" transform="translate(0 0.58)"/><path class="cls-8" d="M35.57,7.36A10.09,10.09,0,1,0,45.66,17.44,10.09,10.09,0,0,0,35.57,7.36Z" transform="translate(0 0.58)"/><path class="cls-6" d="M35.57,28.55A11.11,11.11,0,1,1,46.68,17.44,11.12,11.12,0,0,1,35.57,28.55Zm0-20.17a9.07,9.07,0,1,0,9.07,9.06A9.06,9.06,0,0,0,35.57,8.38Z" transform="translate(0 0.58)"/><circle class="cls-7" cx="65.91" cy="81.16" r="10.09"/><path class="cls-6" d="M65.91,91.68A11.11,11.11,0,1,1,77,80.58,11.12,11.12,0,0,1,65.91,91.68Zm0-20.17A9.07,9.07,0,1,0,75,80.58,9.08,9.08,0,0,0,65.91,71.51Z" transform="translate(0 0.58)"/><path class="cls-8" d="M117.31,70.32A10.09,10.09,0,1,0,127.4,80.41,10.11,10.11,0,0,0,117.31,70.32Z" transform="translate(0 0.58)"/><path class="cls-6" d="M117.31,91.52a11.11,11.11,0,1,1,11.11-11.11A11.12,11.12,0,0,1,117.31,91.52Zm0-20.18a9.07,9.07,0,1,0,9.07,9.07A9.08,9.08,0,0,0,117.31,71.34Z" transform="translate(0 0.58)"/><path class="cls-5" d="M174.18,76.58a10.09,10.09,0,1,0,10.09,10.09A10.1,10.1,0,0,0,174.18,76.58Z" transform="translate(0 0.58)"/><path class="cls-6" d="M174.18,97.78a11.11,11.11,0,1,1,11.11-11.11A11.13,11.13,0,0,1,174.18,97.78Zm0-20.18a9.07,9.07,0,1,0,9.07,9.07A9.08,9.08,0,0,0,174.18,77.6Z" transform="translate(0 0.58)"/><circle class="cls-8" cx="213.14" cy="48.45" r="10.09"/><path class="cls-6" d="M213.14,59a11.11,11.11,0,1,1,11.11-11.11A11.12,11.12,0,0,1,213.14,59Zm0-20.18a9.07,9.07,0,1,0,9.07,9.07A9.08,9.08,0,0,0,213.14,38.8Z" transform="translate(0 0.58)"/><path class="cls-5" d="M91.5-.58a10.11,10.11,0,0,0,9.93,8.36,10.09,10.09,0,0,0,9.93-8.36Z" transform="translate(0 0.58)"/><path class="cls-6" d="M110.33-.58a9.08,9.08,0,0,1-8.9,7.34,9.08,9.08,0,0,1-8.9-7.34H90.47a11.12,11.12,0,0,0,11,9.38,11.1,11.1,0,0,0,11-9.38Z" transform="translate(0 0.58)"/></g><circle class="cls-9" cx="14.68" cy="54.58" r="14.68"/><path class="cls-6" d="M18.68,49.32h-5l-.28,2c.28,0,.52,0,.84,0a5.9,5.9,0,0,1,3.42.94,3.7,3.7,0,0,1,1.58,3.26c0,2.42-2.08,4.57-5.58,4.57A8.26,8.26,0,0,1,10,59.31L10.56,57a7.09,7.09,0,0,0,2.92.65c1.26,0,2.6-.61,2.6-2S15,53.52,12.42,53.52a10.78,10.78,0,0,0-1.74.12l.84-6.82h7.16Z" transform="translate(0 0.58)"/><g class="cls-10"><polygon class="cls-11" points="18.68 47.4 30.3 59.03 26.23 70.7 23.52 73.41 10 59.88 15.44 58.98 10.68 54.22 12.65 48.66 18.68 47.4"/></g><path class="cls-6" d="M18.68,49.32h-5l-.28,2c.28,0,.52,0,.84,0a5.9,5.9,0,0,1,3.42.94,3.7,3.7,0,0,1,1.58,3.26c0,2.42-2.08,4.57-5.58,4.57A8.26,8.26,0,0,1,10,59.31L10.56,57a7.09,7.09,0,0,0,2.92.65c1.26,0,2.6-.61,2.6-2S15,53.52,12.42,53.52a10.78,10.78,0,0,0-1.74.12l.84-6.82h7.16Z" transform="translate(0 0.58)"/></g></g></svg>