<svg xmlns="http://www.w3.org/2000/svg" xmlns:xlink="http://www.w3.org/1999/xlink" viewBox="0 0 236.63 109.66"><defs><style>.cls-1{fill:none;}.cls-2{fill:#f5f6fa;}.cls-3{fill:#0e9de5;}.cls-4{clip-path:url(#clip-path);}.cls-5{fill:#041742;}.cls-6{fill:#fff;}.cls-7{clip-path:url(#clip-path-2);}.cls-8{fill:#26db8d;}.cls-9{fill:#e4eaf4;}.cls-10{fill:#6ef9b7;}.cls-11{fill:#9ee7ff;}.cls-12{fill:#d2dbeb;}</style><clipPath id="clip-path"><circle class="cls-1" cx="14.68" cy="55.33" r="14.68"/></clipPath><clipPath id="clip-path-2"><rect class="cls-1" x="14.63" y="1.33" width="222" height="108"/></clipPath></defs><title>PKC</title><g id="Layer_2" data-name="Layer 2"><g id="Layer_1-2" data-name="Layer 1"><rect class="cls-2" x="14.63" y="1.33" width="222" height="108"/><circle class="cls-3" cx="14.68" cy="55.33" r="14.68"/><g class="cls-4"><polygon class="cls-5" points="18.46 49.77 29.6 60.9 21.89 72.21 20.38 70.77 10.09 60.47 16.25 59.36 12.27 55.37 14.41 54.39 11.13 51.11 11.46 49.24 14.68 48.75 18.46 49.77"/></g><path class="cls-6" d="M10.71,58.17a6.88,6.88,0,0,0,3,.8c1.58,0,2.38-.76,2.38-1.72,0-1.3-1.28-1.88-2.6-1.88H12.27V53.19h1.18c1,0,2.3-.4,2.3-1.5,0-.78-.62-1.36-1.92-1.36a5.77,5.77,0,0,0-2.7.78l-.62-2.2a8.09,8.09,0,0,1,4-1c2.76,0,4.3,1.46,4.3,3.24a3.1,3.1,0,0,1-2.38,3v0a3.23,3.23,0,0,1,2.82,3.18c0,2.28-2,4-5.32,4a7.92,7.92,0,0,1-3.86-.9Z"/><g class="cls-7"><path class="cls-8" d="M148.1,28a44.58,44.58,0,0,0-4.82-19.14A45.24,45.24,0,0,0,137.74.4C131.52.23,125.31.09,119.09.05,103,0,86.94,0,70.86.08h-2a45,45,0,0,0,54.72,69.24A44.67,44.67,0,0,0,138.5,57l11.62,2.74L158,56.5c.08,0,4.07,7.33,4.07,7.33l4.7,2.41S175.1,62,175,62.08h0l4.28,8.11L185,71.63l7.5-3.7s3.12,7.27,4.14,7.65c6.44,2.4,10.93,3.93,10.93,3.93l19.49-9.94s-9.86-19.29-9.86-19.29ZM96.55,34.89a10.67,10.67,0,1,1,4.73-14.37A10.7,10.7,0,0,1,96.55,34.89Z"/><path class="cls-9" d="M78.32,32.2A15,15,0,1,0,84.89,12,15,15,0,0,0,78.32,32.2Zm19.1-9.71a6.43,6.43,0,1,1-8.64-2.82,6.42,6.42,0,0,1,8.64,2.82Z"/><path class="cls-10" d="M225.15,65.76l-9.71-19.1L147.82,23.93a45.06,45.06,0,0,1-1,16.26Z"/><path class="cls-11" d="M97.08,82.16a44.8,44.8,0,0,0,18.41-5.9l9.79,6.83,8.57-.12c.07.06,1.07,8.32,1.07,8.32l3.48,4s9.28-.89,9.16-.84h0l1,9.11,4.76,3.44,8.33-.68s0,1.56.16,3.35h30.32c-.5-5.34-1-10.63-1-10.63l-56-46.25a44.86,44.86,0,0,0-17-52.73C102.37,0,86.62,0,70.86.08H67.71A45,45,0,0,0,97.08,82.16ZM82.72,18.94A10.67,10.67,0,1,1,73,30.55,10.7,10.7,0,0,1,82.72,18.94Z"/><path class="cls-12" d="M68.73,31A15,15,0,1,0,82.29,14.64,15,15,0,0,0,68.73,31Zm21.34-2a6.43,6.43,0,1,1-7-5.81,6.44,6.44,0,0,1,7,5.81Z"/><path class="cls-12" d="M192.18,109.66,190.83,95,136.38,48.93a45.07,45.07,0,0,1-7,14.72l55.34,46Z"/><path class="cls-6" d="M83,27.07A29,29,0,0,1,35.11,5.16a29.33,29.33,0,0,1,.4-4.8c-2,0-4,.08-6.07.06a33.69,33.69,0,0,0-.33,4.74,35,35,0,0,0,57.8,26.45A3,3,0,0,0,83,27.07Z"/></g></g></g></svg>