<svg xmlns="http://www.w3.org/2000/svg" xmlns:xlink="http://www.w3.org/1999/xlink" viewBox="0 0 236.68 108"><defs><style>.cls-1{fill:none;}.cls-2{fill:#f5f6fa;}.cls-3{fill:#0e9de5;}.cls-4{clip-path:url(#clip-path);}.cls-5{fill:#041742;}.cls-6{fill:#fff;}.cls-7{fill:#6ef9b7;}.cls-8{fill:#9ee7ff;}.cls-9{fill:#afc4d5;}.cls-10{fill:#26db8d;}.cls-11{fill:#88dbf2;}</style><clipPath id="clip-path"><circle class="cls-1" cx="14.68" cy="54" r="14.68"/></clipPath></defs><title>data-struct</title><g id="Layer_2" data-name="Layer 2"><g id="Layer_1-2" data-name="Layer 1"><rect class="cls-2" x="14.68" width="222" height="108"/><circle class="cls-3" cx="14.68" cy="54" r="14.68"/><g class="cls-4"><polygon class="cls-5" points="10.87 51.53 16.09 56.75 13.82 62.21 27.14 75.53 35.02 64.74 17.26 46.98 10.87 51.53"/></g><path class="cls-6" d="M13.82,50.15h-.05l-2.9,1.38-.59-2.67L14.33,47h2.93V62.21H13.82Z"/><rect class="cls-7" x="51.58" y="15.41" width="89.92" height="92.59"/><rect class="cls-6" x="61.35" y="37.52" width="70.37" height="43.7"/><rect class="cls-6" x="193.63" y="37.52" width="43.05" height="43.98"/><polygon class="cls-8" points="236.68 37.61 236.68 15.41 183.2 15.41 183.2 108 236.68 108 236.68 81.5 193.63 81.5 193.63 37.61 236.68 37.61"/><polygon class="cls-9" points="163.68 60.7 163.68 26.79 149.67 26.79 151.45 23.72 141.5 27.79 151.45 31.85 149.67 28.79 161.68 28.79 161.68 62.7 193.63 62.7 193.63 60.7 163.68 60.7"/><rect class="cls-10" x="51.58" y="98.48" width="89.92" height="9.52"/><rect class="cls-11" x="183.2" y="98.48" width="53.48" height="9.52"/></g></g></svg>