<svg xmlns="http://www.w3.org/2000/svg" xmlns:xlink="http://www.w3.org/1999/xlink" viewBox="0 0 238.89 112.6"><defs><style>.cls-1{fill:none;}.cls-2{fill:#f5f6fa;}.cls-3{clip-path:url(#clip-path);}.cls-4{fill:#9ee7ff;}.cls-5{fill:#6ef9b7;}.cls-6{fill:#0e9de5;}.cls-7{clip-path:url(#clip-path-2);}.cls-8{fill:#041742;}.cls-9{fill:#fff;}</style><clipPath id="clip-path"><rect class="cls-1" x="14.68" y="2.14" width="222" height="108"/></clipPath><clipPath id="clip-path-2"><circle class="cls-1" cx="14.68" cy="56.14" r="14.68"/></clipPath></defs><title>protocol</title><g id="Layer_2" data-name="Layer 2"><g id="Layer_1-2" data-name="Layer 1"><rect class="cls-2" x="14.68" y="2.14" width="222" height="108"/><g class="cls-3"><path class="cls-4" d="M69.28,1c-.22,4.87,1.16,9.88,4.17,12.89,5.61,5.61,5-5.61,10.57,0,6.41,6.41,0,27.2,0,27.2s20.79,6.41,27.2,0c5.61-5.61-5.61-13.23,0-18.84s18.19-5.61,23.8,0-5.61,13.23,0,18.84c6.41,6.41,27.2,0,27.2,0s-6.41-20.79,0-27.2c5.61-5.61,5,5.61,10.57,0,3-3,4.39-8,4.17-12.89Z"/><path class="cls-2" d="M101.24,44.93c-8,0-16.95-2.71-17.52-2.88l-1-.3.29-1a77.33,77.33,0,0,0,2.37-11.06c1-7.52.27-12.75-2.12-15.14a3.77,3.77,0,0,0-2.16-1.33c-.55,0-1.09.63-1.67,1.28a4.55,4.55,0,0,1-3.11,2c-1.13,0-2.29-.57-3.63-1.91-3-3-4.71-8.14-4.46-13.64l0-1h109.6l0,1c.25,5.5-1.42,10.6-4.46,13.64-1.34,1.33-2.5,1.94-3.64,1.91a4.55,4.55,0,0,1-3.1-2c-.58-.65-1.12-1.26-1.67-1.28a3.66,3.66,0,0,0-2.16,1.33c-4.91,4.91-1.49,20.57.25,26.2l.29,1-.95.3c-.87.27-21.45,6.51-28.21-.25-3.28-3.28-1.65-7.13-.21-10.52,1.58-3.73,2.39-6.15.21-8.32-2.45-2.45-6.63-3.92-11.19-3.92s-8.74,1.47-11.2,3.92c-2.17,2.17-1.36,4.59.22,8.32,1.44,3.39,3.07,7.24-.22,10.52C109.57,44.15,105.53,44.93,101.24,44.93Zm-16-4.52a77.19,77.19,0,0,0,10.11,2.1c7.51,1,12.75.26,15.14-2.13,2.17-2.17,1.37-4.59-.21-8.32-1.44-3.39-3.07-7.23.21-10.52,2.82-2.81,7.53-4.5,12.61-4.5s9.79,1.69,12.61,4.5c3.28,3.29,1.65,7.13.21,10.52-1.58,3.73-2.38,6.15-.21,8.32,4.66,4.66,19,1.82,25.25,0-1.21-4.3-5.47-21.23.54-27.24,1.34-1.34,2.49-1.94,3.63-1.91a4.5,4.5,0,0,1,3.11,2c.57.65,1.11,1.26,1.67,1.28s1.27-.44,2.15-1.33C174.56,10.7,176,6.57,176,2H70.26c0,4.57,1.42,8.7,3.89,11.18.89.89,1.65,1.37,2.16,1.33s1.1-.63,1.67-1.28a4.5,4.5,0,0,1,3.11-2c1.15,0,2.29.57,3.63,1.91C90.73,19.19,86.47,36.11,85.26,40.41Z"/><path class="cls-5" d="M236.67,111.6c0-1.59-.08-3.18-.11-4.78-.26-12.24-.12-24.51.14-36.76.21-9.9.57-19.79,1.14-29.68-5.77-1.47-19.59-4.31-24.61.71-5.61,5.61,5.61,9.92,0,15.53s-18.19,5.61-23.8,0,5.61-9.92,0-15.53c-6.42-6.41-27.21,0-27.21,0s6.41,20.79,0,27.2c-5.61,5.61-4.95-5.61-10.56,0s-5.61,18.19,0,23.81,5-5.62,10.56,0c3.86,3.85,3.08,12.9,1.84,19.5Z"/><path class="cls-2" d="M162.86,112.6H237.1a20.06,20.06,0,0,1-1.91-2H165.26c1.16-6.85,1.57-15.31-2.33-19.21-1.34-1.34-2.5-1.93-3.63-1.91a4.5,4.5,0,0,0-3.11,2c-.57.65-1.12,1.27-1.67,1.28s-1.27-.44-2.16-1.32c-5.23-5.23-5.23-17.16,0-22.39a3.83,3.83,0,0,1,2.16-1.33c.55,0,1.1.64,1.67,1.29a4.5,4.5,0,0,0,3.11,2c1.11,0,2.29-.57,3.63-1.91,6-6,1.74-22.94.53-27.23,6.26-1.79,20.6-4.63,25.26,0,2.16,2.16,1.39,3.82-.16,6.56-1.42,2.51-3.18,5.63.16,9,2.82,2.82,7.53,4.5,12.61,4.5s9.79-1.68,12.6-4.5c3.35-3.34,1.58-6.46.17-9-1.55-2.74-2.33-4.4-.17-6.56,4.53-4.53,17.77-1.89,22.87-.65a1.48,1.48,0,0,0,0,.21,18.53,18.53,0,0,1,2-.64c0-.1,0-.19,0-.28l0-.83-.8-.2c-7.32-1.86-20.38-4.22-25.57,1-3.34,3.35-1.58,6.46-.16,9,1.55,2.74,2.32,4.4.16,6.56-2.45,2.46-6.64,3.92-11.19,3.92s-8.75-1.46-11.2-3.92c-2.16-2.16-1.39-3.82.17-6.56,1.41-2.51,3.18-5.62-.17-9-6.76-6.76-27.33-.51-28.2-.24l-1,.29.3,1c1.73,5.62,5.16,21.29.25,26.2-.89.88-1.61,1.36-2.16,1.32s-1.1-.63-1.67-1.28a4.5,4.5,0,0,0-3.11-1.95c-1.13,0-2.29.57-3.63,1.91-6,6-6,19.2,0,25.21,1.34,1.34,2.49,2,3.63,1.91a4.5,4.5,0,0,0,3.11-1.95c.57-.65,1.12-1.27,1.67-1.28s1.27.44,2.16,1.32c2.74,2.74,3.29,9.35,1.56,18.62Z"/><path class="cls-4" d="M94.89,68.29c-5.61-5.61-5,5.61-10.57,0-6.41-6.41,0-27.2,0-27.2s-20.79-6.41-27.2,0c-5.61,5.61,5.61,9.92,0,15.53s-18.19,5.61-23.8,0,5.61-9.92,0-15.53C29.45,37.22,20.37,38,13.76,39.26V111.6H82.49c-1.24-6.6-2-15.65,1.83-19.5,5.61-5.62,5,5.61,10.57,0S100.5,73.9,94.89,68.29Z"/><path class="cls-2" d="M83.69,112.6H12.76V38.43l.82-.15c7-1.32,16.31-2,20.45,2.1,3.34,3.35,1.58,6.46.16,9-1.55,2.74-2.32,4.4-.16,6.56,2.45,2.46,6.63,3.92,11.19,3.92S54,58.37,56.41,55.91c2.17-2.16,1.39-3.82-.16-6.56-1.41-2.51-3.18-5.62.16-9,6.77-6.76,27.34-.51,28.21-.24l.95.29-.29,1c-.06.2-6.16,20.28-.25,26.2.89.88,1.64,1.36,2.16,1.32s1.09-.63,1.67-1.28A4.5,4.5,0,0,1,92,65.68c1.15-.05,2.29.57,3.63,1.91h0c6,6,6,19.2,0,25.21-1.34,1.34-2.51,2-3.63,1.91a4.5,4.5,0,0,1-3.11-1.95c-.58-.65-1.12-1.27-1.67-1.28A3.77,3.77,0,0,0,85,92.8c-2.74,2.74-3.29,9.35-1.56,18.62Zm-68.93-2H81.29c-1.16-6.85-1.57-15.31,2.33-19.21,1.34-1.34,2.51-2,3.63-1.91a4.5,4.5,0,0,1,3.11,2c.57.65,1.11,1.27,1.67,1.28a3.8,3.8,0,0,0,2.16-1.32c5.23-5.23,5.23-17.16,0-22.39h0A3.72,3.72,0,0,0,92,67.67c-.56,0-1.1.64-1.67,1.29a4.52,4.52,0,0,1-3.11,2C86.14,71,85,70.34,83.62,69c-6-6-1.75-22.92-.54-27.23C79,40.64,63,36.63,57.83,41.8c-2.16,2.16-1.39,3.82.16,6.56,1.42,2.51,3.18,5.63-.16,9-2.82,2.82-7.53,4.5-12.61,4.5s-9.79-1.68-12.61-4.5c-3.34-3.34-1.58-6.46-.16-9,1.55-2.74,2.33-4.4.16-6.56-2.66-2.67-9-3.26-17.85-1.7Z"/><path class="cls-4" d="M237.78,1H177c.22,4.87-1.16,9.88-4.17,12.89-5.61,5.61-5-5.61-10.57,0-6.41,6.41,0,27.2,0,27.2s20.79-6.41,27.21,0c5.61,5.61-5.61,9.92,0,15.53s18.19,5.61,23.8,0-5.61-9.92,0-15.53c5-5,18.84-2.18,24.61-.71C238,37.48,237.86,1.34,237.78,1Z"/><path class="cls-2" d="M201.33,61.84c-4.8,0-9.61-1.51-12.61-4.51-3.34-3.34-1.58-6.46-.16-9,1.55-2.74,2.32-4.4.16-6.56-2.39-2.39-7.63-3.13-15.14-2.13a76.17,76.17,0,0,0-11.06,2.38l-1,.29-.29-1c-.27-.88-6.51-21.45.25-28.21,1.33-1.34,2.47-1.95,3.63-1.91a4.5,4.5,0,0,1,3.11,2c.57.65,1.11,1.26,1.67,1.28s1.27-.44,2.15-1.33C174.73,10.53,176.18,6,176,1l-.05-1h62.67l.17.78c.23,1,.11,39.34.09,39.66l-.07,1.21-1.17-.3c-4.34-1.11-18.88-4.34-23.67.45-2.16,2.16-1.38,3.82.17,6.56,1.41,2.51,3.18,5.63-.17,9C210.93,60.33,206.13,61.84,201.33,61.84ZM179.45,37.25c4.29,0,8.33.78,10.68,3.13,3.35,3.35,1.58,6.46.17,9-1.56,2.74-2.33,4.4-.17,6.57,5.23,5.23,17.16,5.23,22.39,0,2.16-2.17,1.39-3.83-.16-6.57-1.42-2.51-3.18-5.62.16-9,4.91-4.91,16.88-3.06,24.36-1.27.09-6.25,0-31.87-.08-37.11H178c0,5.1-1.64,9.75-4.48,12.6-1.34,1.33-2.5,1.94-3.64,1.91a4.55,4.55,0,0,1-3.1-2c-.58-.65-1.12-1.26-1.67-1.28a3.77,3.77,0,0,0-2.16,1.33c-2.39,2.39-3.12,7.62-2.12,15.14a77.57,77.57,0,0,0,2.1,10.11A66.9,66.9,0,0,1,179.45,37.25Z"/><path class="cls-4" d="M84.32,13.89c-5.61-5.61-4.95,5.61-10.56,0-3-3-4.39-8-4.17-12.89H13.76V39.27c6.61-1.25,15.69-2,19.56,1.82,5.61,5.61-5.61,9.92,0,15.53s18.19,5.61,23.8,0-5.61-9.92,0-15.53c6.41-6.41,27.2,0,27.2,0S90.74,20.3,84.32,13.89Z"/><path class="cls-2" d="M45.22,61.84c-4.8,0-9.6-1.51-12.61-4.51-3.34-3.34-1.58-6.46-.16-9,1.55-2.74,2.33-4.4.16-6.56-2.74-2.75-9.37-3.3-18.66-1.55l-1.19.22V0H70.63l0,1c-.22,5,1.23,9.49,3.88,12.14a3.7,3.7,0,0,0,2.15,1.33c.55,0,1.1-.63,1.67-1.28a4.51,4.51,0,0,1,3.11-2c1.15,0,2.29.57,3.63,1.91h0c6.76,6.76.52,27.34.25,28.21l-.29,1-1-.29A77,77,0,0,0,73,39.68c-7.51-1-12.75-.27-15.14,2.12-2.16,2.16-1.39,3.82.16,6.56,1.42,2.51,3.18,5.63-.16,9C54.82,60.33,50,61.84,45.22,61.84ZM23.38,37.25c4.3,0,8.3.79,10.65,3.14,3.34,3.34,1.58,6.45.16,9-1.55,2.74-2.33,4.4-.16,6.57,5.23,5.23,17.15,5.23,22.38,0,2.17-2.17,1.39-3.83-.16-6.57-1.41-2.51-3.18-5.62.16-9,6-6,22.93-1.75,27.23-.54a77.57,77.57,0,0,0,2.1-10.11c1-7.52.27-12.75-2.12-15.14h0c-.89-.89-1.61-1.35-2.16-1.33s-1.1.63-1.67,1.28a4.55,4.55,0,0,1-3.11,2c-1.14,0-2.29-.57-3.63-1.91C70.2,11.75,68.56,7.1,68.57,2H14.76V38.07A52.24,52.24,0,0,1,23.38,37.25Z"/><path class="cls-4" d="M84,92.1C80.16,96,80.94,105,82.18,111.6h81.88c1.24-6.6,2-15.65-1.84-19.5-5.61-5.62-4.95,5.61-10.56,0s-5.61-18.19,0-23.81,5,5.62,10.56,0c6.41-6.41,0-27.2,0-27.2s-20.79,6.41-27.2,0c-5.61-5.61,5.61-13.23,0-18.84s-18.19-5.61-23.8,0,5.61,13.23,0,18.84c-6.41,6.41-27.2,0-27.2,0s-6.42,20.79,0,27.2c5.61,5.62,5-5.61,10.56,0s5.61,18.19,0,23.81S89.63,86.48,84,92.1Z"/><path class="cls-2" d="M164.89,112.6H81.35l-.16-.81c-1.31-7-2-16.27,2.12-20.4,1.34-1.34,2.48-2,3.63-1.91a4.5,4.5,0,0,1,3.11,2c.57.65,1.11,1.27,1.67,1.29s1.27-.45,2.16-1.33c5.22-5.23,5.22-17.16,0-22.39-.89-.88-1.62-1.35-2.16-1.33s-1.1.64-1.67,1.29a4.5,4.5,0,0,1-3.11,2c-1.17,0-2.29-.57-3.63-1.91-6.76-6.76-.52-27.33-.25-28.2l.29-1,1,.3c.2.06,20.29,6.16,26.2.24,2.17-2.17,1.37-4.59-.21-8.32-1.44-3.39-3.07-7.23.21-10.52,2.82-2.81,7.53-4.5,12.61-4.5s9.79,1.69,12.61,4.5c3.28,3.29,1.65,7.13.21,10.52-1.58,3.73-2.38,6.15-.21,8.32,5.91,5.92,26-.18,26.2-.24l.95-.3.3,1c.27.87,6.51,21.44-.25,28.2-1.34,1.34-2.47,2-3.63,1.91a4.5,4.5,0,0,1-3.11-2c-.57-.65-1.12-1.27-1.67-1.29A3.8,3.8,0,0,0,152.36,69c-5.23,5.23-5.23,17.16,0,22.39.89.88,1.67,1.36,2.16,1.33s1.1-.64,1.67-1.29a4.5,4.5,0,0,1,3.11-2c1.14-.06,2.29.57,3.63,1.91,4.13,4.13,3.43,13.37,2.12,20.4ZM83,110.6h80.22c1.55-8.83.94-15.14-1.71-17.8-.89-.88-1.61-1.33-2.16-1.32s-1.1.63-1.67,1.28a4.5,4.5,0,0,1-3.11,1.95c-1.13.05-2.29-.57-3.63-1.91-6-6-6-19.2,0-25.21,1.34-1.34,2.48-2,3.63-1.91a4.5,4.5,0,0,1,3.11,1.95c.57.65,1.12,1.27,1.67,1.28s1.27-.44,2.16-1.32c4.65-4.66,1.81-19,0-25.26-4.3,1.21-21.23,5.48-27.24-.53-3.28-3.28-1.65-7.13-.21-10.52,1.58-3.73,2.39-6.15.21-8.32-2.45-2.45-6.63-3.92-11.19-3.92s-8.74,1.47-11.2,3.92c-2.17,2.17-1.36,4.59.22,8.32,1.44,3.39,3.07,7.24-.22,10.52-6,6-22.92,1.74-27.22.53-1.13,4.07-5.15,20.09,0,25.26a3.63,3.63,0,0,0,2.16,1.32c.55,0,1.09-.63,1.67-1.28a4.5,4.5,0,0,1,3.11-1.95c1.13,0,2.29.57,3.63,1.91,6,6,6,19.2,0,25.21-1.34,1.34-2.5,2-3.63,1.91a4.5,4.5,0,0,1-3.11-1.95c-.58-.65-1.12-1.27-1.67-1.28a3.63,3.63,0,0,0-2.16,1.32h0C82.06,95.46,81.46,101.77,83,110.6Z"/></g><circle class="cls-6" cx="14.68" cy="56.14" r="14.68"/><g class="cls-7"><polygon class="cls-8" points="11.09 52.25 15.84 57 10.06 61.97 21.99 73.89 21.91 72.59 29.84 61.89 17.95 50 10.91 50 11.09 52.25"/></g><path class="cls-9" d="M10.07,62V60.13l1.66-1.5c2.86-2.56,4.24-4,4.26-5.54,0-1.06-.62-1.9-2.12-1.9a4.79,4.79,0,0,0-2.79,1.06l-.86-2.17a7.19,7.19,0,0,1,4.25-1.34c3,0,4.56,1.72,4.56,4.09,0,2.18-1.56,3.92-3.46,5.6l-1.2,1v0h4.92V62Z"/></g></g></svg>