<svg xmlns="http://www.w3.org/2000/svg" xmlns:xlink="http://www.w3.org/1999/xlink" viewBox="0 0 236.63 108"><defs><style>.cls-1{fill:none;}.cls-2{fill:#f5f6fa;}.cls-3{fill:#0e9de5;}.cls-4{clip-path:url(#clip-path);}.cls-5{fill:#041742;}.cls-6{fill:#fff;}.cls-7{fill:#9ee7ff;}.cls-8{fill:#88dbf2;}.cls-9{fill:#6ef9b7;}.cls-10{fill:#d2dbeb;}.cls-11{fill:#26db8d;}</style><clipPath id="clip-path"><circle class="cls-1" cx="14.68" cy="54" r="14.68"/></clipPath></defs><title>BlockExplorer</title><g id="Layer_2" data-name="Layer 2"><g id="Layer_1-2" data-name="Layer 1"><rect class="cls-2" x="14.63" width="222" height="108"/><circle class="cls-3" cx="14.68" cy="54" r="14.68"/><g class="cls-4"><polygon class="cls-5" points="11.09 50.1 15.84 54.86 10.06 59.83 21.99 71.75 21.91 70.45 29.84 59.75 17.95 47.86 10.91 47.86 11.09 50.1"/></g><path class="cls-6" d="M10.07,59.83V58l1.66-1.5c2.86-2.56,4.24-4,4.26-5.54,0-1.06-.62-1.9-2.12-1.9a4.86,4.86,0,0,0-2.79,1.06l-.86-2.16a7.19,7.19,0,0,1,4.25-1.34c3,0,4.56,1.72,4.56,4.08,0,2.18-1.56,3.92-3.46,5.6l-1.2,1v0h4.92v2.51Z"/><polygon class="cls-6" points="81.21 108 81.21 52.47 149.3 13.16 217.94 53.05 217.94 108 81.21 108"/><polygon class="cls-7" points="149.3 13.16 217.94 53.05 149.3 92.36 81.21 52.47 149.3 13.16"/><polygon class="cls-8" points="81.21 108 81.21 52.47 149.3 92.36 149.35 108 81.21 108"/><path class="cls-9" d="M131.53,50.1c-15.19-9.39-40-9.39-55.23,0s-15.19,24.77,0,34.17,40,9.39,55.23,0S146.71,59.5,131.53,50.1Z"/><path class="cls-10" d="M143.18,62.78c-1.81-4.57-5.66-8.68-11.28-11.93-15.22-8.79-40-8.79-55.23,0-5.61,3.24-9.46,7.35-11.27,11.92l-1.2-.11v6.26c0,7,4.43,13.42,12.47,18.07,7.62,4.39,17.62,6.59,27.62,6.59s20-2.2,27.61-6.59c8-4.65,12.48-11.06,12.48-18.07h0V62.66Zm-15,17.83c-13,7.49-34.89,7.49-47.86,0-5.67-3.27-8.8-7.42-8.8-11.69s3.13-8.42,8.8-11.69c6.48-3.75,15.21-5.62,23.93-5.62s17.45,1.87,23.93,5.62c5.67,3.27,8.8,7.42,8.8,11.69S133.89,77.34,128.22,80.61Z"/><path class="cls-6" d="M103.64,68.71c5.75,3.32,15.17,3.32,20.93,0s5.76-8.77,0-12.09-15.18-3.32-20.93,0S97.88,65.38,103.64,68.71Z"/><path class="cls-6" d="M104.29,87.32c-10,0-20-2.19-27.62-6.59h0c-8-4.64-12.47-11.06-12.47-18.07s4.43-13.42,12.47-18.07c15.23-8.79,40-8.79,55.23,0,8,4.65,12.48,11.06,12.48,18.07S140,76.09,131.9,80.73C124.29,85.13,114.29,87.32,104.29,87.32Zm0-42c-8.72,0-17.45,1.87-23.93,5.62-5.67,3.27-8.8,7.42-8.8,11.69s3.13,8.42,8.8,11.7h0c13,7.49,34.89,7.49,47.86,0,5.67-3.28,8.8-7.43,8.8-11.7s-3.13-8.42-8.8-11.69C121.74,47.22,113,45.35,104.29,45.35Z"/><path class="cls-11" d="M44.45,106.87a3.52,3.52,0,0,1-1.77-6.57l32.94-19c1.69-1,5.82,3,3.52,6.09l-32.94,19A3.49,3.49,0,0,1,44.45,106.87Z"/><path class="cls-9" d="M51.77,108H22.26L66.58,82.49c3.52-2,12.18,6.36,7.36,12.75Z"/></g></g></svg>