<svg xmlns="http://www.w3.org/2000/svg" xmlns:xlink="http://www.w3.org/1999/xlink" viewBox="0 0 236.63 108"><defs><style>.cls-1{fill:none;}.cls-2{fill:#f5f6fa;}.cls-3{fill:#0e9de5;}.cls-4{clip-path:url(#clip-path);}.cls-5{fill:#041742;}.cls-6{fill:#fff;}.cls-7{fill:#6ef9b7;}.cls-8{fill:#9ee7ff;}.cls-9{fill:#d2dbeb;}.cls-10{fill:#88dbf2;}.cls-11{fill:#26db8d;}</style><clipPath id="clip-path"><circle class="cls-1" cx="14.68" cy="54" r="14.68"/></clipPath></defs><title>transactions2</title><g id="Layer_2" data-name="Layer 2"><g id="Layer_1-2" data-name="Layer 1"><rect class="cls-2" x="14.63" width="222" height="108"/><circle class="cls-3" cx="14.68" cy="54" r="14.68"/><g class="cls-4"><polygon class="cls-5" points="10.87 51.53 16.09 56.75 13.82 62.21 27.14 75.53 35.02 64.74 17.26 46.98 10.87 51.53"/></g><path class="cls-6" d="M13.82,50.15h-.05l-2.9,1.38-.59-2.67L14.33,47h2.93V62.21H13.82Z"/><polygon class="cls-7" points="216.09 33.88 190.63 8.42 190.63 18.38 125.63 18.38 125.63 49.38 190.63 49.38 190.63 59.33 216.09 33.88"/><polygon class="cls-8" points="35.18 74.13 60.63 99.58 60.63 89.63 125.63 89.63 125.63 58.63 60.63 58.63 60.63 48.67 35.18 74.13"/><path class="cls-9" d="M157.63,50.38H154.3a22.91,22.91,0,0,0-6.08-4.94c-12.56-7.25-33.1-7.25-45.66,0a22.75,22.75,0,0,0-6.08,4.94H93.23v7h0c-.61,5.19,2.48,10.5,9.31,14.44,12.56,7.25,33.1,7.25,45.66,0,6.83-3.94,9.91-9.25,9.31-14.44h.1Z"/><path class="cls-10" d="M109.09,42.56c-1.09.37-2.15.77-3.18,1.22V73.46c1,.45,2.09.85,3.18,1.22Z"/><path class="cls-10" d="M99.54,47.48V69.75a27.43,27.43,0,0,0,3,2l.17.09V45.35l-.17.09A26.48,26.48,0,0,0,99.54,47.48Z"/><path class="cls-10" d="M115.46,40.91c-1.08.2-2.14.44-3.18.71v34c1,.26,2.1.5,3.18.7Z"/><path class="cls-10" d="M150.48,46.92V70.34a20.54,20.54,0,0,0,3.19-2.8V49.7A21.49,21.49,0,0,0,150.48,46.92Z"/><path class="cls-10" d="M156.85,62.56a11.24,11.24,0,0,0,.68-5.2h.1v-7h-.78Z"/><path class="cls-10" d="M140.93,42.3c-1-.33-2.1-.63-3.18-.88V75.83c1.08-.26,2.14-.56,3.18-.89Z"/><path class="cls-10" d="M96.36,66.74V50.38H93.23v7h0A12.33,12.33,0,0,0,96.36,66.74Z"/><path class="cls-10" d="M147.3,45c-1-.54-2.08-1-3.18-1.49V73.78q1.65-.69,3.18-1.5Z"/><path class="cls-10" d="M121.83,40.13c-1.07.07-2.13.17-3.19.29v36.4c1.06.13,2.12.23,3.19.29Z"/><path class="cls-10" d="M128.2,77.16V40.08c-1.06,0-2.12-.07-3.19-.07V77.23C126.08,77.23,127.14,77.21,128.2,77.16Z"/><path class="cls-10" d="M134.56,40.76c-1.05-.17-2.11-.32-3.18-.43V76.91c1.07-.11,2.13-.26,3.18-.43Z"/><path class="cls-8" d="M148.22,36.2c-12.56-7.25-33.1-7.25-45.66,0s-12.56,19.11,0,26.36,33.1,7.25,45.66,0S160.77,43.45,148.22,36.2Z"/><path class="cls-7" d="M145.94,36.92c-11.3-6.52-29.8-6.52-41.1,0s-11.31,17.21,0,23.73,29.8,6.53,41.1,0S157.24,43.45,145.94,36.92Z"/><path class="cls-11" d="M143.42,38.3c-9.92-5.62-26.15-5.62-36.06,0s-9.92,14.83,0,20.45,26.14,5.62,36.06,0S153.34,43.92,143.42,38.3Z"/></g></g></svg>