<svg xmlns="http://www.w3.org/2000/svg" xmlns:xlink="http://www.w3.org/1999/xlink" viewBox="0 0 113.37 113.37"><defs><style>.cls-1{fill:url(#radial-gradient);}.cls-2{fill:#041742;}</style><radialGradient id="radial-gradient" cx="102.77" cy="23.63" r="95.37" gradientUnits="userSpaceOnUse"><stop offset="0.1" stop-color="#26db8d"/><stop offset="0.26" stop-color="#23d29a"/><stop offset="0.56" stop-color="#1abbbb"/><stop offset="0.89" stop-color="#0e9de5"/></radialGradient></defs><title>HorizenICON</title><g id="Layer_2" data-name="Layer 2"><g id="content"><path class="cls-1" d="M102.76,23.7h0L93.49,38.06A41.25,41.25,0,0,1,38.08,93.5l-14.36,9.28a56.66,56.66,0,0,0,79-79.08Z"/><path class="cls-1" d="M56.68,85.07a28.48,28.48,0,0,0,28-23.29A65.07,65.07,0,0,0,33.07,72.5,28.43,28.43,0,0,0,56.68,85.07Z"/><path class="cls-2" d="M70.72,55.15a68.59,68.59,0,0,1,14.43,1.54h0a28.47,28.47,0,0,0-56.94,0,28.12,28.12,0,0,0,.27,3.81h0a62.1,62.1,0,0,0-10.68,9.89A41.24,41.24,0,0,1,75.23,19.84L89.6,10.55A56.68,56.68,0,0,0,11.07,90.33,68.15,68.15,0,0,1,20.77,77a81.58,81.58,0,0,1,9.87-8.77A67.78,67.78,0,0,1,70.72,55.15Z"/></g></g></svg>