<svg xmlns="http://www.w3.org/2000/svg" xmlns:xlink="http://www.w3.org/1999/xlink" viewBox="0 0 163.73 29.65"><defs><style>.cls-1{fill:#fff;}.cls-2{fill:url(#radial-gradient);}</style><radialGradient id="radial-gradient" cx="49.68" cy="6.18" r="24.94" gradientUnits="userSpaceOnUse"><stop offset="0.1" stop-color="#26db8d"/><stop offset="0.26" stop-color="#23d29a"/><stop offset="0.56" stop-color="#1abbbb"/><stop offset="0.89" stop-color="#0e9de5"/></radialGradient></defs><title>Asset 3</title><g id="Layer_2" data-name="Layer 2"><g id="Layer_1-2" data-name="Layer 1"><polygon class="cls-1" points="11.24 13.1 3.66 13.1 3.66 4.98 0 4.98 0 24.67 3.66 24.67 3.66 16.47 11.24 16.47 11.24 24.67 14.9 24.67 14.9 4.98 11.24 4.98 11.24 13.1"/><path class="cls-1" d="M71.51,16.23a6.78,6.78,0,0,0,1.63-4.61A6.75,6.75,0,0,0,71.51,7a6.33,6.33,0,0,0-5-2h-6V24.67H64.2V18.24h1.66l4.79,6.43h4.21l-5.26-7A5.74,5.74,0,0,0,71.51,16.23Zm-1.75-4.61A3.32,3.32,0,0,1,69,14a3.17,3.17,0,0,1-2.48.91H64.2V8.35h2.32A3.19,3.19,0,0,1,69,9.24,3.4,3.4,0,0,1,69.76,11.62Z"/><rect class="cls-1" x="82.91" y="4.98" width="3.66" height="19.69"/><polygon class="cls-1" points="97.21 4.98 97.21 8.63 104.57 8.63 95.47 24.67 111.09 24.67 111.09 21.01 102 21.01 111.09 4.98 97.21 4.98"/><polygon class="cls-1" points="119.78 24.67 131.87 24.67 131.87 21.3 123.44 21.3 123.44 16.09 130.38 16.09 130.38 12.71 123.44 12.71 123.44 8.32 131.87 8.32 131.87 4.98 119.78 4.98 119.78 24.67"/><polygon class="cls-1" points="152.57 17.31 143.32 4.98 140.64 4.98 140.64 24.67 144.29 24.67 144.29 12.3 153.6 24.67 156.26 24.67 156.26 4.98 152.57 4.98 152.57 17.31"/><path class="cls-2" d="M49.68,6.2h0L47.26,10a10.79,10.79,0,0,1-14.49,14.5L29,26.88A14.82,14.82,0,0,0,49.68,6.2Z"/><path class="cls-2" d="M37.63,22.25A7.44,7.44,0,0,0,45,16.15a17.53,17.53,0,0,0-3.58-.38A17,17,0,0,0,31.46,19,7.43,7.43,0,0,0,37.63,22.25Z"/><path class="cls-1" d="M41.3,14.42a17.44,17.44,0,0,1,3.78.41h0a7.45,7.45,0,0,0-14.89,0,6.63,6.63,0,0,0,.07,1h0a16.08,16.08,0,0,0-2.79,2.59,10.66,10.66,0,0,1-.62-3.59A10.79,10.79,0,0,1,37.63,4a10.67,10.67,0,0,1,4.85,1.15l3.76-2.43A14.82,14.82,0,0,0,25.71,23.62a17.83,17.83,0,0,1,2.53-3.5,21.67,21.67,0,0,1,2.58-2.29A17.75,17.75,0,0,1,41.3,14.42Z"/><path class="cls-1" d="M159.33,7.51V5.29h-.79V4.88h2.05v.41h-.79V7.51Z"/><path class="cls-1" d="M163.26,7.51V5.56l-.81,2h-.19l-.81-1.95v2H161V4.88h.65l.71,1.73.72-1.73h.66V7.51Z"/></g></g></svg>