<svg xmlns="http://www.w3.org/2000/svg" xmlns:xlink="http://www.w3.org/1999/xlink" viewBox="0 0 241.02 198.83"><defs><style>.cls-1{fill:none;}.cls-2{clip-path:url(#clip-path);}.cls-3{fill:#95a6ba;}.cls-4{fill:url(#linear-gradient);}.cls-5{fill:url(#linear-gradient-2);}</style><clipPath id="clip-path"><path class="cls-1" d="M149.93,97.64a79.07,79.07,0,0,1,16.68,1.79h0a32.89,32.89,0,1,0-65.77,0,33.48,33.48,0,0,0,.3,4.39h0A72,72,0,0,0,88.8,115.25a47.63,47.63,0,0,1,66.34-58.39l16.6-10.73A65.46,65.46,0,0,0,81,138.27a79.07,79.07,0,0,1,11.2-15.44s6.46-6.74,11.4-10.13A78.4,78.4,0,0,1,149.93,97.64Z"/></clipPath><linearGradient id="linear-gradient" x1="203.11" y1="81.13" x2="126.87" y2="160.63" gradientUnits="userSpaceOnUse"><stop offset="0" stop-color="#26db8d"/><stop offset="1" stop-color="#0e9de5"/></linearGradient><linearGradient id="linear-gradient-2" x1="185.4" y1="64.15" x2="109.16" y2="143.64" xlink:href="#linear-gradient"/></defs><title>blueprint</title><g id="Layer_2" data-name="Layer 2"><g id="Layer_1-2" data-name="Layer 1"><g class="cls-2"><rect class="cls-3" x="-23.29" y="79.73" width="160.86" height="0.75" transform="translate(-39.91 63.87) rotate(-45)"/><rect class="cls-3" x="-20.81" y="79.73" width="160.86" height="0.75" transform="translate(-39.18 65.62) rotate(-45)"/><rect class="cls-3" x="-18.32" y="79.73" width="160.86" height="0.75" transform="translate(-38.45 67.38) rotate(-45)"/><rect class="cls-3" x="-15.84" y="79.73" width="160.86" height="0.75" transform="translate(-37.72 69.14) rotate(-45)"/><rect class="cls-3" x="-13.35" y="79.73" width="160.86" height="0.75" transform="translate(-37 70.89) rotate(-45)"/><rect class="cls-3" x="-10.87" y="79.73" width="160.86" height="0.75" transform="translate(-36.27 72.65) rotate(-45)"/><rect class="cls-3" x="-8.38" y="79.73" width="160.86" height="0.75" transform="translate(-35.54 74.41) rotate(-45)"/><rect class="cls-3" x="-5.9" y="79.73" width="160.86" height="0.75" transform="translate(-34.81 76.17) rotate(-45)"/><rect class="cls-3" x="-3.41" y="79.73" width="160.86" height="0.75" transform="translate(-34.09 77.92) rotate(-45)"/><rect class="cls-3" x="-0.93" y="79.73" width="160.86" height="0.75" transform="translate(-33.36 79.68) rotate(-45)"/><rect class="cls-3" x="1.56" y="79.73" width="160.86" height="0.75" transform="translate(-32.63 81.44) rotate(-45)"/><rect class="cls-3" x="4.05" y="79.73" width="160.86" height="0.75" transform="translate(-31.9 83.2) rotate(-45)"/><rect class="cls-3" x="6.53" y="79.73" width="160.86" height="0.75" transform="translate(-31.17 84.95) rotate(-45)"/><rect class="cls-3" x="9.02" y="79.73" width="160.86" height="0.75" transform="translate(-30.45 86.71) rotate(-45)"/><rect class="cls-3" x="11.5" y="79.73" width="160.86" height="0.75" transform="translate(-29.72 88.47) rotate(-45)"/><rect class="cls-3" x="13.99" y="79.73" width="160.86" height="0.75" transform="translate(-28.99 90.22) rotate(-45)"/><rect class="cls-3" x="16.47" y="79.73" width="160.86" height="0.75" transform="translate(-28.26 91.98) rotate(-45)"/><rect class="cls-3" x="18.96" y="79.73" width="160.86" height="0.75" transform="translate(-27.53 93.74) rotate(-45)"/><rect class="cls-3" x="21.44" y="79.73" width="160.86" height="0.75" transform="translate(-26.81 95.5) rotate(-45)"/><rect class="cls-3" x="23.93" y="79.73" width="160.86" height="0.75" transform="translate(-26.08 97.25) rotate(-45)"/><rect class="cls-3" x="26.41" y="79.73" width="160.86" height="0.75" transform="translate(-25.35 99.01) rotate(-45)"/><rect class="cls-3" x="28.9" y="79.73" width="160.86" height="0.75" transform="translate(-24.62 100.77) rotate(-45)"/><rect class="cls-3" x="31.38" y="79.73" width="160.86" height="0.75" transform="translate(-23.9 102.53) rotate(-45)"/><rect class="cls-3" x="33.87" y="79.73" width="160.86" height="0.75" transform="translate(-23.17 104.28) rotate(-45)"/><rect class="cls-3" x="36.35" y="79.73" width="160.86" height="0.75" transform="translate(-22.44 106.04) rotate(-45)"/><rect class="cls-3" x="38.84" y="79.73" width="160.86" height="0.75" transform="translate(-21.71 107.8) rotate(-45)"/><rect class="cls-3" x="41.32" y="79.73" width="160.86" height="0.75" transform="translate(-20.98 109.55) rotate(-45)"/><rect class="cls-3" x="43.81" y="79.73" width="160.86" height="0.75" transform="translate(-20.26 111.31) rotate(-45)"/><rect class="cls-3" x="46.29" y="79.73" width="160.86" height="0.75" transform="translate(-19.53 113.07) rotate(-45)"/><rect class="cls-3" x="48.78" y="79.73" width="160.86" height="0.75" transform="translate(-18.8 114.83) rotate(-45)"/><rect class="cls-3" x="51.26" y="79.73" width="160.86" height="0.75" transform="translate(-18.07 116.58) rotate(-45)"/><rect class="cls-3" x="53.75" y="79.73" width="160.86" height="0.75" transform="translate(-17.34 118.34) rotate(-45)"/><rect class="cls-3" x="56.23" y="79.73" width="160.86" height="0.75" transform="translate(-16.62 120.1) rotate(-45)"/><rect class="cls-3" x="58.72" y="79.73" width="160.86" height="0.75" transform="translate(-15.89 121.86) rotate(-45)"/><rect class="cls-3" x="61.2" y="79.73" width="160.86" height="0.75" transform="translate(-15.16 123.61) rotate(-45)"/><rect class="cls-3" x="63.69" y="79.73" width="160.86" height="0.75" transform="translate(-14.43 125.37) rotate(-45)"/><rect class="cls-3" x="66.17" y="79.73" width="160.86" height="0.75" transform="translate(-13.7 127.13) rotate(-45)"/><rect class="cls-3" x="68.66" y="79.73" width="160.86" height="0.75" transform="translate(-12.98 128.88) rotate(-45)"/><rect class="cls-3" x="71.14" y="79.73" width="160.86" height="0.75" transform="translate(-12.25 130.64) rotate(-45)"/><rect class="cls-3" x="73.63" y="79.73" width="160.86" height="0.75" transform="translate(-11.52 132.4) rotate(-45)"/><rect class="cls-3" x="76.11" y="79.73" width="160.86" height="0.75" transform="translate(-10.79 134.16) rotate(-45)"/><rect class="cls-3" x="78.6" y="79.73" width="160.86" height="0.75" transform="translate(-10.07 135.91) rotate(-45)"/><rect class="cls-3" x="81.09" y="79.73" width="160.86" height="0.75" transform="translate(-9.34 137.67) rotate(-45)"/><rect class="cls-3" x="83.57" y="79.73" width="160.86" height="0.75" transform="translate(-8.61 139.43) rotate(-45)"/><rect class="cls-3" x="86.05" y="79.73" width="160.86" height="0.75" transform="translate(-7.88 141.18) rotate(-45)"/><rect class="cls-3" x="88.54" y="79.73" width="160.86" height="0.75" transform="translate(-7.15 142.94) rotate(-45)"/><rect class="cls-3" x="91.03" y="79.73" width="160.86" height="0.75" transform="translate(-6.43 144.7) rotate(-45)"/><rect class="cls-3" x="93.51" y="79.73" width="160.86" height="0.75" transform="translate(-5.7 146.46) rotate(-45)"/><rect class="cls-3" x="96" y="79.73" width="160.86" height="0.75" transform="translate(-4.97 148.21) rotate(-45)"/><rect class="cls-3" x="98.48" y="79.73" width="160.86" height="0.75" transform="translate(-4.24 149.97) rotate(-45)"/><rect class="cls-3" x="100.97" y="79.73" width="160.86" height="0.75" transform="translate(-3.51 151.73) rotate(-45)"/><rect class="cls-3" x="103.45" y="79.73" width="160.86" height="0.75" transform="translate(-2.79 153.49) rotate(-45)"/></g><path class="cls-4" d="M187,65.49a63.16,63.16,0,0,1-87.17,87.22l12.58-8.13a49.4,49.4,0,0,0,21.32,4.78,50,50,0,0,0,49.95-49.94,49.34,49.34,0,0,0-4.8-21.36L187,65.49m0-4.18h0L176.23,77.91a47.64,47.64,0,0,1-64,64L95.65,152.66A65.46,65.46,0,0,0,187,61.31Z"/><path class="cls-5" d="M150.24,105.92a73.59,73.59,0,0,1,13.06,1.18,30.59,30.59,0,0,1-53.61,11.14,72.4,72.4,0,0,1,40.55-12.32m0-2.3a74.9,74.9,0,0,0-43.8,14.07,32.89,32.89,0,0,0,59.61-12.39,75.59,75.59,0,0,0-15.81-1.68Z"/><path class="cls-3" d="M133.72,143.52h-.13v-.46h.14c.71,0,1.43,0,2.14-.05l0,.46C135.18,143.5,134.45,143.52,133.72,143.52Zm-2.44-.07c-.77,0-1.54-.1-2.3-.18l.05-.46q1.13.12,2.28.18Zm6.92-.15,0-.46c.75-.08,1.51-.17,2.26-.29l.07.46C139.72,143.12,139,143.22,138.2,143.3ZM126.69,143c-.76-.12-1.52-.26-2.27-.42l.1-.45q1.11.24,2.25.42Zm16.06-.36-.09-.46c.74-.15,1.49-.33,2.22-.52l.12.45C144.26,142.26,143.5,142.44,142.75,142.6Zm-20.57-.6c-.73-.2-1.47-.42-2.21-.66l.14-.44c.73.24,1.47.46,2.19.65Zm25-.58-.14-.44c.72-.23,1.44-.49,2.16-.76l.16.43C148.68,140.93,148,141.18,147.22,141.42Zm-29.42-.86c-.71-.28-1.43-.57-2.13-.89l.19-.42c.7.31,1.4.61,2.1.88Zm33.74-.79-.19-.42c.7-.3,1.39-.63,2.07-1l.21.41C152.94,139.13,152.24,139.46,151.54,139.77Zm-37.94-1.1c-.68-.35-1.36-.72-2-1.11l.23-.39c.65.38,1.33.75,2,1.09Zm42.06-1-.23-.4c.66-.38,1.31-.78,1.95-1.19l.25.38C157,136.9,156.32,137.31,155.66,137.69Zm-46-1.34c-.63-.41-1.27-.85-1.89-1.31l.27-.37c.62.45,1.25.89,1.88,1.3Zm49.93-1.17-.27-.37c.61-.45,1.22-.91,1.81-1.39l.29.36C160.77,134.26,160.16,134.73,159.54,135.18Zm-53.65-1.55c-.6-.48-1.18-1-1.75-1.5l.31-.34c.56.51,1.14,1,1.73,1.48Zm57.24-1.35-.3-.34c.56-.5,1.12-1,1.66-1.57l.32.33C164.27,131.24,163.7,131.77,163.13,132.28Zm-60.66-1.74c-.54-.55-1.08-1.11-1.59-1.68l.35-.31c.5.56,1,1.12,1.56,1.66ZM166.41,129l-.34-.31c.51-.56,1-1.14,1.48-1.73l.36.29C167.43,127.87,166.92,128.46,166.41,129Zm-67-1.93q-.73-.9-1.41-1.83l.38-.27c.44.61.91,1.22,1.38,1.81Zm69.93-1.64-.37-.27c.44-.61.88-1.24,1.3-1.88l.39.25C170.21,124.21,169.77,124.85,169.32,125.46Zm-72.64-2.1c-.41-.63-.82-1.29-1.21-2l.4-.23c.39.67.79,1.33,1.19,2Zm75.17-1.76-.4-.23c.39-.66.76-1.34,1.1-2l.41.21C172.61,120.25,172.24,120.93,171.85,121.6Zm-77.48-2.24c-.34-.69-.68-1.39-1-2.09l.42-.18c.31.69.64,1.38,1,2.06ZM174,117.51l-.42-.19c.31-.69.61-1.4.88-2.11l.43.17C174.57,116.09,174.27,116.81,174,117.51ZM92.5,115.13c-.28-.72-.53-1.45-.77-2.18l.44-.14c.23.72.49,1.44.76,2.16Zm83.13-1.92-.44-.15c.23-.71.46-1.45.66-2.18l.44.12C176.09,111.74,175.87,112.48,175.63,113.21Zm-84.55-2.47c-.19-.75-.37-1.5-.53-2.25l.45-.09c.16.73.33,1.48.53,2.22Zm85.76-2-.45-.1c.16-.74.3-1.49.42-2.24l.45.07C177.14,107.25,177,108,176.84,108.76Zm-86.7-2.54c-.12-.77-.22-1.53-.29-2.29l.45,0c.08.74.18,1.5.29,2.26Zm87.43-2-.46,0c.09-.75.15-1.52.19-2.27l.46,0C177.72,102.66,177.65,103.44,177.57,104.2Zm-87.9-2.57c0-.73,0-1.48,0-2.21v-.09h.46v.08c0,.73,0,1.47,0,2.2Zm88.16-2h-.46v-.17c0-.77,0-1.54-.06-2.29l.46,0c0,.75.06,1.53.06,2.31ZM90.14,97l-.46,0c0-.77.1-1.54.18-2.3l.46,0C90.24,95.52,90.18,96.28,90.14,97Zm87-2.18c-.08-.76-.17-1.52-.29-2.27l.45-.07c.12.75.22,1.52.3,2.29ZM90.62,92.5l-.45-.07c.11-.75.26-1.51.42-2.27l.45.1C90.88,91,90.74,91.76,90.62,92.5Zm85.8-2.15c-.15-.75-.33-1.5-.53-2.23l.45-.11c.2.73.37,1.49.54,2.24ZM91.57,88l-.44-.12c.2-.74.42-1.48.66-2.21l.44.14C92,86.57,91.77,87.31,91.57,88Zm83.68-2.11c-.24-.72-.49-1.44-.77-2.15l.43-.17c.28.72.54,1.45.77,2.18ZM93,83.7l-.43-.17c.28-.71.57-1.42.89-2.12l.42.18C93.56,82.29,93.26,83,93,83.7Zm80.62-2c-.31-.68-.64-1.38-1-2.06l.41-.21c.35.69.69,1.39,1,2.09ZM94.86,79.54l-.41-.21c.35-.68.72-1.36,1.1-2l.4.23C95.57,78.19,95.2,78.86,94.86,79.54Zm76.67-2q-.57-1-1.2-2l.39-.25c.42.65.83,1.32,1.21,2Zm-74.39-2-.38-.26c.42-.64.86-1.28,1.31-1.89l.37.27C98,74.33,97.56,75,97.14,75.6ZM169,73.76c-.44-.61-.91-1.22-1.39-1.81l.36-.29c.48.6,1,1.21,1.41,1.83Zm-69.2-1.85-.35-.29c.48-.59,1-1.18,1.5-1.75l.34.3C100.81,70.74,100.31,71.32,99.83,71.91Zm66.33-1.7c-.5-.55-1-1.11-1.57-1.66l.32-.32c.55.55,1.08,1.11,1.59,1.67Zm-63.27-1.69-.32-.33c.54-.54,1.1-1.07,1.67-1.58l.31.34C104,67.46,103.43,68,102.89,68.52Zm60-1.54c-.56-.5-1.15-1-1.74-1.48l.29-.36c.6.49,1.19,1,1.76,1.5Zm-56.64-1.51-.29-.36q.9-.73,1.83-1.41l.27.38C107.49,64.52,106.88,65,106.29,65.47Zm53.09-1.36c-.61-.45-1.24-.88-1.88-1.3l.26-.38c.64.41,1.28.85,1.9,1.31ZM110,62.78l-.25-.38c.64-.42,1.3-.83,2-1.21l.23.4C111.28,62,110.62,62.37,110,62.78Zm45.57-1.16c-.65-.38-1.33-.75-2-1.09l.21-.41c.68.35,1.36.72,2,1.1ZM114,60.5l-.21-.41c.68-.35,1.38-.69,2.08-1l.19.42C115.32,59.82,114.62,60.15,114,60.5Zm37.55-1c-.69-.3-1.4-.6-2.1-.87l.16-.43c.72.28,1.43.57,2.13.88Zm-33.38-.9-.16-.43c.71-.27,1.45-.53,2.18-.77l.14.44C119.56,58.11,118.83,58.37,118.12,58.64Zm29.13-.73c-.73-.24-1.46-.46-2.19-.65l.11-.45c.74.2,1.49.42,2.22.66Zm-24.77-.68-.12-.44c.73-.2,1.49-.38,2.24-.54l.1.45C124,56.86,123.2,57,122.48,57.23Zm20.36-.51c-.75-.15-1.5-.29-2.25-.41l.07-.46c.76.12,1.52.26,2.27.42Zm-15.9-.43-.07-.45c.75-.12,1.52-.22,2.29-.3l.05.46C128.45,56.08,127.69,56.18,126.94,56.29ZM138.33,56c-.75-.08-1.52-.14-2.28-.18l0-.46c.77,0,1.55.1,2.31.18Zm-6.85-.18,0-.46c.75,0,1.51-.06,2.26-.06l.05.46h-.06C133,55.77,132.22,55.79,131.48,55.83Z"/><path class="cls-3" d="M71,180.08c0-.77-.06-1.54-.07-2.31h.46c0,.77,0,1.54.07,2.3Zm.4-4.62H71c0-.77,0-1.54.07-2.31l.46,0C71.46,173.92,71.44,174.69,71.43,175.46Zm.2-4.6-.46,0q.09-1.16.21-2.31l.45,0C71.75,169.33,71.69,170.1,71.63,170.86Zm.47-4.57-.46-.06c.1-.77.22-1.53.34-2.29l.45.07C72.31,164.77,72.2,165.52,72.1,166.29Zm.73-4.55-.45-.08c.15-.76.3-1.52.47-2.27l.45.1C73.14,160.24,73,161,72.83,161.74Zm6.44-19.38-.49,0s.16-.35.49-1l.42.2C79.35,142.17,79.27,142.36,79.27,142.36Zm1.13-2.24-.41-.21c.36-.68.72-1.36,1.1-2l.4.23C81.12,138.77,80.75,139.45,80.4,140.12ZM215.28,132c-.42-.63-.22-.34-.67-1l.38-.27c.45.63.23.32.66,1Zm-2-2.82c-.46-.62-.93-1.22-1.41-1.82l.36-.29c.48.6,1,1.21,1.42,1.83Zm-2.88-3.6c-.5-.58-1-1.16-1.52-1.73l.34-.31q.78.87,1.53,1.74Zm-3.08-3.41c-.54-.56-1.07-1.1-1.62-1.64l.32-.33c.55.54,1.09,1.09,1.63,1.65ZM204,119c-.56-.52-1.13-1-1.71-1.54l.3-.35c.59.51,1.16,1,1.72,1.56Zm-3.46-3c-.59-.49-1.19-1-1.79-1.44l.28-.37c.61.48,1.21,1,1.8,1.45Zm-3.63-2.83c-.61-.46-1.24-.9-1.87-1.34l.26-.38q1,.66,1.89,1.35Zm-3.78-2.62c-.64-.41-1.29-.82-1.95-1.22l.24-.39c.66.4,1.31.81,2,1.23Zm-3.93-2.38c-.67-.38-1.34-.75-2-1.11l.22-.41c.68.36,1.36.73,2,1.11Zm-4.06-2.16c-.69-.34-1.38-.67-2.08-1l.19-.42,2.09,1ZM181,104q-1.07-.45-2.13-.87l.16-.43c.72.28,1.44.57,2.15.87Zm-4.29-1.67c-.72-.25-1.44-.5-2.17-.73l.14-.44c.73.23,1.46.48,2.19.74ZM172.31,101c-.73-.21-1.47-.41-2.21-.6l.11-.45c.75.19,1.49.4,2.23.61Z"/><path class="cls-3" d="M71.26,183.65c0-.38-.07-.76-.09-1.15l.45,0c0,.38.06.76.1,1.15Z"/><path class="cls-3" d="M133.72,176.48a77.07,77.07,0,1,1,77.06-77.06A77.15,77.15,0,0,1,133.72,176.48Zm0-153.67a76.61,76.61,0,1,0,76.6,76.61A76.69,76.69,0,0,0,133.72,22.81Z"/><path class="cls-3" d="M133.47,198.83q-1.17,0-2.31,0v-.46c.76,0,1.53,0,2.3,0Zm2.3,0v-.46c.77,0,1.53,0,2.3-.07l0,.46C137.31,198.77,136.54,198.8,135.77,198.81Zm-6.92-.1c-.77,0-1.53-.08-2.3-.13l0-.46,2.29.14Zm11.53-.1,0-.46,2.29-.17,0,.45C141.92,198.5,141.15,198.56,140.38,198.61Zm-16.13-.22-2.29-.25.05-.45q1.14.13,2.28.24ZM145,198.2l-.05-.45c.76-.09,1.52-.18,2.28-.29l.06.46C146.5,198,145.74,198.12,145,198.2Zm-25.3-.35-2.28-.35.07-.46c.76.13,1.52.24,2.28.35Zm29.87-.27-.07-.45c.76-.12,1.51-.25,2.26-.39l.09.45Q150.68,197.4,149.54,197.58Zm-34.42-.48-2.26-.46.09-.45c.75.16,1.5.31,2.26.45Zm39-.35-.09-.45c.75-.16,1.49-.32,2.24-.5l.1.45C155.59,196.43,154.83,196.59,154.08,196.75Zm-43.47-.62c-.75-.18-1.5-.36-2.24-.56l.12-.44c.74.19,1.48.38,2.22.55Zm48-.43-.12-.44,2.22-.6.12.44Q159.69,195.42,158.58,195.7ZM106.15,195c-.74-.21-1.48-.44-2.21-.67l.13-.44,2.2.67Zm56.86-.51-.13-.44c.74-.23,1.47-.46,2.19-.71l.15.44Zm-61.27-.87c-.73-.25-1.45-.5-2.17-.77l.16-.43c.71.26,1.44.52,2.16.76Zm65.67-.6-.16-.43,2.16-.81.17.43C168.86,192.45,168.13,192.72,167.41,193Zm-70-1c-.71-.28-1.42-.56-2.13-.86l.18-.42,2.12.86Zm74.31-.68-.17-.42,2.11-.91.19.42C173.15,190.71,172.44,191,171.72,191.31Zm-78.55-1.1c-.7-.31-1.39-.63-2.09-1l.2-.41,2.08.95Zm82.78-.77-.19-.41c.69-.33,1.38-.66,2.07-1l.21.42C177.35,188.78,176.65,189.12,176,189.44ZM89,188.24c-.69-.34-1.37-.7-2-1.06l.21-.41,2,1.06Zm91.07-.86-.21-.41c.67-.36,1.35-.72,2-1.1l.22.41ZM85,186.07c-.67-.37-1.33-.76-2-1.15l.23-.4c.66.39,1.32.78,2,1.15Zm99.17-.94-.24-.4,2-1.19.24.39C185.45,184.34,184.79,184.73,184.13,185.13ZM81,183.72l-1.93-1.24.25-.39,1.93,1.24Zm107.05-1-.25-.39c.64-.42,1.28-.84,1.91-1.28l.26.38Q189,182.06,188.05,182.69ZM77.16,181.18c-.63-.43-1.26-.88-1.88-1.33l.27-.37,1.87,1.33Zm-3.73-2.71c-.61-.46-1.21-.94-1.81-1.42l.29-.36c.59.48,1.19.95,1.8,1.42Zm122.11-1.19-.29-.36c.6-.47,1.19-1,1.78-1.45l.3.36C196.74,176.32,196.14,176.81,195.54,177.28Zm-125.7-1.69c-.59-.49-1.18-1-1.75-1.5l.3-.35q.85.76,1.74,1.5Zm129.24-1.26-.3-.35q.87-.75,1.71-1.53l.31.34C200.24,173.31,199.66,173.82,199.08,174.33ZM66.37,172.55,64.7,171l.32-.34c.55.53,1.1,1.06,1.67,1.58Zm136.12-1.34-.32-.33c.55-.53,1.1-1.06,1.64-1.61l.33.33C203.59,170.15,203,170.68,202.49,171.21ZM63.06,169.34c-.55-.54-1.08-1.1-1.61-1.65l.34-.32q.78.84,1.59,1.65ZM205.74,168l-.33-.32q.79-.82,1.56-1.68l.34.31C206.8,166.83,206.27,167.39,205.74,168ZM59.89,166c-.52-.57-1-1.15-1.53-1.73l.35-.3c.5.58,1,1.15,1.52,1.72Zm149-1.45-.35-.31c.5-.57,1-1.16,1.48-1.75l.36.3C209.85,163.37,209.35,164,208.85,164.54Zm-152-2c-.48-.6-1-1.2-1.44-1.81l.36-.28c.47.6,1,1.2,1.44,1.79ZM211.78,161l-.36-.29c.48-.6.94-1.2,1.4-1.82l.37.28Q212.5,160.08,211.78,161ZM54,158.86c-.46-.61-.92-1.24-1.36-1.86l.37-.27,1.36,1.86Zm160.53-1.55-.38-.27c.45-.62.89-1.25,1.32-1.88l.38.26ZM51.35,155.1c-.43-.64-.86-1.28-1.27-1.93l.38-.25c.42.65.84,1.29,1.27,1.92Zm165.81-1.6-.39-.25c.41-.64.82-1.28,1.23-1.94l.39.25ZM48.85,151.22c-.4-.66-.8-1.32-1.18-2l.39-.23c.39.66.78,1.32,1.18,2Zm170.72-1.64-.39-.23c.38-.66.76-1.32,1.13-2l.4.22C220.34,148.25,220,148.92,219.57,149.58Zm-173-2.36c-.37-.68-.73-1.36-1.09-2l.41-.21c.35.68.71,1.35,1.08,2Zm175.28-1.66-.41-.22c.35-.67.7-1.35,1-2l.41.2C222.51,144.2,222.16,144.88,221.81,145.56ZM44.4,143.12c-.34-.7-.67-1.39-1-2.09l.42-.2c.32.7.65,1.39,1,2.08Zm179.45-1.68-.42-.2c.32-.69.64-1.38.95-2.08l.42.18C224.49,140,224.17,140.74,223.85,141.44ZM42.46,138.92c-.3-.71-.6-1.42-.89-2.14l.42-.17c.29.71.59,1.42.89,2.12Zm183.24-1.69-.43-.18c.29-.7.58-1.42.85-2.13l.43.16C226.27,135.8,226,136.52,225.7,137.23Zm-185-2.6c-.27-.72-.54-1.45-.79-2.18l.43-.15c.26.73.52,1.45.79,2.17Zm186.63-1.71-.43-.15c.26-.72.51-1.45.75-2.17l.43.14C227.86,131.47,227.61,132.2,227.35,132.92ZM39.18,130.26c-.24-.73-.47-1.47-.69-2.21l.44-.13c.22.74.45,1.47.69,2.2Zm189.62-1.72-.43-.13c.22-.73.43-1.47.64-2.21l.45.13C229.25,127.07,229,127.81,228.8,128.54Zm-191-2.7c-.2-.74-.39-1.49-.58-2.24l.44-.11c.19.75.38,1.49.59,2.22Zm192.2-1.74-.44-.11c.18-.74.37-1.49.54-2.23l.45.1C230.42,122.61,230.24,123.36,230.05,124.1ZM36.73,121.36l-.48-2.26.46-.09c.15.76.31,1.5.47,2.25Zm194.36-1.76-.45-.09c.15-.75.3-1.5.44-2.25l.45.08C231.39,118.1,231.24,118.85,231.09,119.6ZM35.83,116.84c-.14-.76-.26-1.52-.38-2.28l.46-.07c.11.76.24,1.51.37,2.27Zm196.09-1.77-.46-.08c.12-.75.23-1.51.33-2.27l.46.06C232.15,113.55,232,114.31,231.92,115.07ZM35.13,112.28c-.1-.76-.19-1.53-.27-2.29l.46,0c.08.76.17,1.52.26,2.28Zm197.4-1.78-.46-.06c.09-.75.16-1.52.23-2.28l.46,0C232.69,109,232.61,109.73,232.53,110.5ZM34.64,107.69c-.06-.77-.11-1.53-.16-2.3l.46,0c.05.77.1,1.53.16,2.29Zm198.29-1.79-.46,0c.05-.76.09-1.53.12-2.29l.46,0C233,104.37,233,105.13,232.93,105.9ZM34.37,103.08c0-.76,0-1.53-.06-2.3h.46c0,.77,0,1.53.06,2.3Zm198.75-1.78h-.46c0-.63,0-1.25,0-1.87s0-1.54,0-2.3h.46c0,.77,0,1.53,0,2.31C233.14,100,233.13,100.67,233.12,101.3ZM34.77,98.48h-.46c0-.77,0-1.54,0-2.3h.46C34.79,96.94,34.78,97.71,34.77,98.48Zm197.81-3.65c0-.77-.08-1.54-.14-2.3l.46,0c.06.77.1,1.53.14,2.3ZM34.92,93.89l-.46,0c0-.77.09-1.53.15-2.3l.46,0C35,92.36,35,93.12,34.92,93.89Zm197.34-3.65q-.1-1.14-.24-2.28l.46,0c.09.76.17,1.52.24,2.29Zm-197-.93-.45,0c.07-.76.16-1.53.26-2.29l.45.06C35.44,87.79,35.35,88.55,35.27,89.31Zm196.47-3.63c-.11-.76-.22-1.51-.35-2.27l.46-.07c.12.75.23,1.51.34,2.28Zm-195.9-.93-.45-.06q.16-1.16.36-2.28l.46.08C36.08,83.24,36,84,35.84,84.75ZM231,81.15q-.21-1.12-.45-2.25l.45-.1c.16.75.31,1.51.45,2.27ZM36.62,80.23l-.45-.09c.15-.76.31-1.51.47-2.26l.45.1C36.93,78.73,36.77,79.48,36.62,80.23Zm193.43-3.57c-.17-.75-.36-1.49-.55-2.23l.44-.12c.2.75.38,1.49.56,2.24ZM37.61,75.75l-.44-.11c.18-.75.37-1.5.57-2.24l.45.12C38,74.26,37.79,75,37.61,75.75Zm191.28-3.54c-.21-.73-.43-1.47-.65-2.2l.44-.13c.23.73.44,1.47.66,2.21Zm-190.08-.9-.44-.13c.22-.74.44-1.47.68-2.2l.44.14C39.25,69.85,39,70.58,38.81,71.31Zm188.72-3.49c-.25-.73-.5-1.45-.76-2.18l.43-.15c.26.72.52,1.45.76,2.18ZM40.22,66.94l-.44-.15c.25-.73.51-1.45.78-2.17l.43.16C40.73,65.5,40.47,66.22,40.22,66.94ZM226,63.49c-.28-.72-.57-1.43-.86-2.14l.42-.17c.3.71.59,1.42.87,2.14ZM41.82,62.64l-.42-.17c.28-.71.57-1.42.88-2.13l.42.19C42.4,61.23,42.11,61.93,41.82,62.64Zm182.36-3.4c-.31-.7-.63-1.4-1-2.09l.42-.2q.5,1,1,2.1ZM43.62,58.43l-.41-.19c.31-.7.64-1.39,1-2.08l.42.2C44.26,57.05,43.94,57.74,43.62,58.43Zm178.6-3.35c-.35-.69-.7-1.37-1.06-2l.41-.21c.36.68.71,1.36,1.06,2Zm-176.6-.77-.41-.21c.35-.68.71-1.36,1.07-2l.41.22C46.32,53,46,53.63,45.62,54.31ZM220.06,51c-.38-.67-.76-1.34-1.15-2l.39-.23c.4.66.78,1.33,1.16,2Zm-2.35-4c-.41-.65-.82-1.3-1.24-1.94l.38-.25c.43.64.84,1.29,1.25,1.94Zm-2.53-3.84c-.43-.63-.87-1.26-1.32-1.88l.37-.27c.45.62.9,1.25,1.33,1.89ZM52.72,42.55l-.38-.26,1.35-1.87.37.27Zm159.77-3c-.47-.61-.94-1.22-1.42-1.81l.36-.29c.48.6.95,1.21,1.42,1.82Zm-157-.64-.37-.28c.47-.6,1-1.21,1.43-1.8l.36.29C56.39,37.66,55.91,38.26,55.45,38.86Zm154.17-3c-.5-.59-1-1.17-1.5-1.75l.35-.3c.5.58,1,1.16,1.5,1.75ZM58.34,35.3,58,35c.5-.58,1-1.16,1.51-1.73l.35.3C59.34,34.14,58.83,34.72,58.34,35.3Zm148.25-2.84c-.52-.57-1.05-1.12-1.58-1.68l.33-.32c.54.56,1.06,1.12,1.58,1.69Zm-145.2-.58-.33-.32c.52-.56,1-1.11,1.59-1.66l.33.32Zm142-2.73c-.54-.54-1.09-1.07-1.65-1.6l.32-.33,1.66,1.6ZM64.6,28.6l-.32-.33c.55-.54,1.11-1.07,1.67-1.6l.32.34C65.71,27.53,65.15,28.06,64.6,28.6ZM200.07,26c-.57-.51-1.14-1-1.72-1.52l.3-.35,1.73,1.53ZM68,25.47l-.3-.35c.57-.51,1.15-1,1.74-1.51l.3.35C69.11,24.45,68.54,25,68,25.47ZM196.59,23c-.59-.48-1.18-1-1.78-1.43l.28-.37c.61.48,1.2,1,1.8,1.45Zm-125.13-.5-.29-.36L73,20.7l.28.37C72.66,21.53,72.06,22,71.46,22.49ZM193,20.16c-.61-.46-1.23-.91-1.85-1.35l.26-.38c.63.45,1.25.9,1.86,1.36ZM75.1,19.68l-.27-.37c.62-.46,1.24-.9,1.87-1.35l.27.38C76.34,18.78,75.72,19.23,75.1,19.68ZM78.86,17l-.25-.38c.64-.43,1.28-.85,1.93-1.26l.25.39C80.14,16.2,79.5,16.62,78.86,17Zm3.89-2.46-.24-.4c.66-.39,1.32-.78,2-1.16l.23.4C84.06,13.8,83.4,14.18,82.75,14.58Zm98.69-1.88-2-1.08.21-.41c.68.36,1.36.72,2,1.09Zm-94.7-.4-.22-.41c.68-.36,1.36-.72,2-1.07l.21.41C88.1,11.58,87.42,11.93,86.74,12.3Zm90.64-1.71c-.68-.34-1.37-.67-2.06-1l.19-.42c.7.32,1.39.65,2.08,1Zm-86.54-.38-.2-.42c.69-.33,1.39-.66,2.1-1l.19.42C92.23,9.55,91.53,9.87,90.84,10.21Zm82.39-1.55-2.11-.89.18-.43c.71.29,1.41.59,2.12.9ZM95,8.31l-.18-.43c.7-.3,1.42-.59,2.13-.88l.17.43C96.45,7.71,95.74,8,95,8.31Zm74-1.38c-.72-.28-1.43-.54-2.16-.8L167,5.7c.72.26,1.44.52,2.16.8ZM99.31,6.6l-.16-.43c.73-.27,1.45-.53,2.18-.78l.15.44Zm65.35-1.21c-.73-.24-1.45-.47-2.19-.69l.14-.44c.73.22,1.47.45,2.19.69Zm-61-.29-.14-.44L105.74,4l.13.44Zm56.6-1c-.74-.21-1.48-.4-2.22-.59l.11-.45,2.23.59Zm-52.19-.25L108,3.37c.74-.2,1.48-.39,2.23-.57l.11.45Zm47.73-.88c-.74-.17-1.49-.33-2.24-.48l.09-.45c.76.15,1.51.31,2.26.48Zm-43.27-.2-.1-.45,2.26-.47.09.46C114,2.41,113.29,2.57,112.54,2.73ZM151.32,2c-.76-.14-1.51-.26-2.27-.38l.07-.46,2.28.38Zm-34.27-.16L117,1.4q1.14-.19,2.28-.36l.07.46C118.56,1.61,117.8,1.73,117.05,1.86Zm29.73-.55q-1.14-.15-2.28-.27l.05-.46c.76.08,1.53.17,2.29.28Zm-25.19-.12,0-.45c.76-.1,1.52-.18,2.29-.26l0,.46ZM142.21.82c-.76-.07-1.52-.12-2.29-.17l0-.46c.77,0,1.54.1,2.3.17ZM126.16.74l0-.46,2.31-.14,0,.46C127.69.64,126.92.68,126.16.74ZM137.63.53c-.76,0-1.53-.05-2.29-.06V0c.77,0,1.53,0,2.3.06Zm-6.88,0,0-.46L133,0V.46Z"/><path class="cls-3" d="M218.2,183.89H49.25V14.94h169Zm-168.49-.46h168V15.4h-168Z"/><path class="cls-3" d="M53.49,20.91V18.6h1.13a.6.6,0,0,1,.66.59.52.52,0,0,1-.4.53.57.57,0,0,1,.44.57.6.6,0,0,1-.67.62Zm1.37-1.65a.29.29,0,0,0-.32-.3h-.65v.6h.65A.29.29,0,0,0,54.86,19.26Zm0,1a.32.32,0,0,0-.35-.32h-.67v.64h.67A.31.31,0,0,0,54.91,20.23Z"/><path class="cls-3" d="M57.05,20.91l-.51-.86h-.4v.86h-.41V18.6h1a.71.71,0,0,1,.76.73A.64.64,0,0,1,57,20l.57.91Zm0-1.58a.36.36,0,0,0-.39-.37h-.55v.73h.55A.36.36,0,0,0,57.08,19.33Z"/><path class="cls-3" d="M57.91,20.91V18.6h.4v2.31Z"/><path class="cls-3" d="M60.41,20.91l-1.2-1.65v1.65H58.8V18.6h.42l1.18,1.6V18.6h.4v2.31Z"/><path class="cls-3" d="M61.19,19.76a1.17,1.17,0,0,1,1.21-1.2,1.07,1.07,0,0,1,.93.49l-.33.18a.74.74,0,0,0-.6-.31.84.84,0,0,0,0,1.68.82.82,0,0,0,.55-.21V20h-.69v-.36h1.1v.87a1.27,1.27,0,0,1-1,.42A1.17,1.17,0,0,1,61.19,19.76Z"/><path class="cls-3" d="M63.78,20.91V18.6h.4v2.31Z"/><path class="cls-3" d="M66.29,20.91l-1.21-1.65v1.65h-.4V18.6h.41l1.18,1.6V18.6h.41v2.31Z"/><path class="cls-3" d="M67.07,19.76a1.16,1.16,0,0,1,1.21-1.2,1.09,1.09,0,0,1,.93.49l-.33.18a.74.74,0,0,0-.6-.31.84.84,0,0,0,0,1.68.81.81,0,0,0,.54-.21V20h-.68v-.36h1.09v.87a1.26,1.26,0,0,1-1,.42A1.17,1.17,0,0,1,67.07,19.76Z"/><path class="cls-3" d="M214.66,35.83h-2.89V34.56a.91.91,0,1,1,1.81,0v.76h1.08Zm-2-1.7a.46.46,0,0,0-.46.5v.69h.92v-.69A.46.46,0,0,0,212.68,34.13Z"/><path class="cls-3" d="M214.66,31.54l-1.08.64v.5h1.08v.51h-2.89V31.92a.88.88,0,0,1,.91-.94.81.81,0,0,1,.85.68l1.13-.71Zm-2,0a.45.45,0,0,0-.46.49v.69h.92V32A.45.45,0,0,0,212.68,31.5Z"/><path class="cls-3" d="M214.66,30.47h-2.89V30h2.89Z"/><path class="cls-3" d="M214.66,28.51l-2.89,1.14v-.58l2.34-.87-2.34-.88v-.57l2.89,1.13Z"/><path class="cls-3" d="M214.66,24.62l-.55.21v1.33l.55.21V27l-2.89-1.14v-.63L214.66,24Zm-2.38.88,1.38.52V25Z"/><path class="cls-3" d="M213.22,24a1.45,1.45,0,0,1-1.49-1.52,1.31,1.31,0,0,1,.65-1.16l.22.43a.86.86,0,0,0-.42.73,1,1,0,0,0,2.08,0,.84.84,0,0,0-.42-.73l.23-.43a1.33,1.33,0,0,1,.65,1.16A1.46,1.46,0,0,1,213.22,24Z"/><path class="cls-3" d="M214.66,20.19h-1.2l-1.69,1.12v-.58l1.24-.8-1.24-.79v-.58l1.69,1.12h1.2Z"/><path class="cls-3" d="M200.54,179.72v-2.49h-.89v-.46H202v.46h-.9v2.49Z"/><path class="cls-3" d="M202.14,178.25a1.51,1.51,0,1,1,1.51,1.52A1.47,1.47,0,0,1,202.14,178.25Zm2.48,0a1,1,0,1,0-1,1.06A1,1,0,0,0,204.62,178.25Z"/><path class="cls-3" d="M206.79,179.72v-2.95h.51v2.49h1.3v.46Z"/><path class="cls-3" d="M209.07,179.72v-2.95h.52v2.95Z"/><path class="cls-3" d="M210.22,179.72v-2.95h2v.46h-1.5V178h1.47v.46h-1.47v1.27Z"/><path class="cls-3" d="M212.7,179.72v-2.95h2v.46h-1.51V178h1.47v.46h-1.47v.81h1.51v.46Z"/><rect class="cls-3" x="71.07" y="19.44" width="22.39" height="0.46"/><rect class="cls-3" x="175.46" y="178.56" width="21.92" height="0.46"/><rect class="cls-3" x="212.91" y="38" width="0.46" height="21.94"/><circle class="cls-3" cx="102.75" cy="19.67" r="1.24"/><circle class="cls-3" cx="107.87" cy="19.67" r="1.24"/><circle class="cls-3" cx="113" cy="19.67" r="1.24"/><path class="cls-3" d="M49.48,50.93a3.81,3.81,0,1,1,3.81-3.81A3.82,3.82,0,0,1,49.48,50.93Zm0-7.39a3.59,3.59,0,1,0,3.58,3.58A3.59,3.59,0,0,0,49.48,43.54Z"/><circle class="cls-3" cx="49.48" cy="47.12" r="1.82"/><path class="cls-3" d="M218,138.39a3.82,3.82,0,1,1,3.81-3.81A3.82,3.82,0,0,1,218,138.39Zm0-7.4a3.59,3.59,0,1,0,3.58,3.59A3.59,3.59,0,0,0,218,131Z"/><circle class="cls-3" cx="217.97" cy="134.58" r="1.82"/><circle class="cls-3" cx="186.51" cy="15.43" r="2.2"/><path class="cls-3" d="M49.6,125.34l-.25-.39,1.16-.75.25.39Zm3.1-2-.25-.39,1.93-1.25.25.39Zm3.86-2.5-.25-.39,1.94-1.25.25.39Zm4.14-2.67-.25-.39,1.94-1.25.25.39Zm3.87-2.5-.25-.39L66.25,114l.25.39Zm22.5-14.55-.25-.38,1.94-1.25.25.38Zm4.29-2.77L91.11,98,93,96.71l.25.39Zm3.87-2.5L95,95.46l1.93-1.25.25.39Zm3.86-2.5L98.84,93l1.94-1.25.25.38Zm42.54-27.49-.25-.38,1.93-1.25.25.38Zm3.76-2.43-.25-.38,1.93-1.25.25.38ZM149,61.07l-.25-.38,1.94-1.25.25.38Zm3.88-2.5-.25-.38,1.94-1.25.25.38Zm19.65-12.7-.25-.38,1.93-1.25.25.38Zm3.87-2.5-.25-.38,1.93-1.25.25.38Zm3.86-2.49-.25-.39L182,39.24l.25.39Zm3.87-2.5-.25-.39,1.93-1.25.25.39Zm3.87-2.5-.25-.39,1.93-1.25.25.39Zm3.86-2.5-.25-.39,1.94-1.25.25.39Zm3.87-2.5-.25-.39,1.93-1.25.25.39Zm3.87-2.5-.25-.39,1.93-1.25.25.39Z"/><path class="cls-3" d="M108.16,183.79l-.39-.25.78-1.2.38.25Zm2-3.14-.39-.25,1.25-1.93.39.25Zm2.5-3.86-.39-.25,1.25-1.94.39.25Zm2.49-3.87-.38-.25,1.25-1.94.38.25Zm2.5-3.87-.38-.25,1.24-1.93.39.25Zm2.5-3.87-.39-.25L121,163l.39.25Zm2.5-3.87-.39-.25,1.25-1.93.38.25Zm2.49-3.86-.38-.25,1.24-1.94.39.25Zm2.5-3.87-.39-.25,1.25-1.93.39.25Zm2.5-3.87-.39-.25,1.25-1.93.39.25Zm2.49-3.87-.38-.25,1.24-1.93.39.25Zm2.5-3.86-.39-.25,1.25-1.94.39.25Zm2.5-3.87-.39-.25,1.25-1.94.39.25Zm2.49-3.87-.38-.25,1.25-1.93.38.25Zm2.5-3.87-.39-.25,1.25-1.93.39.25Zm2.5-3.87-.39-.25,1.25-1.93.39.25Zm2.49-3.86-.38-.25,1.25-1.94.38.25Zm2.5-3.87-.38-.25,1.24-1.94.39.25Zm2.5-3.87-.39-.25,1.25-1.93.39.25Zm2.49-3.87-.38-.25,1.25-1.93.38.25Zm2.5-3.87-.38-.25,1.24-1.93.39.25Zm2.5-3.86-.39-.25,1.25-1.94.39.25Zm7.49-11.61-.39-.25,1.25-1.93.39.25Zm2.5-3.87-.39-.25L171,85.64l.39.25Zm2.39-3.71-.39-.25,1.25-1.93.39.25Zm2.23-3.45-.39-.25,1.25-1.93.39.25Zm12.85-19.91-.38-.25,1.25-1.94.38.25Zm2.5-3.87-.38-.25,1.24-1.93.39.25Zm2.5-3.87-.39-.25,1.25-1.93.39.25Zm2.5-3.86-.39-.25L195.94,47l.38.25Zm2.49-3.87-.38-.25,1.24-1.94.39.25Zm2.5-3.87-.39-.25,1.25-1.93.39.25Zm2.5-3.87-.39-.25,1.25-1.93.38.25Zm2.49-3.87-.38-.25,1.24-1.93.39.25Z"/><path class="cls-3" d="M55,58.22a2,2,0,1,1,2-2A2,2,0,0,1,55,58.22Zm0-3.74a1.71,1.71,0,1,0,1.7,1.7A1.7,1.7,0,0,0,55,54.48Z"/><path class="cls-3" d="M55,65.89a2,2,0,1,1,2-2A2,2,0,0,1,55,65.89Zm0-3.74a1.71,1.71,0,1,0,1.7,1.7A1.7,1.7,0,0,0,55,62.15Z"/><path class="cls-3" d="M55,73.56a2,2,0,1,1,2-2A2,2,0,0,1,55,73.56Zm0-3.74a1.71,1.71,0,1,0,1.7,1.7A1.7,1.7,0,0,0,55,69.82Z"/><path class="cls-3" d="M186.51,21.49a6.06,6.06,0,1,1,6.06-6.06A6.06,6.06,0,0,1,186.51,21.49Zm0-11.78a5.72,5.72,0,1,0,5.72,5.72A5.73,5.73,0,0,0,186.51,9.71Z"/><path class="cls-3" d="M76.12,158.77a8.59,8.59,0,1,1,8.59-8.59A8.6,8.6,0,0,1,76.12,158.77Zm0-16.85a8.26,8.26,0,1,0,8.26,8.26A8.28,8.28,0,0,0,76.12,141.92Z"/><circle class="cls-3" cx="76.12" cy="150.18" r="2.29"/><circle class="cls-3" cx="71.66" cy="183.66" r="1.42"/><path class="cls-3" d="M166.57,99.06v.47l1.3.27.1-.45Z"/><path class="cls-3" d="M192.9,178.73l-1.31,1,.27.37,1.82-1.34Z"/></g></g></svg>