<svg xmlns="http://www.w3.org/2000/svg" xmlns:xlink="http://www.w3.org/1999/xlink" viewBox="0 0 335.76 24.29"><defs><style>.cls-1{fill:#fff;}.cls-2{fill:url(#radial-gradient);}.cls-3{fill:url(#linear-gradient);}.cls-4{fill:#0e9de5;}</style><radialGradient id="radial-gradient" cx="40.71" cy="5.06" r="20.43" gradientUnits="userSpaceOnUse"><stop offset="0.1" stop-color="#26db8d"/><stop offset="0.26" stop-color="#23d29a"/><stop offset="0.56" stop-color="#1abbbb"/><stop offset="0.89" stop-color="#0e9de5"/></radialGradient><linearGradient id="linear-gradient" x1="-1484.12" y1="-731.69" x2="-1467.99" y2="-731.69" gradientTransform="translate(-595.99 1488.2) rotate(90)" gradientUnits="userSpaceOnUse"><stop offset="0.11" stop-color="#0e9de5"/><stop offset="0.44" stop-color="#1abbbb"/><stop offset="0.74" stop-color="#23d29a"/><stop offset="0.9" stop-color="#26db8d"/></linearGradient></defs><title>BETA</title><g id="Layer_2" data-name="Layer 2"><g id="Layer_1-2" data-name="Layer 1"><polygon class="cls-1" points="9.21 10.73 3 10.73 3 4.08 0 4.08 0 20.21 3 20.21 3 13.5 9.21 13.5 9.21 20.21 12.21 20.21 12.21 4.08 9.21 4.08 9.21 10.73"/><path class="cls-1" d="M58.59,13.3a5.58,5.58,0,0,0,1.33-3.78,5.55,5.55,0,0,0-1.33-3.8A5.19,5.19,0,0,0,54.5,4.08H49.6V20.21h3V14.94H54l3.92,5.27h3.45L57,14.43A4.64,4.64,0,0,0,58.59,13.3ZM57.16,9.52a2.7,2.7,0,0,1-.63,1.93,2.56,2.56,0,0,1-2,.75H52.6V6.84h1.9a2.63,2.63,0,0,1,2,.73A2.78,2.78,0,0,1,57.16,9.52Z"/><rect class="cls-1" x="67.93" y="4.08" width="3" height="16.14"/><polygon class="cls-1" points="79.64 4.08 79.64 7.07 85.68 7.07 78.22 20.21 91.02 20.21 91.02 17.22 83.57 17.22 91.02 4.08 79.64 4.08"/><polygon class="cls-1" points="98.14 20.21 108.04 20.21 108.04 17.45 101.13 17.45 101.13 13.18 106.82 13.18 106.82 10.42 101.13 10.42 101.13 6.82 108.04 6.82 108.04 4.08 98.14 4.08 98.14 20.21"/><polygon class="cls-1" points="125.01 14.19 117.42 4.08 115.22 4.08 115.22 20.21 118.22 20.21 118.22 10.08 125.84 20.21 128.02 20.21 128.02 4.08 125.01 4.08 125.01 14.19"/><path class="cls-2" d="M40.71,5.08h0l-2,3.08a8.72,8.72,0,0,1,1,4A8.83,8.83,0,0,1,26.85,20l-3.08,2A12.14,12.14,0,0,0,40.71,5.08Z"/><path class="cls-2" d="M30.83,18.23a6.11,6.11,0,0,0,6-5,13.56,13.56,0,0,0-2.93-.32,13.9,13.9,0,0,0-8.13,2.61A6.1,6.1,0,0,0,30.83,18.23Z"/><path class="cls-1" d="M33.84,11.82a14.27,14.27,0,0,1,3.09.33h0a6.1,6.1,0,0,0-12.2,0,5.55,5.55,0,0,0,.06.82h0a13.2,13.2,0,0,0-2.29,2.12A8.65,8.65,0,0,1,22,12.14,8.85,8.85,0,0,1,34.81,4.25l3.07-2A12.14,12.14,0,0,0,21.06,19.35a14.74,14.74,0,0,1,2.08-2.86,18.07,18.07,0,0,1,2.11-1.88A14.51,14.51,0,0,1,33.84,11.82Z"/><rect class="cls-3" x="135.21" y="4.08" width="0.98" height="16.14"/><path class="cls-1" d="M156.23,20.2l-1.18-3.09h-7.4l-1.18,3.09h-3.22l6.33-16.12h3.53l6.33,16.12ZM151.35,6.93l-2.9,7.69h5.8Z"/><path class="cls-1" d="M161.91,12.15a8.14,8.14,0,0,1,8.46-8.34,7.27,7.27,0,0,1,6.47,3.63l-2.41,1.23a4.79,4.79,0,0,0-4.06-2.34,5.52,5.52,0,0,0-5.56,5.82A5.53,5.53,0,0,0,170.37,18a4.75,4.75,0,0,0,4.06-2.35l2.41,1.23a7.3,7.3,0,0,1-6.47,3.63A8.13,8.13,0,0,1,161.91,12.15Z"/><path class="cls-1" d="M192.55,20.2l-1.18-3.09H184l-1.18,3.09h-3.22L185.9,4.08h3.53l6.34,16.12ZM187.67,6.93l-2.9,7.69h5.8Z"/><path class="cls-1" d="M199.8,20.2V4.08h6c5,0,8.44,3.33,8.44,8.07s-3.41,8-8.44,8Zm11.53-8a5.22,5.22,0,0,0-5.54-5.58h-3.16V17.71h3.16A5.29,5.29,0,0,0,211.33,12.15Z"/><path class="cls-1" d="M219.23,20.2V4.08h11V6.57h-8.21v4.18h8v2.49h-8v4.47h8.21V20.2Z"/><path class="cls-1" d="M249.36,20.2v-12l-5,12H243.2l-4.93-12v12h-2.83V4.08h4l4.38,10.61L248.2,4.08h4V20.2Z"/><path class="cls-1" d="M262.46,20.2V13.5L256.2,4.08h3.24L263.89,11l4.4-6.91h3.24l-6.24,9.42v6.7Z"/><path class="cls-4" d="M275.53,20.29V4.14h8c2.95,0,4.6,1.84,4.6,4.11A3.64,3.64,0,0,1,285.27,12a4,4,0,0,1,3.12,4c0,2.49-1.67,4.36-4.69,4.36Zm9.64-11.55a2.05,2.05,0,0,0-2.27-2.11h-4.53v4.19h4.53A2,2,0,0,0,285.17,8.74Zm.32,6.8A2.22,2.22,0,0,0,283,13.31h-4.65v4.48H283A2.18,2.18,0,0,0,285.49,15.54Z"/><path class="cls-4" d="M292.44,20.29V4.14h11.07V6.63h-8.24v4.19h8.07v2.49h-8.07v4.48h8.24v2.5Z"/><path class="cls-4" d="M311.47,20.29V6.63h-4.89V4.14H319.2V6.63h-4.89V20.29Z"/><path class="cls-4" d="M332.54,20.29l-1.18-3.1H324l-1.19,3.1h-3.22l6.34-16.15h3.54l6.34,16.15ZM327.65,7l-2.9,7.7h5.81Z"/></g></g></svg>