<svg xmlns="http://www.w3.org/2000/svg" xmlns:xlink="http://www.w3.org/1999/xlink" viewBox="0 0 152.95 58.67"><defs><style>.cls-1{fill:#fff;}.cls-2{fill:url(#radial-gradient);}.cls-3{fill:url(#linear-gradient);}</style><radialGradient id="radial-gradient" cx="48.63" cy="6.05" r="24.41" gradientUnits="userSpaceOnUse"><stop offset="0.1" stop-color="#26db8d"/><stop offset="0.26" stop-color="#23d29a"/><stop offset="0.56" stop-color="#1abbbb"/><stop offset="0.89" stop-color="#0e9de5"/></radialGradient><linearGradient id="linear-gradient" x1="57.08" y1="36.58" x2="95.87" y2="36.58" gradientUnits="userSpaceOnUse"><stop offset="0.11" stop-color="#0e9de5"/><stop offset="0.44" stop-color="#1abbbb"/><stop offset="0.74" stop-color="#23d29a"/><stop offset="0.9" stop-color="#26db8d"/></linearGradient></defs><title>Logo</title><g id="Layer_2" data-name="Layer 2"><g id="Layer_1-2" data-name="Layer 1"><polygon class="cls-1" points="11 12.82 3.58 12.82 3.58 4.87 0 4.87 0 24.15 3.58 24.15 3.58 16.12 11 16.12 11 24.15 14.58 24.15 14.58 4.87 11 4.87 11 12.82"/><path class="cls-1" d="M70,15.89a6.66,6.66,0,0,0,1.59-4.52A6.58,6.58,0,0,0,70,6.84a6.19,6.19,0,0,0-4.89-2H59.26V24.15h3.58v-6.3h1.63l4.69,6.3h4.12l-5.16-6.91A5.55,5.55,0,0,0,70,15.89Zm-1.71-4.52a3.29,3.29,0,0,1-.75,2.32,3.09,3.09,0,0,1-2.43.89H62.84V8.17h2.27a3.1,3.1,0,0,1,2.44.88A3.28,3.28,0,0,1,68.29,11.37Z"/><rect class="cls-1" x="81.16" y="4.87" width="3.58" height="19.28"/><polygon class="cls-1" points="95.15 4.87 95.15 8.45 102.36 8.45 93.46 24.15 108.75 24.15 108.75 20.57 99.84 20.57 108.75 4.87 95.15 4.87"/><polygon class="cls-1" points="117.25 24.15 129.08 24.15 129.08 20.84 120.83 20.84 120.83 15.75 127.62 15.75 127.62 12.44 120.83 12.44 120.83 8.15 129.08 8.15 129.08 4.87 117.25 4.87 117.25 24.15"/><polygon class="cls-1" points="149.35 16.95 140.29 4.87 137.66 4.87 137.66 24.15 141.24 24.15 141.24 12.04 150.35 24.15 152.95 24.15 152.95 4.87 149.35 4.87 149.35 16.95"/><path class="cls-2" d="M48.63,6.07h0L46.26,9.74a10.56,10.56,0,0,1-9.42,15.33,10.41,10.41,0,0,1-4.76-1.14L28.4,26.31A14.5,14.5,0,0,0,48.63,6.07Z"/><path class="cls-2" d="M36.84,21.78a7.28,7.28,0,0,0,7.16-6,16.83,16.83,0,0,0-3.5-.37,16.63,16.63,0,0,0-9.71,3.12A7.29,7.29,0,0,0,36.84,21.78Z"/><path class="cls-1" d="M40.43,14.12a17.24,17.24,0,0,1,3.69.39h0a7.29,7.29,0,1,0-14.57,0,6.24,6.24,0,0,0,.07,1h0A15.83,15.83,0,0,0,26.88,18,10.55,10.55,0,0,1,41.58,5.08L45.26,2.7a14.51,14.51,0,0,0-20.1,20.42,17.47,17.47,0,0,1,2.48-3.42,21.44,21.44,0,0,1,2.53-2.25A17.4,17.4,0,0,1,40.43,14.12Z"/><path class="cls-1" d="M40.56,58.5l-.69-1.82H35.53l-.7,1.82H33L36.66,49h2.07l3.72,9.46ZM37.7,50.71,36,55.22h3.4Z"/><path class="cls-1" d="M45.4,53.77a4.77,4.77,0,0,1,5-4.89A4.25,4.25,0,0,1,54.16,51l-1.41.72a2.83,2.83,0,0,0-2.39-1.37,3.42,3.42,0,0,0,0,6.83,2.8,2.8,0,0,0,2.39-1.37l1.41.72a4.29,4.29,0,0,1-3.8,2.13A4.78,4.78,0,0,1,45.4,53.77Z"/><path class="cls-1" d="M64.89,58.5l-.7-1.82H59.85l-.69,1.82H57.27L61,49h2.07l3.71,9.46ZM62,50.71l-1.7,4.51h3.4Z"/><path class="cls-1" d="M70.64,58.5V49h3.52a4.73,4.73,0,1,1,0,9.46Zm6.77-4.73a3.06,3.06,0,0,0-3.25-3.27H72.3V57h1.86A3.11,3.11,0,0,0,77.41,53.77Z"/><path class="cls-1" d="M83.55,58.5V49H90V50.5H85.21V53h4.72v1.46H85.21V57H90V58.5Z"/><path class="cls-1" d="M102.74,58.5v-7l-2.91,7h-.71l-2.89-7v7H94.57V49h2.34l2.57,6.22L102.06,49h2.34V58.5Z"/><path class="cls-1" d="M111.93,58.5V54.57L108.26,49h1.9l2.61,4.05L115.35,49h1.9l-3.66,5.53V58.5Z"/><rect class="cls-3" x="57.08" y="35.99" width="38.8" height="1.18"/></g></g></svg>