<svg xmlns="http://www.w3.org/2000/svg" xmlns:xlink="http://www.w3.org/1999/xlink" viewBox="0 0 236.63 108"><defs><style>.cls-1{fill:none;}.cls-2{fill:#f5f6fa;}.cls-3{fill:#0e9de5;}.cls-4{clip-path:url(#clip-path);}.cls-5{fill:#041742;}.cls-6{fill:#fff;}.cls-7{fill:#d2dbeb;}.cls-8{fill:#88dbf2;}.cls-9{fill:#9ee7ff;}.cls-10{fill:#6ef9b7;}.cls-11{fill:#26db8d;}</style><clipPath id="clip-path"><circle class="cls-1" cx="14.68" cy="54" r="14.68"/></clipPath></defs><title>Altcoin</title><g id="Layer_2" data-name="Layer 2"><g id="Layer_1-2" data-name="Layer 1"><rect class="cls-2" x="14.63" width="222" height="108"/><circle class="cls-3" cx="14.68" cy="54" r="14.68"/><g class="cls-4"><polygon class="cls-5" points="18.46 48.44 29.6 59.58 21.89 70.88 20.38 69.44 10.09 59.15 16.25 58.03 12.27 54.04 14.41 53.07 11.13 49.78 11.46 47.91 14.68 47.43 18.46 48.44"/></g><path class="cls-6" d="M10.71,56.84a6.88,6.88,0,0,0,3,.8c1.58,0,2.38-.76,2.38-1.72,0-1.3-1.28-1.88-2.6-1.88H12.27V51.86h1.18c1,0,2.3-.4,2.3-1.5,0-.78-.62-1.36-1.92-1.36a5.77,5.77,0,0,0-2.7.78l-.62-2.2a8.09,8.09,0,0,1,4-1c2.76,0,4.3,1.46,4.3,3.24a3.1,3.1,0,0,1-2.38,3v0a3.23,3.23,0,0,1,2.82,3.18c0,2.29-2,4-5.32,4a7.92,7.92,0,0,1-3.86-.9Z"/><path class="cls-7" d="M236.63,108v-19A190.17,190.17,0,0,0,29.35,108Z"/><path class="cls-7" d="M195,65.29h-4.4a30.21,30.21,0,0,0-8-6.53c-16.6-9.58-43.76-9.58-60.35,0a30.27,30.27,0,0,0-8,6.53h-4.29v9.22h0c-.8,6.86,3.28,13.88,12.31,19.09,16.59,9.59,43.75,9.59,60.35,0,9-5.21,13.1-12.23,12.31-19.09H195Z"/><path class="cls-8" d="M130.86,55c-1.44.49-2.85,1-4.21,1.62V95.79c1.36.6,2.77,1.14,4.21,1.62Z"/><path class="cls-8" d="M118.24,61.46V90.89a34.31,34.31,0,0,0,4,2.71l.22.12V58.65l-.22.11A33.44,33.44,0,0,0,118.24,61.46Z"/><path class="cls-8" d="M139.28,52.78c-1.43.26-2.83.57-4.21.93V98.66c1.38.35,2.78.66,4.21.93Z"/><path class="cls-8" d="M185.57,60.72v31A28.57,28.57,0,0,0,189.78,88V64.39A28.41,28.41,0,0,0,185.57,60.72Z"/><path class="cls-8" d="M194,81.39a15,15,0,0,0,.9-6.88H195V65.29h-1Z"/><path class="cls-8" d="M173,54.61c-1.38-.43-2.77-.83-4.21-1.17V98.92c1.44-.34,2.83-.73,4.21-1.17Z"/><path class="cls-8" d="M114,86.91V65.29h-4.14v9.22h0C109.43,78.74,110.8,83,114,86.91Z"/><path class="cls-8" d="M181.37,58.13a46.45,46.45,0,0,0-4.21-2V96.22c1.46-.6,2.86-1.27,4.21-2Z"/><path class="cls-8" d="M147.7,51.74c-1.41.09-2.82.22-4.21.39v48.11c1.39.17,2.8.3,4.21.39Z"/><path class="cls-8" d="M156.11,100.69v-49q-2.1-.1-4.2-.09v49.19Q154,100.8,156.11,100.69Z"/><path class="cls-8" d="M164.53,52.58c-1.39-.24-2.79-.42-4.21-.58v48.36c1.42-.15,2.82-.34,4.21-.58Z"/><path class="cls-9" d="M182.58,46.54C166,37,138.82,37,122.23,46.54s-16.6,25.27,0,34.85,43.75,9.58,60.35,0S199.17,56.13,182.58,46.54Z"/><path class="cls-10" d="M179.57,47.5c-14.94-8.63-39.39-8.63-54.33,0s-14.95,22.74,0,31.37,39.39,8.63,54.33,0S194.51,56.13,179.57,47.5Z"/><path class="cls-11" d="M176.24,49.32c-13.11-7.43-34.56-7.43-47.67,0s-13.11,19.6,0,27,34.56,7.43,47.67,0S189.35,56.76,176.24,49.32Z"/><polygon class="cls-6" points="151.07 53.19 148.07 54.93 132.75 56.8 138.82 60.31 135.38 62.31 124.68 56.12 127.67 54.38 142.98 52.5 137.19 49.16 140.63 47.16 151.07 53.19"/><polygon class="cls-6" points="164.06 60.69 160.62 62.69 153.77 58.73 151.15 60.26 157 63.64 153.57 65.63 147.72 62.26 144.96 63.85 151.81 67.81 148.38 69.81 137.65 63.61 153.33 54.5 164.06 60.69"/><polygon class="cls-6" points="179.13 69.4 163.45 78.51 160.06 76.55 162.89 69.05 155 73.63 151.12 71.39 166.81 62.28 170.2 64.24 167.37 71.74 175.25 67.16 179.13 69.4"/><path class="cls-7" d="M182.74,48.53h-4.4A30.45,30.45,0,0,0,170.29,42c-16.59-9.58-43.75-9.58-60.35,0a30.39,30.39,0,0,0-8,6.52H97.6v9.23h0c-.79,6.86,3.28,13.88,12.31,19.09,16.6,9.59,43.76,9.59,60.35,0,9-5.21,13.11-12.23,12.31-19.09h.14Z"/><path class="cls-8" d="M118.58,38.2c-1.45.49-2.85,1-4.21,1.62V79c1.36.6,2.76,1.14,4.21,1.62Z"/><path class="cls-8" d="M106,44.71V74.14a35.18,35.18,0,0,0,4,2.71l.22.12V41.9l-.22.11A35.14,35.14,0,0,0,106,44.71Z"/><path class="cls-8" d="M127,36c-1.43.26-2.83.57-4.21.92v45c1.38.35,2.78.66,4.21.93Z"/><path class="cls-8" d="M173.29,44v31a29.09,29.09,0,0,0,4.21-3.69V47.64A28.41,28.41,0,0,0,173.29,44Z"/><path class="cls-8" d="M181.71,64.64a14.84,14.84,0,0,0,.89-6.88h.14V48.53h-1Z"/><path class="cls-8" d="M160.66,37.86c-1.37-.43-2.77-.83-4.2-1.17V82.17q2.14-.51,4.2-1.17Z"/><path class="cls-8" d="M101.74,70.16V48.53H97.6v9.23h0C97.14,62,98.52,66.27,101.74,70.16Z"/><path class="cls-8" d="M169.08,41.38a45.21,45.21,0,0,0-4.21-2V79.46a45.21,45.21,0,0,0,4.21-2Z"/><path class="cls-8" d="M135.41,35q-2.11.13-4.2.39V83.49q2.08.26,4.2.39Z"/><path class="cls-8" d="M143.83,83.94v-49c-1.4-.07-2.8-.1-4.21-.09V84C141,84,142.43,84,143.83,83.94Z"/><path class="cls-8" d="M152.25,35.83c-1.39-.24-2.79-.42-4.21-.58V83.61c1.42-.15,2.82-.34,4.21-.58Z"/><path class="cls-9" d="M170.29,29.79c-16.59-9.58-43.75-9.58-60.35,0s-16.59,25.27,0,34.85,43.76,9.58,60.35,0S186.89,39.38,170.29,29.79Z"/><path class="cls-10" d="M167.29,30.75c-14.95-8.63-39.4-8.63-54.34,0S98,53.49,113,62.12s39.39,8.63,54.34,0S182.23,39.38,167.29,30.75Z"/><path class="cls-11" d="M164,32.57c-13.11-7.43-34.56-7.43-47.67,0s-13.1,19.6,0,27S150.84,67,164,59.6,177.06,40,164,32.57Z"/><polygon class="cls-6" points="138.78 36.44 135.79 38.18 120.46 40.05 126.54 43.56 123.1 45.56 112.39 39.37 115.39 37.63 130.69 35.75 124.91 32.41 128.34 30.41 138.78 36.44"/><polygon class="cls-6" points="151.78 43.94 148.34 45.94 141.49 41.98 138.87 43.51 144.72 46.89 141.28 48.88 135.43 45.5 132.68 47.1 139.53 51.06 136.09 53.06 125.36 46.86 141.04 37.75 151.78 43.94"/><polygon class="cls-6" points="166.85 52.65 151.17 61.76 147.78 59.8 150.61 52.3 142.72 56.88 138.84 54.64 154.52 45.53 157.92 47.49 155.09 54.99 162.97 50.41 166.85 52.65"/><path class="cls-7" d="M195,31.78h-4.4a30.39,30.39,0,0,0-8-6.52c-16.6-9.58-43.76-9.58-60.35,0a30.45,30.45,0,0,0-8,6.52h-4.29V41h0c-.8,6.86,3.28,13.88,12.31,19.09,16.59,9.58,43.75,9.58,60.35,0,9-5.21,13.1-12.23,12.31-19.09H195Z"/><path class="cls-8" d="M130.86,21.45c-1.44.49-2.85,1-4.21,1.62V62.29c1.36.6,2.77,1.14,4.21,1.62Z"/><path class="cls-8" d="M118.24,28V57.39a34.31,34.31,0,0,0,4,2.71l.22.12V25.15l-.22.11A33.44,33.44,0,0,0,118.24,28Z"/><path class="cls-8" d="M139.28,19.28c-1.43.26-2.83.57-4.21.92v45c1.38.35,2.78.66,4.21.93Z"/><path class="cls-8" d="M185.57,27.22v31a28.57,28.57,0,0,0,4.21-3.69V30.89A28.41,28.41,0,0,0,185.57,27.22Z"/><path class="cls-8" d="M194,47.89a15,15,0,0,0,.9-6.88H195V31.78h-1Z"/><path class="cls-8" d="M173,21.11c-1.38-.43-2.77-.83-4.21-1.17V65.42c1.44-.34,2.83-.74,4.21-1.17Z"/><path class="cls-8" d="M114,53.41V31.78h-4.14V41h0C109.43,45.24,110.8,49.52,114,53.41Z"/><path class="cls-8" d="M181.37,24.63a46.45,46.45,0,0,0-4.21-2V62.71a46.45,46.45,0,0,0,4.21-2Z"/><path class="cls-8" d="M147.7,18.24c-1.41.09-2.82.22-4.21.39v48.1c1.39.17,2.8.31,4.21.4Z"/><path class="cls-8" d="M156.11,67.19v-49q-2.1-.11-4.2-.09V67.28C153.31,67.28,154.71,67.26,156.11,67.19Z"/><path class="cls-8" d="M164.53,19.08c-1.39-.24-2.79-.42-4.21-.58V66.86c1.42-.15,2.82-.34,4.21-.58Z"/><path class="cls-9" d="M182.58,13c-16.6-9.58-43.76-9.58-60.35,0s-16.6,25.27,0,34.85,43.75,9.58,60.35,0S199.17,22.63,182.58,13Z"/><path class="cls-10" d="M179.57,14c-14.94-8.63-39.39-8.63-54.33,0s-14.95,22.74,0,31.37,39.39,8.63,54.33,0S194.51,22.63,179.57,14Z"/><path class="cls-11" d="M176.24,15.82c-13.11-7.43-34.56-7.43-47.67,0s-13.11,19.6,0,27,34.56,7.43,47.67,0S189.35,23.25,176.24,15.82Z"/></g></g></svg>