<svg xmlns="http://www.w3.org/2000/svg" xmlns:xlink="http://www.w3.org/1999/xlink" viewBox="0 0 236.63 108.42"><defs><style>.cls-1{fill:none;}.cls-2{fill:#f5f6fa;}.cls-3{fill:#0e9de5;}.cls-4{clip-path:url(#clip-path);}.cls-5{fill:#041742;}.cls-6{fill:#fff;}.cls-7{fill:#6ef9b7;}.cls-8{fill:#9ee7ff;}.cls-9{fill:#88dbf2;}</style><clipPath id="clip-path"><circle class="cls-1" cx="14.68" cy="54.21" r="14.68"/></clipPath></defs><title>Cyberpunks</title><g id="Layer_2" data-name="Layer 2"><g id="Layer_1-2" data-name="Layer 1"><rect class="cls-2" x="13.77" width="222.86" height="108.42"/><circle class="cls-3" cx="14.68" cy="54.21" r="14.68"/><g class="cls-4"><polygon class="cls-5" points="10.87 51.74 16.09 56.96 13.82 62.42 27.14 75.74 35.02 64.94 17.26 47.19 10.87 51.74"/></g><path class="cls-6" d="M13.82,50.35h-.05l-2.9,1.39-.59-2.68,4.05-1.87h2.93V62.42H13.82Z"/><path class="cls-7" d="M87,70.4h0a28.4,28.4,0,0,1,28.4,28.4V108a0,0,0,0,1,0,0H58.61a0,0,0,0,1,0,0V98.8A28.4,28.4,0,0,1,87,70.4Z"/><ellipse class="cls-7" cx="87.02" cy="47.94" rx="15.31" ry="18.6"/><path class="cls-8" d="M164.25,70.4h0a28.4,28.4,0,0,1,28.4,28.4V108a0,0,0,0,1,0,0h-56.8a0,0,0,0,1,0,0V98.8A28.4,28.4,0,0,1,164.25,70.4Z"/><ellipse class="cls-8" cx="164.25" cy="47.94" rx="15.31" ry="18.6"/><path class="cls-9" d="M125.63,64.64h0a32.75,32.75,0,0,1,32.75,32.75V108a0,0,0,0,1,0,0H92.88a0,0,0,0,1,0,0V97.39A32.75,32.75,0,0,1,125.63,64.64Z"/><ellipse class="cls-9" cx="125.63" cy="38.74" rx="17.66" ry="21.45"/></g></g></svg>