<svg xmlns="http://www.w3.org/2000/svg" xmlns:xlink="http://www.w3.org/1999/xlink" viewBox="0 0 236.63 108"><defs><style>.cls-1{fill:none;}.cls-2{fill:#f5f6fa;}.cls-3{fill:#0e9de5;}.cls-4{clip-path:url(#clip-path);}.cls-5{fill:#041742;}.cls-6{fill:#fff;}.cls-7{fill:url(#radial-gradient);}.cls-8{fill:#d2dbeb;}.cls-9{fill:#6ef9b7;}.cls-10{fill:#88dbf2;}</style><clipPath id="clip-path"><circle class="cls-1" cx="14.68" cy="54" r="14.68"/></clipPath><radialGradient id="radial-gradient" cx="160.53" cy="28.97" r="72.21" gradientUnits="userSpaceOnUse"><stop offset="0.1" stop-color="#26db8d"/><stop offset="0.25" stop-color="#32db9a"/><stop offset="0.51" stop-color="#52dbbb"/><stop offset="0.87" stop-color="#86dbf0"/><stop offset="0.89" stop-color="#88dbf2"/></radialGradient></defs><title>FromZenCash</title><g id="Layer_2" data-name="Layer 2"><g id="Layer_1-2" data-name="Layer 1"><rect class="cls-2" x="14.63" width="222" height="108"/><circle class="cls-3" cx="14.68" cy="54" r="14.68"/><g class="cls-4"><polygon class="cls-5" points="9.59 56.73 23.32 70.46 32.06 60.65 18.23 46.82 14.68 47.86 9.59 56.73"/></g><path class="cls-6" d="M15.35,59.83V56.72H9.58v-2l4.91-7.92h3.74v7.62h1.54v2.28H18.23v3.11Zm0-5.39V51.56c0-.78,0-1.58.08-2.42h-.06c-.42.84-.78,1.6-1.22,2.42L12.43,54.4l0,0Z"/><path class="cls-7" d="M160.53,29h0l-7,10.87a31.23,31.23,0,0,1-41.95,42l-10.88,7A42.92,42.92,0,0,0,160.53,29Z"/><path class="cls-7" d="M125.63,75.49a21.56,21.56,0,0,0,21.2-17.63A49.34,49.34,0,0,0,107.75,66,21.53,21.53,0,0,0,125.63,75.49Z"/><path class="cls-8" d="M136.26,52.84A51.77,51.77,0,0,1,147.19,54h0a21.56,21.56,0,0,0-43.12,0,22.7,22.7,0,0,0,.2,2.88h0a47.23,47.23,0,0,0-8.09,7.49A31.22,31.22,0,0,1,139.67,26.1l10.89-7A42.91,42.91,0,0,0,91.1,79.48a51.35,51.35,0,0,1,7.34-10.13,61.84,61.84,0,0,1,7.47-6.64A51.39,51.39,0,0,1,136.26,52.84Z"/><path class="cls-9" d="M227.67.17H215.12a18.68,18.68,0,0,1-18,13.66,18.68,18.68,0,0,1-18-13.66H161.55l2,8.64,5.21-1.23A30.82,30.82,0,0,0,176.29,18l-2.83,4.54,9.6,6L185.89,24a30.63,30.63,0,0,0,12.69,2.07l1.22,5.22,11-2.58-1.23-5.21a31.89,31.89,0,0,0,3.09-1.56A30.72,30.72,0,0,0,220,16l4.56,2.82,6-9.6L226,6.38A30.68,30.68,0,0,0,227.67.17Z"/><path class="cls-10" d="M24.5,108H37.05a18.68,18.68,0,0,1,36,0H90.62l-2-8.63-5.22,1.22a30.66,30.66,0,0,0-7.49-10.44l2.82-4.55-9.6-6L66.28,84.2A30.59,30.59,0,0,0,53.6,82.12L52.37,76.9l-11,2.58,1.22,5.21a30.8,30.8,0,0,0-10.44,7.5L27.6,89.37l-6,9.61,4.55,2.82A30.58,30.58,0,0,0,24.5,108Z"/></g></g></svg>