<svg xmlns="http://www.w3.org/2000/svg" xmlns:xlink="http://www.w3.org/1999/xlink" viewBox="0 0 236.63 108"><defs><style>.cls-1{fill:none;}.cls-2{fill:#f5f6fa;}.cls-3{fill:#9ee7ff;}.cls-4{fill:#0e9de5;}.cls-5{clip-path:url(#clip-path);}.cls-6{fill:#041742;}.cls-7{fill:#fff;}.cls-8{fill:#88dbf2;}.cls-9{fill:#26db8d;}</style><clipPath id="clip-path"><circle class="cls-1" cx="14.68" cy="54" r="14.68"/></clipPath></defs><title>Satoshi</title><g id="Layer_2" data-name="Layer 2"><g id="Layer_1-2" data-name="Layer 1"><rect class="cls-2" x="14.63" width="222" height="108"/><path class="cls-3" d="M56.14,54A69.35,69.35,0,0,0,81.9,108h87.46a69.46,69.46,0,0,0,0-108H81.9A69.35,69.35,0,0,0,56.14,54Z"/><circle class="cls-4" cx="14.68" cy="54" r="14.68"/><g class="cls-5"><polygon class="cls-6" points="11.09 50.1 15.84 54.86 10.06 59.83 21.99 71.75 21.91 70.45 29.84 59.75 17.95 47.86 10.91 47.86 11.09 50.1"/></g><path class="cls-7" d="M10.07,59.83V58l1.66-1.5c2.86-2.56,4.24-4,4.26-5.54,0-1.06-.62-1.9-2.12-1.9a4.86,4.86,0,0,0-2.79,1.06l-.86-2.16a7.19,7.19,0,0,1,4.25-1.34c3,0,4.56,1.72,4.56,4.08,0,2.18-1.56,3.92-3.46,5.6l-1.2,1v0h4.92v2.51Z"/><path class="cls-8" d="M155.78,39.82V38c-.14-3.45,1-6.82,3.93-10.27,1.86-2.21,3.65-4.27,3.65-6.27s-1.31-3.24-4.27-3.31a13,13,0,0,0-6.83,2l-2.62-8.89a26,26,0,0,1,12.2-2.83c9.65,0,14.06,5.1,14.06,11,0,5.58-3.58,9-5.93,11.51a11.51,11.51,0,0,0-3.3,7.86v1ZM161,56.5a6.83,6.83,0,0,1-7-7.1,6.8,6.8,0,0,1,7-7.17c4.2,0,7,2.89,7.09,7.17a6.78,6.78,0,0,1-7,7.1Z"/><path class="cls-8" d="M81.86,76.26V73.83c-.19-4.69,1.31-9.28,5.34-14,2.53-3,5-5.81,5-8.53s-1.78-4.4-5.8-4.49a17.58,17.58,0,0,0-9.28,2.72L73.52,37.48A35.37,35.37,0,0,1,90.1,33.64c13.11,0,19.11,6.93,19.11,14.9,0,7.58-4.87,12.17-8.06,15.64a15.64,15.64,0,0,0-4.49,10.68v1.4Zm7,22.67a9.27,9.27,0,0,1-9.55-9.65c0-5.81,4-9.74,9.55-9.74,5.72,0,9.56,3.93,9.65,9.74,0,5.53-3.84,9.65-9.55,9.65Z"/><path class="cls-8" d="M143.71,92.34V91.11a9.9,9.9,0,0,1,2.7-7.08c1.29-1.52,2.52-2.94,2.52-4.32s-.9-2.23-2.94-2.28a8.86,8.86,0,0,0-4.7,1.38l-1.81-6.13a18,18,0,0,1,8.41-1.94c6.64,0,9.68,3.51,9.68,7.55,0,3.84-2.47,6.17-4.08,7.93a7.92,7.92,0,0,0-2.28,5.41v.71Zm3.56,11.49a4.92,4.92,0,1,1,4.89-4.89,4.7,4.7,0,0,1-4.89,4.89Z"/><path class="cls-8" d="M175.17,76.31v-.8A6.38,6.38,0,0,1,176.92,71c.83-1,1.62-1.9,1.62-2.79s-.58-1.44-1.9-1.47a5.77,5.77,0,0,0-3,.89l-1.16-3.95a11.43,11.43,0,0,1,5.42-1.26c4.29,0,6.25,2.27,6.25,4.87s-1.6,4-2.64,5.11a5.14,5.14,0,0,0-1.47,3.5v.46Zm2.3,7.41a3.17,3.17,0,1,1,3.15-3.16,3,3,0,0,1-3.15,3.16Z"/><path class="cls-8" d="M126.32,53.5v-.8a6.41,6.41,0,0,1,1.74-4.56c.83-1,1.63-1.9,1.63-2.79s-.58-1.44-1.9-1.47a5.75,5.75,0,0,0-3,.89l-1.17-4A11.64,11.64,0,0,1,129,39.57c4.29,0,6.25,2.26,6.25,4.87s-1.59,4-2.63,5.11A5.09,5.09,0,0,0,131.16,53v.46Zm2.3,7.41a3.17,3.17,0,1,1,3.15-3.15,3,3,0,0,1-3.15,3.15Z"/><path class="cls-8" d="M61.34,63.09v-.8a6.38,6.38,0,0,1,1.75-4.56c.82-1,1.62-1.9,1.62-2.79s-.58-1.44-1.9-1.47a5.75,5.75,0,0,0-3,.89l-1.17-4A11.63,11.63,0,0,1,64,49.15c4.28,0,6.24,2.27,6.24,4.87s-1.59,4-2.63,5.12a5.09,5.09,0,0,0-1.47,3.49v.46Zm2.3,7.41a3.17,3.17,0,1,1,3.15-3.16,3,3,0,0,1-3.15,3.16Z"/><path class="cls-8" d="M105.62,24.36V23.12a10,10,0,0,1,2.71-7.07c1.28-1.52,2.52-2.94,2.52-4.32S110,9.5,107.9,9.45a8.88,8.88,0,0,0-4.7,1.38L101.4,4.7a17.89,17.89,0,0,1,8.4-1.95c6.65,0,9.69,3.52,9.69,7.56,0,3.84-2.47,6.17-4.08,7.92a7.92,7.92,0,0,0-2.28,5.42v.71Zm3.56,11.49A4.7,4.7,0,0,1,104.34,31a4.87,4.87,0,1,1,9.74,0,4.68,4.68,0,0,1-4.85,4.89Z"/><path class="cls-9" d="M135,101.54h-7.74l-2-2.18,2-11.2,0-.27h-7.59v13.65h-7.73l-2-2,2-11.19v-.48H94.6l0-.2-2-1.8,4.63-8h8.26V33.2H94.61l-2-2,19.3-7.11,5.76-15.62,2,2v13.6h7.62c0-4.55,5.75-15.61,5.75-15.61l2,2V24.08l.31,0a29.42,29.42,0,0,1,5.77.59,19.4,19.4,0,0,1,8.28,3.66A17.42,17.42,0,0,1,156,39.78a9.43,9.43,0,0,1-.45,5.15,15.32,15.32,0,0,1-3.6,5.15c-.81.8-1.69,1.53-2.55,2.3l.31.17a41.13,41.13,0,0,1,5.22,3.22,13.4,13.4,0,0,1,5.52,9c.1.72.18,1.45.27,2.18v2.31a1.4,1.4,0,0,0-.06.28,15.93,15.93,0,0,1-1.15,4.71A20,20,0,0,1,150.82,84a29.3,29.3,0,0,1-13.54,3.83c-.74,0-1.49.07-2.25.1v13.17ZM119.68,77.83l.37,0h12.36a18.9,18.9,0,0,0,5.08-.61,10.07,10.07,0,0,0,5.11-2.95,8.69,8.69,0,0,0,2.11-5.89A8.53,8.53,0,0,0,139.38,60a16,16,0,0,0-6.51-1.26H120l-.32,0Zm0-27.33.28,0h10a12.19,12.19,0,0,0,4.35-.76c3.17-1.21,5.33-3.31,5.76-6.81a7.76,7.76,0,0,0-3.21-7.62A11.35,11.35,0,0,0,130,33.22c-3.31,0-6.63,0-9.94,0h-.33Z"/><path class="cls-7" d="M133,99.54h-7.74a1.1,1.1,0,0,0,0-.18V86.16a2.48,2.48,0,0,0,0-.27h-7.59V99.21c0,.11,0,.22,0,.33h-7.73c0-.16,0-.31,0-.47q0-6.36,0-12.72v-.48H92.6c0-.09,0-.14,0-.2.72-3.17,1.45-6.34,2.15-9.51.07-.28.2-.32.45-.32h8.26V31.2H92.61V22.09h17.3V8.47h7.76v13.6h7.62V8.46H133V22.08l.31,0a29.42,29.42,0,0,1,5.77.59,19.4,19.4,0,0,1,8.28,3.66A17.42,17.42,0,0,1,154,37.78a9.43,9.43,0,0,1-.45,5.15,15.32,15.32,0,0,1-3.6,5.15c-.81.8-1.69,1.53-2.55,2.3l.31.17a41.13,41.13,0,0,1,5.22,3.22,13.4,13.4,0,0,1,5.52,9c.1.72.18,1.45.27,2.18v2.31a1.4,1.4,0,0,0-.06.28,15.93,15.93,0,0,1-1.15,4.71A20,20,0,0,1,148.82,82a29.3,29.3,0,0,1-13.54,3.83c-.74,0-1.49.07-2.25.1V99.07C133,99.23,133,99.38,133,99.54ZM117.68,75.83l.37,0h12.36a18.9,18.9,0,0,0,5.08-.61,10.07,10.07,0,0,0,5.11-2.95,8.69,8.69,0,0,0,2.11-5.89A8.53,8.53,0,0,0,137.38,58a16,16,0,0,0-6.51-1.26H118l-.32,0Zm0-27.33.28,0h10a12.19,12.19,0,0,0,4.35-.76c3.17-1.21,5.33-3.31,5.76-6.81a7.76,7.76,0,0,0-3.21-7.62A11.35,11.35,0,0,0,128,31.22c-3.31,0-6.63,0-9.94,0h-.33Z"/></g></g></svg>