<svg xmlns="http://www.w3.org/2000/svg" xmlns:xlink="http://www.w3.org/1999/xlink" viewBox="0 0 236.63 108"><defs><style>.cls-1{fill:none;}.cls-2{fill:#f5f6fa;}.cls-3{fill:#0e9de5;}.cls-4{clip-path:url(#clip-path);}.cls-5{fill:#041742;}.cls-6{fill:#fff;}.cls-7{fill:#6ef9b7;}.cls-8{fill:#26db8d;}.cls-9{fill:#9ee7ff;}.cls-10{fill:#88dbf2;}</style><clipPath id="clip-path"><circle class="cls-1" cx="14.68" cy="54" r="14.68"/></clipPath></defs><title>DAG</title><g id="Layer_2" data-name="Layer 2"><g id="Layer_1-2" data-name="Layer 1"><rect class="cls-2" x="14.63" width="222" height="108"/><circle class="cls-3" cx="14.68" cy="54" r="14.68"/><g class="cls-4"><polygon class="cls-5" points="18.46 48.44 29.6 59.58 21.89 70.88 20.38 69.44 10.09 59.15 16.25 58.03 12.27 54.04 14.41 53.07 11.13 49.78 11.46 47.91 14.68 47.43 18.46 48.44"/></g><path class="cls-6" d="M10.71,56.84a6.88,6.88,0,0,0,3,.8c1.58,0,2.38-.76,2.38-1.72,0-1.3-1.28-1.88-2.6-1.88H12.27V51.86h1.18c1,0,2.3-.4,2.3-1.5,0-.78-.62-1.36-1.92-1.36a5.77,5.77,0,0,0-2.7.78l-.62-2.2a8.09,8.09,0,0,1,4-1c2.76,0,4.3,1.46,4.3,3.24a3.1,3.1,0,0,1-2.38,3v0a3.23,3.23,0,0,1,2.82,3.18c0,2.29-2,4-5.32,4a7.92,7.92,0,0,1-3.86-.9Z"/><polygon class="cls-6" points="85.42 31.19 125.8 7.73 165.84 30.85 165.84 77.43 125.63 100.89 85.42 77.77 85.42 31.19"/><polygon class="cls-7" points="125.8 7.73 85.42 31.19 125.8 54.31 165.84 30.85 125.8 7.73"/><polygon class="cls-8" points="125.8 54.31 165.84 30.85 165.84 77.43 125.63 100.89 125.8 54.31"/><polygon class="cls-6" points="220.32 108 220.32 62.19 180.28 39.06 139.91 62.53 139.91 108 220.32 108"/><polygon class="cls-9" points="180.28 39.06 139.91 62.53 180.28 85.65 220.32 62.19 180.28 39.06"/><polygon class="cls-10" points="220.32 108 220.32 62.19 180.28 85.65 180.2 108 220.32 108"/><polygon class="cls-6" points="111.36 108 111.36 62.19 71.31 39.06 30.94 62.53 30.94 108 111.36 108"/><polygon class="cls-9" points="71.31 39.06 30.94 62.53 71.31 85.65 111.36 62.19 71.31 39.06"/><polygon class="cls-10" points="111.36 108 111.36 62.19 71.31 85.65 71.23 108 111.36 108"/></g></g></svg>