<svg xmlns="http://www.w3.org/2000/svg" xmlns:xlink="http://www.w3.org/1999/xlink" viewBox="0 0 92.65 105.39"><defs><style>.cls-1{fill:url(#radial-gradient);}.cls-2{fill:#041742;}.cls-3{fill:url(#linear-gradient);}.cls-4{fill:#0e9de5;}.cls-5{fill:url(#linear-gradient-2);}.cls-6{fill:#0b84ce;}.cls-7{fill:url(#linear-gradient-3);}.cls-8{fill:#8df;}.cls-9{fill:url(#linear-gradient-4);}.cls-10{fill:url(#linear-gradient-5);}.cls-11{fill:url(#linear-gradient-6);}.cls-12{fill:url(#linear-gradient-7);}.cls-13{fill:url(#linear-gradient-8);}.cls-14{fill:url(#linear-gradient-9);}.cls-15{fill:none;stroke:#f5f6fa;stroke-miterlimit:10;}.cls-16{fill:#f5f6fa;opacity:0.5;}.cls-17{fill:#fff;}</style><radialGradient id="radial-gradient" cx="32.98" cy="-835.85" r="23.68" gradientTransform="matrix(1, 0, 0, -1, 0, -789.92)" gradientUnits="userSpaceOnUse"><stop offset="0.1" stop-color="#26db8d"/><stop offset="0.26" stop-color="#23d29a"/><stop offset="0.56" stop-color="#1abbbb"/><stop offset="0.89" stop-color="#0e9de5"/></radialGradient><linearGradient id="linear-gradient" x1="73.59" y1="-824.72" x2="97.98" y2="-824.72" gradientTransform="translate(131.21 -789.92) rotate(180)" gradientUnits="userSpaceOnUse"><stop offset="0" stop-color="#0e9de5"/><stop offset="1" stop-color="#39bdff"/></linearGradient><linearGradient id="linear-gradient-2" x1="30.5" y1="-813.72" x2="60.24" y2="-813.47" gradientTransform="matrix(1, 0, 0, -1, 0, -789.92)" gradientUnits="userSpaceOnUse"><stop offset="0" stop-color="#0e9de5"/><stop offset="1" stop-color="#26db8d"/></linearGradient><linearGradient id="linear-gradient-3" x1="86.83" y1="-807" x2="100.34" y2="-807" xlink:href="#linear-gradient"/><linearGradient id="linear-gradient-4" x1="75.77" y1="-811.6" x2="95.76" y2="-811.6" xlink:href="#linear-gradient"/><linearGradient id="linear-gradient-5" x1="42.67" y1="-806.98" x2="48.52" y2="-806.98" xlink:href="#linear-gradient-2"/><linearGradient id="linear-gradient-6" x1="58.56" y1="-853.27" x2="81.78" y2="-844.39" xlink:href="#linear-gradient-2"/><linearGradient id="linear-gradient-7" x1="-178.39" y1="-847.56" x2="-157.21" y2="-847.56" gradientTransform="translate(-98.15 -789.92) rotate(180)" xlink:href="#linear-gradient"/><linearGradient id="linear-gradient-8" x1="66.28" y1="-842.21" x2="73.01" y2="-842.21" xlink:href="#linear-gradient-2"/><linearGradient id="linear-gradient-9" x1="-175.75" y1="-836.8" x2="-159.85" y2="-836.8" gradientTransform="translate(-98.15 -789.92) rotate(180)" xlink:href="#linear-gradient"/></defs><title>1</title><g id="Layer_2" data-name="Layer 2"><g id="content"><path class="cls-1" d="M33,46h0l-2.3,3.56A10.24,10.24,0,0,1,16.91,63.28l-3.57,2.3A14.07,14.07,0,0,0,33,46Z"/><path class="cls-1" d="M21.53,61.19a7.07,7.07,0,0,0,7-5.79,16.15,16.15,0,0,0-12.81,2.67A7.06,7.06,0,0,0,21.53,61.19Z"/><path class="cls-2" d="M25,53.75a16.66,16.66,0,0,1,3.59.39h0a7.07,7.07,0,0,0-14.14,0,5.82,5.82,0,0,0,.07.93h0a16,16,0,0,0-2.66,2.47A10.24,10.24,0,0,1,26.13,45l3.57-2.31A14.07,14.07,0,0,0,10.2,62.49a17.48,17.48,0,0,1,2.41-3.32A21.09,21.09,0,0,1,15.06,57,16.88,16.88,0,0,1,25,53.75Z"/><path class="cls-3" d="M57.62,30.27v2a1.74,1.74,0,0,1-.86,1.5l-7.94,4.65a6.73,6.73,0,0,1-6.8,0l-7.94-4.65a1.74,1.74,0,0,1-.86-1.5v-2Z"/><path class="cls-4" d="M48.82,24.12l7.94,4.65a1.74,1.74,0,0,1,0,3l-7.94,4.66a6.73,6.73,0,0,1-6.8,0l-7.94-4.66a1.73,1.73,0,0,1-.62-2.38,1.75,1.75,0,0,1,.62-.62L42,24.12A6.73,6.73,0,0,1,48.82,24.12Z"/><path class="cls-2" d="M47.48,26.54l4.81,2.81a1,1,0,0,1,.37,1.44,1.12,1.12,0,0,1-.37.38L47.48,34a4.05,4.05,0,0,1-4.12,0l-4.8-2.82a1.05,1.05,0,0,1-.37-1.44,1.12,1.12,0,0,1,.37-.38l4.82-2.8A4.09,4.09,0,0,1,47.48,26.54Z"/><path class="cls-5" d="M60.85,23.07l-1.15-.68a1,1,0,0,0-1,0l-.31.19L45.42,15l-13,7.61-.31-.19a1,1,0,0,0-1,0L30,23.07a.25.25,0,0,0-.09.34.2.2,0,0,0,.09.09l1.15.67a1,1,0,0,0,1,0l.31-.18,11.78,6.9-.43.26a.25.25,0,0,0-.09.34.2.2,0,0,0,.09.09l1.15.67a1,1,0,0,0,1,0l1.15-.67a.25.25,0,0,0,0-.43l-.43-.26L58.41,24l.31.18a1,1,0,0,0,1,0l1.15-.67a.25.25,0,0,0,.09-.34A.26.26,0,0,0,60.85,23.07ZM45.42,15.44,58,22.82l-.43.25H33.27l-.43-.25ZM32.83,23.75l.44-.25H45.18l0,6.88a1,1,0,0,0-.28.11l-.31.18Zm13.4,6.9-.31-.18a1,1,0,0,0-.29-.1l0-6.88h12l.43.25Z"/><path class="cls-6" d="M43.9,14.68,39.5,12.1a3.72,3.72,0,0,0-3.76,0l-4.4,2.58A1,1,0,0,0,31,16a1,1,0,0,0,.35.35l4.4,2.59a3.72,3.72,0,0,0,3.76,0l4.4-2.58A1,1,0,0,0,44.27,15,1,1,0,0,0,43.9,14.68ZM42,16.09l-3,1.78a2.59,2.59,0,0,1-2.61,0l-3-1.78a.67.67,0,0,1-.24-.92.69.69,0,0,1,.24-.24l3-1.78a2.59,2.59,0,0,1,2.61,0l3,1.78a.67.67,0,0,1,.24.92A.69.69,0,0,1,42,16.09Z"/><path class="cls-7" d="M44.38,14.36v1.51a.94.94,0,0,1-.48.83l-4.4,2.58a3.72,3.72,0,0,1-3.76,0l-4.4-2.58a.94.94,0,0,1-.48-.83V14.36l6.77,3.36Z"/><path class="cls-8" d="M43.9,13.47,39.5,10.9a3.72,3.72,0,0,0-3.76,0l-4.4,2.57A1,1,0,0,0,31,14.79a1.17,1.17,0,0,0,.35.35l4.4,2.57a3.72,3.72,0,0,0,3.76,0l4.4-2.57a1,1,0,0,0,.35-1.32A1,1,0,0,0,43.9,13.47ZM42,14.88l-3,1.78a2.55,2.55,0,0,1-2.61,0l-3-1.78A.67.67,0,0,1,33,14a.66.66,0,0,1,.24-.23l3-1.79a2.59,2.59,0,0,1,2.61,0l3,1.79a.66.66,0,0,1,.24.91A.69.69,0,0,1,42,14.88Z"/><path class="cls-9" d="M55.44,16.19v5.16a1.42,1.42,0,0,1-.7,1.23l-6.52,3.83a5.55,5.55,0,0,1-5.57,0l-6.51-3.83a1.39,1.39,0,0,1-.69-1.23V16.19Z"/><path class="cls-8" d="M48.22,11.14,54.74,15a1.44,1.44,0,0,1,.51,1.95,1.55,1.55,0,0,1-.51.51l-6.52,3.81a5.5,5.5,0,0,1-5.57,0l-6.51-3.81a1.43,1.43,0,0,1-.51-2,1.46,1.46,0,0,1,.51-.51l6.51-3.82A5.5,5.5,0,0,1,48.22,11.14Z"/><path class="cls-2" d="M46.34,16.59v-.81a.71.71,0,0,0,0-.14c0-.61-.88-1.1-2-1.1s-2,.49-2,1.1a.77.77,0,0,0,.27.54,2.56,2.56,0,0,1,1.71-.54C45.38,15.64,46.21,16.05,46.34,16.59Z"/><path class="cls-2" d="M49.13,17.42l-2.8-1.64v1.09l2.18,1.28.62-.36a.22.22,0,0,0,.08-.3A.18.18,0,0,0,49.13,17.42Z"/><path class="cls-10" d="M46.34,16.87v-.28c-.13-.54-1-.95-2-.95a2.56,2.56,0,0,0-1.71.54,2.51,2.51,0,0,0,1.71.55h.14l2.8,1.64a.86.86,0,0,0,.78,0l.06,0,.38-.22Z"/><path class="cls-11" d="M85.1,58.88,84,58.26a.86.86,0,0,0-.9,0l-1.06.62h-3L74.7,56.33,80.36,53l.11.06a.55.55,0,0,0,.58,0l.67-.39a.16.16,0,0,0,0-.2l0-.05-.67-.4a.6.6,0,0,0-.58,0l-.67.4a.15.15,0,0,0,0,.2l0,0,.19.11-5.67,3.32-4.68-2.74L65,56.12l-5.61-3.3.13-.07a.16.16,0,0,0,0-.21l0,0-.67-.39a.58.58,0,0,0-.57,0l-.68.41a.16.16,0,0,0,0,.21.12.12,0,0,0,0,.05l.67.39a.58.58,0,0,0,.57,0l.17-.1,5.61,3.28L60.23,58.9h-3l-1.06-.62a.88.88,0,0,0-.91,0l-1.06.62a.24.24,0,0,0-.08.32.3.3,0,0,0,.08.08l1.06.62a.88.88,0,0,0,.91,0l1.06-.62h3l4.36,2.56-5.67,3.28-.11-.06a.58.58,0,0,0-.57,0l-.67.39a.15.15,0,0,0,0,.2.12.12,0,0,0,0,0l.67.4a.58.58,0,0,0,.57,0l.67-.4a.15.15,0,0,0,.05-.2.12.12,0,0,0-.05,0l-.18-.11L65,62l4.56,2.68v1.62a.82.82,0,0,0-.26.1l-1.06.62a.23.23,0,0,0-.08.32l.08.08,1.06.62a.86.86,0,0,0,.9,0l1.06-.62a.23.23,0,0,0,.09-.31.2.2,0,0,0-.09-.09l-1.06-.62a.74.74,0,0,0-.26-.1v-1.7l4.41-2.59L80,65.36l-.18.11a.15.15,0,0,0,0,.2l0,0,.67.4a.6.6,0,0,0,.58,0l.67-.4a.16.16,0,0,0,0-.2l0,0-.67-.39a.6.6,0,0,0-.58,0l-.11.06L74.7,61.83l4.36-2.56h3l1.06.62a.88.88,0,0,0,.91,0l1.06-.62a.23.23,0,0,0,.07-.32S85.12,58.9,85.1,58.88Zm-6.79,0h-8l4-2.32Zm-8.67-5.07L74,56.34l-4.31,2.52-4.3-2.52ZM65,56.56l4,2.34H61Zm-4,2.71h8l-4,2.34Zm4.36,2.56,4.17-2.46v4.91Zm4.57,2.37V59.45l4,2.38Zm4.4-2.59-4-2.34h8Z"/><path class="cls-12" d="M80.24,50.38v8.36a1.5,1.5,0,0,1-.75,1.31l-6.9,4a5.86,5.86,0,0,1-5.92,0l-6.9-4a1.51,1.51,0,0,1-.72-1.31V50.38Z"/><path class="cls-6" d="M72.6,45l6.9,4.06A1.5,1.5,0,0,1,80,51.15a1.47,1.47,0,0,1-.54.54l-6.9,4.05a5.81,5.81,0,0,1-5.92,0l-6.9-4.05a1.5,1.5,0,0,1-.54-2.06,1.47,1.47,0,0,1,.54-.54L66.69,45A5.89,5.89,0,0,1,72.6,45Z"/><path class="cls-2" d="M71.26,47.44l3.79,2.22a.83.83,0,0,1,.3,1.14.76.76,0,0,1-.3.29l-3.79,2.22a3.19,3.19,0,0,1-3.24,0l-3.78-2.22a.82.82,0,0,1-.3-1.13.79.79,0,0,1,.3-.3L68,47.44A3.23,3.23,0,0,1,71.26,47.44Z"/><path class="cls-2" d="M71.26,51.27l1.75,1,2-1.2a.83.83,0,0,0,.3-1.14.76.76,0,0,0-.3-.29l-3.79-2.22a3.23,3.23,0,0,0-3.24,0l-3.78,2.22a.83.83,0,0,0-.3,1.14.76.76,0,0,0,.3.29l2,1.2,1.74-1A3.19,3.19,0,0,1,71.26,51.27Z"/><path class="cls-13" d="M71.26,53.31l1.75-1-1.75-1a3.19,3.19,0,0,0-3.24,0l-1.74,1,1.74,1A3.23,3.23,0,0,0,71.26,53.31Z"/><path class="cls-14" d="M77.6,43.93v1.28a1.15,1.15,0,0,1-.56,1l-5.18,3a4.39,4.39,0,0,1-4.43,0l-5.18-3a1.13,1.13,0,0,1-.56-1V43.93Z"/><path class="cls-8" d="M71.86,39.92,77,43a1.13,1.13,0,0,1,.4,1.55,1.21,1.21,0,0,1-.4.41l-5.18,3a4.39,4.39,0,0,1-4.43,0l-5.18-3a1.14,1.14,0,0,1-.4-1.56,1.27,1.27,0,0,1,.4-.4l5.18-3A4.34,4.34,0,0,1,71.86,39.92Z"/><rect class="cls-15" x="0.5" y="0.5" width="91.65" height="91.65"/><rect class="cls-16" x="0.5" y="0.5" width="91.65" height="91.65"/><circle class="cls-4" cx="46.33" cy="89.87" r="15.52"/><path class="cls-17" d="M45.1,95.92V88.48l-2.05,2L41,88.36l4.62-4.54h3.16v12.1Z"/></g></g></svg>