<svg xmlns="http://www.w3.org/2000/svg" xmlns:xlink="http://www.w3.org/1999/xlink" viewBox="0 0 92.65 105.39"><defs><style>.cls-1{fill:none;stroke:#f5f6fa;stroke-miterlimit:10;}.cls-2{fill:#26db8d;}.cls-3{fill:#d2dbeb;}.cls-4{fill:#0e9de5;}.cls-5{fill:url(#linear-gradient);}.cls-6{fill:#f5f6fa;opacity:0.5;}.cls-7{fill:#fff;}</style><linearGradient id="linear-gradient" x1="70.89" y1="44.46" x2="56.66" y2="62.34" gradientUnits="userSpaceOnUse"><stop offset="0" stop-color="#26db8d"/><stop offset="1" stop-color="#0e9de5"/></linearGradient></defs><title>2</title><g id="Layer_2" data-name="Layer 2"><g id="content"><rect class="cls-1" x="0.5" y="0.5" width="91.65" height="91.65"/><path class="cls-2" d="M46.05,9.89v5.38a8.06,8.06,0,0,1,7,12.07L57.69,30A13.42,13.42,0,0,0,46.05,9.89Z"/><path class="cls-3" d="M53,27.34a8.06,8.06,0,1,1-7-12.07V9.89A13.44,13.44,0,1,0,57.69,30Z"/><path class="cls-3" d="M20.85,54.13a8.07,8.07,0,0,1,8.06-8.06V40.7A13.41,13.41,0,0,0,17.29,60.85l4.64-2.69A8,8,0,0,1,20.85,54.13Z"/><path class="cls-4" d="M28.91,40.7v5.37a8,8,0,0,1,7,12.07l4.66,2.68A13.42,13.42,0,0,0,28.91,40.7Z"/><path class="cls-4" d="M28.91,62.19a8.06,8.06,0,0,1-7-4l-4.64,2.69a13.42,13.42,0,0,0,23.26,0l-4.66-2.68A8,8,0,0,1,28.91,62.19Z"/><path class="cls-5" d="M63.2,40.7A13.42,13.42,0,1,0,76.63,54.13,13.45,13.45,0,0,0,63.2,40.7Zm0,21.49a8.09,8.09,0,1,1,7-4A8.06,8.06,0,0,1,63.2,62.19Z"/><rect class="cls-6" x="0.5" y="0.5" width="91.65" height="91.65"/><circle class="cls-4" cx="46.33" cy="89.87" r="15.52"/><path class="cls-7" d="M41.65,96V93.16c5.53-3.9,6.05-4.35,6.05-5.26,0-.58-.61-.94-1.39-.94a4.75,4.75,0,0,0-3.2,1.25l-2-2.43a7.07,7.07,0,0,1,5.12-2c3.13,0,5.18,1.74,5.18,4.17,0,1.65-.94,3-3.82,4.92h3.93V96Z"/></g></g></svg>