<svg xmlns="http://www.w3.org/2000/svg" xmlns:xlink="http://www.w3.org/1999/xlink" viewBox="0 0 92.65 105.39"><defs><style>.cls-1{fill:#f6f8fb;}.cls-2{fill:#e5e9f4;}.cls-3{fill:url(#New_Gradient_Swatch_2);}.cls-4{fill:url(#linear-gradient);}.cls-5{fill:#fdfeff;}.cls-6{fill:#f1f2f2;}.cls-7{fill:#f3f8fe;}.cls-8{fill:url(#linear-gradient-2);}.cls-9{fill:url(#radial-gradient);}.cls-10{fill:url(#linear-gradient-3);}.cls-11,.cls-12,.cls-14,.cls-25{fill:#fff;}.cls-11{opacity:0.2;}.cls-12{opacity:0.43;}.cls-13{fill:url(#New_Gradient_Swatch_3);}.cls-14{opacity:0.3;}.cls-15{fill:url(#linear-gradient-4);}.cls-16{fill:url(#linear-gradient-5);}.cls-17{fill:#041742;}.cls-18{fill:url(#linear-gradient-6);}.cls-19{fill:url(#linear-gradient-7);}.cls-20{fill:url(#linear-gradient-8);}.cls-21{fill:url(#linear-gradient-9);}.cls-22{fill:none;stroke:#f5f6fa;stroke-miterlimit:10;}.cls-23{fill:#f5f6fa;opacity:0.5;}.cls-24{fill:#0e9de5;}</style><linearGradient id="New_Gradient_Swatch_2" x1="20.66" y1="46.9" x2="64.98" y2="46.9" gradientUnits="userSpaceOnUse"><stop offset="0" stop-color="#0e9de5"/><stop offset="1" stop-color="#26db8d"/></linearGradient><linearGradient id="linear-gradient" x1="24.99" y1="74.48" x2="25.22" y2="51.19" gradientUnits="userSpaceOnUse"><stop offset="0" stop-color="#f2f4fa"/><stop offset="0.92" stop-color="#d6dcee"/><stop offset="1" stop-color="#d3daed"/></linearGradient><linearGradient id="linear-gradient-2" x1="33.31" y1="78.66" x2="33.08" y2="53.14" xlink:href="#linear-gradient"/><radialGradient id="radial-gradient" cx="45.44" cy="8128.84" r="6.34" gradientTransform="translate(9.62 -4282.55) scale(0.97 0.54)" gradientUnits="userSpaceOnUse"><stop offset="0" stop-color="#d3daed" stop-opacity="0"/><stop offset="0.08" stop-color="#d1d9ec" stop-opacity="0.03"/><stop offset="0.19" stop-color="#cdd4eb" stop-opacity="0.11"/><stop offset="0.32" stop-color="#c5cee8" stop-opacity="0.24"/><stop offset="0.47" stop-color="#bac4e4" stop-opacity="0.43"/><stop offset="0.62" stop-color="#acb8df" stop-opacity="0.67"/><stop offset="0.78" stop-color="#9ca9d9" stop-opacity="0.96"/><stop offset="0.8" stop-color="#99a7d8"/></radialGradient><linearGradient id="linear-gradient-3" x1="-2070.26" y1="76.07" x2="-2058.36" y2="76.07" gradientTransform="matrix(-1, 0, 0, 1, -2010.78, 0)" gradientUnits="userSpaceOnUse"><stop offset="0" stop-color="#99a7d8"/><stop offset="0.08" stop-color="#a7b4dd"/><stop offset="0.23" stop-color="#bbc5e4"/><stop offset="0.4" stop-color="#c9d1e9"/><stop offset="0.62" stop-color="#d1d8ec"/><stop offset="1" stop-color="#d3daed"/></linearGradient><linearGradient id="New_Gradient_Swatch_3" x1="58.39" y1="78.78" x2="65.63" y2="83.22" gradientUnits="userSpaceOnUse"><stop offset="0" stop-color="#0e9de5"/><stop offset="1" stop-color="#4cdfdd"/></linearGradient><linearGradient id="linear-gradient-4" x1="75.09" y1="81.44" x2="63.68" y2="74.93" gradientUnits="userSpaceOnUse"><stop offset="0" stop-color="#6cf"/><stop offset="1" stop-color="#ff85f9"/></linearGradient><linearGradient id="linear-gradient-5" x1="77.25" y1="82.04" x2="75.68" y2="82.88" gradientUnits="userSpaceOnUse"><stop offset="0" stop-color="#26db8d"/><stop offset="1" stop-color="#22a69d"/></linearGradient><linearGradient id="linear-gradient-6" x1="15.72" y1="28.91" x2="25.41" y2="28.91" gradientUnits="userSpaceOnUse"><stop offset="0" stop-color="#304282"/><stop offset="1" stop-color="#7b85ac"/></linearGradient><linearGradient id="linear-gradient-7" x1="16.67" y1="28.91" x2="25.66" y2="28.91" xlink:href="#linear-gradient"/><linearGradient id="linear-gradient-8" x1="26.35" y1="15.95" x2="41.66" y2="15.95" xlink:href="#linear-gradient-6"/><linearGradient id="linear-gradient-9" x1="27.85" y1="15.95" x2="42.05" y2="15.95" xlink:href="#linear-gradient"/></defs><title>3</title><g id="Layer_2" data-name="Layer 2"><g id="content"><polygon class="cls-1" points="63.92 16.66 19.63 42.32 20.69 42.93 64.98 17.28 63.92 16.66"/><polygon class="cls-2" points="19.63 42.32 19.6 75.91 20.66 76.53 20.69 42.93 19.63 42.32"/><polygon class="cls-3" points="20.66 76.53 64.98 50.83 64.98 17.28 20.69 42.93 20.66 76.53"/><polygon class="cls-1" points="63.77 21.11 22.96 44.74 27.3 47.28 68.11 23.64 63.77 21.11"/><polygon class="cls-4" points="22.96 44.74 22.94 75.23 27.27 77.77 27.3 47.28 22.96 44.74"/><polygon class="cls-1" points="27.27 77.77 68.11 54.1 68.11 23.64 27.3 47.28 27.27 77.77"/><polygon class="cls-2" points="26.73 46.93 26.73 77.42 26.18 77.1 26.18 46.59 26.73 46.93"/><polygon class="cls-2" points="25.63 46.31 25.63 76.8 25.07 76.48 25.07 45.97 25.63 46.31"/><polygon class="cls-2" points="24.52 45.66 24.52 76.15 23.98 75.83 23.98 45.32 24.52 45.66"/><polygon class="cls-2" points="23.51 45.08 23.51 75.57 22.96 75.25 22.96 44.74 23.51 45.08"/><polygon class="cls-2" points="68.11 23.64 27.3 47.28 26.73 46.93 67.56 23.32 68.11 23.64"/><polygon class="cls-5" points="48.04 35.75 48.04 65.64 71.79 55.46 71.79 25.59 48.04 35.75"/><polygon class="cls-6" points="48.23 35.98 48.23 65.64 47.69 65.37 47.69 35.74 48.23 35.98"/><polygon class="cls-2" points="71.79 25.59 48.3 35.63 47.67 35.43 71.28 25.37 71.79 25.59"/><polygon class="cls-2" points="67.01 22.95 26.2 46.59 25.63 46.24 66.46 22.63 67.01 22.95"/><polygon class="cls-2" points="65.88 22.34 25.07 45.97 24.49 45.63 65.33 22.02 65.88 22.34"/><polygon class="cls-2" points="64.81 21.72 24 45.35 23.51 45.08 64.26 21.4 64.81 21.72"/><polygon class="cls-7" points="33.46 50.49 33.46 80.65 48.31 65.66 48.31 35.52 33.46 50.49"/><polygon class="cls-2" points="34.2 52.24 34.2 53.44 47.58 39.8 47.58 38.75 34.2 52.24"/><polygon class="cls-2" points="34.2 54.91 34.2 56.1 47.58 42.47 47.58 41.42 34.2 54.91"/><polygon class="cls-2" points="34.2 57.57 34.2 58.77 47.58 45.14 47.58 44.08 34.2 57.57"/><polygon class="cls-2" points="34.2 60.24 34.2 61.44 47.58 47.8 47.58 46.75 34.2 60.24"/><polygon class="cls-2" points="34.2 62.9 34.2 64.1 47.58 50.47 47.58 49.41 34.2 62.9"/><polygon class="cls-2" points="34.2 65.57 34.2 66.77 47.58 53.13 47.58 52.08 34.2 65.57"/><polygon class="cls-2" points="34.2 68.23 34.2 69.44 47.58 55.8 47.58 54.75 34.2 68.23"/><polygon class="cls-2" points="34.2 70.9 34.2 72.1 47.58 58.47 47.58 57.41 34.2 70.9"/><polygon class="cls-2" points="34.2 73.57 34.2 74.77 47.58 61.13 47.58 60.08 34.2 73.57"/><polygon class="cls-2" points="34.2 76.23 34.2 77.43 47.58 63.8 47.58 62.74 34.2 76.23"/><polygon class="cls-8" points="33.46 50.49 33.46 80.65 32.92 80.37 32.92 50.24 33.46 50.49"/><polygon class="cls-2" points="48.31 35.52 33.46 50.48 32.92 50.24 47.8 35.3 48.31 35.52"/><polygon class="cls-2" points="49.25 38.01 49.25 39.07 70.58 29.96 70.58 28.91 49.25 38.01"/><polygon class="cls-2" points="49.25 40.7 49.25 41.76 70.58 32.65 70.58 31.6 49.25 40.7"/><polygon class="cls-2" points="49.25 43.38 49.25 44.45 70.58 35.33 70.58 34.29 49.25 43.38"/><polygon class="cls-2" points="49.25 46.07 49.25 47.14 70.58 38.02 70.58 36.98 49.25 46.07"/><polygon class="cls-2" points="49.25 48.76 49.25 49.83 70.58 40.71 70.58 39.66 49.25 48.76"/><polygon class="cls-2" points="49.25 51.45 49.25 52.51 70.58 43.4 70.58 42.35 49.25 51.45"/><polygon class="cls-2" points="49.25 54.13 49.25 55.2 70.58 46.08 70.58 45.04 49.25 54.13"/><polygon class="cls-2" points="49.25 56.82 49.25 57.89 70.58 48.77 70.58 47.73 49.25 56.82"/><polygon class="cls-2" points="49.25 59.51 49.25 60.58 70.58 51.46 70.58 50.41 49.25 59.51"/><polygon class="cls-2" points="49.25 62.2 49.25 63.26 70.58 54.15 70.58 53.1 49.25 62.2"/><path class="cls-9" d="M49.49,73.27a8.58,8.58,0,0,1,8.2,0c2.25,1.4,2.25,3.68,0,5.07a8.53,8.53,0,0,1-8.2,0C47.23,77,47.23,74.67,49.49,73.27Z"/><path class="cls-10" d="M47.58,75.14v.93h0a3.2,3.2,0,0,0,1.85,2.68,9.07,9.07,0,0,0,8.2,0,3.18,3.18,0,0,0,1.85-2.68v-.93h-.17a3.69,3.69,0,0,0-1.68-1.77,9.11,9.11,0,0,0-8.2,0,3.75,3.75,0,0,0-1.67,1.77Zm1.09.93A2.19,2.19,0,0,1,50,74.33a8,8,0,0,1,7.11,0,1.81,1.81,0,0,1,0,3.47,8,8,0,0,1-7.11,0A2.18,2.18,0,0,1,48.67,76.07Z"/><ellipse class="cls-11" cx="53.53" cy="75.91" rx="5.1" ry="2.94"/><path class="cls-12" d="M53.63,76a3.41,3.41,0,0,1-3.11,0,1,1,0,0,1,0-1.79,3.47,3.47,0,0,1,3.11,0A1,1,0,0,1,53.63,76Z"/><path class="cls-2" d="M49.43,77.82a2.87,2.87,0,0,1,0-5.37,9.11,9.11,0,0,1,8.2,0,2.87,2.87,0,0,1,0,5.37h0a9.07,9.07,0,0,1-8.2,0ZM50,73.4a1.8,1.8,0,0,0,0,3.47,8,8,0,0,0,7.11,0h0a1.81,1.81,0,0,0,0-3.47,8,8,0,0,0-7.11,0Z"/><path class="cls-2" d="M62.42,81.7a.52.52,0,0,0,.26-1L57.79,77.9c-.25-.14-.87.46-.52.91l4.89,2.82A.48.48,0,0,0,62.42,81.7Z"/><path class="cls-13" d="M64.9,83.92,58,80c-.72-1,.57-2.19,1.09-1.89L66,82a1.09,1.09,0,0,1-.55,2A1.08,1.08,0,0,1,64.9,83.92Z"/><path class="cls-14" d="M65,82.65l-5.85-3.42c-.16-.21.13-.49.24-.42l5.85,3.42a.23.23,0,0,1,.09.33.25.25,0,0,1-.21.12A.27.27,0,0,1,65,82.65Z"/><path class="cls-15" d="M63.41,73.76c-.4-.24-.9.45-.9.45s-.35.78.05,1l12.68,7.31a5.83,5.83,0,0,1,.89-1.45Z"/><path class="cls-16" d="M77.6,81.94l-1.47-.85a5.83,5.83,0,0,0-.89,1.45l1.51.87a.91.91,0,0,0,.42.11.85.85,0,0,0,.43-1.58Z"/><path class="cls-17" d="M75,82.39a5.51,5.51,0,0,1,.88-1.45l-.26-.15a5.55,5.55,0,0,0-.89,1.45Z"/><path class="cls-17" d="M74.48,82.09a5.83,5.83,0,0,1,.89-1.45l-.27-.15a5.51,5.51,0,0,0-.88,1.45Z"/><path class="cls-1" d="M62.56,75.23a17.68,17.68,0,0,1-1.82-2,16.42,16.42,0,0,1,2.67.58,6.25,6.25,0,0,0-.47.66A4.12,4.12,0,0,0,62.56,75.23Z"/><path class="cls-17" d="M61.16,73.65a3.77,3.77,0,0,1-.42-.47,4.25,4.25,0,0,1,.61.13,1.39,1.39,0,0,0-.11.16A.86.86,0,0,0,61.16,73.65Z"/><path class="cls-14" d="M74.26,80.7l-10.3-6c-.11-.14.08-.32.15-.27l10.31,6a.16.16,0,0,1,.06.21.17.17,0,0,1-.14.08Z"/><path class="cls-18" d="M15.72,31.11l.06,1.46c0,.15.07.23.17.25h.95v-.55h0c.12-.08.24-.06.28,0l.1.2a.45.45,0,0,1,0,.43l-.5,1c-.13.26-.12.52,0,.6l.91.46a.11.11,0,0,0,.08,0h1V34.2H18.4l.27-.52a.52.52,0,0,1,.32-.29l.23,0c.12,0,.19.06.2.2l0,.91a.22.22,0,0,0,.15.24h.95v-.54l.49-.31a.83.83,0,0,0,.33-.65l0-.9a.72.72,0,0,1,.19-.46l.2-.24c.11-.13.24-.2.33-.15l1.88-1.63c.13-.26.12-.52,0-.6l-.56-.29c-.09,0-.12-.18-.08-.34s.06-.23.09-.34a.68.68,0,0,1,.26-.39l.76-.5a.8.8,0,0,0,.33-.65l0-.58h.72V25h-.94a.29.29,0,0,0-.19.05l-.75.49c-.12.08-.23.06-.28,0a2,2,0,0,0-.1-.21.45.45,0,0,1,0-.43l.5-1c.13-.25.12-.52,0-.59l-.05,0v-.46h-.95a.56.56,0,0,0-.4.34l-.51,1a.46.46,0,0,1-.31.28l-.24,0c-.11,0-.19-.06-.19-.2v-.08l.75,0,0-1h-1a.37.37,0,0,0-.16.05L19.38,24a.8.8,0,0,0-.33.65l0,.89a.66.66,0,0,1-.18.46l-.2.24-.11.1v-.24H17.8a.2.2,0,0,0-.15,0h0a.66.66,0,0,0-.33.33L16.49,28c-.13.25-.12.52,0,.59l.71.37s-.09.33-.16.6a.71.71,0,0,1-.26.4l-.75.49A.82.82,0,0,0,15.72,31.11Zm3-2.44a3.25,3.25,0,0,1,2.09-2.11c1-.12,1.43,1.1.86,2.59a3.22,3.22,0,0,1-2.09,2.11C18.59,31.39,18.17,30.16,18.74,28.67Z"/><path class="cls-19" d="M18,29.57a.71.71,0,0,1-.26.4l-.76.49a.83.83,0,0,0-.33.65l.06,1.46c0,.23.18.32.37.19l.75-.49c.12-.08.23-.06.28,0l.1.2a.48.48,0,0,1,0,.43l-.5,1c-.13.26-.12.52,0,.6l.91.46c.14.08.36-.07.49-.32l.51-1a.52.52,0,0,1,.32-.29l.23,0c.11,0,.19.06.2.2l0,.91c0,.23.17.31.36.19l1.22-.8a.82.82,0,0,0,.34-.65l0-.9a.7.7,0,0,1,.18-.46l.21-.24c.11-.13.24-.2.33-.15l.56.29c.14.07.36-.07.49-.32l.83-1.6c.13-.26.11-.52,0-.6l-.56-.29c-.09,0-.12-.18-.08-.34s.06-.23.09-.34a.68.68,0,0,1,.26-.39l.75-.5a.79.79,0,0,0,.34-.65l-.06-1.46c0-.23-.17-.31-.37-.19l-.75.49c-.12.08-.23.06-.28,0l-.1-.21a.45.45,0,0,1,0-.43l.5-1c.13-.25.12-.52,0-.59l-.9-.47c-.15-.07-.37.07-.5.33l-.51,1a.46.46,0,0,1-.31.28l-.24,0c-.11,0-.19-.06-.19-.2l0-.91c0-.23-.18-.31-.37-.19L20.33,24a.78.78,0,0,0-.33.65l0,.89a.7.7,0,0,1-.18.46l-.2.24c-.11.13-.25.2-.34.15l-.55-.29c-.15-.07-.37.08-.5.33L17.44,28c-.13.25-.12.52,0,.59l.71.37S18.08,29.3,18,29.57Zm2.53,1.69c-1,.13-1.43-1.1-.86-2.59a3.25,3.25,0,0,1,2.09-2.11c1-.12,1.43,1.1.86,2.59A3.22,3.22,0,0,1,20.55,31.26Z"/><path class="cls-20" d="M26.35,19.43l.09,2.3c0,.23.12.37.27.39h1.5v-.86h0c.2-.13.37-.09.45.08l.15.31a.77.77,0,0,1-.06.68L28,23.88c-.2.4-.19.82,0,.94l1.43.74a.32.32,0,0,0,.14,0H31.2V24.31h-.61l.42-.83a.79.79,0,0,1,.5-.45l.37-.05c.18,0,.3.09.31.32l.06,1.43a.37.37,0,0,0,.24.38h0a.28.28,0,0,0,.13,0H34v-.84l.77-.51a1.29,1.29,0,0,0,.52-1l-.05-1.42a1.09,1.09,0,0,1,.29-.72c.1-.13.21-.25.32-.38s.38-.31.53-.24l3-2.58c.2-.4.18-.82,0-.94L38.4,16c-.14-.07-.19-.29-.12-.54l.13-.53a1.11,1.11,0,0,1,.42-.63L40,13.52a1.3,1.3,0,0,0,.53-1l0-.92h1.15V9.79h-1.5a.64.64,0,0,0-.29.09l-1.18.78c-.2.13-.37.09-.45-.09a3.18,3.18,0,0,0-.16-.32.77.77,0,0,1,.06-.68L38.94,8c.2-.41.18-.82,0-.94l-.09,0V6.31h-1.5a.89.89,0,0,0-.63.54l-.8,1.57a.8.8,0,0,1-.5.44L35,8.93c-.18,0-.3-.09-.31-.32V8.49l1.19-.06,0-1.64H34.31a.43.43,0,0,0-.25.09L32.13,8.15a1.3,1.3,0,0,0-.53,1l.06,1.42a1.1,1.1,0,0,1-.29.72l-.32.37a.69.69,0,0,1-.17.17v-.38H29.62a.3.3,0,0,0-.23,0h0a1,1,0,0,0-.52.52l-1.3,2.53c-.2.4-.18.82,0,.93l1.13.58s-.15.53-.25.95a1.08,1.08,0,0,1-.41.63l-1.2.78A1.29,1.29,0,0,0,26.35,19.43Zm4.77-3.86c.67-1.75,2.1-3.18,3.3-3.33C36,12,36.68,14,35.78,16.33c-.68,1.76-2.1,3.19-3.31,3.34C30.88,19.86,30.21,17.93,31.12,15.57Z"/><path class="cls-21" d="M30,17a1.13,1.13,0,0,1-.41.63l-1.2.78a1.29,1.29,0,0,0-.52,1l.09,2.3c0,.37.28.5.58.3l1.19-.77c.19-.13.37-.09.45.08a1.77,1.77,0,0,0,.15.31.77.77,0,0,1-.06.68l-.8,1.55c-.2.4-.19.82,0,.94l1.43.74c.23.12.58-.11.79-.52l.8-1.56A.76.76,0,0,1,33,23l.37-.05c.18,0,.3.09.31.32l.06,1.43c0,.36.27.5.58.3l1.93-1.27a1.29,1.29,0,0,0,.52-1l-.05-1.42A1.07,1.07,0,0,1,37,20.6l.33-.38c.17-.21.38-.31.53-.24l.87.45c.23.12.58-.11.79-.51l1.29-2.52c.21-.4.19-.82,0-.94L39.9,16c-.14-.07-.19-.29-.12-.54l.13-.53a1.09,1.09,0,0,1,.41-.63l1.2-.78a1.33,1.33,0,0,0,.53-1l-.1-2.3c0-.37-.27-.51-.58-.31l-1.18.78c-.2.13-.37.09-.45-.09a3.18,3.18,0,0,0-.16-.32.77.77,0,0,1,.06-.68L40.43,8c.21-.41.19-.82,0-.94L39,6.35c-.23-.12-.58.11-.78.51l-.8,1.57a.79.79,0,0,1-.51.44l-.36.06c-.18,0-.3-.09-.31-.32l-.06-1.43c0-.36-.28-.5-.59-.29L33.63,8.15a1.27,1.27,0,0,0-.53,1l.06,1.42a1.1,1.1,0,0,1-.29.72l-.32.37c-.17.22-.38.32-.53.25l-.88-.46c-.23-.11-.58.12-.78.52l-1.3,2.53c-.2.4-.19.82,0,.93l1.12.58S30.08,16.57,30,17Zm4,2.68c-1.59.19-2.26-1.74-1.35-4.1.67-1.75,2.1-3.18,3.3-3.33,1.59-.2,2.26,1.73,1.35,4.09C36.6,18.09,35.18,19.52,34,19.67Z"/><rect class="cls-22" x="0.5" y="0.5" width="91.65" height="91.65"/><rect class="cls-23" x="0.5" y="0.5" width="91.65" height="91.65"/><circle class="cls-24" cx="46.33" cy="89.87" r="15.52"/><path class="cls-25" d="M41.08,94.24l1.8-2.51a5.39,5.39,0,0,0,3.28,1.16c1.2,0,1.76-.38,1.76-.81s-.25-.66-1.87-.66c-.52,0-1.57,0-1.76,0V88.21c.24,0,1.33,0,1.76,0,1.16,0,1.67-.22,1.67-.6,0-.56-.74-.78-1.79-.78a4.7,4.7,0,0,0-3,1.05l-1.72-2.28a6.56,6.56,0,0,1,5.08-2c3.33,0,5,1.36,5,3.36a3,3,0,0,1-2.67,2.68,3,3,0,0,1,2.87,2.83c0,2.16-2.12,3.63-5.26,3.63A7.12,7.12,0,0,1,41.08,94.24Z"/></g></g></svg>