<svg xmlns="http://www.w3.org/2000/svg" xmlns:xlink="http://www.w3.org/1999/xlink" viewBox="0 0 236.63 108"><defs><style>.cls-1{fill:none;}.cls-2{fill:#f5f6fa;}.cls-3{fill:#0e9de5;}.cls-4{clip-path:url(#clip-path);}.cls-5{fill:#041742;}.cls-6{fill:#fff;}.cls-7{fill:#9ee7ff;}.cls-8{fill:#b6f0ff;}.cls-9{fill:#88dbf2;}.cls-10{fill:#26db8d;}.cls-11{fill:#6ef9b7;}</style><clipPath id="clip-path"><circle class="cls-1" cx="14.68" cy="54" r="14.68"/></clipPath></defs><title>EncryptedMail</title><g id="Layer_2" data-name="Layer 2"><g id="Layer_1-2" data-name="Layer 1"><rect class="cls-2" x="14.63" width="222" height="108"/><circle class="cls-3" cx="14.68" cy="54" r="14.68"/><g class="cls-4"><polygon class="cls-5" points="11.09 50.1 15.84 54.86 10.06 59.83 21.99 71.75 21.91 70.45 29.84 59.75 17.95 47.86 10.91 47.86 11.09 50.1"/></g><path class="cls-6" d="M10.07,59.83V58l1.66-1.5c2.86-2.56,4.24-4,4.26-5.54,0-1.06-.62-1.9-2.12-1.9a4.86,4.86,0,0,0-2.79,1.06l-.86-2.16a7.19,7.19,0,0,1,4.25-1.34c3,0,4.56,1.72,4.56,4.08,0,2.18-1.56,3.92-3.46,5.6l-1.2,1v0h4.92v2.51Z"/><rect class="cls-7" x="102.97" y="18.74" width="114.29" height="70.53"/><polygon class="cls-8" points="217.26 18.74 160.11 54 102.97 18.74 217.26 18.74"/><polygon class="cls-9" points="102.97 18.74 160.11 64.1 217.26 18.74 160.11 54 102.97 18.74"/><rect class="cls-10" x="80.73" y="32.37" width="29.22" height="7.14"/><rect class="cls-9" x="73.67" y="74.73" width="38.44" height="7.14"/><rect class="cls-7" x="85.73" y="56.44" width="38.44" height="7.14"/><rect class="cls-11" x="52.31" y="45.69" width="38.44" height="7.14"/><rect class="cls-9" x="63.95" y="62.35" width="11.91" height="7.02"/><rect class="cls-9" x="52.31" y="31.39" width="11.91" height="7.02"/><rect class="cls-10" x="52.31" y="74.79" width="11.91" height="7.02"/></g></g></svg>