<svg xmlns="http://www.w3.org/2000/svg" xmlns:xlink="http://www.w3.org/1999/xlink" viewBox="0 0 236.63 108"><defs><style>.cls-1,.cls-7{fill:none;}.cls-2{fill:#f5f6fa;}.cls-3{fill:#0e9de5;}.cls-4{clip-path:url(#clip-path);}.cls-5{fill:#041742;}.cls-6{fill:#fff;}.cls-7{stroke:#fff;stroke-miterlimit:10;stroke-width:3px;}.cls-8{fill:#b4c2d6;}.cls-9{fill:#d2dbeb;}.cls-10{fill:#9ee7ff;}.cls-11{fill:#26db8d;}.cls-12{fill:#6ef9b7;}</style><clipPath id="clip-path"><circle class="cls-1" cx="14.68" cy="54" r="14.68"/></clipPath></defs><title>VitualPhoneNR</title><g id="Layer_2" data-name="Layer 2"><g id="Layer_1-2" data-name="Layer 1"><rect class="cls-2" x="14.63" width="222" height="108"/><circle class="cls-3" cx="14.68" cy="54" r="14.68"/><g class="cls-4"><polygon class="cls-5" points="18.46 48.44 29.6 59.58 21.89 70.88 20.38 69.44 10.09 59.15 16.25 58.03 12.27 54.04 14.41 53.07 11.13 49.78 11.46 47.91 14.68 47.43 18.46 48.44"/></g><path class="cls-6" d="M10.71,56.84a6.88,6.88,0,0,0,3,.8c1.58,0,2.38-.76,2.38-1.72,0-1.3-1.28-1.88-2.6-1.88H12.27V51.86h1.18c1,0,2.3-.4,2.3-1.5,0-.78-.62-1.36-1.92-1.36a5.77,5.77,0,0,0-2.7.78l-.62-2.2a8.09,8.09,0,0,1,4-1c2.76,0,4.3,1.46,4.3,3.24a3.1,3.1,0,0,1-2.38,3v0a3.23,3.23,0,0,1,2.82,3.18c0,2.29-2,4-5.32,4a7.92,7.92,0,0,1-3.86-.9Z"/><line class="cls-7" x1="59.53" y1="54.89" x2="124.97" y2="54.89"/><line class="cls-7" x1="185.52" y1="12.43" x2="124.97" y2="54.89"/><line class="cls-7" x1="207.84" y1="96.05" x2="124.97" y2="54.89"/><rect class="cls-8" x="102.8" y="13.95" width="48.34" height="82.1" rx="2.06"/><rect class="cls-9" x="100.8" y="11.95" width="48.34" height="82.1" rx="2.06"/><rect class="cls-6" x="105.87" y="17.57" width="38.2" height="62.74"/><rect class="cls-6" x="119.81" y="14.67" width="10.31" height="1"/><circle class="cls-6" cx="124.97" cy="86.84" r="3.02"/><path class="cls-10" d="M170.11,0V39.25a2.06,2.06,0,0,0,2.06,2.06h26.69a2.06,2.06,0,0,0,2.06-2.06V0h-3.23L185.52,10,173.34,0Z"/><rect class="cls-6" x="173.34" width="24.34" height="32.55"/><circle class="cls-6" cx="185.52" cy="36.72" r="1.92"/><path class="cls-11" d="M223.25,108V71.85a2.05,2.05,0,0,0-2.06-2H194.5a2.05,2.05,0,0,0-2.06,2V108h3.23l12.17-10L220,108Z"/><rect class="cls-6" x="195.67" y="73.38" width="24.34" height="34.62"/><rect class="cls-6" x="204.56" y="71.53" width="6.57" height="0.64"/><rect class="cls-12" x="44.12" y="31.32" width="30.81" height="52.32" rx="2.06"/><rect class="cls-6" x="47.36" y="34.9" width="24.34" height="39.98"/><rect class="cls-6" x="56.24" y="33.05" width="6.57" height="0.64"/><circle class="cls-6" cx="59.53" cy="79.05" r="1.92"/></g></g></svg>