<svg xmlns="http://www.w3.org/2000/svg" xmlns:xlink="http://www.w3.org/1999/xlink" viewBox="0 0 236.63 109.73"><defs><style>.cls-1{fill:none;}.cls-2{fill:#f5f6fa;}.cls-3{fill:#0e9de5;}.cls-4{clip-path:url(#clip-path);}.cls-5{fill:#041742;}.cls-6{fill:#fff;}.cls-7{clip-path:url(#clip-path-2);}.cls-8{fill:#88dbf2;}.cls-9{fill:#26db8d;}.cls-10{fill:#6ef9b7;}.cls-11,.cls-12{fill:#d2dbeb;}.cls-11{stroke:#fff;stroke-miterlimit:10;stroke-width:2px;}</style><clipPath id="clip-path"><circle class="cls-1" cx="14.68" cy="54.79" r="14.68"/></clipPath><clipPath id="clip-path-2"><rect class="cls-1" x="14.2" y="0.58" width="222" height="108"/></clipPath></defs><title>VPN</title><g id="Layer_2" data-name="Layer 2"><g id="Layer_1-2" data-name="Layer 1"><rect class="cls-2" x="13.77" y="0.58" width="222.86" height="108.42"/><circle class="cls-3" cx="14.68" cy="54.79" r="14.68"/><g class="cls-4"><polygon class="cls-5" points="10.87 52.32 16.09 57.54 13.82 63 27.14 76.32 35.02 65.53 17.26 47.77 10.87 52.32"/></g><path class="cls-6" d="M13.82,50.93h-.05l-2.9,1.39-.59-2.67,4.05-1.88h2.93V63H13.82Z"/><g class="cls-7"><polygon class="cls-6" points="64.46 82.39 97.95 109.73 103 109.73 66.76 80.14 37.39 19.02 100.81 0 89.68 0 34.68 16.49 33.7 18.72 64.03 81.85 64.46 82.39"/><polygon class="cls-6" points="210.47 48.42 172.75 85.99 135.12 109.73 141.11 109.73 174.6 88.6 213.84 49.59 213.87 47.35 181 12.79 160.9 0 154.98 0 178.82 15.13 210.47 48.42"/><polygon class="cls-6" points="137.11 29.04 138.38 0 135.18 0 133.81 31.36 135.99 32.91 180.43 15.38 179.26 12.4 137.11 29.04"/><path class="cls-6" d="M173.58,88.84l-56.87-6.09-1.33-2.15L133.9,30.87l2.82-.35,38.35,55.82Zm-54.48-9,51.36,5.5L135.83,34.87Z"/><path class="cls-6" d="M116.88,82.76H65.48l-1.23-2.63,39.5-46.91,2.78.64,11.9,46.9Zm-48-3.2h45.92l-10.64-41.9Z"/><polygon class="cls-6" points="99.58 0 103.14 32.18 35.51 16.47 34.78 19.58 104.61 35.8 106.57 34.07 102.8 0 99.58 0"/><rect class="cls-6" x="104.91" y="31.24" width="30.56" height="3.2" transform="translate(-2.53 11.29) rotate(-5.32)"/><rect class="cls-6" x="123.28" y="81.16" width="3.2" height="28.58"/><path class="cls-8" d="M179.84,3.8a10.09,10.09,0,1,0,10.09,10.09A10.11,10.11,0,0,0,179.84,3.8Z"/><path class="cls-6" d="M179.84,25A11.11,11.11,0,1,1,191,13.89,11.13,11.13,0,0,1,179.84,25Zm0-20.18a9.07,9.07,0,1,0,9.07,9.07A9.08,9.08,0,0,0,179.84,4.82Z"/><path class="cls-9" d="M35.14,7.94A10.09,10.09,0,1,0,45.23,18,10.09,10.09,0,0,0,35.14,7.94Z"/><path class="cls-6" d="M35.14,29.13A11.11,11.11,0,1,1,46.25,18,11.12,11.12,0,0,1,35.14,29.13ZM35.14,9A9.07,9.07,0,1,0,44.21,18,9.06,9.06,0,0,0,35.14,9Z"/><circle class="cls-8" cx="65.48" cy="81.16" r="10.09"/><path class="cls-6" d="M65.48,92.26a11.11,11.11,0,1,1,11.1-11.1A11.12,11.12,0,0,1,65.48,92.26Zm0-20.17a9.07,9.07,0,1,0,9.06,9.07A9.08,9.08,0,0,0,65.48,72.09Z"/><path class="cls-10" d="M173.75,77.16a10.09,10.09,0,1,0,10.09,10.09A10.1,10.1,0,0,0,173.75,77.16Z"/><path class="cls-6" d="M173.75,98.36a11.11,11.11,0,1,1,11.11-11.11A11.13,11.13,0,0,1,173.75,98.36Zm0-20.18a9.07,9.07,0,1,0,9.07,9.07A9.08,9.08,0,0,0,173.75,78.18Z"/><circle class="cls-9" cx="212.71" cy="48.45" r="10.09"/><path class="cls-6" d="M212.71,59.56a11.11,11.11,0,1,1,11.11-11.11A11.12,11.12,0,0,1,212.71,59.56Zm0-20.18a9.07,9.07,0,1,0,9.07,9.07A9.08,9.08,0,0,0,212.71,39.38Z"/><path class="cls-10" d="M91.07,0A10.11,10.11,0,0,0,101,8.36,10.09,10.09,0,0,0,110.93,0Z"/><path class="cls-6" d="M109.9,0A9.08,9.08,0,0,1,101,7.34,9.08,9.08,0,0,1,92.1,0H90a11.12,11.12,0,0,0,11,9.38A11.1,11.1,0,0,0,112,0Z"/></g><path class="cls-11" d="M155.32,25c-6.18,0-22.74-6.65-28.6-9.22L125.15,15l-1.55.73C118.12,18.32,102.33,25,95.09,25H91.3v3.8c0,43,30.45,64.59,31.75,65.49l2.16,1.49,2.15-1.49c1.3-.9,31.75-22.53,31.75-65.49V25ZM99,32.21c8.62-1.32,20.38-6.24,25.5-8.5V85.65A75.63,75.63,0,0,1,99,32.21Zm27,53.42v-62c5.19,2.18,17.35,7.08,25.49,8.5A76.1,76.1,0,0,1,126,85.63Z"/><polygon class="cls-9" points="93.95 28.31 125.96 19.2 155.82 28.31 146.61 68.36 124.45 91.12 102.76 62.95 93.95 28.31"/><polygon class="cls-6" points="125.96 21.7 153.62 29.31 149.42 57.14 125.37 91.12 125.96 21.7"/><path class="cls-12" d="M155.32,25c-6.18,0-22.74-6.65-28.6-9.22L125.15,15l-1.55.73C118.12,18.32,102.33,25,95.09,25H91.3v3.8c0,43,30.45,64.59,31.75,65.49l2.16,1.49,2.15-1.49c1.3-.9,31.75-22.53,31.75-65.49V25ZM99,32.21c8.62-1.32,20.38-6.24,25.5-8.5V85.65A75.63,75.63,0,0,1,99,32.21Zm27,53.42v-62c5.19,2.18,17.35,7.08,25.49,8.5A76.1,76.1,0,0,1,126,85.63Z"/></g></g></svg>