<svg xmlns="http://www.w3.org/2000/svg" viewBox="0 0 86.55 92.91"><defs><style>.cls-1{fill:#103468;}.cls-2{fill:#123d70;}.cls-3{fill:#3e6993;}.cls-4{fill:#041742;}.cls-5{isolation:isolate;}</style></defs><title>Asset 45</title><g id="Layer_2" data-name="Layer 2"><g id="Layer_1-2" data-name="Layer 1"><path class="cls-1" d="M43.29,73.16A29.94,29.94,0,1,1,73.23,43.22,30,30,0,0,1,43.29,73.16Zm0-57.25A27.31,27.31,0,1,0,70.6,43.22,27.33,27.33,0,0,0,43.29,15.91Z"/><path class="cls-1" d="M43.93,86.52a1.33,1.33,0,0,1-1.33-1.3h0a1.3,1.3,0,0,1,1.29-1.34h0a1.32,1.32,0,0,1,1.34,1.3h0A1.33,1.33,0,0,1,44,86.52h0Zm4.8-1.65a1.32,1.32,0,0,1,1.09-1.51h0a1.31,1.31,0,0,1,1.51,1.1h0A1.31,1.31,0,0,1,50.24,86h0l-.15,0h0A1.33,1.33,0,0,1,48.73,84.87ZM37.61,86.15a1.3,1.3,0,0,1-1.12-1.48h0A1.31,1.31,0,0,1,38,83.54h0A1.31,1.31,0,0,1,39.09,85h0a1.31,1.31,0,0,1-1.25,1.15h-.23Zm17.13-2.51A1.32,1.32,0,0,1,55.6,82h0a1.32,1.32,0,0,1,1.66.85h0a1.33,1.33,0,0,1-.86,1.66h0a2,2,0,0,1-.34.06h0A1.33,1.33,0,0,1,54.74,83.64ZM31.41,84.87a1.32,1.32,0,0,1-.9-1.63h0a1.31,1.31,0,0,1,1.63-.9h0A1.31,1.31,0,0,1,33,84h0a1.32,1.32,0,0,1-1.21,1h0A1.6,1.6,0,0,1,31.41,84.87Zm29.11-3.33a1.31,1.31,0,0,1,.61-1.76h0a1.31,1.31,0,0,1,1.76.6h0a1.34,1.34,0,0,1-.61,1.77h0a1.36,1.36,0,0,1-.52.12h0A1.31,1.31,0,0,1,60.52,81.54ZM25.47,82.69A1.32,1.32,0,0,1,24.81,81h0a1.33,1.33,0,0,1,1.75-.66h0A1.32,1.32,0,0,1,27.21,82h0a1.32,1.32,0,0,1-1.13.77h0A1.31,1.31,0,0,1,25.47,82.69Zm40.45-4.08a1.31,1.31,0,0,1,.35-1.83h0a1.3,1.3,0,0,1,1.82.34h0A1.31,1.31,0,0,1,67.75,79h0a1.28,1.28,0,0,1-.68.22h0A1.32,1.32,0,0,1,65.92,78.61Zm-46,1.06h0a1.31,1.31,0,0,1-.4-1.82h0a1.31,1.31,0,0,1,1.82-.4h0a1.33,1.33,0,0,1,.39,1.82h0a1.31,1.31,0,0,1-1.05.61h0A1.31,1.31,0,0,1,19.92,79.67Zm50.92-4.75a1.3,1.3,0,0,1,.07-1.85h0a1.3,1.3,0,0,1,1.86.07h0A1.32,1.32,0,0,1,72.7,75h0a1.28,1.28,0,0,1-.84.34h0A1.28,1.28,0,0,1,70.84,74.92Zm-56,1A1.33,1.33,0,0,1,14.72,74h0a1.32,1.32,0,0,1,1.86-.13h0a1.33,1.33,0,0,1,.13,1.86h0a1.3,1.3,0,0,1-.94.45h0A1.35,1.35,0,0,1,14.85,75.87Zm60.31-5.3A1.32,1.32,0,0,1,75,68.72h0a1.31,1.31,0,0,1,1.85-.2h0a1.33,1.33,0,0,1,.2,1.85h0a1.32,1.32,0,0,1-1,.49h0A1.36,1.36,0,0,1,75.16,70.57Zm-64.76.81a1.31,1.31,0,0,1,.13-1.86h0a1.32,1.32,0,0,1,1.86.14h0a1.3,1.3,0,0,1-.14,1.85h0a1.25,1.25,0,0,1-.8.32h0A1.26,1.26,0,0,1,10.4,71.38Zm68.42-5.75a1.31,1.31,0,0,1-.47-1.8h0a1.33,1.33,0,0,1,1.81-.47h0a1.33,1.33,0,0,1,.46,1.81h0a1.3,1.3,0,0,1-1.07.65h0A1.27,1.27,0,0,1,78.82,65.63Zm-72.19.65A1.33,1.33,0,0,1,7,64.46H7a1.32,1.32,0,0,1,1.82.41h0a1.31,1.31,0,0,1-.41,1.82h0a1.37,1.37,0,0,1-.65.2h0A1.34,1.34,0,0,1,6.63,66.28Zm75.08-6.06A1.33,1.33,0,0,1,81,58.5h0a1.34,1.34,0,0,1,1.72-.73h0a1.33,1.33,0,0,1,.73,1.72h0a1.36,1.36,0,0,1-1.17.83h0A1.52,1.52,0,0,1,81.71,60.22Zm-78,.46A1.31,1.31,0,0,1,4.33,59h0a1.32,1.32,0,0,1,1.74.67h0a1.3,1.3,0,0,1-.68,1.73h0a1.53,1.53,0,0,1-.47.11h0A1.33,1.33,0,0,1,3.66,60.68Zm80.12-6.24a1.32,1.32,0,0,1-1-1.59h0a1.31,1.31,0,0,1,1.59-1h0a1.29,1.29,0,0,1,1,1.58h0a1.33,1.33,0,0,1-1.22,1h0A1.61,1.61,0,0,1,83.78,54.44Zm-82.24.28a1.32,1.32,0,0,1,.92-1.63h0A1.33,1.33,0,0,1,4.08,54h0a1.34,1.34,0,0,1-.93,1.63h0a1.35,1.35,0,0,1-.29,0h0A1.32,1.32,0,0,1,1.54,54.72ZM85,48.41A1.32,1.32,0,0,1,83.78,47h0a1.31,1.31,0,0,1,1.43-1.19h0a1.31,1.31,0,0,1,1.2,1.43h0a1.34,1.34,0,0,1-1.25,1.2H85ZM.32,48.5A1.3,1.3,0,0,1,1.47,47h0a1.31,1.31,0,0,1,1.46,1.14h0a1.32,1.32,0,0,1-1.15,1.47h-.1A1.31,1.31,0,0,1,.32,48.5Zm83.6-7.1A1.3,1.3,0,0,1,85.17,40h0a1.31,1.31,0,0,1,1.37,1.25h0a1.33,1.33,0,0,1-1.27,1.38h0A1.31,1.31,0,0,1,83.92,41.4ZM1.29,43.53A1.33,1.33,0,0,1,0,42.18H0a1.33,1.33,0,0,1,1.35-1.29h0a1.33,1.33,0,0,1,1.29,1.35h0a1.33,1.33,0,0,1-1.26,1.29H1.29Zm81.93-8a1.32,1.32,0,0,1,1-1.54h0a1.32,1.32,0,0,1,1.55,1h0a1.32,1.32,0,0,1-1,1.54h0l-.19,0h0A1.32,1.32,0,0,1,83.22,35.49ZM1.68,37.4A1.32,1.32,0,0,1,.61,35.88h0A1.32,1.32,0,0,1,2.13,34.8h0a1.33,1.33,0,0,1,1.08,1.53h0A1.33,1.33,0,0,1,2,37.42H2A1.46,1.46,0,0,1,1.68,37.4Zm80-7.65a1.32,1.32,0,0,1,.81-1.68h0a1.34,1.34,0,0,1,1.68.81h0a1.32,1.32,0,0,1-.81,1.68h0a1.27,1.27,0,0,1-.38.07h0A1.32,1.32,0,0,1,81.67,29.75ZM3,31.4a1.32,1.32,0,0,1-.85-1.66h0a1.33,1.33,0,0,1,1.67-.85h0a1.33,1.33,0,0,1,.84,1.67h0a1.33,1.33,0,0,1-1.19.9h0A1.48,1.48,0,0,1,3,31.4Zm76.31-7.1a1.32,1.32,0,0,1,.56-1.78h0a1.33,1.33,0,0,1,1.78.55h0a1.33,1.33,0,0,1-.55,1.79h0a1.4,1.4,0,0,1-.56.14h0A1.31,1.31,0,0,1,79.29,24.3ZM5.13,25.65a1.32,1.32,0,0,1-.59-1.77h0a1.32,1.32,0,0,1,1.77-.58h0a1.32,1.32,0,0,1,.59,1.76h0a1.32,1.32,0,0,1-1.12.73h0A1.26,1.26,0,0,1,5.13,25.65Zm71-6.4a1.3,1.3,0,0,1,.29-1.83h0a1.31,1.31,0,0,1,1.84.28h0A1.31,1.31,0,0,1,78,19.54h0a1.31,1.31,0,0,1-.72.25h0A1.28,1.28,0,0,1,76.15,19.25Zm-68,1a1.31,1.31,0,0,1-.33-1.83h0a1.33,1.33,0,0,1,1.84-.33h0A1.32,1.32,0,0,1,9.94,20h0a1.33,1.33,0,0,1-1,.57h0A1.31,1.31,0,0,1,8.11,20.28ZM72.3,14.72a1.3,1.3,0,0,1,0-1.86h0a1.33,1.33,0,0,1,1.87,0h0a1.33,1.33,0,0,1,0,1.87h0a1.38,1.38,0,0,1-.87.38h0A1.31,1.31,0,0,1,72.3,14.72Zm-60.48.67a1.32,1.32,0,0,1-.05-1.86h0a1.33,1.33,0,0,1,1.87,0h0a1.31,1.31,0,0,1,0,1.86h0a1.28,1.28,0,0,1-.89.41h0A1.31,1.31,0,0,1,11.82,15.39Zm56-4.6h0A1.3,1.3,0,0,1,67.58,9h0a1.31,1.31,0,0,1,1.84-.25h0a1.31,1.31,0,0,1,.26,1.84h0a1.33,1.33,0,0,1-1,.52h0A1.27,1.27,0,0,1,67.83,10.79Zm-51.61.31a1.33,1.33,0,0,1,.21-1.85h0a1.31,1.31,0,0,1,1.85.22h0a1.31,1.31,0,0,1-.21,1.85h0a1.36,1.36,0,0,1-.76.28h0A1.29,1.29,0,0,1,16.22,11.1ZM62.85,7.56h0a1.32,1.32,0,0,1-.52-1.79h0a1.33,1.33,0,0,1,1.8-.52h0A1.32,1.32,0,0,1,64.63,7h0a1.31,1.31,0,0,1-1.1.68h0A1.26,1.26,0,0,1,62.85,7.56ZM21.19,7.49a1.32,1.32,0,0,1,.48-1.79h0a1.32,1.32,0,0,1,1.81.48h0A1.33,1.33,0,0,1,23,8h0a1.43,1.43,0,0,1-.6.17h0A1.32,1.32,0,0,1,21.19,7.49Zm36.25-2.4a1.32,1.32,0,0,1-.77-1.7h0a1.31,1.31,0,0,1,1.69-.77h0a1.31,1.31,0,0,1,.77,1.69h0A1.3,1.3,0,0,1,58,5.17h0A1.32,1.32,0,0,1,57.44,5.09ZM26.63,4.65a1.33,1.33,0,0,1,.74-1.71h0a1.33,1.33,0,0,1,1.72.74h0a1.33,1.33,0,0,1-.74,1.71h0a1.32,1.32,0,0,1-.43.09h0A1.34,1.34,0,0,1,26.63,4.65Zm25.1-1.22a1.31,1.31,0,0,1-1-1.56h0a1.29,1.29,0,0,1,1.55-1h0a1.31,1.31,0,0,1,1,1.56h0a1.32,1.32,0,0,1-1.22,1h0A1.34,1.34,0,0,1,51.73,3.43Zm-19.29-.8a1.32,1.32,0,0,1,1-1.58h0A1.34,1.34,0,0,1,35,2h0a1.33,1.33,0,0,1-1,1.59h0l-.24,0h0A1.3,1.3,0,0,1,32.44,2.63Zm13.4,0a1.31,1.31,0,0,1-1.23-1.4h0A1.32,1.32,0,0,1,46,0h0a1.33,1.33,0,0,1,1.23,1.4h0A1.31,1.31,0,0,1,46,2.63h0A.65.65,0,0,1,45.84,2.63ZM38.47,1.49A1.31,1.31,0,0,1,39.68.07h0a1.31,1.31,0,0,1,1.43,1.2h0a1.31,1.31,0,0,1-1.2,1.41h-.06A1.31,1.31,0,0,1,38.47,1.49Z"/><path class="cls-2" d="M69.05,69v9a3.64,3.64,0,0,1-1.81,3.17L50.47,91a14.19,14.19,0,0,1-14.36,0L19.35,81.14A3.63,3.63,0,0,1,17.53,78V69Z"/><path class="cls-3" d="M50.47,56,67.24,65.8a3.68,3.68,0,0,1,0,6.34L50.47,82a14.19,14.19,0,0,1-14.36,0L19.35,72.14a3.67,3.67,0,0,1,0-6.34L36.11,56A14.19,14.19,0,0,1,50.47,56Z"/><path class="cls-4" d="M61.43,28V67.47a2.58,2.58,0,0,1-1.28,2.24L48.34,76.62a10,10,0,0,1-10.1,0l-11.8-6.91a2.56,2.56,0,0,1-1.28-2.24V28Z"/><g class="cls-5"><path class="cls-4" d="M52.94,16.71h0L18.83,35.78c0,.2-.06.39-.1.57l0,.07c0,.16-.08.32-.13.48l0,.09a4.69,4.69,0,0,1-.18.45l0,.09a3.24,3.24,0,0,1-.17.32l-.13.2a1.27,1.27,0,0,1-.13.19,4,4,0,0,1-.47.53l-.1.08a3.28,3.28,0,0,1-.58.42L50.86,20.2a3.43,3.43,0,0,0,.58-.42l.1-.08a4.2,4.2,0,0,0,.48-.54l0,0c0-.05,0-.1.08-.14l.13-.2a.35.35,0,0,0,0-.08l.12-.25a.2.2,0,0,0,0-.08l0,0c0-.1.09-.21.13-.32l0-.1,0-.09a.5.5,0,0,0,0-.13,2.45,2.45,0,0,0,.08-.29.64.64,0,0,0,0-.07s0,0,0-.06l0-.16c0-.1,0-.2.05-.29s0-.08,0-.12Z"/><path class="cls-3" d="M79.73,31.1c0-.09,0-.19,0-.29v-.08c0-.07,0-.14,0-.21a1.55,1.55,0,0,0,0-.31s0-.09,0-.13V30s0-.07,0-.11,0-.21,0-.32a2.25,2.25,0,0,0,0-.22v-.11c0-.12-.05-.23-.08-.35s-.05-.16-.07-.25l0-.06v-.05c0-.12-.07-.25-.12-.37a1.72,1.72,0,0,0-.07-.21.42.42,0,0,0,0-.1l0-.09c0-.15-.11-.29-.17-.44l0-.08-.07-.16c0-.08-.07-.17-.11-.25a1.09,1.09,0,0,1-.08-.15c-.06-.13-.13-.26-.2-.39a1.62,1.62,0,0,0-.1-.18.22.22,0,0,0,0-.08,9.93,9.93,0,0,0-.59-.94l0-.06-.14-.18c-.09-.13-.19-.26-.29-.38l-.08-.11c-.08-.08-.15-.17-.22-.25L76.77,24l0-.05-.35-.36-.06-.06-.08-.07c-.06-.06-.12-.11-.17-.17L75.75,23h0l0,0-.26-.21a2.83,2.83,0,0,0-.28-.2h0l0,0-.24-.16-.27-.17-.09,0L47.81,6.73l-.18-.1-.26-.13-.2-.1h-.05l-.25-.11-.25-.09-.09,0h-.05l-.11,0L46.11,6l-.22,0h0l-.27,0-.27,0h-.68l-.23,0-.22,0H44a2.92,2.92,0,0,0-.42.13h0a3.82,3.82,0,0,0-.46.21h0L9,25.42a3.6,3.6,0,0,1,.49-.23h0a3.76,3.76,0,0,1,.48-.13l.09,0a3.47,3.47,0,0,1,.45-.06h.07a4.68,4.68,0,0,1,.53,0h.05a4.17,4.17,0,0,1,.59.08h0a4.73,4.73,0,0,1,.59.16h.05c.2.07.41.15.61.24l0,0c.21.09.42.2.64.32L40.43,41.24c.2.11.4.24.59.37l0,0c.19.13.38.27.56.42l0,0,.5.44.08.08c.15.15.31.31.45.47a.86.86,0,0,1,.13.14c.1.11.2.23.29.35s.2.25.3.38l.17.24c.22.3.41.62.6.94l.15.27c.07.12.13.25.2.38s.13.27.19.41,0,.1.07.16.17.4.24.6c0,0,0,.07,0,.11.07.2.14.41.2.62l0,.06c.06.22.11.44.16.66v.06c0,.21.08.43.11.65v.06c0,.22.05.44.06.65v0c0,.23,0,.45,0,.67v.05c0,.22,0,.44,0,.66s-.06.38-.1.56v.07c0,.17-.09.33-.14.49l0,.09a3,3,0,0,1-.18.45l0,.08c-.05.11-.11.22-.17.33l-.13.2-.12.19a4.88,4.88,0,0,1-.48.53l-.1.08a3.43,3.43,0,0,1-.58.42h0L77.59,35.64a4,4,0,0,0,.59-.42l.09-.08a3.56,3.56,0,0,0,.48-.54l0,0,.09-.14.12-.21,0-.07c0-.08.09-.17.13-.25a.3.3,0,0,1,0-.08v0a3.05,3.05,0,0,0,.13-.32.49.49,0,0,1,0-.11l0-.09a.56.56,0,0,1,0-.12c0-.09,0-.19.07-.29s0-.05,0-.07,0-.05,0-.07a.75.75,0,0,0,0-.16c0-.09,0-.19,0-.29s0-.08,0-.12a.88.88,0,0,0,0-.17l0-.29V31.1Z"/><path class="cls-2" d="M40.43,41.24a10.93,10.93,0,0,1,5.13,10c-.46,3.61-3.49,5-6.79,3.1a11,11,0,0,1-5.12-10L18.83,35.78c-.46,3.61-3.51,5-6.79,3.11a11,11,0,0,1-5.13-10c.46-3.61,3.5-5,6.79-3.1Z"/></g></g></g></svg>