<svg xmlns="http://www.w3.org/2000/svg" xmlns:xlink="http://www.w3.org/1999/xlink" viewBox="0 0 236.63 108.44"><defs><style>.cls-1{fill:none;}.cls-2{fill:#f5f6fa;}.cls-3{fill:#0e9de5;}.cls-4{clip-path:url(#clip-path);}.cls-5{fill:#041742;}.cls-6{fill:#fff;}.cls-7{fill:#d2dbeb;}.cls-8{fill:url(#radial-gradient);}.cls-9{fill:#6ef9b7;}</style><clipPath id="clip-path"><circle class="cls-1" cx="14.68" cy="54.24" r="14.68"/></clipPath><radialGradient id="radial-gradient" cx="169.86" cy="29.74" r="75.72" gradientUnits="userSpaceOnUse"><stop offset="0.1" stop-color="#26db8d"/><stop offset="0.25" stop-color="#32db9a"/><stop offset="0.51" stop-color="#52dbbb"/><stop offset="0.87" stop-color="#86dbf0"/><stop offset="0.89" stop-color="#88dbf2"/></radialGradient></defs><title>DAO</title><g id="Layer_2" data-name="Layer 2"><g id="Layer_1-2" data-name="Layer 1"><rect class="cls-2" x="13.77" y="0.03" width="222.86" height="108.42"/><circle class="cls-3" cx="14.68" cy="54.24" r="14.68"/><g class="cls-4"><polygon class="cls-5" points="10.87 51.76 16.09 56.99 13.82 62.45 27.14 75.76 35.02 64.97 17.26 47.22 10.87 51.76"/></g><path class="cls-6" d="M13.82,50.38h-.05l-2.9,1.38-.59-2.67,4.05-1.87h2.93V62.45H13.82Z"/><polygon class="cls-6" points="160.77 75.37 160.77 34.3 125.2 13.77 89.64 34.3 89.64 75.37 125.2 95.9 160.77 75.37"/><path class="cls-7" d="M169.75,80.55V29.11L125.2,3.4,80.66,29.11V80.55l44.54,25.72Zm-75.21-8V37.13l30.66-17.7,30.66,17.7v35.4L125.2,90.23Z"/><path class="cls-7" d="M125.2,45.07h-9.76V50h9.43a4.82,4.82,0,1,1,0,9.64h-9.43V64.6h9.76a9.77,9.77,0,1,0,0-19.53Z"/><polygon class="cls-8" points="80.66 29.11 94.54 37.13 125.2 19.43 155.86 37.13 155.86 72.53 125.2 90.23 125.2 106.27 169.75 80.55 169.75 29.11 125.2 3.4 80.66 29.11"/><path class="cls-9" d="M125.2,26.17,150,40.5V69.17L125.2,83.5,100.38,69.17V40.5L125.2,26.17m0-2.31-1,.57L99.38,38.77l-1,.57v31l1,.58L124.2,85.23l1,.58,1-.58L151,70.9l1-.58v-31l-1-.57L126.2,24.43l-1-.57Z"/><polygon class="cls-6" points="185.3 89.93 153.24 108.44 161.29 108.44 189.33 92.26 189.33 18.21 157.78 0 149.74 0 185.3 20.54 185.3 89.93"/><polygon class="cls-6" points="97.16 108.44 65.1 89.93 65.1 20.54 100.67 0 92.62 0 61.08 18.21 61.08 92.26 89.12 108.44 97.16 108.44"/></g></g></svg>