<svg xmlns="http://www.w3.org/2000/svg" xmlns:xlink="http://www.w3.org/1999/xlink" viewBox="0 0 236.63 108"><defs><style>.cls-1{fill:none;}.cls-2{fill:#f5f6fa;}.cls-3{fill:#0e9de5;}.cls-4{clip-path:url(#clip-path);}.cls-5{fill:#041742;}.cls-6{fill:#fff;}.cls-7{fill:#d2dbeb;}.cls-8{fill:url(#radial-gradient);}.cls-9{fill:#6ef9b7;}</style><clipPath id="clip-path"><circle class="cls-1" cx="14.68" cy="54" r="14.68"/></clipPath><radialGradient id="radial-gradient" cx="-583.55" cy="859.96" r="75.36" gradientTransform="translate(-759.37 -574) rotate(-90)" gradientUnits="userSpaceOnUse"><stop offset="0.1" stop-color="#26db8d"/><stop offset="0.25" stop-color="#32db9a"/><stop offset="0.51" stop-color="#52dbbb"/><stop offset="0.87" stop-color="#86dbf0"/><stop offset="0.89" stop-color="#88dbf2"/></radialGradient></defs><title>Sidechains</title><g id="Layer_2" data-name="Layer 2"><g id="Layer_1-2" data-name="Layer 1"><rect class="cls-2" x="14.63" width="222" height="108"/><circle class="cls-3" cx="14.68" cy="54" r="14.68"/><g class="cls-4"><polygon class="cls-5" points="11.09 50.1 15.84 54.86 10.06 59.83 21.99 71.75 21.91 70.45 29.84 59.75 17.95 47.86 10.91 47.86 11.09 50.1"/></g><path class="cls-6" d="M10.07,59.83V58l1.66-1.5c2.86-2.56,4.24-4,4.26-5.54,0-1.06-.62-1.9-2.12-1.9a4.86,4.86,0,0,0-2.79,1.06l-.86-2.16a7.19,7.19,0,0,1,4.25-1.34c3,0,4.56,1.72,4.56,4.08,0,2.18-1.56,3.92-3.46,5.6l-1.2,1v0h4.92v2.51Z"/><polygon class="cls-6" points="147.88 14.73 102.53 14.73 79.85 54 102.53 93.27 147.88 93.27 170.55 54 147.88 14.73"/><path class="cls-7" d="M151.16,9.66H100L74.37,54,100,98.34h51.19L176.76,54Zm-8,74.85H108L90.33,54,108,23.49h35.23L160.8,54Z"/><polygon class="cls-8" points="99.97 98.34 107.95 84.51 90.33 54 107.95 23.49 143.18 23.49 160.8 54 176.76 54 151.16 9.66 99.97 9.66 74.37 54 99.97 98.34"/><path class="cls-9" d="M139.83,29.29,154.1,54,139.83,78.71H111.3L97,54,111.3,29.29h28.53m1.15-2H110.14l-.58,1L95.3,53l-.58,1,.58,1,14.26,24.71.58,1H141l.58-1L155.83,55l.58-1-.58-1L141.56,28.29l-.58-1Z"/><path class="cls-7" d="M117.66,61.9a11.17,11.17,0,1,1,15.8,0A11.2,11.2,0,0,1,117.66,61.9ZM131.2,48.36a8,8,0,1,0,0,11.28A8,8,0,0,0,131.2,48.36Z"/><path class="cls-7" d="M113.07,57.39A12.93,12.93,0,0,1,129,41.51l1.26-1.26a14.5,14.5,0,0,0-18.4,18.4Z"/><path class="cls-7" d="M139.31,49.35l-1.26,1.26a12.93,12.93,0,0,1-15.88,15.88l-1.26,1.26a14.5,14.5,0,0,0,18.4-18.4Z"/><path class="cls-7" d="M126.69,58a4.11,4.11,0,0,1-5.08-5.08L120,51.23a6.25,6.25,0,0,0,8.38,8.37Z"/><path class="cls-7" d="M124.44,50.05a4.1,4.1,0,0,1,5.07,5.08l1.65,1.64a6.25,6.25,0,0,0-8.37-8.37Z"/><path class="cls-6" d="M162,108l4.63,0,31.59-54.71L167.47,0h-4.61L193.6,53.25Z"/><path class="cls-6" d="M89.23,107.91,57.67,53.25,88.41,0H83.8L53.06,53.25l31.55,54.64Z"/></g></g></svg>