<svg xmlns="http://www.w3.org/2000/svg" xmlns:xlink="http://www.w3.org/1999/xlink" viewBox="0 0 236.63 108"><defs><style>.cls-1{fill:none;}.cls-2{fill:#f5f6fa;}.cls-3{fill:#fff;}.cls-4{fill:#d2dbeb;}.cls-5{fill:url(#radial-gradient);}.cls-6{fill:#6ef9b7;}.cls-7{fill:#0e9de5;}.cls-8{clip-path:url(#clip-path);}.cls-9{fill:#041742;}</style><radialGradient id="radial-gradient" cx="167.73" cy="11.56" r="72.01" gradientUnits="userSpaceOnUse"><stop offset="0.1" stop-color="#26db8d"/><stop offset="0.25" stop-color="#32db9a"/><stop offset="0.51" stop-color="#52dbbb"/><stop offset="0.87" stop-color="#86dbf0"/><stop offset="0.89" stop-color="#88dbf2"/></radialGradient><clipPath id="clip-path"><circle class="cls-1" cx="14.68" cy="54" r="14.68"/></clipPath></defs><title>ZCHAT</title><g id="Layer_2" data-name="Layer 2"><g id="Layer_1-2" data-name="Layer 1"><rect class="cls-2" x="14.63" width="222" height="108"/><rect class="cls-3" x="93.1" y="21.54" width="67.02" height="67.02"/><path class="cls-4" d="M83.48,11.92V96.08h84.17V11.92Zm69.23,69.23H98.41V26.85h54.3Z"/><polygon class="cls-5" points="98.41 26.85 83.48 11.92 167.65 11.92 167.65 96.08 152.71 81.15 152.71 26.85 98.41 26.85"/><path class="cls-6" d="M146.59,33V69.26H113.9L104.54,75V33h42.05m1.88-1.88H102.66V78.39l2.86-1.77,8.92-5.48h34v-40Z"/><rect class="cls-4" x="113.9" y="42.87" width="23.32" height="3.18"/><rect class="cls-4" x="113.9" y="49.23" width="23.32" height="3.18"/><rect class="cls-4" x="113.9" y="55.59" width="11.66" height="3.18"/><polygon class="cls-3" points="167.5 108 173.26 107.84 226.95 54.15 173.03 0.22 167.43 0.22 221.36 54.15 167.5 108"/><polygon class="cls-3" points="82.9 107.84 29.21 54.15 83.13 0.22 77.54 0.22 23.61 54.15 77.09 107.63 82.9 107.84"/><circle class="cls-7" cx="14.68" cy="54" r="14.68"/><g class="cls-8"><polygon class="cls-9" points="9.59 56.73 23.32 70.46 32.06 60.65 18.23 46.82 14.68 47.86 9.59 56.73"/></g><path class="cls-3" d="M15.35,59.83V56.72H9.58v-2l4.91-7.92h3.74v7.62h1.54v2.28H18.23v3.11Zm0-5.39V51.56c0-.78,0-1.58.08-2.42h-.06c-.42.84-.78,1.6-1.22,2.42L12.43,54.4l0,0Z"/></g></g></svg>