<svg xmlns="http://www.w3.org/2000/svg" xmlns:xlink="http://www.w3.org/1999/xlink" viewBox="0 0 236.68 108"><defs><style>.cls-1{fill:none;}.cls-2{fill:#f5f6fa;}.cls-3{fill:#0e9de5;}.cls-4{fill:#fff;}.cls-5{clip-path:url(#clip-path);}.cls-6{fill:#041742;}.cls-7{fill:#9ee7ff;}.cls-10,.cls-8{fill:#d2dbeb;}.cls-8{stroke:#fff;stroke-miterlimit:10;stroke-width:2px;}.cls-9{fill:#26db8d;}</style><clipPath id="clip-path"><circle class="cls-1" cx="14.68" cy="54" r="14.68"/></clipPath></defs><title>Privacy</title><g id="Layer_2" data-name="Layer 2"><g id="Layer_1-2" data-name="Layer 1"><rect class="cls-2" x="14.68" width="222" height="108"/><circle class="cls-3" cx="14.68" cy="54" r="14.68"/><path class="cls-4" d="M18.68,49.32h-5l-.28,2c.28,0,.52,0,.84,0a5.9,5.9,0,0,1,3.42.94,3.7,3.7,0,0,1,1.58,3.26c0,2.42-2.08,4.57-5.58,4.57A8.26,8.26,0,0,1,10,59.31L10.56,57a7.09,7.09,0,0,0,2.92.65c1.26,0,2.6-.61,2.6-2S15,53.52,12.42,53.52a10.78,10.78,0,0,0-1.74.12l.84-6.82h7.16Z"/><g class="cls-5"><polygon class="cls-6" points="18.68 46.82 30.3 58.45 26.23 70.12 23.52 72.83 10 59.3 15.44 58.4 10.68 53.64 12.65 48.08 18.68 46.82"/></g><path class="cls-4" d="M18.68,49.32h-5l-.28,2c.28,0,.52,0,.84,0a5.9,5.9,0,0,1,3.42.94,3.7,3.7,0,0,1,1.58,3.26c0,2.42-2.08,4.57-5.58,4.57A8.26,8.26,0,0,1,10,59.31L10.56,57a7.09,7.09,0,0,0,2.92.65c1.26,0,2.6-.61,2.6-2S15,53.52,12.42,53.52a10.78,10.78,0,0,0-1.74.12l.84-6.82h7.16Z"/><path class="cls-7" d="M236.68,94.41a147.52,147.52,0,0,0-222,.09V108h222Z"/><path class="cls-8" d="M162.57,19.2c-7.18,0-26.44-7.75-33.26-10.73l-1.82-.8-1.81.84c-6.37,3-24.74,10.69-33.17,10.69H88.1v4.41c0,50.07,35.43,75.14,36.94,76.18l2.51,1.74,2.51-1.74C131.57,98.74,167,73.59,167,23.61V19.2ZM97,27.63c10-1.53,23.7-7.25,29.65-9.88V89.8A88,88,0,0,1,97,27.63Zm31.42,62.15V17.68c6,2.54,20.18,8.23,29.65,9.88C156.62,61.67,136.56,82.63,128.43,89.78Z"/><polygon class="cls-9" points="91.19 23.1 128.43 12.51 163.16 23.1 152.45 69.68 126.66 96.16 101.44 63.4 91.19 23.1"/><polygon class="cls-4" points="128.43 15.42 160.6 24.27 155.71 56.64 127.74 96.16 128.43 15.42"/><path class="cls-10" d="M162.57,19.2c-7.18,0-26.44-7.75-33.26-10.73l-1.82-.8-1.81.84c-6.37,3-24.74,10.69-33.17,10.69H88.1v4.41c0,50.07,35.43,75.14,36.94,76.18l2.51,1.74,2.51-1.74C131.57,98.74,167,73.59,167,23.61V19.2ZM97,27.63c10-1.53,23.7-7.25,29.65-9.88V89.8A88,88,0,0,1,97,27.63Zm31.42,62.15V17.68c6,2.54,20.18,8.23,29.65,9.88C156.62,61.67,136.56,82.63,128.43,89.78Z"/></g></g></svg>