<svg xmlns="http://www.w3.org/2000/svg" xmlns:xlink="http://www.w3.org/1999/xlink" viewBox="0 0 236.63 108"><defs><style>.cls-1{fill:none;}.cls-2{fill:#f5f6fa;}.cls-3{fill:#0e9de5;}.cls-4{clip-path:url(#clip-path);}.cls-5{fill:#041742;}.cls-6{fill:#fff;}.cls-7{fill:#9ee7ff;}.cls-8{fill:#d2dbeb;}.cls-9{fill:#26db8d;}</style><clipPath id="clip-path"><circle class="cls-1" cx="14.68" cy="54" r="14.68"/></clipPath></defs><title>identity</title><g id="Layer_2" data-name="Layer 2"><g id="Layer_1-2" data-name="Layer 1"><rect class="cls-2" x="14.63" width="222" height="108"/><circle class="cls-3" cx="14.68" cy="54" r="14.68"/><g class="cls-4"><polygon class="cls-5" points="11.09 50.1 15.84 54.86 10.06 59.83 21.99 71.75 21.91 70.45 29.84 59.75 17.95 47.86 10.91 47.86 11.09 50.1"/></g><path class="cls-6" d="M10.07,59.83V58l1.66-1.5c2.86-2.56,4.24-4,4.26-5.54,0-1.06-.62-1.9-2.12-1.9a4.86,4.86,0,0,0-2.79,1.06l-.86-2.16a7.19,7.19,0,0,1,4.25-1.34c3,0,4.56,1.72,4.56,4.08,0,2.18-1.56,3.92-3.46,5.6l-1.2,1v0h4.92v2.51Z"/><path class="cls-7" d="M236.63,94.41a147.52,147.52,0,0,0-222,.09V108h222Z"/><path class="cls-8" d="M180.28,59.23c5.13.21,8.67.26,8.67.26l11.52-11.56S189,36.52,189,36.52l-54.19.16a33.59,33.59,0,1,0-.08,22.85l8.88-.75,4.86-4.15c.07,0,4.59,4.26,4.59,4.26l3.89.62s4.9-4.93,4.85-4.85h0l4.91,4.76,4.37-.3,4.46-4.36s3.9,4.44,4.71,4.47Zm-80.4-17a8,8,0,1,1-11.29,0,8,8,0,0,1,11.29,0Z"/><path class="cls-6" d="M103.27,82a34.07,34.07,0,1,1-.06-68.14h0a34,34,0,0,1,31.94,22.31L189.22,36l.14.14C201,47.71,201,47.71,201,47.93v.2L189.16,60h-.22s-3.61-.05-8.68-.26h0c-.79,0-2.93-2.24-4.72-4.25l-4.21,4.13-4.78.32-4.73-4.58c-.82.8-3,3-4.51,4.52l-.18.18-4.29-.69-.12-.11c-1.36-1.29-3.47-3.26-4.24-4l-4.66,4L135.1,60a33.88,33.88,0,0,1-31.83,22Zm-.06-67.12a33.11,33.11,0,1,0,31.06,44.47l.11-.3,9-.76,4.9-4.18h.2c.24,0,.25,0,4.79,4.29l3.48.56c3.48-3.51,4.52-4.55,5-4.77v0l.25,0,.19.17,4.76,4.6,4-.26L175.6,54l.35.4c1.7,1.94,3.85,4.13,4.38,4.3,4.34.18,7.58.24,8.42.26l11-11.06L188.81,37l-54.34.16-.12-.33a32.93,32.93,0,0,0-31.14-22Zm-9,41.5a8.42,8.42,0,0,1-8.44-8.46,8.55,8.55,0,0,1,8.51-8.51h0a8.42,8.42,0,0,1,6,2.47h0a8.52,8.52,0,0,1-6,14.5Zm.1-16h0a7.55,7.55,0,0,0-7.52,7.51,7.43,7.43,0,0,0,2.18,5.29,7.35,7.35,0,0,0,5.28,2.17A7.52,7.52,0,0,0,99.53,42.6h0A7.36,7.36,0,0,0,94.27,40.42Z"/><path class="cls-9" d="M86.29,55.84a11.19,11.19,0,1,0,0-15.82,11.19,11.19,0,0,0,0,15.82ZM97.6,44.54a4.8,4.8,0,1,1-6.79,0,4.8,4.8,0,0,1,6.79,0Z"/><path class="cls-9" d="M199.75,48,188.8,37.09l-54.33.15A30.81,30.81,0,0,1,137.22,48Z"/></g></g></svg>