<svg xmlns="http://www.w3.org/2000/svg" viewBox="0 0 51 51"><defs><style>.cls-1{fill:#f5f6fa;}.cls-2{fill:#e9eaf2;}.cls-3{fill:#26db8d;}.cls-4{fill:#9ee7ff;}</style></defs><title>247</title><g id="Layer_2" data-name="Layer 2"><g id="roadmap"><circle class="cls-1" cx="25.5" cy="25.5" r="25"/><path class="cls-2" d="M25.5,51A25.5,25.5,0,1,1,51,25.5,25.53,25.53,0,0,1,25.5,51Zm0-50A24.5,24.5,0,1,0,50,25.5,24.53,24.53,0,0,0,25.5,1Z"/><path class="cls-3" d="M4.81,32.73V30.32c5.92-4.38,7.65-5.87,7.65-7.65,0-1.26-1.14-1.89-2.34-1.89a5.22,5.22,0,0,0-3.88,1.67l-1.75-2a7.35,7.35,0,0,1,5.57-2.37c3.08,0,5.53,1.74,5.53,4.62,0,2.47-2,4.62-5.79,7.35h5.89v2.71Z"/><path class="cls-3" d="M23,32.73v-3H16V27.31l5.75-9H26V27h1.86v2.71H26v3ZM23,21l-3.9,6H23Z"/><path class="cls-4" d="M28.22,33.16l5.13-15.32h2L30.21,33.16Z"/><path class="cls-3" d="M37.76,32.73,42.94,21H35.65V18.27H46.51v2.15L41.14,32.73Z"/></g></g></svg>