<svg xmlns="http://www.w3.org/2000/svg" viewBox="0 0 51 51"><defs><style>.cls-1{fill:#f5f6fa;}.cls-2{fill:#e9eaf2;}.cls-3{fill:#26db8d;}.cls-4{fill:#9ee7ff;}</style></defs><title>private</title><g id="Layer_2" data-name="Layer 2"><g id="roadmap"><circle class="cls-1" cx="25.5" cy="25.5" r="25"/><path class="cls-2" d="M25.5,51A25.5,25.5,0,1,1,51,25.5,25.53,25.53,0,0,1,25.5,51Zm0-50A24.5,24.5,0,1,0,50,25.5,24.53,24.53,0,0,0,25.5,1Z"/><path class="cls-3" d="M25.5,36.9c-10,0-17.87-10.36-18.2-10.8l-.45-.6.45-.6c.33-.44,8.2-10.8,18.2-10.8S43.37,24.46,43.7,24.9l.45.6-.45.6C43.37,26.54,35.5,36.9,25.5,36.9ZM9.38,25.5c1.8,2.16,8.43,9.4,16.12,9.4s14.32-7.24,16.12-9.4c-1.8-2.16-8.43-9.4-16.12-9.4S11.18,23.34,9.38,25.5Z"/><circle class="cls-4" cx="25.5" cy="25.5" r="7.46"/><circle class="cls-3" cx="25.5" cy="25.5" r="3.69"/></g></g></svg>