<svg xmlns="http://www.w3.org/2000/svg" viewBox="0 0 51 51"><defs><style>.cls-1{fill:#f5f6fa;}.cls-2{fill:#e9eaf2;}.cls-3{fill:#26db8d;}.cls-4{fill:#9ee7ff;}</style></defs><title>userx</title><g id="Layer_2" data-name="Layer 2"><g id="roadmap"><circle class="cls-1" cx="25.5" cy="25.5" r="25"/><path class="cls-2" d="M25.5,51A25.5,25.5,0,1,1,51,25.5,25.53,25.53,0,0,1,25.5,51Zm0-50A24.5,24.5,0,1,0,50,25.5,24.53,24.53,0,0,0,25.5,1Z"/><path class="cls-3" d="M26.82,29.05H24.18a13.09,13.09,0,0,0-13,12.05,21.15,21.15,0,0,0,28.74,0A13.09,13.09,0,0,0,26.82,29.05Z"/><ellipse class="cls-4" cx="25.5" cy="17.64" rx="7.78" ry="9.44"/></g></g></svg>