<svg xmlns="http://www.w3.org/2000/svg" xmlns:xlink="http://www.w3.org/1999/xlink" viewBox="0 0 51 54.24"><defs><style>.cls-1{fill:none;}.cls-2{fill:#f5f6fa;}.cls-3{fill:#e9eaf2;}.cls-4{clip-path:url(#clip-path);}.cls-5{fill:#26db8d;}.cls-6{fill:#d2dbeb;}.cls-7{fill:#9ee7ff;}</style><clipPath id="clip-path"><circle class="cls-1" cx="25" cy="25.5" r="25"/></clipPath></defs><title>find</title><g id="Layer_2" data-name="Layer 2"><g id="content"><circle class="cls-2" cx="25.5" cy="25.5" r="25"/><path class="cls-3" d="M25.5,51A25.5,25.5,0,1,1,51,25.5,25.53,25.53,0,0,1,25.5,51Zm0-50A24.5,24.5,0,1,0,50,25.5,24.53,24.53,0,0,0,25.5,1Z"/><g class="cls-4"><path class="cls-5" d="M28.44,34.2l3-1.74L36,40.4a1.73,1.73,0,0,1-.63,2.35l0,0A1.72,1.72,0,0,1,33,42.14Z"/><path class="cls-5" d="M28.44,34.2l3-1.74L36,40.4a1.73,1.73,0,0,1-.63,2.35l0,0A1.72,1.72,0,0,1,33,42.14Z"/><path class="cls-5" d="M29,38.06l5.54-3.2L43,49.46a3.16,3.16,0,0,1-1.15,4.32l-.06,0a3.16,3.16,0,0,1-4.32-1.15Z"/><path class="cls-6" d="M28.44,34.2l3-1.74L36,40.4a1.73,1.73,0,0,1-.63,2.35l0,0A1.72,1.72,0,0,1,33,42.14Z"/><path class="cls-5" d="M29,38.06l5.54-3.2L43,49.46a3.16,3.16,0,0,1-1.15,4.32l-.06,0a3.16,3.16,0,0,1-4.32-1.15Z"/><path class="cls-6" d="M29,38.06l5.54-3.2L43,49.46a3.16,3.16,0,0,1-1.15,4.32l-.06,0a3.16,3.16,0,0,1-4.32-1.15Z"/><path class="cls-5" d="M35.42,15.21A13.85,13.85,0,0,0,28.13,9.1c-.36-.12-.72-.25-1.08-.34a13.81,13.81,0,0,0-8.27,26.33,10.16,10.16,0,0,0,1.07.33,13.7,13.7,0,0,0,5.55.36c.3-.05.6-.1.89-.17a13.35,13.35,0,0,0,2.45-.76,15.21,15.21,0,0,0,1.62-.8,14,14,0,0,0,1.45-1,13.79,13.79,0,0,0,3.61-17.88ZM30.58,31.47a10.71,10.71,0,0,1-1.24.83A13.59,13.59,0,0,1,28,33a11.92,11.92,0,0,1-2.08.65c-.25.06-.51.1-.77.14a11.82,11.82,0,0,1-4.73-.3c-.3-.08-.62-.18-.92-.28a11.79,11.79,0,0,1,7.06-22.47c.31.08.62.18.92.29a11.77,11.77,0,0,1,3.14,20.46Z"/><circle class="cls-7" cx="23.46" cy="22.1" r="11.78"/></g><path class="cls-3" d="M25.5,51A25.5,25.5,0,1,1,51,25.5,25.53,25.53,0,0,1,25.5,51Zm0-50A24.5,24.5,0,1,0,50,25.5,24.53,24.53,0,0,0,25.5,1Z"/></g></g></svg>