<svg xmlns="http://www.w3.org/2000/svg" viewBox="0 0 51 51"><defs><style>.cls-1{fill:#f5f6fa;}.cls-2{fill:#e9eaf2;}.cls-3{fill:#9ee7ff;}.cls-4{fill:#26db8d;}.cls-5{fill:#fff;}</style></defs><title>lock</title><g id="Layer_2" data-name="Layer 2"><g id="content"><circle class="cls-1" cx="25.5" cy="25.5" r="25"/><path class="cls-2" d="M25.5,51A25.5,25.5,0,1,1,51,25.5,25.53,25.53,0,0,1,25.5,51Zm0-50A24.5,24.5,0,1,0,50,25.5,24.53,24.53,0,0,0,25.5,1Z"/><path class="cls-3" d="M25.5,6.37a10.67,10.67,0,0,0-9,4.91l2.55,1.65a7.65,7.65,0,1,1-.83,6.47l-2.88.93a10.67,10.67,0,1,0,10.12-14Z"/><rect class="cls-4" x="13.35" y="19.07" width="24.31" height="21.76" rx="0.95"/><path class="cls-5" d="M28.7,28a3.2,3.2,0,1,0-4.78,2.77v2.79a1.58,1.58,0,0,0,3.16,0V30.75A3.2,3.2,0,0,0,28.7,28Z"/></g></g></svg>