<svg xmlns="http://www.w3.org/2000/svg" xmlns:xlink="http://www.w3.org/1999/xlink" viewBox="0 0 61 56.73"><defs><style>.cls-1{fill:#103468;}.cls-2{fill:#3e6993;}.cls-3{fill:#041742;}.cls-4{fill:#123d70;}.cls-5{fill:url(#linear-gradient);}.cls-6{fill:#0e9de5;}.cls-7{fill:url(#linear-gradient-2);}.cls-8{fill:url(#linear-gradient-3);}.cls-9{fill:url(#linear-gradient-4);}.cls-10{fill:url(#linear-gradient-5);}.cls-11{fill:url(#linear-gradient-6);}.cls-12{fill:url(#linear-gradient-7);}.cls-13{fill:#0b84ce;}.cls-14{fill:url(#linear-gradient-8);}.cls-15{fill:#8df;}.cls-16{fill:url(#linear-gradient-9);}.cls-17{fill:url(#linear-gradient-10);}</style><linearGradient id="linear-gradient" x1="438.32" y1="47.87" x2="486.17" y2="47.87" gradientTransform="matrix(-1, 0, 0, 1, 492.74, 0)" gradientUnits="userSpaceOnUse"><stop offset="0" stop-color="#0e9de5"/><stop offset="1" stop-color="#39bdff"/></linearGradient><linearGradient id="linear-gradient-2" x1="3.23" y1="30.73" x2="45.76" y2="22.26" gradientUnits="userSpaceOnUse"><stop offset="0" stop-color="#0e9de5"/><stop offset="1" stop-color="#26db8d"/></linearGradient><linearGradient id="linear-gradient-3" x1="4.26" y1="35.91" x2="46.79" y2="27.44" xlink:href="#linear-gradient-2"/><linearGradient id="linear-gradient-4" x1="6.27" y1="45.96" x2="48.79" y2="37.49" xlink:href="#linear-gradient-2"/><linearGradient id="linear-gradient-5" x1="2.2" y1="25.54" x2="44.73" y2="17.07" xlink:href="#linear-gradient-2"/><linearGradient id="linear-gradient-6" x1="3.23" y1="30.73" x2="45.76" y2="22.26" xlink:href="#linear-gradient-2"/><linearGradient id="linear-gradient-7" x1="4.74" y1="38.28" x2="47.26" y2="29.81" gradientTransform="translate(0.14 -0.12) rotate(0.23)" xlink:href="#linear-gradient-2"/><linearGradient id="linear-gradient-8" x1="464.29" y1="13.12" x2="490.79" y2="13.12" xlink:href="#linear-gradient"/><linearGradient id="linear-gradient-9" x1="442.59" y1="22.13" x2="481.82" y2="22.13" xlink:href="#linear-gradient"/><linearGradient id="linear-gradient-10" x1="25.11" y1="13.08" x2="36.58" y2="13.08" xlink:href="#linear-gradient-2"/></defs><title>Asset 59</title><g id="Layer_2" data-name="Layer 2"><g id="content"><path class="cls-1" d="M54.42,39v3.86a3.38,3.38,0,0,1-1.68,2.94L37.17,54.92a13.21,13.21,0,0,1-13.34,0L8.26,45.8a3.38,3.38,0,0,1-1.68-2.94V39Z"/><path class="cls-2" d="M37.17,26.94l15.57,9.12a3.4,3.4,0,0,1,0,5.88L37.17,51.07a13.21,13.21,0,0,1-13.34,0L8.26,41.94a3.4,3.4,0,0,1,0-5.88l15.57-9.12A13.16,13.16,0,0,1,37.17,26.94Z"/><path class="cls-1" d="M30.5,41.6,2.66,25.29,30.5,9l27.84,16.3ZM4.25,25.29,30.5,40.67,56.75,25.29,30.5,9.92Z"/><path class="cls-1" d="M58.51,23.55l2.25,1.32a.5.5,0,0,1,0,.85L58.51,27a2,2,0,0,1-1.93,0l-2.25-1.32a.5.5,0,0,1,0-.85l2.25-1.32A1.91,1.91,0,0,1,58.51,23.55Z"/><path class="cls-1" d="M31.46,39.4l2.25,1.31a.49.49,0,0,1,0,.85l-2.25,1.32a1.89,1.89,0,0,1-1.92,0l-2.25-1.32a.49.49,0,0,1,0-.85l2.25-1.31A1.89,1.89,0,0,1,31.46,39.4Z"/><path class="cls-1" d="M4.42,23.55l2.25,1.32a.5.5,0,0,1,0,.85L4.42,27a2,2,0,0,1-1.93,0L.24,25.72a.5.5,0,0,1,0-.85l2.25-1.32A1.91,1.91,0,0,1,4.42,23.55Z"/><rect class="cls-1" x="3.45" y="24.89" width="54.09" height="0.8"/><rect class="cls-1" x="30.07" y="25.17" width="0.8" height="15.97" transform="translate(-0.14 0.13) rotate(-0.23)"/><path class="cls-3" d="M27.52,8.42,18.9,3.36a7.34,7.34,0,0,0-7.39,0L2.89,8.42a1.89,1.89,0,0,0,0,3.26l8.62,5.05a7.3,7.3,0,0,0,7.39,0l8.62-5.05A1.89,1.89,0,0,0,27.52,8.42Zm-3.78,2.76-6,3.5a5.08,5.08,0,0,1-5.11,0l-6-3.5a1.31,1.31,0,0,1,0-2.26l6-3.51a5.08,5.08,0,0,1,5.11,0l6,3.51A1.31,1.31,0,0,1,23.74,11.18Z"/><path class="cls-1" d="M28.46,7.79v3a1.87,1.87,0,0,1-.94,1.63L18.9,17.44a7.3,7.3,0,0,1-7.39,0L2.89,12.39A1.87,1.87,0,0,1,2,10.76v-3l13.25,6.6Z"/><path class="cls-2" d="M27.52,6.05,18.9,1a7.34,7.34,0,0,0-7.39,0L2.89,6.05a1.89,1.89,0,0,0,0,3.27l8.62,5a7.34,7.34,0,0,0,7.39,0l8.62-5A1.89,1.89,0,0,0,27.52,6.05ZM23.74,8.82l-6,3.5a5.08,5.08,0,0,1-5.11,0l-6-3.5a1.31,1.31,0,0,1,0-2.26l6-3.51a5.08,5.08,0,0,1,5.11,0l6,3.51A1.31,1.31,0,0,1,23.74,8.82Z"/><path class="cls-4" d="M50.15,11.37V21.51a2.76,2.76,0,0,1-1.38,2.41L36,31.4a10.78,10.78,0,0,1-10.92,0L12.31,23.92a2.76,2.76,0,0,1-1.38-2.41V11.37Z"/><path class="cls-2" d="M36,1.48,48.77,9a2.8,2.8,0,0,1,0,4.83L36,21.27a10.85,10.85,0,0,1-10.93,0L12.31,13.79a2.8,2.8,0,0,1,0-4.83L25.08,1.48A10.85,10.85,0,0,1,36,1.48Z"/><path class="cls-3" d="M32.3,12.16V10.57a1.27,1.27,0,0,0,0-.28c0-1.18-1.73-2.14-3.87-2.14s-3.88,1-3.88,2.14a1.48,1.48,0,0,0,.53,1.08,5,5,0,0,1,3.35-1.07C30.43,10.3,32.05,11.11,32.3,12.16Z"/><path class="cls-3" d="M37.79,13.79,32.3,10.57v2.14l4.28,2.51,1.21-.7A.43.43,0,0,0,37.79,13.79Z"/><path class="cls-4" d="M32.3,12.71v-.55c-.25-1.05-1.87-1.86-3.84-1.86a5,5,0,0,0-3.35,1.07,5,5,0,0,0,3.35,1.07h.27l5.48,3.21a1.63,1.63,0,0,0,1.53.06l.12-.06.72-.42Z"/><path class="cls-5" d="M54.42,39v3.86a3.38,3.38,0,0,1-1.68,2.94L37.17,54.92a13.21,13.21,0,0,1-13.34,0L8.26,45.8a3.38,3.38,0,0,1-1.68-2.94V39Z"/><path class="cls-6" d="M37.17,26.94l15.57,9.12a3.4,3.4,0,0,1,0,5.88L37.17,51.07a13.21,13.21,0,0,1-13.34,0L8.26,41.94a3.4,3.4,0,0,1,0-5.88l15.57-9.12A13.16,13.16,0,0,1,37.17,26.94Z"/><path class="cls-7" d="M30.5,41.6,2.66,25.29,30.5,9l27.84,16.3ZM4.25,25.29,30.5,40.67,56.75,25.29,30.5,9.92Z"/><path class="cls-8" d="M58.51,23.55l2.25,1.32a.5.5,0,0,1,0,.85L58.51,27a2,2,0,0,1-1.93,0l-2.25-1.32a.5.5,0,0,1,0-.85l2.25-1.32A1.91,1.91,0,0,1,58.51,23.55Z"/><path class="cls-9" d="M31.46,39.4l2.25,1.31a.49.49,0,0,1,0,.85l-2.25,1.32a1.89,1.89,0,0,1-1.92,0l-2.25-1.32a.49.49,0,0,1,0-.85l2.25-1.31A1.89,1.89,0,0,1,31.46,39.4Z"/><path class="cls-10" d="M4.42,23.55l2.25,1.32a.5.5,0,0,1,0,.85L4.42,27a2,2,0,0,1-1.93,0L.24,25.72a.5.5,0,0,1,0-.85l2.25-1.32A1.91,1.91,0,0,1,4.42,23.55Z"/><rect class="cls-11" x="3.45" y="24.89" width="54.09" height="0.8"/><rect class="cls-12" x="30.07" y="25.17" width="0.8" height="15.97" transform="translate(-0.14 0.13) rotate(-0.23)"/><path class="cls-13" d="M27.52,8.42,18.9,3.36a7.34,7.34,0,0,0-7.39,0L2.89,8.42a1.89,1.89,0,0,0,0,3.26l8.62,5.05a7.3,7.3,0,0,0,7.39,0l8.62-5.05A1.89,1.89,0,0,0,27.52,8.42Zm-3.78,2.76-6,3.5a5.08,5.08,0,0,1-5.11,0l-6-3.5a1.31,1.31,0,0,1,0-2.26l6-3.51a5.08,5.08,0,0,1,5.11,0l6,3.51A1.31,1.31,0,0,1,23.74,11.18Z"/><path class="cls-14" d="M28.46,7.79v3a1.87,1.87,0,0,1-.94,1.63L18.9,17.44a7.3,7.3,0,0,1-7.39,0L2.89,12.39A1.87,1.87,0,0,1,2,10.76v-3l13.25,6.6Z"/><path class="cls-15" d="M27.52,6.05,18.9,1a7.34,7.34,0,0,0-7.39,0L2.89,6.05a1.89,1.89,0,0,0,0,3.27l8.62,5a7.34,7.34,0,0,0,7.39,0l8.62-5A1.89,1.89,0,0,0,27.52,6.05ZM23.74,8.82l-6,3.5a5.08,5.08,0,0,1-5.11,0l-6-3.5a1.31,1.31,0,0,1,0-2.26l6-3.51a5.08,5.08,0,0,1,5.11,0l6,3.51A1.31,1.31,0,0,1,23.74,8.82Z"/><path class="cls-16" d="M50.15,11.37V21.51a2.76,2.76,0,0,1-1.38,2.41L36,31.4a10.78,10.78,0,0,1-10.92,0L12.31,23.92a2.76,2.76,0,0,1-1.38-2.41V11.37Z"/><path class="cls-15" d="M36,1.48,48.77,9a2.8,2.8,0,0,1,0,4.83L36,21.27a10.85,10.85,0,0,1-10.93,0L12.31,13.79a2.8,2.8,0,0,1,0-4.83L25.08,1.48A10.85,10.85,0,0,1,36,1.48Z"/><path class="cls-3" d="M32.3,12.16V10.57a1.27,1.27,0,0,0,0-.28c0-1.18-1.73-2.14-3.87-2.14s-3.88,1-3.88,2.14a1.48,1.48,0,0,0,.53,1.08,5,5,0,0,1,3.35-1.07C30.43,10.3,32.05,11.11,32.3,12.16Z"/><path class="cls-3" d="M37.79,13.79,32.3,10.57v2.14l4.28,2.51,1.21-.7A.43.43,0,0,0,37.79,13.79Z"/><path class="cls-17" d="M32.3,12.71v-.55c-.25-1.05-1.87-1.86-3.84-1.86a5,5,0,0,0-3.35,1.07,5,5,0,0,0,3.35,1.07h.27l5.48,3.21a1.63,1.63,0,0,0,1.53.06l.12-.06.72-.42Z"/></g></g></svg>