<svg xmlns="http://www.w3.org/2000/svg" viewBox="0 0 51 51"><defs><style>.cls-1{fill:#f5f6fa;}.cls-2{fill:#e9eaf2;}.cls-3{fill:#d2dbeb;}.cls-4{fill:#fff;}.cls-5{fill:#26db8d;}</style></defs><title>prot</title><g id="Layer_2" data-name="Layer 2"><g id="content"><circle class="cls-1" cx="25.5" cy="25.5" r="25"/><path class="cls-2" d="M25.5,51A25.5,25.5,0,1,1,51,25.5,25.53,25.53,0,0,1,25.5,51Zm0-50A24.5,24.5,0,1,0,50,25.5,24.53,24.53,0,0,0,25.5,1Z"/><path class="cls-3" d="M40.27,12.5c-3,0-11.15-3.27-14-4.53l-.77-.33L24.71,8C22,9.24,14.28,12.5,10.73,12.5H8.88v1.86A40.13,40.13,0,0,0,24.44,46.47l1.06.73,1.06-.73A40.21,40.21,0,0,0,42.12,14.36V12.5ZM12.63,16.05c4.23-.64,10-3.05,12.5-4.17V42.26A37.07,37.07,0,0,1,12.63,16.05Zm13.24,26.2V11.86c2.54,1.07,8.51,3.47,12.5,4.16A37.32,37.32,0,0,1,25.87,42.25Z"/><path class="cls-4" d="M9.88,13.5v.86A39,39,0,0,0,25,45.64l.49.34.49-.34A39.08,39.08,0,0,0,41.12,14.36V13.5h-.85C36.41,13.5,26,8.94,25.85,8.89l-.36-.16-.35.17c-.1,0-9.91,4.6-14.41,4.6Zm15,31V43.36l-.4-.35A38.06,38.06,0,0,1,11.63,16.09l0-.89.89-.14C16.63,14.43,22.42,12,24.72,11l.15-.07v-.55l.64.27.62-.27v.53l.13,0c2.39,1,8.37,3.43,12.28,4.11l.87.15,0,.88A38.3,38.3,0,0,1,26.53,43l-.4.35v1.1l-.63-.54ZM13.68,16.88A35.93,35.93,0,0,0,24.13,40V13.41A58.22,58.22,0,0,1,13.68,16.88Zm13.19-3.53V39.93A36.18,36.18,0,0,0,37.33,16.84,71.29,71.29,0,0,1,26.87,13.35Z"/><polygon class="cls-5" points="10.18 14.14 25.87 9.68 40.51 14.14 36 33.78 25.13 44.94 14.5 31.13 10.18 14.14"/><polygon class="cls-4" points="25.87 10.9 39.43 14.63 37.37 28.28 25.58 44.94 25.87 10.9"/><path class="cls-3" d="M40.27,12.5c-3,0-11.15-3.27-14-4.53l-.77-.33L24.71,8C22,9.24,14.28,12.5,10.73,12.5H8.88v1.86A40.13,40.13,0,0,0,24.44,46.47l1.06.73,1.06-.73A40.21,40.21,0,0,0,42.12,14.36V12.5ZM12.63,16.05c4.23-.64,10-3.05,12.5-4.17V42.26A37.07,37.07,0,0,1,12.63,16.05Zm13.24,26.2V11.86c2.54,1.07,8.51,3.47,12.5,4.16A37.32,37.32,0,0,1,25.87,42.25Z"/></g></g></svg>