<svg xmlns="http://www.w3.org/2000/svg" xmlns:xlink="http://www.w3.org/1999/xlink" viewBox="0 0 33.73 45.96"><defs><style>.cls-1{fill:none;}.cls-2{clip-path:url(#clip-path);}.cls-3{fill:#26db8d;}.cls-4{fill:#d2dbeb;}.cls-5{fill:#9ee7ff;}</style><clipPath id="clip-path" transform="translate(-9.65 -7.78)"><circle class="cls-1" cx="25" cy="25" r="25"/></clipPath></defs><title>Asset 57</title><g id="Layer_2" data-name="Layer 2"><g id="content"><g class="cls-2"><path class="cls-3" d="M28.44,33.7l3-1.74L36,39.9a1.73,1.73,0,0,1-.63,2.35l0,0A1.72,1.72,0,0,1,33,41.64Z" transform="translate(-9.65 -7.78)"/><path class="cls-3" d="M28.44,33.7l3-1.74L36,39.9a1.73,1.73,0,0,1-.63,2.35l0,0A1.72,1.72,0,0,1,33,41.64Z" transform="translate(-9.65 -7.78)"/><path class="cls-3" d="M29,37.56l5.54-3.2L43,49a3.16,3.16,0,0,1-1.15,4.32l-.06,0a3.16,3.16,0,0,1-4.32-1.15Z" transform="translate(-9.65 -7.78)"/><path class="cls-4" d="M28.44,33.7l3-1.74L36,39.9a1.73,1.73,0,0,1-.63,2.35l0,0A1.72,1.72,0,0,1,33,41.64Z" transform="translate(-9.65 -7.78)"/><path class="cls-3" d="M29,37.56l5.54-3.2L43,49a3.16,3.16,0,0,1-1.15,4.32l-.06,0a3.16,3.16,0,0,1-4.32-1.15Z" transform="translate(-9.65 -7.78)"/><path class="cls-4" d="M29,37.56l5.54-3.2L43,49a3.16,3.16,0,0,1-1.15,4.32l-.06,0a3.16,3.16,0,0,1-4.32-1.15Z" transform="translate(-9.65 -7.78)"/><path class="cls-3" d="M35.42,14.71A13.85,13.85,0,0,0,28.13,8.6c-.36-.12-.72-.25-1.08-.34A13.79,13.79,0,0,0,11.71,28.81a13.62,13.62,0,0,0,7.07,5.78,10.16,10.16,0,0,0,1.07.33,13.7,13.7,0,0,0,5.55.36l.89-.16a14.2,14.2,0,0,0,2.45-.77,15.21,15.21,0,0,0,1.62-.8,14,14,0,0,0,1.45-1,13.79,13.79,0,0,0,3.61-17.88ZM30.58,31a10.71,10.71,0,0,1-1.24.83,13.59,13.59,0,0,1-1.38.68,11.92,11.92,0,0,1-2.08.65c-.25.06-.51.1-.77.14a11.82,11.82,0,0,1-4.73-.3c-.3-.08-.62-.18-.92-.28a11.79,11.79,0,0,1,7.06-22.47c.31.08.62.18.92.29A11.77,11.77,0,0,1,30.58,31Z" transform="translate(-9.65 -7.78)"/><circle class="cls-5" cx="13.81" cy="13.82" r="11.78"/></g></g></g></svg>