<svg xmlns="http://www.w3.org/2000/svg" viewBox="0 0 51 51"><defs><style>.cls-1{fill:#f5f6fa;}.cls-2{fill:#e9eaf2;}.cls-3{fill:#fff;}.cls-4{fill:#d2dbeb;}.cls-5{fill:#26db8d;}</style></defs><title>tick</title><g id="Layer_2" data-name="Layer 2"><g id="content"><circle class="cls-1" cx="25.5" cy="25.5" r="25"/><path class="cls-2" d="M25.5,51A25.5,25.5,0,1,1,51,25.5,25.53,25.53,0,0,1,25.5,51Zm0-50A24.5,24.5,0,1,0,50,25.5,24.53,24.53,0,0,0,25.5,1Z"/><circle class="cls-3" cx="25" cy="25.5" r="12.42"/><path class="cls-4" d="M25,39.93a14,14,0,1,1,14-14A14,14,0,0,1,25,39.93Zm0-25.42A11.39,11.39,0,1,0,36.39,25.9,11.4,11.4,0,0,0,25,14.51Z"/><polygon class="cls-5" points="15.96 21.44 25 35.58 42.12 8.17 25 25.9 15.96 21.44"/></g></g></svg>