<svg xmlns="http://www.w3.org/2000/svg" xmlns:xlink="http://www.w3.org/1999/xlink" viewBox="0 0 51 51"><defs><style>.cls-1{fill:none;}.cls-2{fill:#f5f6fa;}.cls-3{fill:#e9eaf2;}.cls-4{clip-path:url(#clip-path);}.cls-5{fill:#26db8d;}.cls-6{fill:#9ee7ff;}</style><clipPath id="clip-path"><circle class="cls-1" cx="25.5" cy="25.5" r="21.23"/></clipPath></defs><title>user</title><g id="Layer_2" data-name="Layer 2"><g id="content"><circle class="cls-2" cx="25.5" cy="25.5" r="25"/><path class="cls-3" d="M25.5,51A25.5,25.5,0,1,1,51,25.5,25.53,25.53,0,0,1,25.5,51Zm0-50A24.5,24.5,0,1,0,50,25.5,24.53,24.53,0,0,0,25.5,1Z"/><circle class="cls-2" cx="25.5" cy="25.5" r="21.23"/><g class="cls-4"><path class="cls-5" d="M24.18,29h2.64a13.1,13.1,0,0,1,13.1,13.1v6a0,0,0,0,1,0,0H11.08a0,0,0,0,1,0,0v-6A13.1,13.1,0,0,1,24.18,29Z"/></g><ellipse class="cls-6" cx="25.5" cy="17.64" rx="7.78" ry="9.44"/></g></g></svg>