<svg xmlns="http://www.w3.org/2000/svg" xmlns:xlink="http://www.w3.org/1999/xlink" viewBox="0 0 237.54 108.58"><defs><style>.cls-1{fill:none;}.cls-2{fill:#f5f6fa;}.cls-3{fill:#0e9de5;}.cls-4{clip-path:url(#clip-path);}.cls-5{fill:#041742;}.cls-6{fill:#fff;}.cls-7{fill:#6ef9b7;}.cls-8{fill:#9ee7ff;}</style><clipPath id="clip-path"><circle class="cls-1" cx="14.68" cy="54.21" r="14.68"/></clipPath></defs><title>Browser</title><g id="Layer_2" data-name="Layer 2"><g id="Layer_1-2" data-name="Layer 1"><rect class="cls-2" x="14.68" width="222.86" height="108.42"/><circle class="cls-3" cx="14.68" cy="54.21" r="14.68"/><g class="cls-4"><polygon class="cls-5" points="10.87 51.74 16.09 56.96 13.82 62.42 27.14 75.74 35.02 64.94 17.26 47.19 10.87 51.74"/></g><path class="cls-6" d="M13.82,50.35h-.05l-2.9,1.39-.59-2.68,4.05-1.87h2.93V62.42H13.82Z"/><path class="cls-7" d="M166.15,0A65.22,65.22,0,1,1,36.48,10.06,66.73,66.73,0,0,1,37.25,0Z"/><path class="cls-8" d="M237.45,108.58H56.72A94.92,94.92,0,0,1,237.45,82.84Z"/><path class="cls-6" d="M158.9,24.21a2.07,2.07,0,0,0-.19-.32,1.59,1.59,0,0,0-.33-.25,44.32,44.32,0,0,0-64.56,0,1.59,1.59,0,0,0-.33.25,2.07,2.07,0,0,0-.19.32,44.26,44.26,0,0,0,0,60,2.79,2.79,0,0,0,.19.33,2,2,0,0,0,.33.24,44.31,44.31,0,0,0,64.59,0,2.18,2.18,0,0,0,.31-.22,2.07,2.07,0,0,0,.19-.32,44.26,44.26,0,0,0,0-60ZM156.76,80A45.55,45.55,0,0,0,147.08,74a79.1,79.1,0,0,0,2.33-17.59h16.64A39.82,39.82,0,0,1,156.76,80ZM86.14,56.43h16.64A79.69,79.69,0,0,0,105.11,74,44.84,44.84,0,0,0,95.44,80,39.9,39.9,0,0,1,86.14,56.43Zm9.3-28a45.28,45.28,0,0,0,9.67,5.94A79.53,79.53,0,0,0,102.78,52H86.14A39.84,39.84,0,0,1,95.44,28.46Zm28.43,5.8a46.89,46.89,0,0,1-13.32-2.54c3-9.28,7.87-15.84,13.32-17.27Zm0,4.45V52H107.23a75.7,75.7,0,0,1,2.09-15.93,51.91,51.91,0,0,0,14.55,2.67Zm0,17.72V69.7a51.21,51.21,0,0,0-14.55,2.67,75.79,75.79,0,0,1-2.09-15.94Zm0,17.72V94c-5.45-1.42-10.28-8-13.32-17.27A47.24,47.24,0,0,1,123.87,74.15Zm4.45,0a47.38,47.38,0,0,1,13.33,2.54c-3,9.29-7.87,15.85-13.33,17.28Zm0-4.45V56.43H145a74.58,74.58,0,0,1-2.09,15.94,51.08,51.08,0,0,0-14.55-2.67Zm0-17.72V38.72A51.44,51.44,0,0,0,142.87,36,74.58,74.58,0,0,1,145,52Zm0-17.72V14.45c5.46,1.43,10.29,8,13.33,17.28A47.36,47.36,0,0,1,128.32,34.26ZM138.24,16a40,40,0,0,1,15.44,9.19,40.13,40.13,0,0,1-7.86,4.84A40.87,40.87,0,0,0,138.24,16Zm-31.87,14a40.72,40.72,0,0,1-7.86-4.84A40.25,40.25,0,0,1,114,16a41.18,41.18,0,0,0-7.58,14Zm0,48.3a41.09,41.09,0,0,0,7.58,14,40.12,40.12,0,0,1-15.44-9.19,41.18,41.18,0,0,1,7.86-4.83Zm39.45,0a40.13,40.13,0,0,1,7.86,4.84,40.1,40.1,0,0,1-15.44,9.19,40.87,40.87,0,0,0,7.58-14ZM149.41,52a78.94,78.94,0,0,0-2.33-17.58,46,46,0,0,0,9.68-5.93A39.8,39.8,0,0,1,166.05,52Z"/></g></g></svg>