<svg xmlns="http://www.w3.org/2000/svg" xmlns:xlink="http://www.w3.org/1999/xlink" viewBox="0 0 236.68 108"><defs><style>.cls-1{fill:none;}.cls-2{fill:#f5f6fa;}.cls-3{fill:#0e9de5;}.cls-4{clip-path:url(#clip-path);}.cls-5{fill:#041742;}.cls-6{fill:#fff;}.cls-7{fill:#6ef9b7;}.cls-8{fill:#9ee7ff;}</style><clipPath id="clip-path"><circle class="cls-1" cx="14.68" cy="54" r="14.68"/></clipPath></defs><title>Messaging</title><g id="Layer_2" data-name="Layer 2"><g id="Layer_1-2" data-name="Layer 1"><rect class="cls-2" x="14.68" width="222" height="108"/><circle class="cls-3" cx="14.68" cy="54" r="14.68"/><g class="cls-4"><polygon class="cls-5" points="9.59 56.73 23.32 70.46 32.06 60.65 18.23 46.82 14.68 47.86 9.59 56.73"/></g><path class="cls-6" d="M15.35,59.83V56.72H9.58v-2l4.91-7.92h3.74v7.62h1.54v2.28H18.23v3.11Zm0-5.39V51.56c0-.78,0-1.58.08-2.42h-.06c-.42.84-.78,1.6-1.22,2.42L12.43,54.4l0,0Z"/><path class="cls-7" d="M207.05,56.87h-5.34V68.68L187.19,56.87H111A6.91,6.91,0,0,1,104.12,50V13.21A6.91,6.91,0,0,1,111,6.31h96a6.91,6.91,0,0,1,6.89,6.9V50A6.91,6.91,0,0,1,207.05,56.87Z"/><path class="cls-8" d="M48.77,98.37h7v7.37l10.34-7.37h56.6a5.33,5.33,0,0,0,5.31-5.31V64.73a5.33,5.33,0,0,0-5.31-5.31h-74a5.33,5.33,0,0,0-5.31,5.31V93.06A5.33,5.33,0,0,0,48.77,98.37Z"/><rect class="cls-6" x="117.71" y="19.51" width="81.91" height="3.8"/><rect class="cls-6" x="117.71" y="29.86" width="81.91" height="3.8"/><rect class="cls-6" x="117.71" y="40.2" width="51.73" height="3.8"/><rect class="cls-6" x="51.47" y="69.3" width="66.24" height="2.87"/><rect class="cls-6" x="51.47" y="77.12" width="66.24" height="2.87"/><rect class="cls-6" x="51.47" y="84.95" width="41.83" height="2.87"/></g></g></svg>