<svg xmlns="http://www.w3.org/2000/svg" xmlns:xlink="http://www.w3.org/1999/xlink" viewBox="0 0 236.68 108"><defs><style>.cls-1{fill:none;}.cls-2{fill:#f5f6fa;}.cls-3{fill:#0e9de5;}.cls-4{fill:#fff;}.cls-5{clip-path:url(#clip-path);}.cls-6{fill:#041742;}.cls-7{fill:#6ef9b7;}.cls-8{fill:#d2dbeb;}.cls-9{fill:#9ee7ff;}.cls-10{fill:#88dbf2;}</style><clipPath id="clip-path"><circle class="cls-1" cx="14.68" cy="54" r="14.68"/></clipPath></defs><title>PasswordMan</title><g id="Layer_2" data-name="Layer 2"><g id="Layer_1-2" data-name="Layer 1"><rect class="cls-2" x="14.68" width="222" height="108"/><circle class="cls-3" cx="14.68" cy="54" r="14.68"/><path class="cls-4" d="M18.68,49.32h-5l-.28,2c.28,0,.52,0,.84,0a5.9,5.9,0,0,1,3.42.94,3.7,3.7,0,0,1,1.58,3.26c0,2.42-2.08,4.57-5.58,4.57A8.26,8.26,0,0,1,10,59.31L10.56,57a7.09,7.09,0,0,0,2.92.65c1.26,0,2.6-.61,2.6-2S15,53.52,12.42,53.52a10.78,10.78,0,0,0-1.74.12l.84-6.82h7.16Z"/><g class="cls-5"><polygon class="cls-6" points="18.68 46.82 30.3 58.45 26.23 70.12 23.52 72.83 10 59.3 15.44 58.4 10.68 53.64 12.65 48.08 18.68 46.82"/></g><path class="cls-4" d="M18.68,49.32h-5l-.28,2c.28,0,.52,0,.84,0a5.9,5.9,0,0,1,3.42.94,3.7,3.7,0,0,1,1.58,3.26c0,2.42-2.08,4.57-5.58,4.57A8.26,8.26,0,0,1,10,59.31L10.56,57a7.09,7.09,0,0,0,2.92.65c1.26,0,2.6-.61,2.6-2S15,53.52,12.42,53.52a10.78,10.78,0,0,0-1.74.12l.84-6.82h7.16Z"/><path class="cls-7" d="M236.68,94.41a147.52,147.52,0,0,0-222,.09V108h222Z"/><rect class="cls-8" x="47.13" y="32.3" width="160.53" height="39.38" rx="7.24"/><rect class="cls-4" x="43.69" y="28.86" width="160.53" height="39.38" rx="7.24"/><rect class="cls-9" x="54.62" y="58.68" width="18.35" height="2.07"/><rect class="cls-9" x="84.6" y="58.68" width="18.35" height="2.07"/><rect class="cls-9" x="114.58" y="58.68" width="18.35" height="2.07"/><rect class="cls-9" x="144.56" y="58.68" width="18.35" height="2.07"/><rect class="cls-9" x="174.54" y="58.68" width="18.35" height="2.07"/><polygon class="cls-10" points="71.2 43.09 69.38 40.58 65.35 43.5 65.35 38.52 62.25 38.52 62.25 43.5 58.22 40.58 56.4 43.09 61.16 46.53 56.4 49.98 58.22 52.49 62.25 49.57 62.25 54.55 65.35 54.55 65.35 49.57 69.38 52.49 71.2 49.98 66.45 46.53 71.2 43.09"/><polygon class="cls-10" points="101.18 43.09 99.36 40.58 95.33 43.5 95.33 38.52 92.23 38.52 92.23 43.5 88.2 40.58 86.38 43.09 91.14 46.53 86.38 49.98 88.2 52.49 92.23 49.57 92.23 54.55 95.33 54.55 95.33 49.57 99.36 52.49 101.18 49.98 96.43 46.53 101.18 43.09"/><polygon class="cls-10" points="131.16 43.09 129.34 40.58 125.31 43.5 125.31 38.52 122.21 38.52 122.21 43.5 118.18 40.58 116.36 43.09 121.12 46.53 116.36 49.98 118.18 52.49 122.21 49.57 122.21 54.55 125.31 54.55 125.31 49.57 129.34 52.49 131.16 49.98 126.41 46.53 131.16 43.09"/><polygon class="cls-10" points="161.14 43.09 159.32 40.58 155.29 43.5 155.29 38.52 152.19 38.52 152.19 43.5 148.16 40.58 146.34 43.09 151.1 46.53 146.34 49.98 148.16 52.49 152.19 49.57 152.19 54.55 155.29 54.55 155.29 49.57 159.32 52.49 161.14 49.98 156.39 46.53 161.14 43.09"/><polygon class="cls-10" points="191.12 43.09 189.31 40.58 185.27 43.5 185.27 38.52 182.17 38.52 182.17 43.5 178.14 40.58 176.32 43.09 181.08 46.53 176.32 49.98 178.14 52.49 182.17 49.57 182.17 54.55 185.27 54.55 185.27 49.57 189.31 52.49 191.12 49.98 186.37 46.53 191.12 43.09"/></g></g></svg>