<svg xmlns="http://www.w3.org/2000/svg" xmlns:xlink="http://www.w3.org/1999/xlink" viewBox="0 0 236.68 108"><defs><style>.cls-1{fill:none;}.cls-2{fill:#f5f6fa;}.cls-3{fill:#0e9de5;}.cls-4{clip-path:url(#clip-path);}.cls-5{fill:#041742;}.cls-6{fill:#fff;}.cls-7{fill:#d2dbeb;}.cls-8{fill:#9ee7ff;}.cls-9{fill:#88dbf2;}.cls-10{fill:#26db8d;}.cls-11{fill:#6ef9b7;}</style><clipPath id="clip-path"><circle class="cls-1" cx="14.68" cy="54" r="14.68"/></clipPath></defs><title>SearchEng</title><g id="Layer_2" data-name="Layer 2"><g id="Layer_1-2" data-name="Layer 1"><rect class="cls-2" x="14.68" width="222" height="108"/><circle class="cls-3" cx="14.68" cy="54" r="14.68"/><g class="cls-4"><polygon class="cls-5" points="11.09 50.1 15.84 54.86 10.06 59.83 21.99 71.75 21.91 70.45 29.84 59.75 17.95 47.86 10.91 47.86 11.09 50.1"/></g><path class="cls-6" d="M10.07,59.83V58l1.66-1.5c2.86-2.56,4.24-4,4.26-5.54,0-1.06-.62-1.9-2.12-1.9a4.86,4.86,0,0,0-2.79,1.06l-.86-2.16a7.19,7.19,0,0,1,4.25-1.34c3,0,4.56,1.72,4.56,4.08,0,2.18-1.56,3.92-3.46,5.6l-1.2,1v0h4.92v2.51Z"/><rect class="cls-7" x="47.3" y="37.51" width="160.69" height="38.38" rx="7.24"/><rect class="cls-6" x="43.86" y="34.17" width="160.69" height="38.38" rx="7.24"/><circle class="cls-6" cx="168.67" cy="54.36" r="26.58"/><path class="cls-8" d="M100,61.53,96.49,50.4,93,61.53h-4.6l-5-16.35h4.46l3,11,3.58-11h3.83l3.59,11,3-11h4.47l-5,16.35Z"/><path class="cls-8" d="M129.37,61.53,125.91,50.4l-3.45,11.13h-4.6l-5-16.35h4.46l3.05,11,3.59-11h3.82l3.59,11,3-11h4.47l-5,16.35Z"/><path class="cls-9" d="M169.33,65.17l-5-16.09-5,16.09H152.7l-7.18-23.62H152l4.4,15.89,5.19-15.89h5.52l5.19,15.89,4.4-15.89h6.45l-7.19,23.62Z"/><path class="cls-7" d="M191.81,31.7a33.21,33.21,0,0,0-55.36,30.75,25.11,25.11,0,0,1,11.41,13.09,26.16,26.16,0,0,1,3.48-3.09,24.26,24.26,0,1,1,40.17-25.63,26.39,26.39,0,0,1,4.8-4.4A26.65,26.65,0,0,1,191.81,31.7Z"/><rect class="cls-10" x="193.21" y="71.22" width="5.81" height="21.5" transform="translate(-0.52 162.69) rotate(-45)"/><path class="cls-11" d="M144.51,30.35a33.23,33.23,0,1,0,47,0A33.23,33.23,0,0,0,144.51,30.35ZM185.17,71a24.27,24.27,0,1,1,0-34.32A24.27,24.27,0,0,1,185.17,71Z"/><polygon class="cls-11" points="201.78 78.12 192.27 87.63 212.65 108 231.66 108 201.78 78.12"/></g></g></svg>