<svg xmlns="http://www.w3.org/2000/svg" viewBox="0 0 35 35"><defs><style>.cls-1{fill:#041742;}.cls-2{fill:#0e9de5;}</style></defs><title>Asset 2</title><g id="Layer_2" data-name="Layer 2"><g id="Layer_1-2" data-name="Layer 1"><rect class="cls-1" width="35" height="35"/><path class="cls-2" d="M30,11.57a1,1,0,1,0,0-1.94H15.63l.77,1.94Z"/><path class="cls-2" d="M30,18.47a1,1,0,0,0,0-1.94H18.35l.76,1.94Z"/><path class="cls-2" d="M30,25.38a1,1,0,0,0,0-1.95h-9l.76,1.95Z"/><path class="cls-2" d="M19.06,23.43l-1.95-5-.76-1.94-2-5-.77-1.94H10.19l-.77,1.94-1.94,5-.77,1.94-2,5-.57,1.46L4,25.38H7.14l.75-1.95.41-1.08h7.22l.42,1.08.74,1.95h3.14Zm-10-3.51.54-1.45.74-1.94,1.55-4.12,1.55,4.12.74,1.94.54,1.45Z"/></g></g></svg>