<svg id="Layer_1" data-name="Layer 1" xmlns="http://www.w3.org/2000/svg" viewBox="0 0 35 35"><defs><style>.cls-1{fill:#041742;}.cls-2{fill:#fff;}</style></defs><title>MOB_FEB19</title><rect class="cls-1" width="35" height="35"/><path class="cls-2" d="M9.38,26.88a.46.46,0,0,0,.47.5h5.62v-4.6a.66.66,0,0,1,.66-.76h2.33a.73.73,0,0,1,.82.76v4.59h5.5a.57.57,0,0,0,.59-.62v-8.5l-7.76-6.89L9.38,18.24Zm0,0"/><path class="cls-2" d="M6.35,17.6s.69,1.29,2.22,0l9.11-7.7,8.55,7.65c1.76,1.28,2.42,0,2.42,0l-11-9.93Zm0,0"/><path class="cls-2" d="M26,9.88h-2.2v2.66L26,14.4Zm0,0"/></svg>