<svg xmlns="http://www.w3.org/2000/svg" xmlns:xlink="http://www.w3.org/1999/xlink" viewBox="0 0 237.72 109.77"><defs><style>.cls-1{fill:none;}.cls-2{fill:#f5f6fa;}.cls-3{clip-path:url(#clip-path);}.cls-4{fill:#fff;}.cls-5{fill:#9ee7ff;}.cls-6{fill:#88dbf2;}.cls-7{fill:#6ef9b7;}.cls-8{fill:#0e9de5;}.cls-9{clip-path:url(#clip-path-2);}.cls-10{fill:#041742;}</style><clipPath id="clip-path" transform="translate(0 1.13)"><rect class="cls-1" x="14.68" width="222" height="108"/></clipPath><clipPath id="clip-path-2" transform="translate(0 1.13)"><circle class="cls-1" cx="14.68" cy="54" r="14.68"/></clipPath></defs><g id="Layer_2" data-name="Layer 2"><g id="Layer_1-2" data-name="Layer 1"><rect class="cls-2" x="14.68" y="1.13" width="222" height="108"/><g class="cls-3"><polygon class="cls-4" points="237.72 1.52 206.22 1.52 179.62 16.97 179.62 68.53 224.13 94.12 237.72 86.19 237.72 1.52"/><polygon class="cls-5" points="237.72 1.52 206.22 1.52 179.62 16.97 224.31 42.56 237.72 34.71 237.72 1.52"/><polygon class="cls-6" points="237.72 34.71 224.31 42.56 224.13 94.12 237.72 86.19 237.72 34.71"/><polygon class="cls-4" points="13.27 0 13.27 86.1 27.22 94.12 71.73 68.16 71.73 16.6 42.98 0 13.27 0"/><polygon class="cls-5" points="13.27 0 13.27 34.47 27.4 42.56 71.73 16.6 42.98 0 13.27 0"/><polygon class="cls-6" points="27.4 42.56 71.73 16.6 71.73 68.16 27.22 94.12 27.4 42.56"/><line class="cls-2" x1="125.88" y1="97.56" x2="201.62" y2="52.45"/><rect class="cls-7" x="120.57" y="75.63" width="75.45" height="3" transform="translate(-17.17 93) rotate(-30.78)"/><polygon class="cls-7" points="201.62 52.45 189.98 67.9 189.88 59.44 182.49 55.33 201.62 52.45"/><line class="cls-2" x1="125.88" y1="97.56" x2="50.14" y2="52.45"/><rect class="cls-7" x="91.97" y="39.41" width="3" height="75.45" transform="translate(-20.63 119.1) rotate(-59.22)"/><polygon class="cls-7" points="50.14 52.45 69.27 55.33 61.88 59.44 61.78 67.9 50.14 52.45"/><polygon class="cls-4" points="169.91 109.77 170.18 109.61 170.18 58.05 125.86 32.46 81.17 58.43 81.17 109.77 169.91 109.77"/><polygon class="cls-5" points="125.86 32.46 81.17 58.43 125.86 84.02 170.18 58.05 125.86 32.46"/><polygon class="cls-6" points="169.91 109.77 170.18 109.61 170.18 58.05 125.86 84.02 125.77 109.77 169.91 109.77"/></g><circle class="cls-8" cx="14.68" cy="55.13" r="14.68"/><path class="cls-4" d="M18.68,49.32h-5l-.28,2c.28,0,.52,0,.84,0a5.9,5.9,0,0,1,3.42.94,3.7,3.7,0,0,1,1.58,3.26c0,2.42-2.08,4.57-5.58,4.57A8.26,8.26,0,0,1,10,59.31L10.56,57a7.09,7.09,0,0,0,2.92.65c1.26,0,2.6-.61,2.6-2S15,53.52,12.42,53.52a10.78,10.78,0,0,0-1.74.12l.84-6.82h7.16Z" transform="translate(0 1.13)"/><g class="cls-9"><polygon class="cls-10" points="18.68 47.95 30.3 59.57 26.23 71.25 23.52 73.96 10 60.43 15.44 59.53 10.68 54.77 12.65 49.21 18.68 47.95"/></g><path class="cls-4" d="M18.68,49.32h-5l-.28,2c.28,0,.52,0,.84,0a5.9,5.9,0,0,1,3.42.94,3.7,3.7,0,0,1,1.58,3.26c0,2.42-2.08,4.57-5.58,4.57A8.26,8.26,0,0,1,10,59.31L10.56,57a7.09,7.09,0,0,0,2.92.65c1.26,0,2.6-.61,2.6-2S15,53.52,12.42,53.52a10.78,10.78,0,0,0-1.74.12l.84-6.82h7.16Z" transform="translate(0 1.13)"/></g></g></svg>