<svg xmlns="http://www.w3.org/2000/svg" xmlns:xlink="http://www.w3.org/1999/xlink" viewBox="0 0 237.67 109.77"><defs><style>.cls-1{fill:none;}.cls-2{fill:#f5f6fa;}.cls-3{fill:#0e9de5;}.cls-4{clip-path:url(#clip-path);}.cls-5{fill:#041742;}.cls-6{fill:#fff;}.cls-7{clip-path:url(#clip-path-2);}.cls-8{fill:#9ee7ff;}.cls-9{fill:#88dbf2;}.cls-10{fill:#6ef9b7;}</style><clipPath id="clip-path" transform="translate(0 1.13)"><circle class="cls-1" cx="14.68" cy="54" r="14.68"/></clipPath><clipPath id="clip-path-2" transform="translate(0 1.13)"><rect class="cls-1" x="14.63" width="222" height="108"/></clipPath></defs><title>DAG2</title><g id="Layer_2" data-name="Layer 2"><g id="Layer_1-2" data-name="Layer 1"><rect class="cls-2" x="14.63" y="1.13" width="222" height="108"/><circle class="cls-3" cx="14.68" cy="55.13" r="14.68"/><g class="cls-4"><polygon class="cls-5" points="9.59 57.85 23.32 71.59 32.06 61.78 18.23 47.95 14.68 48.99 9.59 57.85"/></g><path class="cls-6" d="M15.35,59.83V56.72H9.58v-2l4.91-7.92h3.74v7.62h1.54v2.28H18.23v3.11Zm0-5.39V51.56c0-.78,0-1.58.08-2.42h-.06c-.42.84-.78,1.6-1.22,2.42L12.43,54.4l0,0Z" transform="translate(0 1.13)"/><g class="cls-7"><polygon class="cls-6" points="237.67 1.52 206.17 1.52 179.58 16.97 179.58 68.53 224.09 94.12 237.67 86.19 237.67 1.52"/><polygon class="cls-8" points="237.67 1.52 206.17 1.52 179.58 16.97 224.26 42.56 237.67 34.71 237.67 1.52"/><polygon class="cls-9" points="237.67 34.71 224.26 42.56 224.09 94.12 237.67 86.19 237.67 34.71"/><polygon class="cls-6" points="13.23 0 13.23 86.1 27.18 94.12 71.69 68.16 71.69 16.6 42.94 0 13.23 0"/><polygon class="cls-8" points="13.23 0 13.23 34.47 27.36 42.56 71.69 16.6 42.94 0 13.23 0"/><polygon class="cls-9" points="27.36 42.56 71.69 16.6 71.69 68.16 27.18 94.12 27.36 42.56"/><line class="cls-2" x1="125.84" y1="97.56" x2="201.58" y2="52.45"/><rect class="cls-10" x="120.52" y="75.63" width="75.45" height="3" transform="translate(-17.18 92.98) rotate(-30.78)"/><polygon class="cls-10" points="201.58 52.45 189.94 67.9 189.84 59.44 182.45 55.33 201.58 52.45"/><line class="cls-2" x1="125.84" y1="97.56" x2="50.1" y2="52.45"/><rect class="cls-10" x="91.93" y="39.41" width="3" height="75.45" transform="translate(-20.65 119.06) rotate(-59.22)"/><polygon class="cls-10" points="50.1 52.45 69.23 55.33 61.83 59.44 61.74 67.9 50.1 52.45"/><polygon class="cls-6" points="169.87 109.77 170.14 109.61 170.14 58.05 125.81 32.46 81.13 58.43 81.13 109.77 169.87 109.77"/><polygon class="cls-8" points="125.81 32.46 81.13 58.43 125.81 84.02 170.14 58.05 125.81 32.46"/><polygon class="cls-9" points="169.87 109.77 170.14 109.61 170.14 58.05 125.81 84.02 125.72 109.77 169.87 109.77"/></g><circle class="cls-3" cx="14.68" cy="55.13" r="14.68"/><g class="cls-4"><polygon class="cls-5" points="9.59 57.85 23.32 71.59 32.06 61.78 18.23 47.95 14.68 48.99 9.59 57.85"/></g><path class="cls-6" d="M15.35,59.83V56.72H9.58v-2l4.91-7.92h3.74v7.62h1.54v2.28H18.23v3.11Zm0-5.39V51.56c0-.78,0-1.58.08-2.42h-.06c-.42.84-.78,1.6-1.22,2.42L12.43,54.4l0,0Z" transform="translate(0 1.13)"/></g></g></svg>