<?xml version="1.0" encoding="utf-8"?>
<!-- Generator: Adobe Illustrator 23.0.2, SVG Export Plug-In . SVG Version: 6.00 Build 0)  -->
<svg version="1.1" id="Layer_1" xmlns="http://www.w3.org/2000/svg" xmlns:xlink="http://www.w3.org/1999/xlink" x="0px" y="0px"
	 viewBox="0 0 236.9 108" style="enable-background:new 0 0 236.9 108;" xml:space="preserve">
<style type="text/css">
	.st0{fill:#F5F6FA;}
	.st1{fill:url(#path5043-0-6-9-84-1-9-9-4_1_);stroke:#B1AEC0;stroke-width:0.16;}
	.st2{fill:url(#path5043-4-6-5-1-0-2_1_);stroke:#B1AEC0;stroke-width:0.16;}
	.st3{fill:url(#path5043-4-6-5-1-0-2-2_1_);stroke:#B1AEC0;stroke-width:0.16;}
	.st4{fill:url(#path5043-3-9-23-3-0-3-6_1_);stroke:#B1AEC0;stroke-width:0.16;}
	.st5{fill:url(#path5043-3-9-23-3-0-3-6-2_1_);stroke:#B1AEC0;stroke-width:0.16;}
	.st6{fill:url(#path5043-5-82-0-1-4-0-2_1_);stroke:#B1AEC0;stroke-width:0.16;}
	.st7{fill:#0E9DE5;stroke:#B1AEC0;stroke-width:0.16;}
	.st8{fill:url(#path5043-4-6-5-1-0-2-4_1_);stroke:#B1AEC0;stroke-width:0.16;}
	.st9{fill:url(#path5043-5-82-0-1-4-0-2-2_1_);stroke:#B1AEC0;stroke-width:0.16;}
	.st10{fill:#8C8A99;}
	.st11{fill:#FFFFFF;}
	.st12{fill:#0E9DE5;}
	.st13{clip-path:url(#SVGID_2_);}
	.st14{fill:#041742;}
</style>
<title>VT</title>
<g>
	<g id="content">
		<rect x="14.9" class="st0" width="222" height="108"/>
		
			<linearGradient id="path5043-0-6-9-84-1-9-9-4_1_" gradientUnits="userSpaceOnUse" x1="103.5287" y1="-73.4" x2="148.4012" y2="-73.4" gradientTransform="matrix(1 0 0 -1 0 -19.96)">
			<stop  offset="0" style="stop-color:#FFFFFF"/>
			<stop  offset="1" style="stop-color:#F5F6FA"/>
		</linearGradient>
		<path id="path5043-0-6-9-84-1-9-9-4" class="st1" d="M109.7,69.7c0,0,2.7-8.6,0-11.3c-2.3-2.3-2.1,2.3-4.4,0s-2.3-7.6,0-9.9
			s2.1,2.3,4.4,0c2.7-2.7,0-11.3,0-11.3s8.7-2.7,11.3,0c2.3,2.3-2.3,5.5,0,7.8s7.6,2.3,9.9,0s-2.3-5.5,0-7.8c2.7-2.7,11.3,0,11.3,0
			s-2.7,8.7,0,11.3c2.3,2.3,2.1-2.3,4.4,0s2.3,7.6,0,9.9s-2.1-2.3-4.4,0c-2.7,2.7,0,11.3,0,11.3s-8.7,2.7-11.3,0
			c-2.3-2.3,2.3-5.5,0-7.8s-7.6-2.3-9.9,0s2.3,5.5,0,7.8C118.3,72.4,109.7,69.7,109.7,69.7z"/>
		
			<linearGradient id="path5043-4-6-5-1-0-2_1_" gradientUnits="userSpaceOnUse" x1="77.12" y1="-41.4333" x2="115.8313" y2="-41.4333" gradientTransform="matrix(1 0 0 -1 0 -19.96)">
			<stop  offset="0" style="stop-color:#FFFFFF"/>
			<stop  offset="1" style="stop-color:#F5F6FA"/>
		</linearGradient>
		<path id="path5043-4-6-5-1-0-2" class="st2" d="M77.1,4.6h32.6c0,0-2.7,8.6,0,11.3c2.3,2.3,2.1-2.3,4.4,0s2.3,7.6,0,9.9
			s-2.1-2.3-4.4,0c-2.7,2.7,0,11.3,0,11.3s-8.7,2.7-11.3,0c-2.3-2.3,2.3-4.1,0-6.5s-7.6-2.3-9.9,0s2.3,4.1,0,6.5
			c-2.7,2.7-11.3,0-11.3,0L77.1,4.6z"/>
		
			<linearGradient id="path5043-4-6-5-1-0-2-2_1_" gradientUnits="userSpaceOnUse" x1="135.9688" y1="-41.4333" x2="174.68" y2="-41.4333" gradientTransform="matrix(1 0 0 -1 0 -19.96)">
			<stop  offset="0" style="stop-color:#FFFFFF"/>
			<stop  offset="1" style="stop-color:#F5F6FA"/>
		</linearGradient>
		<path id="path5043-4-6-5-1-0-2-2" class="st3" d="M174.7,4.6h-32.6c0,0,2.7,8.6,0,11.3c-2.3,2.3-2.1-2.3-4.4,0s-2.3,7.6,0,9.9
			s2.1-2.3,4.4,0c2.7,2.7,0,11.3,0,11.3s8.6,2.7,11.3,0c2.3-2.3-2.3-4.1,0-6.5s7.6-2.3,9.9,0s-2.3,4.1,0,6.5c2.7,2.7,11.3,0,11.3,0
			L174.7,4.6z"/>
		
			<linearGradient id="path5043-3-9-23-3-0-3-6_1_" gradientUnits="userSpaceOnUse" x1="77.12" y1="-73.4019" x2="110.8667" y2="-73.4019" gradientTransform="matrix(1 0 0 -1 0 -19.96)">
			<stop  offset="0" style="stop-color:#FFFFFF"/>
			<stop  offset="1" style="stop-color:#F5F6FA"/>
		</linearGradient>
		<path id="path5043-3-9-23-3-0-3-6" class="st4" d="M77.1,37.2c0,0,8.7,2.7,11.3,0c2.3-2.3-2.3-4.1,0-6.5s7.6-2.3,9.9,0
			s-2.3,4.1,0,6.5c2.7,2.7,11.3,0,11.3,0s2.7,8.7,0,11.3c-2.3,2.3-2.1-2.3-4.4,0s-2.3,7.6,0,9.9s2.1-2.3,4.4,0
			c2.7,2.7,0,11.3,0,11.3s-8.7-2.7-11.3,0c-2.3,2.3,2.3,4.1,0,6.5s-7.6,2.3-9.9,0s2.3-4.1,0-6.5c-2.7-2.7-11.3,0-11.3,0
			S77.1,37.2,77.1,37.2z"/>
		
			<linearGradient id="path5043-3-9-23-3-0-3-6-2_1_" gradientUnits="userSpaceOnUse" x1="140.9333" y1="-73.4019" x2="174.68" y2="-73.4019" gradientTransform="matrix(1 0 0 -1 0 -19.96)">
			<stop  offset="0" style="stop-color:#FFFFFF"/>
			<stop  offset="1" style="stop-color:#F5F6FA"/>
		</linearGradient>
		<path id="path5043-3-9-23-3-0-3-6-2" class="st5" d="M174.7,69.7c0,0-8.7-2.7-11.3,0c-2.3,2.3,2.3,4.1,0,6.5s-7.6,2.3-9.9,0
			s2.3-4.1,0-6.5c-2.7-2.7-11.3,0-11.3,0s-2.7-8.6,0-11.3c2.3-2.3,2.1,2.3,4.4,0s2.3-7.6,0-9.9s-2.1,2.3-4.4,0
			c-2.7-2.7,0-11.3,0-11.3s8.6,2.7,11.3,0c2.3-2.3-2.3-4.1,0-6.5s7.6-2.3,9.9,0s-2.3,4.1,0,6.5c2.7,2.7,11.3,0,11.3,0L174.7,69.7
			L174.7,69.7z"/>
		
			<linearGradient id="path5043-5-82-0-1-4-0-2_1_" gradientUnits="userSpaceOnUse" x1="108.4933" y1="-45.6356" x2="143.4367" y2="-45.6356" gradientTransform="matrix(1 0 0 -1 0 -19.96)">
			<stop  offset="0" style="stop-color:#FFFFFF"/>
			<stop  offset="1" style="stop-color:#F5F6FA"/>
		</linearGradient>
		<path id="path5043-5-82-0-1-4-0-2" class="st6" d="M142.2,4.6c0,0,2.7,8.6,0,11.3c-2.3,2.3-2.1-2.3-4.4,0s-2.3,7.6,0,9.9
			s2.1-2.3,4.4,0c2.7,2.7,0,11.3,0,11.3s-8.7-2.7-11.3,0c-2.3,2.3,2.3,5.5,0,7.8s-7.6,2.3-9.9,0s2.3-5.5,0-7.8
			c-2.7-2.7-11.3,0-11.3,0s-2.7-8.7,0-11.3c2.3-2.3,2.1,2.3,4.4,0s2.3-7.6,0-9.9s-2.1,2.3-4.4,0c-2.7-2.7,0-11.3,0-11.3L142.2,4.6z"
			/>
		<path id="path5043-4-6-5-1-0-2-3" class="st7" d="M174.7,102.2h-32.6c0,0,2.7-8.7,0-11.3c-2.3-2.3-2.1,2.3-4.4,0s-2.3-7.6,0-9.9
			s2.1,2.3,4.4,0c2.7-2.7,0-11.3,0-11.3s8.6-2.7,11.3,0c2.3,2.3-2.3,4.1,0,6.5s7.6,2.3,9.9,0s-2.3-4.1,0-6.5c2.7-2.7,11.3,0,11.3,0
			L174.7,102.2z"/>
		
			<linearGradient id="path5043-4-6-5-1-0-2-4_1_" gradientUnits="userSpaceOnUse" x1="77.12" y1="-105.2467" x2="115.8313" y2="-105.2467" gradientTransform="matrix(1 0 0 -1 0 -19.96)">
			<stop  offset="0" style="stop-color:#FFFFFF"/>
			<stop  offset="1" style="stop-color:#F5F6FA"/>
		</linearGradient>
		<path id="path5043-4-6-5-1-0-2-4" class="st8" d="M77.1,102.2h32.6c0,0-2.7-8.7,0-11.3c2.3-2.3,2.1,2.3,4.4,0s2.3-7.6,0-9.9
			s-2.1,2.3-4.4,0c-2.7-2.7,0-11.3,0-11.3s-8.7-2.7-11.3,0c-2.3,2.3,2.3,4.1,0,6.5s-7.6,2.3-9.9,0s2.3-4.1,0-6.5
			c-2.7-2.7-11.3,0-11.3,0L77.1,102.2z"/>
		
			<linearGradient id="path5043-5-82-0-1-4-0-2-2_1_" gradientUnits="userSpaceOnUse" x1="108.3633" y1="-101.0375" x2="143.3067" y2="-101.0375" gradientTransform="matrix(1 0 0 -1 0 -19.96)">
			<stop  offset="0" style="stop-color:#FFFFFF"/>
			<stop  offset="1" style="stop-color:#F5F6FA"/>
		</linearGradient>
		<path id="path5043-5-82-0-1-4-0-2-2" class="st9" d="M109.6,102.2c0,0-2.7-8.7,0-11.3c2.3-2.3,2.1,2.3,4.4,0s2.3-7.6,0-9.9
			s-2.1,2.3-4.4,0c-2.7-2.7,0-11.3,0-11.3s8.7,2.7,11.3,0c2.3-2.3-2.3-5.5,0-7.9s7.6-2.3,9.9,0s-2.3,5.5,0,7.9
			c2.7,2.7,11.3,0,11.3,0s2.7,8.6,0,11.3c-2.3,2.3-2.1-2.3-4.4,0s-2.3,7.6,0,9.9s2.1-2.3,4.4,0c2.7,2.7,0,11.3,0,11.3H109.6z"/>
		<path class="st10" d="M89.1,16.4v-1.9h-0.7v-0.4h1.8v0.4h-0.7v1.9H89.1z"/>
		<path class="st10" d="M90.8,15.3c0-0.6,0.5-1.2,1.1-1.2c0,0,0.1,0,0.1,0c0.4,0,0.8,0.2,1,0.6l-0.4,0.2c-0.1-0.2-0.3-0.3-0.6-0.3
			c-0.4,0.1-0.7,0.5-0.6,0.9c0.1,0.3,0.3,0.5,0.5,0.6c0.2,0,0.4-0.1,0.6-0.3l0.4,0.2c-0.2,0.4-0.6,0.6-1,0.6
			C91.3,16.5,90.8,16,90.8,15.3C90.8,15.3,90.8,15.3,90.8,15.3z"/>
		<path class="st10" d="M93.6,16.4v-2.3h1.1c0.4,0,0.7,0.3,0.7,0.7c0,0.4-0.3,0.7-0.7,0.7c0,0,0,0,0,0h-0.6v0.8H93.6z M94.9,14.9
			c0-0.2-0.1-0.3-0.3-0.3c0,0,0,0,0,0h-0.5v0.6h0.5C94.8,15.2,94.9,15.1,94.9,14.9C94.9,14.9,94.9,14.9,94.9,14.9z"/>
		<path class="st10" d="M84.4,19.2v-0.8h-0.2v-0.2h0.2v-0.4h0.3v0.4H85v0.2h-0.3v0.7c0,0.1,0,0.2,0.1,0.2c0,0,0.1,0,0.1-0.1l0.1,0.2
			c-0.1,0.1-0.2,0.1-0.3,0.1c-0.2,0-0.3-0.1-0.4-0.2C84.4,19.3,84.4,19.3,84.4,19.2z"/>
		<path class="st10" d="M85.2,19.6v-1.3h0.3v0.2c0.1-0.1,0.3-0.2,0.4-0.2v0.3h-0.1c-0.1,0-0.3,0.1-0.3,0.2v0.9H85.2z"/>
		<path class="st10" d="M87,19.6v-0.1c-0.1,0.1-0.3,0.2-0.4,0.2c-0.2,0-0.5-0.2-0.5-0.4c0,0,0,0,0,0c0-0.2,0.2-0.4,0.4-0.4
			c0,0,0,0,0,0c0.2,0,0.3,0.1,0.4,0.2v-0.2c0-0.1-0.1-0.2-0.3-0.2c-0.1,0-0.3,0.1-0.4,0.2l-0.1-0.2c0.2-0.1,0.4-0.2,0.6-0.2
			c0.3,0,0.6,0.1,0.6,0.5v0.9L87,19.6z M87,19.2V19c-0.1-0.1-0.2-0.1-0.3-0.1c-0.1,0-0.3,0.1-0.3,0.2c0,0,0,0,0,0
			c0,0.1,0.1,0.2,0.3,0.2C86.8,19.4,86.9,19.3,87,19.2z"/>
		<path class="st10" d="M88.6,19.6v-0.8c0-0.2-0.1-0.3-0.3-0.3c-0.1,0-0.3,0.1-0.3,0.2v0.9h-0.3v-1.3H88v0.2
			c0.1-0.1,0.3-0.2,0.5-0.2c0.2,0,0.4,0.1,0.4,0.3c0,0,0,0.1,0,0.1v0.9L88.6,19.6z"/>
		<path class="st10" d="M89.1,19.4l0.1-0.2c0.1,0.1,0.3,0.2,0.4,0.2c0.2,0,0.3-0.1,0.3-0.2c0-0.3-0.8-0.1-0.8-0.6
			c0-0.2,0.2-0.4,0.5-0.4c0.2,0,0.4,0.1,0.5,0.2l-0.1,0.2c-0.1-0.1-0.2-0.2-0.4-0.2c-0.2,0-0.2,0.1-0.2,0.2s0.8,0.1,0.8,0.6
			c0,0.2-0.2,0.4-0.6,0.4C89.5,19.6,89.3,19.5,89.1,19.4z"/>
		<path class="st10" d="M92.2,19.6v-0.9c0-0.1-0.1-0.2-0.2-0.2c0,0,0,0,0,0c-0.1,0-0.2,0.1-0.3,0.2v0.9h-0.3v-0.9
			c0-0.1-0.1-0.2-0.2-0.2c-0.1,0-0.2,0.1-0.3,0.2v0.9h-0.3v-1.3h0.3v0.2c0.1-0.1,0.3-0.2,0.4-0.2c0.2,0,0.3,0.1,0.4,0.2
			c0.1-0.2,0.3-0.2,0.4-0.2c0.2,0,0.4,0.1,0.4,0.3c0,0,0,0.1,0,0.1v1L92.2,19.6z"/>
		<path class="st10" d="M92.8,17.9c0-0.1,0.1-0.2,0.2-0.2s0.2,0.1,0.2,0.2s-0.1,0.2-0.2,0.2S92.8,18,92.8,17.9z M92.8,19.6v-1.3h0.3
			v1.3H92.8z"/>
		<path class="st10" d="M93.4,19.4l0.1-0.2c0.1,0.1,0.3,0.2,0.4,0.2c0.2,0,0.3-0.1,0.3-0.2c0-0.3-0.8-0.1-0.8-0.6
			c0-0.2,0.2-0.4,0.5-0.4c0.2,0,0.4,0.1,0.5,0.2l-0.1,0.2c-0.1-0.1-0.2-0.2-0.4-0.2c-0.2,0-0.2,0.1-0.2,0.2s0.8,0.1,0.8,0.6
			c0,0.2-0.2,0.4-0.6,0.4C93.7,19.6,93.5,19.5,93.4,19.4z"/>
		<path class="st10" d="M94.7,19.4l0.1-0.2c0.1,0.1,0.3,0.2,0.4,0.2c0.2,0,0.3-0.1,0.3-0.2c0-0.3-0.8-0.1-0.8-0.6
			c0-0.2,0.2-0.4,0.5-0.4c0.2,0,0.4,0.1,0.5,0.2l-0.1,0.2c-0.1-0.1-0.2-0.2-0.4-0.2c-0.2,0-0.2,0.1-0.2,0.2s0.8,0.1,0.8,0.6
			c0,0.2-0.2,0.4-0.6,0.4C95,19.6,94.8,19.5,94.7,19.4z"/>
		<path class="st10" d="M96.1,17.9c0-0.1,0.1-0.2,0.2-0.2c0.1,0,0.2,0.1,0.2,0.2c0,0.1-0.1,0.2-0.2,0.2C96.1,18.1,96.1,18,96.1,17.9
			z M96.1,19.6v-1.3h0.3v1.3H96.1z"/>
		<path class="st10" d="M96.7,18.9c0-0.4,0.3-0.7,0.7-0.7c0.4,0,0.7,0.3,0.7,0.7c0,0,0,0,0,0c0,0.4-0.3,0.7-0.7,0.7
			C97,19.6,96.7,19.3,96.7,18.9C96.7,18.9,96.7,18.9,96.7,18.9z M97.7,18.9c0-0.2-0.1-0.4-0.4-0.4c0,0,0,0,0,0
			c-0.2,0-0.5,0.1-0.5,0.4c0,0.2,0.1,0.5,0.4,0.5S97.7,19.2,97.7,18.9C97.7,18.9,97.7,18.9,97.7,18.9z"/>
		<path class="st10" d="M99.2,19.6v-0.8c0-0.2-0.1-0.3-0.3-0.3c-0.1,0-0.3,0.1-0.3,0.2v0.9h-0.3v-1.3h0.3v0.2
			c0.1-0.1,0.3-0.2,0.5-0.2c0.2,0,0.4,0.1,0.4,0.3c0,0,0,0.1,0,0.1v0.9L99.2,19.6z"/>
		<path class="st10" d="M82.3,22c0-0.4,0.3-0.7,0.6-0.7c0,0,0,0,0.1,0c0.2,0,0.4,0.1,0.5,0.2l-0.2,0.2c-0.1-0.1-0.2-0.2-0.3-0.2
			c-0.2,0-0.4,0.2-0.4,0.4c0,0,0,0,0,0c0,0.2,0.1,0.4,0.4,0.4c0,0,0,0,0,0c0.1,0,0.2-0.1,0.3-0.2l0.2,0.2c-0.1,0.2-0.3,0.2-0.5,0.2
			C82.6,22.7,82.3,22.5,82.3,22C82.3,22.1,82.3,22,82.3,22z"/>
		<path class="st10" d="M83.7,22c0-0.4,0.3-0.7,0.7-0.7c0.4,0,0.7,0.3,0.7,0.7c0,0.4-0.3,0.7-0.7,0.7C84,22.7,83.7,22.4,83.7,22
			C83.7,22,83.7,22,83.7,22z M84.7,22c0-0.2-0.2-0.4-0.4-0.3c-0.2,0-0.4,0.2-0.3,0.4c0,0.2,0.2,0.3,0.4,0.3
			C84.6,22.5,84.7,22.3,84.7,22C84.7,22,84.7,22,84.7,22z"/>
		<path class="st10" d="M86.2,22.7v-0.8c0-0.2-0.1-0.3-0.3-0.3c-0.1,0-0.3,0.1-0.3,0.2v0.9h-0.3v-1.3h0.3v0.2
			c0.1-0.1,0.3-0.2,0.5-0.2c0.2,0,0.4,0.1,0.4,0.3c0,0,0,0.1,0,0.1v0.9L86.2,22.7z"/>
		<path class="st10" d="M86.9,22.3v-0.8h-0.2v-0.2h0.2V21h0.3v0.4h0.3v0.2h-0.3v0.7c0,0.1,0,0.2,0.1,0.2c0,0,0.1,0,0.1,0l0.1,0.2
			c-0.1,0.1-0.2,0.1-0.3,0.1c-0.2,0-0.3-0.1-0.3-0.3C86.9,22.4,86.9,22.4,86.9,22.3z"/>
		<path class="st10" d="M87.8,22.7v-1.3h0.3v0.2c0.1-0.1,0.3-0.2,0.4-0.2v0.3h-0.1c-0.1,0-0.3,0.1-0.3,0.2v0.9H87.8z"/>
		<path class="st10" d="M88.6,22c0-0.4,0.2-0.7,0.6-0.8c0.4,0,0.7,0.2,0.8,0.6c0,0.1,0,0.1,0,0.2c0,0.4-0.3,0.7-0.7,0.7
			C88.9,22.7,88.6,22.4,88.6,22C88.6,22,88.6,22,88.6,22L88.6,22z M89.7,22c0-0.2-0.1-0.4-0.4-0.4c0,0,0,0,0,0
			c-0.2,0-0.5,0.1-0.5,0.4c0,0.2,0.1,0.5,0.4,0.5S89.7,22.3,89.7,22C89.7,22.1,89.7,22,89.7,22z"/>
		<path class="st10" d="M90.3,22.7v-1.8h0.3v1.8H90.3z"/>
		<path class="st10" d="M92,22.5v0.7h-0.3v-1.8H92v0.2c0.1-0.1,0.3-0.2,0.4-0.2c0.3,0,0.6,0.3,0.6,0.7s-0.2,0.7-0.6,0.7
			C92.3,22.7,92.1,22.6,92,22.5z M92.7,22c0-0.2-0.1-0.4-0.3-0.4c0,0,0,0,0,0c-0.1,0-0.3,0.1-0.3,0.2v0.5c0.1,0.1,0.2,0.2,0.3,0.2
			C92.5,22.4,92.7,22.2,92.7,22L92.7,22z"/>
		<path class="st10" d="M93.3,22.7v-1.3h0.3v0.2c0.1-0.1,0.3-0.2,0.4-0.2v0.3h-0.1c-0.1,0-0.3,0.1-0.3,0.2v0.9H93.3z"/>
		<path class="st10" d="M94.1,22c0-0.4,0.3-0.7,0.7-0.7c0.4,0,0.7,0.3,0.7,0.7c0,0.4-0.3,0.7-0.7,0.7C94.5,22.7,94.1,22.4,94.1,22
			C94.1,22.1,94.1,22,94.1,22z M95.2,22c0-0.2-0.1-0.4-0.4-0.4c0,0,0,0,0,0c-0.2,0-0.5,0.1-0.5,0.4c0,0.2,0.1,0.5,0.4,0.5
			S95.2,22.3,95.2,22C95.2,22.1,95.2,22,95.2,22z"/>
		<path class="st10" d="M95.8,22.3v-0.8h-0.2v-0.2h0.2V21h0.3v0.4h0.3v0.2h-0.3v0.7c0,0.1,0,0.2,0.1,0.2c0,0,0.1,0,0.1,0l0.1,0.2
			c-0.1,0.1-0.2,0.1-0.3,0.1c-0.2,0-0.3-0.1-0.3-0.3C95.8,22.4,95.8,22.4,95.8,22.3z"/>
		<path class="st10" d="M96.6,22c0-0.4,0.3-0.7,0.7-0.7S98,21.6,98,22c0,0.4-0.2,0.7-0.6,0.8c-0.4,0-0.7-0.2-0.8-0.6
			C96.6,22.1,96.6,22.1,96.6,22L96.6,22z M97.7,22c0-0.2-0.1-0.4-0.3-0.4c-0.2,0-0.4,0.1-0.4,0.3c0,0,0,0.1,0,0.1
			c0,0.2,0.1,0.4,0.3,0.4c0.2,0,0.4-0.1,0.4-0.3C97.7,22.1,97.7,22.1,97.7,22z"/>
		<path class="st10" d="M98.2,22c0-0.4,0.3-0.7,0.6-0.7c0,0,0,0,0.1,0c0.2,0,0.4,0.1,0.5,0.2l-0.2,0.2c-0.1-0.1-0.2-0.2-0.3-0.2
			c-0.2,0-0.4,0.2-0.4,0.4c0,0,0,0,0,0c0,0.2,0.1,0.4,0.4,0.4c0,0,0,0,0,0c0.1,0,0.2-0.1,0.3-0.2l0.2,0.2c-0.1,0.2-0.3,0.2-0.5,0.2
			C98.5,22.7,98.2,22.5,98.2,22C98.2,22.1,98.2,22,98.2,22z"/>
		<path class="st10" d="M99.5,22c0-0.4,0.3-0.7,0.7-0.7c0.4,0,0.7,0.3,0.7,0.7c0,0.4-0.3,0.7-0.7,0.7C99.9,22.7,99.5,22.4,99.5,22
			C99.5,22,99.5,22,99.5,22z M100.6,22c0-0.2-0.2-0.4-0.4-0.3c-0.2,0-0.4,0.2-0.3,0.4c0,0.2,0.2,0.3,0.4,0.3
			C100.4,22.5,100.6,22.3,100.6,22C100.6,22,100.6,22,100.6,22z"/>
		<path class="st10" d="M101.2,22.7v-1.8h0.3v1.8H101.2z"/>
		<path class="st10" d="M124.5,16.4v-2.3h0.5v2.3H124.5z"/>
		<path class="st10" d="M125.8,16.4v-2.3h1.1c0.4,0,0.7,0.3,0.7,0.7c0,0.4-0.3,0.7-0.7,0.7c0,0,0,0,0,0h-0.6v0.8H125.8z M127.1,14.9
			c0-0.2-0.1-0.3-0.3-0.3c0,0,0,0,0,0h-0.5v0.6h0.5C126.9,15.2,127.1,15.1,127.1,14.9C127.1,14.9,127.1,14.9,127.1,14.9z"/>
		<path class="st10" d="M121.3,17.9c0-0.1,0.1-0.2,0.2-0.2s0.2,0.1,0.2,0.2s-0.1,0.2-0.2,0.2S121.3,18,121.3,17.9z M121.3,19.6v-1.3
			h0.3v1.3H121.3z"/>
		<path class="st10" d="M122.9,19.6v-0.8c0-0.2-0.1-0.3-0.3-0.3c-0.1,0-0.3,0.1-0.3,0.2v0.9H122v-1.3h0.3v0.2
			c0.1-0.1,0.3-0.2,0.5-0.2c0.2,0,0.4,0.1,0.4,0.3c0,0,0,0.1,0,0.1v0.9L122.9,19.6z"/>
		<path class="st10" d="M123.7,19.2v-0.8h-0.2v-0.2h0.2v-0.4h0.3v0.4h0.3v0.2h-0.3v0.7c0,0.1,0,0.2,0.1,0.2c0,0,0.1,0,0.1-0.1
			l0.1,0.2c-0.1,0.1-0.2,0.1-0.3,0.1C123.8,19.6,123.7,19.5,123.7,19.2C123.6,19.3,123.6,19.3,123.7,19.2z"/>
		<path class="st10" d="M124.4,18.9c0-0.4,0.3-0.7,0.7-0.7c0,0,0,0,0,0c0.4,0,0.7,0.3,0.7,0.7c0,0,0,0,0,0.1V19h-1
			c0,0.2,0.2,0.4,0.4,0.4c0.1,0,0.3-0.1,0.4-0.1l0.1,0.2c-0.1,0.1-0.3,0.2-0.5,0.2c-0.4,0-0.7-0.2-0.7-0.6
			C124.4,19,124.4,18.9,124.4,18.9z M125.1,18.4c-0.2,0-0.4,0.1-0.4,0.4h0.8C125.4,18.6,125.3,18.4,125.1,18.4
			C125.1,18.4,125.1,18.4,125.1,18.4z"/>
		<path class="st10" d="M126,19.6v-1.3h0.3v0.2c0.1-0.1,0.3-0.2,0.4-0.2v0.3h-0.1c-0.1,0-0.3,0.1-0.3,0.2v0.9H126z"/>
		<path class="st10" d="M127.9,19.6v-0.8c0-0.2-0.1-0.3-0.3-0.3c-0.1,0-0.3,0.1-0.3,0.2v0.9H127v-1.3h0.3v0.2
			c0.1-0.1,0.3-0.2,0.5-0.2c0.2,0,0.4,0.1,0.4,0.3c0,0,0,0.1,0,0.1v0.9L127.9,19.6z"/>
		<path class="st10" d="M128.4,18.9c0-0.4,0.3-0.7,0.7-0.7c0,0,0,0,0,0c0.4,0,0.7,0.3,0.7,0.7c0,0,0,0,0,0.1V19h-1
			c0,0.2,0.2,0.4,0.4,0.4c0.1,0,0.3-0.1,0.4-0.1l0.1,0.2c-0.1,0.1-0.3,0.2-0.5,0.2c-0.4,0-0.7-0.2-0.7-0.6
			C128.4,19,128.4,18.9,128.4,18.9z M129.1,18.4c-0.2,0-0.4,0.1-0.4,0.4h0.8C129.5,18.6,129.3,18.4,129.1,18.4
			C129.1,18.4,129.1,18.4,129.1,18.4z"/>
		<path class="st10" d="M130.1,19.2v-0.8h-0.2v-0.2h0.2v-0.4h0.3v0.4h0.3v0.2h-0.3v0.7c0,0.1,0,0.2,0.1,0.2c0,0,0.1,0,0.1-0.1
			l0.1,0.2c-0.1,0.1-0.2,0.1-0.3,0.1C130.3,19.6,130.1,19.5,130.1,19.2C130.1,19.3,130.1,19.3,130.1,19.2z"/>
		<path class="st10" d="M121.3,22.5v0.7H121v-1.8h0.3v0.2c0.1-0.1,0.3-0.2,0.4-0.2c0.3,0,0.6,0.3,0.6,0.7s-0.2,0.7-0.6,0.7
			C121.6,22.7,121.4,22.6,121.3,22.5z M122.1,22c0-0.2-0.1-0.4-0.3-0.4c0,0,0,0,0,0c-0.1,0-0.3,0.1-0.3,0.2v0.5
			c0.1,0.1,0.2,0.2,0.3,0.2C121.9,22.4,122.1,22.2,122.1,22L122.1,22z"/>
		<path class="st10" d="M122.7,22.7v-1.3h0.3v0.2c0.1-0.1,0.3-0.2,0.4-0.2v0.3h-0.1c-0.1,0-0.3,0.1-0.3,0.2v0.9H122.7z"/>
		<path class="st10" d="M123.5,22c0-0.4,0.3-0.7,0.7-0.7c0.4,0,0.7,0.3,0.7,0.7c0,0.4-0.3,0.7-0.7,0.7
			C123.8,22.7,123.5,22.4,123.5,22C123.5,22,123.5,22,123.5,22z M124.6,22c0-0.2-0.2-0.4-0.4-0.3c-0.2,0-0.4,0.2-0.3,0.4
			c0,0.2,0.2,0.3,0.4,0.3C124.4,22.5,124.6,22.3,124.6,22C124.6,22,124.6,22,124.6,22z"/>
		<path class="st10" d="M125.2,22.3v-0.8H125v-0.2h0.2V21h0.3v0.4h0.3v0.2h-0.3v0.7c0,0.1,0,0.2,0.1,0.2c0,0,0.1,0,0.1,0l0.1,0.2
			c-0.1,0.1-0.2,0.1-0.3,0.1c-0.2,0-0.3-0.1-0.3-0.3C125.2,22.4,125.2,22.4,125.2,22.3z"/>
		<path class="st10" d="M126,22c0-0.4,0.3-0.7,0.7-0.7c0.4,0,0.7,0.3,0.7,0.7c0,0.4-0.3,0.7-0.7,0.7C126.3,22.7,126,22.4,126,22
			C126,22,126,22,126,22z M127.1,22c0-0.2-0.2-0.4-0.4-0.3c-0.2,0-0.4,0.2-0.3,0.4c0,0.2,0.2,0.3,0.4,0.3
			C126.9,22.5,127.1,22.3,127.1,22C127.1,22,127.1,22,127.1,22L127.1,22z"/>
		<path class="st10" d="M127.6,22c0-0.4,0.3-0.7,0.6-0.7c0,0,0,0,0.1,0c0.2,0,0.4,0.1,0.5,0.2l-0.2,0.2c-0.1-0.1-0.2-0.2-0.3-0.2
			c-0.2,0-0.4,0.2-0.4,0.4c0,0,0,0,0,0c0,0.2,0.1,0.4,0.4,0.4c0,0,0,0,0,0c0.1,0,0.2-0.1,0.3-0.2l0.2,0.2c-0.1,0.2-0.3,0.2-0.5,0.2
			C127.9,22.7,127.6,22.5,127.6,22C127.6,22.1,127.6,22,127.6,22z"/>
		<path class="st10" d="M128.9,22c0-0.4,0.3-0.7,0.7-0.7c0.4,0,0.7,0.3,0.7,0.7c0,0.4-0.3,0.7-0.7,0.7
			C129.2,22.7,128.9,22.4,128.9,22C128.9,22,128.9,22,128.9,22z M130,22c0-0.2-0.1-0.4-0.4-0.4c0,0,0,0,0,0c-0.2,0-0.4,0.3-0.4,0.5
			c0,0.2,0.2,0.3,0.4,0.4C129.8,22.5,130,22.3,130,22C130,22,130,22,130,22z"/>
		<path class="st10" d="M130.6,22.7v-1.8h0.3v1.8H130.6z"/>
		<path class="st10" d="M156.4,16.4v-2.3h1.6v0.4h-1.1v0.5h1.1v0.4h-1.1v1L156.4,16.4z"/>
		<path class="st10" d="M159.2,16.4v-1.9h-0.7v-0.4h1.8v0.4h-0.7v1.9H159.2z"/>
		<path class="st10" d="M161,16.4v-2.3h1.1c0.4,0,0.7,0.3,0.7,0.7c0,0.4-0.3,0.7-0.7,0.7c0,0,0,0,0,0h-0.6v0.8H161z M162.4,14.9
			c0-0.2-0.1-0.3-0.3-0.3c0,0,0,0,0,0h-0.5v0.6h0.5C162.2,15.2,162.3,15.1,162.4,14.9C162.4,14.9,162.4,14.9,162.4,14.9L162.4,14.9z
			"/>
		<path class="st10" d="M152.8,19.6v-1.1h-0.2v-0.2h0.2v-0.1c0-0.2,0.1-0.4,0.4-0.5c0,0,0,0,0.1,0c0.1,0,0.2,0,0.2,0.1l-0.1,0.2
			c0,0-0.1,0-0.1,0c-0.1,0-0.2,0.1-0.2,0.2v0.1h0.3v0.2h-0.3v1.1L152.8,19.6z M153.6,17.9c0-0.1,0.1-0.2,0.2-0.2
			c0.1,0,0.2,0.1,0.2,0.2c0,0.1-0.1,0.2-0.2,0.2C153.6,18,153.6,18,153.6,17.9L153.6,17.9z M153.6,19.6v-1.3h0.3v1.3H153.6z"/>
		<path class="st10" d="M154.3,19.6v-1.8h0.3v1.8H154.3z"/>
		<path class="st10" d="M154.8,18.9c0-0.4,0.3-0.7,0.7-0.7c0,0,0,0,0,0c0.4,0,0.7,0.3,0.7,0.7c0,0,0,0,0,0.1V19h-1
			c0,0.2,0.2,0.4,0.4,0.4c0.1,0,0.3-0.1,0.4-0.1l0.1,0.2c-0.1,0.1-0.3,0.2-0.5,0.2c-0.4,0-0.7-0.2-0.7-0.6
			C154.8,19,154.8,18.9,154.8,18.9z M155.5,18.4c-0.2,0-0.4,0.1-0.4,0.4h0.8C155.9,18.6,155.7,18.4,155.5,18.4L155.5,18.4z"/>
		<path class="st10" d="M157.2,19.2v-0.8H157v-0.2h0.2v-0.4h0.3v0.4h0.3v0.2h-0.3v0.7c0,0.1,0,0.2,0.1,0.2c0,0,0.1,0,0.1-0.1
			l0.1,0.2c-0.1,0.1-0.2,0.1-0.3,0.1C157.4,19.6,157.2,19.5,157.2,19.2C157.2,19.3,157.2,19.3,157.2,19.2z"/>
		<path class="st10" d="M158.1,19.6v-1.3h0.3v0.2c0.1-0.1,0.3-0.2,0.4-0.2v0.3h-0.1c-0.1,0-0.3,0.1-0.3,0.2v0.9H158.1z"/>
		<path class="st10" d="M159.8,19.6v-0.1c-0.1,0.1-0.3,0.2-0.4,0.2c-0.2,0-0.5-0.2-0.5-0.4c0,0,0,0,0,0c0-0.2,0.2-0.4,0.4-0.4
			c0,0,0,0,0,0c0.2,0,0.3,0.1,0.4,0.2v-0.2c0-0.1-0.1-0.2-0.3-0.2c-0.2,0-0.3,0.1-0.4,0.2l-0.1-0.2c0.2-0.1,0.4-0.2,0.6-0.2
			c0.3,0,0.6,0.1,0.6,0.5v0.9L159.8,19.6z M159.8,19.2V19c-0.1-0.1-0.2-0.1-0.3-0.1c-0.1,0-0.3,0.1-0.3,0.2c0,0,0,0,0,0
			c0,0.1,0.1,0.2,0.3,0.2C159.6,19.4,159.7,19.3,159.8,19.2z"/>
		<path class="st10" d="M161.4,19.6v-0.8c0-0.2-0.1-0.3-0.3-0.3c-0.1,0-0.3,0.1-0.3,0.2v0.9h-0.3v-1.3h0.3v0.2
			c0.1-0.1,0.3-0.2,0.5-0.2c0.2,0,0.4,0.1,0.4,0.3c0,0,0,0.1,0,0.1v0.9L161.4,19.6z"/>
		<path class="st10" d="M161.9,19.4l0.1-0.2c0.1,0.1,0.3,0.2,0.4,0.2c0.2,0,0.3-0.1,0.3-0.2c0-0.3-0.8-0.1-0.8-0.6
			c0-0.2,0.2-0.4,0.5-0.4c0.2,0,0.4,0.1,0.5,0.2l-0.1,0.2c-0.1-0.1-0.2-0.2-0.4-0.2c-0.2,0-0.2,0.1-0.2,0.2s0.8,0.1,0.8,0.6
			c0,0.2-0.2,0.4-0.6,0.4C162.3,19.6,162.1,19.5,161.9,19.4z"/>
		<path class="st10" d="M163.4,19.6v-1.1h-0.2v-0.2h0.2v-0.1c0-0.2,0.1-0.4,0.4-0.5c0,0,0,0,0.1,0c0.1,0,0.2,0,0.3,0.1L164,18
			c0,0-0.1-0.1-0.1-0.1c-0.1,0-0.2,0.1-0.2,0.2v0.1h0.3v0.2h-0.3v1.1L163.4,19.6z"/>
		<path class="st10" d="M164.1,18.9c0-0.4,0.3-0.7,0.7-0.7c0,0,0,0,0,0c0.4,0,0.7,0.3,0.7,0.7c0,0,0,0,0,0.1V19h-1
			c0,0.2,0.2,0.4,0.4,0.4c0.1,0,0.3-0.1,0.4-0.1l0.1,0.2c-0.1,0.1-0.3,0.2-0.5,0.2c-0.4,0-0.7-0.2-0.7-0.6
			C164.1,19,164.1,18.9,164.1,18.9z M164.8,18.4c-0.2,0-0.4,0.1-0.4,0.4h0.8C165.2,18.6,165,18.4,164.8,18.4
			C164.8,18.4,164.8,18.4,164.8,18.4z"/>
		<path class="st10" d="M165.7,19.6v-1.3h0.3v0.2c0.1-0.1,0.3-0.2,0.4-0.2v0.3h-0.1c-0.1,0-0.3,0.1-0.3,0.2v0.9H165.7z"/>
		<path class="st10" d="M154.9,22.5v0.7h-0.3v-1.8h0.3v0.2c0.1-0.1,0.3-0.2,0.4-0.2c0.3,0,0.6,0.3,0.6,0.7s-0.2,0.7-0.6,0.7
			C155.2,22.7,155,22.6,154.9,22.5z M155.6,22c0-0.2-0.1-0.4-0.4-0.4c0,0,0,0,0,0c-0.1,0-0.3,0.1-0.3,0.2v0.5
			c0.1,0.1,0.2,0.2,0.3,0.2C155.5,22.4,155.6,22.2,155.6,22L155.6,22z"/>
		<path class="st10" d="M156.2,22.7v-1.3h0.3v0.2c0.1-0.1,0.3-0.2,0.4-0.2v0.3h-0.1c-0.1,0-0.3,0.1-0.3,0.2v0.9H156.2z"/>
		<path class="st10" d="M157.1,22c0-0.4,0.3-0.7,0.7-0.7s0.7,0.3,0.7,0.7s-0.3,0.7-0.7,0.7S157.1,22.4,157.1,22L157.1,22z M158.2,22
			c0-0.2-0.2-0.4-0.4-0.3c-0.2,0-0.4,0.2-0.3,0.4c0,0.2,0.2,0.3,0.4,0.3C158,22.5,158.2,22.3,158.2,22C158.2,22,158.2,22,158.2,22z"
			/>
		<path class="st10" d="M158.8,22.3v-0.8h-0.2v-0.2h0.2V21h0.3v0.4h0.3v0.2h-0.3v0.7c0,0.1,0,0.2,0.1,0.2c0,0,0.1,0,0.1,0l0.1,0.2
			c-0.1,0.1-0.2,0.1-0.3,0.1c-0.2,0-0.3-0.1-0.4-0.3C158.8,22.4,158.8,22.4,158.8,22.3z"/>
		<path class="st10" d="M159.5,22c0-0.4,0.2-0.7,0.6-0.8s0.7,0.2,0.8,0.6c0,0.1,0,0.1,0,0.2c0,0.4-0.2,0.7-0.6,0.8s-0.7-0.2-0.8-0.6
			C159.5,22.1,159.5,22.1,159.5,22z M160.6,22c0-0.2-0.1-0.4-0.3-0.4c-0.2,0-0.4,0.1-0.4,0.3c0,0,0,0.1,0,0.1c0,0.2,0.1,0.4,0.3,0.4
			c0.2,0,0.4-0.1,0.4-0.3C160.6,22.1,160.6,22.1,160.6,22z"/>
		<path class="st10" d="M161.1,22c0-0.4,0.3-0.7,0.6-0.7c0,0,0,0,0.1,0c0.2,0,0.4,0.1,0.5,0.2l-0.2,0.2c-0.1-0.1-0.2-0.2-0.3-0.2
			c-0.2,0-0.4,0.2-0.4,0.4c0,0,0,0,0,0c0,0.2,0.1,0.4,0.4,0.4c0,0,0,0,0,0c0.1,0,0.2-0.1,0.3-0.2l0.2,0.2c-0.1,0.2-0.3,0.2-0.5,0.2
			C161.4,22.7,161.1,22.5,161.1,22C161.1,22.1,161.1,22,161.1,22z"/>
		<path class="st10" d="M162.5,22c0-0.4,0.3-0.7,0.7-0.7c0.4,0,0.7,0.3,0.7,0.7c0,0.4-0.3,0.7-0.7,0.7
			C162.8,22.7,162.5,22.4,162.5,22C162.5,22,162.5,22,162.5,22z M163.6,22c0-0.2-0.2-0.4-0.4-0.3c-0.2,0-0.4,0.2-0.3,0.4
			c0,0.2,0.2,0.3,0.4,0.3C163.4,22.5,163.6,22.3,163.6,22C163.6,22,163.6,22,163.6,22L163.6,22z"/>
		<path class="st10" d="M164.1,22.7v-1.8h0.3v1.8H164.1z"/>
		<path class="st10" d="M86.9,51.2l0.3-0.4c0.2,0.2,0.5,0.3,0.7,0.3c0.3,0,0.4-0.1,0.4-0.3c0-0.4-1.3-0.1-1.3-1
			c0-0.4,0.3-0.7,0.9-0.7c0.3,0,0.6,0.1,0.9,0.3l-0.3,0.4c-0.2-0.2-0.4-0.3-0.7-0.3c-0.2,0-0.3,0.1-0.3,0.2c0,0.4,1.3,0.1,1.3,1
			c0,0.4-0.3,0.7-0.9,0.7C87.5,51.6,87.2,51.4,86.9,51.2z"/>
		<path class="st10" d="M91.5,51.5v-1.6l-0.7,1.6h-0.2L90,49.9v1.6h-0.5v-2.3h0.7l0.6,1.4l0.6-1.4H92v2.3H91.5z"/>
		<path class="st10" d="M93.3,51.5v-1.9h-0.7v-0.4h1.8v0.4h-0.7v1.9H93.3z"/>
		<path class="st10" d="M95.1,51.5v-2.3h1.1c0.4,0,0.7,0.3,0.7,0.7c0,0.4-0.3,0.7-0.7,0.7c0,0,0,0,0,0h-0.6v0.8H95.1z M96.5,49.9
			c0-0.2-0.1-0.3-0.3-0.3c0,0,0,0,0,0h-0.5v0.6h0.5C96.3,50.3,96.4,50.1,96.5,49.9C96.5,50,96.5,50,96.5,49.9z"/>
		<path class="st10" d="M85.1,54.4l0.1-0.2c0.1,0.1,0.3,0.2,0.5,0.2c0.2,0,0.3-0.1,0.3-0.2s-0.8-0.1-0.8-0.6c0-0.2,0.2-0.4,0.5-0.4
			c0.2,0,0.4,0.1,0.5,0.2L86,53.6c-0.1-0.1-0.2-0.2-0.4-0.2c-0.2,0-0.2,0.1-0.2,0.2s0.8,0.1,0.8,0.6c0,0.2-0.2,0.4-0.6,0.4
			C85.4,54.6,85.2,54.6,85.1,54.4z"/>
		<path class="st10" d="M86.4,52.9c0-0.1,0.1-0.2,0.2-0.2s0.2,0.1,0.2,0.2c0,0.1-0.1,0.2-0.2,0.2h0C86.5,53.1,86.5,53,86.4,52.9z
			 M86.4,54.6v-1.3h0.3v1.3H86.4z"/>
		<path class="st10" d="M88.8,54.6v-0.9c0-0.1-0.1-0.2-0.2-0.2c0,0,0,0,0,0c-0.1,0-0.2,0.1-0.3,0.2v0.9H88v-0.9
			c0-0.1-0.1-0.2-0.2-0.2c-0.1,0-0.2,0.1-0.3,0.2v0.9h-0.3v-1.3h0.3v0.2c0.1-0.1,0.3-0.2,0.4-0.2c0.2,0,0.3,0.1,0.4,0.2
			c0.1-0.2,0.3-0.2,0.4-0.2c0.2,0,0.4,0.1,0.4,0.3c0,0,0,0.1,0,0.1v1L88.8,54.6z"/>
		<path class="st10" d="M89.7,54.4v0.7h-0.3v-1.8h0.3v0.2c0.1-0.1,0.3-0.2,0.4-0.2c0.3,0,0.6,0.3,0.6,0.7s-0.2,0.7-0.6,0.7
			C90,54.6,89.8,54.6,89.7,54.4z M90.5,53.9c0-0.2-0.1-0.4-0.4-0.4c0,0,0,0,0,0c-0.1,0-0.3,0.1-0.3,0.2v0.5c0.1,0.1,0.2,0.2,0.3,0.2
			C90.3,54.4,90.5,54.2,90.5,53.9C90.5,54,90.5,53.9,90.5,53.9L90.5,53.9z"/>
		<path class="st10" d="M91,54.6v-1.8h0.3v1.8H91z"/>
		<path class="st10" d="M91.6,53.9c0-0.4,0.3-0.7,0.7-0.7c0,0,0,0,0,0c0.4,0,0.7,0.3,0.7,0.7c0,0,0,0,0,0.1V54h-1
			c0,0.2,0.2,0.4,0.4,0.4c0.1,0,0.3-0.1,0.4-0.1l0.1,0.2c-0.1,0.1-0.3,0.2-0.5,0.2C92,54.7,91.7,54.4,91.6,53.9
			C91.6,54,91.6,54,91.6,53.9z M92.3,53.5c-0.2,0-0.4,0.1-0.4,0.4h0.8C92.7,53.6,92.5,53.5,92.3,53.5C92.3,53.5,92.3,53.5,92.3,53.5
			z"/>
		<path class="st10" d="M95.6,54.6v-0.9c0-0.1-0.1-0.2-0.2-0.2c-0.1,0-0.2,0.1-0.3,0.2v0.9h-0.3v-0.9c0-0.1-0.1-0.2-0.2-0.2
			c-0.1,0-0.2,0.1-0.3,0.2v0.9H94v-1.3h0.3v0.2c0.1-0.1,0.3-0.2,0.4-0.2c0.2,0,0.3,0.1,0.4,0.2c0.1-0.2,0.3-0.2,0.5-0.2
			c0.2,0,0.4,0.1,0.4,0.4v1L95.6,54.6z"/>
		<path class="st10" d="M97.1,54.6v-0.1c-0.1,0.1-0.3,0.2-0.4,0.2c-0.2,0-0.5-0.2-0.5-0.4c0,0,0,0,0,0c0-0.2,0.2-0.4,0.4-0.4
			c0,0,0,0,0,0c0.2,0,0.3,0.1,0.4,0.2v-0.2c0-0.1-0.1-0.2-0.3-0.2c-0.1,0-0.3,0.1-0.4,0.2l-0.1-0.2c0.2-0.1,0.4-0.2,0.6-0.2
			c0.3,0,0.6,0.1,0.6,0.5v0.9L97.1,54.6z M97.1,54.3v-0.2C97,54,96.9,54,96.7,54c-0.1,0-0.3,0.1-0.3,0.2c0,0,0,0,0,0
			c0,0.1,0.1,0.2,0.3,0.2C96.9,54.4,97,54.4,97.1,54.3z"/>
		<path class="st10" d="M97.7,52.9c0-0.1,0.1-0.2,0.2-0.2c0.1,0,0.2,0.1,0.2,0.2c0,0.1-0.1,0.2-0.2,0.2C97.8,53.1,97.7,53,97.7,52.9
			z M97.7,54.6v-1.3H98v1.3H97.7z"/>
		<path class="st10" d="M98.4,54.6v-1.8h0.3v1.8H98.4z"/>
		<path class="st10" d="M82,57.4v-0.8h-0.2v-0.2H82V56h0.3v0.4h0.3v0.2h-0.3v0.7c0,0.1,0,0.2,0.1,0.2c0,0,0.1,0,0.1-0.1l0.1,0.2
			c-0.1,0.1-0.2,0.1-0.3,0.1C82.2,57.8,82,57.7,82,57.4C82,57.5,82,57.4,82,57.4z"/>
		<path class="st10" d="M82.8,57.7v-1.3h0.3v0.2c0.1-0.1,0.3-0.2,0.4-0.2v0.3h-0.1c-0.1,0-0.3,0.1-0.3,0.2v0.9H82.8z"/>
		<path class="st10" d="M84.6,57.7v-0.1c-0.1,0.1-0.3,0.2-0.4,0.2c-0.2,0-0.5-0.2-0.5-0.4c0,0,0,0,0,0c0-0.2,0.2-0.4,0.4-0.4
			c0,0,0,0,0,0c0.2,0,0.3,0.1,0.4,0.2v-0.2c0-0.1-0.1-0.2-0.3-0.2c-0.1,0-0.3,0.1-0.4,0.2l-0.1-0.2c0.2-0.1,0.4-0.2,0.6-0.2
			c0.3,0,0.6,0.1,0.6,0.5v0.9L84.6,57.7z M84.6,57.4v-0.2c-0.1-0.1-0.2-0.1-0.3-0.1c-0.1,0-0.3,0.1-0.3,0.2c0,0,0,0,0,0
			c0,0.1,0.1,0.2,0.3,0.2C84.4,57.5,84.5,57.5,84.6,57.4L84.6,57.4z"/>
		<path class="st10" d="M86.1,57.7v-0.8c0-0.2-0.1-0.3-0.3-0.3c-0.1,0-0.3,0.1-0.3,0.2v0.9h-0.3v-1.3h0.3v0.2
			c0.1-0.1,0.3-0.2,0.5-0.2c0.2,0,0.4,0.1,0.4,0.3c0,0,0,0.1,0,0.1v0.9L86.1,57.7z"/>
		<path class="st10" d="M86.7,57.5l0.1-0.2c0.1,0.1,0.3,0.2,0.4,0.2c0.2,0,0.3-0.1,0.3-0.2c0-0.3-0.8-0.1-0.8-0.6
			c0-0.2,0.2-0.4,0.5-0.4c0.2,0,0.4,0.1,0.5,0.2l-0.1,0.2c-0.1-0.1-0.2-0.2-0.4-0.2c-0.2,0-0.2,0.1-0.2,0.2s0.8,0.1,0.8,0.6
			c0,0.2-0.2,0.4-0.6,0.4C87,57.7,86.8,57.7,86.7,57.5z"/>
		<path class="st10" d="M88.2,57.7v-1.1h-0.2v-0.2h0.2v-0.1c0-0.2,0.2-0.4,0.4-0.5c0.1,0,0.2,0,0.3,0.1l-0.1,0.2
			c0,0-0.1-0.1-0.2-0.1c-0.1,0-0.2,0.1-0.2,0.2v0.1h0.3v0.2h-0.3v1.1L88.2,57.7z"/>
		<path class="st10" d="M88.8,57c0-0.4,0.3-0.7,0.7-0.7c0,0,0,0,0,0c0.4,0,0.7,0.3,0.7,0.7c0,0,0,0,0,0.1v0.1h-1
			c0,0.2,0.2,0.4,0.4,0.4c0.1,0,0.3-0.1,0.4-0.1l0.1,0.2c-0.1,0.1-0.3,0.2-0.5,0.2C89.2,57.8,88.9,57.5,88.8,57
			C88.8,57.1,88.8,57.1,88.8,57z M89.5,56.6c-0.2,0-0.4,0.2-0.4,0.4h0.8C89.9,56.7,89.7,56.6,89.5,56.6
			C89.5,56.6,89.5,56.6,89.5,56.6L89.5,56.6z"/>
		<path class="st10" d="M90.5,57.7v-1.3h0.3v0.2c0.1-0.1,0.3-0.2,0.4-0.2v0.3h-0.1c-0.1,0-0.3,0.1-0.3,0.2v0.9H90.5z"/>
		<path class="st10" d="M92.4,57.5v0.7h-0.3v-1.8h0.3v0.2c0.1-0.1,0.3-0.2,0.4-0.2c0.3,0,0.6,0.3,0.6,0.7s-0.2,0.7-0.6,0.7
			C92.7,57.7,92.5,57.7,92.4,57.5z M93.1,57c0-0.2-0.1-0.4-0.4-0.4c0,0,0,0,0,0c-0.1,0-0.3,0.1-0.3,0.2v0.5c0.1,0.1,0.2,0.2,0.3,0.2
			C93,57.5,93.2,57.3,93.1,57C93.1,57,93.1,57,93.1,57L93.1,57z"/>
		<path class="st10" d="M93.7,57.7v-1.3H94v0.2c0.1-0.1,0.3-0.2,0.4-0.2v0.3h-0.1c-0.1,0-0.3,0.1-0.3,0.2v0.9H93.7z"/>
		<path class="st10" d="M94.6,57c0-0.4,0.3-0.7,0.7-0.7c0.4,0,0.7,0.3,0.7,0.7c0,0.4-0.3,0.7-0.7,0.7C94.9,57.7,94.6,57.4,94.6,57
			C94.6,57,94.6,57,94.6,57z M95.7,57c0-0.2-0.1-0.4-0.4-0.4c0,0,0,0,0,0c-0.2,0-0.4,0.3-0.4,0.5c0,0.2,0.2,0.3,0.4,0.4
			C95.5,57.5,95.7,57.3,95.7,57C95.7,57,95.7,57,95.7,57z"/>
		<path class="st10" d="M96.3,57.4v-0.8h-0.2v-0.2h0.2V56h0.3v0.4h0.3v0.2h-0.3v0.7c0,0.1,0.1,0.2,0.1,0.2c0,0,0.1,0,0.1-0.1
			l0.1,0.2c-0.1,0.1-0.2,0.1-0.3,0.1C96.5,57.8,96.3,57.7,96.3,57.4C96.3,57.5,96.3,57.4,96.3,57.4z"/>
		<path class="st10" d="M97.1,57c0-0.4,0.3-0.7,0.7-0.7c0.4,0,0.7,0.3,0.7,0.7c0,0,0,0,0,0c0,0.4-0.3,0.7-0.7,0.7
			C97.4,57.7,97.1,57.4,97.1,57C97.1,57,97.1,57,97.1,57z M98.1,57c0-0.2-0.1-0.4-0.4-0.4c0,0,0,0,0,0c-0.2,0-0.5,0.1-0.5,0.4
			c0,0.2,0.1,0.5,0.4,0.5S98.1,57.3,98.1,57C98.1,57.1,98.1,57,98.1,57z"/>
		<path class="st10" d="M98.6,57c0-0.4,0.3-0.7,0.7-0.7c0,0,0,0,0,0c0.2,0,0.4,0.1,0.5,0.2l-0.2,0.2c-0.1-0.1-0.2-0.2-0.3-0.2
			c-0.2,0-0.4,0.2-0.4,0.4c0,0,0,0,0,0.1c0,0.2,0.1,0.4,0.4,0.4c0,0,0,0,0,0c0.1,0,0.2-0.1,0.3-0.2l0.2,0.2
			c-0.1,0.2-0.3,0.2-0.5,0.2C99,57.7,98.6,57.4,98.6,57C98.6,57.1,98.6,57,98.6,57z"/>
		<path class="st10" d="M100,57c0-0.4,0.2-0.7,0.6-0.8c0.4,0,0.7,0.2,0.8,0.6c0,0.1,0,0.1,0,0.2c0,0.4-0.2,0.7-0.6,0.8
			c-0.4,0-0.7-0.2-0.8-0.6C100,57.1,100,57.1,100,57z M101.1,57c0-0.2-0.1-0.4-0.3-0.4c-0.2,0-0.4,0.1-0.4,0.3c0,0,0,0.1,0,0.1
			c0,0.2,0.1,0.4,0.3,0.4c0.2,0,0.4-0.1,0.4-0.3C101.1,57.1,101.1,57.1,101.1,57z"/>
		<path class="st10" d="M101.7,57.7v-1.8h0.3v1.8H101.7z"/>
		<path class="st10" d="M122.9,51.5v-1h-1.1v1h-0.5v-2.3h0.5v0.9h1.1v-0.9h0.5v2.3H122.9z"/>
		<path class="st10" d="M124.7,51.5v-1.9h-0.7v-0.4h1.8v0.4h-0.7v1.9H124.7z"/>
		<path class="st10" d="M127.1,51.5v-1.9h-0.7v-0.4h1.8v0.4h-0.7v1.9H127.1z"/>
		<path class="st10" d="M128.9,51.5v-2.3h1.1c0.4,0,0.7,0.3,0.7,0.7c0,0.4-0.3,0.7-0.7,0.7c0,0,0,0,0,0h-0.6v0.8H128.9z M130.2,49.9
			c0-0.2-0.1-0.3-0.3-0.3c0,0,0,0,0,0h-0.5v0.6h0.5C130.1,50.3,130.2,50.1,130.2,49.9C130.2,50,130.3,50,130.2,49.9z"/>
		<path class="st10" d="M119.6,54.6l-0.3-1l-0.3,1h-0.3l-0.4-1.3h0.3l0.3,1l0.3-1h0.3l0.3,1l0.3-1h0.3l-0.4,1.3H119.6z"/>
		<path class="st10" d="M120.4,53.9c0-0.4,0.3-0.7,0.7-0.7c0,0,0,0,0,0c0.4,0,0.7,0.3,0.7,0.7c0,0,0,0,0,0.1V54h-1
			c0,0.2,0.2,0.4,0.4,0.4c0.1,0,0.3-0.1,0.4-0.1l0.1,0.2c-0.1,0.1-0.3,0.2-0.5,0.2C120.8,54.7,120.5,54.4,120.4,53.9
			C120.4,54,120.4,54,120.4,53.9z M121.1,53.5c-0.2,0-0.4,0.1-0.4,0.4h0.8C121.5,53.6,121.3,53.5,121.1,53.5
			C121.1,53.5,121.1,53.5,121.1,53.5z"/>
		<path class="st10" d="M122.1,54.6v-1.8h0.3v0.7c0.1-0.1,0.3-0.2,0.4-0.2c0.4,0.1,0.6,0.4,0.6,0.8c-0.1,0.3-0.3,0.5-0.6,0.6
			c-0.2,0-0.3-0.1-0.4-0.2v0.2L122.1,54.6z M122.7,54.4c0.2,0,0.4-0.3,0.4-0.5c0-0.2-0.2-0.3-0.4-0.4c-0.1,0-0.3,0.1-0.3,0.2v0.5
			C122.4,54.3,122.5,54.4,122.7,54.4z"/>
		<path class="st10" d="M124.4,54.3v-0.8h-0.2v-0.2h0.2v-0.4h0.3v0.4h0.3v0.2h-0.3v0.7c0,0.1,0,0.2,0.1,0.2c0,0,0.1,0,0.1-0.1
			l0.1,0.2c-0.1,0.1-0.2,0.1-0.3,0.1c-0.2,0-0.3-0.1-0.4-0.2C124.4,54.4,124.4,54.3,124.4,54.3z"/>
		<path class="st10" d="M125.2,54.6v-1.3h0.3v0.2c0.1-0.1,0.3-0.2,0.4-0.2v0.3h-0.1c-0.1,0-0.3,0.1-0.3,0.2v0.9H125.2z"/>
		<path class="st10" d="M127,54.6v-0.1c-0.1,0.1-0.3,0.2-0.4,0.2c-0.2,0-0.4-0.2-0.5-0.4c0,0,0,0,0,0c0-0.2,0.2-0.4,0.4-0.4
			c0,0,0,0,0,0c0.2,0,0.3,0.1,0.4,0.2v-0.2c0-0.1-0.1-0.2-0.3-0.2c-0.1,0-0.3,0.1-0.4,0.2l-0.1-0.2c0.1-0.1,0.4-0.2,0.6-0.2
			c0.3,0,0.6,0.1,0.6,0.5v0.9L127,54.6z M127,54.3v-0.2c-0.1-0.1-0.2-0.1-0.3-0.1c-0.1,0-0.3,0.1-0.3,0.2c0,0,0,0,0,0
			c0,0.1,0.1,0.2,0.3,0.2C126.8,54.4,126.9,54.4,127,54.3z"/>
		<path class="st10" d="M128.6,54.6v-0.8c0-0.2-0.1-0.3-0.3-0.3c-0.1,0-0.3,0.1-0.3,0.2v0.9h-0.3v-1.3h0.3v0.2
			c0.1-0.1,0.3-0.2,0.5-0.2c0.2,0,0.4,0.1,0.4,0.3c0,0,0,0.1,0,0.1v0.9L128.6,54.6z"/>
		<path class="st10" d="M129.1,54.4l0.1-0.2c0.1,0.1,0.3,0.2,0.4,0.2c0.2,0,0.3-0.1,0.3-0.2s-0.8-0.1-0.8-0.6c0-0.2,0.2-0.4,0.5-0.4
			c0.2,0,0.4,0.1,0.5,0.2l-0.1,0.2c-0.1-0.1-0.2-0.2-0.4-0.2c-0.1,0-0.2,0.1-0.2,0.2s0.8,0.1,0.8,0.6c0,0.2-0.2,0.4-0.6,0.4
			C129.5,54.6,129.3,54.6,129.1,54.4z"/>
		<path class="st10" d="M130.6,54.6v-1.1h-0.2v-0.2h0.2v-0.1c0-0.2,0.2-0.4,0.4-0.5c0.1,0,0.2,0,0.3,0.1l-0.1,0.2
			c0,0-0.1-0.1-0.2-0.1c-0.1,0-0.2,0.1-0.2,0.2v0.1h0.3v0.2h-0.3v1.1H130.6z"/>
		<path class="st10" d="M131.3,53.9c0-0.4,0.3-0.7,0.7-0.7c0,0,0,0,0,0c0.4,0,0.7,0.3,0.7,0.7c0,0,0,0,0,0.1V54h-1
			c0,0.2,0.2,0.4,0.4,0.4c0,0,0,0,0,0c0.1,0,0.3-0.1,0.4-0.1l0.1,0.2c-0.1,0.1-0.3,0.2-0.5,0.2C131.7,54.7,131.3,54.4,131.3,53.9
			C131.3,54,131.3,54,131.3,53.9z M132,53.5c-0.2,0-0.4,0.2-0.4,0.3c0,0,0,0,0,0h0.8C132.3,53.6,132.2,53.5,132,53.5L132,53.5z"/>
		<path class="st10" d="M132.9,54.6v-1.3h0.3v0.2c0.1-0.1,0.3-0.2,0.4-0.2v0.3h-0.1c-0.1,0-0.3,0.1-0.4,0.2v0.9H132.9z"/>
		<path class="st10" d="M121.3,57.5v0.7H121v-1.8h0.3v0.2c0.1-0.1,0.3-0.2,0.4-0.2c0.3,0,0.6,0.3,0.6,0.7s-0.2,0.7-0.6,0.7
			C121.6,57.7,121.4,57.7,121.3,57.5z M122.1,57c0-0.2-0.1-0.4-0.3-0.4c0,0,0,0,0,0c-0.1,0-0.3,0.1-0.3,0.2v0.5
			c0.1,0.1,0.2,0.2,0.3,0.2C121.9,57.5,122.1,57.3,122.1,57L122.1,57z"/>
		<path class="st10" d="M122.7,57.7v-1.3h0.3v0.2c0.1-0.1,0.3-0.2,0.4-0.2v0.3h-0.1c-0.1,0-0.3,0.1-0.3,0.2v0.9H122.7z"/>
		<path class="st10" d="M123.5,57c0-0.4,0.3-0.7,0.7-0.7c0.4,0,0.7,0.3,0.7,0.7c0,0.4-0.3,0.7-0.7,0.7
			C123.8,57.7,123.5,57.4,123.5,57C123.5,57,123.5,57,123.5,57z M124.6,57c0-0.2-0.2-0.4-0.4-0.3c-0.2,0-0.4,0.2-0.3,0.4
			c0,0.2,0.2,0.3,0.4,0.3C124.4,57.5,124.6,57.3,124.6,57C124.6,57,124.6,57,124.6,57z"/>
		<path class="st10" d="M125.2,57.4v-0.8H125v-0.2h0.2V56h0.3v0.4h0.3v0.2h-0.3v0.7c0,0.1,0,0.2,0.1,0.2c0,0,0.1,0,0.1-0.1l0.1,0.2
			c-0.1,0.1-0.2,0.1-0.3,0.1C125.4,57.8,125.2,57.6,125.2,57.4C125.2,57.4,125.2,57.4,125.2,57.4z"/>
		<path class="st10" d="M126,57c0-0.4,0.3-0.7,0.7-0.7c0.4,0,0.7,0.3,0.7,0.7c0,0.4-0.3,0.7-0.7,0.7C126.3,57.7,126,57.4,126,57
			C126,57,126,57,126,57z M127.1,57c0-0.2-0.2-0.4-0.4-0.3c-0.2,0-0.4,0.2-0.3,0.4c0,0.2,0.2,0.3,0.4,0.3
			C126.9,57.5,127.1,57.3,127.1,57C127.1,57,127.1,57,127.1,57L127.1,57z"/>
		<path class="st10" d="M127.6,57c0-0.4,0.3-0.7,0.6-0.7c0,0,0,0,0.1,0c0.2,0,0.4,0.1,0.5,0.2l-0.2,0.2c-0.1-0.1-0.2-0.2-0.3-0.2
			c-0.2,0-0.4,0.2-0.4,0.4c0,0,0,0,0,0c0,0.2,0.1,0.4,0.4,0.4c0,0,0,0,0,0c0.1,0,0.2-0.1,0.3-0.2l0.2,0.2c-0.1,0.2-0.3,0.2-0.5,0.2
			C127.9,57.7,127.6,57.5,127.6,57C127.6,57.1,127.6,57,127.6,57z"/>
		<path class="st10" d="M128.9,57c0-0.4,0.3-0.7,0.7-0.7c0.4,0,0.7,0.3,0.7,0.7c0,0.4-0.3,0.7-0.7,0.7
			C129.2,57.7,128.9,57.4,128.9,57C128.9,57,128.9,57,128.9,57z M130,57c0-0.2-0.1-0.4-0.4-0.4c0,0,0,0,0,0c-0.2,0-0.4,0.3-0.4,0.5
			c0,0.2,0.2,0.3,0.4,0.4C129.8,57.5,130,57.3,130,57C130,57,130,57,130,57z"/>
		<path class="st10" d="M130.6,57.7v-1.8h0.3v1.8H130.6z"/>
		<path class="st10" d="M155.9,51.5l-0.9-2.3h0.6l0.6,1.8l0.6-1.8h0.6l-0.9,2.3H155.9z"/>
		<path class="st10" d="M157.8,50.4c0-0.7,0.5-1.2,1.2-1.2c0.7,0,1.2,0.5,1.2,1.2c0,0.7-0.5,1.2-1.2,1.2c0,0,0,0,0,0
			C158.3,51.6,157.8,51.1,157.8,50.4C157.7,50.4,157.7,50.4,157.8,50.4z M159.6,50.4c0-0.4-0.4-0.7-0.8-0.6c-0.4,0-0.7,0.4-0.6,0.8
			c0,0.4,0.3,0.6,0.7,0.6C159.3,51.1,159.7,50.8,159.6,50.4C159.7,50.4,159.7,50.4,159.6,50.4z"/>
		<path class="st10" d="M160.8,51.5v-2.3h0.5v2.3H160.8z"/>
		<path class="st10" d="M162.1,51.5v-2.3h1.1c0.4,0,0.7,0.3,0.7,0.7c0,0.4-0.3,0.7-0.7,0.7c0,0,0,0,0,0h-0.6v0.8H162.1z M163.5,49.9
			c0-0.2-0.1-0.3-0.3-0.3c0,0,0,0,0,0h-0.5v0.6h0.5C163.3,50.3,163.5,50.1,163.5,49.9C163.5,50,163.5,50,163.5,49.9L163.5,49.9z"/>
		<path class="st10" d="M153.7,54.6l-0.6-1.3h0.3l0.4,1l0.4-1h0.3l-0.5,1.3H153.7z"/>
		<path class="st10" d="M154.7,53.9c0-0.4,0.2-0.7,0.6-0.8s0.7,0.2,0.8,0.6c0,0.1,0,0.1,0,0.2c0,0.4-0.2,0.7-0.6,0.8
			s-0.7-0.2-0.8-0.6C154.7,54,154.7,54,154.7,53.9z M155.7,53.9c0-0.2-0.1-0.4-0.3-0.4c-0.2,0-0.4,0.1-0.4,0.3c0,0,0,0.1,0,0.1
			c0,0.2,0.1,0.4,0.3,0.4c0.2,0,0.4-0.1,0.4-0.3C155.7,54,155.7,54,155.7,53.9z"/>
		<path class="st10" d="M156.3,52.9c0-0.1,0.1-0.2,0.2-0.2s0.2,0.1,0.2,0.2s-0.1,0.2-0.2,0.2h0C156.4,53.1,156.3,53,156.3,52.9z
			 M156.3,54.6v-1.3h0.3v1.3H156.3z"/>
		<path class="st10" d="M156.9,53.9c0-0.4,0.3-0.7,0.7-0.7c0,0,0,0,0,0c0.2,0,0.4,0.1,0.5,0.2l-0.2,0.2c-0.1-0.1-0.2-0.2-0.3-0.2
			c-0.2,0-0.4,0.2-0.4,0.4c0,0,0,0,0,0c0,0.2,0.2,0.4,0.4,0.4c0,0,0,0,0,0c0.1,0,0.2-0.1,0.3-0.2l0.2,0.2c-0.1,0.2-0.3,0.2-0.5,0.2
			C157.2,54.6,156.9,54.4,156.9,53.9C156.9,54,156.9,53.9,156.9,53.9z"/>
		<path class="st10" d="M158.3,53.9c0-0.4,0.3-0.7,0.7-0.7c0,0,0,0,0,0c0.4,0,0.7,0.3,0.7,0.7c0,0,0,0,0,0.1V54h-1
			c0,0.2,0.2,0.4,0.4,0.4c0.1,0,0.3-0.1,0.4-0.1l0.1,0.2c-0.1,0.1-0.3,0.2-0.5,0.2C158.6,54.7,158.3,54.4,158.3,53.9
			C158.3,54,158.3,54,158.3,53.9z M159,53.5c-0.2,0-0.4,0.1-0.4,0.4h0.8C159.3,53.6,159.2,53.5,159,53.5L159,53.5z"/>
		<path class="st10" d="M160.5,53.9c0-0.4,0.3-0.7,0.7-0.7c0.4,0,0.7,0.3,0.7,0.7c0,0.4-0.3,0.7-0.7,0.7
			C160.8,54.6,160.5,54.3,160.5,53.9C160.5,54,160.5,53.9,160.5,53.9z M161.6,53.9c0-0.2-0.2-0.4-0.4-0.3c-0.2,0-0.4,0.2-0.3,0.4
			c0,0.2,0.2,0.3,0.4,0.3C161.4,54.4,161.6,54.2,161.6,53.9C161.6,54,161.6,53.9,161.6,53.9z"/>
		<path class="st10" d="M162.5,54.6l-0.6-1.3h0.3l0.4,1l0.4-1h0.3l-0.5,1.3H162.5z"/>
		<path class="st10" d="M163.5,53.9c0-0.4,0.3-0.7,0.7-0.7c0,0,0,0,0,0c0.4,0,0.7,0.3,0.7,0.7c0,0,0,0,0,0.1V54h-1
			c0,0.2,0.2,0.4,0.4,0.4c0.1,0,0.3-0.1,0.4-0.1l0.1,0.2c-0.1,0.1-0.3,0.2-0.5,0.2C163.9,54.7,163.5,54.4,163.5,53.9
			C163.5,54,163.5,54,163.5,53.9z M164.2,53.5c-0.2,0-0.4,0.1-0.4,0.4h0.8C164.5,53.6,164.4,53.5,164.2,53.5
			C164.2,53.5,164.2,53.5,164.2,53.5z"/>
		<path class="st10" d="M165.1,54.6v-1.3h0.3v0.2c0.1-0.1,0.3-0.2,0.4-0.2v0.3h-0.1c-0.1,0-0.3,0.1-0.3,0.2v0.9H165.1z"/>
		<path class="st10" d="M149.4,56c0-0.1,0.1-0.2,0.2-0.2s0.2,0.1,0.2,0.2s-0.1,0.2-0.2,0.2h0C149.5,56.2,149.4,56.1,149.4,56z
			 M149.4,57.7v-1.3h0.3v1.3H149.4z"/>
		<path class="st10" d="M151,57.7v-0.8c0-0.2-0.1-0.3-0.3-0.3c-0.1,0-0.3,0.1-0.3,0.2v0.9h-0.3v-1.3h0.3v0.2
			c0.1-0.1,0.3-0.2,0.5-0.2c0.2,0,0.4,0.1,0.4,0.3c0,0,0,0.1,0,0.1v0.9L151,57.7z"/>
		<path class="st10" d="M151.8,57.4v-0.8h-0.2v-0.2h0.2V56h0.3v0.4h0.3v0.2H152v0.7c0,0.1,0,0.2,0.1,0.2c0,0,0.1,0,0.1-0.1l0.1,0.2
			c-0.1,0.1-0.2,0.1-0.3,0.1C151.9,57.8,151.8,57.6,151.8,57.4C151.8,57.4,151.8,57.4,151.8,57.4z"/>
		<path class="st10" d="M152.5,57c0-0.4,0.3-0.7,0.7-0.7c0,0,0,0,0,0c0.4,0,0.7,0.3,0.7,0.7c0,0,0,0,0,0.1v0.1h-1
			c0,0.2,0.2,0.4,0.4,0.4c0.1,0,0.3-0.1,0.4-0.1l0.1,0.2c-0.1,0.1-0.3,0.2-0.5,0.2C152.9,57.8,152.5,57.5,152.5,57
			C152.5,57.1,152.5,57.1,152.5,57z M153.2,56.6c-0.2,0-0.4,0.1-0.4,0.4h0.8C153.5,56.7,153.4,56.6,153.2,56.6
			C153.2,56.6,153.2,56.6,153.2,56.6L153.2,56.6z"/>
		<path class="st10" d="M154.1,57.7v-1.3h0.3v0.2c0.1-0.1,0.3-0.2,0.4-0.2v0.3h-0.1c-0.1,0-0.3,0.1-0.3,0.2v0.9H154.1z"/>
		<path class="st10" d="M156,57.7v-0.8c0-0.2-0.1-0.3-0.3-0.3c-0.1,0-0.3,0.1-0.4,0.2v0.9h-0.3v-1.3h0.3v0.2
			c0.1-0.1,0.3-0.2,0.5-0.2c0.2,0,0.4,0.1,0.4,0.3c0,0,0,0.1,0,0.1v0.9L156,57.7z"/>
		<path class="st10" d="M156.6,57c0-0.4,0.3-0.7,0.7-0.7c0,0,0,0,0,0c0.4,0,0.7,0.3,0.7,0.7c0,0,0,0,0,0.1v0.1h-1
			c0,0.2,0.2,0.4,0.4,0.4c0.1,0,0.3-0.1,0.4-0.1l0.1,0.2c-0.1,0.1-0.3,0.2-0.5,0.2C156.9,57.8,156.6,57.5,156.6,57
			C156.5,57.1,156.5,57.1,156.6,57z M157.2,56.6c-0.2,0-0.4,0.1-0.4,0.4h0.8C157.6,56.7,157.4,56.6,157.2,56.6L157.2,56.6z"/>
		<path class="st10" d="M158.2,57.4v-0.8H158v-0.2h0.2V56h0.3v0.4h0.3v0.2h-0.3v0.7c0,0.1,0,0.2,0.1,0.2c0,0,0.1,0,0.1-0.1l0.1,0.2
			c-0.1,0.1-0.2,0.1-0.3,0.1C158.4,57.8,158.2,57.6,158.2,57.4C158.2,57.4,158.2,57.4,158.2,57.4z"/>
		<path class="st10" d="M160.1,57.5v0.7h-0.3v-1.8h0.3v0.2c0.1-0.1,0.3-0.2,0.4-0.2c0.3,0,0.6,0.3,0.6,0.7s-0.2,0.7-0.6,0.7
			C160.3,57.7,160.2,57.7,160.1,57.5z M160.8,57c0-0.2-0.1-0.4-0.4-0.4c0,0,0,0,0,0c-0.1,0-0.3,0.1-0.3,0.2v0.5
			c0.1,0.1,0.2,0.2,0.3,0.2C160.6,57.5,160.8,57.3,160.8,57C160.8,57,160.8,57,160.8,57L160.8,57z"/>
		<path class="st10" d="M161.4,57.7v-1.3h0.3v0.2c0.1-0.1,0.3-0.2,0.4-0.2v0.3H162c-0.1,0-0.3,0.1-0.3,0.2v0.9H161.4z"/>
		<path class="st10" d="M162.2,57c0-0.4,0.3-0.7,0.7-0.7s0.7,0.3,0.7,0.7s-0.3,0.7-0.7,0.7S162.2,57.4,162.2,57z M163.3,57
			c0-0.2-0.2-0.4-0.4-0.3c-0.2,0-0.4,0.2-0.3,0.4c0,0.2,0.2,0.3,0.4,0.3C163.1,57.5,163.3,57.3,163.3,57C163.3,57,163.3,57,163.3,57
			z"/>
		<path class="st10" d="M163.9,57.4v-0.8h-0.2v-0.2h0.2V56h0.3v0.4h0.3v0.2h-0.3v0.7c0,0.1,0.1,0.2,0.1,0.2c0,0,0.1,0,0.1-0.1
			l0.1,0.2c-0.1,0.1-0.2,0.1-0.3,0.1C164.1,57.8,164,57.7,163.9,57.4C163.9,57.5,163.9,57.4,163.9,57.4z"/>
		<path class="st10" d="M164.7,57c0-0.4,0.2-0.7,0.6-0.8s0.7,0.2,0.8,0.6c0,0.1,0,0.1,0,0.2c0,0.4-0.2,0.7-0.6,0.8s-0.7-0.2-0.8-0.6
			C164.7,57.1,164.7,57.1,164.7,57z M165.8,57c0-0.2-0.1-0.4-0.3-0.4c-0.2,0-0.4,0.1-0.4,0.3c0,0,0,0.1,0,0.1c0,0.2,0.1,0.4,0.3,0.4
			c0.2,0,0.4-0.1,0.4-0.3C165.8,57.1,165.8,57.1,165.8,57z"/>
		<path class="st10" d="M166.3,57c0-0.4,0.3-0.7,0.6-0.7c0,0,0,0,0.1,0c0.2,0,0.4,0.1,0.5,0.2l-0.2,0.2c-0.1-0.1-0.2-0.2-0.3-0.2
			c-0.2,0-0.4,0.2-0.4,0.4c0,0,0,0,0,0c0,0.2,0.1,0.4,0.4,0.4c0,0,0,0,0,0c0.1,0,0.2-0.1,0.3-0.2l0.2,0.2c-0.1,0.2-0.3,0.2-0.5,0.2
			C166.6,57.7,166.3,57.5,166.3,57C166.3,57.1,166.3,57,166.3,57z"/>
		<path class="st10" d="M167.6,57c0-0.4,0.3-0.7,0.7-0.7c0.4,0,0.7,0.3,0.7,0.7c0,0.4-0.3,0.7-0.7,0.7
			C167.9,57.7,167.6,57.4,167.6,57C167.6,57,167.6,57,167.6,57z M168.7,57c0-0.2-0.2-0.4-0.4-0.3c-0.2,0-0.4,0.2-0.3,0.4
			c0,0.2,0.2,0.3,0.4,0.3C168.5,57.5,168.7,57.3,168.7,57C168.7,57,168.7,57,168.7,57L168.7,57z"/>
		<path class="st10" d="M169.3,57.7v-1.8h0.3v1.8H169.3z"/>
		<path class="st10" d="M86.7,85.7l0.3-0.4c0.2,0.2,0.5,0.3,0.7,0.3c0.3,0,0.4-0.1,0.4-0.3c0-0.4-1.3-0.1-1.3-1
			c0-0.4,0.3-0.7,0.9-0.7c0.3,0,0.7,0.1,0.9,0.3l-0.3,0.4c-0.2-0.2-0.4-0.3-0.7-0.2c-0.2,0-0.3,0.1-0.3,0.2c0,0.4,1.3,0.1,1.3,1
			c0,0.4-0.3,0.7-0.9,0.7C87.3,86,86.9,85.9,86.7,85.7z"/>
		<path class="st10" d="M90.8,86l-1.1-1.5V86h-0.5v-2.3h0.5l1.1,1.4v-1.4h0.5V86H90.8z"/>
		<path class="st10" d="M94.1,86v-1.6L93.4,86h-0.2l-0.7-1.6V86h-0.5v-2.3h0.7l0.6,1.4l0.6-1.4h0.7V86H94.1z"/>
		<path class="st10" d="M95.4,86v-2.3h1.1c0.4,0,0.7,0.3,0.8,0.7c0,0,0,0,0,0.1c0,0.4-0.3,0.7-0.7,0.8c0,0,0,0-0.1,0h-0.6V86H95.4z
			 M96.7,84.5c0-0.2-0.1-0.3-0.3-0.3c0,0,0,0,0,0h-0.5v0.6h0.5C96.5,84.8,96.7,84.7,96.7,84.5C96.7,84.5,96.7,84.4,96.7,84.5
			L96.7,84.5z"/>
		<path class="st10" d="M82.6,88.9l0.1-0.2c0.1,0.1,0.3,0.2,0.4,0.2c0.2,0,0.3-0.1,0.3-0.2c0-0.3-0.8-0.1-0.8-0.6
			c0-0.2,0.2-0.4,0.5-0.4c0.2,0,0.4,0.1,0.5,0.2l-0.1,0.2c-0.1-0.1-0.3-0.2-0.4-0.2c-0.2,0-0.2,0.1-0.2,0.2s0.8,0.1,0.8,0.6
			c0,0.2-0.2,0.4-0.6,0.4C83,89.1,82.8,89,82.6,88.9z"/>
		<path class="st10" d="M84,87.4c0-0.1,0.1-0.2,0.2-0.2c0.1,0,0.2,0.1,0.2,0.2c0,0.1-0.1,0.2-0.2,0.2C84.1,87.6,84,87.5,84,87.4z
			 M84,89.1v-1.3h0.3v1.3H84z"/>
		<path class="st10" d="M86.3,89.1v-0.9c0-0.1-0.1-0.2-0.2-0.2c0,0,0,0,0,0c-0.1,0-0.2,0.1-0.3,0.2v0.9h-0.3v-0.9
			c0-0.1-0.1-0.2-0.2-0.2C85.2,88,85,88,85,88.1v0.9h-0.3v-1.3H85v0.2c0.1-0.1,0.3-0.2,0.4-0.2c0.2,0,0.3,0.1,0.4,0.2
			c0.1-0.1,0.3-0.2,0.4-0.2c0.2,0,0.4,0.1,0.4,0.3c0,0,0,0.1,0,0.1v1L86.3,89.1z"/>
		<path class="st10" d="M87.3,88.9v0.7H87v-1.8h0.3v0.2c0.1-0.1,0.3-0.2,0.4-0.2c0.3,0,0.6,0.3,0.6,0.7s-0.2,0.7-0.6,0.7
			C87.5,89.1,87.4,89,87.3,88.9z M88,88.4c0-0.2-0.1-0.4-0.4-0.4c0,0,0,0,0,0c-0.1,0-0.3,0.1-0.3,0.2v0.5c0.1,0.1,0.2,0.2,0.3,0.2
			C87.8,88.8,88,88.7,88,88.4C88,88.4,88,88.4,88,88.4L88,88.4z"/>
		<path class="st10" d="M88.6,89.1v-1.8h0.3v1.8H88.6z"/>
		<path class="st10" d="M89.2,88.4c0-0.4,0.3-0.7,0.7-0.7c0,0,0,0,0,0c0.4,0,0.7,0.3,0.7,0.7c0,0,0,0,0,0.1v0.1h-1
			c0,0.2,0.2,0.4,0.4,0.4c0.1,0,0.3-0.1,0.4-0.1l0.1,0.2c-0.1,0.1-0.3,0.2-0.5,0.2c-0.4,0-0.7-0.2-0.7-0.6
			C89.1,88.5,89.1,88.4,89.2,88.4z M89.8,87.9c-0.2,0-0.4,0.2-0.4,0.4h0.8C90.2,88.1,90.1,87.9,89.8,87.9
			C89.9,87.9,89.8,87.9,89.8,87.9z"/>
		<path class="st10" d="M92.4,89.1v-0.8c0-0.2-0.1-0.3-0.3-0.3c-0.1,0-0.3,0.1-0.3,0.2v0.9h-0.3v-1.3h0.3v0.2
			c0.1-0.1,0.3-0.2,0.5-0.2c0.2,0,0.4,0.1,0.4,0.3c0,0,0,0.1,0,0.1v0.9L92.4,89.1z"/>
		<path class="st10" d="M93,88.4c0-0.4,0.3-0.7,0.7-0.7c0,0,0,0,0,0c0.4,0,0.7,0.3,0.7,0.7c0,0,0,0,0,0.1v0.1h-1
			c0,0.2,0.2,0.4,0.4,0.4c0,0,0,0,0,0c0.1,0,0.3-0.1,0.4-0.1l0.1,0.2c-0.1,0.1-0.3,0.2-0.5,0.2c-0.4,0-0.7-0.2-0.7-0.6
			C93,88.5,93,88.4,93,88.4z M93.7,87.9c-0.2,0-0.4,0.2-0.4,0.4H94C94,88.1,93.8,87.9,93.7,87.9C93.6,87.9,93.6,87.9,93.7,87.9
			L93.7,87.9z"/>
		<path class="st10" d="M94.6,88.8V88h-0.2v-0.2h0.2v-0.4h0.3v0.4h0.3V88h-0.3v0.7c0,0.1,0,0.2,0.1,0.2c0,0,0.1,0,0.1-0.1l0.1,0.2
			c-0.1,0.1-0.2,0.1-0.3,0.1C94.8,89.2,94.6,89,94.6,88.8C94.6,88.8,94.6,88.8,94.6,88.8z"/>
		<path class="st10" d="M96.6,89.1l-0.3-1l-0.3,1h-0.3l-0.4-1.3h0.3l0.3,1l0.3-1h0.2l0.3,1l0.3-1h0.3l-0.4,1.3H96.6z"/>
		<path class="st10" d="M97.4,88.4c0-0.4,0.3-0.7,0.7-0.7c0.4,0,0.7,0.3,0.7,0.7c0,0.4-0.3,0.7-0.7,0.7
			C97.8,89.1,97.5,88.8,97.4,88.4C97.4,88.4,97.4,88.4,97.4,88.4z M98.5,88.4c0-0.2-0.2-0.4-0.4-0.3c-0.2,0-0.4,0.2-0.3,0.4
			c0,0.2,0.2,0.3,0.4,0.3C98.4,88.8,98.5,88.7,98.5,88.4C98.5,88.4,98.5,88.4,98.5,88.4z"/>
		<path class="st10" d="M99.1,89.1v-1.3h0.3v0.2c0.1-0.1,0.3-0.2,0.4-0.2V88h-0.1c-0.1,0-0.3,0.1-0.3,0.2v0.9L99.1,89.1z"/>
		<path class="st10" d="M101,89.1l-0.4-0.6l-0.2,0.2v0.4h-0.3v-1.8h0.3v1.1l0.6-0.6h0.4l-0.6,0.6l0.6,0.7H101z"/>
		<path class="st10" d="M80.2,92.2v-0.9c0-0.1-0.1-0.2-0.2-0.2c-0.1,0-0.2,0.1-0.3,0.2v0.9h-0.3v-0.9c0-0.1-0.1-0.2-0.2-0.2
			c-0.1,0-0.2,0.1-0.3,0.2v0.9h-0.3v-1.3h0.3V91c0.1-0.1,0.3-0.2,0.4-0.2c0.2,0,0.3,0.1,0.4,0.2c0.1-0.2,0.3-0.2,0.5-0.2
			c0.2,0,0.4,0.1,0.4,0.4v1L80.2,92.2z"/>
		<path class="st10" d="M81.7,92.2V92c-0.1,0.1-0.3,0.2-0.4,0.2c-0.2,0-0.5-0.2-0.5-0.4c0,0,0,0,0,0c0-0.2,0.2-0.4,0.4-0.4
			c0,0,0,0,0,0c0.2,0,0.3,0.1,0.4,0.2v-0.2c0-0.1-0.1-0.2-0.3-0.2c-0.1,0-0.3,0.1-0.4,0.2L80.8,91c0.2-0.1,0.4-0.2,0.6-0.2
			c0.3,0,0.6,0.1,0.6,0.5v0.9L81.7,92.2z M81.7,91.9v-0.2c-0.1-0.1-0.2-0.1-0.3-0.1c-0.1,0-0.3,0.1-0.3,0.2c0,0,0,0,0,0
			c0,0.1,0.1,0.3,0.3,0.2c0,0,0,0,0,0C81.5,92,81.6,92,81.7,91.9L81.7,91.9z"/>
		<path class="st10" d="M83.2,92.2v-0.8c0-0.2-0.1-0.3-0.3-0.3c-0.1,0-0.3,0.1-0.3,0.2v0.9h-0.3v-1.3h0.3V91
			c0.1-0.1,0.3-0.2,0.5-0.2c0.2,0,0.4,0.1,0.4,0.3c0,0,0,0.1,0,0.1v0.9H83.2z"/>
		<path class="st10" d="M84.7,92.2V92c-0.1,0.1-0.3,0.2-0.4,0.2c-0.2,0-0.5-0.2-0.5-0.4c0,0,0,0,0,0c0-0.2,0.2-0.4,0.4-0.4
			c0,0,0,0,0,0c0.2,0,0.3,0.1,0.4,0.2v-0.2c0-0.1-0.1-0.2-0.3-0.2c-0.1,0-0.3,0.1-0.4,0.2L83.9,91c0.1-0.1,0.4-0.2,0.6-0.2
			c0.3,0,0.6,0.1,0.6,0.5v0.9L84.7,92.2z M84.7,91.9v-0.2c-0.1-0.1-0.2-0.1-0.3-0.1c-0.1,0-0.3,0.1-0.3,0.2c0,0,0,0,0,0
			c0,0.1,0.1,0.3,0.3,0.2c0,0,0,0,0,0C84.5,92,84.6,92,84.7,91.9L84.7,91.9z"/>
		<path class="st10" d="M85.3,92.5l0.1-0.2c0.1,0.1,0.3,0.2,0.4,0.2c0.2,0,0.4-0.1,0.4-0.3c0,0,0,0,0-0.1v-0.2
			c-0.1,0.1-0.3,0.2-0.4,0.2c-0.3,0-0.6-0.3-0.6-0.6c0,0,0-0.1,0-0.1c0-0.3,0.2-0.6,0.5-0.7c0,0,0.1,0,0.1,0c0.2,0,0.3,0.1,0.4,0.2
			v-0.2h0.3v1.3c0,0.5-0.3,0.6-0.7,0.6C85.7,92.7,85.5,92.7,85.3,92.5z M86.3,91.7v-0.5C86.3,91.1,86.1,91,86,91
			c-0.2,0-0.4,0.2-0.4,0.4s0.1,0.4,0.4,0.4C86.1,91.9,86.2,91.8,86.3,91.7L86.3,91.7z"/>
		<path class="st10" d="M86.9,91.5c0-0.4,0.3-0.7,0.7-0.7c0,0,0,0,0,0c0.4,0,0.7,0.3,0.7,0.7c0,0,0,0,0,0.1v0.1h-1
			c0,0.2,0.2,0.4,0.4,0.4c0.1,0,0.3-0.1,0.4-0.1l0.1,0.2c-0.1,0.1-0.3,0.2-0.5,0.2C87.2,92.2,86.9,92,86.9,91.5
			C86.9,91.6,86.9,91.5,86.9,91.5z M87.6,91c-0.2,0-0.4,0.2-0.4,0.4h0.8C87.9,91.2,87.8,91,87.6,91C87.6,91,87.6,91,87.6,91L87.6,91
			z"/>
		<path class="st10" d="M90.1,92.2v-0.9c0-0.1-0.1-0.2-0.2-0.2c0,0,0,0,0,0c-0.1,0-0.2,0.1-0.3,0.2v0.9h-0.3v-0.9
			c0-0.1-0.1-0.2-0.2-0.2c-0.1,0-0.2,0.1-0.3,0.2v0.9h-0.3v-1.3h0.3V91c0.1-0.1,0.3-0.2,0.4-0.2c0.2,0,0.3,0.1,0.4,0.2
			c0.1-0.2,0.3-0.2,0.4-0.2c0.2,0,0.4,0.1,0.4,0.3c0,0,0,0.1,0,0.1v1L90.1,92.2z"/>
		<path class="st10" d="M90.7,91.5c0-0.4,0.3-0.7,0.7-0.7c0,0,0,0,0,0c0.4,0,0.7,0.3,0.7,0.7c0,0,0,0,0,0.1v0.1H91
			c0,0.2,0.2,0.4,0.4,0.4c0.1,0,0.3-0.1,0.4-0.1L92,92c-0.1,0.1-0.3,0.2-0.5,0.2c-0.4,0-0.7-0.2-0.7-0.6
			C90.7,91.6,90.7,91.5,90.7,91.5z M91.4,91c-0.2,0-0.4,0.2-0.4,0.4h0.8C91.8,91.2,91.6,91,91.4,91C91.4,91,91.4,91,91.4,91L91.4,91
			z"/>
		<path class="st10" d="M93.2,92.2v-0.8c0-0.2-0.1-0.3-0.3-0.3c-0.1,0-0.3,0.1-0.3,0.2v0.9h-0.3v-1.3h0.3V91
			c0.1-0.1,0.3-0.2,0.5-0.2c0.2,0,0.4,0.1,0.4,0.3c0,0,0,0.1,0,0.1v0.9H93.2z"/>
		<path class="st10" d="M94,91.9v-0.8h-0.2v-0.2H94v-0.4h0.3v0.4h0.3v0.2h-0.3v0.7c0,0.1,0.1,0.2,0.1,0.2c0,0,0.1,0,0.1-0.1l0.1,0.2
			c-0.1,0.1-0.2,0.1-0.3,0.1C94.2,92.2,94,92.1,94,91.9C94,91.9,94,91.9,94,91.9z"/>
		<path class="st10" d="M95.8,92v0.7h-0.3v-1.8h0.3V91c0.1-0.1,0.3-0.2,0.4-0.2c0.3,0,0.6,0.3,0.6,0.7s-0.2,0.7-0.6,0.7
			C96,92.2,95.9,92.1,95.8,92z M96.5,91.5c0-0.2-0.1-0.4-0.4-0.4c0,0,0,0,0,0c-0.1,0-0.3,0.1-0.3,0.2v0.5c0.1,0.1,0.2,0.2,0.3,0.2
			C96.3,92,96.5,91.8,96.5,91.5C96.5,91.5,96.5,91.5,96.5,91.5L96.5,91.5z"/>
		<path class="st10" d="M97.1,92.2v-1.3h0.3V91c0.1-0.1,0.3-0.2,0.4-0.2v0.3h-0.1c-0.1,0-0.3,0.1-0.3,0.2v0.9L97.1,92.2z"/>
		<path class="st10" d="M98,91.5c0-0.4,0.3-0.7,0.7-0.7c0.4,0,0.7,0.3,0.7,0.7c0,0.4-0.3,0.7-0.7,0.7C98.3,92.2,98,91.9,98,91.5
			C98,91.5,98,91.5,98,91.5z M99.1,91.5c0-0.2-0.1-0.4-0.4-0.4c0,0,0,0,0,0c-0.2,0-0.4,0.3-0.4,0.5c0,0.2,0.2,0.3,0.4,0.4
			C98.9,91.9,99,91.7,99.1,91.5L99.1,91.5z"/>
		<path class="st10" d="M99.7,91.9v-0.8h-0.2v-0.2h0.2v-0.4h0.3v0.4h0.3v0.2H100v0.7c0,0.1,0,0.2,0.1,0.2c0,0,0.1,0,0.1-0.1l0.1,0.2
			c-0.1,0.1-0.2,0.1-0.3,0.1c-0.2,0-0.3,0-0.4-0.2C99.7,92,99.7,91.9,99.7,91.9z"/>
		<path class="st10" d="M100.4,91.5c0-0.4,0.3-0.7,0.7-0.7c0.4,0,0.7,0.3,0.7,0.7c0,0,0,0,0,0c0,0.4-0.3,0.7-0.7,0.7
			C100.7,92.2,100.4,91.9,100.4,91.5C100.4,91.5,100.4,91.5,100.4,91.5z M101.5,91.5c0-0.2-0.2-0.4-0.4-0.3c-0.2,0-0.4,0.2-0.3,0.4
			c0,0.2,0.2,0.3,0.4,0.3C101.3,91.9,101.5,91.8,101.5,91.5C101.5,91.5,101.5,91.5,101.5,91.5z"/>
		<path class="st10" d="M102,91.5c0-0.4,0.3-0.7,0.7-0.7c0,0,0,0,0,0c0.2,0,0.4,0.1,0.5,0.2l-0.2,0.2c-0.1-0.1-0.2-0.2-0.3-0.2
			c-0.2,0-0.4,0.2-0.4,0.4c0,0,0,0,0,0.1c0,0.2,0.1,0.4,0.4,0.4c0,0,0,0,0,0c0.1,0,0.2-0.1,0.3-0.2l0.2,0.2
			c-0.1,0.2-0.3,0.2-0.5,0.2C102.3,92.2,102,91.9,102,91.5C102,91.5,102,91.5,102,91.5z"/>
		<path class="st10" d="M103.3,91.5c0-0.4,0.2-0.7,0.6-0.8c0.4,0,0.7,0.2,0.8,0.6c0,0.1,0,0.1,0,0.2c0,0.4-0.2,0.7-0.6,0.8
			c-0.4,0-0.7-0.2-0.8-0.6C103.3,91.6,103.3,91.6,103.3,91.5z M104.4,91.5c0-0.2-0.1-0.4-0.3-0.5c0,0-0.1,0-0.1,0
			c-0.2,0-0.5,0.1-0.5,0.4c0,0.2,0.1,0.5,0.4,0.5S104.3,91.8,104.4,91.5C104.4,91.5,104.4,91.5,104.4,91.5L104.4,91.5z"/>
		<path class="st10" d="M105,92.2v-1.8h0.3v1.8H105z"/>
		<path class="st10" d="M119.2,86v-1.9h-0.7v-0.4h1.8v0.4h-0.7V86H119.2z"/>
		<path class="st10" d="M121,86v-2.3h0.5v1.9h1V86H121z"/>
		<path class="st10" d="M123,85.7l0.3-0.4c0.2,0.2,0.5,0.3,0.7,0.3c0.3,0,0.4-0.1,0.4-0.3c0-0.4-1.3-0.1-1.3-1
			c0-0.4,0.3-0.7,0.9-0.7c0.3,0,0.7,0.1,0.9,0.3l-0.3,0.4c-0.2-0.2-0.4-0.3-0.7-0.2c-0.2,0-0.3,0.1-0.3,0.2c0,0.4,1.3,0.1,1.3,1
			c0,0.4-0.3,0.7-0.9,0.7C123.6,86,123.3,85.9,123,85.7z"/>
		<path class="st10" d="M125.4,86l0.8-2.4h0.3l-0.8,2.4H125.4z"/>
		<path class="st10" d="M126.9,85.7l0.3-0.4c0.2,0.2,0.5,0.3,0.7,0.3c0.3,0,0.4-0.1,0.4-0.3c0-0.4-1.3-0.1-1.3-1
			c0-0.4,0.3-0.7,0.9-0.7c0.3,0,0.7,0.1,0.9,0.3l-0.3,0.4c-0.2-0.2-0.4-0.3-0.7-0.2c-0.2,0-0.3,0.1-0.3,0.2c0,0.4,1.3,0.1,1.3,1
			c0,0.4-0.3,0.7-0.9,0.7C127.5,86,127.2,85.9,126.9,85.7z"/>
		<path class="st10" d="M129.3,85.7l0.3-0.4c0.2,0.2,0.5,0.3,0.7,0.3c0.3,0,0.4-0.1,0.4-0.3c0-0.4-1.3-0.1-1.3-1
			c0-0.4,0.3-0.7,0.9-0.7c0.3,0,0.7,0.1,0.9,0.3l-0.3,0.4c-0.2-0.2-0.4-0.3-0.7-0.2c-0.2,0-0.3,0.1-0.3,0.2c0,0.4,1.3,0.1,1.3,1
			c0,0.4-0.3,0.7-0.9,0.7C129.9,86,129.6,85.9,129.3,85.7z"/>
		<path class="st10" d="M131.9,86v-2.3h0.5v1.9h1V86H131.9z"/>
		<path class="st10" d="M117.3,88.8V88H117v-0.2h0.2v-0.4h0.3v0.4h0.3V88h-0.3v0.7c0,0.1,0,0.2,0.1,0.2c0,0,0.1,0,0.1-0.1l0.1,0.2
			c-0.1,0.1-0.2,0.1-0.3,0.1C117.4,89.1,117.3,89,117.3,88.8C117.3,88.8,117.3,88.8,117.3,88.8z"/>
		<path class="st10" d="M118.1,89.1v-1.3h0.3v0.2c0.1-0.1,0.3-0.2,0.4-0.2V88h-0.1c-0.1,0-0.3,0.1-0.3,0.2v0.9L118.1,89.1z"/>
		<path class="st10" d="M119.8,89.1v-0.1c-0.1,0.1-0.3,0.2-0.4,0.2c-0.2,0-0.5-0.2-0.5-0.4c0,0,0,0,0,0c0-0.2,0.2-0.4,0.4-0.4
			c0,0,0,0,0,0c0.2,0,0.3,0.1,0.4,0.2v-0.2c0-0.1-0.1-0.2-0.3-0.2c-0.2,0-0.3,0.1-0.4,0.2l-0.1-0.2c0.2-0.1,0.4-0.2,0.6-0.2
			c0.3,0,0.6,0.1,0.6,0.5v0.9L119.8,89.1z M119.8,88.8v-0.2c-0.1-0.1-0.2-0.1-0.3-0.1c-0.1,0-0.3,0.1-0.3,0.2c0,0,0,0,0,0
			c0,0.1,0.1,0.2,0.3,0.2c0,0,0,0,0,0C119.7,88.9,119.8,88.9,119.8,88.8z"/>
		<path class="st10" d="M121.4,89.1v-0.8c0-0.2-0.1-0.3-0.3-0.3c-0.1,0-0.3,0.1-0.3,0.2v0.9h-0.3v-1.3h0.3v0.2
			c0.1-0.1,0.3-0.2,0.5-0.2c0.2,0,0.4,0.1,0.4,0.3c0,0,0,0.1,0,0.1v0.9L121.4,89.1z"/>
		<path class="st10" d="M122,88.9l0.1-0.2c0.1,0.1,0.3,0.2,0.4,0.2c0.2,0,0.3-0.1,0.3-0.2c0-0.3-0.8-0.1-0.8-0.6
			c0-0.2,0.2-0.4,0.5-0.4c0.2,0,0.4,0.1,0.5,0.2l-0.1,0.2c-0.1-0.1-0.2-0.2-0.4-0.2c-0.2,0-0.2,0.1-0.2,0.2s0.8,0.1,0.8,0.6
			c0,0.2-0.2,0.4-0.6,0.4C122.4,89.1,122.2,89,122,88.9z"/>
		<path class="st10" d="M123.7,88.9v0.7h-0.3v-1.8h0.3v0.2c0.1-0.1,0.3-0.2,0.4-0.2c0.3,0,0.6,0.3,0.6,0.7s-0.2,0.7-0.6,0.7
			C123.9,89.1,123.8,89,123.7,88.9z M124.4,88.4c0-0.2-0.1-0.4-0.4-0.4c0,0,0,0,0,0c-0.1,0-0.3,0.1-0.3,0.2v0.5
			c0.1,0.1,0.2,0.2,0.3,0.2C124.2,88.9,124.4,88.7,124.4,88.4L124.4,88.4z"/>
		<path class="st10" d="M124.9,88.4c0-0.4,0.3-0.7,0.7-0.7s0.7,0.3,0.7,0.7c0,0.4-0.3,0.7-0.7,0.7C125.2,89.1,124.9,88.8,124.9,88.4
			C124.9,88.4,124.9,88.4,124.9,88.4z M125.9,88.4c0-0.2-0.1-0.4-0.4-0.4c0,0,0,0,0,0c-0.2,0-0.5,0.1-0.5,0.4c0,0.2,0.1,0.5,0.4,0.5
			S125.9,88.7,125.9,88.4C125.9,88.4,126,88.4,125.9,88.4z"/>
		<path class="st10" d="M126.6,89.1v-1.3h0.3v0.2c0.1-0.1,0.3-0.2,0.4-0.2V88h-0.1c-0.1,0-0.3,0.1-0.3,0.2v0.9L126.6,89.1z"/>
		<path class="st10" d="M127.6,88.8V88h-0.2v-0.2h0.2v-0.4h0.3v0.4h0.3V88h-0.3v0.7c0,0.1,0,0.2,0.1,0.2c0,0,0.1,0,0.1-0.1l0.1,0.2
			c-0.1,0.1-0.2,0.1-0.3,0.1c-0.2,0-0.3-0.1-0.3-0.3C127.5,88.8,127.6,88.8,127.6,88.8z"/>
		<path class="st10" d="M129.1,89.1v-1.8h0.3v1.8H129.1z"/>
		<path class="st10" d="M130.6,89.1v-0.1c-0.1,0.1-0.3,0.2-0.4,0.2c-0.2,0-0.5-0.2-0.5-0.4c0,0,0,0,0,0c0-0.2,0.2-0.4,0.4-0.4
			c0,0,0,0,0,0c0.2,0,0.3,0.1,0.4,0.2v-0.2c0-0.1-0.1-0.2-0.3-0.2c-0.1,0-0.3,0.1-0.4,0.2l-0.1-0.2c0.2-0.1,0.4-0.2,0.6-0.2
			c0.3,0,0.6,0.1,0.6,0.5v0.9L130.6,89.1z M130.6,88.8v-0.2c-0.1-0.1-0.2-0.1-0.3-0.1c-0.1,0-0.3,0.1-0.3,0.2c0,0,0,0,0,0
			c0,0.1,0.1,0.3,0.3,0.2c0,0,0,0,0,0C130.4,88.9,130.5,88.9,130.6,88.8z"/>
		<path class="st10" d="M131.2,89.3c0,0,0.1,0,0.1,0c0.1,0,0.2,0,0.2-0.1l0.1-0.1l-0.5-1.4h0.3l0.4,1l0.4-1h0.3l-0.6,1.6
			c-0.1,0.2-0.4,0.3-0.6,0.3L131.2,89.3z"/>
		<path class="st10" d="M132.5,88.4c0-0.4,0.3-0.7,0.7-0.7c0,0,0,0,0,0c0.4,0,0.7,0.3,0.7,0.7c0,0,0,0,0,0.1v0.1h-1
			c0,0.2,0.2,0.4,0.4,0.4c0.1,0,0.3-0.1,0.4-0.1l0.1,0.2c-0.1,0.1-0.3,0.2-0.5,0.2c-0.4,0-0.7-0.2-0.7-0.6
			C132.5,88.5,132.5,88.4,132.5,88.4z M133.2,87.9c-0.2,0-0.4,0.2-0.4,0.4h0.8C133.6,88.1,133.4,87.9,133.2,87.9
			C133.2,87.9,133.2,87.9,133.2,87.9L133.2,87.9z"/>
		<path class="st10" d="M134.1,89.1v-1.3h0.3v0.2c0.1-0.1,0.3-0.2,0.4-0.2V88h-0.1c-0.1,0-0.3,0.1-0.3,0.2v0.9L134.1,89.1z"/>
		<path class="st10" d="M121.2,92l0.1-0.2c0.1,0.1,0.3,0.2,0.5,0.2c0.2,0,0.3-0.1,0.3-0.2c0-0.3-0.8-0.1-0.8-0.6
			c0-0.2,0.2-0.4,0.5-0.4c0.2,0,0.4,0.1,0.5,0.2l-0.1,0.2c-0.1-0.1-0.2-0.2-0.4-0.2c-0.2,0-0.2,0.1-0.2,0.2s0.8,0.1,0.8,0.6
			c0,0.2-0.2,0.4-0.6,0.4C121.6,92.2,121.4,92.2,121.2,92z"/>
		<path class="st10" d="M122.5,91.5c0-0.4,0.3-0.7,0.7-0.7c0,0,0,0,0,0c0.4,0,0.7,0.3,0.7,0.7c0,0,0,0,0,0.1v0.1h-1
			c0,0.2,0.2,0.4,0.4,0.4c0.1,0,0.3-0.1,0.4-0.1l0.1,0.2c-0.1,0.1-0.3,0.2-0.5,0.2C122.9,92.2,122.6,92,122.5,91.5
			C122.5,91.6,122.5,91.5,122.5,91.5z M123.2,91c-0.2,0-0.4,0.2-0.4,0.4h0.8C123.6,91.2,123.4,91,123.2,91
			C123.2,91,123.2,91,123.2,91L123.2,91z"/>
		<path class="st10" d="M124.1,91.5c0-0.4,0.3-0.7,0.6-0.7c0,0,0,0,0.1,0c0.2,0,0.4,0.1,0.5,0.2l-0.2,0.2c-0.1-0.1-0.2-0.2-0.3-0.2
			c-0.2,0-0.4,0.2-0.4,0.4c0,0,0,0,0,0c0,0.2,0.1,0.4,0.4,0.4c0,0,0,0,0,0c0.1,0,0.2-0.1,0.3-0.2l0.2,0.2c-0.1,0.2-0.3,0.2-0.5,0.2
			C124.4,92.2,124.1,91.9,124.1,91.5C124.1,91.5,124.1,91.5,124.1,91.5z"/>
		<path class="st10" d="M126.4,92.2V92c-0.1,0.1-0.3,0.2-0.5,0.2c-0.2,0-0.4-0.1-0.4-0.3c0,0,0-0.1,0-0.1v-0.9h0.3v0.8
			c0,0.1,0.1,0.3,0.2,0.3c0,0,0,0,0.1,0c0.1,0,0.3-0.1,0.3-0.2v-0.9h0.3v1.3L126.4,92.2z"/>
		<path class="st10" d="M127.1,92.2v-1.3h0.3V91c0.1-0.1,0.3-0.2,0.4-0.2v0.3h-0.1c-0.1,0-0.3,0.1-0.3,0.2v0.9L127.1,92.2z"/>
		<path class="st10" d="M128,90.5c0-0.1,0.1-0.2,0.2-0.2c0.1,0,0.2,0.1,0.2,0.2c0,0.1-0.1,0.2-0.2,0.2C128.1,90.7,128,90.6,128,90.5
			z M128,92.2v-1.3h0.3v1.3H128z"/>
		<path class="st10" d="M128.8,91.9v-0.8h-0.2v-0.2h0.2v-0.4h0.3v0.4h0.3v0.2h-0.3v0.7c0,0.1,0.1,0.2,0.1,0.2c0,0,0.1,0,0.1-0.1
			l0.1,0.2c-0.1,0.1-0.2,0.1-0.3,0.1C128.9,92.2,128.8,92.1,128.8,91.9C128.8,91.9,128.8,91.9,128.8,91.9z"/>
		<path class="st10" d="M129.6,92.4c0,0,0.1,0,0.1,0c0.1,0,0.2,0,0.2-0.1l0.1-0.1l-0.6-1.4h0.3l0.4,1l0.4-1h0.3l-0.6,1.6
			c-0.1,0.2-0.3,0.3-0.5,0.3h-0.2L129.6,92.4z"/>
		<path class="st11" d="M156.1,86v-2.3h1.2c0.3,0,0.6,0.2,0.7,0.5c0,0,0,0,0,0.1c0,0.2-0.2,0.5-0.4,0.5c0.3,0.1,0.5,0.3,0.4,0.6
			c0,0.3-0.2,0.6-0.6,0.6c0,0-0.1,0-0.1,0L156.1,86z M157.5,84.4c0-0.1-0.1-0.3-0.2-0.3c0,0,0,0,0,0h-0.6v0.5h0.6
			C157.4,84.7,157.5,84.6,157.5,84.4C157.5,84.4,157.5,84.4,157.5,84.4L157.5,84.4z M157.5,85.3c0-0.2-0.1-0.3-0.3-0.3c0,0,0,0,0,0
			h-0.6v0.5h0.6C157.5,85.6,157.6,85.4,157.5,85.3L157.5,85.3z"/>
		<path class="st11" d="M159.3,86v-1.9h-0.7v-0.4h1.8v0.4h-0.7V86H159.3z"/>
		<path class="st11" d="M160.9,84.8c0-0.6,0.5-1.2,1.1-1.2c0,0,0,0,0.1,0c0.4,0,0.8,0.2,1,0.6l-0.4,0.2c-0.1-0.2-0.3-0.3-0.5-0.3
			c-0.4,0-0.7,0.4-0.7,0.8c0,0.4,0.3,0.6,0.7,0.7c0.2,0,0.4-0.1,0.5-0.3l0.4,0.2c-0.2,0.4-0.6,0.6-1,0.6
			C161.5,86,160.9,85.6,160.9,84.8C160.9,84.9,160.9,84.9,160.9,84.8z"/>
		<path class="st11" d="M152.1,89.1v-0.9c0-0.1-0.1-0.2-0.2-0.2c-0.1,0-0.2,0.1-0.3,0.2v0.9h-0.3v-0.9c0-0.1-0.1-0.2-0.2-0.2
			c-0.1,0-0.2,0.1-0.3,0.2v0.9h-0.3v-1.3h0.3v0.2c0.1-0.1,0.3-0.2,0.4-0.2c0.2,0,0.3,0.1,0.4,0.2c0.1-0.2,0.3-0.2,0.5-0.2
			c0.2,0,0.4,0.1,0.4,0.4v1L152.1,89.1z"/>
		<path class="st11" d="M152.6,88.4c0-0.4,0.3-0.7,0.7-0.7c0.4,0,0.7,0.3,0.7,0.7c0,0.4-0.3,0.7-0.7,0.7
			C153,89.1,152.6,88.8,152.6,88.4C152.6,88.4,152.6,88.4,152.6,88.4z M153.7,88.4c0-0.2-0.2-0.4-0.4-0.3c-0.2,0-0.4,0.2-0.3,0.4
			c0,0.2,0.2,0.3,0.4,0.3C153.5,88.8,153.7,88.7,153.7,88.4C153.7,88.4,153.7,88.4,153.7,88.4z"/>
		<path class="st11" d="M155.2,89.1v-0.8c0-0.2-0.1-0.3-0.3-0.3c-0.1,0-0.3,0.1-0.3,0.2v0.9h-0.3v-1.3h0.3v0.2
			c0.1-0.1,0.3-0.2,0.5-0.2c0.2,0,0.4,0.1,0.4,0.3c0,0,0,0.1,0,0.1v0.9L155.2,89.1z"/>
		<path class="st11" d="M155.8,88.4c0-0.4,0.3-0.7,0.7-0.7c0,0,0,0,0,0c0.4,0,0.7,0.3,0.7,0.7c0,0,0,0,0,0.1v0.1h-1
			c0,0.2,0.2,0.4,0.4,0.4c0.1,0,0.3-0.1,0.4-0.1l0.1,0.2c-0.1,0.1-0.3,0.2-0.5,0.2c-0.4,0-0.7-0.2-0.7-0.6
			C155.8,88.5,155.8,88.4,155.8,88.4z M156.5,87.9c-0.2,0-0.4,0.2-0.4,0.4h0.8C156.8,88.1,156.7,87.9,156.5,87.9
			C156.5,87.9,156.5,87.9,156.5,87.9L156.5,87.9z"/>
		<path class="st11" d="M157.4,89.3c0,0,0.1,0,0.1,0c0.1,0,0.2,0,0.2-0.1l0.1-0.1l-0.6-1.4h0.3l0.4,1l0.4-1h0.3l-0.6,1.6
			c-0.1,0.2-0.4,0.3-0.6,0.3L157.4,89.3z"/>
		<path class="st11" d="M159.6,88.8V88h-0.2v-0.2h0.2v-0.4h0.3v0.4h0.3V88h-0.3v0.7c0,0.1,0,0.2,0.1,0.2c0,0,0.1,0,0.1-0.1l0.1,0.2
			c-0.1,0.1-0.2,0.1-0.3,0.1c-0.2,0-0.3-0.1-0.3-0.3C159.5,88.8,159.5,88.8,159.6,88.8z"/>
		<path class="st11" d="M160.4,89.1v-1.3h0.3v0.2c0.1-0.1,0.3-0.2,0.4-0.2V88H161c-0.1,0-0.3,0.1-0.3,0.2v0.9L160.4,89.1z"/>
		<path class="st11" d="M162.1,89.1v-0.1c-0.1,0.1-0.3,0.2-0.4,0.2c-0.2,0-0.4-0.2-0.5-0.4c0,0,0,0,0,0c0-0.2,0.2-0.4,0.4-0.4
			c0,0,0,0,0,0c0.2,0,0.3,0.1,0.4,0.2v-0.2c0-0.1-0.1-0.2-0.3-0.2c-0.2,0-0.3,0.1-0.4,0.2l-0.1-0.2c0.1-0.1,0.4-0.2,0.6-0.2
			c0.3,0,0.6,0.1,0.6,0.5v0.9L162.1,89.1z M162.1,88.8v-0.2c-0.1-0.1-0.2-0.1-0.3-0.1c-0.1,0-0.3,0.1-0.3,0.2c0,0,0,0,0,0
			c0,0.1,0.1,0.2,0.3,0.2c0,0,0,0,0,0C161.9,88.9,162.1,88.9,162.1,88.8z"/>
		<path class="st11" d="M163.7,89.1v-0.8c0-0.2-0.1-0.3-0.3-0.3c-0.1,0-0.3,0.1-0.4,0.2v0.9h-0.3v-1.3h0.3v0.2
			c0.1-0.1,0.3-0.2,0.5-0.2c0.2,0,0.4,0.1,0.4,0.3c0,0,0,0.1,0,0.1v0.9L163.7,89.1z"/>
		<path class="st11" d="M164.2,88.9l0.1-0.2c0.1,0.1,0.3,0.2,0.5,0.2c0.2,0,0.3-0.1,0.3-0.2c0-0.3-0.8-0.1-0.8-0.6
			c0-0.2,0.2-0.4,0.5-0.4c0.2,0,0.4,0.1,0.5,0.2l-0.1,0.2c-0.1-0.1-0.2-0.2-0.4-0.2c-0.1,0-0.2,0.1-0.2,0.2s0.8,0.1,0.8,0.6
			c0,0.2-0.2,0.4-0.6,0.4C164.6,89.1,164.4,89,164.2,88.9z"/>
		<path class="st11" d="M165.7,89.1V88h-0.2v-0.2h0.2v-0.1c0-0.2,0.1-0.4,0.4-0.5c0,0,0,0,0.1,0c0.1,0,0.2,0,0.3,0.1l-0.1,0.2
			c0,0-0.1-0.1-0.2-0.1c-0.1,0-0.2,0.1-0.2,0.2v0.1h0.3V88H166v1.1L165.7,89.1z"/>
		<path class="st11" d="M166.4,88.4c0-0.4,0.3-0.7,0.7-0.7c0,0,0,0,0,0c0.4,0,0.7,0.3,0.7,0.7c0,0,0,0,0,0.1v0.1h-1
			c0,0.2,0.2,0.4,0.4,0.4c0.1,0,0.3-0.1,0.4-0.1l0.1,0.2c-0.1,0.1-0.3,0.2-0.5,0.2c-0.4,0-0.7-0.2-0.7-0.6
			C166.4,88.5,166.4,88.4,166.4,88.4z M167.1,87.9c-0.2,0-0.4,0.2-0.4,0.4h0.8C167.5,88.1,167.3,87.9,167.1,87.9
			C167.1,87.9,167.1,87.9,167.1,87.9L167.1,87.9z"/>
		<path class="st11" d="M168.1,89.1v-1.3h0.3v0.2c0.1-0.1,0.3-0.2,0.4-0.2V88h-0.1c-0.1,0-0.3,0.1-0.3,0.2v0.9L168.1,89.1z"/>
		<path class="st11" d="M154.9,92v0.7h-0.3v-1.8h0.3V91c0.1-0.1,0.3-0.2,0.4-0.2c0.3,0,0.6,0.3,0.6,0.7s-0.2,0.7-0.6,0.7
			C155.2,92.2,155,92.1,154.9,92z M155.6,91.5c0-0.2-0.1-0.4-0.4-0.4c0,0,0,0,0,0c-0.1,0-0.3,0.1-0.3,0.2v0.5
			c0.1,0.1,0.2,0.2,0.3,0.2C155.5,92,155.6,91.8,155.6,91.5C155.6,91.5,155.6,91.5,155.6,91.5L155.6,91.5z"/>
		<path class="st11" d="M156.2,92.2v-1.3h0.3V91c0.1-0.1,0.3-0.2,0.4-0.2v0.3h-0.1c-0.1,0-0.3,0.1-0.3,0.2v0.9L156.2,92.2z"/>
		<path class="st11" d="M157.1,91.5c0-0.4,0.3-0.7,0.7-0.7s0.7,0.3,0.7,0.7s-0.3,0.7-0.7,0.7S157.1,91.9,157.1,91.5z M158.2,91.5
			c0-0.2-0.2-0.4-0.4-0.3c-0.2,0-0.4,0.2-0.3,0.4c0,0.2,0.2,0.3,0.4,0.3C158,91.9,158.2,91.8,158.2,91.5
			C158.2,91.5,158.2,91.5,158.2,91.5z"/>
		<path class="st11" d="M158.8,91.9v-0.8h-0.2v-0.2h0.2v-0.4h0.3v0.4h0.3v0.2h-0.3v0.7c0,0.1,0,0.2,0.1,0.2c0,0,0.1,0,0.1-0.1
			l0.1,0.2c-0.1,0.1-0.2,0.1-0.3,0.1C159,92.2,158.8,92.1,158.8,91.9C158.8,91.9,158.8,91.9,158.8,91.9z"/>
		<path class="st11" d="M159.5,91.5c0-0.4,0.2-0.7,0.6-0.8s0.7,0.2,0.8,0.6c0,0.1,0,0.1,0,0.2c0,0.4-0.2,0.7-0.6,0.8
			s-0.7-0.2-0.8-0.6C159.5,91.6,159.5,91.6,159.5,91.5z M160.6,91.5c0-0.2-0.1-0.4-0.3-0.4c-0.2,0-0.4,0.1-0.4,0.3c0,0,0,0.1,0,0.1
			c0,0.2,0.1,0.4,0.3,0.4c0.2,0,0.4-0.1,0.4-0.3C160.6,91.6,160.6,91.5,160.6,91.5z"/>
		<path class="st11" d="M161.1,91.5c0-0.4,0.3-0.7,0.6-0.7c0,0,0,0,0.1,0c0.2,0,0.4,0.1,0.5,0.2l-0.2,0.2c-0.1-0.1-0.2-0.2-0.3-0.2
			c-0.2,0-0.4,0.2-0.4,0.4c0,0,0,0,0,0c0,0.2,0.1,0.4,0.4,0.4c0,0,0,0,0,0c0.1,0,0.2-0.1,0.3-0.2l0.2,0.2c-0.1,0.2-0.3,0.2-0.5,0.2
			C161.4,92.2,161.1,91.9,161.1,91.5C161.1,91.5,161.1,91.5,161.1,91.5z"/>
		<path class="st11" d="M162.5,91.5c0-0.4,0.3-0.7,0.7-0.7c0.4,0,0.7,0.3,0.7,0.7c0,0.4-0.3,0.7-0.7,0.7
			C162.8,92.2,162.5,91.9,162.5,91.5C162.5,91.5,162.5,91.5,162.5,91.5z M163.6,91.5c0-0.2-0.2-0.4-0.4-0.3c-0.2,0-0.4,0.2-0.3,0.4
			c0,0.2,0.2,0.3,0.4,0.3C163.4,91.9,163.6,91.8,163.6,91.5C163.6,91.5,163.6,91.5,163.6,91.5L163.6,91.5z"/>
		<path class="st11" d="M164.1,92.2v-1.8h0.3v1.8H164.1z"/>
		
			<ellipse transform="matrix(1.428135e-02 -0.9999 0.9999 1.428135e-02 -39.0017 68.4373)" class="st12" cx="15.2" cy="54" rx="14.7" ry="14.7"/>
		<g>
			<defs>
				
					<ellipse id="SVGID_1_" transform="matrix(1.428135e-02 -0.9999 0.9999 1.428135e-02 -39.0017 68.4373)" cx="15.2" cy="54" rx="14.7" ry="14.7"/>
			</defs>
			<clipPath id="SVGID_2_">
				<use xlink:href="#SVGID_1_"  style="overflow:visible;"/>
			</clipPath>
			<g class="st13">
				<polygon class="st14" points="11.6,50.1 16.4,54.9 10.6,59.8 22.5,71.8 22.4,70.4 30.4,59.8 18.5,47.9 11.4,47.9 				"/>
			</g>
		</g>
		<path class="st11" d="M10.6,59.8V58l1.7-1.5c2.9-2.6,4.2-4,4.3-5.5c0-1.1-0.6-1.9-2.1-1.9c-1,0.1-2,0.4-2.8,1.1L10.8,48
			c1.2-0.9,2.7-1.4,4.2-1.4c3,0,4.6,1.7,4.6,4.1c0,2.2-1.6,3.9-3.5,5.6l-1.2,1l0,0h4.9v2.5L10.6,59.8z"/>
	</g>
</g>
</svg>
