<svg xmlns="http://www.w3.org/2000/svg" xmlns:xlink="http://www.w3.org/1999/xlink" viewBox="0 0 236.63 108"><defs><style>.cls-1{fill:none;}.cls-2{fill:#f5f6fa;}.cls-3{fill:#d2dbeb;}.cls-4{fill:url(#radial-gradient);}.cls-5{fill:#fff;}.cls-6{fill:#0e9de5;}.cls-7{clip-path:url(#clip-path);}.cls-8{fill:#041742;}</style><radialGradient id="radial-gradient" cx="188.28" cy="68.15" r="64.45" gradientTransform="translate(-16.22 0.25) scale(0.99 0.99)" gradientUnits="userSpaceOnUse"><stop offset="0.1" stop-color="#26db8d"/><stop offset="0.25" stop-color="#32db9a"/><stop offset="0.51" stop-color="#52dbbb"/><stop offset="0.87" stop-color="#86dbf0"/><stop offset="0.89" stop-color="#88dbf2"/></radialGradient><clipPath id="clip-path"><circle class="cls-1" cx="14.68" cy="54" r="14.68"/></clipPath></defs><g id="Layer_2" data-name="Layer 2"><g id="Layer_1-2" data-name="Layer 1"><rect class="cls-2" x="14.63" width="222" height="108"/><polygon class="cls-3" points="117.36 56.53 117.36 48.74 126.58 43.49 133.49 47.42 138.22 44.76 126.58 38.13 112.61 46.08 112.61 59.21 117.36 56.53"/><polygon class="cls-3" points="135.79 51.49 135.79 59.26 126.58 64.51 119.68 60.59 114.95 63.26 126.58 69.87 140.54 61.92 140.54 48.81 135.79 51.49"/><polygon class="cls-3" points="126.58 48.29 121.5 51.14 121.5 56.86 126.58 59.71 131.66 56.86 131.66 51.14 126.58 48.29"/><polygon class="cls-4" points="82.14 28.29 99.9 38.69 126.58 23.25 153.26 38.69 153.26 69.56 171.02 79.71 171.02 28.29 126.58 2.58 82.14 28.29"/><polygon class="cls-3" points="99.9 69.56 126.58 84.99 153.26 69.56 171.02 79.71 126.58 105.42 82.14 79.71 82.14 28.29 99.9 38.69 99.9 69.56"/><polygon class="cls-5" points="182.99 21.53 182.99 86.81 146.35 108 155.91 108 187.91 89.48 187.91 18.52 155.91 0 145.77 0 182.99 21.53"/><polygon class="cls-5" points="70.17 86.81 70.17 21.53 107.38 0 97.25 0 65.25 18.52 65.25 89.48 97.25 108 106.8 108 70.17 86.81"/><circle class="cls-6" cx="14.68" cy="54" r="14.68"/><g class="cls-7"><polygon class="cls-8" points="18.46 48.44 29.6 59.58 21.89 70.88 20.38 69.44 10.09 59.15 16.25 58.03 12.27 54.04 14.41 53.07 11.13 49.78 11.46 47.91 14.68 47.43 18.46 48.44"/></g><path class="cls-5" d="M10.71,56.84a6.88,6.88,0,0,0,3,.8c1.58,0,2.38-.76,2.38-1.72,0-1.3-1.28-1.88-2.6-1.88H12.27V51.86h1.18c1,0,2.3-.4,2.3-1.5,0-.78-.62-1.36-1.92-1.36a5.77,5.77,0,0,0-2.7.78l-.62-2.2a8.09,8.09,0,0,1,4-1c2.76,0,4.3,1.46,4.3,3.24a3.1,3.1,0,0,1-2.38,3v0a3.23,3.23,0,0,1,2.82,3.18c0,2.29-2,4-5.32,4a7.92,7.92,0,0,1-3.86-.9Z"/></g></g></svg>