<svg xmlns="http://www.w3.org/2000/svg" xmlns:xlink="http://www.w3.org/1999/xlink" viewBox="0 0 236.68 108"><defs><style>.cls-1{fill:none;}.cls-2{fill:#f5f6fa;}.cls-3{fill:#6ef9b7;}.cls-4,.cls-6{fill:#fff;}.cls-5{fill:#26db8d;}.cls-6{stroke:#edf2f4;stroke-miterlimit:10;stroke-width:0.5px;}.cls-7{fill:#edf2f4;}.cls-8{clip-path:url(#clip-path);}.cls-9{fill:#ccc;}.cls-10{fill:#88dbf2;}.cls-11{fill:#9ee7ff;}.cls-12{fill:#041742;}.cls-13{clip-path:url(#clip-path-2);}.cls-14{fill:#bcbcbc;}.cls-15{fill:#0e9de5;}.cls-16{clip-path:url(#clip-path-3);}</style><clipPath id="clip-path"><circle class="cls-1" cx="83.28" cy="66.28" r="27.42"/></clipPath><clipPath id="clip-path-2"><circle class="cls-1" cx="168.07" cy="66.28" r="27.42"/></clipPath><clipPath id="clip-path-3"><circle class="cls-1" cx="14.68" cy="54.09" r="14.68"/></clipPath></defs><g id="Layer_2" data-name="Layer 2"><g id="Layer_1-2" data-name="Layer 1"><rect class="cls-2" x="14.68" width="222" height="108"/><polygon class="cls-3" points="158.9 99.17 92.46 99.17 92.46 8.88 152.64 8.88 158.9 15.37 158.9 99.17"/><path class="cls-4" d="M107.26,25.66l.95-1.35a2.8,2.8,0,0,0,1.94.77c.34,0,.66-.09.66-.32,0-.58-3.35,0-3.35-2.36,0-1,.85-2,2.5-2a4,4,0,0,1,2.55.84l-1,1.29a3,3,0,0,0-1.77-.59c-.36,0-.46.11-.46.27,0,.56,3.34.08,3.34,2.31,0,1.33-1,2.1-2.59,2.1A4,4,0,0,1,107.26,25.66Z"/><path class="cls-4" d="M119.6,26.51V22.89l-1.34,3.62h-.81l-1.34-3.62v3.62h-1.83v-6h2.52l1.06,2.89,1-2.89h2.52v6Z"/><path class="cls-4" d="M127.45,26.51l-.22-.71h-2.16l-.22.71h-2.06l2.22-6h2.29l2.21,6Zm-1.3-4.23-.59,1.94h1.19Z"/><path class="cls-4" d="M134.18,26.51l-.83-1.9h-.65v1.9h-1.83v-6h3.21a2,2,0,0,1,2.17,2.07,2,2,0,0,1-1.08,1.82l1.09,2.13Zm.22-4c0-.33-.29-.47-.59-.47H132.7v1h1.11C134.11,23,134.4,22.88,134.4,22.55Z"/><path class="cls-4" d="M139.22,26.51V22.08h-1.61V20.49h5v1.59h-1.6v4.43Z"/><path class="cls-4" d="M97.54,32.53a3.1,3.1,0,0,1,3.31-3.12,2.8,2.8,0,0,1,2.73,1.75l-1.57.73a1.26,1.26,0,0,0-1.16-.87,1.51,1.51,0,0,0,0,3,1.26,1.26,0,0,0,1.16-.87l1.57.72a2.84,2.84,0,0,1-2.73,1.76A3.1,3.1,0,0,1,97.54,32.53Z"/><path class="cls-4" d="M104.86,32.53a3.3,3.3,0,1,1,3.29,3.11A3.1,3.1,0,0,1,104.86,32.53Zm4.74,0a1.45,1.45,0,1,0-1.45,1.5A1.43,1.43,0,0,0,109.6,32.53Z"/><path class="cls-4" d="M117.17,35.53,115,32.48v3.05h-1.82v-6H115l2.1,2.85V29.51h1.82v6Z"/><path class="cls-4" d="M122.22,35.53V31.1H120.6V29.51h5V31.1H124v4.43Z"/><path class="cls-4" d="M130.64,35.53l-.83-1.9h-.66v1.9h-1.82v-6h3.21a2,2,0,0,1,2.16,2.07,1.92,1.92,0,0,1-1.08,1.82l1.09,2.13Zm.22-4c0-.33-.29-.47-.6-.47h-1.11v.95h1.11C130.57,32.05,130.86,31.9,130.86,31.57Z"/><path class="cls-4" d="M138.49,35.53l-.21-.7h-2.17l-.22.7h-2.06l2.22-6h2.29l2.22,6Zm-1.3-4.23-.59,1.94h1.19Z"/><path class="cls-4" d="M141.32,32.53a3.1,3.1,0,0,1,3.31-3.12,2.8,2.8,0,0,1,2.73,1.75l-1.57.73a1.26,1.26,0,0,0-1.16-.87,1.51,1.51,0,0,0,0,3,1.26,1.26,0,0,0,1.16-.87l1.57.72a2.84,2.84,0,0,1-2.73,1.76A3.11,3.11,0,0,1,141.32,32.53Z"/><path class="cls-4" d="M150.26,35.53V31.1h-1.62V29.51h5V31.1h-1.6v4.43Z"/><polygon class="cls-5" points="152.64 8.88 158.9 15.37 152.64 15.37 152.64 8.88"/><circle class="cls-6" cx="83.28" cy="66.28" r="30.75"/><circle class="cls-7" cx="83.28" cy="66.28" r="27.42"/><g class="cls-8"><path class="cls-9" d="M79.8,59.11c.53.42,6,3.74,7.66,3.56,0,.44-1.28,5.11-.33,7.68-.54,2.33-7.06,2.12-8.71-1.94C79.21,67.3,80,61.29,79.8,59.11Z"/><path class="cls-10" d="M97.38,97.59c-.29-5.66-.35-11.14.42-14.92a8.94,8.94,0,0,0-4-9.74c-1-.64-6.68-2.58-6.68-2.58s-1.41,1.66-3,1.49c-2.32-.25-5.71-3.43-5.71-3.43s-5,1.19-6.68,1.53c-5,1-7.53,5.47-8.85,9.63A111.14,111.14,0,0,0,59.77,94.9C72.3,95.74,84.84,96.76,97.38,97.59Z"/><path class="cls-11" d="M67.17,95.41c4.08-4.91,7.74-10.15,5.49-12.2-1.28-1.15-4.3-12.47-6.2-10.2A132.39,132.39,0,0,0,52.28,94.43C57.25,94.72,62.21,95.06,67.17,95.41Z"/><path class="cls-11" d="M104.73,98.06c2.2.14,4.4.23,6.59.34A134.29,134.29,0,0,0,95.85,74.48c-1.91-2.27-4.92,9-6.2,10.2-2.34,2.13,1.72,7.72,6,12.8C98.67,97.68,101.7,97.88,104.73,98.06Z"/><path class="cls-12" d="M87.45,78.93c1.91,7.09-.57,14.6-.72,17.92l3.66.26c2.15-2.09,4.53-6.32,4.9-12.5a16.19,16.19,0,0,0-1.44-7.87,14.52,14.52,0,0,1-1.14-10,16.46,16.46,0,0,0-.57-9.11c-1.45-2.14-5.35,2.2-5.4,2.28.79,2.12.49,5,0,7.68S85.77,72.73,87.45,78.93Z"/><path class="cls-9" d="M86.48,51c3-.1,5.31,1.18,5.86,4,.2,1-.55,10-5.42,11.21-2.06.51-5.84-3.12-5.92-5.49l-.1-3.28C80.79,54.31,83.3,51.12,86.48,51Z"/><path class="cls-12" d="M74.93,96l7.56.56c-.65-4-4.15-12.07-1.49-19.74,2.46-7.11.12-9.28-.63-12.29-1-3.94.65-9.1,2.28-11C84.44,51.38,88.09,51,88.09,51s5.24,1.32,3.42,9.67c2.71-2.41,3-10.18-.47-12a4.72,4.72,0,0,0-3-.53s0-1.4-2.86-2.6c-2.28-1-6.49,0-9.53,3.44a14.46,14.46,0,0,0-3.13,14.12A12.6,12.6,0,0,1,71,74.46c-2.13,3-2.26,7.06-2,9A19.94,19.94,0,0,0,74.93,96Z"/><path class="cls-9" d="M81.06,56.22a2.7,2.7,0,0,1,1.3.5,36.09,36.09,0,0,1-1.51,3.58A2.83,2.83,0,0,1,79.31,58C79.37,57.19,80.24,56.16,81.06,56.22Z"/></g><circle class="cls-6" cx="168.07" cy="66.28" r="30.75"/><circle class="cls-7" cx="168.07" cy="66.28" r="27.42"/><g class="cls-13"><path class="cls-10" d="M154.45,93.36h36.86c-.75-6.38-1.61-12-2.56-14.93-1.31-4.16-3.79-8.61-8.84-9.63-1.68-.34-7.15-1.34-7.15-1.34s-2.93,3-5.24,3.24c-1.59.17-3-1.49-3-1.49s-5.66,1.94-6.68,2.58a8.94,8.94,0,0,0-4,9.74A63.16,63.16,0,0,1,154.45,93.36Z"/><path class="cls-11" d="M185.7,93.36c.72-4.83,1.31-9.79,1.48-13.72.39-9-9-9.68-9.78-6.84a152.59,152.59,0,0,0-4.07,20.56Z"/><path class="cls-10" d="M163.19,93.36c1.87-5.15,3-9.94.55-11-1.57-.7-4.66-14.06-9.06-7.76a123.4,123.4,0,0,0-5.62,18.79Z"/><path class="cls-14" d="M164.7,62c0,.44.92,5.15-.19,7.62.37,2.35,6.84,2.57,8.75-1.32-.71-1.15-1.13-7.16-.75-9.3C172,59.36,166.28,62.27,164.7,62Z"/><path class="cls-14" d="M166.91,51.05c-2.93-.3-5.79.29-6.53,3-.26,1-.12,10,4.61,11.45,2,.64,6-2.69,6.23-5,0,0,.32-3.2.32-3.23C171.85,54.16,170.05,51.36,166.91,51.05Z"/><path class="cls-12" d="M173.84,46.7c-5.33-5.78-16.11-1.85-16.92,4.33-.18,1.37.81,4.82,14,3.26,1.35,2.37,1.5,7.36,1.5,7.36C176.51,58.61,177.92,51.12,173.84,46.7Z"/><path class="cls-14" d="M172.13,56.05a2.56,2.56,0,0,0-1.38.07,36.43,36.43,0,0,0,.31,3.84,2.84,2.84,0,0,0,2.16-1.68A2,2,0,0,0,172.13,56.05Z"/></g><circle class="cls-15" cx="14.68" cy="54.09" r="14.68"/><g class="cls-16"><polygon class="cls-12" points="9.59 56.82 23.32 70.55 32.06 60.75 18.23 46.91 14.68 47.95 9.59 56.82"/></g><path class="cls-4" d="M15.35,59.92v-3.1H9.58v-2l4.91-7.93h3.74v7.63h1.54v2.28H18.23v3.1Zm0-5.38V51.66c0-.78,0-1.58.08-2.43h-.06c-.42.85-.78,1.61-1.22,2.43L12.43,54.5l0,0Z"/></g></g></svg>