<svg xmlns="http://www.w3.org/2000/svg" xmlns:xlink="http://www.w3.org/1999/xlink" viewBox="0 0 236.68 108"><defs><style>.cls-1{fill:none;}.cls-2{fill:#f5f6fa;}.cls-3{fill:#9ee7ff;}.cls-4{fill:#afc4d5;}.cls-5{fill:#d2dbeb;}.cls-6{fill:#fcfaf8;}.cls-7{fill:#fff;}.cls-8{clip-path:url(#clip-path);}.cls-9{fill:#26db8d;}.cls-10{clip-path:url(#clip-path-2);}.cls-11{fill:#0e9de5;}.cls-12{clip-path:url(#clip-path-3);}.cls-13{fill:#041742;}</style><clipPath id="clip-path"><rect class="cls-1" x="74.42" y="20.94" width="99.14" height="62.77"/></clipPath><clipPath id="clip-path-2"><rect class="cls-1" x="171.72" y="59.55" width="19.35" height="31.79"/></clipPath><clipPath id="clip-path-3"><circle class="cls-1" cx="14.68" cy="54" r="14.68"/></clipPath></defs><title>where</title><g id="Layer_2" data-name="Layer 2"><g id="content"><rect class="cls-2" x="14.68" width="222" height="108"/><circle class="cls-3" cx="73.42" cy="36.03" r="29.6"/><circle class="cls-3" cx="179.87" cy="60.84" r="21.4"/><circle class="cls-3" cx="100.22" cy="87.6" r="15.97"/><rect class="cls-4" x="71.31" y="17.51" width="105.53" height="73.02" rx="3.57"/><path class="cls-4" d="M189.21,90.79c0,1.38-3.48,1.5-5.33,1.5H63.44c-1.85,0-5.32-.12-5.32-1.5Z"/><polygon class="cls-5" points="123.41 88.35 58.12 88.35 58.12 90.65 123.41 90.65 189.21 90.65 189.21 88.35 123.41 88.35"/><polygon class="cls-6" points="123.41 90.56 58.12 90.56 58.12 90.79 123.41 90.79 189.21 90.79 189.21 90.56 123.41 90.56"/><path class="cls-2" d="M123.41,88.35h-8.15a2.25,2.25,0,0,0,2,1.15h13.3a2.22,2.22,0,0,0,1.95-1.15Z"/><rect class="cls-7" x="74.42" y="20.94" width="99.14" height="62.77"/><g class="cls-8"><circle class="cls-9" cx="73.42" cy="36.03" r="29.6"/><circle class="cls-9" cx="179.87" cy="60.84" r="21.4"/><circle class="cls-9" cx="100.22" cy="87.6" r="15.97"/></g><rect class="cls-5" x="169.15" y="56.7" width="24.49" height="41.6" rx="2.06"/><rect class="cls-7" x="171.72" y="59.55" width="19.35" height="31.79"/><rect class="cls-4" x="178.79" y="58.08" width="5.22" height="0.51"/><circle class="cls-4" cx="181.4" cy="94.65" r="1.53"/><g class="cls-10"><circle class="cls-9" cx="179.87" cy="60.84" r="21.4"/></g><circle class="cls-11" cx="14.68" cy="54" r="14.68"/><g class="cls-12"><polygon class="cls-13" points="11.09 50.1 15.84 54.86 10.06 59.83 21.99 71.75 21.91 70.45 29.84 59.75 17.95 47.86 10.91 47.86 11.09 50.1"/></g><path class="cls-7" d="M10.07,59.83V58l1.66-1.5c2.86-2.56,4.24-4,4.26-5.54,0-1.06-.62-1.9-2.12-1.9a4.86,4.86,0,0,0-2.79,1.06l-.86-2.16a7.19,7.19,0,0,1,4.25-1.34c3,0,4.56,1.72,4.56,4.08,0,2.18-1.56,3.92-3.46,5.6l-1.2,1v0h4.92v2.51Z"/></g></g></svg>