<svg xmlns="http://www.w3.org/2000/svg" xmlns:xlink="http://www.w3.org/1999/xlink" viewBox="0 0 236.68 108"><defs><style>.cls-1{fill:none;}.cls-2{fill:#f5f6fa;}.cls-3{fill:#9ee7ff;}.cls-4,.cls-7{fill:#d2dbeb;}.cls-4{stroke:#fff;stroke-miterlimit:10;stroke-width:2px;}.cls-5{fill:#26db8d;}.cls-6{fill:#fff;}.cls-8{fill:#0e9de5;}.cls-9{clip-path:url(#clip-path);}.cls-10{fill:#041742;}</style><clipPath id="clip-path"><circle class="cls-1" cx="14.68" cy="54" r="14.68"/></clipPath></defs><title>why</title><g id="Layer_2" data-name="Layer 2"><g id="content"><rect class="cls-2" x="14.68" width="222" height="108"/><path class="cls-3" d="M236.68,94.41a147.52,147.52,0,0,0-222,.09V108h222Z"/><path class="cls-4" d="M162.57,19.2c-7.18,0-26.44-7.75-33.26-10.73l-1.82-.8-1.81.84c-6.37,3-24.74,10.69-33.17,10.69H88.1v4.41c0,50.07,35.43,75.14,36.94,76.18l2.51,1.74,2.51-1.74C131.57,98.74,167,73.59,167,23.61V19.2ZM97,27.63c10-1.53,23.7-7.25,29.65-9.88V89.8A88,88,0,0,1,97,27.63Zm31.42,62.15V17.68c6,2.54,20.18,8.23,29.65,9.88C156.62,61.67,136.56,82.63,128.43,89.78Z"/><polygon class="cls-5" points="91.19 23.1 128.43 12.51 163.16 23.1 152.45 69.68 126.66 96.16 101.44 63.4 91.19 23.1"/><polygon class="cls-6" points="128.43 15.42 160.6 24.27 155.71 56.64 127.74 96.16 128.43 15.42"/><path class="cls-7" d="M162.57,19.2c-7.18,0-26.44-7.75-33.26-10.73l-1.82-.8-1.81.84c-6.37,3-24.74,10.69-33.17,10.69H88.1v4.41c0,50.07,35.43,75.14,36.94,76.18l2.51,1.74,2.51-1.74C131.57,98.74,167,73.59,167,23.61V19.2ZM97,27.63c10-1.53,23.7-7.25,29.65-9.88V89.8A88,88,0,0,1,97,27.63Zm31.42,62.15V17.68c6,2.54,20.18,8.23,29.65,9.88C156.62,61.67,136.56,82.63,128.43,89.78Z"/><circle class="cls-8" cx="14.68" cy="54" r="14.68"/><g class="cls-9"><polygon class="cls-10" points="10.87 51.53 16.09 56.75 13.82 62.21 27.14 75.53 35.02 64.74 17.26 46.98 10.87 51.53"/></g><path class="cls-6" d="M13.82,50.15h-.05l-2.9,1.38-.59-2.67L14.33,47h2.93V62.21H13.82Z"/></g></g></svg>