<svg xmlns="http://www.w3.org/2000/svg" xmlns:xlink="http://www.w3.org/1999/xlink" viewBox="0 0 236.68 108.64"><defs><style>.cls-1{fill:none;}.cls-2{fill:#f5f6fa;}.cls-3{clip-path:url(#clip-path);}.cls-4{fill:#fff;}.cls-5{fill:#9ee7ff;}.cls-6{fill:#88dbf2;}.cls-7{fill:#26db8d;}.cls-8{fill:#6ef9b7;}.cls-9{fill:#0e9de5;}.cls-10{clip-path:url(#clip-path-2);}.cls-11{fill:#041742;}</style><clipPath id="clip-path"><rect class="cls-1" x="14.22" width="222" height="108"/></clipPath><clipPath id="clip-path-2"><circle class="cls-1" cx="14.68" cy="54" r="14.68"/></clipPath></defs><g id="Layer_2" data-name="Layer 2"><g id="Layer_1-2" data-name="Layer 1"><rect class="cls-2" x="14.68" width="222" height="108"/><g class="cls-3"><polygon class="cls-4" points="169.46 108.64 169.73 108.48 169.73 61.92 125.4 36.33 80.72 62.3 80.72 108.64 169.46 108.64"/><polygon class="cls-5" points="125.4 36.33 80.72 62.3 125.4 87.89 169.73 61.92 125.4 36.33"/><polygon class="cls-6" points="169.46 108.64 169.73 108.48 169.73 61.92 125.4 87.89 125.31 108.64 169.46 108.64"/></g><polygon class="cls-4" points="236.68 8.74 221.94 15.41 198.2 0 194.52 0 219.11 15.96 159.99 25.19 179.91 0 177.36 0 157.57 25.02 135.2 0 132.52 0 155.38 25.57 95.63 25.57 118.49 0 115.8 0 93.45 25 74.36 0 71.83 0 91.06 25.18 31.64 15.92 52.59 0 49.28 0 29.14 15.3 14.68 4.68 14.68 7.16 26.1 15.55 14.68 15.55 14.68 17.55 28.83 17.55 29.17 17.8 29.42 17.61 92.82 27.48 93.33 28.14 93.83 27.57 157.17 27.57 157.66 28.13 158.16 27.5 221.63 17.6 221.76 17.69 222.07 17.55 236.68 17.55 236.68 15.55 226.49 15.55 236.68 10.94 236.68 8.74"/><circle class="cls-5" cx="29.15" cy="16.55" r="7.62"/><circle class="cls-7" cx="93.39" cy="26.57" r="7.62"/><circle class="cls-8" cx="157.62" cy="26.57" r="7.62"/><circle class="cls-7" cx="221.85" cy="16.55" r="7.62"/><circle class="cls-9" cx="14.68" cy="54" r="14.68"/><g class="cls-10"><polygon class="cls-11" points="18.46 48.44 29.6 59.58 21.89 70.88 20.38 69.44 10.09 59.15 16.25 58.03 12.27 54.04 14.41 53.07 11.13 49.78 11.46 47.91 14.68 47.43 18.46 48.44"/></g><path class="cls-4" d="M10.71,56.84a6.88,6.88,0,0,0,3,.8c1.58,0,2.38-.76,2.38-1.72,0-1.3-1.28-1.88-2.6-1.88H12.27V51.86h1.18c1,0,2.3-.4,2.3-1.5,0-.78-.62-1.36-1.92-1.36a5.77,5.77,0,0,0-2.7.78l-.62-2.2a8.09,8.09,0,0,1,4-1c2.76,0,4.3,1.46,4.3,3.24a3.1,3.1,0,0,1-2.38,3v0a3.23,3.23,0,0,1,2.82,3.18c0,2.29-2,4-5.32,4a7.92,7.92,0,0,1-3.86-.9Z"/></g></g></svg>