<svg xmlns="http://www.w3.org/2000/svg" xmlns:xlink="http://www.w3.org/1999/xlink" viewBox="0 0 236.63 108"><defs><style>.cls-1{fill:none;}.cls-2{fill:#f5f6fa;}.cls-3{fill:#9ee7ff;}.cls-4{fill:#6ef9b7;}.cls-5{fill:#d2dbeb;}.cls-6{fill:#88dbf2;}.cls-7{fill:#fff;}.cls-8{fill:#26db8d;}.cls-9{fill:#0e9de5;}.cls-10{clip-path:url(#clip-path);}.cls-11{fill:#041742;}</style><clipPath id="clip-path"><circle class="cls-1" cx="14.68" cy="54" r="14.68"/></clipPath></defs><g id="Layer_2" data-name="Layer 2"><g id="Layer_1-2" data-name="Layer 1"><rect class="cls-2" x="14.63" width="222" height="108"/><polygon class="cls-3" points="144.62 107.78 183.85 107.78 90.04 13.96 96.34 7.66 64.12 7.66 64.12 39.88 70.42 33.58 144.62 107.78"/><polygon class="cls-4" points="67.41 107.78 106.65 107.78 180.84 33.58 187.14 39.88 187.14 7.66 154.93 7.66 161.23 13.96 67.41 107.78"/><path class="cls-5" d="M213.78,59h-3a20.3,20.3,0,0,0-5.44-4.42c-11.24-6.49-29.63-6.49-40.86,0A20.51,20.51,0,0,0,159.05,59h-2.91v6.25h0c-.54,4.64,2.22,9.39,8.34,12.92,11.23,6.49,29.62,6.49,40.86,0,6.11-3.53,8.87-8.28,8.33-12.92h.09Z"/><path class="cls-6" d="M170.34,52c-1,.33-1.93.7-2.85,1.1V79.68c.92.4,1.87.76,2.85,1.09Z"/><path class="cls-6" d="M161.8,56.43V76.35a23.59,23.59,0,0,0,2.7,1.84l.14.08V54.52l-.14.08A22.7,22.7,0,0,0,161.8,56.43Z"/><path class="cls-6" d="M176,50.55q-1.44.27-2.85.63V81.61q1.41.36,2.85.63Z"/><path class="cls-6" d="M207.39,55.93V76.88a19.6,19.6,0,0,0,2.85-2.5v-16A20.05,20.05,0,0,0,207.39,55.93Z"/><path class="cls-6" d="M213.08,69.92a10,10,0,0,0,.61-4.65h.09V59h-.7Z"/><path class="cls-6" d="M198.84,51.79c-.93-.29-1.88-.56-2.85-.79V81.79c1-.23,1.92-.5,2.85-.79Z"/><path class="cls-6" d="M159,73.66V59h-2.81v6.25h0A11,11,0,0,0,159,73.66Z"/><path class="cls-6" d="M204.54,54.17c-.91-.48-1.86-.93-2.85-1.34V80a31.08,31.08,0,0,0,2.85-1.34Z"/><path class="cls-6" d="M181.74,49.85c-1,.06-1.9.15-2.85.26V82.68q1.43.18,2.85.27Z"/><path class="cls-6" d="M187.44,83V49.81q-1.42-.08-2.85-.06v33.3C185.54,83.05,186.49,83,187.44,83Z"/><path class="cls-6" d="M193.14,50.42q-1.41-.24-2.85-.39V82.77c1-.11,1.91-.23,2.85-.39Z"/><path class="cls-3" d="M205.36,46.33c-11.24-6.49-29.63-6.49-40.86,0s-11.24,17.1,0,23.59,29.62,6.49,40.86,0S216.59,52.82,205.36,46.33Z"/><path class="cls-7" d="M203.32,47c-10.12-5.84-26.67-5.84-36.79,0s-10.11,15.4,0,21.24,26.67,5.84,36.79,0S213.44,52.82,203.32,47Z"/><path class="cls-6" d="M201.06,48.21c-8.87-5-23.39-5-32.27,0s-8.88,13.27,0,18.3,23.4,5,32.27,0S209.94,53.24,201.06,48.21Z"/><path class="cls-5" d="M95.2,59h-3a20.3,20.3,0,0,0-5.44-4.42c-11.24-6.49-29.62-6.49-40.86,0A20.51,20.51,0,0,0,40.46,59h-2.9v6.25h0c-.53,4.64,2.23,9.39,8.34,12.92,11.24,6.49,29.62,6.49,40.86,0,6.11-3.53,8.87-8.28,8.33-12.92h.1Z"/><path class="cls-4" d="M51.76,52c-1,.33-1.93.7-2.85,1.1V79.68c.92.4,1.87.76,2.85,1.09Z"/><path class="cls-4" d="M43.21,56.43V76.35a23.59,23.59,0,0,0,2.7,1.84l.15.08V54.52l-.15.08A22.7,22.7,0,0,0,43.21,56.43Z"/><path class="cls-4" d="M57.45,50.55c-1,.18-1.91.39-2.84.63V81.61c.93.24,1.88.45,2.84.63Z"/><path class="cls-4" d="M88.8,55.93V76.88a19.6,19.6,0,0,0,2.85-2.5v-16A19.51,19.51,0,0,0,88.8,55.93Z"/><path class="cls-4" d="M94.5,69.92a10.09,10.09,0,0,0,.6-4.65h.1V59h-.7Z"/><path class="cls-4" d="M80.25,51.79c-.93-.29-1.88-.56-2.85-.79V81.79c1-.23,1.92-.5,2.85-.79Z"/><path class="cls-4" d="M40.36,73.66V59h-2.8v6.25h0A11,11,0,0,0,40.36,73.66Z"/><path class="cls-4" d="M86,54.17c-.91-.48-1.86-.93-2.85-1.34V80A31.08,31.08,0,0,0,86,78.62Z"/><path class="cls-4" d="M63.15,49.85c-.95.06-1.9.15-2.85.26V82.68q1.43.18,2.85.27Z"/><path class="cls-4" d="M68.85,83V49.81q-1.42-.08-2.85-.06v33.3C67,83.05,67.9,83,68.85,83Z"/><path class="cls-4" d="M74.55,50.42q-1.41-.24-2.85-.39V82.77c1-.11,1.91-.23,2.85-.39Z"/><path class="cls-8" d="M86.77,46.33c-11.24-6.49-29.62-6.49-40.86,0s-11.24,17.1,0,23.59,29.62,6.49,40.86,0S98,52.82,86.77,46.33Z"/><path class="cls-7" d="M84.73,47C74.62,41.14,58.06,41.14,48,47s-10.12,15.4,0,21.24,26.67,5.84,36.78,0S94.85,52.82,84.73,47Z"/><path class="cls-4" d="M82.48,48.21c-8.88-5-23.4-5-32.28,0s-8.87,13.27,0,18.3,23.4,5,32.28,0S91.35,53.24,82.48,48.21Z"/><circle class="cls-9" cx="14.68" cy="54" r="14.68"/><g class="cls-10"><polygon class="cls-11" points="11.09 50.1 15.84 54.86 10.06 59.83 21.99 71.75 21.91 70.45 29.84 59.75 17.95 47.86 10.91 47.86 11.09 50.1"/></g><path class="cls-7" d="M10.07,59.83V58l1.66-1.5c2.86-2.56,4.24-4,4.26-5.54,0-1.06-.62-1.9-2.12-1.9a4.86,4.86,0,0,0-2.79,1.06l-.86-2.16a7.19,7.19,0,0,1,4.25-1.34c3,0,4.56,1.72,4.56,4.08,0,2.18-1.56,3.92-3.46,5.6l-1.2,1v0h4.92v2.51Z"/></g></g></svg>