<svg xmlns="http://www.w3.org/2000/svg" xmlns:xlink="http://www.w3.org/1999/xlink" viewBox="0 0 236.63 108.42"><defs><style>.cls-1,.cls-8,.cls-9{fill:none;}.cls-2{fill:#f5f6fa;}.cls-3{fill:#0e9de5;}.cls-4{clip-path:url(#clip-path);}.cls-5{fill:#041742;}.cls-6{fill:#fff;}.cls-7{fill:#d2dbeb;}.cls-8{stroke:#6ef9b7;}.cls-8,.cls-9{stroke-linecap:round;stroke-linejoin:round;stroke-width:2px;}.cls-9{stroke:#88dbf2;}.cls-10{fill:#6ef9b7;}.cls-11{fill:#88dbf2;}</style><clipPath id="clip-path"><circle class="cls-1" cx="14.68" cy="54.21" r="14.68"/></clipPath></defs><title>UTXOvsACC</title><g id="Layer_2" data-name="Layer 2"><g id="Layer_1-2" data-name="Layer 1"><rect class="cls-2" x="13.77" width="222.86" height="108.42"/><circle class="cls-3" cx="14.68" cy="54.21" r="14.68"/><g class="cls-4"><polygon class="cls-5" points="10.87 51.74 16.09 56.96 13.82 62.42 27.14 75.74 35.02 64.94 17.26 47.19 10.87 51.74"/></g><path class="cls-6" d="M13.82,50.35h-.05l-2.9,1.39-.59-2.68,4.05-1.87h2.93V62.42H13.82Z"/><rect class="cls-7" x="118.34" y="31.71" width="13.68" height="76.71"/><rect class="cls-7" x="65.65" y="23.2" width="119.06" height="8.47" rx="4.24" transform="translate(-2.51 16.55) rotate(-7.49)"/><circle class="cls-7" cx="125.18" cy="27.43" r="13.05"/><polyline class="cls-8" points="53.67 86.41 70.28 34.12 86.9 86.41"/><polyline class="cls-9" points="163.5 71.8 180.12 19.51 196.74 71.8"/><circle class="cls-7" cx="125.18" cy="12.43" r="4.4"/><path class="cls-10" d="M47.32,80.54a23,23,0,0,0,45.93,0Z"/><path class="cls-11" d="M157.15,65.8a23,23,0,0,0,45.94,0Z"/></g></g></svg>