<svg xmlns="http://www.w3.org/2000/svg" xmlns:xlink="http://www.w3.org/1999/xlink" viewBox="0 0 236.63 108"><defs><style>.cls-1{fill:none;}.cls-2{fill:#f5f6fa;}.cls-3{fill:#0e9de5;}.cls-4{clip-path:url(#clip-path);}.cls-5{fill:#041742;}.cls-6{fill:#fff;}.cls-7{fill:#6ef9b7;}.cls-8{fill:#9ee7ff;}.cls-9{fill:#d2dbeb;}.cls-10{fill:#26db8d;}</style><clipPath id="clip-path"><circle class="cls-1" cx="14.68" cy="54" r="14.68"/></clipPath></defs><title>AtomicSw</title><g id="Layer_2" data-name="Layer 2"><g id="Layer_1-2" data-name="Layer 1"><rect class="cls-2" x="14.63" width="222" height="108"/><circle class="cls-3" cx="14.68" cy="54" r="14.68"/><g class="cls-4"><polygon class="cls-5" points="18.46 48.44 29.6 59.58 21.89 70.88 20.38 69.44 10.09 59.15 16.25 58.03 12.27 54.04 14.41 53.07 11.13 49.78 11.46 47.91 14.68 47.43 18.46 48.44"/></g><path class="cls-6" d="M10.71,56.84a6.88,6.88,0,0,0,3,.8c1.58,0,2.38-.76,2.38-1.72,0-1.3-1.28-1.88-2.6-1.88H12.27V51.86h1.18c1,0,2.3-.4,2.3-1.5,0-.78-.62-1.36-1.92-1.36a5.77,5.77,0,0,0-2.7.78l-.62-2.2a8.09,8.09,0,0,1,4-1c2.76,0,4.3,1.46,4.3,3.24a3.1,3.1,0,0,1-2.38,3v0a3.23,3.23,0,0,1,2.82,3.18c0,2.29-2,4-5.32,4a7.92,7.92,0,0,1-3.86-.9Z"/><polygon class="cls-7" points="224.63 39.48 205.51 20.35 205.51 27.83 156.68 27.83 156.68 51.12 205.51 51.12 205.51 58.6 224.63 39.48"/><polygon class="cls-8" points="156.68 77.22 175.8 96.35 175.8 88.87 224.63 88.87 224.63 65.58 175.8 65.58 175.8 58.1 156.68 77.22"/><rect class="cls-9" x="61.35" y="8.83" width="78.35" height="99.17"/><rect class="cls-6" x="56.16" y="4.56" width="79.28" height="103.44"/><rect class="cls-10" x="56.16" y="4.56" width="79.28" height="8.55"/><path class="cls-7" d="M109,41.34l2.23-.53-1.1-4.71-2.23.52a13.27,13.27,0,0,0-3.22-4.47l1.21-1.95-4.11-2.55-1.21,2a13.1,13.1,0,0,0-4.24-.89,11,11,0,0,0-1.15,0h0l-.52-2.23-4.72,1.1.53,2.24a11.66,11.66,0,0,0-1.32.67A12.74,12.74,0,0,0,86,33l-2-1.21L81.5,35.93l1.94,1.21a13.4,13.4,0,0,0-.89,5.43l-2.23.53,1.11,4.71,2.23-.52a13.24,13.24,0,0,0,3.21,4.47l-1.21,2,4.11,2.55L91,54.31a13.21,13.21,0,0,0,5.43.89l.52,2.23,4.71-1.1-.52-2.24a13.54,13.54,0,0,0,1.32-.66,13,13,0,0,0,3.15-2.55l2,1.21L110.1,48l-1.95-1.21A13.24,13.24,0,0,0,109,41.34Zm-8.33,9.09a9.66,9.66,0,0,1-2.68,1,9.79,9.79,0,0,1-7.14-18,9.93,9.93,0,0,1,2.67-1.06,10.71,10.71,0,0,1,1.66-.24,11,11,0,0,1,1.15,0,9.79,9.79,0,0,1,4.34,18.25Z"/><circle class="cls-8" cx="95.8" cy="41.95" r="6.04"/><rect class="cls-7" x="69.18" y="72.46" width="53.23" height="2.52"/><rect class="cls-7" x="69.18" y="78.84" width="53.23" height="2.52"/><rect class="cls-7" x="69.18" y="85.22" width="53.23" height="2.52"/><rect class="cls-7" x="69.18" y="91.59" width="53.23" height="2.52"/></g></g></svg>