<svg xmlns="http://www.w3.org/2000/svg" xmlns:xlink="http://www.w3.org/1999/xlink" viewBox="0 0 236.63 108"><defs><style>.cls-1{fill:none;}.cls-2{fill:#f5f6fa;}.cls-3{fill:#0e9de5;}.cls-4{clip-path:url(#clip-path);}.cls-5{fill:#041742;}.cls-6{fill:#fff;}.cls-7{fill:#6ef9b7;}.cls-8{fill:#26db8d;}.cls-9{fill:#9ee7ff;}.cls-10{fill:#d2dbeb;}.cls-11{fill:#88dbf2;}</style><clipPath id="clip-path"><circle class="cls-1" cx="14.68" cy="54" r="14.68"/></clipPath></defs><title>block-explorer</title><g id="Layer_2" data-name="Layer 2"><g id="Layer_1-2" data-name="Layer 1"><rect class="cls-2" x="14.63" width="222" height="108"/><circle class="cls-3" cx="14.68" cy="54" r="14.68"/><g class="cls-4"><polygon class="cls-5" points="11.09 50.1 15.84 54.86 10.06 59.83 21.99 71.75 21.91 70.45 29.84 59.75 17.95 47.86 10.91 47.86 11.09 50.1"/></g><path class="cls-6" d="M10.07,59.83V58l1.66-1.5c2.86-2.56,4.24-4,4.26-5.54,0-1.06-.62-1.9-2.12-1.9a4.86,4.86,0,0,0-2.79,1.06l-.86-2.16a7.19,7.19,0,0,1,4.25-1.34c3,0,4.56,1.72,4.56,4.08,0,2.18-1.56,3.92-3.46,5.6l-1.2,1v0h4.92v2.51Z"/><polygon class="cls-6" points="174.36 108 174.36 52.47 106.26 13.16 37.62 53.05 37.62 108 174.36 108"/><polygon class="cls-7" points="106.26 13.16 37.62 53.05 106.26 92.36 174.36 52.47 106.26 13.16"/><polygon class="cls-8" points="174.36 108 174.36 52.47 106.26 92.36 106.21 108 174.36 108"/><path class="cls-9" d="M124,50.1c15.19-9.39,40-9.39,55.23,0s15.18,24.77,0,34.17-40,9.39-55.23,0S108.85,59.5,124,50.1Z"/><path class="cls-10" d="M111.16,62.66v6.26h0c0,7,4.43,13.42,12.47,18.07,7.61,4.39,17.61,6.59,27.61,6.59s20-2.2,27.62-6.59c8-4.65,12.47-11.06,12.47-18.07V62.66l-1.19.11c-1.82-4.57-5.66-8.68-11.28-11.92-15.23-8.79-40-8.79-55.23,0-5.62,3.25-9.47,7.36-11.28,11.93Zm7.39,6.26c0-4.27,3.12-8.42,8.79-11.69,6.49-3.75,15.21-5.62,23.93-5.62s17.45,1.87,23.94,5.62c5.67,3.27,8.79,7.42,8.79,11.69s-3.12,8.42-8.79,11.69c-13,7.49-34.9,7.49-47.87,0C121.67,77.34,118.55,73.19,118.55,68.92Z"/><path class="cls-6" d="M151.93,68.71C146.17,72,136.75,72,131,68.71s-5.75-8.77,0-12.09,15.18-3.32,20.94,0S157.68,65.38,151.93,68.71Z"/><path class="cls-6" d="M123.66,80.73c-8-4.64-12.47-11.06-12.47-18.07s4.43-13.42,12.47-18.07c15.23-8.79,40-8.79,55.23,0,8,4.65,12.47,11.06,12.47,18.07s-4.43,13.43-12.47,18.07h0c-7.62,4.4-17.61,6.59-27.62,6.59S131.27,85.13,123.66,80.73ZM127.34,51c-5.67,3.27-8.79,7.42-8.79,11.69s3.12,8.42,8.79,11.7c13,7.49,34.89,7.49,47.87,0h0c5.67-3.28,8.79-7.43,8.79-11.7s-3.12-8.42-8.79-11.69c-6.49-3.75-15.21-5.62-23.94-5.62S133.83,47.22,127.34,51Z"/><path class="cls-11" d="M211.12,106.87a3.52,3.52,0,0,0,1.76-6.57l-32.94-19c-1.68-1-5.82,3-3.52,6.09l32.94,19A3.52,3.52,0,0,0,211.12,106.87Z"/><path class="cls-9" d="M203.79,108H233.3L189,82.49c-3.52-2-12.17,6.36-7.36,12.75Z"/></g></g></svg>