<svg xmlns="http://www.w3.org/2000/svg" xmlns:xlink="http://www.w3.org/1999/xlink" viewBox="0 0 236.63 108"><defs><style>.cls-1{fill:none;}.cls-2{fill:#f5f6fa;}.cls-3{fill:#0e9de5;}.cls-4{clip-path:url(#clip-path);}.cls-5{fill:#041742;}.cls-6{fill:#fff;}.cls-7{fill:#26db8d;}.cls-8{fill:#9ee7ff;}.cls-9{fill:#88dbf2;}</style><clipPath id="clip-path"><circle class="cls-1" cx="14.68" cy="54" r="14.68"/></clipPath></defs><title>UTXO</title><g id="Layer_2" data-name="Layer 2"><g id="Layer_1-2" data-name="Layer 1"><rect class="cls-2" x="14.63" width="222" height="108"/><circle class="cls-3" cx="14.68" cy="54" r="14.68"/><g class="cls-4"><polygon class="cls-5" points="10.87 51.53 16.09 56.75 13.82 62.21 27.14 75.53 35.02 64.74 17.26 46.98 10.87 51.53"/></g><path class="cls-6" d="M13.82,50.15h-.05l-2.9,1.38-.59-2.67L14.33,47h2.93V62.21H13.82Z"/><path class="cls-7" d="M209.31,37.88l5.21-1.22-2.58-11-5.21,1.23a31,31,0,0,0-7.5-10.44l2.82-4.55-9.6-6-2.83,4.55a31,31,0,0,0-9.88-2.08c-.89,0-1.79,0-2.69,0h-.11l-1.22-5.22-11,2.58L165.94,11a29.46,29.46,0,0,0-3.07,1.56,30.59,30.59,0,0,0-7.37,5.93L151,15.66,145,25.26l4.54,2.82a31,31,0,0,0-2.07,12.69L142.26,42l2.58,11,5.21-1.22a30.68,30.68,0,0,0,7.5,10.44l-2.83,4.55,9.6,6,2.83-4.56a30.63,30.63,0,0,0,12.69,2.08l1.22,5.22,11-2.58-1.23-5.21a31.89,31.89,0,0,0,3.09-1.56,31,31,0,0,0,7.35-5.94L205.83,63l5.95-9.61-4.55-2.82A30.75,30.75,0,0,0,209.31,37.88ZM178.39,58a18.7,18.7,0,1,1,18.69-18.7A18.7,18.7,0,0,1,178.39,58Z"/><path class="cls-8" d="M174.43,108V44.54a9.76,9.76,0,0,0-9.73-9.73h-105A9.75,9.75,0,0,0,50,44.54V108Z"/><rect class="cls-9" x="138.27" y="77.34" width="40.11" height="21.7" rx="5.4"/><circle class="cls-6" cx="148.96" cy="87.79" r="5.08"/></g></g></svg>