<svg xmlns="http://www.w3.org/2000/svg" xmlns:xlink="http://www.w3.org/1999/xlink" viewBox="0 0 236.63 108"><defs><style>.cls-1{fill:none;}.cls-2{fill:#f5f6fa;}.cls-3{fill:#0e9de5;}.cls-4{clip-path:url(#clip-path);}.cls-5{fill:#041742;}.cls-6{fill:#fff;}.cls-7{fill:#6ef9b7;}.cls-8{fill:#26db8d;}.cls-9{fill:#d2dbeb;}.cls-10{fill:#9ee7ff;}.cls-11{fill:#88dbf2;}</style><clipPath id="clip-path"><circle class="cls-1" cx="14.68" cy="54" r="14.68"/></clipPath></defs><title>Strong-password</title><g id="Layer_2" data-name="Layer 2"><g id="Layer_1-2" data-name="Layer 1"><rect class="cls-2" x="14.63" width="222" height="108"/><circle class="cls-3" cx="14.68" cy="54" r="14.68"/><g class="cls-4"><polygon class="cls-5" points="10.87 51.53 16.09 56.75 13.82 62.21 27.14 75.53 35.02 64.74 17.26 46.98 10.87 51.53"/></g><path class="cls-6" d="M13.82,50.15h-.05l-2.9,1.38-.59-2.67L14.33,47h2.93V62.21H13.82Z"/><path class="cls-7" d="M125.63,58.33a27.18,27.18,0,1,1,27.18-27.17A27.2,27.2,0,0,1,125.63,58.33Zm0-46.61a19.44,19.44,0,1,0,19.44,19.44A19.46,19.46,0,0,0,125.63,11.72Z"/><rect class="cls-7" x="94.72" y="31.16" width="61.83" height="55.34" rx="0.95"/><path class="cls-8" d="M133.76,53.83a8.13,8.13,0,1,0-12.13,7V68a4,4,0,1,0,8,0V60.86A8.09,8.09,0,0,0,133.76,53.83Z"/><rect class="cls-9" x="58.5" y="68.35" width="140.27" height="34.41" rx="7.24"/><rect class="cls-6" x="55.5" y="65.35" width="140.27" height="34.41" rx="7.24"/><rect class="cls-10" x="65.05" y="91.41" width="16.04" height="1.81"/><rect class="cls-10" x="91.25" y="91.41" width="16.04" height="1.81"/><rect class="cls-10" x="117.44" y="91.41" width="16.04" height="1.81"/><rect class="cls-10" x="143.64" y="91.41" width="16.04" height="1.81"/><rect class="cls-10" x="169.83" y="91.41" width="16.04" height="1.81"/><polygon class="cls-11" points="79.54 77.79 77.95 75.59 74.42 78.14 74.42 73.79 71.71 73.79 71.71 78.14 68.19 75.59 66.6 77.79 70.76 80.79 66.6 83.8 68.19 86 71.71 83.45 71.71 87.8 74.42 87.8 74.42 83.45 77.95 86 79.54 83.8 75.38 80.79 79.54 77.79"/><polygon class="cls-11" points="105.73 77.79 104.14 75.59 100.62 78.14 100.62 73.79 97.91 73.79 97.91 78.14 94.39 75.59 92.8 77.79 96.95 80.79 92.8 83.8 94.39 86 97.91 83.45 97.91 87.8 100.62 87.8 100.62 83.45 104.14 86 105.73 83.8 101.58 80.79 105.73 77.79"/><polygon class="cls-11" points="131.93 77.79 130.34 75.59 126.81 78.14 126.81 73.79 124.11 73.79 124.11 78.14 120.58 75.59 118.99 77.79 123.15 80.79 118.99 83.8 120.58 86 124.11 83.45 124.11 87.8 126.81 87.8 126.81 83.45 130.34 86 131.93 83.8 127.77 80.79 131.93 77.79"/><polygon class="cls-11" points="158.12 77.79 156.53 75.59 153.01 78.14 153.01 73.79 150.3 73.79 150.3 78.14 146.78 75.59 145.19 77.79 149.34 80.79 145.19 83.8 146.78 86 150.3 83.45 150.3 87.8 153.01 87.8 153.01 83.45 156.53 86 158.12 83.8 153.97 80.79 158.12 77.79"/><polygon class="cls-11" points="184.32 77.79 182.73 75.59 179.21 78.14 179.21 73.79 176.5 73.79 176.5 78.14 172.97 75.59 171.38 77.79 175.54 80.79 171.38 83.8 172.97 86 176.5 83.45 176.5 87.8 179.21 87.8 179.21 83.45 182.73 86 184.32 83.8 180.16 80.79 184.32 77.79"/></g></g></svg>