<svg xmlns="http://www.w3.org/2000/svg" xmlns:xlink="http://www.w3.org/1999/xlink" viewBox="0 0 205.88 96.27"><defs><style>.cls-1{fill:none;}.cls-2{fill:#f5f6fa;}.cls-3{clip-path:url(#clip-path);}.cls-4{fill:#fff;}.cls-5{fill:#6ef9b7;}.cls-6{fill:#26db8d;}.cls-7{fill:#afc4d5;}.cls-8{fill:#9ee7ff;}.cls-9{fill:#0e9de5;}.cls-10{clip-path:url(#clip-path-2);}.cls-11{fill:#041742;}</style><clipPath id="clip-path" transform="translate(0 1.55)"><rect class="cls-1" x="12.71" width="193.38" height="94.07"/></clipPath><clipPath id="clip-path-2" transform="translate(0 1.55)"><circle class="cls-1" cx="12.5" cy="47.04" r="12.5"/></clipPath></defs><title>1BC</title><g id="Layer_2" data-name="Layer 2"><g id="Layer_1-2" data-name="Layer 1"><rect class="cls-2" x="12.5" y="1.55" width="193.38" height="94.07"/><g class="cls-3"><polygon class="cls-4" points="153.51 96.27 153.51 60.45 109.58 35.08 65.3 60.82 65.3 96.27 153.51 96.27"/><polygon class="cls-5" points="109.58 35.08 65.3 60.82 109.58 86.18 153.51 60.45 109.58 35.08"/><polygon class="cls-6" points="153.51 96.27 153.51 60.45 109.58 86.18 109.54 96.27 153.51 96.27"/><path class="cls-7" d="M109.83,35.29c-2.23,0-4,1.24-4,2.76v5.68c0,1.52,1.81,2.76,4,2.76s4-1.24,4-2.76V38.05C113.86,36.53,112.05,35.29,109.83,35.29Zm2.07,7.92c0,.78-.93,1.42-2.07,1.42s-2.08-.64-2.08-1.42V38.57c0-.78.93-1.42,2.08-1.42s2.07.64,2.07,1.42Z" transform="translate(0 1.55)"/><path class="cls-7" d="M109.83,46.28c-2.23,0-4,1.24-4,2.75v5.69c0,1.51,1.81,2.75,4,2.75s4-1.24,4-2.75V49C113.86,47.52,112.05,46.28,109.83,46.28Zm2.07,7.92c0,.77-.93,1.41-2.07,1.41s-2.08-.64-2.08-1.41V49.55c0-.77.93-1.41,2.08-1.41s2.07.64,2.07,1.41Z" transform="translate(0 1.55)"/><rect class="cls-7" x="108.68" y="55.6" width="2.3" height="6.41" rx="0.83"/><rect class="cls-7" x="108.68" y="44.83" width="2.3" height="6.41" rx="0.83"/><polygon class="cls-4" points="65.3 0 65.3 15.08 109.4 40.44 153.51 14.71 153.51 0 65.3 0"/><polygon class="cls-8" points="109.54 0 109.4 40.44 153.51 14.71 153.51 0 109.54 0"/></g><circle class="cls-9" cx="12.5" cy="48.58" r="12.5"/><g class="cls-10"><polygon class="cls-11" points="9.26 46.48 13.71 50.93 11.77 55.58 23.11 66.92 29.83 57.73 14.7 42.61 9.26 46.48"/></g><path class="cls-4" d="M11.77,43.75h0L9.26,44.93l-.5-2.27,3.45-1.6H14.7V54H11.77Z" transform="translate(0 1.55)"/></g></g></svg>