<svg xmlns="http://www.w3.org/2000/svg" xmlns:xlink="http://www.w3.org/1999/xlink" viewBox="0 0 205.88 94.07"><defs><style>.cls-1{fill:none;}.cls-2{fill:#f5f6fa;}.cls-3{fill:#d2dbeb;}.cls-4{fill:#88dbf2;}.cls-5{fill:#9ee7ff;}.cls-6{fill:#6ef9b7;}.cls-7{fill:#26db8d;}.cls-8{fill:#fff;}.cls-9{fill:#0e9de5;}.cls-10{clip-path:url(#clip-path);}.cls-11{fill:#041742;}</style><clipPath id="clip-path"><circle class="cls-1" cx="12.5" cy="47.04" r="12.5"/></clipPath></defs><title>2CC</title><g id="Layer_2" data-name="Layer 2"><g id="Layer_1-2" data-name="Layer 1"><rect class="cls-2" x="12.5" width="193.38" height="94.07"/><path class="cls-3" d="M205.88,94.07V77.56A165.7,165.7,0,0,0,25.32,94.07Z"/><path class="cls-3" d="M169.63,56.87H165.8a26.53,26.53,0,0,0-7-5.69c-14.46-8.34-38.11-8.34-52.57,0a26.31,26.31,0,0,0-7,5.69H95.47v8h0c-.69,6,2.86,12.08,10.72,16.62,14.46,8.35,38.11,8.35,52.57,0,7.87-4.54,11.42-10.65,10.72-16.62h.12Z"/><path class="cls-4" d="M113.74,47.87q-1.89.63-3.66,1.41V83.44q1.77.78,3.66,1.41Z"/><path class="cls-4" d="M102.75,53.54V79.17a29.2,29.2,0,0,0,3.47,2.36l.19.1V51.09l-.19.09A31.37,31.37,0,0,0,102.75,53.54Z"/><path class="cls-4" d="M121.08,46c-1.25.23-2.47.5-3.67.81V85.94c1.2.31,2.42.58,3.67.81Z"/><path class="cls-4" d="M161.4,52.89v27a24.93,24.93,0,0,0,3.67-3.22V56.09A24.77,24.77,0,0,0,161.4,52.89Z"/><path class="cls-4" d="M168.73,70.89a12.73,12.73,0,0,0,.78-6h.12v-8h-.9Z"/><path class="cls-4" d="M150.4,47.57q-1.78-.57-3.66-1V86.17q1.88-.45,3.66-1Z"/><path class="cls-4" d="M99.08,75.7V56.87H95.47v8h0A14.16,14.16,0,0,0,99.08,75.7Z"/><path class="cls-4" d="M157.73,50.63c-1.17-.62-2.39-1.2-3.66-1.72v34.9c1.27-.52,2.49-1.1,3.66-1.72Z"/><path class="cls-4" d="M128.41,45.07c-1.23.07-2.45.19-3.67.34v41.9c1.22.15,2.44.26,3.67.34Z"/><path class="cls-4" d="M135.74,87.71V45c-1.22-.06-2.44-.08-3.67-.07V87.78C133.3,87.79,134.52,87.77,135.74,87.71Z"/><path class="cls-4" d="M143.07,45.8c-1.21-.2-2.43-.37-3.66-.5V87.42c1.23-.13,2.45-.3,3.66-.5Z"/><path class="cls-5" d="M158.79,40.54c-14.46-8.34-38.11-8.34-52.57,0s-14.45,22,0,30.35,38.11,8.35,52.57,0S173.25,48.89,158.79,40.54Z"/><path class="cls-6" d="M156.17,41.38c-13-7.52-34.31-7.52-47.33,0s-13,19.81,0,27.32,34.32,7.52,47.33,0S169.19,48.89,156.17,41.38Z"/><path class="cls-7" d="M153.27,43c-11.42-6.47-30.11-6.47-41.53,0s-11.41,17.07,0,23.55,30.11,6.47,41.53,0S164.69,49.44,153.27,43Z"/><polygon class="cls-8" points="131.34 46.33 128.74 47.85 115.39 49.48 120.68 52.53 117.68 54.27 108.36 48.89 110.97 47.37 124.3 45.73 119.26 42.82 122.25 41.08 131.34 46.33"/><polygon class="cls-8" points="142.66 52.87 139.67 54.61 133.7 51.16 131.42 52.49 136.51 55.43 133.52 57.17 128.42 54.23 126.03 55.62 131.99 59.07 129 60.81 119.65 55.41 133.31 47.47 142.66 52.87"/><polygon class="cls-8" points="155.79 60.45 142.13 68.39 139.18 66.68 141.64 60.15 134.77 64.14 131.39 62.19 145.05 54.25 148.01 55.95 145.54 62.49 152.41 58.5 155.79 60.45"/><path class="cls-3" d="M158.93,42.28H155.1a26.53,26.53,0,0,0-7-5.69c-14.46-8.34-38.11-8.34-52.57,0a26.48,26.48,0,0,0-7,5.69H84.77v8h0c-.69,6,2.86,12.08,10.72,16.62,14.46,8.35,38.11,8.35,52.57,0,7.87-4.54,11.42-10.65,10.72-16.62h.12Z"/><path class="cls-4" d="M103,33.28q-1.89.63-3.66,1.41V68.85q1.77.78,3.66,1.41Z"/><path class="cls-4" d="M92.05,39V64.58a29.2,29.2,0,0,0,3.47,2.36l.19.1V36.49l-.19.1A31.37,31.37,0,0,0,92.05,39Z"/><path class="cls-4" d="M110.38,31.38c-1.25.23-2.47.5-3.67.81V71.35c1.2.3,2.42.58,3.67.81Z"/><path class="cls-4" d="M150.7,38.3v27A24.93,24.93,0,0,0,154.37,62V41.5A24.77,24.77,0,0,0,150.7,38.3Z"/><path class="cls-4" d="M158,56.3a12.73,12.73,0,0,0,.78-6h.12v-8H158Z"/><path class="cls-4" d="M139.7,33q-1.78-.57-3.66-1V71.58q1.88-.45,3.66-1Z"/><path class="cls-4" d="M88.38,61.11V42.28H84.77v8h0A14.16,14.16,0,0,0,88.38,61.11Z"/><path class="cls-4" d="M147,36c-1.18-.62-2.4-1.2-3.67-1.72v34.9A39.82,39.82,0,0,0,147,67.49Z"/><path class="cls-4" d="M117.71,30.48c-1.23.07-2.45.19-3.67.34v41.9c1.22.15,2.44.26,3.67.34Z"/><path class="cls-4" d="M125,73.12V30.42c-1.22-.06-2.44-.08-3.67-.07V73.19C122.6,73.2,123.82,73.18,125,73.12Z"/><path class="cls-4" d="M132.37,31.21c-1.21-.21-2.43-.37-3.66-.5V72.83c1.23-.13,2.45-.3,3.66-.5Z"/><path class="cls-5" d="M148.09,26c-14.46-8.34-38.11-8.34-52.57,0s-14.45,22,0,30.35,38.11,8.35,52.57,0S162.55,34.3,148.09,26Z"/><path class="cls-6" d="M145.47,26.79c-13-7.52-34.31-7.52-47.33,0s-13,19.81,0,27.32,34.32,7.51,47.33,0S158.49,34.3,145.47,26.79Z"/><path class="cls-7" d="M142.57,28.37c-11.42-6.47-30.11-6.47-41.53,0s-11.41,17.07,0,23.55,30.11,6.47,41.53,0S154,34.85,142.57,28.37Z"/><polygon class="cls-8" points="120.64 31.74 118.04 33.26 104.69 34.89 109.98 37.94 106.98 39.68 97.66 34.3 100.27 32.78 113.6 31.14 108.56 28.23 111.55 26.49 120.64 31.74"/><polygon class="cls-8" points="131.96 38.28 128.97 40.02 123 36.57 120.72 37.9 125.81 40.84 122.82 42.58 117.72 39.64 115.33 41.03 121.29 44.48 118.3 46.22 108.95 40.82 122.61 32.88 131.96 38.28"/><polygon class="cls-8" points="145.09 45.86 131.43 53.8 128.48 52.09 130.94 45.56 124.07 49.55 120.69 47.6 134.35 39.66 137.31 41.37 134.84 47.9 141.71 43.91 145.09 45.86"/><path class="cls-3" d="M169.63,27.69H165.8a26.34,26.34,0,0,0-7-5.69c-14.46-8.34-38.11-8.34-52.57,0a26.12,26.12,0,0,0-7,5.69H95.47v8h0c-.69,6,2.86,12.09,10.72,16.63,14.46,8.35,38.11,8.35,52.57,0,7.87-4.54,11.42-10.65,10.72-16.63h.12Z"/><path class="cls-4" d="M113.74,18.68q-1.89.64-3.66,1.41V54.26q1.77.78,3.66,1.41Z"/><path class="cls-4" d="M102.75,24.36V50a29.2,29.2,0,0,0,3.47,2.36l.19.1V21.9l-.19.1A30,30,0,0,0,102.75,24.36Z"/><path class="cls-4" d="M121.08,16.79c-1.25.23-2.47.5-3.67.81V56.76c1.2.3,2.42.58,3.67.81Z"/><path class="cls-4" d="M161.4,23.71v27a24.93,24.93,0,0,0,3.67-3.22V26.91A24.77,24.77,0,0,0,161.4,23.71Z"/><path class="cls-4" d="M168.73,41.71a12.76,12.76,0,0,0,.78-6h.12v-8h-.9Z"/><path class="cls-4" d="M150.4,18.39q-1.78-.57-3.66-1V57c1.25-.3,2.47-.65,3.66-1Z"/><path class="cls-4" d="M99.08,46.52V27.69H95.47v8h0A14.17,14.17,0,0,0,99.08,46.52Z"/><path class="cls-4" d="M157.73,21.45c-1.17-.62-2.39-1.2-3.66-1.72v34.9a38.45,38.45,0,0,0,3.66-1.73Z"/><path class="cls-4" d="M128.41,15.89c-1.23.07-2.45.19-3.67.34v41.9c1.22.15,2.44.26,3.67.34Z"/><path class="cls-4" d="M135.74,58.52V15.83c-1.22-.06-2.44-.08-3.67-.08V58.6C133.3,58.61,134.52,58.58,135.74,58.52Z"/><path class="cls-4" d="M143.07,16.62c-1.21-.21-2.43-.37-3.66-.5V58.24c1.23-.13,2.45-.3,3.66-.5Z"/><path class="cls-5" d="M158.79,11.36C144.33,3,120.68,3,106.22,11.36s-14.45,22,0,30.35,38.11,8.35,52.57,0S173.25,19.71,158.79,11.36Z"/><path class="cls-6" d="M156.17,12.19c-13-7.51-34.31-7.51-47.33,0s-13,19.82,0,27.33,34.32,7.51,47.33,0S169.19,19.71,156.17,12.19Z"/><path class="cls-7" d="M153.27,13.78c-11.42-6.47-30.11-6.47-41.53,0s-11.41,17.07,0,23.54,30.11,6.48,41.53,0S164.69,20.26,153.27,13.78Z"/><circle class="cls-9" cx="12.5" cy="47.04" r="12.5"/><g class="cls-10"><polygon class="cls-11" points="9.44 43.72 13.49 47.77 8.57 52 18.73 62.16 18.66 61.05 25.42 51.93 15.29 41.81 9.3 41.81 9.44 43.72"/></g><path class="cls-8" d="M8.57,52V50.43L10,49.15c2.43-2.18,3.61-3.42,3.63-4.72,0-.9-.53-1.61-1.81-1.61a4.1,4.1,0,0,0-2.37.9l-.73-1.84a6.08,6.08,0,0,1,3.61-1.14c2.52,0,3.89,1.46,3.89,3.47s-1.33,3.34-3,4.77l-1,.85v0h4.19V52Z"/></g></g></svg>