<svg xmlns="http://www.w3.org/2000/svg" xmlns:xlink="http://www.w3.org/1999/xlink" viewBox="0 0 205.88 94.07"><defs><style>.cls-1{fill:none;}.cls-2{fill:#f5f6fa;}.cls-3{fill:#6ef9b7;}.cls-4{fill:#9ee7ff;}.cls-5{fill:#d2dbeb;}.cls-6{fill:#88dbf2;}.cls-7{fill:#26db8d;}.cls-8{fill:#0e9de5;}.cls-9{clip-path:url(#clip-path);}.cls-10{fill:#041742;}.cls-11{fill:#fff;}</style><clipPath id="clip-path"><circle class="cls-1" cx="12.5" cy="47.04" r="12.5"/></clipPath></defs><title>3Ben</title><g id="Layer_2" data-name="Layer 2"><g id="Layer_1-2" data-name="Layer 1"><rect class="cls-2" x="12.5" width="193.38" height="94.07"/><polygon class="cls-3" points="187.98 29.51 165.81 7.33 165.81 16.01 109.19 16.01 109.19 43.01 165.81 43.01 165.81 51.68 187.98 29.51"/><polygon class="cls-4" points="30.39 64.57 52.57 86.74 52.57 78.07 109.19 78.07 109.19 51.07 52.57 51.07 52.57 42.39 30.39 64.57"/><path class="cls-5" d="M137.06,43.88h-2.9a20.1,20.1,0,0,0-5.3-4.3c-10.94-6.31-28.83-6.31-39.77,0a20.1,20.1,0,0,0-5.3,4.3H81V50h0c-.53,4.52,2.16,9.15,8.11,12.58,10.94,6.32,28.83,6.32,39.77,0,5.95-3.43,8.64-8.06,8.11-12.58h.09Z"/><path class="cls-6" d="M94.78,37.07c-1,.32-1.88.68-2.77,1.07V64c.89.39,1.82.74,2.77,1.06Z"/><path class="cls-6" d="M86.46,41.36V60.75a22,22,0,0,0,2.63,1.79l.14.08V39.51l-.14.07A22.34,22.34,0,0,0,86.46,41.36Z"/><path class="cls-6" d="M100.33,35.64c-.94.17-1.87.38-2.78.61V65.87c.91.24,1.84.44,2.78.62Z"/><path class="cls-6" d="M130.83,40.87v20.4a19.2,19.2,0,0,0,2.78-2.43V43.29A19.16,19.16,0,0,0,130.83,40.87Z"/><path class="cls-6" d="M136.38,54.49A9.69,9.69,0,0,0,137,50h.09V43.88h-.68Z"/><path class="cls-6" d="M122.51,36.85c-.9-.29-1.82-.55-2.77-.77v30c1-.23,1.87-.49,2.77-.77Z"/><path class="cls-6" d="M83.69,58.13V43.88H81V50h0A10.69,10.69,0,0,0,83.69,58.13Z"/><path class="cls-6" d="M128.06,39.17a30.63,30.63,0,0,0-2.77-1.31v26.4a30.57,30.57,0,0,0,2.77-1.3Z"/><path class="cls-6" d="M105.87,35c-.93.06-1.85.15-2.77.26v31.7c.92.12,1.84.2,2.77.26Z"/><path class="cls-6" d="M111.42,67.21V34.91c-.92,0-1.85-.06-2.77,0V67.27C109.57,67.28,110.5,67.26,111.42,67.21Z"/><path class="cls-6" d="M117,35.51c-.92-.16-1.84-.28-2.78-.38V67c.94-.1,1.86-.23,2.78-.38Z"/><path class="cls-4" d="M128.86,31.53c-10.94-6.31-28.83-6.31-39.77,0s-10.94,16.65,0,23,28.83,6.32,39.77,0S139.8,37.85,128.86,31.53Z"/><path class="cls-3" d="M126.88,32.16c-9.85-5.68-26-5.68-35.81,0s-9.84,15,0,20.67,26,5.69,35.81,0S136.72,37.85,126.88,32.16Z"/><path class="cls-7" d="M124.68,33.36c-8.64-4.9-22.77-4.9-31.41,0s-8.64,12.92,0,17.81,22.77,4.9,31.41,0S133.32,38.26,124.68,33.36Z"/><circle class="cls-8" cx="12.5" cy="47.04" r="12.5"/><g class="cls-9"><polygon class="cls-10" points="15.73 42.3 25.21 51.79 18.64 61.42 17.36 60.19 8.59 51.42 13.84 50.47 10.45 47.08 12.27 46.24 9.48 43.45 9.77 41.85 12.5 41.44 15.73 42.3"/></g><path class="cls-11" d="M9.12,49.46a5.78,5.78,0,0,0,2.57.68c1.35,0,2-.65,2-1.46,0-1.11-1.09-1.61-2.22-1.61H10.45V45.22h1c.87,0,2-.34,2-1.28,0-.66-.53-1.16-1.63-1.16a4.79,4.79,0,0,0-2.3.67L9,41.57a6.92,6.92,0,0,1,3.42-.83C14.72,40.74,16,42,16,43.5a2.65,2.65,0,0,1-2,2.57v0a2.76,2.76,0,0,1,2.4,2.71c0,1.95-1.72,3.38-4.53,3.38a6.78,6.78,0,0,1-3.29-.77Z"/></g></g></svg>