<svg xmlns="http://www.w3.org/2000/svg" xmlns:xlink="http://www.w3.org/1999/xlink" viewBox="0 0 206.09 95.69"><defs><style>.cls-1{fill:none;}.cls-2{fill:#f5f6fa;}.cls-3{clip-path:url(#clip-path);}.cls-4{fill:#9ee7ff;}.cls-5{fill:#6ef9b7;}.cls-6{fill:#fff;}.cls-7{fill:#88dbf2;}.cls-8{fill:#26db8d;}.cls-9{fill:#0e9de5;}.cls-10{clip-path:url(#clip-path-2);}.cls-11{fill:#041742;}</style><clipPath id="clip-path" transform="translate(0 0.51)"><rect class="cls-1" x="12.5" width="193.59" height="94.18"/></clipPath><clipPath id="clip-path-2" transform="translate(0 0.51)"><circle class="cls-1" cx="12.5" cy="47.09" r="12.5"/></clipPath></defs><title>4P2P</title><g id="Layer_2" data-name="Layer 2"><g id="Layer_1-2" data-name="Layer 1"><rect class="cls-2" x="12.5" y="0.51" width="193.59" height="94.18"/><g class="cls-3"><polygon class="cls-4" points="56.33 71.85 85.53 95.69 89.94 95.69 58.33 69.89 32.72 16.59 88.02 0 78.32 0 30.36 14.38 29.5 16.32 55.95 71.37 56.33 71.85"/><polygon class="cls-4" points="183.65 42.22 150.76 74.98 117.94 95.69 123.16 95.69 152.37 77.26 186.59 43.24 186.61 41.29 157.95 11.15 140.42 0 135.26 0 156.05 13.2 183.65 42.22"/><polygon class="cls-4" points="119.68 25.32 120.79 0 118 0 116.8 27.34 118.7 28.7 157.45 13.41 156.43 10.81 119.68 25.32"/><path class="cls-4" d="M151.48,77l-49.59-5.31-1.16-1.87,16.15-43.37,2.46-.3,33.44,48.68ZM104,69.07l44.79,4.8-30.2-44Z" transform="translate(0 0.51)"/><path class="cls-4" d="M102,71.66H57.21l-1.07-2.29L90.59,28.46,93,29l10.38,40.9ZM60.21,68.87h40L91,32.34Z" transform="translate(0 0.51)"/><polygon class="cls-4" points="86.95 0 90.06 28.06 31.08 14.36 30.45 17.08 91.34 31.22 93.04 29.71 89.76 0 86.95 0"/><rect class="cls-4" x="91.6" y="26.73" width="26.65" height="2.79" transform="translate(-2.16 10.36) rotate(-5.32)"/><rect class="cls-4" x="100.64" y="70.77" width="2.79" height="24.92"/><circle class="cls-5" cx="118.19" cy="27.41" r="8.8"/><path class="cls-6" d="M118.19,36.59a9.69,9.69,0,1,1,9.69-9.69A9.7,9.7,0,0,1,118.19,36.59Zm0-17.6a7.91,7.91,0,1,0,7.91,7.91A7.92,7.92,0,0,0,118.19,19Z" transform="translate(0 0.51)"/><path class="cls-7" d="M156.94,2.81a8.8,8.8,0,1,0,8.8,8.79A8.8,8.8,0,0,0,156.94,2.81Z" transform="translate(0 0.51)"/><path class="cls-6" d="M156.94,21.29a9.69,9.69,0,1,1,9.69-9.69A9.69,9.69,0,0,1,156.94,21.29Zm0-17.59a7.91,7.91,0,1,0,7.91,7.9A7.91,7.91,0,0,0,156.94,3.7Z" transform="translate(0 0.51)"/><path class="cls-7" d="M100.45,29.36a8.8,8.8,0,1,0-8.79,8.8A8.8,8.8,0,0,0,100.45,29.36Z" transform="translate(0 0.51)"/><path class="cls-6" d="M91.66,39.05a9.69,9.69,0,1,1,9.68-9.69A9.7,9.7,0,0,1,91.66,39.05Zm0-17.6a7.91,7.91,0,1,0,7.9,7.91A7.92,7.92,0,0,0,91.66,21.45Z" transform="translate(0 0.51)"/><path class="cls-8" d="M30.76,6.41a8.8,8.8,0,1,0,8.8,8.8A8.81,8.81,0,0,0,30.76,6.41Z" transform="translate(0 0.51)"/><path class="cls-6" d="M30.76,24.9a9.69,9.69,0,1,1,9.69-9.69A9.7,9.7,0,0,1,30.76,24.9Zm0-17.6a7.91,7.91,0,1,0,7.91,7.91A7.92,7.92,0,0,0,30.76,7.3Z" transform="translate(0 0.51)"/><circle class="cls-7" cx="57.21" cy="70.77" r="8.8"/><path class="cls-6" d="M57.21,80a9.69,9.69,0,1,1,9.69-9.69A9.7,9.7,0,0,1,57.21,80Zm0-17.59a7.91,7.91,0,1,0,7.91,7.9A7.91,7.91,0,0,0,57.21,62.36Z" transform="translate(0 0.51)"/><path class="cls-8" d="M102,61.32a8.8,8.8,0,1,0,8.79,8.8A8.81,8.81,0,0,0,102,61.32Z" transform="translate(0 0.51)"/><path class="cls-6" d="M102,79.81a9.69,9.69,0,1,1,9.68-9.69A9.7,9.7,0,0,1,102,79.81Zm0-17.6a7.91,7.91,0,1,0,7.9,7.91A7.92,7.92,0,0,0,102,62.21Z" transform="translate(0 0.51)"/><path class="cls-5" d="M151.63,66.78a8.8,8.8,0,1,0,8.8,8.8A8.81,8.81,0,0,0,151.63,66.78Z" transform="translate(0 0.51)"/><path class="cls-6" d="M151.63,85.26a9.69,9.69,0,1,1,9.69-9.68A9.7,9.7,0,0,1,151.63,85.26Zm0-17.59a7.91,7.91,0,1,0,7.91,7.91A7.92,7.92,0,0,0,151.63,67.67Z" transform="translate(0 0.51)"/><circle class="cls-8" cx="185.6" cy="42.25" r="8.8"/><path class="cls-6" d="M185.6,51.43a9.69,9.69,0,1,1,9.69-9.69A9.69,9.69,0,0,1,185.6,51.43Zm0-17.59a7.91,7.91,0,1,0,7.91,7.9A7.91,7.91,0,0,0,185.6,33.84Z" transform="translate(0 0.51)"/><path class="cls-5" d="M79.53-.51a8.81,8.81,0,0,0,8.66,7.3,8.81,8.81,0,0,0,8.66-7.3Z" transform="translate(0 0.51)"/><path class="cls-6" d="M96-.51A7.92,7.92,0,0,1,88.19,5.9,7.93,7.93,0,0,1,80.43-.51h-1.8a9.7,9.7,0,0,0,9.56,8.19A9.7,9.7,0,0,0,97.75-.51Z" transform="translate(0 0.51)"/></g><circle class="cls-9" cx="12.5" cy="47.6" r="12.5"/><g class="cls-10"><polygon class="cls-11" points="8.16 49.92 19.86 61.62 27.31 53.26 15.53 41.48 12.5 42.37 8.16 49.92"/></g><path class="cls-6" d="M13.07,52.05V49.41H8.16V47.72L12.34,41h3.18v6.49h1.32v1.94H15.52v2.64Zm0-4.58V45c0-.66,0-1.34.07-2.06h-.05c-.36.72-.67,1.37-1,2.06l-1.47,2.42v0Z" transform="translate(0 0.51)"/></g></g></svg>