<svg xmlns="http://www.w3.org/2000/svg" xmlns:xlink="http://www.w3.org/1999/xlink" viewBox="0 0 206.09 94.18"><defs><style>.cls-1{fill:none;}.cls-2{fill:#f5f6fa;}.cls-3{fill:#88dbf2;}.cls-4{fill:#6ef9b7;}.cls-5{fill:#9ee7ff;}.cls-6{fill:#26db8d;}.cls-7{fill:#0e9de5;}.cls-8{fill:#fff;}.cls-9{clip-path:url(#clip-path);}.cls-10{fill:#041742;}</style><clipPath id="clip-path"><circle class="cls-1" cx="12.5" cy="47.09" r="12.5"/></clipPath></defs><title>5Con</title><g id="Layer_2" data-name="Layer 2"><g id="Layer_1-2" data-name="Layer 1"><rect class="cls-2" x="12.5" width="193.59" height="94.18"/><polygon class="cls-3" points="132.36 24.24 158.07 19.7 164.32 56.31 109.31 66.01 103.06 29.4 132.36 24.24"/><path class="cls-4" d="M64.35,20.24l23.51,4.15h0a5.67,5.67,0,0,1,6.56-4.6L118.3,24a12.48,12.48,0,0,1,8,5.12L134.65,41a6.19,6.19,0,0,1-1.53,8.63h0a6.2,6.2,0,0,1-8.63-1.52L116.7,37l-13.1-2.31,2.83,36.8L85,67.66A11.35,11.35,0,0,1,77.68,63l-3.62-5.18L58.22,55Z"/><path class="cls-3" d="M87.91,43.24h23.86a0,0,0,0,1,0,0V54a0,0,0,0,1,0,0H87.91a5.39,5.39,0,0,1-5.39-5.39v0a5.39,5.39,0,0,1,5.39-5.39Z" transform="translate(-5.93 82.94) rotate(-45)"/><rect class="cls-3" x="90.12" y="50.84" width="29.25" height="10.78" rx="5.39" transform="translate(-9.08 90.53) rotate(-45)"/><rect class="cls-3" x="97.75" y="58.47" width="29.25" height="10.78" rx="5.39" transform="translate(-12.24 98.16) rotate(-45)"/><path class="cls-3" d="M133.69,50.21l-24.06,24a5.41,5.41,0,0,0,0,7.63h0a5.4,5.4,0,0,0,7.62,0l24.06-24c2.11-2.1,4.69-4.75,2.59-6.86l-2.59-.76A5.38,5.38,0,0,0,133.69,50.21Z"/><rect class="cls-5" x="154.76" y="15.21" width="12.07" height="45.66" transform="translate(-4.16 28.5) rotate(-10)"/><rect class="cls-6" x="54.72" y="15.21" width="12.07" height="45.66" transform="translate(113.99 86.06) rotate(-170)"/><circle class="cls-7" cx="12.5" cy="47.09" r="12.5"/><path class="cls-8" d="M15.91,43.11H11.62l-.24,1.7c.24,0,.44,0,.71,0a5,5,0,0,1,2.92.8,3.15,3.15,0,0,1,1.34,2.77c0,2.06-1.77,3.89-4.75,3.89a7,7,0,0,1-3.08-.63L9,49.67a6.36,6.36,0,0,0,2.49.54c1.07,0,2.21-.51,2.21-1.69s-.9-1.84-3.11-1.84a9,9,0,0,0-1.49.11L9.81,41h6.1Z"/><g class="cls-9"><polygon class="cls-10" points="15.91 40.98 25.81 50.88 22.34 60.82 20.04 63.13 8.52 51.61 13.15 50.84 9.09 46.79 10.78 42.05 15.91 40.98"/></g><path class="cls-8" d="M15.91,43.11H11.62l-.24,1.7c.24,0,.44,0,.71,0a5,5,0,0,1,2.92.8,3.15,3.15,0,0,1,1.34,2.77c0,2.06-1.77,3.89-4.75,3.89a7,7,0,0,1-3.08-.63L9,49.67a6.36,6.36,0,0,0,2.49.54c1.07,0,2.21-.51,2.21-1.69s-.9-1.84-3.11-1.84a9,9,0,0,0-1.49.11L9.81,41h6.1Z"/></g></g></svg>