<svg xmlns="http://www.w3.org/2000/svg" xmlns:xlink="http://www.w3.org/1999/xlink" viewBox="0 0 206.09 94.18"><defs><style>.cls-1{fill:none;}.cls-2{fill:#f5f6fa;}.cls-3{fill:#fff;}.cls-4{fill:#9ee7ff;}.cls-5{fill:#6ef9b7;}.cls-6{fill:#26db8d;}.cls-7{fill:#0e9de5;}.cls-8{clip-path:url(#clip-path);}.cls-9{fill:#041742;}</style><clipPath id="clip-path"><circle class="cls-1" cx="12.5" cy="47.09" r="12.5"/></clipPath></defs><title>6Min</title><g id="Layer_2" data-name="Layer 2"><g id="Layer_1-2" data-name="Layer 1"><rect class="cls-2" x="12.5" width="193.59" height="94.18"/><circle class="cls-3" cx="65.01" cy="34.79" r="31.35"/><circle class="cls-3" cx="148.59" cy="34.29" r="28.14"/><circle class="cls-3" cx="111.5" cy="68.92" r="17.59"/><path class="cls-4" d="M86.47,24.9l1.43-1.43-2.39-2.39c-.51-.51.06-1.67,1.35-3.06h0l.23-.24h0a20.55,20.55,0,0,1,1.63-1.5l0,0a30.76,30.76,0,0,1,11.17-5.9,7.64,7.64,0,0,0-1.07-3A15.74,15.74,0,0,0,96.9,4.67,126.46,126.46,0,0,0,81.55,17.12L81,16.57l-7.85,7.85.55.54c-9.56,10.22-16.22,20-17.76,25.71l2.29-.73c2.91-5.11,11.93-16.68,19.19-21.26l2.63,2.64,1.19-1.19h0l3,3h0l55.08,55.09L144.57,83Z"/><polygon class="cls-5" points="150.14 29.88 147.6 12.9 130.62 10.36 115.44 25.54 114.83 24.92 113.16 26.58 113.78 27.2 113.78 27.2 121.16 34.59 116.08 39.67 120.83 44.43 125.92 39.34 133.3 46.72 133.92 47.34 135.59 45.67 134.97 45.06 150.14 29.88"/><path class="cls-6" d="M116.45,40.05l-.9.91h0L94.35,62.15l-1.11-1.1-6.48,6.49L85,69.25,77.2,68.11l-4.93,4.94,1.21,1.2,1.43-1.43-.91.92L86.76,86.5l1.3-1.29L86.25,87l1.2,1.21,4.94-4.94-1.14-7.83L93,73.74h0l6.49-6.49-1.11-1.11,22.1-22.1ZM89.32,74.62l1.27,8-1.21,1.21L76.62,71.12l1.21-1.21,8,1.27,2.26-2.26,3.44,3.44Z"/><circle class="cls-7" cx="12.5" cy="47.09" r="12.5"/><g class="cls-8"><polygon class="cls-9" points="9.48 50.89 20.39 61.8 26.12 51.35 15.59 40.82 10.45 43.52 9.48 50.89"/></g><path class="cls-3" d="M15.59,42.82a7.28,7.28,0,0,0-1,0c-2.3.17-3.32,1.36-3.61,2.64h0a3.22,3.22,0,0,1,2.35-.87,3.36,3.36,0,0,1,3.43,3.61,4,4,0,0,1-4.08,4c-3,0-4.41-2.2-4.41-4.84a6.63,6.63,0,0,1,2-4.94,6.58,6.58,0,0,1,4.26-1.62,6.32,6.32,0,0,1,1,0Zm-2.9,7.51c.9,0,1.48-.83,1.48-2a1.69,1.69,0,0,0-1.65-1.91,1.67,1.67,0,0,0-1.52,1,1.46,1.46,0,0,0-.12.67c0,1.17.62,2.23,1.79,2.23Z"/></g></g></svg>