<svg xmlns="http://www.w3.org/2000/svg" xmlns:xlink="http://www.w3.org/1999/xlink" viewBox="0 0 206.09 94.18"><defs><style>.cls-1{fill:none;}.cls-2{fill:#f5f6fa;}.cls-3{fill:#fff;}.cls-4{fill:#9ee7ff;}.cls-5{fill:#6ef9b7;}.cls-6{fill:#26db8d;}.cls-7{fill:#0e9de5;}.cls-8{clip-path:url(#clip-path);}.cls-9{fill:#041742;}</style><clipPath id="clip-path"><circle class="cls-1" cx="12.5" cy="47.09" r="12.5"/></clipPath></defs><title>7Hash</title><g id="Layer_2" data-name="Layer 2"><g id="Layer_1-2" data-name="Layer 1"><rect class="cls-2" x="12.5" width="193.59" height="94.18"/><circle class="cls-3" cx="109.29" cy="47.09" r="40.38"/><path class="cls-4" d="M176.41,33l4.64-1.08-2.29-9.81-4.65,1.09a27.38,27.38,0,0,0-6.68-9.29L170,9.85l-8.56-5.31L158.88,8.6a27.55,27.55,0,0,0-8.81-1.85,23.82,23.82,0,0,0-2.39,0h-.1L146.5,2.1l-9.8,2.3,1.08,4.65a27.46,27.46,0,0,0-9.29,6.68l-4.06-2.51-5.3,8.55,4.05,2.51a27.38,27.38,0,0,0-1.85,11.3l-4.64,1.09,2.29,9.8,4.65-1.09a27.53,27.53,0,0,0,6.67,9.3l-2.51,4L136.34,64,138.86,60a27.38,27.38,0,0,0,11.3,1.85l1.09,4.65,9.79-2.3L160,59.54a27.21,27.21,0,0,0,2.75-1.39,27.61,27.61,0,0,0,6.55-5.29l4.06,2.51,5.3-8.55-4.05-2.52A27.35,27.35,0,0,0,176.41,33ZM148.87,51a16.66,16.66,0,1,1,16.65-16.66A16.65,16.65,0,0,1,148.87,51Z"/><path class="cls-5" d="M113.52,67.41l3.17-.74L115.12,60l-3.16.74a18.62,18.62,0,0,0-4.55-6.33l1.71-2.76L103.29,48l-1.71,2.76a18.9,18.9,0,0,0-6-1.26c-.53,0-1.08,0-1.63,0h-.06l-.74-3.16-6.68,1.56.75,3.17a17.26,17.26,0,0,0-1.87.95,18.42,18.42,0,0,0-4.47,3.6l-2.76-1.71-3.61,5.82,2.76,1.71A18.66,18.66,0,0,0,76,69.17l-3.16.74,1.56,6.67,3.16-.74a18.72,18.72,0,0,0,4.55,6.33l-1.71,2.76,5.82,3.62L88,85.78A18.45,18.45,0,0,0,95.64,87l.75,3.17,6.67-1.56-.74-3.17a20.41,20.41,0,0,0,1.87-.94,19.05,19.05,0,0,0,4.46-3.6l2.76,1.71L115,76.82l-2.76-1.71A18.66,18.66,0,0,0,113.52,67.41ZM94.77,79.63a11.34,11.34,0,1,1,11.34-11.34A11.35,11.35,0,0,1,94.77,79.63Z"/><path class="cls-6" d="M73.61,38.76l2.27-.53-1.12-4.79L72.49,34a13.48,13.48,0,0,0-3.27-4.55l1.23-2-4.18-2.6-1.23,2a13.38,13.38,0,0,0-4.31-.91,11.41,11.41,0,0,0-1.17,0h-.05L59,23.65l-4.79,1.12.53,2.28a13,13,0,0,0-1.34.68,13.43,13.43,0,0,0-3.21,2.58l-2-1.23-2.6,4.19,2,1.23A13.32,13.32,0,0,0,46.67,40l-2.27.53,1.12,4.8,2.28-.53a13.32,13.32,0,0,0,3.26,4.54l-1.23,2L54,53.94l1.24-2a13.47,13.47,0,0,0,5.52.9l.54,2.28L66.1,54l-.54-2.27a12.17,12.17,0,0,0,1.35-.68,13.42,13.42,0,0,0,3.2-2.59l2,1.23,2.59-4.18-2-1.23A13.52,13.52,0,0,0,73.61,38.76ZM60.14,47.54a8.15,8.15,0,1,1,8.15-8.15A8.14,8.14,0,0,1,60.14,47.54Z"/><circle class="cls-7" cx="12.5" cy="47.09" r="12.5"/><g class="cls-8"><polygon class="cls-9" points="8.56 52.62 19.47 63.53 26.36 52.14 15.83 41.61 13.04 46.83 8.56 52.62"/></g><path class="cls-3" d="M15.83,41.61v1.62l-4.54,9.39H8.56l4.54-8.85v0h-5V41.61Z"/></g></g></svg>