<svg xmlns="http://www.w3.org/2000/svg" xmlns:xlink="http://www.w3.org/1999/xlink" viewBox="0 0 206.09 94.18"><defs><style>.cls-1{fill:none;}.cls-2{fill:#f5f6fa;}.cls-3{fill:#9ee7ff;}.cls-4{fill:#d2dbeb;}.cls-5{fill:#fff;}.cls-6{fill:#26db8d;}.cls-7{fill:#0e9de5;}.cls-8{clip-path:url(#clip-path);}.cls-9{fill:#041742;}</style><clipPath id="clip-path"><circle class="cls-1" cx="12.5" cy="47.09" r="12.5"/></clipPath></defs><title>8Key</title><g id="Layer_2" data-name="Layer 2"><g id="Layer_1-2" data-name="Layer 1"><rect class="cls-2" x="12.5" width="193.59" height="94.18"/><path class="cls-3" d="M206.09,82.33a128.64,128.64,0,0,0-193.59.08V94.18H206.09Z"/><path class="cls-4" d="M157,51.65c4.47.19,7.56.23,7.56.23l10.05-10.09-10-9.95L117.31,32a29,29,0,0,0-6.85-10.87,29.33,29.33,0,1,0,6.78,30.79l7.74-.65,4.24-3.62c.06,0,4,3.71,4,3.71l3.39.55s4.27-4.31,4.23-4.23h0l4.28,4.15,3.81-.25,3.89-3.81s3.4,3.87,4.11,3.9ZM86.84,36.84a7,7,0,1,1-9.85,0,7,7,0,0,1,9.85,0Z"/><path class="cls-5" d="M89.8,71.52a29.71,29.71,0,1,1-.06-59.42h0a29.62,29.62,0,0,1,27.86,19.45l47.13-.14.13.12C175,41.6,175,41.6,175,41.79V42l-10.3,10.34h-.19s-3.15,0-7.57-.22h0c-.69,0-2.56-2-4.11-3.71L149.14,52l-4.16.28-4.13-4c-.71.7-2.61,2.6-3.93,3.93l-.16.16-3.74-.6-.1-.09c-1.19-1.12-3-2.84-3.71-3.46l-4.06,3.47-7.6.64A29.56,29.56,0,0,1,89.8,71.52ZM89.74,13a28.87,28.87,0,1,0,27.09,38.78l.09-.26,7.88-.66,4.27-3.65h.17c.21,0,.22,0,4.18,3.74l3,.49c3-3.06,3.94-4,4.32-4.15v0l.22,0,.17.15,4.14,4,3.46-.23,4.11-4,.3.34A24,24,0,0,0,157,51.22c3.79.15,6.61.21,7.34.22l9.61-9.65-9.56-9.51L117,32.42l-.1-.29A28.78,28.78,0,0,0,89.74,13Zm-7.88,36.2a7.4,7.4,0,0,1,.06-14.8h0a7.31,7.31,0,0,1,5.21,2.15h0a7.44,7.44,0,0,1-5.27,12.65Zm.08-13.93h0a6.5,6.5,0,1,0,4.61,1.9h0A6.41,6.41,0,0,0,81.94,35.25Z"/><path class="cls-6" d="M75,48.7a9.76,9.76,0,1,0,0-13.81A9.76,9.76,0,0,0,75,48.7Zm9.86-9.86a4.18,4.18,0,1,1-5.92,0,4.18,4.18,0,0,1,5.92,0Z"/><path class="cls-6" d="M173.93,41.81l-9.55-9.46L117,32.48a26.86,26.86,0,0,1,2.4,9.33Z"/><circle class="cls-7" cx="12.5" cy="47.09" r="12.5"/><g class="cls-8"><polygon class="cls-9" points="9.18 51.66 20.09 62.57 25.9 52.78 15.37 42.25 11.37 42.87 9.18 51.66"/></g><path class="cls-5" d="M8.34,49.72a2.93,2.93,0,0,1,2-2.77v0a2.69,2.69,0,0,1-1.59-2.42c0-1.86,1.68-3.09,3.88-3.09,2.58,0,3.65,1.49,3.65,2.82a2.69,2.69,0,0,1-1.6,2.43v0a2.94,2.94,0,0,1,2,2.75c0,2-1.68,3.34-4.23,3.34C9.63,52.78,8.34,51.21,8.34,49.72Zm5.7-.1c0-.95-.73-1.53-1.74-1.8A1.66,1.66,0,0,0,11,49.45,1.52,1.52,0,0,0,12.53,51,1.4,1.4,0,0,0,14,49.62Zm-2.9-5.21c0,.74.66,1.23,1.56,1.5a1.51,1.51,0,0,0,1.11-1.41,1.27,1.27,0,0,0-1.34-1.36A1.23,1.23,0,0,0,11.14,44.41Z"/></g></g></svg>