<svg xmlns="http://www.w3.org/2000/svg" xmlns:xlink="http://www.w3.org/1999/xlink" viewBox="0 0 206.09 94.18"><defs><style>.cls-1{fill:none;}.cls-2{fill:#f5f6fa;}.cls-3{fill:#26db8d;}.cls-4{fill:#9ee7ff;}.cls-5{fill:#88dbf2;}.cls-6{fill:#fff;}.cls-7{fill:#0e9de5;}.cls-8{clip-path:url(#clip-path);}.cls-9{fill:#041742;}</style><clipPath id="clip-path"><circle class="cls-1" cx="12.5" cy="47.09" r="12.5"/></clipPath></defs><title>9Wall</title><g id="Layer_2" data-name="Layer 2"><g id="Layer_1-2" data-name="Layer 1"><rect class="cls-2" x="12.5" width="193.59" height="94.18"/><path class="cls-3" d="M182.26,33,186.81,32l-2.25-9.6L180,23.44a26.76,26.76,0,0,0-6.54-9.1l2.46-4-8.37-5.2-2.46,4a27,27,0,0,0-8.63-1.81,22.83,22.83,0,0,0-2.34,0H154L153,2.78,143.38,5l1.07,4.55a27.08,27.08,0,0,0-2.69,1.36,26.7,26.7,0,0,0-6.42,5.18l-4-2.46L126.18,22l4,2.46a26.75,26.75,0,0,0-1.81,11.06l-4.55,1.07L126,46.21l4.55-1.06a26.93,26.93,0,0,0,6.53,9.1l-2.46,4L143,63.41l2.47-4a26.75,26.75,0,0,0,11.06,1.81l1.07,4.55,9.59-2.25L166.15,59a26.68,26.68,0,0,0,9.1-6.54l4,2.46,5.19-8.38-4-2.46A26.88,26.88,0,0,0,182.26,33Zm-27,17.57a16.31,16.31,0,1,1,16.3-16.31A16.31,16.31,0,0,1,155.3,50.6Z"/><path class="cls-4" d="M151.84,94.18V38.84a8.5,8.5,0,0,0-8.48-8.48H51.81a8.5,8.5,0,0,0-8.48,8.48V94.18Z"/><rect class="cls-5" x="120.32" y="67.44" width="34.98" height="18.93" rx="4.71"/><circle class="cls-6" cx="129.63" cy="76.55" r="4.43"/><circle class="cls-7" cx="12.5" cy="47.09" r="12.5"/><g class="cls-8"><polygon class="cls-9" points="9.52 52.22 20.43 63.13 25.73 52.35 15.2 41.82 10.56 42.71 10.94 47.43 15.69 47.27 9.52 52.22"/></g><path class="cls-6" d="M9.52,50.23a7.48,7.48,0,0,0,1,0c2.3-.17,3.32-1.36,3.61-2.64h-.05a3.19,3.19,0,0,1-2.35.87,3.36,3.36,0,0,1-3.43-3.61,4,4,0,0,1,4.07-4c3,0,4.42,2.19,4.42,4.83a6.67,6.67,0,0,1-2,5,6.57,6.57,0,0,1-4.26,1.61,4.66,4.66,0,0,1-1,0Zm2.9-7.52c-.91,0-1.48.84-1.48,2a1.69,1.69,0,0,0,1.65,1.91,1.63,1.63,0,0,0,1.51-1,1.29,1.29,0,0,0,.12-.66c-.05-1.18-.61-2.24-1.79-2.24Z"/></g></g></svg>