<svg xmlns="http://www.w3.org/2000/svg" xmlns:xlink="http://www.w3.org/1999/xlink" viewBox="0 0 236.9 108"><defs><style>.cls-1,.cls-6{fill:none;}.cls-2,.cls-4{fill:#f5f6fa;}.cls-10,.cls-3{fill:#fff;}.cls-3,.cls-4{stroke:#b1aec0;stroke-linejoin:bevel;}.cls-3,.cls-4,.cls-6{stroke-width:0.29px;}.cls-5{fill:#8c8a99;}.cls-6{stroke:#0e9de5;stroke-linecap:round;stroke-linejoin:round;}.cls-7{fill:#0e9de5;}.cls-8{clip-path:url(#clip-path);}.cls-9{fill:#041742;}</style><clipPath id="clip-path"><circle class="cls-1" cx="14.68" cy="54" r="14.68"/></clipPath></defs><title>DS</title><g id="Layer_2" data-name="Layer 2"><g id="content"><rect class="cls-2" x="14.9" width="222" height="108"/><rect class="cls-3" x="172.09" y="19.85" width="57.5" height="49.91"/><rect class="cls-3" x="172.09" y="69.75" width="57.5" height="14.36"/><rect class="cls-3" x="22.21" y="19.85" width="57.5" height="49.91"/><rect class="cls-3" x="22.21" y="69.75" width="57.5" height="14.36"/><rect class="cls-3" x="97.23" y="19.85" width="57.5" height="49.91"/><rect class="cls-3" x="97.23" y="69.75" width="57.5" height="14.36"/><rect class="cls-4" x="25.06" y="38.19" width="51.8" height="14.36"/><rect class="cls-4" x="25.06" y="52.55" width="51.8" height="14.36"/><path class="cls-5" d="M35.08,30.9V28.23h1.31a.69.69,0,0,1,.76.68.61.61,0,0,1-.47.62.64.64,0,0,1,.52.65.71.71,0,0,1-.78.72ZM36.67,29a.34.34,0,0,0-.38-.34h-.74v.69h.74A.34.34,0,0,0,36.67,29Zm0,1.13a.37.37,0,0,0-.41-.37h-.76v.74h.76A.36.36,0,0,0,36.72,30.12Z"/><path class="cls-5" d="M37.66,30.9V28.23h.47v2.26h1.18v.41Z"/><path class="cls-5" d="M39.49,29.57A1.36,1.36,0,1,1,40.85,31,1.32,1.32,0,0,1,39.49,29.57Zm2.24,0a.88.88,0,1,0-.88,1A.88.88,0,0,0,41.73,29.57Z"/><path class="cls-5" d="M42.54,29.57a1.34,1.34,0,0,1,1.4-1.38,1.2,1.2,0,0,1,1.07.6l-.4.2a.78.78,0,0,0-.67-.38,1,1,0,0,0,0,1.92.77.77,0,0,0,.67-.39l.4.21a1.2,1.2,0,0,1-1.07.6A1.34,1.34,0,0,1,42.54,29.57Z"/><path class="cls-5" d="M47,30.9l-.9-1.12-.23.27v.85h-.47V28.23h.47V29.5l1-1.27h.58l-1.08,1.26,1.16,1.41Z"/><path class="cls-5" d="M49.37,30.9V28.84l-.43.45L48.66,29l.77-.78h.41V30.9Z"/><path class="cls-5" d="M53.29,30.9V29.74H51.9V30.9h-.47V28.23h.47v1.1h1.39v-1.1h.46V30.9Z"/><path class="cls-5" d="M54.32,30.9V28.23h1.82v.42H54.79v.69h1.33v.41H54.79v.74h1.35v.41Z"/><path class="cls-5" d="M58.49,30.9l-.2-.51H57.07l-.2.51h-.53l1-2.67H58L59,30.9Zm-.81-2.19L57.2,30h1Z"/><path class="cls-5" d="M59.31,30.9V28.23h1a1.34,1.34,0,1,1,0,2.67Zm1.9-1.33a.86.86,0,0,0-.91-.92h-.52v1.84h.52A.87.87,0,0,0,61.21,29.57Z"/><path class="cls-5" d="M62.14,30.9V28.23H64v.42H62.61v.69h1.33v.41H62.61v.74H64v.41Z"/><path class="cls-5" d="M66,30.9l-.59-1h-.47v1h-.46V28.23h1.17a.82.82,0,0,1,.87.84.74.74,0,0,1-.63.78l.65,1Zm0-1.83a.42.42,0,0,0-.46-.42h-.64v.84h.64A.42.42,0,0,0,66,29.07Z"/><path class="cls-5" d="M28,78.5V75.83h1.31a.68.68,0,0,1,.76.68.6.6,0,0,1-.46.61.66.66,0,0,1,.52.66.71.71,0,0,1-.78.72Zm1.6-1.91a.34.34,0,0,0-.38-.35H28.5v.69h.75A.34.34,0,0,0,29.63,76.59Zm.05,1.12a.37.37,0,0,0-.41-.37H28.5v.74h.77A.36.36,0,0,0,29.68,77.71Z"/><path class="cls-5" d="M30.62,78.5V75.83h.47v2.25h1.17v.42Z"/><path class="cls-5" d="M32.44,77.16a1.37,1.37,0,1,1,2.73,0,1.37,1.37,0,1,1-2.73,0Zm2.25,0a.89.89,0,1,0-1.77,0,.89.89,0,1,0,1.77,0Z"/><path class="cls-5" d="M35.5,77.16a1.34,1.34,0,0,1,1.4-1.38,1.2,1.2,0,0,1,1.07.6l-.4.21a.79.79,0,0,0-.67-.39,1,1,0,0,0,0,1.93.79.79,0,0,0,.67-.39l.4.2a1.2,1.2,0,0,1-1.07.6A1.34,1.34,0,0,1,35.5,77.16Z"/><path class="cls-5" d="M39.94,78.5,39,77.37l-.23.27v.86h-.47V75.83h.47V77.1l1-1.27h.58l-1.08,1.26,1.16,1.41Z"/><path class="cls-5" d="M42.33,78.5V76.44l-.44.45-.27-.29.77-.77h.41V78.5Z"/><path class="cls-5" d="M45,78.5V76.24h-.8v-.41H46.3v.41h-.81V78.5Z"/><path class="cls-5" d="M48.21,78.5l-.59-1h-.46v1h-.47V75.83h1.17a.8.8,0,0,1,.87.83.75.75,0,0,1-.63.79l.65,1Zm0-1.84a.42.42,0,0,0-.45-.42h-.64v.85h.64A.42.42,0,0,0,48.25,76.66Z"/><path class="cls-5" d="M51.06,78.5,50.87,78H49.65l-.2.52h-.53l1-2.67h.58L51.6,78.5Zm-.8-2.2-.48,1.27h1Z"/><path class="cls-5" d="M53.74,78.5l-1.39-1.91V78.5h-.47V75.83h.48l1.37,1.85V75.83h.47V78.5Z"/><path class="cls-5" d="M54.59,78.12l.26-.36a1.12,1.12,0,0,0,.84.37c.39,0,.54-.19.54-.37,0-.56-1.56-.21-1.56-1.19,0-.44.39-.78,1-.78a1.38,1.38,0,0,1,1,.37l-.26.35a1.1,1.1,0,0,0-.78-.31c-.27,0-.45.14-.45.34,0,.49,1.55.18,1.55,1.18,0,.44-.31.82-1,.82A1.42,1.42,0,0,1,54.59,78.12Z"/><path class="cls-5" d="M59,78.5l-.2-.52H57.54l-.2.52h-.53l1-2.67h.58l1.05,2.67Zm-.81-2.2-.48,1.27h1Z"/><path class="cls-5" d="M59.52,77.16a1.34,1.34,0,0,1,1.4-1.38,1.2,1.2,0,0,1,1.07.6l-.4.21a.8.8,0,0,0-.67-.39,1,1,0,0,0,0,1.93.8.8,0,0,0,.67-.39l.4.2a1.21,1.21,0,0,1-1.07.6A1.34,1.34,0,0,1,59.52,77.16Z"/><path class="cls-5" d="M63,78.5V76.24h-.81v-.41h2.08v.41h-.81V78.5Z"/><path class="cls-5" d="M64.66,78.5V75.83h.47V78.5Z"/><path class="cls-5" d="M65.58,77.16a1.36,1.36,0,1,1,1.36,1.38A1.32,1.32,0,0,1,65.58,77.16Zm2.24,0a.88.88,0,1,0-.88,1A.88.88,0,0,0,67.82,77.16Z"/><path class="cls-5" d="M70.61,78.5l-1.39-1.91V78.5h-.47V75.83h.48l1.36,1.85V75.83h.47V78.5Z"/><path class="cls-5" d="M71.45,78.12l.26-.36a1.15,1.15,0,0,0,.85.37c.38,0,.53-.19.53-.37,0-.56-1.55-.21-1.55-1.19,0-.44.38-.78,1-.78a1.4,1.4,0,0,1,1,.37l-.27.35a1.08,1.08,0,0,0-.77-.31c-.28,0-.45.14-.45.34,0,.49,1.55.18,1.55,1.18,0,.44-.31.82-1,.82A1.44,1.44,0,0,1,71.45,78.12Z"/><path class="cls-5" d="M43.26,61.15V58.89h-.81v-.41h2.08v.41h-.8v2.26Z"/><path class="cls-5" d="M46.71,61.15l-.75-1-.75,1h-.56l1-1.37-.94-1.3h.56l.69,1,.68-1h.57l-.94,1.29,1,1.38Z"/><path class="cls-5" d="M50.11,61.15l-.59-1h-.46v1h-.47V58.48h1.17a.8.8,0,0,1,.87.83.75.75,0,0,1-.63.79l.65,1Zm0-1.84a.42.42,0,0,0-.45-.42h-.64v.85h.64A.42.42,0,0,0,50.15,59.31Z"/><path class="cls-5" d="M51,59.81a1.36,1.36,0,1,1,1.36,1.38A1.32,1.32,0,0,1,51,59.81Zm2.24,0a.88.88,0,1,0-.88,1A.88.88,0,0,0,53.22,59.81Z"/><path class="cls-5" d="M54,59.81a1.37,1.37,0,1,1,1.36,1.38A1.32,1.32,0,0,1,54,59.81Zm2.25,0a.89.89,0,1,0-.89,1A.89.89,0,0,0,56.28,59.81Z"/><path class="cls-5" d="M57.74,61.15V58.89h-.81v-.41H59v.41h-.8v2.26Z"/><path class="cls-5" d="M43.8,44.4V43.24H42.41V44.4H42V41.74h.46v1.09H43.8V41.74h.47V44.4Z"/><path class="cls-5" d="M46.7,44.4l-.2-.51H45.28l-.2.51h-.53l1.05-2.66h.58l1,2.66Zm-.81-2.19-.48,1.27h1Z"/><path class="cls-5" d="M47.31,44l.26-.36a1.16,1.16,0,0,0,.84.37c.38,0,.53-.19.53-.37,0-.56-1.55-.21-1.55-1.19,0-.44.39-.78,1-.78a1.38,1.38,0,0,1,1,.37l-.27.35a1.08,1.08,0,0,0-.77-.31c-.27,0-.45.14-.45.34,0,.49,1.55.18,1.55,1.18,0,.44-.31.82-1,.82A1.42,1.42,0,0,1,47.31,44Z"/><path class="cls-5" d="M51.7,44.4V43.24H50.32V44.4h-.47V41.74h.47v1.09H51.7V41.74h.47V44.4Z"/><path class="cls-5" d="M53.64,43.07A1.37,1.37,0,1,1,55,44.45,1.32,1.32,0,0,1,53.64,43.07Zm2.25,0A.89.89,0,1,0,55,44,.89.89,0,0,0,55.89,43.07Z"/><path class="cls-5" d="M56.81,44.4V41.74h1.83v.41H57.28v.69h1.33v.41H57.28V44.4Z"/><path class="cls-5" d="M34.48,49V46.3h1.17a.84.84,0,1,1,0,1.67H35v1Zm1.57-1.83a.43.43,0,0,0-.46-.43H35v.85h.64A.43.43,0,0,0,36.05,47.14Z"/><path class="cls-5" d="M38.43,49l-.59-1h-.46v1h-.47V46.3h1.17a.81.81,0,0,1,.87.84.75.75,0,0,1-.63.78L39,49Zm0-1.83a.42.42,0,0,0-.45-.43h-.64v.85H38A.42.42,0,0,0,38.47,47.14Z"/><path class="cls-5" d="M39.42,49V46.3h1.82v.41H39.88v.69h1.33v.42H39.88v.73h1.36V49Z"/><path class="cls-5" d="M42.49,49,41.44,46.3H42l.81,2.16.81-2.16h.53l-1,2.67Z"/><path class="cls-5" d="M44.41,49V46.3h.46V49Z"/><path class="cls-5" d="M45.32,47.64A1.37,1.37,0,1,1,46.68,49,1.32,1.32,0,0,1,45.32,47.64Zm2.25,0a.89.89,0,1,0-.89,1A.89.89,0,0,0,47.57,47.64Z"/><path class="cls-5" d="M48.49,47.92V46.3H49v1.6a.69.69,0,1,0,1.37,0V46.3h.47v1.61a1.16,1.16,0,0,1-2.31,0Z"/><path class="cls-5" d="M51.19,48.59l.26-.36a1.12,1.12,0,0,0,.84.37c.39,0,.54-.19.54-.36,0-.56-1.55-.22-1.55-1.2,0-.44.38-.78,1-.78a1.4,1.4,0,0,1,1,.37L53,47a1.07,1.07,0,0,0-.77-.3c-.28,0-.45.13-.45.33,0,.49,1.55.19,1.55,1.18,0,.44-.32.82-1,.82A1.43,1.43,0,0,1,51.19,48.59Z"/><path class="cls-5" d="M54.76,49V46.3h1.31a.68.68,0,0,1,.76.68.59.59,0,0,1-.46.61.66.66,0,0,1,.51.66.7.7,0,0,1-.77.72Zm1.59-1.91a.34.34,0,0,0-.37-.35h-.75v.69H56A.33.33,0,0,0,56.35,47.06Zm0,1.12a.36.36,0,0,0-.4-.36h-.77v.73H56A.35.35,0,0,0,56.4,48.18Z"/><path class="cls-5" d="M57.35,49V46.3h.47v2.25H59V49Z"/><path class="cls-5" d="M59.17,47.64A1.37,1.37,0,1,1,60.53,49,1.32,1.32,0,0,1,59.17,47.64Zm2.25,0a.89.89,0,1,0-.89,1A.89.89,0,0,0,61.42,47.64Z"/><path class="cls-5" d="M62.23,47.64a1.34,1.34,0,0,1,1.4-1.38,1.21,1.21,0,0,1,1.07.6l-.4.2a.8.8,0,0,0-.67-.39,1,1,0,0,0,0,1.93.78.78,0,0,0,.67-.39l.4.21a1.22,1.22,0,0,1-1.07.59A1.34,1.34,0,0,1,62.23,47.64Z"/><path class="cls-5" d="M66.66,49l-.89-1.13-.23.28V49h-.47V46.3h.47v1.27l1-1.27h.58l-1.09,1.26L67.24,49Z"/><rect class="cls-4" x="100.08" y="38.19" width="51.8" height="14.36"/><rect class="cls-4" x="100.08" y="52.55" width="51.8" height="14.36"/><path class="cls-5" d="M109.67,30.9V28.23H111a.69.69,0,0,1,.76.68.61.61,0,0,1-.46.62.64.64,0,0,1,.51.65.7.7,0,0,1-.77.72ZM111.26,29a.33.33,0,0,0-.37-.34h-.75v.69h.75A.34.34,0,0,0,111.26,29Zm0,1.13a.37.37,0,0,0-.4-.37h-.77v.74h.77A.36.36,0,0,0,111.31,30.12Z"/><path class="cls-5" d="M112.26,30.9V28.23h.47v2.26h1.17v.41Z"/><path class="cls-5" d="M114.08,29.57a1.37,1.37,0,1,1,2.73,0,1.37,1.37,0,1,1-2.73,0Zm2.25,0a.89.89,0,1,0-.89,1A.89.89,0,0,0,116.33,29.57Z"/><path class="cls-5" d="M117.14,29.57a1.34,1.34,0,0,1,1.4-1.38,1.21,1.21,0,0,1,1.07.6l-.4.2a.79.79,0,0,0-.67-.38,1,1,0,0,0,0,1.92.78.78,0,0,0,.67-.39l.4.21a1.23,1.23,0,0,1-1.07.6A1.34,1.34,0,0,1,117.14,29.57Z"/><path class="cls-5" d="M121.57,30.9l-.89-1.12-.23.27v.85H120V28.23h.47V29.5l1-1.27h.58L121,29.49l1.17,1.41Z"/><path class="cls-5" d="M123.4,30.9v-.37c1-.78,1.44-1.13,1.44-1.51s-.24-.41-.49-.41a.94.94,0,0,0-.72.32l-.27-.31a1.3,1.3,0,0,1,1-.43.87.87,0,0,1,1,.83c0,.49-.45.93-1.16,1.47h1.18v.41Z"/><path class="cls-5" d="M128.74,30.9V29.74h-1.39V30.9h-.47V28.23h.47v1.1h1.39v-1.1h.47V30.9Z"/><path class="cls-5" d="M129.77,30.9V28.23h1.83v.42h-1.36v.69h1.33v.41h-1.33v.74h1.36v.41Z"/><path class="cls-5" d="M133.94,30.9l-.2-.51h-1.22l-.19.51h-.54l1.05-2.67h.58l1.05,2.67Zm-.81-2.19L132.65,30h1Z"/><path class="cls-5" d="M134.76,30.9V28.23h1a1.34,1.34,0,1,1,0,2.67Zm1.91-1.33a.86.86,0,0,0-.92-.92h-.52v1.84h.52A.88.88,0,0,0,136.67,29.57Z"/><path class="cls-5" d="M137.59,30.9V28.23h1.83v.42h-1.36v.69h1.33v.41h-1.33v.74h1.36v.41Z"/><path class="cls-5" d="M141.42,30.9l-.59-1h-.47v1h-.46V28.23h1.17a.82.82,0,0,1,.87.84.74.74,0,0,1-.63.78l.65,1Zm0-1.83a.42.42,0,0,0-.46-.42h-.64v.84H141A.42.42,0,0,0,141.46,29.07Z"/><path class="cls-5" d="M118.28,61.15V58.89h-.81v-.41h2.08v.41h-.8v2.26Z"/><path class="cls-5" d="M121.73,61.15l-.75-1-.74,1h-.56l1-1.37-.94-1.3h.56l.68,1,.69-1h.56l-.93,1.29,1,1.38Z"/><path class="cls-5" d="M125.13,61.15l-.59-1h-.46v1h-.47V58.48h1.17a.81.81,0,0,1,.88.83.76.76,0,0,1-.64.79l.65,1Zm0-1.84a.42.42,0,0,0-.45-.42h-.64v.85h.64A.42.42,0,0,0,125.17,59.31Z"/><path class="cls-5" d="M126,59.81a1.37,1.37,0,1,1,1.36,1.38A1.32,1.32,0,0,1,126,59.81Zm2.25,0a.89.89,0,1,0-.89,1A.89.89,0,0,0,128.25,59.81Z"/><path class="cls-5" d="M129.05,59.81a1.37,1.37,0,1,1,2.73,0,1.37,1.37,0,1,1-2.73,0Zm2.25,0a.89.89,0,1,0-1.77,0,.89.89,0,1,0,1.77,0Z"/><path class="cls-5" d="M132.76,61.15V58.89H132v-.41H134v.41h-.81v2.26Z"/><path class="cls-5" d="M118.82,44.4V43.24h-1.38V44.4H117V41.74h.47v1.09h1.38V41.74h.47V44.4Z"/><path class="cls-5" d="M121.72,44.4l-.2-.51H120.3l-.19.51h-.54l1.05-2.66h.58l1,2.66Zm-.81-2.19-.48,1.27h1Z"/><path class="cls-5" d="M122.33,44l.26-.36a1.16,1.16,0,0,0,.84.37c.39,0,.54-.19.54-.37,0-.56-1.56-.21-1.56-1.19,0-.44.39-.78,1-.78a1.38,1.38,0,0,1,1,.37l-.26.35a1.1,1.1,0,0,0-.78-.31c-.27,0-.45.14-.45.34,0,.49,1.55.18,1.55,1.18,0,.44-.31.82-1,.82A1.42,1.42,0,0,1,122.33,44Z"/><path class="cls-5" d="M126.73,44.4V43.24h-1.39V44.4h-.47V41.74h.47v1.09h1.39V41.74h.46V44.4Z"/><path class="cls-5" d="M128.66,43.07a1.37,1.37,0,1,1,2.73,0,1.37,1.37,0,1,1-2.73,0Zm2.25,0a.89.89,0,1,0-1.77,0,.89.89,0,1,0,1.77,0Z"/><path class="cls-5" d="M131.84,44.4V41.74h1.82v.41H132.3v.69h1.34v.41H132.3V44.4Z"/><path class="cls-5" d="M109.51,49V46.3h1.17a.84.84,0,1,1,0,1.67H110v1Zm1.56-1.83a.42.42,0,0,0-.46-.43H110v.85h.64A.42.42,0,0,0,111.07,47.14Z"/><path class="cls-5" d="M113.45,49l-.59-1h-.46v1h-.47V46.3h1.17a.81.81,0,0,1,.87.84.75.75,0,0,1-.63.78l.65,1Zm0-1.83a.42.42,0,0,0-.45-.43h-.64v.85H113A.42.42,0,0,0,113.49,47.14Z"/><path class="cls-5" d="M114.44,49V46.3h1.82v.41h-1.35v.69h1.33v.42h-1.33v.73h1.35V49Z"/><path class="cls-5" d="M117.51,49l-1.05-2.67H117l.81,2.16.81-2.16h.53l-1,2.67Z"/><path class="cls-5" d="M119.43,49V46.3h.47V49Z"/><path class="cls-5" d="M120.34,47.64A1.37,1.37,0,1,1,121.71,49,1.33,1.33,0,0,1,120.34,47.64Zm2.25,0a.89.89,0,1,0-.88,1A.89.89,0,0,0,122.59,47.64Z"/><path class="cls-5" d="M123.52,47.92V46.3H124v1.6a.68.68,0,1,0,1.36,0V46.3h.47v1.61a1.15,1.15,0,0,1-2.3,0Z"/><path class="cls-5" d="M126.21,48.59l.26-.36a1.17,1.17,0,0,0,.85.37c.38,0,.53-.19.53-.36,0-.56-1.55-.22-1.55-1.2,0-.44.39-.78,1-.78a1.4,1.4,0,0,1,1,.37L128,47a1.07,1.07,0,0,0-.77-.3c-.28,0-.45.13-.45.33,0,.49,1.55.19,1.55,1.18,0,.44-.31.82-1,.82A1.46,1.46,0,0,1,126.21,48.59Z"/><path class="cls-5" d="M129.78,49V46.3h1.31a.68.68,0,0,1,.76.68.59.59,0,0,1-.46.61.67.67,0,0,1,.52.66.71.71,0,0,1-.78.72Zm1.59-1.91a.34.34,0,0,0-.37-.35h-.75v.69H131A.33.33,0,0,0,131.37,47.06Zm.06,1.12a.36.36,0,0,0-.41-.36h-.77v.73H131A.36.36,0,0,0,131.43,48.18Z"/><path class="cls-5" d="M132.37,49V46.3h.47v2.25H134V49Z"/><path class="cls-5" d="M134.19,47.64A1.37,1.37,0,1,1,135.56,49,1.33,1.33,0,0,1,134.19,47.64Zm2.25,0a.89.89,0,1,0-.88,1A.89.89,0,0,0,136.44,47.64Z"/><path class="cls-5" d="M137.25,47.64a1.34,1.34,0,0,1,1.4-1.38,1.2,1.2,0,0,1,1.07.6l-.4.2a.8.8,0,0,0-.67-.39,1,1,0,0,0,0,1.93.78.78,0,0,0,.67-.39l.4.21a1.21,1.21,0,0,1-1.07.59A1.34,1.34,0,0,1,137.25,47.64Z"/><path class="cls-5" d="M141.68,49l-.89-1.13-.23.28V49h-.47V46.3h.47v1.27l1-1.27h.58l-1.08,1.26L142.26,49Z"/><rect class="cls-4" x="174.94" y="52.55" width="51.8" height="14.36"/><path class="cls-5" d="M184.57,30.9V28.23h1.31a.69.69,0,0,1,.76.68.61.61,0,0,1-.46.62.65.65,0,0,1,.52.65.71.71,0,0,1-.78.72ZM186.16,29a.33.33,0,0,0-.37-.34H185v.69h.75A.34.34,0,0,0,186.16,29Zm.06,1.13a.37.37,0,0,0-.41-.37H185v.74h.77A.36.36,0,0,0,186.22,30.12Z"/><path class="cls-5" d="M187.16,30.9V28.23h.47v2.26h1.17v.41Z"/><path class="cls-5" d="M189,29.57A1.37,1.37,0,1,1,190.35,31,1.33,1.33,0,0,1,189,29.57Zm2.25,0a.89.89,0,1,0-.88,1A.88.88,0,0,0,191.23,29.57Z"/><path class="cls-5" d="M192,29.57a1.34,1.34,0,0,1,1.4-1.38,1.2,1.2,0,0,1,1.07.6l-.4.2a.79.79,0,0,0-.67-.38,1,1,0,0,0,0,1.92.78.78,0,0,0,.67-.39l.4.21a1.21,1.21,0,0,1-1.07.6A1.34,1.34,0,0,1,192,29.57Z"/><path class="cls-5" d="M196.47,30.9l-.89-1.12-.23.27v.85h-.47V28.23h.47V29.5l1-1.27H197l-1.08,1.26,1.16,1.41Z"/><path class="cls-5" d="M198.2,30.52l.25-.31a1,1,0,0,0,.74.32c.35,0,.55-.16.55-.4s-.21-.38-.59-.38h-.31v-.42h.31c.31,0,.55-.11.55-.35s-.24-.38-.54-.38a.92.92,0,0,0-.69.3l-.24-.3a1.25,1.25,0,0,1,1-.42c.58,0,1,.28,1,.72a.66.66,0,0,1-.58.62.66.66,0,0,1,.62.64c0,.46-.39.78-1,.78A1.23,1.23,0,0,1,198.2,30.52Z"/><path class="cls-5" d="M203.56,30.9V29.74h-1.39V30.9h-.47V28.23h.47v1.1h1.39v-1.1H204V30.9Z"/><path class="cls-5" d="M204.59,30.9V28.23h1.83v.42h-1.36v.69h1.33v.41h-1.33v.74h1.36v.41Z"/><path class="cls-5" d="M208.76,30.9l-.2-.51h-1.22l-.2.51h-.53l1-2.67h.58l1,2.67ZM208,28.71,207.47,30h1Z"/><path class="cls-5" d="M209.58,30.9V28.23h1a1.34,1.34,0,1,1,0,2.67Zm1.9-1.33a.85.85,0,0,0-.91-.92h-.52v1.84h.52A.87.87,0,0,0,211.48,29.57Z"/><path class="cls-5" d="M212.41,30.9V28.23h1.83v.42h-1.36v.69h1.33v.41h-1.33v.74h1.36v.41Z"/><path class="cls-5" d="M216.24,30.9l-.59-1h-.47v1h-.46V28.23h1.17a.81.81,0,0,1,.87.84.74.74,0,0,1-.63.78l.65,1Zm0-1.83a.42.42,0,0,0-.46-.42h-.64v.84h.64A.42.42,0,0,0,216.28,29.07Z"/><path class="cls-5" d="M193.14,61.15V58.89h-.81v-.41h2.09v.41h-.81v2.26Z"/><path class="cls-5" d="M196.59,61.15l-.75-1-.74,1h-.56l1-1.37-.94-1.3h.56l.68,1,.69-1h.56l-.93,1.29,1,1.38Z"/><path class="cls-5" d="M200,61.15l-.6-1h-.46v1h-.47V58.48h1.17a.81.81,0,0,1,.88.83.76.76,0,0,1-.64.79l.66,1Zm0-1.84a.43.43,0,0,0-.46-.42h-.64v.85h.64A.43.43,0,0,0,200,59.31Z"/><path class="cls-5" d="M200.86,59.81a1.37,1.37,0,1,1,1.36,1.38A1.32,1.32,0,0,1,200.86,59.81Zm2.25,0a.89.89,0,1,0-.89,1A.89.89,0,0,0,203.11,59.81Z"/><path class="cls-5" d="M203.91,59.81a1.37,1.37,0,1,1,2.73,0,1.37,1.37,0,1,1-2.73,0Zm2.25,0a.89.89,0,1,0-1.77,0,.89.89,0,1,0,1.77,0Z"/><path class="cls-5" d="M207.62,61.15V58.89h-.8v-.41h2.08v.41h-.81v2.26Z"/><polyline class="cls-6" points="100.08 44.97 88.5 44.97 88.5 29.88 78.27 29.88"/><polygon class="cls-7" points="76.86 29.88 78.84 29.06 78.37 29.88 78.84 30.69 76.86 29.88"/><polyline class="cls-6" points="175.1 44.97 163.52 44.97 163.52 29.88 153.29 29.88"/><polygon class="cls-7" points="151.88 29.88 153.87 29.06 153.4 29.88 153.87 30.69 151.88 29.88"/><path class="cls-5" d="M178.1,78.5V75.83h1.31a.68.68,0,0,1,.76.68.61.61,0,0,1-.46.61.65.65,0,0,1,.51.66.7.7,0,0,1-.77.72Zm1.59-1.91a.34.34,0,0,0-.38-.35h-.74v.69h.74A.34.34,0,0,0,179.69,76.59Zm.05,1.12a.37.37,0,0,0-.4-.37h-.77v.74h.77A.36.36,0,0,0,179.74,77.71Z"/><path class="cls-5" d="M180.69,78.5V75.83h.46v2.25h1.18v.42Z"/><path class="cls-5" d="M182.51,77.16a1.37,1.37,0,1,1,1.36,1.38A1.32,1.32,0,0,1,182.51,77.16Zm2.25,0a.89.89,0,1,0-.89,1A.89.89,0,0,0,184.76,77.16Z"/><path class="cls-5" d="M185.56,77.16a1.35,1.35,0,0,1,1.4-1.38,1.22,1.22,0,0,1,1.08.6l-.41.21a.78.78,0,0,0-.67-.39,1,1,0,0,0,0,1.93.78.78,0,0,0,.67-.39l.41.2a1.23,1.23,0,0,1-1.08.6A1.35,1.35,0,0,1,185.56,77.16Z"/><path class="cls-5" d="M190,78.5l-.89-1.13-.24.27v.86h-.46V75.83h.46V77.1l1-1.27h.58l-1.09,1.26,1.17,1.41Z"/><path class="cls-5" d="M191.72,78.11l.25-.31a1,1,0,0,0,.74.33c.36,0,.56-.16.56-.41s-.21-.38-.59-.38h-.31v-.42h.31c.31,0,.55-.11.55-.35s-.24-.38-.54-.38a.94.94,0,0,0-.69.3l-.24-.29a1.23,1.23,0,0,1,1-.42c.58,0,1,.27,1,.72a.65.65,0,0,1-.58.61.67.67,0,0,1,.62.65c0,.45-.38.77-1,.77A1.25,1.25,0,0,1,191.72,78.11Z"/><path class="cls-5" d="M195.86,78.5V76.24h-.8v-.41h2.08v.41h-.81V78.5Z"/><path class="cls-5" d="M199.05,78.5l-.59-1H198v1h-.47V75.83h1.17a.8.8,0,0,1,.87.83.75.75,0,0,1-.63.79l.65,1Zm0-1.84a.42.42,0,0,0-.45-.42H198v.85h.64A.42.42,0,0,0,199.09,76.66Z"/><path class="cls-5" d="M201.91,78.5l-.2-.52h-1.22l-.2.52h-.53l1.05-2.67h.58l1.05,2.67Zm-.81-2.2-.48,1.27h1Z"/><path class="cls-5" d="M204.58,78.5l-1.39-1.91V78.5h-.47V75.83h.48l1.37,1.85V75.83H205V78.5Z"/><path class="cls-5" d="M205.43,78.12l.26-.36a1.12,1.12,0,0,0,.84.37c.39,0,.54-.19.54-.37,0-.56-1.56-.21-1.56-1.19,0-.44.39-.78,1-.78a1.38,1.38,0,0,1,1,.37l-.27.35a1.06,1.06,0,0,0-.77-.31c-.27,0-.45.14-.45.34,0,.49,1.55.18,1.55,1.18,0,.44-.31.82-1,.82A1.42,1.42,0,0,1,205.43,78.12Z"/><path class="cls-5" d="M209.8,78.5l-.2-.52h-1.22l-.2.52h-.53l1-2.67h.58l1.05,2.67ZM209,76.3l-.48,1.27h1Z"/><path class="cls-5" d="M210.36,77.16a1.34,1.34,0,0,1,1.4-1.38,1.2,1.2,0,0,1,1.07.6l-.4.21a.8.8,0,0,0-.67-.39,1,1,0,0,0,0,1.93.8.8,0,0,0,.67-.39l.4.2a1.21,1.21,0,0,1-1.07.6A1.34,1.34,0,0,1,210.36,77.16Z"/><path class="cls-5" d="M213.84,78.5V76.24H213v-.41h2.08v.41h-.81V78.5Z"/><path class="cls-5" d="M215.5,78.5V75.83H216V78.5Z"/><path class="cls-5" d="M216.42,77.16a1.36,1.36,0,1,1,1.36,1.38A1.32,1.32,0,0,1,216.42,77.16Zm2.24,0a.88.88,0,1,0-.88,1A.88.88,0,0,0,218.66,77.16Z"/><path class="cls-5" d="M221.45,78.5l-1.39-1.91V78.5h-.47V75.83h.48l1.36,1.85V75.83h.47V78.5Z"/><path class="cls-5" d="M222.29,78.12l.26-.36a1.15,1.15,0,0,0,.85.37c.38,0,.53-.19.53-.37,0-.56-1.55-.21-1.55-1.19,0-.44.38-.78,1-.78a1.4,1.4,0,0,1,1,.37l-.27.35a1.08,1.08,0,0,0-.77-.31c-.28,0-.45.14-.45.34,0,.49,1.55.18,1.55,1.18,0,.44-.31.82-1,.82A1.44,1.44,0,0,1,222.29,78.12Z"/><path class="cls-5" d="M103.2,78.5V75.83h1.31a.68.68,0,0,1,.76.68.6.6,0,0,1-.47.61.65.65,0,0,1,.52.66.71.71,0,0,1-.78.72Zm1.59-1.91a.34.34,0,0,0-.38-.35h-.74v.69h.74A.34.34,0,0,0,104.79,76.59Zm0,1.12a.37.37,0,0,0-.41-.37h-.76v.74h.76A.36.36,0,0,0,104.84,77.71Z"/><path class="cls-5" d="M105.78,78.5V75.83h.47v2.25h1.18v.42Z"/><path class="cls-5" d="M107.61,77.16A1.36,1.36,0,1,1,109,78.54,1.32,1.32,0,0,1,107.61,77.16Zm2.24,0a.88.88,0,1,0-.88,1A.88.88,0,0,0,109.85,77.16Z"/><path class="cls-5" d="M110.66,77.16a1.34,1.34,0,0,1,1.4-1.38,1.2,1.2,0,0,1,1.07.6l-.4.21a.79.79,0,0,0-.67-.39,1,1,0,0,0,0,1.93.79.79,0,0,0,.67-.39l.4.2a1.2,1.2,0,0,1-1.07.6A1.34,1.34,0,0,1,110.66,77.16Z"/><path class="cls-5" d="M115.1,78.5l-.9-1.13-.23.27v.86h-.47V75.83H114V77.1l1-1.27h.58l-1.08,1.26,1.16,1.41Z"/><path class="cls-5" d="M116.92,78.5v-.37c1-.79,1.44-1.13,1.44-1.52a.43.43,0,0,0-.48-.41.94.94,0,0,0-.72.32l-.27-.3a1.25,1.25,0,0,1,1-.43.86.86,0,0,1,1,.82c0,.49-.45.93-1.17,1.47h1.19v.42Z"/><path class="cls-5" d="M121.05,78.5V76.24h-.81v-.41h2.08v.41h-.81V78.5Z"/><path class="cls-5" d="M124.24,78.5l-.6-1h-.46v1h-.47V75.83h1.17a.81.81,0,0,1,.88.83.76.76,0,0,1-.64.79l.66,1Zm0-1.84a.43.43,0,0,0-.46-.42h-.64v.85h.64A.43.43,0,0,0,124.28,76.66Z"/><path class="cls-5" d="M127.09,78.5l-.2-.52h-1.22l-.2.52h-.53l1-2.67h.58l1.05,2.67Zm-.81-2.2-.48,1.27h1Z"/><path class="cls-5" d="M129.76,78.5l-1.39-1.91V78.5h-.46V75.83h.48l1.36,1.85V75.83h.47V78.5Z"/><path class="cls-5" d="M130.61,78.12l.26-.36a1.12,1.12,0,0,0,.84.37c.38,0,.54-.19.54-.37,0-.56-1.56-.21-1.56-1.19,0-.44.39-.78,1-.78a1.37,1.37,0,0,1,1,.37l-.26.35a1.1,1.1,0,0,0-.78-.31c-.27,0-.45.14-.45.34,0,.49,1.55.18,1.55,1.18,0,.44-.31.82-1,.82A1.42,1.42,0,0,1,130.61,78.12Z"/><path class="cls-5" d="M135,78.5l-.2-.52h-1.22l-.2.52h-.53l1-2.67h.58l1,2.67Zm-.81-2.2-.48,1.27h1Z"/><path class="cls-5" d="M135.54,77.16a1.34,1.34,0,0,1,1.4-1.38,1.2,1.2,0,0,1,1.07.6l-.4.21a.8.8,0,0,0-.67-.39,1,1,0,0,0,0,1.93.8.8,0,0,0,.67-.39l.4.2a1.21,1.21,0,0,1-1.07.6A1.34,1.34,0,0,1,135.54,77.16Z"/><path class="cls-5" d="M139,78.5V76.24h-.81v-.41h2.08v.41h-.81V78.5Z"/><path class="cls-5" d="M140.68,78.5V75.83h.47V78.5Z"/><path class="cls-5" d="M141.6,77.16A1.36,1.36,0,1,1,143,78.54,1.32,1.32,0,0,1,141.6,77.16Zm2.24,0a.88.88,0,1,0-.88,1A.88.88,0,0,0,143.84,77.16Z"/><path class="cls-5" d="M146.63,78.5l-1.39-1.91V78.5h-.47V75.83h.48l1.36,1.85V75.83h.47V78.5Z"/><path class="cls-5" d="M147.47,78.12l.26-.36a1.17,1.17,0,0,0,.85.37c.38,0,.53-.19.53-.37,0-.56-1.55-.21-1.55-1.19,0-.44.39-.78,1-.78a1.38,1.38,0,0,1,1,.37l-.27.35a1.08,1.08,0,0,0-.77-.31c-.28,0-.45.14-.45.34,0,.49,1.55.18,1.55,1.18,0,.44-.31.82-1,.82A1.46,1.46,0,0,1,147.47,78.12Z"/><rect class="cls-4" x="174.94" y="38.19" width="51.8" height="14.36"/><path class="cls-5" d="M193.68,44.4V43.24H192.3V44.4h-.47V41.74h.47v1.09h1.38V41.74h.47V44.4Z"/><path class="cls-5" d="M196.58,44.4l-.2-.51h-1.22l-.19.51h-.54l1-2.66h.58l1.05,2.66Zm-.81-2.19-.48,1.27h1Z"/><path class="cls-5" d="M197.19,44l.26-.36a1.16,1.16,0,0,0,.84.37c.38,0,.54-.19.54-.37,0-.56-1.56-.21-1.56-1.19,0-.44.39-.78,1-.78a1.37,1.37,0,0,1,1,.37l-.26.35a1.1,1.1,0,0,0-.78-.31c-.27,0-.45.14-.45.34,0,.49,1.55.18,1.55,1.18,0,.44-.31.82-1,.82A1.42,1.42,0,0,1,197.19,44Z"/><path class="cls-5" d="M201.59,44.4V43.24H200.2V44.4h-.47V41.74h.47v1.09h1.39V41.74h.46V44.4Z"/><path class="cls-5" d="M203.52,43.07a1.37,1.37,0,1,1,2.73,0,1.37,1.37,0,1,1-2.73,0Zm2.25,0a.89.89,0,1,0-1.77,0,.89.89,0,1,0,1.77,0Z"/><path class="cls-5" d="M206.7,44.4V41.74h1.82v.41h-1.35v.69h1.33v.41h-1.33V44.4Z"/><path class="cls-5" d="M184.37,49V46.3h1.17a.84.84,0,1,1,0,1.67h-.71v1Zm1.56-1.83a.42.42,0,0,0-.46-.43h-.64v.85h.64A.42.42,0,0,0,185.93,47.14Z"/><path class="cls-5" d="M188.31,49l-.59-1h-.46v1h-.47V46.3H188a.81.81,0,0,1,.88.84.75.75,0,0,1-.64.78l.65,1Zm0-1.83a.42.42,0,0,0-.45-.43h-.64v.85h.64A.42.42,0,0,0,188.35,47.14Z"/><path class="cls-5" d="M189.3,49V46.3h1.83v.41h-1.36v.69h1.33v.42h-1.33v.73h1.36V49Z"/><path class="cls-5" d="M192.37,49l-1.05-2.67h.53l.81,2.16.81-2.16H194L193,49Z"/><path class="cls-5" d="M194.29,49V46.3h.47V49Z"/><path class="cls-5" d="M195.2,47.64A1.37,1.37,0,1,1,196.57,49,1.33,1.33,0,0,1,195.2,47.64Zm2.25,0a.89.89,0,1,0-.88,1A.89.89,0,0,0,197.45,47.64Z"/><path class="cls-5" d="M198.38,47.92V46.3h.47v1.6a.68.68,0,1,0,1.36,0V46.3h.47v1.61a1.15,1.15,0,0,1-2.3,0Z"/><path class="cls-5" d="M201.07,48.59l.26-.36a1.17,1.17,0,0,0,.85.37c.38,0,.53-.19.53-.36,0-.56-1.55-.22-1.55-1.2,0-.44.39-.78,1-.78a1.38,1.38,0,0,1,1,.37l-.27.35a1.07,1.07,0,0,0-.77-.3c-.28,0-.45.13-.45.33,0,.49,1.55.19,1.55,1.18,0,.44-.31.82-1,.82A1.46,1.46,0,0,1,201.07,48.59Z"/><path class="cls-5" d="M204.64,49V46.3H206a.68.68,0,0,1,.76.68.59.59,0,0,1-.46.61.67.67,0,0,1,.52.66A.71.71,0,0,1,206,49Zm1.59-1.91a.34.34,0,0,0-.37-.35h-.75v.69h.75A.33.33,0,0,0,206.23,47.06Zm.06,1.12a.36.36,0,0,0-.41-.36h-.77v.73h.77A.36.36,0,0,0,206.29,48.18Z"/><path class="cls-5" d="M207.23,49V46.3h.47v2.25h1.17V49Z"/><path class="cls-5" d="M209.05,47.64A1.37,1.37,0,1,1,210.42,49,1.33,1.33,0,0,1,209.05,47.64Zm2.25,0a.89.89,0,1,0-.88,1A.89.89,0,0,0,211.3,47.64Z"/><path class="cls-5" d="M212.11,47.64a1.34,1.34,0,0,1,1.4-1.38,1.2,1.2,0,0,1,1.07.6l-.4.2a.79.79,0,0,0-.67-.39,1,1,0,0,0,0,1.93.77.77,0,0,0,.67-.39l.4.21a1.2,1.2,0,0,1-1.07.59A1.34,1.34,0,0,1,212.11,47.64Z"/><path class="cls-5" d="M216.55,49l-.9-1.13-.23.28V49H215V46.3h.47v1.27l1-1.27H217L216,47.56,217.12,49Z"/><circle class="cls-7" cx="14.68" cy="54" r="14.68"/><g class="cls-8"><polygon class="cls-9" points="10.87 51.53 16.09 56.75 13.82 62.21 27.14 75.53 35.02 64.74 17.26 46.98 10.87 51.53"/></g><path class="cls-10" d="M13.82,50.15h-.05l-2.9,1.38-.59-2.67L14.33,47h2.93V62.21H13.82Z"/></g></g></svg>