<svg xmlns="http://www.w3.org/2000/svg" xmlns:xlink="http://www.w3.org/1999/xlink" viewBox="0 0 242.47 108"><defs><style>.cls-1,.cls-6{fill:none;}.cls-2,.cls-4{fill:#f5f6fa;}.cls-10,.cls-3{fill:#fff;}.cls-3,.cls-4{stroke:#b1aec0;stroke-linejoin:bevel;}.cls-3,.cls-4,.cls-6{stroke-width:0.29px;}.cls-5{fill:#8c8a99;}.cls-6{stroke:#0e9de5;stroke-linecap:round;stroke-linejoin:round;}.cls-7{fill:#0e9de5;}.cls-8{clip-path:url(#clip-path);}.cls-9{fill:#041742;}</style><clipPath id="clip-path"><circle class="cls-1" cx="222.13" cy="54" r="14.68"/></clipPath></defs><title>DS</title><g id="Layer_2" data-name="Layer 2"><g id="content"><rect class="cls-2" width="222" height="108"/><rect class="cls-3" x="157.19" y="19.85" width="57.5" height="49.91"/><rect class="cls-3" x="157.19" y="69.75" width="57.5" height="14.36"/><rect class="cls-3" x="7.31" y="19.85" width="57.5" height="49.91"/><rect class="cls-3" x="7.31" y="69.75" width="57.5" height="14.36"/><rect class="cls-3" x="82.33" y="19.85" width="57.5" height="49.91"/><rect class="cls-3" x="82.33" y="69.75" width="57.5" height="14.36"/><rect class="cls-4" x="10.16" y="38.19" width="51.8" height="14.36"/><rect class="cls-4" x="10.16" y="52.55" width="51.8" height="14.36"/><path class="cls-5" d="M20.18,30.9V28.23h1.31a.69.69,0,0,1,.76.68.61.61,0,0,1-.47.62.64.64,0,0,1,.52.65.71.71,0,0,1-.78.72ZM21.77,29a.34.34,0,0,0-.38-.34h-.75v.69h.75A.34.34,0,0,0,21.77,29Zm.05,1.13a.37.37,0,0,0-.41-.37h-.77v.74h.77A.36.36,0,0,0,21.82,30.12Z"/><path class="cls-5" d="M22.76,30.9V28.23h.47v2.26h1.18v.41Z"/><path class="cls-5" d="M24.59,29.57A1.36,1.36,0,1,1,26,31,1.32,1.32,0,0,1,24.59,29.57Zm2.24,0a.88.88,0,1,0-.88,1A.88.88,0,0,0,26.83,29.57Z"/><path class="cls-5" d="M27.64,29.57A1.34,1.34,0,0,1,29,28.19a1.2,1.2,0,0,1,1.07.6l-.4.2a.78.78,0,0,0-.67-.38,1,1,0,0,0,0,1.92.77.77,0,0,0,.67-.39l.4.21A1.2,1.2,0,0,1,29,31,1.34,1.34,0,0,1,27.64,29.57Z"/><path class="cls-5" d="M32.08,30.9l-.9-1.12-.23.27v.85h-.47V28.23H31V29.5l1-1.27h.58l-1.08,1.26,1.16,1.41Z"/><path class="cls-5" d="M34.47,30.9V28.84l-.43.45L33.76,29l.77-.78h.41V30.9Z"/><path class="cls-5" d="M38.39,30.9V29.74H37V30.9h-.47V28.23H37v1.1h1.39v-1.1h.46V30.9Z"/><path class="cls-5" d="M39.42,30.9V28.23h1.82v.42H39.88v.69h1.34v.41H39.88v.74h1.36v.41Z"/><path class="cls-5" d="M43.59,30.9l-.2-.51H42.17l-.2.51h-.53l1.05-2.67h.58l1,2.67Zm-.81-2.19L42.3,30h1Z"/><path class="cls-5" d="M44.41,30.9V28.23h1a1.34,1.34,0,1,1,0,2.67Zm1.9-1.33a.86.86,0,0,0-.91-.92h-.52v1.84h.52A.87.87,0,0,0,46.31,29.57Z"/><path class="cls-5" d="M47.24,30.9V28.23h1.83v.42H47.71v.69H49v.41H47.71v.74h1.36v.41Z"/><path class="cls-5" d="M51.07,30.9l-.59-1H50v1h-.46V28.23h1.17a.82.82,0,0,1,.87.84.74.74,0,0,1-.63.78l.65,1Zm0-1.83a.42.42,0,0,0-.46-.42H50v.84h.64A.42.42,0,0,0,51.11,29.07Z"/><path class="cls-5" d="M13.13,78.5V75.83h1.31a.68.68,0,0,1,.76.68.6.6,0,0,1-.46.61.66.66,0,0,1,.52.66.71.71,0,0,1-.78.72Zm1.59-1.91a.34.34,0,0,0-.37-.35H13.6v.69h.75A.33.33,0,0,0,14.72,76.59Zm.06,1.12a.37.37,0,0,0-.41-.37H13.6v.74h.77A.36.36,0,0,0,14.78,77.71Z"/><path class="cls-5" d="M15.72,78.5V75.83h.47v2.25h1.17v.42Z"/><path class="cls-5" d="M17.54,77.16a1.37,1.37,0,1,1,2.73,0,1.37,1.37,0,1,1-2.73,0Zm2.25,0a.89.89,0,1,0-1.77,0,.89.89,0,1,0,1.77,0Z"/><path class="cls-5" d="M20.6,77.16A1.34,1.34,0,0,1,22,75.78a1.2,1.2,0,0,1,1.07.6l-.4.21A.79.79,0,0,0,22,76.2a1,1,0,0,0,0,1.93.79.79,0,0,0,.67-.39l.4.2a1.2,1.2,0,0,1-1.07.6A1.34,1.34,0,0,1,20.6,77.16Z"/><path class="cls-5" d="M25,78.5l-.9-1.13-.23.27v.86h-.47V75.83h.47V77.1l1-1.27h.58l-1.08,1.26,1.16,1.41Z"/><path class="cls-5" d="M27.43,78.5V76.44l-.44.45-.27-.29.77-.77h.41V78.5Z"/><path class="cls-5" d="M30.12,78.5V76.24h-.8v-.41H31.4v.41h-.81V78.5Z"/><path class="cls-5" d="M33.31,78.5l-.59-1h-.46v1h-.47V75.83H33a.8.8,0,0,1,.87.83.75.75,0,0,1-.63.79l.65,1Zm0-1.84a.42.42,0,0,0-.45-.42h-.64v.85h.64A.42.42,0,0,0,33.35,76.66Z"/><path class="cls-5" d="M36.16,78.5,36,78H34.75l-.2.52H34l1-2.67h.58L36.7,78.5Zm-.8-2.2-.48,1.27h1Z"/><path class="cls-5" d="M38.84,78.5l-1.39-1.91V78.5H37V75.83h.48l1.37,1.85V75.83h.47V78.5Z"/><path class="cls-5" d="M39.69,78.12l.26-.36a1.12,1.12,0,0,0,.84.37c.38,0,.54-.19.54-.37,0-.56-1.56-.21-1.56-1.19,0-.44.39-.78,1-.78a1.38,1.38,0,0,1,1,.37l-.27.35a1.06,1.06,0,0,0-.77-.31c-.27,0-.45.14-.45.34,0,.49,1.55.18,1.55,1.18,0,.44-.31.82-1,.82A1.42,1.42,0,0,1,39.69,78.12Z"/><path class="cls-5" d="M44.06,78.5l-.2-.52H42.64l-.2.52h-.53L43,75.83h.58l1.05,2.67Zm-.81-2.2-.48,1.27h1Z"/><path class="cls-5" d="M44.62,77.16A1.34,1.34,0,0,1,46,75.78a1.2,1.2,0,0,1,1.07.6l-.4.21A.8.8,0,0,0,46,76.2a1,1,0,0,0,0,1.93.8.8,0,0,0,.67-.39l.4.2a1.21,1.21,0,0,1-1.07.6A1.34,1.34,0,0,1,44.62,77.16Z"/><path class="cls-5" d="M48.09,78.5V76.24h-.8v-.41h2.08v.41h-.81V78.5Z"/><path class="cls-5" d="M49.76,78.5V75.83h.47V78.5Z"/><path class="cls-5" d="M50.68,77.16A1.36,1.36,0,1,1,52,78.54,1.32,1.32,0,0,1,50.68,77.16Zm2.24,0a.88.88,0,1,0-.88,1A.88.88,0,0,0,52.92,77.16Z"/><path class="cls-5" d="M55.71,78.5l-1.39-1.91V78.5h-.47V75.83h.48l1.36,1.85V75.83h.47V78.5Z"/><path class="cls-5" d="M56.55,78.12l.26-.36a1.15,1.15,0,0,0,.85.37c.38,0,.53-.19.53-.37,0-.56-1.55-.21-1.55-1.19,0-.44.38-.78,1-.78a1.4,1.4,0,0,1,1,.37l-.27.35a1.08,1.08,0,0,0-.77-.31c-.28,0-.45.14-.45.34,0,.49,1.55.18,1.55,1.18,0,.44-.31.82-1,.82A1.44,1.44,0,0,1,56.55,78.12Z"/><path class="cls-5" d="M28.36,61.15V58.89h-.81v-.41h2.08v.41h-.8v2.26Z"/><path class="cls-5" d="M31.81,61.15l-.75-1-.75,1h-.56l1-1.37-.94-1.3h.56l.69,1,.68-1h.57l-.94,1.29,1,1.38Z"/><path class="cls-5" d="M35.21,61.15l-.59-1h-.46v1h-.47V58.48h1.17a.8.8,0,0,1,.87.83.75.75,0,0,1-.63.79l.65,1Zm0-1.84a.42.42,0,0,0-.45-.42h-.64v.85h.64A.42.42,0,0,0,35.25,59.31Z"/><path class="cls-5" d="M36.08,59.81a1.36,1.36,0,1,1,1.36,1.38A1.32,1.32,0,0,1,36.08,59.81Zm2.24,0a.88.88,0,1,0-.88,1A.88.88,0,0,0,38.32,59.81Z"/><path class="cls-5" d="M39.13,59.81a1.37,1.37,0,1,1,1.36,1.38A1.32,1.32,0,0,1,39.13,59.81Zm2.25,0a.89.89,0,1,0-.89,1A.89.89,0,0,0,41.38,59.81Z"/><path class="cls-5" d="M42.84,61.15V58.89H42v-.41h2.08v.41h-.8v2.26Z"/><path class="cls-5" d="M28.9,44.4V43.24H27.51V44.4h-.46V41.74h.46v1.09H28.9V41.74h.47V44.4Z"/><path class="cls-5" d="M31.8,44.4l-.2-.51H30.38l-.2.51h-.53l1.05-2.66h.58l1,2.66ZM31,42.21l-.48,1.27h1Z"/><path class="cls-5" d="M32.41,44l.26-.36a1.16,1.16,0,0,0,.84.37c.38,0,.53-.19.53-.37,0-.56-1.55-.21-1.55-1.19,0-.44.39-.78,1-.78a1.38,1.38,0,0,1,1,.37l-.27.35a1.08,1.08,0,0,0-.77-.31c-.28,0-.45.14-.45.34,0,.49,1.55.18,1.55,1.18,0,.44-.31.82-1,.82A1.42,1.42,0,0,1,32.41,44Z"/><path class="cls-5" d="M36.8,44.4V43.24H35.42V44.4H35V41.74h.47v1.09H36.8V41.74h.47V44.4Z"/><path class="cls-5" d="M38.74,43.07a1.37,1.37,0,1,1,1.36,1.38A1.32,1.32,0,0,1,38.74,43.07Zm2.25,0a.89.89,0,1,0-.89,1A.89.89,0,0,0,41,43.07Z"/><path class="cls-5" d="M41.91,44.4V41.74h1.83v.41H42.38v.69h1.33v.41H42.38V44.4Z"/><path class="cls-5" d="M19.58,49V46.3h1.17a.84.84,0,1,1,0,1.67h-.7v1Zm1.56-1.83a.42.42,0,0,0-.45-.43h-.64v.85h.64A.42.42,0,0,0,21.14,47.14Z"/><path class="cls-5" d="M23.53,49l-.59-1h-.46v1H22V46.3h1.17a.81.81,0,0,1,.87.84.75.75,0,0,1-.63.78l.65,1Zm0-1.83a.42.42,0,0,0-.45-.43h-.64v.85h.64A.42.42,0,0,0,23.57,47.14Z"/><path class="cls-5" d="M24.52,49V46.3h1.82v.41H25v.69h1.33v.42H25v.73h1.36V49Z"/><path class="cls-5" d="M27.59,49,26.54,46.3h.53l.81,2.16.81-2.16h.53l-1,2.67Z"/><path class="cls-5" d="M29.51,49V46.3H30V49Z"/><path class="cls-5" d="M30.42,47.64A1.37,1.37,0,1,1,31.78,49,1.32,1.32,0,0,1,30.42,47.64Zm2.25,0a.89.89,0,1,0-.89,1A.89.89,0,0,0,32.67,47.64Z"/><path class="cls-5" d="M33.59,47.92V46.3h.47v1.6a.69.69,0,1,0,1.37,0V46.3h.47v1.61a1.16,1.16,0,0,1-2.31,0Z"/><path class="cls-5" d="M36.29,48.59l.26-.36a1.12,1.12,0,0,0,.84.37c.39,0,.54-.19.54-.36,0-.56-1.55-.22-1.55-1.2,0-.44.38-.78,1-.78a1.4,1.4,0,0,1,1,.37l-.27.35a1.07,1.07,0,0,0-.77-.3c-.28,0-.46.13-.46.33,0,.49,1.56.19,1.56,1.18,0,.44-.32.82-1,.82A1.43,1.43,0,0,1,36.29,48.59Z"/><path class="cls-5" d="M39.86,49V46.3h1.31a.68.68,0,0,1,.76.68.59.59,0,0,1-.46.61.66.66,0,0,1,.51.66.7.7,0,0,1-.77.72Zm1.59-1.91a.34.34,0,0,0-.37-.35h-.75v.69h.75A.33.33,0,0,0,41.45,47.06Zm0,1.12a.36.36,0,0,0-.4-.36h-.77v.73h.77A.35.35,0,0,0,41.5,48.18Z"/><path class="cls-5" d="M42.45,49V46.3h.47v2.25h1.17V49Z"/><path class="cls-5" d="M44.27,47.64A1.37,1.37,0,1,1,45.63,49,1.32,1.32,0,0,1,44.27,47.64Zm2.25,0a.89.89,0,1,0-.89,1A.89.89,0,0,0,46.52,47.64Z"/><path class="cls-5" d="M47.33,47.64a1.34,1.34,0,0,1,1.39-1.38,1.22,1.22,0,0,1,1.08.6l-.4.2a.81.81,0,0,0-.68-.39,1,1,0,0,0,0,1.93.79.79,0,0,0,.68-.39l.4.21a1.23,1.23,0,0,1-1.08.59A1.33,1.33,0,0,1,47.33,47.64Z"/><path class="cls-5" d="M51.76,49l-.89-1.13-.24.28V49h-.46V46.3h.46v1.27l1-1.27h.58l-1.09,1.26L52.34,49Z"/><rect class="cls-4" x="85.18" y="38.19" width="51.8" height="14.36"/><rect class="cls-4" x="85.18" y="52.55" width="51.8" height="14.36"/><path class="cls-5" d="M94.77,30.9V28.23h1.31a.69.69,0,0,1,.76.68.61.61,0,0,1-.46.62.64.64,0,0,1,.51.65.7.7,0,0,1-.77.72ZM96.36,29a.33.33,0,0,0-.37-.34h-.75v.69H96A.34.34,0,0,0,96.36,29Zm0,1.13a.37.37,0,0,0-.4-.37h-.77v.74H96A.36.36,0,0,0,96.41,30.12Z"/><path class="cls-5" d="M97.36,30.9V28.23h.47v2.26H99v.41Z"/><path class="cls-5" d="M99.18,29.57a1.37,1.37,0,1,1,2.73,0,1.37,1.37,0,1,1-2.73,0Zm2.25,0a.89.89,0,1,0-.89,1A.89.89,0,0,0,101.43,29.57Z"/><path class="cls-5" d="M102.24,29.57a1.34,1.34,0,0,1,1.39-1.38,1.22,1.22,0,0,1,1.08.6l-.4.2a.8.8,0,0,0-.68-.38,1,1,0,0,0,0,1.92.79.79,0,0,0,.68-.39l.4.21a1.23,1.23,0,0,1-1.08.6A1.34,1.34,0,0,1,102.24,29.57Z"/><path class="cls-5" d="M106.67,30.9l-.89-1.12-.23.27v.85h-.47V28.23h.47V29.5l1-1.27h.58l-1.09,1.26,1.17,1.41Z"/><path class="cls-5" d="M108.5,30.9v-.37c1-.78,1.44-1.13,1.44-1.51s-.24-.41-.49-.41a.94.94,0,0,0-.72.32l-.27-.31a1.3,1.3,0,0,1,1-.43.87.87,0,0,1,1,.83c0,.49-.45.93-1.16,1.47h1.18v.41Z"/><path class="cls-5" d="M113.84,30.9V29.74h-1.39V30.9H112V28.23h.47v1.1h1.39v-1.1h.47V30.9Z"/><path class="cls-5" d="M114.87,30.9V28.23h1.83v.42h-1.36v.69h1.33v.41h-1.33v.74h1.36v.41Z"/><path class="cls-5" d="M119,30.9l-.2-.51h-1.22l-.2.51h-.53l1-2.67h.58l1,2.67Zm-.81-2.19L117.75,30h1Z"/><path class="cls-5" d="M119.86,30.9V28.23h1a1.34,1.34,0,1,1,0,2.67Zm1.91-1.33a.86.86,0,0,0-.92-.92h-.52v1.84h.52A.88.88,0,0,0,121.77,29.57Z"/><path class="cls-5" d="M122.69,30.9V28.23h1.83v.42h-1.36v.69h1.33v.41h-1.33v.74h1.36v.41Z"/><path class="cls-5" d="M126.52,30.9l-.59-1h-.47v1H125V28.23h1.17a.82.82,0,0,1,.87.84.74.74,0,0,1-.63.78l.65,1Zm0-1.83a.42.42,0,0,0-.46-.42h-.64v.84h.64A.42.42,0,0,0,126.56,29.07Z"/><path class="cls-5" d="M103.38,61.15V58.89h-.81v-.41h2.08v.41h-.8v2.26Z"/><path class="cls-5" d="M106.83,61.15l-.75-1-.74,1h-.56l1-1.37-.94-1.3h.56l.68,1,.69-1h.56l-.94,1.29,1,1.38Z"/><path class="cls-5" d="M110.23,61.15l-.59-1h-.46v1h-.47V58.48h1.17a.81.81,0,0,1,.88.83.76.76,0,0,1-.64.79l.65,1Zm0-1.84a.42.42,0,0,0-.45-.42h-.64v.85h.64A.42.42,0,0,0,110.27,59.31Z"/><path class="cls-5" d="M111.1,59.81a1.37,1.37,0,1,1,1.36,1.38A1.32,1.32,0,0,1,111.1,59.81Zm2.25,0a.89.89,0,1,0-.89,1A.89.89,0,0,0,113.35,59.81Z"/><path class="cls-5" d="M114.15,59.81a1.37,1.37,0,1,1,2.73,0,1.37,1.37,0,1,1-2.73,0Zm2.25,0a.89.89,0,1,0-1.77,0,.89.89,0,1,0,1.77,0Z"/><path class="cls-5" d="M117.86,61.15V58.89h-.81v-.41h2.09v.41h-.81v2.26Z"/><path class="cls-5" d="M103.92,44.4V43.24h-1.38V44.4h-.47V41.74h.47v1.09h1.38V41.74h.47V44.4Z"/><path class="cls-5" d="M106.82,44.4l-.2-.51H105.4l-.19.51h-.54l1-2.66h.58l1,2.66ZM106,42.21l-.48,1.27h1Z"/><path class="cls-5" d="M107.43,44l.26-.36a1.16,1.16,0,0,0,.84.37c.39,0,.54-.19.54-.37,0-.56-1.56-.21-1.56-1.19,0-.44.39-.78,1-.78a1.38,1.38,0,0,1,1,.37l-.26.35a1.1,1.1,0,0,0-.78-.31c-.27,0-.45.14-.45.34,0,.49,1.55.18,1.55,1.18,0,.44-.31.82-1,.82A1.42,1.42,0,0,1,107.43,44Z"/><path class="cls-5" d="M111.83,44.4V43.24h-1.39V44.4H110V41.74h.47v1.09h1.39V41.74h.46V44.4Z"/><path class="cls-5" d="M113.76,43.07a1.37,1.37,0,1,1,2.73,0,1.37,1.37,0,1,1-2.73,0Zm2.25,0a.89.89,0,1,0-1.77,0,.89.89,0,1,0,1.77,0Z"/><path class="cls-5" d="M116.94,44.4V41.74h1.82v.41H117.4v.69h1.34v.41H117.4V44.4Z"/><path class="cls-5" d="M94.6,49V46.3h1.18a.84.84,0,1,1,0,1.67h-.71v1Zm1.57-1.83a.42.42,0,0,0-.46-.43h-.64v.85h.64A.42.42,0,0,0,96.17,47.14Z"/><path class="cls-5" d="M98.55,49,98,48H97.5v1H97V46.3H98.2a.81.81,0,0,1,.87.84.75.75,0,0,1-.63.78l.65,1Zm0-1.83a.42.42,0,0,0-.45-.43H97.5v.85h.64A.42.42,0,0,0,98.59,47.14Z"/><path class="cls-5" d="M99.54,49V46.3h1.82v.41H100v.69h1.33v.42H100v.73h1.35V49Z"/><path class="cls-5" d="M102.61,49l-1-2.67h.53l.81,2.16.81-2.16h.53l-1,2.67Z"/><path class="cls-5" d="M104.53,49V46.3H105V49Z"/><path class="cls-5" d="M105.44,47.64A1.37,1.37,0,1,1,106.8,49,1.32,1.32,0,0,1,105.44,47.64Zm2.25,0a.89.89,0,1,0-.89,1A.89.89,0,0,0,107.69,47.64Z"/><path class="cls-5" d="M108.62,47.92V46.3h.47v1.6a.68.68,0,1,0,1.36,0V46.3h.47v1.61a1.15,1.15,0,0,1-2.3,0Z"/><path class="cls-5" d="M111.31,48.59l.26-.36a1.17,1.17,0,0,0,.85.37c.38,0,.53-.19.53-.36,0-.56-1.55-.22-1.55-1.2,0-.44.39-.78,1-.78a1.4,1.4,0,0,1,1,.37l-.27.35a1.07,1.07,0,0,0-.77-.3c-.28,0-.45.13-.45.33,0,.49,1.55.19,1.55,1.18,0,.44-.31.82-1,.82A1.46,1.46,0,0,1,111.31,48.59Z"/><path class="cls-5" d="M114.88,49V46.3h1.31A.68.68,0,0,1,117,47a.59.59,0,0,1-.46.61.67.67,0,0,1,.52.66.71.71,0,0,1-.78.72Zm1.59-1.91a.34.34,0,0,0-.37-.35h-.75v.69h.75A.33.33,0,0,0,116.47,47.06Zm.06,1.12a.36.36,0,0,0-.41-.36h-.77v.73h.77A.36.36,0,0,0,116.53,48.18Z"/><path class="cls-5" d="M117.47,49V46.3h.47v2.25h1.17V49Z"/><path class="cls-5" d="M119.29,47.64A1.37,1.37,0,1,1,120.66,49,1.33,1.33,0,0,1,119.29,47.64Zm2.25,0a.89.89,0,1,0-.88,1A.89.89,0,0,0,121.54,47.64Z"/><path class="cls-5" d="M122.35,47.64a1.34,1.34,0,0,1,1.4-1.38,1.2,1.2,0,0,1,1.07.6l-.4.2a.8.8,0,0,0-.67-.39,1,1,0,0,0,0,1.93.78.78,0,0,0,.67-.39l.4.21a1.21,1.21,0,0,1-1.07.59A1.34,1.34,0,0,1,122.35,47.64Z"/><path class="cls-5" d="M126.78,49l-.89-1.13-.23.28V49h-.47V46.3h.47v1.27l1-1.27h.58l-1.08,1.26L127.36,49Z"/><rect class="cls-4" x="160.04" y="52.55" width="51.8" height="14.36"/><path class="cls-5" d="M169.67,30.9V28.23H171a.69.69,0,0,1,.76.68.61.61,0,0,1-.46.62.65.65,0,0,1,.52.65.71.71,0,0,1-.78.72ZM171.26,29a.33.33,0,0,0-.37-.34h-.75v.69h.75A.34.34,0,0,0,171.26,29Zm.06,1.13a.37.37,0,0,0-.41-.37h-.77v.74h.77A.36.36,0,0,0,171.32,30.12Z"/><path class="cls-5" d="M172.26,30.9V28.23h.47v2.26h1.17v.41Z"/><path class="cls-5" d="M174.08,29.57A1.37,1.37,0,1,1,175.45,31,1.33,1.33,0,0,1,174.08,29.57Zm2.25,0a.89.89,0,1,0-.88,1A.88.88,0,0,0,176.33,29.57Z"/><path class="cls-5" d="M177.14,29.57a1.34,1.34,0,0,1,1.4-1.38,1.2,1.2,0,0,1,1.07.6l-.4.2a.79.79,0,0,0-.67-.38,1,1,0,0,0,0,1.92.78.78,0,0,0,.67-.39l.4.21a1.21,1.21,0,0,1-1.07.6A1.34,1.34,0,0,1,177.14,29.57Z"/><path class="cls-5" d="M181.57,30.9l-.89-1.12-.23.27v.85H180V28.23h.47V29.5l1-1.27h.58L181,29.49l1.16,1.41Z"/><path class="cls-5" d="M183.3,30.52l.25-.31a1,1,0,0,0,.74.32c.35,0,.55-.16.55-.4s-.21-.38-.59-.38h-.31v-.42h.31c.31,0,.55-.11.55-.35s-.24-.38-.54-.38a.92.92,0,0,0-.69.3l-.24-.3a1.25,1.25,0,0,1,1-.42c.58,0,1,.28,1,.72a.66.66,0,0,1-.58.62.66.66,0,0,1,.62.64c0,.46-.39.78-1,.78A1.23,1.23,0,0,1,183.3,30.52Z"/><path class="cls-5" d="M188.66,30.9V29.74h-1.39V30.9h-.47V28.23h.47v1.1h1.39v-1.1h.46V30.9Z"/><path class="cls-5" d="M189.69,30.9V28.23h1.82v.42h-1.35v.69h1.33v.41h-1.33v.74h1.35v.41Z"/><path class="cls-5" d="M193.86,30.9l-.2-.51h-1.22l-.2.51h-.53l1-2.67h.58l1,2.67Zm-.81-2.19L192.57,30h1Z"/><path class="cls-5" d="M194.68,30.9V28.23h1a1.34,1.34,0,1,1,0,2.67Zm1.9-1.33a.86.86,0,0,0-.91-.92h-.52v1.84h.52A.87.87,0,0,0,196.58,29.57Z"/><path class="cls-5" d="M197.51,30.9V28.23h1.83v.42H198v.69h1.33v.41H198v.74h1.36v.41Z"/><path class="cls-5" d="M201.34,30.9l-.59-1h-.47v1h-.46V28.23H201a.82.82,0,0,1,.87.84.74.74,0,0,1-.63.78l.65,1Zm0-1.83a.42.42,0,0,0-.46-.42h-.64v.84h.64A.42.42,0,0,0,201.38,29.07Z"/><path class="cls-5" d="M178.24,61.15V58.89h-.81v-.41h2.08v.41h-.8v2.26Z"/><path class="cls-5" d="M181.69,61.15l-.75-1-.74,1h-.56l1-1.37-.94-1.3h.56l.68,1,.69-1h.56l-.93,1.29,1,1.38Z"/><path class="cls-5" d="M185.09,61.15l-.59-1H184v1h-.47V58.48h1.17a.81.81,0,0,1,.88.83.76.76,0,0,1-.64.79l.65,1Zm0-1.84a.42.42,0,0,0-.45-.42H184v.85h.64A.42.42,0,0,0,185.13,59.31Z"/><path class="cls-5" d="M186,59.81a1.37,1.37,0,1,1,1.36,1.38A1.32,1.32,0,0,1,186,59.81Zm2.25,0a.89.89,0,1,0-.89,1A.89.89,0,0,0,188.21,59.81Z"/><path class="cls-5" d="M189,59.81a1.37,1.37,0,1,1,2.73,0,1.37,1.37,0,1,1-2.73,0Zm2.25,0a.89.89,0,1,0-1.77,0,.89.89,0,1,0,1.77,0Z"/><path class="cls-5" d="M192.72,61.15V58.89h-.8v-.41H194v.41h-.81v2.26Z"/><polyline class="cls-6" points="85.18 44.97 73.6 44.97 73.6 29.88 63.37 29.88"/><polygon class="cls-7" points="61.96 29.88 63.94 29.06 63.47 29.88 63.94 30.69 61.96 29.88"/><polyline class="cls-6" points="160.2 44.97 148.62 44.97 148.62 29.88 138.39 29.88"/><polygon class="cls-7" points="136.98 29.88 138.97 29.06 138.5 29.88 138.97 30.69 136.98 29.88"/><path class="cls-5" d="M163.2,78.5V75.83h1.31a.68.68,0,0,1,.76.68.61.61,0,0,1-.46.61.65.65,0,0,1,.51.66.7.7,0,0,1-.77.72Zm1.59-1.91a.34.34,0,0,0-.38-.35h-.74v.69h.74A.34.34,0,0,0,164.79,76.59Zm.05,1.12a.37.37,0,0,0-.41-.37h-.76v.74h.76A.36.36,0,0,0,164.84,77.71Z"/><path class="cls-5" d="M165.79,78.5V75.83h.46v2.25h1.18v.42Z"/><path class="cls-5" d="M167.61,77.16A1.37,1.37,0,1,1,169,78.54,1.32,1.32,0,0,1,167.61,77.16Zm2.25,0a.89.89,0,1,0-.89,1A.89.89,0,0,0,169.86,77.16Z"/><path class="cls-5" d="M170.66,77.16a1.35,1.35,0,0,1,1.4-1.38,1.2,1.2,0,0,1,1.07.6l-.4.21a.78.78,0,0,0-.67-.39,1,1,0,0,0,0,1.93.78.78,0,0,0,.67-.39l.4.2a1.2,1.2,0,0,1-1.07.6A1.35,1.35,0,0,1,170.66,77.16Z"/><path class="cls-5" d="M175.1,78.5l-.89-1.13-.24.27v.86h-.46V75.83H174V77.1L175,75.83h.58l-1.09,1.26,1.17,1.41Z"/><path class="cls-5" d="M176.82,78.11l.25-.31a1,1,0,0,0,.74.33c.36,0,.56-.16.56-.41s-.21-.38-.59-.38h-.31v-.42h.31c.31,0,.55-.11.55-.35s-.24-.38-.54-.38a.94.94,0,0,0-.69.3l-.24-.29a1.23,1.23,0,0,1,1-.42c.58,0,1,.27,1,.72a.65.65,0,0,1-.58.61.67.67,0,0,1,.62.65c0,.45-.38.77-1,.77A1.23,1.23,0,0,1,176.82,78.11Z"/><path class="cls-5" d="M181,78.5V76.24h-.8v-.41h2.08v.41h-.81V78.5Z"/><path class="cls-5" d="M184.15,78.5l-.59-1h-.46v1h-.47V75.83h1.17a.8.8,0,0,1,.87.83.75.75,0,0,1-.63.79l.65,1Zm0-1.84a.42.42,0,0,0-.45-.42h-.64v.85h.64A.42.42,0,0,0,184.19,76.66Z"/><path class="cls-5" d="M187,78.5l-.2-.52h-1.22l-.2.52h-.53l1-2.67h.58l1,2.67Zm-.81-2.2-.48,1.27h1Z"/><path class="cls-5" d="M189.68,78.5l-1.39-1.91V78.5h-.47V75.83h.48l1.37,1.85V75.83h.46V78.5Z"/><path class="cls-5" d="M190.53,78.12l.26-.36a1.12,1.12,0,0,0,.84.37c.38,0,.54-.19.54-.37,0-.56-1.56-.21-1.56-1.19,0-.44.39-.78,1-.78a1.38,1.38,0,0,1,1,.37l-.27.35a1.06,1.06,0,0,0-.77-.31c-.27,0-.45.14-.45.34,0,.49,1.55.18,1.55,1.18,0,.44-.31.82-1,.82A1.42,1.42,0,0,1,190.53,78.12Z"/><path class="cls-5" d="M194.9,78.5l-.2-.52h-1.22l-.2.52h-.53l1.05-2.67h.58l1.05,2.67Zm-.81-2.2-.48,1.27h1Z"/><path class="cls-5" d="M195.46,77.16a1.34,1.34,0,0,1,1.4-1.38,1.2,1.2,0,0,1,1.07.6l-.4.21a.8.8,0,0,0-.67-.39,1,1,0,0,0,0,1.93.8.8,0,0,0,.67-.39l.4.2a1.21,1.21,0,0,1-1.07.6A1.34,1.34,0,0,1,195.46,77.16Z"/><path class="cls-5" d="M198.93,78.5V76.24h-.8v-.41h2.08v.41h-.81V78.5Z"/><path class="cls-5" d="M200.6,78.5V75.83h.47V78.5Z"/><path class="cls-5" d="M201.52,77.16a1.36,1.36,0,1,1,1.36,1.38A1.32,1.32,0,0,1,201.52,77.16Zm2.24,0a.88.88,0,1,0-.88,1A.88.88,0,0,0,203.76,77.16Z"/><path class="cls-5" d="M206.55,78.5l-1.39-1.91V78.5h-.47V75.83h.48l1.36,1.85V75.83H207V78.5Z"/><path class="cls-5" d="M207.39,78.12l.26-.36a1.15,1.15,0,0,0,.85.37c.38,0,.53-.19.53-.37,0-.56-1.55-.21-1.55-1.19,0-.44.38-.78,1-.78a1.4,1.4,0,0,1,1,.37l-.27.35a1.08,1.08,0,0,0-.77-.31c-.28,0-.45.14-.45.34,0,.49,1.55.18,1.55,1.18,0,.44-.31.82-1,.82A1.44,1.44,0,0,1,207.39,78.12Z"/><path class="cls-5" d="M88.3,78.5V75.83h1.31a.68.68,0,0,1,.76.68.6.6,0,0,1-.47.61.65.65,0,0,1,.52.66.71.71,0,0,1-.78.72Zm1.59-1.91a.34.34,0,0,0-.38-.35h-.75v.69h.75A.34.34,0,0,0,89.89,76.59Zm0,1.12a.37.37,0,0,0-.41-.37h-.77v.74h.77A.36.36,0,0,0,89.94,77.71Z"/><path class="cls-5" d="M90.88,78.5V75.83h.47v2.25h1.18v.42Z"/><path class="cls-5" d="M92.71,77.16a1.36,1.36,0,1,1,1.36,1.38A1.32,1.32,0,0,1,92.71,77.16Zm2.24,0a.88.88,0,1,0-.88,1A.88.88,0,0,0,95,77.16Z"/><path class="cls-5" d="M95.76,77.16a1.34,1.34,0,0,1,1.4-1.38,1.2,1.2,0,0,1,1.07.6l-.4.21a.79.79,0,0,0-.67-.39,1,1,0,0,0,0,1.93.79.79,0,0,0,.67-.39l.4.2a1.2,1.2,0,0,1-1.07.6A1.34,1.34,0,0,1,95.76,77.16Z"/><path class="cls-5" d="M100.2,78.5l-.9-1.13-.23.27v.86H98.6V75.83h.47V77.1l1-1.27h.58l-1.08,1.26,1.16,1.41Z"/><path class="cls-5" d="M102,78.5v-.37c1-.79,1.44-1.13,1.44-1.52a.43.43,0,0,0-.48-.41.94.94,0,0,0-.72.32l-.27-.3a1.25,1.25,0,0,1,1-.43.86.86,0,0,1,1,.82c0,.49-.45.93-1.17,1.47H104v.42Z"/><path class="cls-5" d="M106.15,78.5V76.24h-.81v-.41h2.08v.41h-.81V78.5Z"/><path class="cls-5" d="M109.34,78.5l-.6-1h-.46v1h-.47V75.83H109a.81.81,0,0,1,.88.83.76.76,0,0,1-.64.79l.66,1Zm0-1.84a.43.43,0,0,0-.46-.42h-.64v.85h.64A.43.43,0,0,0,109.38,76.66Z"/><path class="cls-5" d="M112.19,78.5,112,78h-1.22l-.2.52H110l1-2.67h.58l1,2.67Zm-.81-2.2-.48,1.27h1Z"/><path class="cls-5" d="M114.86,78.5l-1.39-1.91V78.5H113V75.83h.48l1.36,1.85V75.83h.47V78.5Z"/><path class="cls-5" d="M115.71,78.12l.26-.36a1.12,1.12,0,0,0,.84.37c.38,0,.54-.19.54-.37,0-.56-1.56-.21-1.56-1.19,0-.44.39-.78,1-.78a1.38,1.38,0,0,1,1,.37l-.26.35a1.1,1.1,0,0,0-.78-.31c-.27,0-.45.14-.45.34,0,.49,1.55.18,1.55,1.18,0,.44-.31.82-1,.82A1.42,1.42,0,0,1,115.71,78.12Z"/><path class="cls-5" d="M120.08,78.5l-.2-.52h-1.22l-.2.52h-.53l1-2.67h.58l1,2.67Zm-.81-2.2-.48,1.27h1Z"/><path class="cls-5" d="M120.64,77.16a1.34,1.34,0,0,1,1.4-1.38,1.2,1.2,0,0,1,1.07.6l-.4.21a.8.8,0,0,0-.67-.39,1,1,0,0,0,0,1.93.8.8,0,0,0,.67-.39l.4.2a1.21,1.21,0,0,1-1.07.6A1.34,1.34,0,0,1,120.64,77.16Z"/><path class="cls-5" d="M124.12,78.5V76.24h-.81v-.41h2.08v.41h-.81V78.5Z"/><path class="cls-5" d="M125.78,78.5V75.83h.47V78.5Z"/><path class="cls-5" d="M126.7,77.16a1.36,1.36,0,1,1,1.36,1.38A1.32,1.32,0,0,1,126.7,77.16Zm2.24,0a.88.88,0,1,0-.88,1A.88.88,0,0,0,128.94,77.16Z"/><path class="cls-5" d="M131.73,78.5l-1.39-1.91V78.5h-.47V75.83h.48l1.36,1.85V75.83h.47V78.5Z"/><path class="cls-5" d="M132.57,78.12l.26-.36a1.17,1.17,0,0,0,.85.37c.38,0,.53-.19.53-.37,0-.56-1.55-.21-1.55-1.19,0-.44.39-.78,1-.78a1.38,1.38,0,0,1,1,.37l-.27.35a1.08,1.08,0,0,0-.77-.31c-.28,0-.45.14-.45.34,0,.49,1.55.18,1.55,1.18,0,.44-.31.82-1,.82A1.46,1.46,0,0,1,132.57,78.12Z"/><rect class="cls-4" x="160.04" y="38.19" width="51.8" height="14.36"/><path class="cls-5" d="M178.78,44.4V43.24H177.4V44.4h-.47V41.74h.47v1.09h1.38V41.74h.47V44.4Z"/><path class="cls-5" d="M181.68,44.4l-.2-.51h-1.22l-.19.51h-.54l1.05-2.66h.58l1.05,2.66Zm-.81-2.19-.48,1.27h1Z"/><path class="cls-5" d="M182.29,44l.26-.36a1.16,1.16,0,0,0,.84.37c.38,0,.54-.19.54-.37,0-.56-1.56-.21-1.56-1.19,0-.44.39-.78,1-.78a1.38,1.38,0,0,1,1,.37l-.26.35a1.1,1.1,0,0,0-.78-.31c-.27,0-.45.14-.45.34,0,.49,1.55.18,1.55,1.18,0,.44-.31.82-1,.82A1.42,1.42,0,0,1,182.29,44Z"/><path class="cls-5" d="M186.69,44.4V43.24H185.3V44.4h-.47V41.74h.47v1.09h1.39V41.74h.46V44.4Z"/><path class="cls-5" d="M188.62,43.07a1.37,1.37,0,1,1,2.73,0,1.37,1.37,0,1,1-2.73,0Zm2.25,0a.89.89,0,1,0-1.77,0,.89.89,0,1,0,1.77,0Z"/><path class="cls-5" d="M191.8,44.4V41.74h1.82v.41h-1.36v.69h1.34v.41h-1.34V44.4Z"/><path class="cls-5" d="M169.47,49V46.3h1.17a.84.84,0,1,1,0,1.67h-.71v1ZM171,47.14a.42.42,0,0,0-.46-.43h-.64v.85h.64A.42.42,0,0,0,171,47.14Z"/><path class="cls-5" d="M173.41,49l-.59-1h-.46v1h-.47V46.3h1.17a.81.81,0,0,1,.87.84.75.75,0,0,1-.63.78l.65,1Zm0-1.83a.42.42,0,0,0-.45-.43h-.64v.85H173A.42.42,0,0,0,173.45,47.14Z"/><path class="cls-5" d="M174.4,49V46.3h1.83v.41h-1.36v.69h1.33v.42h-1.33v.73h1.36V49Z"/><path class="cls-5" d="M177.47,49l-1.05-2.67H177l.81,2.16.81-2.16h.53l-1,2.67Z"/><path class="cls-5" d="M179.39,49V46.3h.47V49Z"/><path class="cls-5" d="M180.3,47.64A1.37,1.37,0,1,1,181.67,49,1.33,1.33,0,0,1,180.3,47.64Zm2.25,0a.89.89,0,1,0-.88,1A.89.89,0,0,0,182.55,47.64Z"/><path class="cls-5" d="M183.48,47.92V46.3H184v1.6a.68.68,0,1,0,1.36,0V46.3h.47v1.61a1.15,1.15,0,0,1-2.3,0Z"/><path class="cls-5" d="M186.17,48.59l.26-.36a1.17,1.17,0,0,0,.85.37c.38,0,.53-.19.53-.36,0-.56-1.55-.22-1.55-1.2,0-.44.39-.78,1-.78a1.4,1.4,0,0,1,1,.37L188,47a1.07,1.07,0,0,0-.77-.3c-.28,0-.45.13-.45.33,0,.49,1.55.19,1.55,1.18,0,.44-.31.82-1,.82A1.44,1.44,0,0,1,186.17,48.59Z"/><path class="cls-5" d="M189.74,49V46.3h1.31a.68.68,0,0,1,.76.68.59.59,0,0,1-.46.61.67.67,0,0,1,.52.66.71.71,0,0,1-.78.72Zm1.59-1.91a.34.34,0,0,0-.37-.35h-.75v.69H191A.33.33,0,0,0,191.33,47.06Zm.06,1.12a.36.36,0,0,0-.41-.36h-.77v.73H191A.36.36,0,0,0,191.39,48.18Z"/><path class="cls-5" d="M192.33,49V46.3h.47v2.25H194V49Z"/><path class="cls-5" d="M194.15,47.64A1.37,1.37,0,1,1,195.52,49,1.33,1.33,0,0,1,194.15,47.64Zm2.25,0a.89.89,0,1,0-.88,1A.89.89,0,0,0,196.4,47.64Z"/><path class="cls-5" d="M197.21,47.64a1.34,1.34,0,0,1,1.4-1.38,1.2,1.2,0,0,1,1.07.6l-.4.2a.8.8,0,0,0-.67-.39,1,1,0,0,0,0,1.93.78.78,0,0,0,.67-.39l.4.21a1.21,1.21,0,0,1-1.07.59A1.34,1.34,0,0,1,197.21,47.64Z"/><path class="cls-5" d="M201.64,49l-.89-1.13-.23.28V49h-.47V46.3h.47v1.27l1-1.27h.58l-1.08,1.26L202.22,49Z"/><circle class="cls-7" cx="222.13" cy="54" r="14.68"/><g class="cls-8"><polygon class="cls-9" points="218.32 51.53 223.55 56.75 221.27 62.21 234.59 75.53 242.47 64.74 224.72 46.98 218.32 51.53"/></g><path class="cls-10" d="M221.27,50.15h-.05l-2.9,1.38-.59-2.67L221.79,47h2.93V62.21h-3.45Z"/></g></g></svg>