<svg xmlns="http://www.w3.org/2000/svg" xmlns:xlink="http://www.w3.org/1999/xlink" viewBox="0 0 236.98 131.29"><defs><style>.cls-1,.cls-21,.cls-7{fill:none;}.cls-2{fill:#f5f6fa;}.cls-14,.cls-3,.cls-9{fill:#fff;}.cls-3{stroke:#b1aec0;stroke-linejoin:bevel;}.cls-3,.cls-9{stroke-width:0.22px;}.cls-4{fill:#041742;}.cls-5{fill:#b1aec0;}.cls-6{fill:#bebecc;}.cls-7{stroke:#bebecc;}.cls-21,.cls-7,.cls-9{stroke-miterlimit:10;}.cls-21,.cls-7{stroke-width:0.45px;}.cls-8{fill:#505968;}.cls-9{stroke:#edf2f4;}.cls-10{fill:#edf2f4;}.cls-11{clip-path:url(#clip-path);}.cls-12{fill:#ccc;}.cls-13{fill:#0e9de5;}.cls-15{fill:#35bbef;}.cls-16{fill:#47cbf4;}.cls-17{clip-path:url(#clip-path-2);}.cls-18{fill:#26db8d;}.cls-19{fill:#4aeda3;}.cls-20{fill:#bcbcbc;}.cls-21{stroke:#0e9de5;}.cls-22{fill:url(#linear-gradient);}.cls-23{fill:#9ee7ff;}.cls-24{fill:#5fc0ed;}.cls-25{fill:url(#linear-gradient-2);}.cls-26{fill:url(#linear-gradient-3);}.cls-27{fill:url(#linear-gradient-4);}.cls-28{fill:url(#linear-gradient-5);}.cls-29{fill:url(#linear-gradient-6);}.cls-30{clip-path:url(#clip-path-3);}</style><clipPath id="clip-path"><circle class="cls-1" cx="55.28" cy="62.98" r="10.94"/></clipPath><clipPath id="clip-path-2"><circle class="cls-1" cx="196.69" cy="62.98" r="10.94"/></clipPath><linearGradient id="linear-gradient" x1="187.57" y1="34.09" x2="187.57" y2="30.46" gradientUnits="userSpaceOnUse"><stop offset="0" stop-color="#59d6ff"/><stop offset="0.13" stop-color="#66d0ff"/><stop offset="0.35" stop-color="#75c9ff"/><stop offset="0.6" stop-color="#7dc4ff"/><stop offset="1" stop-color="#80c3ff"/></linearGradient><linearGradient id="linear-gradient-2" x1="187.11" y1="33.21" x2="187.11" y2="29.59" xlink:href="#linear-gradient"/><linearGradient id="linear-gradient-3" x1="187.57" y1="32.29" x2="187.57" y2="28.66" xlink:href="#linear-gradient"/><linearGradient id="linear-gradient-4" x1="64.86" y1="34.09" x2="64.86" y2="30.46" xlink:href="#linear-gradient"/><linearGradient id="linear-gradient-5" x1="64.4" y1="33.21" x2="64.4" y2="29.59" xlink:href="#linear-gradient"/><linearGradient id="linear-gradient-6" x1="64.86" y1="32.29" x2="64.86" y2="28.66" xlink:href="#linear-gradient"/><clipPath id="clip-path-3"><circle class="cls-1" cx="14.68" cy="54" r="14.68"/></clipPath></defs><title>SC</title><g id="Layer_2" data-name="Layer 2"><g id="content"><rect class="cls-2" x="14.98" width="222" height="108"/><polygon class="cls-3" points="162.72 103.25 89.25 103.25 89.25 3.4 155.8 3.4 162.72 10.57 162.72 103.25"/><path class="cls-4" d="M112.55,15.32l.46-.63a2.06,2.06,0,0,0,1.49.65c.68,0,.94-.33.94-.64,0-1-2.74-.38-2.74-2.11,0-.78.69-1.38,1.72-1.38a2.47,2.47,0,0,1,1.76.66l-.47.61a2,2,0,0,0-1.37-.53c-.48,0-.79.23-.79.58,0,.88,2.73.33,2.73,2.09,0,.78-.55,1.45-1.82,1.45A2.51,2.51,0,0,1,112.55,15.32Z"/><path class="cls-4" d="M121.81,16V12.5L120.37,16H120l-1.44-3.49V16h-.83V11.28h1.17l1.27,3.1,1.29-3.1h1.16V16Z"/><path class="cls-4" d="M127.64,16l-.34-.91h-2.16l-.35.91h-.93l1.84-4.71h1L128.58,16Zm-1.42-3.87-.85,2.24h1.69Z"/><path class="cls-4" d="M132.49,16l-1.05-1.76h-.81V16h-.83V11.28h2.07a1.43,1.43,0,0,1,1.53,1.48,1.32,1.32,0,0,1-1.11,1.38L133.44,16Zm.07-3.23a.75.75,0,0,0-.81-.75h-1.12v1.5h1.12A.75.75,0,0,0,132.56,12.76Z"/><path class="cls-4" d="M136,16V12h-1.43v-.73h3.68V12h-1.43v4Z"/><path class="cls-4" d="M105.89,20.69a2.37,2.37,0,0,1,2.47-2.43,2.15,2.15,0,0,1,1.89,1.06l-.71.36a1.38,1.38,0,0,0-1.18-.69,1.7,1.7,0,0,0,0,3.4,1.37,1.37,0,0,0,1.18-.68l.71.36a2.15,2.15,0,0,1-1.89,1.06A2.38,2.38,0,0,1,105.89,20.69Z"/><path class="cls-4" d="M111.41,20.69a2.4,2.4,0,1,1,4.8,0,2.4,2.4,0,1,1-4.8,0Zm4,0a1.57,1.57,0,1,0-3.12,0,1.57,1.57,0,1,0,3.12,0Z"/><path class="cls-4" d="M121,23l-2.45-3.35V23h-.83v-4.7h.85L121,21.6V18.34h.83V23Z"/><path class="cls-4" d="M124.63,23v-4H123.2v-.73h3.68v.73h-1.43v4Z"/><path class="cls-4" d="M131,23l-1.05-1.75h-.81V23h-.83v-4.7h2.07a1.42,1.42,0,0,1,1.53,1.47,1.32,1.32,0,0,1-1.11,1.38L131.92,23Zm.07-3.23a.74.74,0,0,0-.81-.74h-1.12v1.49h1.12A.75.75,0,0,0,131,19.81Z"/><path class="cls-4" d="M136.71,23l-.35-.9h-2.15l-.35.9h-.94l1.85-4.7h1l1.85,4.7Zm-1.42-3.87-.85,2.24h1.69Z"/><path class="cls-4" d="M138.41,20.69a2.37,2.37,0,0,1,2.47-2.43,2.14,2.14,0,0,1,1.89,1.06l-.71.36a1.38,1.38,0,0,0-1.18-.69,1.7,1.7,0,0,0,0,3.4,1.37,1.37,0,0,0,1.18-.68l.71.36a2.15,2.15,0,0,1-1.89,1.06A2.38,2.38,0,0,1,138.41,20.69Z"/><path class="cls-4" d="M145.26,23v-4h-1.42v-.73h3.67v.73h-1.42v4Z"/><path class="cls-5" d="M114.81,48V46.19h.32V48Z"/><path class="cls-5" d="M115.51,48V46.19h1.24v.28h-.92v.47h.9v.28h-.9V48Z"/><path class="cls-5" d="M135.06,48V46.19h1.24v.28h-.93v.47h.91v.28h-.91v.5h.93V48Z"/><path class="cls-5" d="M136.62,48V46.19h.32v1.53h.8V48Z"/><path class="cls-5" d="M137.91,47.74l.17-.24a.82.82,0,0,0,.58.25c.26,0,.36-.13.36-.25,0-.38-1.05-.14-1.05-.81,0-.3.26-.53.66-.53a.92.92,0,0,1,.67.25l-.18.24a.73.73,0,0,0-.52-.21c-.19,0-.31.09-.31.23,0,.34,1.06.13,1.06.8,0,.3-.22.56-.71.56A.93.93,0,0,1,137.91,47.74Z"/><path class="cls-5" d="M139.64,48V46.19h1.24v.28H140v.47h.9v.28H140v.5h.92V48Z"/><circle class="cls-6" cx="125.89" cy="40.94" r="1.69"/><circle class="cls-6" cx="122.81" cy="58.42" r="1.69"/><circle class="cls-6" cx="108.08" cy="81.82" r="1.69"/><circle class="cls-6" cx="113.68" cy="81.82" r="1.69"/><circle class="cls-6" cx="134.87" cy="81.82" r="1.69"/><circle class="cls-6" cx="134.87" cy="67.27" r="1.69"/><circle class="cls-6" cx="143.85" cy="67.27" r="1.69"/><circle class="cls-6" cx="122.61" cy="76.49" r="1.69"/><polyline class="cls-7" points="108.08 81.82 108.08 61.26 113.68 61.26 113.68 53.95 119.02 53.95 119.02 48 125.89 48 125.89 40.94"/><polyline class="cls-7" points="125.89 48 131.83 48 131.83 53.83 138.13 53.83 138.13 61.38 143.85 61.38 143.85 67.27"/><polyline class="cls-7" points="119.02 53.95 122.81 53.95 122.81 58.42"/><polyline class="cls-7" points="113.68 61.26 119.02 61.26 119.02 72.19 113.68 72.19 113.68 81.82"/><polyline class="cls-7" points="131.83 53.83 128.29 53.83 128.29 72.19 125.89 72.19 125.89 76.49 119.02 76.49 119.02 72.19"/><polyline class="cls-7" points="138.13 61.38 134.87 61.38 134.87 67.27"/><polyline class="cls-7" points="128.29 72.19 134.87 72.19 134.87 81.82"/><polygon class="cls-5" points="155.8 3.4 162.72 10.57 155.8 10.57 155.8 3.4"/><path class="cls-8" d="M72.24,32.35l-.16-.42h-1l-.15.42h-.44l.86-2.17h.47l.85,2.17Zm-.66-1.79-.39,1H72Z"/><path class="cls-8" d="M72.74,32l.21-.29a.93.93,0,0,0,.69.3c.31,0,.43-.15.43-.3,0-.45-1.26-.17-1.26-1,0-.36.31-.63.79-.63a1.09,1.09,0,0,1,.81.3l-.22.28a.88.88,0,0,0-.62-.25c-.23,0-.37.11-.37.27,0,.41,1.26.16,1.26,1,0,.36-.25.67-.84.67A1.14,1.14,0,0,1,72.74,32Z"/><path class="cls-8" d="M74.67,32l.22-.29a.91.91,0,0,0,.68.3c.31,0,.44-.15.44-.3,0-.45-1.27-.17-1.27-1,0-.36.32-.63.79-.63a1.09,1.09,0,0,1,.81.3l-.21.28a.88.88,0,0,0-.63-.25c-.22,0-.37.11-.37.27,0,.41,1.26.16,1.26,1,0,.36-.25.67-.84.67A1.17,1.17,0,0,1,74.67,32Z"/><path class="cls-8" d="M76.75,32.35V30.18h1.48v.33h-1.1v.57h1.08v.33H77.13V32h1.1v.34Z"/><path class="cls-8" d="M79.14,32.35V30.51h-.65v-.33h1.69v.33h-.66v1.84Z"/><path class="cls-8" d="M80.35,32l.21-.29a.93.93,0,0,0,.69.3c.31,0,.43-.15.43-.3,0-.45-1.26-.17-1.26-1,0-.36.31-.63.79-.63a1.09,1.09,0,0,1,.81.3l-.22.28a.88.88,0,0,0-.63-.25c-.22,0-.36.11-.36.27,0,.41,1.26.16,1.26,1,0,.36-.26.67-.84.67A1.14,1.14,0,0,1,80.35,32Z"/><path class="cls-8" d="M74.39,40.44V38.27h.8a1.09,1.09,0,1,1,0,2.17Zm1.55-1.08a.7.7,0,0,0-.75-.75h-.42v1.5h.42A.71.71,0,0,0,75.94,39.36Z"/><path class="cls-8" d="M78.1,40.44,77.94,40H77l-.16.41h-.43l.85-2.17h.47l.86,2.17Zm-.65-1.78-.39,1h.78Z"/><path class="cls-8" d="M79.08,40.44V38.61h-.66v-.34h1.7v.34h-.66v1.83Z"/><path class="cls-8" d="M81.75,40.44,81.59,40h-1l-.16.41H80l.86-2.17h.47l.85,2.17Zm-.66-1.78-.39,1h.78Z"/><path class="cls-8" d="M63.18,94.73,63,94.32H62l-.16.41h-.43l.85-2.17h.48l.85,2.17ZM62.52,93l-.39,1h.78Z"/><path class="cls-8" d="M63.68,94.43l.21-.3a.93.93,0,0,0,.69.3c.31,0,.43-.15.43-.29,0-.46-1.26-.17-1.26-1,0-.36.31-.64.79-.64a1.15,1.15,0,0,1,.81.3l-.22.29a.88.88,0,0,0-.63-.25c-.22,0-.36.11-.36.27,0,.4,1.26.15,1.26,1,0,.36-.26.67-.84.67A1.17,1.17,0,0,1,63.68,94.43Z"/><path class="cls-8" d="M65.61,94.43l.21-.3a1,1,0,0,0,.69.3c.31,0,.43-.15.43-.29,0-.46-1.26-.17-1.26-1a.7.7,0,0,1,.79-.64,1.14,1.14,0,0,1,.81.3l-.21.29a.88.88,0,0,0-.63-.25c-.23,0-.37.11-.37.27,0,.4,1.26.15,1.26,1,0,.36-.25.67-.84.67A1.17,1.17,0,0,1,65.61,94.43Z"/><path class="cls-8" d="M67.69,94.73V92.56h1.48v.34h-1.1v.56h1.08v.34H68.07v.6h1.1v.33Z"/><path class="cls-8" d="M70.08,94.73V92.9h-.66v-.34h1.7v.34h-.66v1.83Z"/><path class="cls-8" d="M71.29,94.43l.21-.3a.92.92,0,0,0,.68.3c.32,0,.44-.15.44-.29,0-.46-1.26-.17-1.26-1,0-.36.31-.64.79-.64a1.15,1.15,0,0,1,.81.3l-.22.29a.88.88,0,0,0-.63-.25c-.22,0-.36.11-.36.27,0,.4,1.26.15,1.26,1,0,.36-.26.67-.84.67A1.17,1.17,0,0,1,71.29,94.43Z"/><path class="cls-8" d="M73.13,94.8l.77-2.3h.25l-.77,2.3Z"/><path class="cls-8" d="M74.39,94.73V92.56h.8a1.09,1.09,0,1,1,0,2.17Zm1.55-1.08a.7.7,0,0,0-.75-.75h-.42v1.5h.42A.72.72,0,0,0,75.94,93.65Z"/><path class="cls-8" d="M78.1,94.73l-.16-.41H77l-.16.41h-.43l.85-2.17h.47l.85,2.17ZM77.45,93l-.39,1h.78Z"/><path class="cls-8" d="M79.08,94.73V92.9h-.66v-.34h1.7v.34h-.66v1.83Z"/><path class="cls-8" d="M81.75,94.73l-.16-.41h-1l-.16.41H80l.86-2.17h.47l.85,2.17ZM81.09,93l-.39,1h.78Z"/><path class="cls-8" d="M171,32.35l-.16-.42h-1l-.16.42h-.43l.85-2.17h.47l.85,2.17Zm-.66-1.79-.39,1h.78Z"/><path class="cls-8" d="M171.48,32l.21-.29a1,1,0,0,0,.69.3c.31,0,.43-.15.43-.3,0-.45-1.26-.17-1.26-1,0-.36.32-.63.79-.63a1.09,1.09,0,0,1,.81.3l-.21.28a.88.88,0,0,0-.63-.25c-.23,0-.37.11-.37.27,0,.41,1.26.16,1.26,1,0,.36-.25.67-.84.67A1.14,1.14,0,0,1,171.48,32Z"/><path class="cls-8" d="M173.42,32l.21-.29a.92.92,0,0,0,.68.3c.31,0,.44-.15.44-.3,0-.45-1.27-.17-1.27-1,0-.36.32-.63.79-.63a1.12,1.12,0,0,1,.82.3l-.22.28a.88.88,0,0,0-.63-.25c-.22,0-.37.11-.37.27,0,.41,1.27.16,1.27,1,0,.36-.26.67-.84.67A1.14,1.14,0,0,1,173.42,32Z"/><path class="cls-8" d="M175.49,32.35V30.18H177v.33h-1.11v.57H177v.33h-1.08V32H177v.34Z"/><path class="cls-8" d="M177.89,32.35V30.51h-.66v-.33h1.69v.33h-.65v1.84Z"/><path class="cls-8" d="M179.09,32l.21-.29a1,1,0,0,0,.69.3c.31,0,.43-.15.43-.3,0-.45-1.26-.17-1.26-1,0-.36.32-.63.79-.63a1.09,1.09,0,0,1,.81.3l-.22.28a.86.86,0,0,0-.62-.25c-.23,0-.37.11-.37.27,0,.41,1.26.16,1.26,1,0,.36-.25.67-.84.67A1.14,1.14,0,0,1,179.09,32Z"/><path class="cls-8" d="M169.46,40.44V38.27h.81a1.09,1.09,0,1,1,0,2.17ZM171,39.36a.7.7,0,0,0-.74-.75h-.43v1.5h.43A.71.71,0,0,0,171,39.36Z"/><path class="cls-8" d="M173.18,40.44,173,40h-1l-.15.41h-.44l.86-2.17h.47l.85,2.17Zm-.66-1.78-.39,1h.78Z"/><path class="cls-8" d="M174.16,40.44V38.61h-.66v-.34h1.69v.34h-.65v1.83Z"/><path class="cls-8" d="M176.83,40.44l-.16-.41h-1l-.16.41h-.43l.85-2.17h.48l.85,2.17Zm-.66-1.78-.39,1h.78Z"/><path class="cls-8" d="M169.9,94.73l-.16-.41h-1l-.16.41h-.43l.85-2.17h.48l.85,2.17ZM169.24,93l-.39,1h.78Z"/><path class="cls-8" d="M170.4,94.43l.21-.3a.92.92,0,0,0,.68.3c.32,0,.44-.15.44-.29,0-.46-1.26-.17-1.26-1,0-.36.31-.64.79-.64a1.15,1.15,0,0,1,.81.3l-.22.29a.88.88,0,0,0-.63-.25c-.22,0-.36.11-.36.27,0,.4,1.26.15,1.26,1,0,.36-.26.67-.84.67A1.17,1.17,0,0,1,170.4,94.43Z"/><path class="cls-8" d="M172.33,94.43l.21-.3a1,1,0,0,0,.69.3c.31,0,.43-.15.43-.29,0-.46-1.26-.17-1.26-1a.7.7,0,0,1,.79-.64,1.14,1.14,0,0,1,.81.3l-.21.29a.88.88,0,0,0-.63-.25c-.23,0-.37.11-.37.27,0,.4,1.26.15,1.26,1,0,.36-.25.67-.84.67A1.17,1.17,0,0,1,172.33,94.43Z"/><path class="cls-8" d="M174.41,94.73V92.56h1.48v.34h-1.1v.56h1.08v.34h-1.08v.6h1.1v.33Z"/><path class="cls-8" d="M176.8,94.73V92.9h-.66v-.34h1.7v.34h-.66v1.83Z"/><path class="cls-8" d="M178,94.43l.21-.3a.92.92,0,0,0,.68.3c.32,0,.44-.15.44-.29,0-.46-1.26-.17-1.26-1,0-.36.31-.64.79-.64a1.15,1.15,0,0,1,.81.3l-.22.29a.88.88,0,0,0-.63-.25c-.22,0-.36.11-.36.27,0,.4,1.26.15,1.26,1,0,.36-.26.67-.84.67A1.17,1.17,0,0,1,178,94.43Z"/><path class="cls-8" d="M179.85,94.8l.77-2.3h.25l-.77,2.3Z"/><path class="cls-8" d="M181.11,94.73V92.56h.8a1.09,1.09,0,1,1,0,2.17Zm1.55-1.08a.7.7,0,0,0-.75-.75h-.42v1.5h.42A.72.72,0,0,0,182.66,93.65Z"/><path class="cls-8" d="M184.82,94.73l-.16-.41h-1l-.16.41h-.43l.85-2.17h.47l.85,2.17ZM184.17,93l-.39,1h.78Z"/><path class="cls-8" d="M185.8,94.73V92.9h-.66v-.34h1.7v.34h-.66v1.83Z"/><path class="cls-8" d="M188.47,94.73l-.16-.41h-1l-.16.41h-.44l.86-2.17h.47l.85,2.17ZM187.81,93l-.39,1h.78Z"/><circle class="cls-9" cx="55.28" cy="62.98" r="12.26"/><circle class="cls-10" cx="55.28" cy="62.98" r="10.94"/><g class="cls-11"><path class="cls-12" d="M57.15,101.83c-.08.48-3,24.51-3,24.51a2,2,0,0,1-1.56.24s-.61-24.74-.46-25.84C52.77,101.26,56.72,102.2,57.15,101.83Z"/><path class="cls-13" d="M52.74,126.25l1.33-.64s.25.43.46.72c.4.54,2.46,1,2.42,1.77,0,.37-.83.66-1.46.64a4.07,4.07,0,0,1-1.51-.31,3.69,3.69,0,0,1-1.32-.78,1.07,1.07,0,0,1,0-.86C52.62,126.38,52.74,126.25,52.74,126.25Z"/><path class="cls-13" d="M59.27,124.15l-1.41.43s.1.49.14.84c.06.67-1.13,2.43-.6,2.94.27.26,1.05-.07,1.51-.51a3,3,0,0,0,.91-1.24c.12-.48.52-1.21.45-1.47a1.07,1.07,0,0,0-.58-.63C59.45,124.18,59.27,124.15,59.27,124.15Z"/><path class="cls-12" d="M58,125.42a2.23,2.23,0,0,0,1,0c.3-.09.65-.87.65-.87-.24-.33-.42-.55-.42-.55l-1.5.6A3.07,3.07,0,0,1,58,125.42Z"/><path class="cls-4" d="M45.28,85.33c1,.4,5.11.59,8.2.23.9,5.43.06,14.9-.29,22.38-.16,3.32,6.41,16.45,6.41,16.45a1.72,1.72,0,0,1-1.7.53s-9.72-11.54-10.33-16.71C46.29,97.39,45.2,86.2,45.28,85.33Z"/><path class="cls-12" d="M54.53,126.33a2.18,2.18,0,0,1-.8.67c-.28.13-1.07-.21-1.07-.21,0-.41,0-.69,0-.69l1.51-.56A3.35,3.35,0,0,0,54.53,126.33Z"/><path class="cls-4" d="M60.8,83.7c-1.06.39-5.59.56-8.69.16,0,0-1,15.86-.37,23.58.7,8.94.77,18.37.77,18.37.58.74,1.88.14,1.9.07S60.93,85.37,60.8,83.7Z"/><path class="cls-14" d="M45.33,82.31S45,85.6,45,88.45a18.88,18.88,0,0,0,6.38,1.2l1-2.84s1.33,2.87,1.83,2.88c2.84.07,5.71-.23,7.65-1.4L60.78,84Z"/><path class="cls-12" d="M53.89,60.12c.21.16,2.41,1.49,3,1.42a7.13,7.13,0,0,0-.13,3.06c-.21.93-2.81.85-3.47-.77A10,10,0,0,0,53.89,60.12Z"/><path class="cls-15" d="M47.15,68.28c.52-1.66,1.51-3.44,3.52-3.84.67-.14,2.67-.61,2.67-.61a5.75,5.75,0,0,0,2.28,1.36,1.64,1.64,0,0,0,1.19-.59s2.26.78,2.67,1a3.57,3.57,0,0,1,1.59,3.88c-.92,4.48,1.09,15-.26,15.55-1.77.76-11.68,1.27-15.47-1.24a1,1,0,0,1-.45-.95C45.11,80.57,46,72,47.15,68.28Z"/><path class="cls-12" d="M33.56,82.85a8.09,8.09,0,0,0-1.08.43c-.42.19-1.31.73-1.38.77a6.67,6.67,0,0,0-.76.5.94.94,0,0,0-.12.51.27.27,0,0,0,.24.18c0,.23.56.09.56.15,0,.23.26.35.95-.09,0,0,2-.78,2.54-1.07A8,8,0,0,0,33.56,82.85Z"/><path class="cls-12" d="M42.93,75.91a1.6,1.6,0,0,0-.35.14c-1.67,1-7.21,6-9.14,6.84a6.65,6.65,0,0,1,.83,1.45c3.13-1.41,10.55-5.79,10.36-7.15A1.34,1.34,0,0,0,42.93,75.91Z"/><path class="cls-16" d="M35.18,84.42C37.85,83.18,44.68,79.83,46,78s6.56-6.88,5-8.26c-.51-.46-1.71-5-2.47-4.07A52.3,52.3,0,0,0,42,76.11c-.66.51-1.52,1.23-2.42,2A39.53,39.53,0,0,1,34,82.28Z"/><path class="cls-12" d="M75.3,83.44a8.57,8.57,0,0,1,1.08.42c.42.2,1.31.74,1.38.78a4.89,4.89,0,0,1,.75.5.86.86,0,0,1,.13.51.27.27,0,0,1-.24.18c0,.23-.57.09-.56.14,0,.23-.26.36-1-.09,0,0-2-.77-2.54-1.06A8,8,0,0,1,75.3,83.44Z"/><path class="cls-12" d="M65.92,76.5a1,1,0,0,1,.35.14c1.68,1,7.22,6,9.14,6.83a6.82,6.82,0,0,0-.82,1.46C71.45,83.52,64,79.14,64.23,77.78A1.33,1.33,0,0,1,65.92,76.5Z"/><path class="cls-15" d="M73.68,85c-2.67-1.25-9.5-4.59-10.81-6.43s-6.56-6.89-5-8.26c.51-.46,1.71-5,2.47-4.07a52.06,52.06,0,0,1,6.6,10.44c.65.51,1.51,1.23,2.42,2a40.34,40.34,0,0,0,5.53,4.19Z"/><path class="cls-4" d="M56.94,68a8.69,8.69,0,0,1-.27-4.52,6.3,6.3,0,0,0,0-3.06s1.58-1.76,2.16-.91A6.58,6.58,0,0,1,59,63.17a5.76,5.76,0,0,0,.45,4,6.5,6.5,0,0,1,.58,3.14c-.24,4-2.54,5.91-3.23,5.54S57.9,71.58,56.94,68Z"/><path class="cls-12" d="M56.55,56.89a2.05,2.05,0,0,1,2.34,1.6c.08.4-.22,4-2.16,4.47-.82.2-2.33-1.24-2.36-2.19l0-1.31A2.48,2.48,0,0,1,56.55,56.89Z"/><path class="cls-4" d="M49.55,69.83a5.63,5.63,0,0,1,.82-3.59A5,5,0,0,0,51,61.7a5.76,5.76,0,0,1,1.25-5.64A3.71,3.71,0,0,1,56,54.69c1.13.48,1.14,1,1.14,1a1.89,1.89,0,0,1,1.21.21c1.37.75,1.27,3.84.19,4.8.72-3.32-1.36-3.85-1.36-3.85a3.75,3.75,0,0,0-2.17,1,5.84,5.84,0,0,0-.91,4.39c.3,1.2,1.23,2.07.25,4.9-1.41,4.07,1.52,8.4.35,8.88S50,74.32,49.55,69.83Z"/><path class="cls-12" d="M54.39,59a1.07,1.07,0,0,1,.52.2c-.14.42-.45,1.09-.6,1.42a1.13,1.13,0,0,1-.62-.91C53.72,59.35,54.06,58.94,54.39,59Z"/></g><circle class="cls-9" cx="196.69" cy="62.98" r="12.26"/><circle class="cls-10" cx="196.69" cy="62.98" r="10.94"/><g class="cls-17"><path class="cls-13" d="M196.58,128.68,195.3,128s-.27.41-.5.68c-.43.51-2.5.88-2.5,1.61,0,.36.77.69,1.4.72a4.48,4.48,0,0,0,1.52-.21,3.72,3.72,0,0,0,1.35-.7,1,1,0,0,0,.05-.84C196.69,128.82,196.58,128.68,196.58,128.68Z"/><path class="cls-12" d="M194.93,127.93a.62.62,0,0,1-.13.72,2.17,2.17,0,0,0,.75.71c.27.15,1.07-.13,1.07-.13a5.14,5.14,0,0,0,0-1Z"/><path class="cls-4" d="M191.68,86.1a174.85,174.85,0,0,0,.1,24A111.64,111.64,0,0,0,195,128.21c0,.07,1.26.75,1.89.06a84.83,84.83,0,0,1,.26-18.13c1.09-7.6,2.57-14.81,3.17-15.28v-8C197.19,87,192.71,86.55,191.68,86.1Z"/><path class="cls-13" d="M206.28,128.77l-1.33-.61s-.25.43-.45.72c-.39.54-2.43,1.07-2.37,1.8,0,.36.82.63,1.45.61a3.12,3.12,0,0,0,1.5-.33c.4-.28,1.18-.56,1.3-.8a1.05,1.05,0,0,0,0-.85C206.39,128.9,206.28,128.77,206.28,128.77Z"/><path class="cls-12" d="M204.67,128.11a.91.91,0,0,1-.17.77,2.13,2.13,0,0,0,.8.65c.28.13,1.06-.22,1.06-.22,0-.41,0-1,0-1Z"/><path class="cls-4" d="M206.67,86.74c-3.06.44-7.56.34-8.61,0a175,175,0,0,0,2,24,110.25,110.25,0,0,0,4.56,17.73c0,.07,1.32.65,1.89-.09a84.63,84.63,0,0,1-1.16-18.1C205.83,102.58,206.67,86.74,206.67,86.74Z"/><path class="cls-18" d="M204.94,67.83c-.53-1.67-1.52-3.44-3.53-3.85l-2.85-.53a4.81,4.81,0,0,1-2.09,1.29,1.67,1.67,0,0,1-1.2-.59,28.3,28.3,0,0,0-2.66,1A3.54,3.54,0,0,0,191,69.06c.91,4.48-1.1,20.33.26,20.92,1.77.77,11.67,1.27,15.47-1.23a1,1,0,0,0,.44-1C207,85.49,206.12,71.57,204.94,67.83Z"/><path class="cls-12" d="M193.19,89.46a9.11,9.11,0,0,0-.81.83c-.31.35-.91,1.2-.95,1.26a5.68,5.68,0,0,0-.49.76.86.86,0,0,0,.09.52.26.26,0,0,0,.29.07c.11.2.56-.14.57-.09.06.23.38.22.84-.47,0,0,1.47-1.49,1.89-2A8.67,8.67,0,0,0,193.19,89.46Z"/><path class="cls-12" d="M199,79.33a1.3,1.3,0,0,0-.26.27c-1.11,1.64-4.18,8.42-5.61,9.94a6,6,0,0,1,1.34,1c2.31-2.55,7.32-9.55,6.61-10.72A1.35,1.35,0,0,0,199,79.33Z"/><path class="cls-19" d="M195.31,90.25c1.94-2.22,6.84-8,7.3-10.25a88.15,88.15,0,0,0,1.7-11.69c.16-3.61-3.57-3.87-3.9-2.73a78,78,0,0,0-2.24,14.32c-.39.73-.89,1.73-1.41,2.79a40.68,40.68,0,0,1-3.37,6.06Z"/><path class="cls-12" d="M182.44,87.29a7.76,7.76,0,0,0-.89.74c-.34.32-1,1.11-1.07,1.17a5.72,5.72,0,0,0-.57.71.86.86,0,0,0,.05.52.26.26,0,0,0,.28.1c.08.21.56-.09.57,0,0,.22.36.25.88-.39,0,0,1.61-1.34,2.08-1.8A8.44,8.44,0,0,0,182.44,87.29Z"/><path class="cls-12" d="M189.19,77.78a1.2,1.2,0,0,0-.29.24c-1.27,1.52-5,8-6.56,9.34a6.35,6.35,0,0,1,1.23,1.13c2.55-2.32,8.23-8.79,7.63-10A1.33,1.33,0,0,0,189.19,77.78Z"/><path class="cls-18" d="M184.46,88.28c2.16-2,7.6-7.32,8.27-9.48s4.1-8.58,2.23-9.42c-.62-.28-1.86-5.61-3.61-3.1a52.5,52.5,0,0,0-3,12c-.46.69-1.06,1.64-1.68,2.65a40.32,40.32,0,0,1-4,5.7Z"/><path class="cls-20" d="M195.35,61.26a7.15,7.15,0,0,1-.08,3c.15.94,2.73,1,3.49-.53a10,10,0,0,1-.3-3.7C198.24,60.22,196,61.38,195.35,61.26Z"/><path class="cls-20" d="M196.23,56.9c-1.17-.11-2.31.12-2.6,1.22-.11.39,0,4,1.83,4.56.8.26,2.39-1.07,2.49-2,0,0,.12-1.28.13-1.29A2.15,2.15,0,0,0,196.23,56.9Z"/><path class="cls-4" d="M199,55.17c-2.12-2.31-6.42-.74-6.75,1.73-.07.54.33,1.92,5.57,1.3a8.16,8.16,0,0,1,.59,2.93A4.21,4.21,0,0,0,199,55.17Z"/><path class="cls-20" d="M198.31,58.9a1.06,1.06,0,0,0-.55,0,14,14,0,0,0,.12,1.53,1.13,1.13,0,0,0,.86-.67A.79.79,0,0,0,198.31,58.9Z"/></g><line class="cls-21" x1="84.39" y1="31.07" x2="92.2" y2="31.07"/><polygon class="cls-13" points="94.1 31.07 91.42 32.17 92.06 31.07 91.42 29.98 94.1 31.07"/><line class="cls-21" x1="84.39" y1="39.56" x2="92.2" y2="39.56"/><polygon class="cls-13" points="94.1 39.56 91.42 40.65 92.06 39.56 91.42 38.47 94.1 39.56"/><line class="cls-21" x1="94.1" y1="93.55" x2="86.29" y2="93.55"/><polygon class="cls-13" points="84.39 93.55 87.07 92.45 86.44 93.55 87.07 94.64 84.39 93.55"/><line class="cls-21" x1="167" y1="39.56" x2="159.2" y2="39.56"/><polygon class="cls-13" points="157.29 39.56 159.97 38.47 159.34 39.56 159.97 40.65 157.29 39.56"/><line class="cls-21" x1="167" y1="31.07" x2="159.2" y2="31.07"/><polygon class="cls-13" points="157.29 31.07 159.97 29.98 159.34 31.07 159.97 32.16 157.29 31.07"/><line class="cls-21" x1="157.3" y1="93.55" x2="165.1" y2="93.55"/><polygon class="cls-13" points="167 93.55 164.32 94.64 164.96 93.55 164.32 92.45 167 93.55"/><path class="cls-22" d="M190.25,32.27v-.62h-.16a1.87,1.87,0,0,0-.63-.66,3.64,3.64,0,0,0-3.79,0,1.93,1.93,0,0,0-.62.66h-.16v.62a1.56,1.56,0,0,0,.78,1.28,3.64,3.64,0,0,0,3.79,0A1.57,1.57,0,0,0,190.25,32.27Z"/><path class="cls-23" d="M189.46,30.38a1.44,1.44,0,0,1,0,2.57,3.64,3.64,0,0,1-3.79,0,1.45,1.45,0,0,1,0-2.57A3.64,3.64,0,0,1,189.46,30.38Z"/><path class="cls-24" d="M185,32.27a1.3,1.3,0,0,0,.11.51V32.4a1.12,1.12,0,0,1-.11-.25Z"/><path class="cls-24" d="M185.25,32.66v.41l.14.15V32.8A1.85,1.85,0,0,1,185.25,32.66Z"/><path class="cls-24" d="M185.57,33v.43a.71.71,0,0,0,.14.1v-.43l0,0Z"/><path class="cls-24" d="M185.89,33.6l.14.07v-.44l-.14-.07Z"/><path class="cls-24" d="M186.21,33.75l.13,0v-.44l-.13,0Z"/><path class="cls-24" d="M186.53,33.86l.13,0v-.45l-.13,0Z"/><path class="cls-24" d="M186.84,33.94l.14,0v-.45l-.14,0Z"/><path class="cls-24" d="M187.16,34l.14,0v-.45h-.14Z"/><path class="cls-24" d="M187.48,33.56V34h.14v-.44Z"/><path class="cls-24" d="M187.8,34h.14v-.45h-.14Z"/><path class="cls-24" d="M188.12,34l.13,0V33.5l-.13,0Z"/><path class="cls-24" d="M188.44,33.91l.13,0v-.44l-.13,0Z"/><path class="cls-24" d="M188.75,33.82l.14-.06v-.44l-.14,0Z"/><path class="cls-24" d="M189.07,33.69l.14-.07v-.44l-.14.07Z"/><path class="cls-24" d="M189.39,33.07v.44l0,0,.1-.07V33l-.07.05Z"/><path class="cls-24" d="M189.71,33.26l.14-.15V32.7l-.14.14Z"/><path class="cls-24" d="M190,32.47v.38a1.17,1.17,0,0,0,.13-.4v-.26A1.43,1.43,0,0,1,190,32.47Z"/><path class="cls-25" d="M189.78,31.39v-.61h-.16a1.83,1.83,0,0,0-.62-.66,3.64,3.64,0,0,0-3.79,0,1.93,1.93,0,0,0-.62.66h-.16v.62a1.58,1.58,0,0,0,.78,1.28,3.64,3.64,0,0,0,3.79,0A1.56,1.56,0,0,0,189.78,31.39Z"/><path class="cls-23" d="M189,29.51a1.44,1.44,0,0,1,0,2.57,3.68,3.68,0,0,1-3.79,0,1.45,1.45,0,0,1,0-2.57A3.64,3.64,0,0,1,189,29.51Z"/><path class="cls-24" d="M184.5,31.4a1.1,1.1,0,0,0,.11.5v-.37a.8.8,0,0,1-.11-.25Z"/><path class="cls-24" d="M184.79,31.79v.41l.14.15v-.42Z"/><path class="cls-24" d="M185.11,32.08v.43a.71.71,0,0,0,.14.1v-.43l0,0Z"/><path class="cls-24" d="M185.43,32.72l.13.08v-.44l-.13-.07Z"/><path class="cls-24" d="M185.74,32.88l.14,0v-.44l-.14-.05Z"/><path class="cls-24" d="M186.06,33l.14,0v-.45l-.14,0Z"/><path class="cls-24" d="M186.38,33.07l.14,0v-.45l-.14,0Z"/><path class="cls-24" d="M186.7,33.11h.14v-.44h-.14Z"/><path class="cls-24" d="M187,32.69v.44h.14v-.44Z"/><path class="cls-24" d="M187.34,33.13h.13v-.45h-.13Z"/><path class="cls-24" d="M187.65,33.09l.14,0v-.44l-.14,0Z"/><path class="cls-24" d="M188,33l.14,0v-.44l-.14,0Z"/><path class="cls-24" d="M188.29,32.94l.14,0v-.44l-.14,0Z"/><path class="cls-24" d="M188.61,32.81l.14-.06v-.44l-.14.06Z"/><path class="cls-24" d="M188.93,32.2v.44l0,0,.09-.07v-.43l-.06,0Z"/><path class="cls-24" d="M189.25,32.39l.13-.15v-.41l-.13.13Z"/><path class="cls-24" d="M189.56,31.59V32a1.28,1.28,0,0,0,.14-.4v-.26A1.16,1.16,0,0,1,189.56,31.59Z"/><path class="cls-26" d="M190.25,30.47v-.61h-.16a1.87,1.87,0,0,0-.63-.66,3.64,3.64,0,0,0-3.79,0,1.93,1.93,0,0,0-.62.66h-.16v.62a1.58,1.58,0,0,0,.78,1.28,3.64,3.64,0,0,0,3.79,0A1.58,1.58,0,0,0,190.25,30.47Z"/><path class="cls-23" d="M189.46,28.59a1.43,1.43,0,0,1,0,2.56,3.64,3.64,0,0,1-3.79,0,1.44,1.44,0,0,1,0-2.56A3.64,3.64,0,0,1,189.46,28.59Z"/><path class="cls-24" d="M185,30.48a1.25,1.25,0,0,0,.11.5v-.37a1.36,1.36,0,0,1-.11-.25Z"/><path class="cls-24" d="M185.25,30.86v.41a1.07,1.07,0,0,0,.14.16V31Z"/><path class="cls-24" d="M185.57,31.16v.43l.14.1v-.44l0,0Z"/><path class="cls-24" d="M185.89,31.8l.14.07v-.44l-.14-.07Z"/><path class="cls-24" d="M186.21,32l.13.06v-.45l-.13,0Z"/><path class="cls-24" d="M186.53,32.07l.13,0v-.44l-.13,0Z"/><path class="cls-24" d="M186.84,32.14l.14,0v-.45l-.14,0Z"/><path class="cls-24" d="M187.16,32.19h.14v-.45h-.14Z"/><path class="cls-24" d="M187.48,31.76v.45h.14v-.45Z"/><path class="cls-24" d="M187.8,32.2h.14v-.44h-.14Z"/><path class="cls-24" d="M188.12,32.17l.13,0V31.7l-.13,0Z"/><path class="cls-24" d="M188.44,32.11l.13,0v-.45l-.13,0Z"/><path class="cls-24" d="M188.75,32l.14-.05v-.44l-.14,0Z"/><path class="cls-24" d="M189.07,31.89l.14-.07v-.44l-.14.07Z"/><path class="cls-24" d="M189.39,31.28v.43l0,0,.1-.07v-.43l-.07,0Z"/><path class="cls-24" d="M189.71,31.46l.14-.14V30.9l-.14.14Z"/><path class="cls-24" d="M190,30.67v.39a1.23,1.23,0,0,0,.13-.41V30.4A1.66,1.66,0,0,1,190,30.67Z"/><path class="cls-27" d="M67.54,32.27v-.62h-.16a1.93,1.93,0,0,0-.62-.66A3.64,3.64,0,0,0,63,31a1.87,1.87,0,0,0-.63.66h-.16v.62A1.55,1.55,0,0,0,63,33.55a3.64,3.64,0,0,0,3.79,0A1.58,1.58,0,0,0,67.54,32.27Z"/><path class="cls-23" d="M66.76,30.38a1.45,1.45,0,0,1,0,2.57A3.64,3.64,0,0,1,63,33a1.44,1.44,0,0,1,0-2.57A3.64,3.64,0,0,1,66.76,30.38Z"/><path class="cls-24" d="M62.25,32.27a1.3,1.3,0,0,0,.11.51V32.4a1.89,1.89,0,0,1-.11-.25Z"/><path class="cls-24" d="M62.55,32.66v.41l.13.15V32.8Z"/><path class="cls-24" d="M62.86,33v.43l.14.1v-.43l0,0Z"/><path class="cls-24" d="M63.18,33.6l.14.07v-.44l-.14-.07Z"/><path class="cls-24" d="M63.5,33.75l.14,0v-.44l-.14,0Z"/><path class="cls-24" d="M63.82,33.86l.14,0v-.45l-.14,0Z"/><path class="cls-24" d="M64.14,33.94l.13,0v-.45l-.13,0Z"/><path class="cls-24" d="M64.46,34l.13,0v-.45h-.13Z"/><path class="cls-24" d="M64.77,33.56V34h.14v-.44Z"/><path class="cls-24" d="M65.09,34h.14v-.45h-.14Z"/><path class="cls-24" d="M65.41,34l.14,0V33.5l-.14,0Z"/><path class="cls-24" d="M65.73,33.91l.14,0v-.44l-.14,0Z"/><path class="cls-24" d="M66.05,33.82l.13-.06v-.44l-.13,0Z"/><path class="cls-24" d="M66.36,33.69l.14-.07v-.44l-.14.07Z"/><path class="cls-24" d="M66.68,33.07v.44l0,0,.1-.07V33l-.06.05Z"/><path class="cls-24" d="M67,33.26l.14-.15V32.7l-.14.14Z"/><path class="cls-24" d="M67.32,32.47v.38a1.19,1.19,0,0,0,.14-.4v-.26A1.47,1.47,0,0,1,67.32,32.47Z"/><path class="cls-28" d="M67.08,31.39v-.61h-.16a1.87,1.87,0,0,0-.63-.66,3.64,3.64,0,0,0-3.79,0,1.93,1.93,0,0,0-.62.66h-.16v.62a1.58,1.58,0,0,0,.78,1.28,3.64,3.64,0,0,0,3.79,0A1.57,1.57,0,0,0,67.08,31.39Z"/><path class="cls-23" d="M66.29,29.51a1.44,1.44,0,0,1,0,2.57,3.68,3.68,0,0,1-3.79,0,1.45,1.45,0,0,1,0-2.57A3.64,3.64,0,0,1,66.29,29.51Z"/><path class="cls-24" d="M61.79,31.4a1.25,1.25,0,0,0,.11.5v-.37a1.89,1.89,0,0,1-.11-.25Z"/><path class="cls-24" d="M62.08,31.79v.41l.14.15v-.42A1.85,1.85,0,0,0,62.08,31.79Z"/><path class="cls-24" d="M62.4,32.08v.43l.14.1v-.43l0,0Z"/><path class="cls-24" d="M62.72,32.72l.14.08v-.44l-.14-.07Z"/><path class="cls-24" d="M63,32.88l.14,0v-.44L63,32.44Z"/><path class="cls-24" d="M63.36,33l.13,0v-.45l-.13,0Z"/><path class="cls-24" d="M63.67,33.07l.14,0v-.45l-.14,0Z"/><path class="cls-24" d="M64,33.11h.14v-.44H64Z"/><path class="cls-24" d="M64.31,32.69v.44h.14v-.44Z"/><path class="cls-24" d="M64.63,33.13h.14v-.45h-.14Z"/><path class="cls-24" d="M65,33.09l.13,0v-.44l-.13,0Z"/><path class="cls-24" d="M65.27,33l.13,0v-.44l-.13,0Z"/><path class="cls-24" d="M65.58,32.94l.14,0v-.44l-.14,0Z"/><path class="cls-24" d="M65.9,32.81l.14-.06v-.44l-.14.06Z"/><path class="cls-24" d="M66.22,32.2v.44l0,0,.1-.07v-.43l-.07,0Z"/><path class="cls-24" d="M66.54,32.39l.14-.15v-.41l-.14.13Z"/><path class="cls-24" d="M66.86,31.59V32a1.25,1.25,0,0,0,.13-.4v-.26A1.66,1.66,0,0,1,66.86,31.59Z"/><path class="cls-29" d="M67.54,30.47v-.61h-.16a1.93,1.93,0,0,0-.62-.66,3.64,3.64,0,0,0-3.79,0,1.87,1.87,0,0,0-.63.66h-.16v.62A1.57,1.57,0,0,0,63,31.76a3.64,3.64,0,0,0,3.79,0A1.59,1.59,0,0,0,67.54,30.47Z"/><path class="cls-23" d="M66.76,28.59a1.44,1.44,0,0,1,0,2.56,3.64,3.64,0,0,1-3.79,0,1.43,1.43,0,0,1,0-2.56A3.64,3.64,0,0,1,66.76,28.59Z"/><path class="cls-24" d="M62.25,30.48a1.25,1.25,0,0,0,.11.5v-.37a2.72,2.72,0,0,1-.11-.25Z"/><path class="cls-24" d="M62.55,30.86v.41a1,1,0,0,0,.13.16V31Z"/><path class="cls-24" d="M62.86,31.16v.43l.14.1v-.44l0,0Z"/><path class="cls-24" d="M63.18,31.8l.14.07v-.44l-.14-.07Z"/><path class="cls-24" d="M63.5,32l.14.06v-.45l-.14,0Z"/><path class="cls-24" d="M63.82,32.07l.14,0v-.44l-.14,0Z"/><path class="cls-24" d="M64.14,32.14l.13,0v-.45l-.13,0Z"/><path class="cls-24" d="M64.46,32.19h.13v-.45h-.13Z"/><path class="cls-24" d="M64.77,31.76v.45h.14v-.45Z"/><path class="cls-24" d="M65.09,32.2h.14v-.44h-.14Z"/><path class="cls-24" d="M65.41,32.17l.14,0V31.7l-.14,0Z"/><path class="cls-24" d="M65.73,32.11l.14,0v-.45l-.14,0Z"/><path class="cls-24" d="M66.05,32l.13-.05v-.44l-.13,0Z"/><path class="cls-24" d="M66.36,31.89l.14-.07v-.44l-.14.07Z"/><path class="cls-24" d="M66.68,31.28v.43l0,0,.1-.07v-.43l-.06,0Z"/><path class="cls-24" d="M67,31.46l.14-.14V30.9L67,31Z"/><path class="cls-24" d="M67.32,30.67v.39a1.25,1.25,0,0,0,.14-.41V30.4A1.74,1.74,0,0,1,67.32,30.67Z"/><circle class="cls-13" cx="14.68" cy="54" r="14.68"/><g class="cls-30"><polygon class="cls-4" points="18.46 48.44 29.6 59.58 21.89 70.88 20.38 69.44 10.09 59.15 16.25 58.03 12.27 54.04 14.41 53.07 11.13 49.78 11.46 47.91 14.68 47.43 18.46 48.44"/></g><path class="cls-14" d="M10.71,56.84a6.88,6.88,0,0,0,3,.8c1.58,0,2.38-.76,2.38-1.72,0-1.3-1.28-1.88-2.6-1.88H12.27V51.86h1.18c1,0,2.3-.4,2.3-1.5,0-.78-.62-1.36-1.92-1.36a5.77,5.77,0,0,0-2.7.78l-.62-2.2a8.09,8.09,0,0,1,4-1c2.76,0,4.3,1.46,4.3,3.24a3.1,3.1,0,0,1-2.38,3v0a3.23,3.23,0,0,1,2.82,3.18c0,2.29-2,4-5.32,4a7.92,7.92,0,0,1-3.86-.9Z"/></g></g></svg>