<svg xmlns="http://www.w3.org/2000/svg" xmlns:xlink="http://www.w3.org/1999/xlink" viewBox="0 0 236.97 131.29"><defs><style>.cls-1,.cls-21,.cls-7{fill:none;}.cls-2{fill:#f5f6fa;}.cls-14,.cls-3,.cls-9{fill:#fff;}.cls-3{stroke:#b1aec0;stroke-linejoin:bevel;}.cls-3,.cls-9{stroke-width:0.22px;}.cls-4{fill:#041742;}.cls-5{fill:#b1aec0;}.cls-6{fill:#bebecc;}.cls-7{stroke:#bebecc;}.cls-21,.cls-7,.cls-9{stroke-miterlimit:10;}.cls-21,.cls-7{stroke-width:0.45px;}.cls-8{fill:#505968;}.cls-9{stroke:#edf2f4;}.cls-10{fill:#edf2f4;}.cls-11{clip-path:url(#clip-path);}.cls-12{fill:#ccc;}.cls-13{fill:#0e9de5;}.cls-15{fill:#35bbef;}.cls-16{fill:#47cbf4;}.cls-17{clip-path:url(#clip-path-2);}.cls-18{fill:#26db8d;}.cls-19{fill:#4aeda3;}.cls-20{fill:#bcbcbc;}.cls-21{stroke:#0e9de5;}.cls-22{fill:url(#linear-gradient);}.cls-23{fill:#9ee7ff;}.cls-24{fill:#5fc0ed;}.cls-25{fill:url(#linear-gradient-2);}.cls-26{fill:url(#linear-gradient-3);}.cls-27{fill:url(#linear-gradient-4);}.cls-28{fill:url(#linear-gradient-5);}.cls-29{fill:url(#linear-gradient-6);}.cls-30{clip-path:url(#clip-path-3);}</style><clipPath id="clip-path"><circle class="cls-1" cx="40.29" cy="62.98" r="10.94"/></clipPath><clipPath id="clip-path-2"><circle class="cls-1" cx="181.71" cy="62.98" r="10.94"/></clipPath><linearGradient id="linear-gradient" x1="172.58" y1="34.09" x2="172.58" y2="30.46" gradientUnits="userSpaceOnUse"><stop offset="0" stop-color="#59d6ff"/><stop offset="0.13" stop-color="#66d0ff"/><stop offset="0.35" stop-color="#75c9ff"/><stop offset="0.6" stop-color="#7dc4ff"/><stop offset="1" stop-color="#80c3ff"/></linearGradient><linearGradient id="linear-gradient-2" x1="172.12" y1="33.21" x2="172.12" y2="29.59" xlink:href="#linear-gradient"/><linearGradient id="linear-gradient-3" x1="172.58" y1="32.29" x2="172.58" y2="28.66" xlink:href="#linear-gradient"/><linearGradient id="linear-gradient-4" x1="49.88" y1="34.09" x2="49.88" y2="30.46" xlink:href="#linear-gradient"/><linearGradient id="linear-gradient-5" x1="49.41" y1="33.21" x2="49.41" y2="29.59" xlink:href="#linear-gradient"/><linearGradient id="linear-gradient-6" x1="49.88" y1="32.29" x2="49.88" y2="28.66" xlink:href="#linear-gradient"/><clipPath id="clip-path-3"><circle class="cls-1" cx="222.05" cy="54" r="14.68"/></clipPath></defs><title>SC</title><g id="Layer_2" data-name="Layer 2"><g id="content"><rect class="cls-2" width="222" height="108"/><polygon class="cls-3" points="147.74 103.25 74.26 103.25 74.26 3.4 140.82 3.4 147.74 10.57 147.74 103.25"/><path class="cls-4" d="M97.57,15.32l.46-.63a2,2,0,0,0,1.49.65c.67,0,.94-.33.94-.64,0-1-2.74-.38-2.74-2.11,0-.78.68-1.38,1.71-1.38a2.45,2.45,0,0,1,1.76.66l-.47.61A1.94,1.94,0,0,0,99.36,12c-.49,0-.8.23-.8.58,0,.88,2.74.33,2.74,2.09,0,.78-.55,1.45-1.82,1.45A2.5,2.5,0,0,1,97.57,15.32Z"/><path class="cls-4" d="M106.83,16V12.5L105.38,16H105l-1.44-3.49V16h-.82V11.28h1.16l1.28,3.1,1.28-3.1h1.16V16Z"/><path class="cls-4" d="M112.66,16l-.35-.91h-2.16l-.34.91h-.94l1.85-4.71h1L113.59,16Zm-1.43-3.87-.84,2.24h1.69Z"/><path class="cls-4" d="M117.5,16l-1-1.76h-.82V16h-.82V11.28h2.06a1.43,1.43,0,0,1,1.54,1.48,1.32,1.32,0,0,1-1.11,1.38L118.46,16Zm.07-3.23a.74.74,0,0,0-.8-.75h-1.13v1.5h1.13A.74.74,0,0,0,117.57,12.76Z"/><path class="cls-4" d="M121,16V12h-1.42v-.73h3.67V12h-1.42v4Z"/><path class="cls-4" d="M90.91,20.69a2.37,2.37,0,0,1,2.46-2.43,2.12,2.12,0,0,1,1.89,1.06l-.7.36A1.41,1.41,0,0,0,93.37,19a1.7,1.7,0,0,0,0,3.4,1.4,1.4,0,0,0,1.19-.68l.7.36a2.14,2.14,0,0,1-1.89,1.06A2.37,2.37,0,0,1,90.91,20.69Z"/><path class="cls-4" d="M96.42,20.69a2.41,2.41,0,1,1,2.41,2.44A2.34,2.34,0,0,1,96.42,20.69Zm4,0a1.56,1.56,0,1,0-3.11,0,1.56,1.56,0,1,0,3.11,0Z"/><path class="cls-4" d="M106,23l-2.45-3.35V23h-.82v-4.7h.84L106,21.6V18.34h.82V23Z"/><path class="cls-4" d="M109.64,23v-4h-1.42v-.73h3.67v.73h-1.42v4Z"/><path class="cls-4" d="M116,23l-1-1.75h-.82V23h-.82v-4.7h2.06a1.43,1.43,0,0,1,1.54,1.47,1.32,1.32,0,0,1-1.11,1.38L116.94,23Zm.07-3.23a.73.73,0,0,0-.8-.74h-1.13v1.49h1.13A.74.74,0,0,0,116.05,19.81Z"/><path class="cls-4" d="M121.73,23l-.35-.9h-2.16l-.34.9h-.94l1.85-4.7h1l1.84,4.7Zm-1.43-3.87-.84,2.24h1.69Z"/><path class="cls-4" d="M123.43,20.69a2.37,2.37,0,0,1,2.47-2.43,2.12,2.12,0,0,1,1.88,1.06l-.7.36A1.41,1.41,0,0,0,125.9,19a1.7,1.7,0,0,0,0,3.4,1.4,1.4,0,0,0,1.18-.68l.7.36a2.12,2.12,0,0,1-1.88,1.06A2.38,2.38,0,0,1,123.43,20.69Z"/><path class="cls-4" d="M130.28,23v-4h-1.43v-.73h3.68v.73H131.1v4Z"/><path class="cls-5" d="M99.82,48V46.19h.32V48Z"/><path class="cls-5" d="M100.53,48V46.19h1.24v.28h-.92v.47h.9v.28h-.9V48Z"/><path class="cls-5" d="M120.07,48V46.19h1.24v.28h-.92v.47h.91v.28h-.91v.5h.92V48Z"/><path class="cls-5" d="M121.64,48V46.19H122v1.53h.79V48Z"/><path class="cls-5" d="M122.92,47.74l.18-.24a.8.8,0,0,0,.57.25c.26,0,.37-.13.37-.25,0-.38-1.06-.14-1.06-.81,0-.3.26-.53.66-.53a1,1,0,0,1,.68.25l-.18.24a.76.76,0,0,0-.53-.21c-.18,0-.3.09-.3.23,0,.34,1,.13,1,.8,0,.3-.21.56-.7.56A1,1,0,0,1,122.92,47.74Z"/><path class="cls-5" d="M124.65,48V46.19h1.24v.28H125v.47h.91v.28H125v.5h.92V48Z"/><circle class="cls-6" cx="110.91" cy="40.94" r="1.69"/><circle class="cls-6" cx="107.83" cy="58.42" r="1.69"/><circle class="cls-6" cx="93.1" cy="81.82" r="1.69"/><circle class="cls-6" cx="98.7" cy="81.82" r="1.69"/><circle class="cls-6" cx="119.89" cy="81.82" r="1.69"/><circle class="cls-6" cx="119.89" cy="67.27" r="1.69"/><circle class="cls-6" cx="128.87" cy="67.27" r="1.69"/><circle class="cls-6" cx="107.62" cy="76.49" r="1.69"/><polyline class="cls-7" points="93.1 81.82 93.1 61.26 98.69 61.26 98.69 53.95 104.03 53.95 104.03 48 110.91 48 110.91 40.94"/><polyline class="cls-7" points="110.91 48 116.85 48 116.85 53.83 123.15 53.83 123.15 61.38 128.87 61.38 128.87 67.27"/><polyline class="cls-7" points="104.03 53.95 107.83 53.95 107.83 58.42"/><polyline class="cls-7" points="98.69 61.26 104.03 61.26 104.03 72.19 98.69 72.19 98.69 81.82"/><polyline class="cls-7" points="116.85 53.83 113.31 53.83 113.31 72.19 110.91 72.19 110.91 76.49 104.03 76.49 104.03 72.19"/><polyline class="cls-7" points="123.15 61.38 119.89 61.38 119.89 67.27"/><polyline class="cls-7" points="113.31 72.19 119.89 72.19 119.89 81.82"/><polygon class="cls-5" points="140.82 3.4 147.74 10.57 140.82 10.57 140.82 3.4"/><path class="cls-8" d="M57.25,32.35l-.15-.42h-1l-.16.42h-.43l.85-2.17h.48l.85,2.17Zm-.65-1.79-.39,1H57Z"/><path class="cls-8" d="M57.76,32l.21-.29a.92.92,0,0,0,.68.3c.32,0,.44-.15.44-.3,0-.45-1.27-.17-1.27-1,0-.36.32-.63.79-.63a1.13,1.13,0,0,1,.82.3l-.22.28a.88.88,0,0,0-.63-.25c-.22,0-.37.11-.37.27,0,.41,1.27.16,1.27,1,0,.36-.26.67-.84.67A1.14,1.14,0,0,1,57.76,32Z"/><path class="cls-8" d="M59.69,32l.21-.29a.93.93,0,0,0,.69.3c.31,0,.43-.15.43-.3,0-.45-1.26-.17-1.26-1,0-.36.31-.63.79-.63a1.09,1.09,0,0,1,.81.3l-.22.28a.88.88,0,0,0-.62-.25c-.23,0-.37.11-.37.27,0,.41,1.26.16,1.26,1,0,.36-.25.67-.84.67A1.14,1.14,0,0,1,59.69,32Z"/><path class="cls-8" d="M61.76,32.35V30.18h1.49v.33H62.14v.57h1.09v.33H62.14V32h1.11v.34Z"/><path class="cls-8" d="M64.16,32.35V30.51H63.5v-.33h1.7v.33h-.66v1.84Z"/><path class="cls-8" d="M65.36,32l.22-.29a.92.92,0,0,0,.68.3c.31,0,.44-.15.44-.3,0-.45-1.27-.17-1.27-1,0-.36.32-.63.79-.63a1.13,1.13,0,0,1,.82.3l-.22.28a.88.88,0,0,0-.63-.25c-.22,0-.37.11-.37.27,0,.41,1.26.16,1.26,1,0,.36-.25.67-.83.67A1.18,1.18,0,0,1,65.36,32Z"/><path class="cls-8" d="M59.4,40.44V38.27h.81a1.09,1.09,0,1,1,0,2.17ZM61,39.36a.7.7,0,0,0-.74-.75h-.43v1.5h.43A.71.71,0,0,0,61,39.36Z"/><path class="cls-8" d="M63.12,40.44,63,40H62l-.16.41h-.44l.86-2.17h.47l.85,2.17Zm-.66-1.78-.39,1h.78Z"/><path class="cls-8" d="M64.1,40.44V38.61h-.66v-.34h1.69v.34h-.65v1.83Z"/><path class="cls-8" d="M66.77,40.44,66.61,40h-1l-.16.41H65l.85-2.17h.48l.85,2.17Zm-.66-1.78-.39,1h.78Z"/><path class="cls-8" d="M48.19,94.73,48,94.32H47l-.16.41h-.43l.85-2.17h.47l.86,2.17ZM47.54,93l-.39,1h.78Z"/><path class="cls-8" d="M48.69,94.43l.22-.3a.91.91,0,0,0,.68.3c.31,0,.44-.15.44-.29,0-.46-1.27-.17-1.27-1a.7.7,0,0,1,.79-.64,1.14,1.14,0,0,1,.81.3l-.21.29a.88.88,0,0,0-.63-.25c-.22,0-.37.11-.37.27,0,.4,1.26.15,1.26,1,0,.36-.25.67-.84.67A1.19,1.19,0,0,1,48.69,94.43Z"/><path class="cls-8" d="M50.63,94.43l.21-.3a.93.93,0,0,0,.69.3c.31,0,.43-.15.43-.29,0-.46-1.26-.17-1.26-1,0-.36.31-.64.79-.64a1.15,1.15,0,0,1,.81.3l-.22.29a.88.88,0,0,0-.63-.25c-.22,0-.36.11-.36.27,0,.4,1.26.15,1.26,1,0,.36-.26.67-.84.67A1.17,1.17,0,0,1,50.63,94.43Z"/><path class="cls-8" d="M52.7,94.73V92.56h1.49v.34H53.08v.56h1.08v.34H53.08v.6h1.11v.33Z"/><path class="cls-8" d="M55.1,94.73V92.9h-.66v-.34h1.69v.34h-.65v1.83Z"/><path class="cls-8" d="M56.3,94.43l.21-.3a1,1,0,0,0,.69.3c.31,0,.44-.15.44-.29,0-.46-1.27-.17-1.27-1a.7.7,0,0,1,.79-.64,1.14,1.14,0,0,1,.81.3l-.21.29a.88.88,0,0,0-.63-.25c-.23,0-.37.11-.37.27,0,.4,1.26.15,1.26,1,0,.36-.25.67-.84.67A1.19,1.19,0,0,1,56.3,94.43Z"/><path class="cls-8" d="M58.15,94.8l.77-2.3h.25l-.77,2.3Z"/><path class="cls-8" d="M59.4,94.73V92.56h.81a1.09,1.09,0,1,1,0,2.17ZM61,93.65a.7.7,0,0,0-.74-.75h-.43v1.5h.43A.71.71,0,0,0,61,93.65Z"/><path class="cls-8" d="M63.12,94.73,63,94.32H62l-.15.41h-.44l.85-2.17h.48l.85,2.17ZM62.46,93l-.39,1h.78Z"/><path class="cls-8" d="M64.1,94.73V92.9h-.66v-.34h1.69v.34h-.65v1.83Z"/><path class="cls-8" d="M66.77,94.73l-.16-.41h-1l-.16.41H65l.85-2.17h.48l.85,2.17ZM66.11,93l-.39,1h.78Z"/><path class="cls-8" d="M156,32.35l-.16-.42h-1l-.16.42h-.43l.85-2.17h.48l.85,2.17Zm-.66-1.79-.39,1h.78Z"/><path class="cls-8" d="M156.5,32l.21-.29a.92.92,0,0,0,.68.3c.32,0,.44-.15.44-.3,0-.45-1.26-.17-1.26-1,0-.36.31-.63.79-.63a1.11,1.11,0,0,1,.81.3l-.22.28a.88.88,0,0,0-.63-.25c-.22,0-.36.11-.36.27,0,.41,1.26.16,1.26,1,0,.36-.26.67-.84.67A1.14,1.14,0,0,1,156.5,32Z"/><path class="cls-8" d="M158.43,32l.21-.29a1,1,0,0,0,.69.3c.31,0,.43-.15.43-.3,0-.45-1.26-.17-1.26-1,0-.36.32-.63.79-.63a1.09,1.09,0,0,1,.81.3l-.22.28a.84.84,0,0,0-.62-.25c-.23,0-.37.11-.37.27,0,.41,1.26.16,1.26,1,0,.36-.25.67-.84.67A1.14,1.14,0,0,1,158.43,32Z"/><path class="cls-8" d="M160.51,32.35V30.18H162v.33h-1.1v.57H162v.33h-1.08V32H162v.34Z"/><path class="cls-8" d="M162.9,32.35V30.51h-.66v-.33h1.7v.33h-.66v1.84Z"/><path class="cls-8" d="M164.11,32l.21-.29a.92.92,0,0,0,.68.3c.32,0,.44-.15.44-.3,0-.45-1.26-.17-1.26-1,0-.36.31-.63.79-.63a1.11,1.11,0,0,1,.81.3l-.22.28a.88.88,0,0,0-.63-.25c-.22,0-.36.11-.36.27,0,.41,1.26.16,1.26,1,0,.36-.26.67-.84.67A1.14,1.14,0,0,1,164.11,32Z"/><path class="cls-8" d="M154.48,40.44V38.27h.8a1.09,1.09,0,1,1,0,2.17ZM156,39.36a.7.7,0,0,0-.75-.75h-.42v1.5h.42A.71.71,0,0,0,156,39.36Z"/><path class="cls-8" d="M158.19,40.44,158,40h-1l-.16.41h-.43l.85-2.17h.48l.85,2.17Zm-.65-1.78-.39,1h.78Z"/><path class="cls-8" d="M159.17,40.44V38.61h-.65v-.34h1.69v.34h-.66v1.83Z"/><path class="cls-8" d="M161.84,40.44l-.16-.41h-1l-.16.41h-.43l.85-2.17h.47l.85,2.17Zm-.66-1.78-.38,1h.77Z"/><path class="cls-8" d="M154.91,94.73l-.16-.41h-1l-.16.41h-.43l.85-2.17h.47l.85,2.17ZM154.26,93l-.39,1h.78Z"/><path class="cls-8" d="M155.41,94.43l.22-.3a.91.91,0,0,0,.68.3c.31,0,.44-.15.44-.29,0-.46-1.27-.17-1.27-1a.7.7,0,0,1,.79-.64,1.14,1.14,0,0,1,.81.3l-.21.29a.88.88,0,0,0-.63-.25c-.22,0-.37.11-.37.27,0,.4,1.26.15,1.26,1,0,.36-.25.67-.84.67A1.19,1.19,0,0,1,155.41,94.43Z"/><path class="cls-8" d="M157.35,94.43l.21-.3a.93.93,0,0,0,.69.3c.31,0,.43-.15.43-.29,0-.46-1.26-.17-1.26-1,0-.36.31-.64.79-.64a1.15,1.15,0,0,1,.81.3l-.22.29a.88.88,0,0,0-.63-.25c-.22,0-.36.11-.36.27,0,.4,1.26.15,1.26,1,0,.36-.26.67-.84.67A1.17,1.17,0,0,1,157.35,94.43Z"/><path class="cls-8" d="M159.42,94.73V92.56h1.49v.34H159.8v.56h1.08v.34H159.8v.6h1.11v.33Z"/><path class="cls-8" d="M161.82,94.73V92.9h-.66v-.34h1.69v.34h-.65v1.83Z"/><path class="cls-8" d="M163,94.43l.21-.3a1,1,0,0,0,.69.3c.31,0,.44-.15.44-.29,0-.46-1.27-.17-1.27-1a.7.7,0,0,1,.79-.64,1.14,1.14,0,0,1,.81.3l-.21.29a.88.88,0,0,0-.63-.25c-.23,0-.37.11-.37.27,0,.4,1.26.15,1.26,1,0,.36-.25.67-.84.67A1.19,1.19,0,0,1,163,94.43Z"/><path class="cls-8" d="M164.87,94.8l.77-2.3h.25l-.77,2.3Z"/><path class="cls-8" d="M166.12,94.73V92.56h.81a1.09,1.09,0,1,1,0,2.17Zm1.55-1.08a.7.7,0,0,0-.74-.75h-.43v1.5h.43A.71.71,0,0,0,167.67,93.65Z"/><path class="cls-8" d="M169.84,94.73l-.16-.41h-1l-.15.41h-.44l.85-2.17h.48l.85,2.17ZM169.18,93l-.39,1h.78Z"/><path class="cls-8" d="M170.82,94.73V92.9h-.66v-.34h1.69v.34h-.65v1.83Z"/><path class="cls-8" d="M173.49,94.73l-.16-.41h-1l-.16.41h-.43l.85-2.17h.48l.85,2.17ZM172.83,93l-.39,1h.78Z"/><circle class="cls-9" cx="40.29" cy="62.98" r="12.26"/><circle class="cls-10" cx="40.29" cy="62.98" r="10.94"/><g class="cls-11"><path class="cls-12" d="M42.16,101.83c-.07.48-2.95,24.51-2.95,24.51a2,2,0,0,1-1.57.24s-.6-24.74-.45-25.84C37.79,101.26,41.74,102.2,42.16,101.83Z"/><path class="cls-13" d="M37.75,126.25l1.34-.64s.25.43.45.72c.41.54,2.47,1,2.42,1.77,0,.37-.82.66-1.45.64a4.18,4.18,0,0,1-1.52-.31,3.88,3.88,0,0,1-1.32-.78,1.05,1.05,0,0,1,0-.86C37.64,126.38,37.75,126.25,37.75,126.25Z"/><path class="cls-13" d="M44.29,124.15l-1.42.43a7.83,7.83,0,0,1,.14.84c.07.67-1.12,2.43-.59,2.94.26.26,1-.07,1.5-.51a3.13,3.13,0,0,0,.92-1.24c.11-.48.52-1.21.45-1.47a1.07,1.07,0,0,0-.58-.63C44.46,124.18,44.29,124.15,44.29,124.15Z"/><path class="cls-12" d="M43,125.42a2.24,2.24,0,0,0,1,0c.3-.09.66-.87.66-.87-.25-.33-.43-.55-.43-.55l-1.49.6A3.32,3.32,0,0,1,43,125.42Z"/><path class="cls-4" d="M30.29,85.33c1.06.4,5.11.59,8.21.23.89,5.43.06,14.9-.3,22.38-.16,3.32,6.42,16.45,6.42,16.45a1.74,1.74,0,0,1-1.71.53s-9.71-11.54-10.33-16.71C31.3,97.39,30.21,86.2,30.29,85.33Z"/><path class="cls-12" d="M39.54,126.33a2.1,2.1,0,0,1-.79.67c-.29.13-1.07-.21-1.07-.21,0-.41,0-.69,0-.69l1.5-.56A3.35,3.35,0,0,0,39.54,126.33Z"/><path class="cls-4" d="M45.82,83.7c-1.06.39-5.6.56-8.69.16,0,0-1,15.86-.37,23.58.7,8.94.76,18.37.76,18.37.59.74,1.89.14,1.91.07S45.94,85.37,45.82,83.7Z"/><path class="cls-14" d="M30.35,82.31s-.3,3.29-.3,6.14a18.88,18.88,0,0,0,6.38,1.2l1-2.84s1.33,2.87,1.83,2.88c2.83.07,5.71-.23,7.64-1.4L45.79,84Z"/><path class="cls-12" d="M38.91,60.12c.21.16,2.41,1.49,3.05,1.42a7.13,7.13,0,0,0-.13,3.06c-.22.93-2.82.85-3.48-.77A10,10,0,0,0,38.91,60.12Z"/><path class="cls-15" d="M32.16,68.28c.53-1.66,1.52-3.44,3.53-3.84.67-.14,2.66-.61,2.66-.61a5.83,5.83,0,0,0,2.28,1.36,1.67,1.67,0,0,0,1.2-.59s2.25.78,2.66,1a3.54,3.54,0,0,1,1.59,3.88c-.91,4.48,1.1,15-.26,15.55-1.77.76-11.67,1.27-15.47-1.24a1,1,0,0,1-.44-.95C30.12,80.57,31,72,32.16,68.28Z"/><path class="cls-12" d="M18.58,82.85a7.59,7.59,0,0,0-1.08.43c-.43.19-1.32.73-1.38.77a5.89,5.89,0,0,0-.76.5.86.86,0,0,0-.12.51.25.25,0,0,0,.23.18c0,.23.57.09.56.15,0,.23.27.35.95-.09.05,0,1.95-.78,2.54-1.07A8,8,0,0,0,18.58,82.85Z"/><path class="cls-12" d="M28,75.91a1.27,1.27,0,0,0-.35.14c-1.68,1-7.22,6-9.14,6.84a6.17,6.17,0,0,1,.82,1.45c3.14-1.41,10.55-5.79,10.37-7.15A1.34,1.34,0,0,0,28,75.91Z"/><path class="cls-16" d="M20.19,84.42C22.86,83.18,29.69,79.83,31,78s6.57-6.88,5.06-8.26c-.51-.46-1.72-5-2.47-4.07A51.78,51.78,0,0,0,27,76.11c-.66.51-1.52,1.23-2.43,2A39.56,39.56,0,0,1,19,82.28Z"/><path class="cls-12" d="M60.31,83.44a7.53,7.53,0,0,1,1.08.42c.43.2,1.32.74,1.38.78a5,5,0,0,1,.76.5.86.86,0,0,1,.12.51.25.25,0,0,1-.23.18c0,.23-.57.09-.56.14,0,.23-.26.36-1-.09,0,0-1.95-.77-2.54-1.06A8,8,0,0,1,60.31,83.44Z"/><path class="cls-12" d="M50.94,76.5a1,1,0,0,1,.35.14c1.68,1,7.22,6,9.14,6.83a6.41,6.41,0,0,0-.82,1.46c-3.14-1.41-10.55-5.79-10.37-7.15A1.33,1.33,0,0,1,50.94,76.5Z"/><path class="cls-15" d="M58.7,85c-2.67-1.25-9.5-4.59-10.81-6.43s-6.57-6.89-5.06-8.26c.51-.46,1.72-5,2.47-4.07a51.55,51.55,0,0,1,6.6,10.44c.66.51,1.52,1.23,2.43,2a40.38,40.38,0,0,0,5.52,4.19Z"/><path class="cls-4" d="M42,68a8.54,8.54,0,0,1-.26-4.52,6.3,6.3,0,0,0,0-3.06s1.58-1.76,2.16-.91a6.68,6.68,0,0,1,.23,3.64,5.76,5.76,0,0,0,.45,4,6.48,6.48,0,0,1,.57,3.14c-.24,4-2.53,5.91-3.22,5.54S42.92,71.58,42,68Z"/><path class="cls-12" d="M41.57,56.89a2.06,2.06,0,0,1,2.34,1.6c.08.4-.23,4-2.17,4.47-.82.2-2.33-1.24-2.36-2.19l0-1.31A2.49,2.49,0,0,1,41.57,56.89Z"/><path class="cls-4" d="M34.56,69.83a5.69,5.69,0,0,1,.82-3.59A5,5,0,0,0,36,61.7a5.78,5.78,0,0,1,1.24-5.64A3.72,3.72,0,0,1,41,54.69c1.14.48,1.14,1,1.14,1a1.92,1.92,0,0,1,1.22.21c1.37.75,1.27,3.84.19,4.8.72-3.32-1.37-3.85-1.37-3.85a3.78,3.78,0,0,0-2.17,1,5.84,5.84,0,0,0-.91,4.39c.3,1.2,1.23,2.07.25,4.9-1.41,4.07,1.53,8.4.35,8.88S35,74.32,34.56,69.83Z"/><path class="cls-12" d="M39.41,59a1.1,1.1,0,0,1,.52.2,14.76,14.76,0,0,1-.61,1.42,1.12,1.12,0,0,1-.61-.91C38.74,59.35,39.08,58.94,39.41,59Z"/></g><circle class="cls-9" cx="181.71" cy="62.98" r="12.26"/><circle class="cls-10" cx="181.71" cy="62.98" r="10.94"/><g class="cls-17"><path class="cls-13" d="M181.6,128.68l-1.28-.71s-.28.41-.5.68c-.43.51-2.5.88-2.5,1.61,0,.36.77.69,1.4.72a4.41,4.41,0,0,0,1.51-.21,3.86,3.86,0,0,0,1.36-.7,1,1,0,0,0,0-.84A.82.82,0,0,0,181.6,128.68Z"/><path class="cls-12" d="M180,127.93a.64.64,0,0,1-.13.72,2.2,2.2,0,0,0,.74.71c.28.15,1.08-.13,1.08-.13a6.22,6.22,0,0,0,0-1Z"/><path class="cls-4" d="M176.7,86.1a175.88,175.88,0,0,0,.09,24A111.64,111.64,0,0,0,180,128.21c0,.07,1.27.75,1.89.06a84.44,84.44,0,0,1,.27-18.13c1.08-7.6,2.57-14.81,3.17-15.28v-8C182.2,87,177.72,86.55,176.7,86.1Z"/><path class="cls-13" d="M191.29,128.77l-1.33-.61s-.24.43-.44.72c-.39.54-2.43,1.07-2.37,1.8,0,.36.82.63,1.45.61a3.12,3.12,0,0,0,1.5-.33c.4-.28,1.17-.56,1.29-.8a1.05,1.05,0,0,0,0-.85C191.41,128.9,191.29,128.77,191.29,128.77Z"/><path class="cls-12" d="M189.69,128.11a.91.91,0,0,1-.17.77,2.15,2.15,0,0,0,.79.65c.29.13,1.06-.22,1.06-.22a9.87,9.87,0,0,0,0-1Z"/><path class="cls-4" d="M191.69,86.74c-3.06.44-7.56.34-8.62,0a176.8,176.8,0,0,0,2,24,110.88,110.88,0,0,0,4.57,17.73c0,.07,1.31.65,1.88-.09a85,85,0,0,1-1.15-18.1C190.85,102.58,191.69,86.74,191.69,86.74Z"/><path class="cls-18" d="M190,67.83c-.53-1.67-1.52-3.44-3.53-3.85l-2.85-.53a4.81,4.81,0,0,1-2.09,1.29,1.64,1.64,0,0,1-1.2-.59,27.27,27.27,0,0,0-2.66,1,3.56,3.56,0,0,0-1.6,3.88c.92,4.48-1.09,20.33.27,20.92,1.77.77,11.67,1.27,15.46-1.23a1,1,0,0,0,.45-1C192,85.49,191.14,71.57,190,67.83Z"/><path class="cls-12" d="M178.21,89.46a8,8,0,0,0-.81.83c-.31.35-.91,1.2-1,1.26a7,7,0,0,0-.5.76,1,1,0,0,0,.1.52.26.26,0,0,0,.29.07c.1.2.55-.14.57-.09.05.23.38.22.83-.47,0,0,1.47-1.49,1.89-2A8.27,8.27,0,0,0,178.21,89.46Z"/><path class="cls-12" d="M184,79.33a1.3,1.3,0,0,0-.26.27c-1.12,1.64-4.18,8.42-5.61,9.94a6.45,6.45,0,0,1,1.34,1c2.3-2.55,7.32-9.55,6.6-10.72A1.34,1.34,0,0,0,184,79.33Z"/><path class="cls-19" d="M180.32,90.25c2-2.22,6.85-8,7.3-10.25a86.38,86.38,0,0,0,1.71-11.69c.15-3.61-3.58-3.87-3.9-2.73a77,77,0,0,0-2.24,14.32c-.4.73-.89,1.73-1.42,2.79a38.93,38.93,0,0,1-3.37,6.06Z"/><path class="cls-12" d="M167.45,87.29a10,10,0,0,0-.89.74c-.34.32-1,1.11-1.07,1.17a6.66,6.66,0,0,0-.56.71.85.85,0,0,0,0,.52.26.26,0,0,0,.28.1c.09.21.57-.09.58,0,0,.22.36.25.87-.39,0,0,1.61-1.34,2.08-1.8A8,8,0,0,0,167.45,87.29Z"/><path class="cls-12" d="M174.2,77.78a1.2,1.2,0,0,0-.29.24c-1.26,1.52-5,8-6.55,9.34a6.35,6.35,0,0,1,1.23,1.13c2.54-2.32,8.23-8.79,7.62-10A1.33,1.33,0,0,0,174.2,77.78Z"/><path class="cls-18" d="M169.48,88.28c2.15-2,7.6-7.32,8.27-9.48s4.1-8.58,2.23-9.42c-.63-.28-1.86-5.61-3.61-3.1a51.91,51.91,0,0,0-3,12c-.47.69-1.06,1.64-1.69,2.65a40.42,40.42,0,0,1-3.94,5.7Z"/><path class="cls-20" d="M180.36,61.26a7.11,7.11,0,0,1-.07,3c.14.94,2.72,1,3.49-.53a9.59,9.59,0,0,1-.3-3.7C183.26,60.22,181,61.38,180.36,61.26Z"/><path class="cls-20" d="M181.24,56.9c-1.16-.11-2.3.12-2.6,1.22-.1.39,0,4,1.84,4.56.8.26,2.39-1.07,2.48-2l.13-1.29A2.14,2.14,0,0,0,181.24,56.9Z"/><path class="cls-4" d="M184,55.17c-2.13-2.31-6.43-.74-6.75,1.73-.07.54.32,1.92,5.56,1.3a8.25,8.25,0,0,1,.6,2.93A4.23,4.23,0,0,0,184,55.17Z"/><path class="cls-20" d="M183.33,58.9a1.1,1.1,0,0,0-.56,0c0,.44.09,1.17.13,1.53a1.14,1.14,0,0,0,.86-.67A.8.8,0,0,0,183.33,58.9Z"/></g><line class="cls-21" x1="69.41" y1="31.07" x2="77.21" y2="31.07"/><polygon class="cls-13" points="79.11 31.07 76.44 32.17 77.07 31.07 76.44 29.98 79.11 31.07"/><line class="cls-21" x1="69.41" y1="39.56" x2="77.21" y2="39.56"/><polygon class="cls-13" points="79.11 39.56 76.44 40.65 77.07 39.56 76.44 38.47 79.11 39.56"/><line class="cls-21" x1="79.12" y1="93.55" x2="71.31" y2="93.55"/><polygon class="cls-13" points="69.41 93.55 72.09 92.45 71.45 93.55 72.09 94.64 69.41 93.55"/><line class="cls-21" x1="152.02" y1="39.56" x2="144.21" y2="39.56"/><polygon class="cls-13" points="142.31 39.56 144.99 38.47 144.35 39.56 144.99 40.65 142.31 39.56"/><line class="cls-21" x1="152.02" y1="31.07" x2="144.21" y2="31.07"/><polygon class="cls-13" points="142.31 31.07 144.99 29.98 144.35 31.07 144.99 32.16 142.31 31.07"/><line class="cls-21" x1="142.31" y1="93.55" x2="150.12" y2="93.55"/><polygon class="cls-13" points="152.02 93.55 149.34 94.64 149.97 93.55 149.34 92.45 152.02 93.55"/><path class="cls-22" d="M175.26,32.27v-.62h-.16a1.93,1.93,0,0,0-.62-.66,3.64,3.64,0,0,0-3.79,0,1.83,1.83,0,0,0-.62.66h-.16v.62a1.56,1.56,0,0,0,.78,1.28,3.64,3.64,0,0,0,3.79,0A1.58,1.58,0,0,0,175.26,32.27Z"/><path class="cls-23" d="M174.48,30.38a1.45,1.45,0,0,1,0,2.57,3.64,3.64,0,0,1-3.79,0,1.44,1.44,0,0,1,0-2.57A3.64,3.64,0,0,1,174.48,30.38Z"/><path class="cls-24" d="M170,32.27a1.16,1.16,0,0,0,.12.51V32.4a1.15,1.15,0,0,1-.12-.25Z"/><path class="cls-24" d="M170.27,32.66v.41l.14.15V32.8A1.85,1.85,0,0,1,170.27,32.66Z"/><path class="cls-24" d="M170.59,33v.43l.13.1v-.43l0,0Z"/><path class="cls-24" d="M170.9,33.6l.14.07v-.44l-.14-.07Z"/><path class="cls-24" d="M171.22,33.75l.14,0v-.44l-.14,0Z"/><path class="cls-24" d="M171.54,33.86l.14,0v-.45l-.14,0Z"/><path class="cls-24" d="M171.86,33.94l.14,0v-.45l-.14,0Z"/><path class="cls-24" d="M172.18,34l.14,0v-.45h-.14Z"/><path class="cls-24" d="M172.5,33.56V34h.13v-.44Z"/><path class="cls-24" d="M172.81,34H173v-.45h-.14Z"/><path class="cls-24" d="M173.13,34l.14,0V33.5l-.14,0Z"/><path class="cls-24" d="M173.45,33.91l.14,0v-.44l-.14,0Z"/><path class="cls-24" d="M173.77,33.82l.14-.06v-.44l-.14,0Z"/><path class="cls-24" d="M174.09,33.69a.61.61,0,0,1,.14-.07v-.44a.61.61,0,0,0-.14.07Z"/><path class="cls-24" d="M174.41,33.07v.44l0,0,.1-.07V33l-.06.05Z"/><path class="cls-24" d="M174.72,33.26l.14-.15V32.7l-.14.14Z"/><path class="cls-24" d="M175,32.47v.38a1.19,1.19,0,0,0,.14-.4v-.26A1,1,0,0,1,175,32.47Z"/><path class="cls-25" d="M174.8,31.39v-.61h-.16a1.93,1.93,0,0,0-.62-.66,3.64,3.64,0,0,0-3.79,0,1.87,1.87,0,0,0-.63.66h-.16v.62a1.57,1.57,0,0,0,.79,1.28,3.64,3.64,0,0,0,3.79,0A1.58,1.58,0,0,0,174.8,31.39Z"/><path class="cls-23" d="M174,29.51a1.45,1.45,0,0,1,0,2.57,3.68,3.68,0,0,1-3.79,0,1.44,1.44,0,0,1,0-2.57A3.64,3.64,0,0,1,174,29.51Z"/><path class="cls-24" d="M169.51,31.4a1.25,1.25,0,0,0,.11.5v-.37a1.89,1.89,0,0,1-.11-.25Z"/><path class="cls-24" d="M169.81,31.79v.41l.13.15v-.42Z"/><path class="cls-24" d="M170.12,32.08v.43l.14.1v-.43l0,0Z"/><path class="cls-24" d="M170.44,32.72l.14.08v-.44l-.14-.07Z"/><path class="cls-24" d="M170.76,32.88l.14,0v-.44l-.14-.05Z"/><path class="cls-24" d="M171.08,33l.14,0v-.45l-.14,0Z"/><path class="cls-24" d="M171.4,33.07l.13,0v-.45l-.13,0Z"/><path class="cls-24" d="M171.72,33.11h.13v-.44h-.13Z"/><path class="cls-24" d="M172,32.69v.44h.14v-.44Z"/><path class="cls-24" d="M172.35,33.13h.14v-.45h-.14Z"/><path class="cls-24" d="M172.67,33.09l.14,0v-.44l-.14,0Z"/><path class="cls-24" d="M173,33l.14,0v-.44l-.14,0Z"/><path class="cls-24" d="M173.31,32.94l.13,0v-.44l-.13,0Z"/><path class="cls-24" d="M173.62,32.81l.14-.06v-.44l-.14.06Z"/><path class="cls-24" d="M173.94,32.2v.44l0,0,.1-.07v-.43l-.06,0Z"/><path class="cls-24" d="M174.26,32.39l.14-.15v-.41l-.14.13Z"/><path class="cls-24" d="M174.58,31.59V32a1.28,1.28,0,0,0,.14-.4v-.26A1.74,1.74,0,0,1,174.58,31.59Z"/><path class="cls-26" d="M175.26,30.47v-.61h-.16a1.93,1.93,0,0,0-.62-.66,3.64,3.64,0,0,0-3.79,0,1.83,1.83,0,0,0-.62.66h-.16v.62a1.58,1.58,0,0,0,.78,1.28,3.64,3.64,0,0,0,3.79,0A1.59,1.59,0,0,0,175.26,30.47Z"/><path class="cls-23" d="M174.48,28.59a1.44,1.44,0,0,1,0,2.56,3.64,3.64,0,0,1-3.79,0,1.43,1.43,0,0,1,0-2.56A3.64,3.64,0,0,1,174.48,28.59Z"/><path class="cls-24" d="M170,30.48a1.11,1.11,0,0,0,.12.5v-.37a1.42,1.42,0,0,1-.12-.25Z"/><path class="cls-24" d="M170.27,30.86v.41a1.07,1.07,0,0,0,.14.16V31Z"/><path class="cls-24" d="M170.59,31.16v.43l.13.1v-.44l0,0Z"/><path class="cls-24" d="M170.9,31.8l.14.07v-.44l-.14-.07Z"/><path class="cls-24" d="M171.22,32l.14.06v-.45l-.14,0Z"/><path class="cls-24" d="M171.54,32.07l.14,0v-.44l-.14,0Z"/><path class="cls-24" d="M171.86,32.14l.14,0v-.45l-.14,0Z"/><path class="cls-24" d="M172.18,32.19h.14v-.45h-.14Z"/><path class="cls-24" d="M172.5,31.76v.45h.13v-.45Z"/><path class="cls-24" d="M172.81,32.2H173v-.44h-.14Z"/><path class="cls-24" d="M173.13,32.17l.14,0V31.7l-.14,0Z"/><path class="cls-24" d="M173.45,32.11l.14,0v-.45l-.14,0Z"/><path class="cls-24" d="M173.77,32l.14-.05v-.44l-.14,0Z"/><path class="cls-24" d="M174.09,31.89l.14-.07v-.44l-.14.07Z"/><path class="cls-24" d="M174.41,31.28v.43l0,0,.1-.07v-.43l-.06,0Z"/><path class="cls-24" d="M174.72,31.46a.93.93,0,0,0,.14-.14V30.9a.93.93,0,0,1-.14.14Z"/><path class="cls-24" d="M175,30.67v.39a1.25,1.25,0,0,0,.14-.41V30.4A1.16,1.16,0,0,1,175,30.67Z"/><path class="cls-27" d="M52.56,32.27v-.62h-.17a1.75,1.75,0,0,0-.62-.66A3.64,3.64,0,0,0,48,31a1.93,1.93,0,0,0-.62.66H47.2v.62A1.56,1.56,0,0,0,48,33.55a3.64,3.64,0,0,0,3.79,0A1.57,1.57,0,0,0,52.56,32.27Z"/><path class="cls-23" d="M51.77,30.38a1.44,1.44,0,0,1,0,2.57A3.64,3.64,0,0,1,48,33a1.45,1.45,0,0,1,0-2.57A3.64,3.64,0,0,1,51.77,30.38Z"/><path class="cls-24" d="M47.27,32.27a1.3,1.3,0,0,0,.11.51V32.4a1.12,1.12,0,0,1-.11-.25Z"/><path class="cls-24" d="M47.56,32.66v.41l.14.15V32.8A1.85,1.85,0,0,1,47.56,32.66Z"/><path class="cls-24" d="M47.88,33v.43a.71.71,0,0,0,.14.1v-.43l0,0Z"/><path class="cls-24" d="M48.2,33.6l.14.07v-.44l-.14-.07Z"/><path class="cls-24" d="M48.52,33.75l.13,0v-.44l-.13,0Z"/><path class="cls-24" d="M48.83,33.86l.14,0v-.45l-.14,0Z"/><path class="cls-24" d="M49.15,33.94l.14,0v-.45l-.14,0Z"/><path class="cls-24" d="M49.47,34l.14,0v-.45h-.14Z"/><path class="cls-24" d="M49.79,33.56V34h.14v-.44Z"/><path class="cls-24" d="M50.11,34h.14v-.45h-.14Z"/><path class="cls-24" d="M50.43,34l.13,0V33.5l-.13,0Z"/><path class="cls-24" d="M50.74,33.91l.14,0v-.44l-.14,0Z"/><path class="cls-24" d="M51.06,33.82l.14-.06v-.44l-.14,0Z"/><path class="cls-24" d="M51.38,33.69l.14-.07v-.44l-.14.07Z"/><path class="cls-24" d="M51.7,33.07v.44l0,0,.1-.07V33l-.07.05Z"/><path class="cls-24" d="M52,33.26l.13-.15V32.7l-.13.14Z"/><path class="cls-24" d="M52.34,32.47v.38a1.17,1.17,0,0,0,.13-.4v-.26A1.43,1.43,0,0,1,52.34,32.47Z"/><path class="cls-28" d="M52.09,31.39v-.61h-.16a1.93,1.93,0,0,0-.62-.66,3.64,3.64,0,0,0-3.79,0,1.83,1.83,0,0,0-.62.66h-.16v.62a1.58,1.58,0,0,0,.78,1.28,3.64,3.64,0,0,0,3.79,0A1.56,1.56,0,0,0,52.09,31.39Z"/><path class="cls-23" d="M51.31,29.51a1.45,1.45,0,0,1,0,2.57,3.68,3.68,0,0,1-3.79,0,1.44,1.44,0,0,1,0-2.57A3.64,3.64,0,0,1,51.31,29.51Z"/><path class="cls-24" d="M46.8,31.4a1.11,1.11,0,0,0,.12.5v-.37a1.15,1.15,0,0,1-.12-.25Z"/><path class="cls-24" d="M47.1,31.79v.41l.14.15v-.42Z"/><path class="cls-24" d="M47.42,32.08v.43l.13.1v-.43l0,0Z"/><path class="cls-24" d="M47.74,32.72l.13.08v-.44l-.13-.07Z"/><path class="cls-24" d="M48.05,32.88l.14,0v-.44l-.14-.05Z"/><path class="cls-24" d="M48.37,33l.14,0v-.45l-.14,0Z"/><path class="cls-24" d="M48.69,33.07l.14,0v-.45l-.14,0Z"/><path class="cls-24" d="M49,33.11h.14v-.44H49Z"/><path class="cls-24" d="M49.33,32.69v.44h.13v-.44Z"/><path class="cls-24" d="M49.64,33.13h.14v-.45h-.14Z"/><path class="cls-24" d="M50,33.09l.14,0v-.44l-.14,0Z"/><path class="cls-24" d="M50.28,33l.14,0v-.44l-.14,0Z"/><path class="cls-24" d="M50.6,32.94l.14,0v-.44l-.14,0Z"/><path class="cls-24" d="M50.92,32.81l.14-.06v-.44l-.14.06Z"/><path class="cls-24" d="M51.24,32.2v.44l0,0,.1-.07v-.43l-.06,0Z"/><path class="cls-24" d="M51.55,32.39l.14-.15v-.41l-.14.13Z"/><path class="cls-24" d="M51.87,31.59V32a1.28,1.28,0,0,0,.14-.4v-.26A1.16,1.16,0,0,1,51.87,31.59Z"/><path class="cls-29" d="M52.56,30.47v-.61h-.17a1.75,1.75,0,0,0-.62-.66,3.64,3.64,0,0,0-3.79,0,1.93,1.93,0,0,0-.62.66H47.2v.62A1.58,1.58,0,0,0,48,31.76a3.64,3.64,0,0,0,3.79,0A1.58,1.58,0,0,0,52.56,30.47Z"/><path class="cls-23" d="M51.77,28.59a1.43,1.43,0,0,1,0,2.56,3.64,3.64,0,0,1-3.79,0,1.44,1.44,0,0,1,0-2.56A3.64,3.64,0,0,1,51.77,28.59Z"/><path class="cls-24" d="M47.27,30.48a1.25,1.25,0,0,0,.11.5v-.37a1.36,1.36,0,0,1-.11-.25Z"/><path class="cls-24" d="M47.56,30.86v.41a1.07,1.07,0,0,0,.14.16V31Z"/><path class="cls-24" d="M47.88,31.16v.43l.14.1v-.44l0,0Z"/><path class="cls-24" d="M48.2,31.8l.14.07v-.44a.61.61,0,0,1-.14-.07Z"/><path class="cls-24" d="M48.52,32l.13.06v-.45l-.13,0Z"/><path class="cls-24" d="M48.83,32.07l.14,0v-.44l-.14,0Z"/><path class="cls-24" d="M49.15,32.14l.14,0v-.45l-.14,0Z"/><path class="cls-24" d="M49.47,32.19h.14v-.45h-.14Z"/><path class="cls-24" d="M49.79,31.76v.45h.14v-.45Z"/><path class="cls-24" d="M50.11,32.2h.14v-.44h-.14Z"/><path class="cls-24" d="M50.43,32.17l.13,0V31.7l-.13,0Z"/><path class="cls-24" d="M50.74,32.11l.14,0v-.45l-.14,0Z"/><path class="cls-24" d="M51.06,32,51.2,32v-.44l-.14,0Z"/><path class="cls-24" d="M51.38,31.89l.14-.07v-.44l-.14.07Z"/><path class="cls-24" d="M51.7,31.28v.43l0,0,.1-.07v-.43l-.07,0Z"/><path class="cls-24" d="M52,31.46a.86.86,0,0,0,.13-.14V30.9A.86.86,0,0,1,52,31Z"/><path class="cls-24" d="M52.34,30.67v.39a1.23,1.23,0,0,0,.13-.41V30.4A1.66,1.66,0,0,1,52.34,30.67Z"/><circle class="cls-13" cx="222.05" cy="54" r="14.68"/><g class="cls-30"><polygon class="cls-4" points="225.83 48.44 236.97 59.58 229.26 70.88 227.75 69.44 217.45 59.15 223.62 58.03 219.63 54.04 221.78 53.07 218.49 49.78 218.83 47.91 222.04 47.43 225.83 48.44"/></g><path class="cls-14" d="M218.07,56.84a6.89,6.89,0,0,0,3,.8c1.58,0,2.38-.76,2.38-1.72,0-1.3-1.28-1.88-2.6-1.88h-1.24V51.86h1.18c1,0,2.3-.4,2.3-1.5,0-.78-.62-1.36-1.92-1.36a5.85,5.85,0,0,0-2.71.78l-.62-2.2a8.13,8.13,0,0,1,4-1c2.76,0,4.3,1.46,4.3,3.24a3.1,3.1,0,0,1-2.38,3v0a3.23,3.23,0,0,1,2.82,3.18c0,2.29-2,4-5.32,4a8,8,0,0,1-3.87-.9Z"/></g></g></svg>