<svg xmlns="http://www.w3.org/2000/svg" xmlns:xlink="http://www.w3.org/1999/xlink" viewBox="0 0 237.83 108"><defs><style>.cls-1{fill:none;}.cls-2{fill:#f5f6fa;}.cls-10,.cls-11,.cls-3,.cls-4,.cls-5,.cls-6,.cls-7,.cls-8,.cls-9{stroke:#b1aec0;stroke-width:0.16px;}.cls-3{fill:url(#linear-gradient);}.cls-4{fill:url(#linear-gradient-2);}.cls-5{fill:url(#linear-gradient-3);}.cls-6{fill:url(#linear-gradient-4);}.cls-7{fill:url(#linear-gradient-5);}.cls-8{fill:url(#linear-gradient-6);}.cls-14,.cls-9{fill:#0e9de5;}.cls-10{fill:url(#linear-gradient-7);}.cls-11{fill:url(#linear-gradient-8);}.cls-12{fill:#8c8a99;}.cls-13{fill:#fff;}.cls-15{clip-path:url(#clip-path);}.cls-16{fill:#041742;}</style><linearGradient id="linear-gradient" x1="88.63" y1="53.44" x2="133.5" y2="53.44" gradientUnits="userSpaceOnUse"><stop offset="0" stop-color="#fff"/><stop offset="1" stop-color="#f5f6fa"/></linearGradient><linearGradient id="linear-gradient-2" x1="62.22" y1="21.47" x2="100.93" y2="21.47" xlink:href="#linear-gradient"/><linearGradient id="linear-gradient-3" x1="121.07" y1="21.47" x2="159.78" y2="21.47" xlink:href="#linear-gradient"/><linearGradient id="linear-gradient-4" x1="62.22" y1="53.44" x2="95.97" y2="53.44" xlink:href="#linear-gradient"/><linearGradient id="linear-gradient-5" x1="126.03" y1="53.44" x2="159.78" y2="53.44" xlink:href="#linear-gradient"/><linearGradient id="linear-gradient-6" x1="93.6" y1="25.68" x2="128.53" y2="25.68" xlink:href="#linear-gradient"/><linearGradient id="linear-gradient-7" x1="62.22" y1="85.28" x2="100.93" y2="85.28" xlink:href="#linear-gradient"/><linearGradient id="linear-gradient-8" x1="93.47" y1="81.08" x2="128.4" y2="81.08" xlink:href="#linear-gradient"/><clipPath id="clip-path"><circle class="cls-1" cx="222.66" cy="54" r="14.68"/></clipPath></defs><title>VT</title><g id="Layer_2" data-name="Layer 2"><g id="content"><rect class="cls-2" width="222" height="108"/><path id="path5043-0-6-9-84-1-9-9-4" class="cls-3" d="M94.78,69.72s2.67-8.65,0-11.32c-2.33-2.34-2.06,2.33-4.4,0s-2.33-7.58,0-9.91,2.07,2.33,4.4,0c2.67-2.67,0-11.33,0-11.33s8.66-2.67,11.33,0c2.34,2.34-2.34,5.51,0,7.84s7.57,2.34,9.91,0-2.34-5.5,0-7.84c2.67-2.67,11.33,0,11.33,0s-2.67,8.66,0,11.33c2.33,2.33,2.06-2.34,4.4,0s2.33,7.57,0,9.91-2.07-2.34-4.4,0c-2.67,2.67,0,11.32,0,11.32s-8.66,2.67-11.33,0c-2.34-2.33,2.34-5.5,0-7.84s-7.57-2.34-9.91,0,2.34,5.51,0,7.84C103.44,72.39,94.78,69.72,94.78,69.72Z"/><path id="path5043-4-6-5-1-0-2" class="cls-4" d="M62.22,4.6H94.78s-2.67,8.65,0,11.32c2.34,2.34,2.07-2.33,4.4,0s2.34,7.58,0,9.91-2.06-2.33-4.4,0c-2.67,2.67,0,11.33,0,11.33s-8.65,2.67-11.32,0c-2.34-2.34,2.33-4.13,0-6.47s-7.58-2.33-9.91,0,2.33,4.13,0,6.47c-2.67,2.67-11.33,0-11.33,0Z"/><path id="path5043-4-6-5-1-0-2-2" data-name="path5043-4-6-5-1-0-2" class="cls-5" d="M159.78,4.6H127.22s2.67,8.65,0,11.32c-2.34,2.34-2.07-2.33-4.4,0s-2.34,7.58,0,9.91,2.06-2.33,4.4,0c2.67,2.67,0,11.33,0,11.33s8.65,2.67,11.32,0c2.34-2.34-2.33-4.13,0-6.47s7.58-2.33,9.91,0-2.33,4.13,0,6.47c2.67,2.67,11.33,0,11.33,0Z"/><path id="path5043-3-9-23-3-0-3-6" class="cls-6" d="M62.22,37.16s8.66,2.67,11.33,0c2.33-2.34-2.34-4.13,0-6.47s7.57-2.33,9.91,0-2.34,4.13,0,6.47c2.67,2.67,11.32,0,11.32,0s2.67,8.66,0,11.33c-2.33,2.33-2.06-2.34-4.4,0s-2.33,7.57,0,9.91,2.07-2.34,4.4,0c2.67,2.67,0,11.32,0,11.32s-8.65-2.67-11.32,0c-2.34,2.34,2.33,4.13,0,6.47s-7.58,2.34-9.91,0,2.33-4.13,0-6.47c-2.67-2.67-11.33,0-11.33,0V37.16Z"/><path id="path5043-3-9-23-3-0-3-6-2" data-name="path5043-3-9-23-3-0-3-6" class="cls-7" d="M159.78,69.72s-8.66-2.67-11.33,0c-2.33,2.34,2.34,4.13,0,6.47s-7.57,2.34-9.91,0,2.34-4.13,0-6.47c-2.67-2.67-11.32,0-11.32,0s-2.67-8.65,0-11.32c2.33-2.34,2.06,2.33,4.4,0s2.33-7.58,0-9.91-2.07,2.33-4.4,0c-2.67-2.67,0-11.33,0-11.33s8.65,2.67,11.32,0c2.34-2.34-2.33-4.13,0-6.47s7.58-2.33,9.91,0-2.33,4.13,0,6.47c2.67,2.67,11.33,0,11.33,0V69.72Z"/><path id="path5043-5-82-0-1-4-0-2" class="cls-8" d="M127.35,4.6s2.67,8.65,0,11.32c-2.34,2.34-2.07-2.33-4.4,0s-2.34,7.58,0,9.91,2.06-2.33,4.4,0c2.67,2.67,0,11.33,0,11.33s-8.66-2.67-11.33,0c-2.34,2.34,2.34,5.51,0,7.84s-7.57,2.34-9.91,0,2.34-5.5,0-7.84c-2.67-2.67-11.33,0-11.33,0s-2.67-8.66,0-11.33c2.34-2.33,2.07,2.34,4.4,0s2.34-7.57,0-9.91-2.06,2.34-4.4,0c-2.67-2.67,0-11.32,0-11.32Z"/><path id="path5043-4-6-5-1-0-2-3" data-name="path5043-4-6-5-1-0-2" class="cls-9" d="M159.78,102.16H127.22s2.67-8.66,0-11.33c-2.34-2.33-2.07,2.34-4.4,0s-2.34-7.57,0-9.91,2.06,2.34,4.4,0c2.67-2.67,0-11.33,0-11.33s8.65-2.66,11.32,0c2.34,2.34-2.33,4.14,0,6.47s7.58,2.34,9.91,0-2.33-4.13,0-6.47c2.67-2.66,11.33,0,11.33,0Z"/><path id="path5043-4-6-5-1-0-2-4" data-name="path5043-4-6-5-1-0-2" class="cls-10" d="M62.22,102.16H94.78s-2.67-8.66,0-11.33c2.34-2.33,2.07,2.34,4.4,0s2.34-7.57,0-9.91-2.06,2.34-4.4,0c-2.67-2.67,0-11.33,0-11.33s-8.65-2.66-11.32,0c-2.34,2.34,2.33,4.14,0,6.47s-7.58,2.34-9.91,0,2.33-4.13,0-6.47c-2.67-2.66-11.33,0-11.33,0Z"/><path id="path5043-5-82-0-1-4-0-2-2" data-name="path5043-5-82-0-1-4-0-2" class="cls-11" d="M94.65,102.16s-2.67-8.66,0-11.33c2.34-2.33,2.07,2.34,4.4,0s2.34-7.57,0-9.91-2.06,2.34-4.4,0c-2.67-2.67,0-11.33,0-11.33s8.66,2.67,11.33,0c2.34-2.33-2.34-5.5,0-7.84s7.57-2.34,9.91,0-2.34,5.51,0,7.84c2.67,2.67,11.33,0,11.33,0s2.67,8.66,0,11.33c-2.34,2.34-2.07-2.33-4.4,0s-2.34,7.58,0,9.91,2.06-2.33,4.4,0c2.67,2.67,0,11.33,0,11.33Z"/><path class="cls-12" d="M74.22,16.45V14.58h-.67v-.43h1.84v.43h-.67v1.87Z"/><path class="cls-12" d="M75.85,15.3a1.17,1.17,0,0,1,1.22-1.19,1.08,1.08,0,0,1,1,.56l-.43.21a.62.62,0,0,0-.54-.33.76.76,0,0,0,0,1.51.61.61,0,0,0,.54-.34l.43.21a1.08,1.08,0,0,1-1,.56A1.16,1.16,0,0,1,75.85,15.3Z"/><path class="cls-12" d="M78.67,16.45v-2.3h1.08a.74.74,0,1,1,0,1.48h-.59v.82ZM80,14.89a.31.31,0,0,0-.34-.31h-.52v.62h.52A.31.31,0,0,0,80,14.89Z"/><path class="cls-12" d="M69.5,19.24v-.77h-.22v-.25h.22v-.37h.29v.37h.28v.25h-.28v.7c0,.09,0,.16.13.16a.2.2,0,0,0,.13,0l.07.22a.38.38,0,0,1-.27.08A.31.31,0,0,1,69.5,19.24Z"/><path class="cls-12" d="M70.33,19.55V18.22h.29v.19a.59.59,0,0,1,.43-.22v.28H71a.45.45,0,0,0-.34.17v.91Z"/><path class="cls-12" d="M72.1,19.55v-.14a.58.58,0,0,1-.43.17.44.44,0,0,1-.47-.44.43.43,0,0,1,.47-.43.56.56,0,0,1,.43.17v-.2c0-.15-.13-.25-.32-.25a.57.57,0,0,0-.39.17l-.12-.2a.79.79,0,0,1,.56-.22c.3,0,.56.13.56.49v.88Zm0-.3V19a.39.39,0,0,0-.32-.13.26.26,0,0,0-.29.24c0,.14.13.23.29.23A.39.39,0,0,0,72.1,19.25Z"/><path class="cls-12" d="M73.66,19.55v-.83c0-.21-.11-.28-.27-.28a.43.43,0,0,0-.34.18v.93h-.29V18.22h.29v.18a.62.62,0,0,1,.47-.22.39.39,0,0,1,.43.43v.94Z"/><path class="cls-12" d="M74.2,19.38l.14-.21a.71.71,0,0,0,.45.18c.17,0,.26-.07.26-.18,0-.26-.8-.07-.8-.58,0-.22.18-.41.52-.41a.75.75,0,0,1,.52.19l-.12.21a.51.51,0,0,0-.4-.16c-.15,0-.24.06-.24.16s.8.06.8.59c0,.23-.19.41-.55.41A.85.85,0,0,1,74.2,19.38Z"/><path class="cls-12" d="M77.26,19.55v-.87a.21.21,0,0,0-.22-.24.4.4,0,0,0-.31.18v.93h-.29v-.87c0-.14-.06-.24-.22-.24a.4.4,0,0,0-.31.18v.93h-.29V18.22h.29v.18a.6.6,0,0,1,.44-.22.34.34,0,0,1,.36.25.57.57,0,0,1,.45-.25.36.36,0,0,1,.39.41v1Z"/><path class="cls-12" d="M77.88,17.87a.18.18,0,0,1,.36,0,.18.18,0,0,1-.36,0Zm0,1.68V18.22h.29v1.33Z"/><path class="cls-12" d="M78.46,19.38l.14-.21a.71.71,0,0,0,.45.18c.17,0,.26-.07.26-.18,0-.26-.8-.07-.8-.58,0-.22.18-.41.52-.41a.75.75,0,0,1,.52.19l-.12.21a.51.51,0,0,0-.4-.16c-.15,0-.25.06-.25.16s.81.06.81.59c0,.23-.19.41-.55.41A.85.85,0,0,1,78.46,19.38Z"/><path class="cls-12" d="M79.77,19.38l.13-.21a.71.71,0,0,0,.45.18c.18,0,.26-.07.26-.18,0-.26-.8-.07-.8-.58,0-.22.18-.41.52-.41a.75.75,0,0,1,.52.19l-.12.21a.51.51,0,0,0-.4-.16c-.15,0-.24.06-.24.16s.8.06.8.59c0,.23-.19.41-.55.41A.81.81,0,0,1,79.77,19.38Z"/><path class="cls-12" d="M81.15,17.87a.18.18,0,1,1,.35,0,.18.18,0,0,1-.17.18A.18.18,0,0,1,81.15,17.87Zm0,1.68V18.22h.29v1.33Z"/><path class="cls-12" d="M81.76,18.88a.69.69,0,1,1,1.38,0,.69.69,0,1,1-1.38,0Zm1.07,0a.4.4,0,0,0-.38-.44.45.45,0,1,0,.38.44Z"/><path class="cls-12" d="M84.33,19.55v-.83c0-.21-.11-.28-.27-.28a.43.43,0,0,0-.34.18v.93h-.3V18.22h.3v.18a.58.58,0,0,1,.46-.22.39.39,0,0,1,.43.43v.94Z"/><path class="cls-12" d="M67.39,22a.67.67,0,0,1,.69-.7.6.6,0,0,1,.51.24l-.19.18a.36.36,0,0,0-.31-.16.4.4,0,0,0-.4.44.41.41,0,0,0,.4.45.38.38,0,0,0,.31-.16l.19.18a.62.62,0,0,1-.51.23A.66.66,0,0,1,67.39,22Z"/><path class="cls-12" d="M68.76,22a.69.69,0,1,1,.68.7A.67.67,0,0,1,68.76,22Zm1.07,0a.39.39,0,1,0-.39.45A.4.4,0,0,0,69.83,22Z"/><path class="cls-12" d="M71.32,22.65v-.83c0-.21-.11-.28-.27-.28a.43.43,0,0,0-.34.18v.93h-.29V21.32h.29v.18a.62.62,0,0,1,.47-.22.39.39,0,0,1,.43.43v.94Z"/><path class="cls-12" d="M72,22.34v-.77h-.22v-.25H72V21h.29v.37h.27v.25h-.27v.7c0,.09,0,.16.13.16a.25.25,0,0,0,.13-.05l.06.22a.36.36,0,0,1-.27.08A.31.31,0,0,1,72,22.34Z"/><path class="cls-12" d="M72.86,22.65V21.32h.29v.19a.59.59,0,0,1,.43-.22v.28h-.09a.47.47,0,0,0-.34.17v.91Z"/><path class="cls-12" d="M73.73,22a.69.69,0,1,1,.69.7A.67.67,0,0,1,73.73,22Zm1.07,0a.4.4,0,0,0-.38-.44.45.45,0,1,0,.38.44Z"/><path class="cls-12" d="M75.39,22.65V20.81h.29v1.84Z"/><path class="cls-12" d="M77.06,22.47v.69h-.29V21.32h.29v.18a.54.54,0,0,1,.42-.22c.35,0,.6.26.6.7s-.25.7-.6.7A.51.51,0,0,1,77.06,22.47Zm.71-.49a.39.39,0,0,0-.37-.44.41.41,0,0,0-.34.18v.53a.44.44,0,0,0,.34.18C77.63,22.43,77.77,22.24,77.77,22Z"/><path class="cls-12" d="M78.36,22.65V21.32h.29v.19a.59.59,0,0,1,.43-.22v.28H79a.47.47,0,0,0-.34.17v.91Z"/><path class="cls-12" d="M79.23,22a.69.69,0,1,1,1.37,0,.69.69,0,1,1-1.37,0Zm1.07,0a.4.4,0,0,0-.38-.44.45.45,0,1,0,.38.44Z"/><path class="cls-12" d="M81,22.34v-.77h-.22v-.25H81V21h.29v.37h.27v.25h-.27v.7c0,.09.05.16.13.16a.22.22,0,0,0,.13-.05l.07.22a.41.41,0,0,1-.28.08A.31.31,0,0,1,81,22.34Z"/><path class="cls-12" d="M81.69,22a.69.69,0,1,1,.68.7A.67.67,0,0,1,81.69,22Zm1.07,0a.39.39,0,1,0-.39.45A.4.4,0,0,0,82.76,22Z"/><path class="cls-12" d="M83.27,22a.67.67,0,0,1,.69-.7.58.58,0,0,1,.51.24l-.19.18a.36.36,0,0,0-.31-.16.4.4,0,0,0-.4.44.41.41,0,0,0,.4.45.38.38,0,0,0,.31-.16l.19.18a.61.61,0,0,1-.51.23A.66.66,0,0,1,83.27,22Z"/><path class="cls-12" d="M84.64,22a.69.69,0,1,1,.68.7A.67.67,0,0,1,84.64,22Zm1.07,0a.39.39,0,1,0-.39.45A.4.4,0,0,0,85.71,22Z"/><path class="cls-12" d="M86.3,22.65V20.81h.29v1.84Z"/><path class="cls-12" d="M109.57,16.45v-2.3h.49v2.3Z"/><path class="cls-12" d="M110.86,16.45v-2.3h1.08a.74.74,0,1,1,0,1.48h-.59v.82Zm1.35-1.56a.31.31,0,0,0-.34-.31h-.52v.62h.52A.31.31,0,0,0,112.21,14.89Z"/><path class="cls-12" d="M106.43,17.87a.18.18,0,1,1,.36,0,.18.18,0,1,1-.36,0Zm0,1.68V18.22h.29v1.33Z"/><path class="cls-12" d="M108,19.55v-.83c0-.21-.1-.28-.27-.28a.44.44,0,0,0-.34.18v.93h-.29V18.22h.29v.18a.62.62,0,0,1,.47-.22.39.39,0,0,1,.43.43v.94Z"/><path class="cls-12" d="M108.75,19.24v-.77h-.22v-.25h.22v-.37H109v.37h.27v.25H109v.7c0,.09,0,.16.13.16a.22.22,0,0,0,.13,0l.07.22a.41.41,0,0,1-.28.08A.31.31,0,0,1,108.75,19.24Z"/><path class="cls-12" d="M109.49,18.88a.68.68,0,0,1,.68-.7.66.66,0,0,1,.65.73V19h-1a.41.41,0,0,0,.43.37.61.61,0,0,0,.38-.15l.13.19a.76.76,0,0,1-.54.19A.67.67,0,0,1,109.49,18.88Zm.68-.46a.37.37,0,0,0-.38.35h.75A.35.35,0,0,0,110.17,18.42Z"/><path class="cls-12" d="M111.11,19.55V18.22h.29v.19a.59.59,0,0,1,.43-.22v.28h-.09a.45.45,0,0,0-.34.17v.91Z"/><path class="cls-12" d="M113,19.55v-.83c0-.21-.1-.28-.27-.28a.46.46,0,0,0-.34.18v.93h-.29V18.22h.29v.18a.62.62,0,0,1,.47-.22.39.39,0,0,1,.43.43v.94Z"/><path class="cls-12" d="M113.54,18.88a.68.68,0,0,1,.68-.7.67.67,0,0,1,.66.73V19h-1a.42.42,0,0,0,.43.37.61.61,0,0,0,.38-.15l.13.19a.76.76,0,0,1-.54.19A.67.67,0,0,1,113.54,18.88Zm.68-.46a.37.37,0,0,0-.38.35h.75A.35.35,0,0,0,114.22,18.42Z"/><path class="cls-12" d="M115.22,19.24v-.77H115v-.25h.22v-.37h.29v.37h.27v.25h-.27v.7c0,.09,0,.16.12.16a.2.2,0,0,0,.13,0l.07.22a.38.38,0,0,1-.27.08A.31.31,0,0,1,115.22,19.24Z"/><path class="cls-12" d="M106.44,22.47v.69h-.29V21.32h.29v.18a.55.55,0,0,1,.43-.22c.35,0,.59.26.59.7s-.24.7-.59.7A.53.53,0,0,1,106.44,22.47Zm.72-.49a.4.4,0,0,0-.37-.44.45.45,0,0,0-.35.18v.53a.48.48,0,0,0,.35.18C107,22.43,107.16,22.24,107.16,22Z"/><path class="cls-12" d="M107.75,22.65V21.32H108v.19a.59.59,0,0,1,.43-.22v.28h-.09a.45.45,0,0,0-.34.17v.91Z"/><path class="cls-12" d="M108.62,22a.69.69,0,1,1,.68.7A.67.67,0,0,1,108.62,22Zm1.07,0a.39.39,0,1,0-.39.45A.4.4,0,0,0,109.69,22Z"/><path class="cls-12" d="M110.34,22.34v-.77h-.22v-.25h.22V21h.29v.37h.27v.25h-.27v.7c0,.09,0,.16.13.16a.25.25,0,0,0,.13-.05l.06.22a.36.36,0,0,1-.27.08A.31.31,0,0,1,110.34,22.34Z"/><path class="cls-12" d="M111.08,22a.69.69,0,1,1,.68.7A.67.67,0,0,1,111.08,22Zm1.07,0a.39.39,0,1,0-.39.45A.4.4,0,0,0,112.15,22Z"/><path class="cls-12" d="M112.66,22a.67.67,0,0,1,.69-.7.6.6,0,0,1,.51.24l-.19.18a.36.36,0,0,0-.31-.16.4.4,0,0,0-.4.44.41.41,0,0,0,.4.45.38.38,0,0,0,.31-.16l.19.18a.62.62,0,0,1-.51.23A.66.66,0,0,1,112.66,22Z"/><path class="cls-12" d="M114,22a.69.69,0,1,1,.68.7A.67.67,0,0,1,114,22Zm1.07,0a.4.4,0,0,0-.39-.44.45.45,0,0,0,0,.89A.41.41,0,0,0,115.1,22Z"/><path class="cls-12" d="M115.69,22.65V20.81H116v1.84Z"/><path class="cls-12" d="M141.45,16.45v-2.3h1.63v.43h-1.14v.49h1.11v.43h-1.11v.95Z"/><path class="cls-12" d="M144.29,16.45V14.58h-.67v-.43h1.84v.43h-.67v1.87Z"/><path class="cls-12" d="M146.11,16.45v-2.3h1.08a.74.74,0,1,1,0,1.48h-.59v.82Zm1.35-1.56a.31.31,0,0,0-.34-.31h-.52v.62h.52A.31.31,0,0,0,147.46,14.89Z"/><path class="cls-12" d="M137.92,19.55V18.47h-.22v-.25h.22v-.08a.41.41,0,0,1,.42-.46.52.52,0,0,1,.23.05l-.06.22a.21.21,0,0,0-.12,0c-.11,0-.18.07-.18.22v.08h.27v.25h-.27v1.08Zm.74-1.68a.19.19,0,0,1,.18-.18.19.19,0,0,1,.18.18.18.18,0,0,1-.18.18A.19.19,0,0,1,138.66,17.87Zm0,1.68V18.22H139v1.33Z"/><path class="cls-12" d="M139.36,19.55V17.71h.29v1.84Z"/><path class="cls-12" d="M139.94,18.88a.68.68,0,0,1,.68-.7.67.67,0,0,1,.66.73V19h-1a.4.4,0,0,0,.42.37.58.58,0,0,0,.38-.15l.13.19a.76.76,0,0,1-.54.19A.67.67,0,0,1,139.94,18.88Zm.68-.46a.37.37,0,0,0-.38.35H141A.37.37,0,0,0,140.62,18.42Z"/><path class="cls-12" d="M142.33,19.24v-.77h-.22v-.25h.22v-.37h.29v.37h.27v.25h-.27v.7c0,.09,0,.16.12.16a.2.2,0,0,0,.13,0l.07.22a.38.38,0,0,1-.27.08A.31.31,0,0,1,142.33,19.24Z"/><path class="cls-12" d="M143.15,19.55V18.22h.29v.19a.59.59,0,0,1,.43-.22v.28h-.09a.47.47,0,0,0-.34.17v.91Z"/><path class="cls-12" d="M144.92,19.55v-.14a.58.58,0,0,1-.43.17.44.44,0,0,1-.47-.44.43.43,0,0,1,.47-.43.56.56,0,0,1,.43.17v-.2c0-.15-.13-.25-.31-.25a.58.58,0,0,0-.4.17l-.12-.2a.79.79,0,0,1,.56-.22c.3,0,.56.13.56.49v.88Zm0-.3V19a.39.39,0,0,0-.32-.13.25.25,0,0,0-.28.24c0,.14.12.23.28.23A.39.39,0,0,0,144.92,19.25Z"/><path class="cls-12" d="M146.48,19.55v-.83c0-.21-.1-.28-.27-.28a.44.44,0,0,0-.34.18v.93h-.29V18.22h.29v.18a.62.62,0,0,1,.47-.22.39.39,0,0,1,.43.43v.94Z"/><path class="cls-12" d="M147,19.38l.13-.21a.71.71,0,0,0,.45.18c.18,0,.27-.07.27-.18,0-.26-.81-.07-.81-.58,0-.22.19-.41.52-.41a.75.75,0,0,1,.52.19l-.12.21a.5.5,0,0,0-.39-.16c-.16,0-.25.06-.25.16s.8.06.8.59c0,.23-.19.41-.55.41A.82.82,0,0,1,147,19.38Z"/><path class="cls-12" d="M148.51,19.55V18.47h-.22v-.25h.22v-.08a.41.41,0,0,1,.42-.46.45.45,0,0,1,.33.12l-.12.18a.2.2,0,0,0-.15-.06c-.12,0-.19.07-.19.22v.08h.27v.25h-.27v1.08Z"/><path class="cls-12" d="M149.21,18.88a.68.68,0,0,1,.68-.7.66.66,0,0,1,.65.73V19h-1a.41.41,0,0,0,.43.37.61.61,0,0,0,.38-.15l.13.19a.76.76,0,0,1-.54.19A.67.67,0,0,1,149.21,18.88Zm.68-.46a.37.37,0,0,0-.38.35h.75A.35.35,0,0,0,149.89,18.42Z"/><path class="cls-12" d="M150.83,19.55V18.22h.29v.19a.59.59,0,0,1,.43-.22v.28h-.09a.45.45,0,0,0-.34.17v.91Z"/><path class="cls-12" d="M140,22.47v.69h-.29V21.32H140v.18a.54.54,0,0,1,.43-.22c.34,0,.59.26.59.7s-.25.7-.59.7A.52.52,0,0,1,140,22.47Zm.72-.49a.4.4,0,0,0-.38-.44.41.41,0,0,0-.34.18v.53a.44.44,0,0,0,.34.18A.4.4,0,0,0,140.73,22Z"/><path class="cls-12" d="M141.31,22.65V21.32h.29v.19a.59.59,0,0,1,.43-.22v.28h-.09a.47.47,0,0,0-.34.17v.91Z"/><path class="cls-12" d="M142.18,22a.69.69,0,1,1,1.38,0,.69.69,0,1,1-1.38,0Zm1.08,0a.39.39,0,1,0-.39.45A.4.4,0,0,0,143.26,22Z"/><path class="cls-12" d="M143.9,22.34v-.77h-.22v-.25h.22V21h.29v.37h.27v.25h-.27v.7c0,.09.05.16.13.16a.2.2,0,0,0,.13-.05l.07.22a.38.38,0,0,1-.27.08A.31.31,0,0,1,143.9,22.34Z"/><path class="cls-12" d="M144.64,22A.69.69,0,1,1,146,22a.69.69,0,1,1-1.37,0Zm1.07,0a.39.39,0,1,0-.77,0,.39.39,0,1,0,.77,0Z"/><path class="cls-12" d="M146.22,22a.67.67,0,0,1,.69-.7.58.58,0,0,1,.51.24l-.19.18a.35.35,0,0,0-.31-.16.4.4,0,0,0-.4.44.41.41,0,0,0,.4.45.37.37,0,0,0,.31-.16l.19.18a.61.61,0,0,1-.51.23A.66.66,0,0,1,146.22,22Z"/><path class="cls-12" d="M147.59,22a.69.69,0,1,1,.68.7A.67.67,0,0,1,147.59,22Zm1.07,0a.39.39,0,1,0-.39.45A.4.4,0,0,0,148.66,22Z"/><path class="cls-12" d="M149.25,22.65V20.81h.29v1.84Z"/><path class="cls-12" d="M72,51.18l.27-.38a1,1,0,0,0,.73.31c.27,0,.4-.12.4-.25,0-.41-1.33-.13-1.33-1,0-.39.34-.7.88-.7a1.26,1.26,0,0,1,.89.32l-.27.36a1,1,0,0,0-.67-.26c-.21,0-.33.1-.33.23,0,.37,1.33.12,1.33,1,0,.42-.3.74-.93.74A1.35,1.35,0,0,1,72,51.18Z"/><path class="cls-12" d="M76.57,51.5V49.89l-.65,1.61h-.21l-.65-1.61V51.5h-.49V49.2h.69l.55,1.39.56-1.39h.69v2.3Z"/><path class="cls-12" d="M78.39,51.5V49.63h-.67V49.2h1.83v.43h-.67V51.5Z"/><path class="cls-12" d="M80.21,51.5V49.2h1.07a.74.74,0,1,1,0,1.48H80.7v.82Zm1.35-1.56a.31.31,0,0,0-.34-.31H80.7v.62h.52A.31.31,0,0,0,81.56,49.94Z"/><path class="cls-12" d="M70.17,54.43l.13-.21a.74.74,0,0,0,.46.18c.17,0,.26-.07.26-.18s-.81-.07-.81-.58c0-.22.19-.41.53-.41a.78.78,0,0,1,.52.19l-.13.21a.49.49,0,0,0-.39-.16c-.15,0-.25.06-.25.16s.81.06.81.59c0,.23-.2.41-.56.41A.84.84,0,0,1,70.17,54.43Z"/><path class="cls-12" d="M71.55,52.92a.18.18,0,1,1,.18.18A.18.18,0,0,1,71.55,52.92Zm0,1.68V53.27h.29V54.6Z"/><path class="cls-12" d="M73.89,54.6v-.87a.21.21,0,0,0-.22-.24.4.4,0,0,0-.31.18v.93h-.29v-.87c0-.14-.06-.24-.22-.24a.4.4,0,0,0-.31.18v.93h-.29V53.27h.29v.18a.6.6,0,0,1,.44-.22.34.34,0,0,1,.36.25.57.57,0,0,1,.45-.25.36.36,0,0,1,.39.41v1Z"/><path class="cls-12" d="M74.84,54.42v.69h-.29V53.27h.29v.18a.54.54,0,0,1,.42-.22c.35,0,.6.26.6.7s-.25.7-.6.7A.51.51,0,0,1,74.84,54.42Zm.71-.49a.39.39,0,0,0-.37-.44.41.41,0,0,0-.34.18v.53a.44.44,0,0,0,.34.18C75.41,54.38,75.55,54.19,75.55,53.93Z"/><path class="cls-12" d="M76.14,54.6V52.76h.29V54.6Z"/><path class="cls-12" d="M76.72,53.93a.68.68,0,0,1,.68-.7.66.66,0,0,1,.65.73V54H77a.42.42,0,0,0,.43.37.61.61,0,0,0,.38-.15l.13.19a.76.76,0,0,1-.54.19A.67.67,0,0,1,76.72,53.93Zm.68-.46a.37.37,0,0,0-.38.35h.75A.35.35,0,0,0,77.4,53.47Z"/><path class="cls-12" d="M80.68,54.6v-.87c0-.14-.06-.24-.22-.24a.4.4,0,0,0-.31.18v.93h-.29v-.87c0-.14-.06-.24-.22-.24a.4.4,0,0,0-.3.18v.93h-.29V53.27h.29v.18a.57.57,0,0,1,.43-.22.34.34,0,0,1,.36.25.59.59,0,0,1,.46-.25c.24,0,.38.14.38.41v1Z"/><path class="cls-12" d="M82.16,54.6v-.14a.58.58,0,0,1-.43.17.44.44,0,0,1-.47-.44.43.43,0,0,1,.47-.43.58.58,0,0,1,.43.17v-.2c0-.15-.13-.25-.32-.25a.57.57,0,0,0-.39.17l-.12-.2a.79.79,0,0,1,.56-.22c.3,0,.56.13.56.49v.88Zm0-.3v-.21a.39.39,0,0,0-.32-.13.26.26,0,0,0-.29.24c0,.14.13.23.29.23A.39.39,0,0,0,82.16,54.3Z"/><path class="cls-12" d="M82.78,52.92a.19.19,0,0,1,.18-.18.18.18,0,1,1,0,.36A.19.19,0,0,1,82.78,52.92Zm0,1.68V53.27h.29V54.6Z"/><path class="cls-12" d="M83.48,54.6V52.76h.29V54.6Z"/><path class="cls-12" d="M67.06,57.39v-.77h-.22v-.25h.22V56h.29v.37h.28v.25h-.28v.7c0,.09.05.16.13.16a.2.2,0,0,0,.13,0l.07.22a.38.38,0,0,1-.27.08A.31.31,0,0,1,67.06,57.39Z"/><path class="cls-12" d="M67.89,57.7V56.37h.29v.19a.59.59,0,0,1,.43-.22v.28h-.09a.46.46,0,0,0-.34.18v.91Z"/><path class="cls-12" d="M69.66,57.7v-.14a.58.58,0,0,1-.43.17.44.44,0,0,1-.47-.44.43.43,0,0,1,.47-.43.58.58,0,0,1,.43.17v-.2c0-.15-.13-.25-.32-.25a.57.57,0,0,0-.39.17l-.12-.2a.79.79,0,0,1,.56-.22c.3,0,.56.13.56.49v.88Zm0-.3v-.21a.39.39,0,0,0-.32-.13.26.26,0,0,0-.29.24c0,.14.13.23.29.23A.39.39,0,0,0,69.66,57.4Z"/><path class="cls-12" d="M71.22,57.7v-.83c0-.21-.11-.28-.27-.28a.43.43,0,0,0-.34.18v.93h-.29V56.37h.29v.18a.62.62,0,0,1,.47-.22.39.39,0,0,1,.43.43v.94Z"/><path class="cls-12" d="M71.76,57.53l.14-.21a.71.71,0,0,0,.45.18c.17,0,.26-.07.26-.18s-.8-.07-.8-.58c0-.22.18-.41.52-.41a.75.75,0,0,1,.52.19l-.12.21a.51.51,0,0,0-.4-.16c-.15,0-.24.06-.24.16s.8.06.8.59c0,.23-.19.41-.55.41A.85.85,0,0,1,71.76,57.53Z"/><path class="cls-12" d="M73.25,57.7V56.62H73v-.25h.22v-.08A.44.44,0,0,1,74,56l-.11.18a.2.2,0,0,0-.15-.06c-.12,0-.19.07-.19.22v.08h.27v.25h-.27V57.7Z"/><path class="cls-12" d="M74,57a.68.68,0,0,1,.67-.7.67.67,0,0,1,.66.73v.07h-1a.4.4,0,0,0,.43.37.56.56,0,0,0,.37-.15l.14.19a.78.78,0,0,1-.54.19A.67.67,0,0,1,74,57Zm.67-.46a.37.37,0,0,0-.37.35H75A.36.36,0,0,0,74.62,56.57Z"/><path class="cls-12" d="M75.57,57.7V56.37h.29v.19a.55.55,0,0,1,.43-.22v.28H76.2a.46.46,0,0,0-.34.18v.91Z"/><path class="cls-12" d="M77.52,57.52v.69h-.29V56.37h.29v.18a.54.54,0,0,1,.43-.22c.34,0,.59.26.59.7s-.25.7-.59.7A.53.53,0,0,1,77.52,57.52Zm.72-.49a.4.4,0,0,0-.38-.44.43.43,0,0,0-.34.18v.53a.46.46,0,0,0,.34.18A.4.4,0,0,0,78.24,57Z"/><path class="cls-12" d="M78.82,57.7V56.37h.29v.19a.59.59,0,0,1,.44-.22v.28h-.1a.48.48,0,0,0-.34.18v.91Z"/><path class="cls-12" d="M79.7,57a.69.69,0,1,1,.68.7A.67.67,0,0,1,79.7,57Zm1.07,0a.4.4,0,0,0-.39-.44.45.45,0,0,0,0,.89A.41.41,0,0,0,80.77,57Z"/><path class="cls-12" d="M81.41,57.39v-.77h-.22v-.25h.22V56h.29v.37H82v.25H81.7v.7c0,.09,0,.16.13.16a.2.2,0,0,0,.13,0l.07.22a.38.38,0,0,1-.27.08A.31.31,0,0,1,81.41,57.39Z"/><path class="cls-12" d="M82.15,57a.69.69,0,1,1,.69.7A.67.67,0,0,1,82.15,57Zm1.07,0a.4.4,0,0,0-.38-.44.45.45,0,1,0,.38.44Z"/><path class="cls-12" d="M83.73,57a.68.68,0,0,1,.69-.7.58.58,0,0,1,.51.24l-.19.18a.33.33,0,0,0-.3-.16A.4.4,0,0,0,84,57a.41.41,0,0,0,.41.45.35.35,0,0,0,.3-.16l.19.18a.61.61,0,0,1-.51.23A.67.67,0,0,1,83.73,57Z"/><path class="cls-12" d="M85.1,57a.69.69,0,1,1,1.37,0,.69.69,0,1,1-1.37,0Zm1.07,0a.39.39,0,1,0-.77,0,.39.39,0,1,0,.77,0Z"/><path class="cls-12" d="M86.76,57.7V55.86h.29V57.7Z"/><path class="cls-12" d="M108,51.5v-1h-1.08v1h-.49V49.2h.49v.9H108v-.9h.5v2.3Z"/><path class="cls-12" d="M109.83,51.5V49.63h-.67V49.2H111v.43h-.67V51.5Z"/><path class="cls-12" d="M112.18,51.5V49.63h-.67V49.2h1.83v.43h-.67V51.5Z"/><path class="cls-12" d="M114,51.5V49.2h1.07a.74.74,0,1,1,0,1.48h-.58v.82Zm1.35-1.56a.31.31,0,0,0-.34-.31h-.52v.62H115A.31.31,0,0,0,115.35,49.94Z"/><path class="cls-12" d="M104.7,54.6l-.31-1-.31,1h-.31l-.41-1.33h.3l.28,1,.32-1h.25l.32,1,.28-1h.31L105,54.6Z"/><path class="cls-12" d="M105.53,53.93a.68.68,0,0,1,.68-.7.66.66,0,0,1,.65.73V54h-1a.41.41,0,0,0,.43.37.61.61,0,0,0,.38-.15l.13.19a.76.76,0,0,1-.54.19A.67.67,0,0,1,105.53,53.93Zm.68-.46a.37.37,0,0,0-.38.35h.75A.35.35,0,0,0,106.21,53.47Z"/><path class="cls-12" d="M107.15,54.6V52.76h.29v.69a.52.52,0,0,1,.42-.22.71.71,0,0,1,0,1.4.53.53,0,0,1-.42-.21v.18Zm.63-.22a.45.45,0,0,0,0-.89.41.41,0,0,0-.34.18v.53A.41.41,0,0,0,107.78,54.38Z"/><path class="cls-12" d="M109.51,54.29v-.77h-.22v-.25h.22V52.9h.29v.37h.27v.25h-.27v.7c0,.09,0,.16.13.16a.2.2,0,0,0,.13-.05l.07.22a.38.38,0,0,1-.27.08A.31.31,0,0,1,109.51,54.29Z"/><path class="cls-12" d="M110.33,54.6V53.27h.29v.19a.59.59,0,0,1,.44-.22v.28H111a.49.49,0,0,0-.35.17v.91Z"/><path class="cls-12" d="M112.11,54.6v-.14a.59.59,0,0,1-.44.17.44.44,0,0,1-.46-.44.43.43,0,0,1,.46-.43.59.59,0,0,1,.44.17v-.2c0-.15-.13-.25-.32-.25a.54.54,0,0,0-.39.17l-.12-.2a.78.78,0,0,1,.56-.22c.3,0,.56.13.56.49v.88Zm0-.3v-.21a.41.41,0,0,0-.32-.13c-.17,0-.29.09-.29.24s.12.23.29.23A.41.41,0,0,0,112.11,54.3Z"/><path class="cls-12" d="M113.67,54.6v-.83c0-.21-.11-.28-.27-.28a.43.43,0,0,0-.34.18v.93h-.29V53.27h.29v.18a.62.62,0,0,1,.47-.22.39.39,0,0,1,.43.43v.94Z"/><path class="cls-12" d="M114.21,54.43l.14-.21a.71.71,0,0,0,.45.18c.17,0,.26-.07.26-.18s-.8-.07-.8-.58c0-.22.18-.41.52-.41a.75.75,0,0,1,.52.19l-.12.21a.51.51,0,0,0-.4-.16c-.15,0-.25.06-.25.16s.81.06.81.59c0,.23-.2.41-.55.41A.85.85,0,0,1,114.21,54.43Z"/><path class="cls-12" d="M115.7,54.6V53.52h-.22v-.25h.22v-.08a.44.44,0,0,1,.74-.34l-.11.18a.21.21,0,0,0-.16-.06c-.11,0-.18.07-.18.22v.08h.27v.25H116V54.6Z"/><path class="cls-12" d="M116.4,53.93a.68.68,0,0,1,.67-.7.67.67,0,0,1,.66.73V54h-1a.4.4,0,0,0,.43.37.56.56,0,0,0,.37-.15l.14.19a.78.78,0,0,1-.55.19A.66.66,0,0,1,116.4,53.93Zm.67-.46a.36.36,0,0,0-.37.35h.75A.36.36,0,0,0,117.07,53.47Z"/><path class="cls-12" d="M118,54.6V53.27h.29v.19a.59.59,0,0,1,.44-.22v.28h-.09a.47.47,0,0,0-.35.17v.91Z"/><path class="cls-12" d="M106.44,57.52v.69h-.29V56.37h.29v.18a.55.55,0,0,1,.43-.22c.35,0,.59.26.59.7s-.24.7-.59.7A.53.53,0,0,1,106.44,57.52Zm.72-.49a.4.4,0,0,0-.37-.44.45.45,0,0,0-.35.18v.53a.48.48,0,0,0,.35.18C107,57.48,107.16,57.29,107.16,57Z"/><path class="cls-12" d="M107.75,57.7V56.37H108v.19a.59.59,0,0,1,.43-.22v.28h-.09a.46.46,0,0,0-.34.18v.91Z"/><path class="cls-12" d="M108.62,57a.69.69,0,1,1,.68.7A.67.67,0,0,1,108.62,57Zm1.07,0a.39.39,0,1,0-.39.45A.4.4,0,0,0,109.69,57Z"/><path class="cls-12" d="M110.34,57.39v-.77h-.22v-.25h.22V56h.29v.37h.27v.25h-.27v.7c0,.09,0,.16.13.16a.25.25,0,0,0,.13,0l.06.22a.36.36,0,0,1-.27.08A.31.31,0,0,1,110.34,57.39Z"/><path class="cls-12" d="M111.08,57a.69.69,0,1,1,.68.7A.67.67,0,0,1,111.08,57Zm1.07,0a.39.39,0,1,0-.39.45A.4.4,0,0,0,112.15,57Z"/><path class="cls-12" d="M112.66,57a.67.67,0,0,1,.69-.7.6.6,0,0,1,.51.24l-.19.18a.36.36,0,0,0-.31-.16.4.4,0,0,0-.4.44.41.41,0,0,0,.4.45.38.38,0,0,0,.31-.16l.19.18a.62.62,0,0,1-.51.23A.66.66,0,0,1,112.66,57Z"/><path class="cls-12" d="M114,57a.69.69,0,1,1,.68.7A.67.67,0,0,1,114,57Zm1.07,0a.4.4,0,0,0-.39-.44.45.45,0,0,0,0,.89A.41.41,0,0,0,115.1,57Z"/><path class="cls-12" d="M115.69,57.7V55.86H116V57.7Z"/><path class="cls-12" d="M141,51.5l-.89-2.3h.56l.63,1.77.64-1.77h.56l-.89,2.3Z"/><path class="cls-12" d="M142.85,50.35a1.21,1.21,0,1,1,1.2,1.19A1.16,1.16,0,0,1,142.85,50.35Zm1.9,0a.7.7,0,1,0-.7.76A.7.7,0,0,0,144.75,50.35Z"/><path class="cls-12" d="M145.94,51.5V49.2h.49v2.3Z"/><path class="cls-12" d="M147.23,51.5V49.2h1.08a.74.74,0,1,1,0,1.48h-.59v.82Zm1.35-1.56a.31.31,0,0,0-.34-.31h-.52v.62h.52A.31.31,0,0,0,148.58,49.94Z"/><path class="cls-12" d="M138.82,54.6l-.55-1.33h.31l.39,1,.39-1h.31l-.54,1.33Z"/><path class="cls-12" d="M139.77,53.93a.69.69,0,1,1,1.37,0,.69.69,0,1,1-1.37,0Zm1.07,0a.39.39,0,1,0-.77,0,.39.39,0,1,0,.77,0Z"/><path class="cls-12" d="M141.4,52.92a.18.18,0,1,1,.18.18A.18.18,0,0,1,141.4,52.92Zm0,1.68V53.27h.29V54.6Z"/><path class="cls-12" d="M142,53.93a.68.68,0,0,1,.69-.7.62.62,0,0,1,.52.24l-.2.18a.33.33,0,0,0-.3-.16.41.41,0,0,0-.41.44.42.42,0,0,0,.41.45.35.35,0,0,0,.3-.16l.2.18a.64.64,0,0,1-.52.23A.67.67,0,0,1,142,53.93Z"/><path class="cls-12" d="M143.38,53.93a.68.68,0,0,1,.68-.7.67.67,0,0,1,.66.73V54h-1a.4.4,0,0,0,.42.37.58.58,0,0,0,.38-.15l.13.19a.76.76,0,0,1-.54.19A.67.67,0,0,1,143.38,53.93Zm.68-.46a.37.37,0,0,0-.38.35h.76A.37.37,0,0,0,144.06,53.47Z"/><path class="cls-12" d="M145.63,53.93a.69.69,0,1,1,.68.7A.67.67,0,0,1,145.63,53.93Zm1.07,0a.39.39,0,1,0-.39.45A.4.4,0,0,0,146.7,53.93Z"/><path class="cls-12" d="M147.64,54.6l-.55-1.33h.31l.39,1,.39-1h.31L148,54.6Z"/><path class="cls-12" d="M148.59,53.93a.68.68,0,0,1,.68-.7.66.66,0,0,1,.65.73V54h-1a.42.42,0,0,0,.43.37.61.61,0,0,0,.38-.15l.13.19a.76.76,0,0,1-.54.19A.67.67,0,0,1,148.59,53.93Zm.68-.46a.37.37,0,0,0-.38.35h.75A.35.35,0,0,0,149.27,53.47Z"/><path class="cls-12" d="M150.21,54.6V53.27h.29v.19a.59.59,0,0,1,.43-.22v.28h-.09a.47.47,0,0,0-.34.17v.91Z"/><path class="cls-12" d="M134.54,56a.18.18,0,1,1,.18.18A.18.18,0,0,1,134.54,56Zm0,1.68V56.37h.29V57.7Z"/><path class="cls-12" d="M136.14,57.7v-.83c0-.21-.1-.28-.27-.28a.44.44,0,0,0-.34.18v.93h-.29V56.37h.29v.18a.62.62,0,0,1,.47-.22.39.39,0,0,1,.43.43v.94Z"/><path class="cls-12" d="M136.86,57.39v-.77h-.22v-.25h.22V56h.29v.37h.27v.25h-.27v.7c0,.09,0,.16.13.16a.22.22,0,0,0,.13,0l.07.22a.41.41,0,0,1-.28.08A.31.31,0,0,1,136.86,57.39Z"/><path class="cls-12" d="M137.6,57a.68.68,0,0,1,.68-.7.66.66,0,0,1,.65.73v.07h-1a.42.42,0,0,0,.43.37.61.61,0,0,0,.38-.15l.13.19a.76.76,0,0,1-.54.19A.67.67,0,0,1,137.6,57Zm.68-.46a.37.37,0,0,0-.38.35h.75A.35.35,0,0,0,138.28,56.57Z"/><path class="cls-12" d="M139.22,57.7V56.37h.29v.19a.59.59,0,0,1,.43-.22v.28h-.09a.48.48,0,0,0-.34.18v.91Z"/><path class="cls-12" d="M141.07,57.7v-.83c0-.21-.1-.28-.26-.28a.46.46,0,0,0-.35.18v.93h-.29V56.37h.29v.18a.62.62,0,0,1,.47-.22.39.39,0,0,1,.43.43v.94Z"/><path class="cls-12" d="M141.65,57a.68.68,0,0,1,.68-.7.67.67,0,0,1,.66.73v.07h-1a.4.4,0,0,0,.42.37.58.58,0,0,0,.38-.15l.13.19a.76.76,0,0,1-.54.19A.67.67,0,0,1,141.65,57Zm.68-.46a.37.37,0,0,0-.38.35h.75A.35.35,0,0,0,142.33,56.57Z"/><path class="cls-12" d="M143.33,57.39v-.77h-.22v-.25h.22V56h.29v.37h.27v.25h-.27v.7c0,.09,0,.16.12.16a.2.2,0,0,0,.13,0l.07.22a.36.36,0,0,1-.27.08A.31.31,0,0,1,143.33,57.39Z"/><path class="cls-12" d="M145.15,57.52v.69h-.29V56.37h.29v.18a.54.54,0,0,1,.43-.22c.34,0,.59.26.59.7s-.25.7-.59.7A.53.53,0,0,1,145.15,57.52Zm.72-.49a.4.4,0,0,0-.38-.44.41.41,0,0,0-.34.18v.53a.44.44,0,0,0,.34.18A.4.4,0,0,0,145.87,57Z"/><path class="cls-12" d="M146.45,57.7V56.37h.29v.19a.59.59,0,0,1,.43-.22v.28h-.09a.48.48,0,0,0-.34.18v.91Z"/><path class="cls-12" d="M147.32,57a.69.69,0,1,1,1.38,0,.69.69,0,1,1-1.38,0Zm1.07,0a.4.4,0,0,0-.38-.44.45.45,0,1,0,.38.44Z"/><path class="cls-12" d="M149,57.39v-.77h-.22v-.25H149V56h.29v.37h.27v.25h-.27v.7c0,.09,0,.16.13.16a.2.2,0,0,0,.13,0l.07.22a.38.38,0,0,1-.27.08A.31.31,0,0,1,149,57.39Z"/><path class="cls-12" d="M149.78,57a.69.69,0,1,1,1.37,0,.69.69,0,1,1-1.37,0Zm1.07,0a.39.39,0,1,0-.77,0,.39.39,0,1,0,.77,0Z"/><path class="cls-12" d="M151.36,57a.67.67,0,0,1,.69-.7.58.58,0,0,1,.51.24l-.19.18a.35.35,0,0,0-.31-.16.4.4,0,0,0-.4.44.41.41,0,0,0,.4.45.37.37,0,0,0,.31-.16l.19.18a.61.61,0,0,1-.51.23A.66.66,0,0,1,151.36,57Z"/><path class="cls-12" d="M152.73,57a.69.69,0,1,1,.68.7A.67.67,0,0,1,152.73,57Zm1.07,0a.39.39,0,1,0-.39.45A.4.4,0,0,0,153.8,57Z"/><path class="cls-12" d="M154.39,57.7V55.86h.29V57.7Z"/><path class="cls-12" d="M71.75,85.65l.26-.37a1.08,1.08,0,0,0,.74.31c.26,0,.4-.13.4-.26,0-.41-1.33-.13-1.33-1,0-.39.33-.7.87-.7a1.29,1.29,0,0,1,.9.32l-.27.36a1,1,0,0,0-.67-.25c-.21,0-.33.09-.33.23,0,.36,1.32.12,1.32,1,0,.42-.3.73-.92.73A1.29,1.29,0,0,1,71.75,85.65Z"/><path class="cls-12" d="M75.9,86l-1.1-1.5V86h-.48v-2.3h.5l1.06,1.45V83.67h.49V86Z"/><path class="cls-12" d="M79.17,86V84.36L78.52,86h-.21l-.65-1.61V86h-.49v-2.3h.69l.56,1.39L79,83.67h.69V86Z"/><path class="cls-12" d="M80.46,86v-2.3h1.08a.74.74,0,1,1,0,1.48H81V86Zm1.35-1.56a.31.31,0,0,0-.34-.31H81v.62h.52A.31.31,0,0,0,81.81,84.41Z"/><path class="cls-12" d="M67.7,88.9l.14-.21a.69.69,0,0,0,.45.19c.17,0,.26-.08.26-.18,0-.27-.81-.08-.81-.59,0-.22.19-.41.53-.41a.76.76,0,0,1,.52.19l-.12.21a.55.55,0,0,0-.4-.16c-.15,0-.25.07-.25.16,0,.24.81.06.81.59,0,.24-.2.42-.56.42A.85.85,0,0,1,67.7,88.9Z"/><path class="cls-12" d="M69.08,87.4a.19.19,0,0,1,.18-.18.18.18,0,0,1,.18.18.18.18,0,0,1-.18.17A.18.18,0,0,1,69.08,87.4Zm0,1.67V87.74h.29v1.33Z"/><path class="cls-12" d="M71.42,89.07V88.2A.21.21,0,0,0,71.2,88a.4.4,0,0,0-.31.18v.93H70.6V88.2c0-.14-.06-.24-.22-.24a.4.4,0,0,0-.31.18v.93h-.29V87.74h.29v.18a.6.6,0,0,1,.44-.22.34.34,0,0,1,.36.25.59.59,0,0,1,.45-.25.36.36,0,0,1,.39.41v1Z"/><path class="cls-12" d="M72.37,88.89v.69h-.29V87.74h.29v.18a.54.54,0,0,1,.43-.22c.34,0,.59.26.59.7s-.25.71-.59.71A.54.54,0,0,1,72.37,88.89Zm.72-.49a.4.4,0,0,0-.38-.44.43.43,0,0,0-.34.18v.53a.43.43,0,0,0,.34.18A.4.4,0,0,0,73.09,88.4Z"/><path class="cls-12" d="M73.67,89.07V87.23H74v1.84Z"/><path class="cls-12" d="M74.25,88.4a.68.68,0,0,1,.68-.7.67.67,0,0,1,.66.73v.07h-1a.4.4,0,0,0,.42.37.54.54,0,0,0,.38-.15l.13.19a.77.77,0,0,1-.54.2A.67.67,0,0,1,74.25,88.4Zm.68-.46a.38.38,0,0,0-.38.36h.75A.35.35,0,0,0,74.93,87.94Z"/><path class="cls-12" d="M77.48,89.07v-.83c0-.21-.11-.28-.27-.28a.43.43,0,0,0-.34.18v.93h-.29V87.74h.29v.18a.66.66,0,0,1,.47-.22.39.39,0,0,1,.43.43v.94Z"/><path class="cls-12" d="M78.06,88.4a.68.68,0,0,1,.67-.7.67.67,0,0,1,.66.73v.07h-1a.4.4,0,0,0,.43.37.51.51,0,0,0,.37-.15l.14.19a.78.78,0,0,1-.54.2A.67.67,0,0,1,78.06,88.4Zm.67-.46a.37.37,0,0,0-.37.36h.75A.36.36,0,0,0,78.73,87.94Z"/><path class="cls-12" d="M79.73,88.76V88h-.22v-.25h.22v-.37H80v.37h.27V88H80v.7c0,.09,0,.16.13.16a.16.16,0,0,0,.13,0l.07.22a.38.38,0,0,1-.27.09A.32.32,0,0,1,79.73,88.76Z"/><path class="cls-12" d="M81.72,89.07l-.31-1-.31,1h-.31l-.41-1.33h.3l.28,1,.32-1h.25l.32,1,.28-1h.3L82,89.07Z"/><path class="cls-12" d="M82.55,88.4a.69.69,0,1,1,.68.71A.67.67,0,0,1,82.55,88.4Zm1.07,0a.39.39,0,1,0-.39.45A.4.4,0,0,0,83.62,88.4Z"/><path class="cls-12" d="M84.21,89.07V87.74h.29v.19a.59.59,0,0,1,.43-.22V88h-.09a.47.47,0,0,0-.34.17v.91Z"/><path class="cls-12" d="M86.05,89.07l-.41-.55-.18.19v.36h-.29V87.23h.29v1.15l.58-.64h.36l-.55.6.56.73Z"/><path class="cls-12" d="M65.29,92.17V91.3c0-.14-.06-.24-.22-.24a.4.4,0,0,0-.31.18v.93h-.29V91.3c0-.14-.06-.24-.22-.24a.4.4,0,0,0-.3.18v.93h-.29V90.84H64V91a.57.57,0,0,1,.43-.22.34.34,0,0,1,.36.25.59.59,0,0,1,.46-.25c.24,0,.38.14.38.41v1Z"/><path class="cls-12" d="M66.77,92.17V92a.58.58,0,0,1-.43.17.44.44,0,0,1-.47-.44.43.43,0,0,1,.47-.43.56.56,0,0,1,.43.17v-.2c0-.15-.13-.25-.32-.25a.57.57,0,0,0-.39.17l-.12-.2a.79.79,0,0,1,.56-.22c.3,0,.56.13.56.49v.88Zm0-.3v-.2a.37.37,0,0,0-.32-.14.26.26,0,0,0-.29.24.26.26,0,0,0,.29.24A.4.4,0,0,0,66.77,91.87Z"/><path class="cls-12" d="M68.33,92.17v-.83c0-.21-.11-.28-.27-.28a.43.43,0,0,0-.34.18v.93h-.29V90.84h.29V91a.62.62,0,0,1,.47-.22.39.39,0,0,1,.43.43v.94Z"/><path class="cls-12" d="M69.81,92.17V92a.59.59,0,0,1-.44.17.44.44,0,0,1-.46-.44.43.43,0,0,1,.46-.43.59.59,0,0,1,.44.17v-.2c0-.15-.13-.25-.32-.25a.54.54,0,0,0-.39.17L69,91a.78.78,0,0,1,.56-.22c.3,0,.56.13.56.49v.88Zm0-.3v-.2a.39.39,0,0,0-.32-.14c-.17,0-.29.09-.29.24a.26.26,0,0,0,.29.24A.42.42,0,0,0,69.81,91.87Z"/><path class="cls-12" d="M70.45,92.51l.14-.21a.49.49,0,0,0,.42.18.35.35,0,0,0,.39-.37V92a.51.51,0,0,1-.42.22.6.6,0,0,1-.6-.68.61.61,0,0,1,.6-.69.52.52,0,0,1,.42.22v-.18h.29V92.1c0,.48-.35.61-.68.61A.75.75,0,0,1,70.45,92.51Zm1-.77v-.5a.41.41,0,0,0-.34-.18c-.23,0-.37.17-.37.43s.14.43.37.43A.41.41,0,0,0,71.4,91.74Z"/><path class="cls-12" d="M72,91.5a.68.68,0,0,1,.68-.7.67.67,0,0,1,.66.73v.07h-1a.4.4,0,0,0,.42.37.58.58,0,0,0,.38-.15l.13.19a.76.76,0,0,1-.54.19A.67.67,0,0,1,72,91.5Zm.68-.46a.38.38,0,0,0-.38.36H73A.35.35,0,0,0,72.66,91Z"/><path class="cls-12" d="M75.24,92.17V91.3a.21.21,0,0,0-.22-.24.4.4,0,0,0-.31.18v.93h-.29V91.3a.21.21,0,0,0-.22-.24.4.4,0,0,0-.31.18v.93H73.6V90.84h.29V91a.59.59,0,0,1,.43-.22.36.36,0,0,1,.37.25.57.57,0,0,1,.45-.25.36.36,0,0,1,.39.41v1Z"/><path class="cls-12" d="M75.81,91.5a.68.68,0,0,1,.68-.7.67.67,0,0,1,.66.73v.07h-1a.4.4,0,0,0,.42.37.58.58,0,0,0,.38-.15l.13.19a.76.76,0,0,1-.54.19A.67.67,0,0,1,75.81,91.5Zm.68-.46a.38.38,0,0,0-.38.36h.75A.35.35,0,0,0,76.49,91Z"/><path class="cls-12" d="M78.33,92.17v-.83c0-.21-.1-.28-.27-.28a.44.44,0,0,0-.34.18v.93h-.29V90.84h.29V91a.62.62,0,0,1,.47-.22.39.39,0,0,1,.43.43v.94Z"/><path class="cls-12" d="M79.05,91.86v-.77h-.22v-.25h.22v-.37h.29v.37h.27v.25h-.27v.7c0,.09,0,.16.13.16a.17.17,0,0,0,.13,0l.07.22a.41.41,0,0,1-.28.08A.31.31,0,0,1,79.05,91.86Z"/><path class="cls-12" d="M80.87,92v.69h-.29V90.84h.29V91a.54.54,0,0,1,.43-.22c.34,0,.59.26.59.7s-.25.7-.59.7A.53.53,0,0,1,80.87,92Zm.72-.49a.4.4,0,0,0-.38-.44.43.43,0,0,0-.34.18v.53a.46.46,0,0,0,.34.18A.4.4,0,0,0,81.59,91.5Z"/><path class="cls-12" d="M82.17,92.17V90.84h.29V91a.59.59,0,0,1,.44-.22v.28h-.1a.47.47,0,0,0-.34.17v.91Z"/><path class="cls-12" d="M83.05,91.5a.69.69,0,1,1,.68.7A.67.67,0,0,1,83.05,91.5Zm1.07,0a.4.4,0,0,0-.39-.44.45.45,0,0,0,0,.89A.41.41,0,0,0,84.12,91.5Z"/><path class="cls-12" d="M84.76,91.86v-.77h-.22v-.25h.22v-.37h.29v.37h.28v.25h-.28v.7c0,.09,0,.16.13.16a.16.16,0,0,0,.13,0l.07.22a.38.38,0,0,1-.27.08A.31.31,0,0,1,84.76,91.86Z"/><path class="cls-12" d="M85.5,91.5a.69.69,0,1,1,1.38,0,.69.69,0,1,1-1.38,0Zm1.07,0a.4.4,0,0,0-.38-.44.45.45,0,1,0,.38.44Z"/><path class="cls-12" d="M87.08,91.5a.68.68,0,0,1,.69-.7.58.58,0,0,1,.51.24l-.19.18a.33.33,0,0,0-.3-.16.4.4,0,0,0-.41.44.41.41,0,0,0,.41.45.35.35,0,0,0,.3-.16l.19.18a.61.61,0,0,1-.51.23A.67.67,0,0,1,87.08,91.5Z"/><path class="cls-12" d="M88.45,91.5a.69.69,0,1,1,1.37,0,.69.69,0,1,1-1.37,0Zm1.07,0a.39.39,0,1,0-.77,0,.39.39,0,1,0,.77,0Z"/><path class="cls-12" d="M90.11,92.17V90.33h.29v1.84Z"/><path class="cls-12" d="M104.32,86V84.1h-.67v-.43h1.83v.43h-.67V86Z"/><path class="cls-12" d="M106.14,86v-2.3h.49v1.87h1V86Z"/><path class="cls-12" d="M108.13,85.65l.26-.37a1.07,1.07,0,0,0,.73.31c.27,0,.4-.13.4-.26,0-.41-1.32-.13-1.32-1,0-.39.33-.7.87-.7a1.29,1.29,0,0,1,.9.32l-.27.36a1,1,0,0,0-.67-.25c-.21,0-.33.09-.33.23,0,.36,1.32.12,1.32,1,0,.42-.3.73-.92.73A1.29,1.29,0,0,1,108.13,85.65Z"/><path class="cls-12" d="M110.47,86l.81-2.44h.32L110.78,86Z"/><path class="cls-12" d="M112,85.65l.26-.37a1.05,1.05,0,0,0,.73.31c.27,0,.4-.13.4-.26,0-.41-1.32-.13-1.32-1,0-.39.33-.7.87-.7a1.29,1.29,0,0,1,.9.32l-.27.36a1,1,0,0,0-.67-.25c-.21,0-.33.09-.33.23,0,.36,1.32.12,1.32,1,0,.42-.3.73-.92.73A1.29,1.29,0,0,1,112,85.65Z"/><path class="cls-12" d="M114.43,85.65l.26-.37a1.05,1.05,0,0,0,.73.31c.27,0,.4-.13.4-.26,0-.41-1.32-.13-1.32-1,0-.39.33-.7.87-.7a1.29,1.29,0,0,1,.9.32l-.27.36a1,1,0,0,0-.67-.25c-.21,0-.33.09-.33.23,0,.36,1.32.12,1.32,1,0,.42-.3.73-.92.73A1.29,1.29,0,0,1,114.43,85.65Z"/><path class="cls-12" d="M117,86v-2.3h.49v1.87h1V86Z"/><path class="cls-12" d="M102.36,88.76V88h-.22v-.25h.22v-.37h.29v.37h.27V88h-.27v.7c0,.09,0,.16.12.16a.16.16,0,0,0,.13,0L103,89a.38.38,0,0,1-.27.09A.31.31,0,0,1,102.36,88.76Z"/><path class="cls-12" d="M103.18,89.07V87.74h.29v.19a.59.59,0,0,1,.43-.22V88h-.09a.47.47,0,0,0-.34.17v.91Z"/><path class="cls-12" d="M105,89.07v-.14a.59.59,0,0,1-.43.18.45.45,0,0,1-.47-.45.43.43,0,0,1,.47-.43.56.56,0,0,1,.43.17v-.2c0-.15-.13-.25-.31-.25a.58.58,0,0,0-.4.17l-.12-.2a.79.79,0,0,1,.56-.22c.3,0,.56.13.56.49v.88Zm0-.3v-.2a.4.4,0,0,0-.32-.14.25.25,0,0,0-.28.24.25.25,0,0,0,.28.24A.4.4,0,0,0,105,88.77Z"/><path class="cls-12" d="M106.51,89.07v-.83c0-.21-.1-.28-.27-.28a.44.44,0,0,0-.34.18v.93h-.29V87.74h.29v.18a.66.66,0,0,1,.47-.22.39.39,0,0,1,.43.43v.94Z"/><path class="cls-12" d="M107.06,88.9l.13-.21a.72.72,0,0,0,.45.19c.18,0,.26-.08.26-.18,0-.27-.8-.08-.8-.59,0-.22.19-.41.52-.41a.75.75,0,0,1,.52.19l-.12.21a.54.54,0,0,0-.39-.16c-.16,0-.25.07-.25.16,0,.24.8.06.8.59,0,.24-.19.42-.55.42A.81.81,0,0,1,107.06,88.9Z"/><path class="cls-12" d="M108.76,88.89v.69h-.29V87.74h.29v.18a.55.55,0,0,1,.43-.22c.35,0,.59.26.59.7s-.24.71-.59.71A.54.54,0,0,1,108.76,88.89Zm.72-.49a.4.4,0,0,0-.37-.44.45.45,0,0,0-.35.18v.53a.45.45,0,0,0,.35.18C109.33,88.85,109.48,88.66,109.48,88.4Z"/><path class="cls-12" d="M110,88.4a.69.69,0,1,1,.69.71A.67.67,0,0,1,110,88.4Zm1.07,0a.4.4,0,0,0-.38-.44.45.45,0,1,0,.38.44Z"/><path class="cls-12" d="M111.64,89.07V87.74h.29v.19a.59.59,0,0,1,.44-.22V88h-.09a.49.49,0,0,0-.35.17v.91Z"/><path class="cls-12" d="M112.66,88.76V88h-.22v-.25h.22v-.37H113v.37h.27V88H113v.7c0,.09,0,.16.13.16a.19.19,0,0,0,.13,0l.06.22a.36.36,0,0,1-.27.09A.31.31,0,0,1,112.66,88.76Z"/><path class="cls-12" d="M114.19,89.07V87.23h.29v1.84Z"/><path class="cls-12" d="M115.67,89.07v-.14a.59.59,0,0,1-.43.18.45.45,0,0,1-.47-.45.43.43,0,0,1,.47-.43.58.58,0,0,1,.43.17v-.2c0-.15-.13-.25-.32-.25a.57.57,0,0,0-.39.17l-.12-.2a.79.79,0,0,1,.56-.22c.3,0,.56.13.56.49v.88Zm0-.3v-.2a.4.4,0,0,0-.32-.14.26.26,0,0,0-.29.24.26.26,0,0,0,.29.24A.4.4,0,0,0,115.67,88.77Z"/><path class="cls-12" d="M116.31,89.33a.27.27,0,0,0,.12,0,.18.18,0,0,0,.19-.12l.06-.15-.54-1.35h.3l.39,1,.39-1h.32l-.65,1.57a.53.53,0,0,1-.62.28Z"/><path class="cls-12" d="M117.63,88.4a.68.68,0,0,1,.68-.7.67.67,0,0,1,.66.73v.07h-1a.4.4,0,0,0,.42.37.54.54,0,0,0,.38-.15l.13.19a.77.77,0,0,1-.54.2A.67.67,0,0,1,117.63,88.4Zm.68-.46a.38.38,0,0,0-.38.36h.75A.35.35,0,0,0,118.31,87.94Z"/><path class="cls-12" d="M119.25,89.07V87.74h.29v.19a.59.59,0,0,1,.43-.22V88h-.09a.47.47,0,0,0-.34.17v.91Z"/><path class="cls-12" d="M106.31,92l.13-.21a.74.74,0,0,0,.46.19c.17,0,.26-.08.26-.18,0-.27-.81-.08-.81-.59,0-.22.19-.41.53-.41a.78.78,0,0,1,.52.19l-.13.21a.54.54,0,0,0-.39-.16c-.15,0-.25.07-.25.16s.81.06.81.59c0,.24-.2.41-.56.41A.82.82,0,0,1,106.31,92Z"/><path class="cls-12" d="M107.64,91.5a.68.68,0,0,1,.68-.7.67.67,0,0,1,.66.73v.07h-1a.4.4,0,0,0,.42.37.58.58,0,0,0,.38-.15l.13.19a.76.76,0,0,1-.54.19A.67.67,0,0,1,107.64,91.5Zm.68-.46a.38.38,0,0,0-.38.36h.76A.37.37,0,0,0,108.32,91Z"/><path class="cls-12" d="M109.18,91.5a.67.67,0,0,1,.69-.7.58.58,0,0,1,.51.24l-.19.18a.36.36,0,0,0-.31-.16.4.4,0,0,0-.4.44.41.41,0,0,0,.4.45.38.38,0,0,0,.31-.16l.19.18a.61.61,0,0,1-.51.23A.66.66,0,0,1,109.18,91.5Z"/><path class="cls-12" d="M111.53,92.17V92a.63.63,0,0,1-.47.21.37.37,0,0,1-.43-.42v-.94h.29v.84a.24.24,0,0,0,.27.27.46.46,0,0,0,.34-.18v-.93h.29v1.33Z"/><path class="cls-12" d="M112.19,92.17V90.84h.29V91a.59.59,0,0,1,.44-.22v.28h-.09a.47.47,0,0,0-.35.17v.91Z"/><path class="cls-12" d="M113.11,90.49a.18.18,0,0,1,.18-.17.18.18,0,0,1,.18.17.18.18,0,0,1-.18.18A.19.19,0,0,1,113.11,90.49Zm0,1.68V90.84h.29v1.33Z"/><path class="cls-12" d="M113.87,91.86v-.77h-.22v-.25h.22v-.37h.29v.37h.27v.25h-.27v.7c0,.09,0,.16.13.16a.17.17,0,0,0,.13,0l.07.22a.41.41,0,0,1-.28.08A.31.31,0,0,1,113.87,91.86Z"/><path class="cls-12" d="M114.68,92.43a.23.23,0,0,0,.11,0,.18.18,0,0,0,.19-.12l.07-.15-.55-1.35h.31l.39,1,.39-1h.31l-.64,1.57a.45.45,0,0,1-.46.3l-.17,0Z"/><path class="cls-13" d="M141.25,86v-2.3h1.21a.59.59,0,0,1,.66.59.52.52,0,0,1-.39.53.55.55,0,0,1,.44.56.6.6,0,0,1-.67.62Zm1.37-1.63a.25.25,0,0,0-.27-.25h-.61v.5h.61A.24.24,0,0,0,142.62,84.34Zm0,.94a.28.28,0,0,0-.3-.27h-.63v.54h.63C142.56,85.55,142.67,85.45,142.67,85.28Z"/><path class="cls-13" d="M144.36,86V84.1h-.67v-.43h1.83v.43h-.67V86Z"/><path class="cls-13" d="M146,84.82a1.17,1.17,0,0,1,1.22-1.19,1,1,0,0,1,1,.57l-.42.2a.63.63,0,0,0-.54-.33.76.76,0,0,0,0,1.51.62.62,0,0,0,.54-.34l.42.21a1.05,1.05,0,0,1-1,.56A1.16,1.16,0,0,1,146,84.82Z"/><path class="cls-13" d="M137.16,89.07V88.2c0-.14-.06-.24-.22-.24a.4.4,0,0,0-.31.18v.93h-.29V88.2c0-.14-.06-.24-.22-.24a.4.4,0,0,0-.3.18v.93h-.29V87.74h.29v.18a.57.57,0,0,1,.43-.22.34.34,0,0,1,.36.25.59.59,0,0,1,.46-.25c.24,0,.38.14.38.41v1Z"/><path class="cls-13" d="M137.74,88.4a.69.69,0,1,1,.68.71A.67.67,0,0,1,137.74,88.4Zm1.07,0a.39.39,0,1,0-.39.45A.4.4,0,0,0,138.81,88.4Z"/><path class="cls-13" d="M140.3,89.07v-.83c0-.21-.1-.28-.27-.28a.44.44,0,0,0-.34.18v.93h-.29V87.74h.29v.18a.66.66,0,0,1,.47-.22.39.39,0,0,1,.43.43v.94Z"/><path class="cls-13" d="M140.88,88.4a.68.68,0,0,1,.68-.7.66.66,0,0,1,.65.73v.07h-1a.42.42,0,0,0,.43.37.55.55,0,0,0,.38-.15l.13.19a.77.77,0,0,1-.54.2A.67.67,0,0,1,140.88,88.4Zm.68-.46a.38.38,0,0,0-.38.36h.75A.35.35,0,0,0,141.56,87.94Z"/><path class="cls-13" d="M142.48,89.33a.23.23,0,0,0,.11,0,.17.17,0,0,0,.19-.12l.07-.15-.55-1.35h.31l.39,1,.39-1h.31l-.64,1.57a.53.53,0,0,1-.62.28Z"/><path class="cls-13" d="M144.65,88.76V88h-.22v-.25h.22v-.37h.29v.37h.27V88h-.27v.7c0,.09,0,.16.13.16a.19.19,0,0,0,.13,0l.07.22a.4.4,0,0,1-.28.09A.31.31,0,0,1,144.65,88.76Z"/><path class="cls-13" d="M145.47,89.07V87.74h.29v.19a.59.59,0,0,1,.43-.22V88h-.09a.47.47,0,0,0-.34.17v.91Z"/><path class="cls-13" d="M147.24,89.07v-.14a.57.57,0,0,1-.43.18.44.44,0,0,1-.46-.45.43.43,0,0,1,.46-.43.56.56,0,0,1,.43.17v-.2c0-.15-.13-.25-.31-.25a.58.58,0,0,0-.4.17l-.11-.2a.76.76,0,0,1,.56-.22c.29,0,.55.13.55.49v.88Zm0-.3v-.2a.4.4,0,0,0-.32-.14.25.25,0,0,0-.28.24.25.25,0,0,0,.28.24A.4.4,0,0,0,147.24,88.77Z"/><path class="cls-13" d="M148.8,89.07v-.83c0-.21-.1-.28-.26-.28a.46.46,0,0,0-.35.18v.93h-.29V87.74h.29v.18a.66.66,0,0,1,.47-.22.39.39,0,0,1,.43.43v.94Z"/><path class="cls-13" d="M149.35,88.9l.13-.21a.74.74,0,0,0,.46.19c.17,0,.26-.08.26-.18,0-.27-.81-.08-.81-.59,0-.22.19-.41.53-.41a.78.78,0,0,1,.52.19l-.13.21a.54.54,0,0,0-.39-.16c-.15,0-.25.07-.25.16,0,.24.81.06.81.59,0,.24-.2.42-.56.42A.85.85,0,0,1,149.35,88.9Z"/><path class="cls-13" d="M150.84,89.07V88h-.23v-.25h.23v-.08a.41.41,0,0,1,.42-.46.41.41,0,0,1,.32.12l-.11.18a.21.21,0,0,0-.16-.06c-.11,0-.18.07-.18.22v.08h.27V88h-.27v1.08Z"/><path class="cls-13" d="M151.53,88.4a.68.68,0,0,1,.68-.7.67.67,0,0,1,.66.73v.07h-1a.4.4,0,0,0,.42.37.54.54,0,0,0,.38-.15l.13.19a.77.77,0,0,1-.54.2A.67.67,0,0,1,151.53,88.4Zm.68-.46a.38.38,0,0,0-.38.36h.75A.35.35,0,0,0,152.21,87.94Z"/><path class="cls-13" d="M153.15,89.07V87.74h.29v.19a.59.59,0,0,1,.43-.22V88h-.09a.47.47,0,0,0-.34.17v.91Z"/><path class="cls-13" d="M140,92v.69h-.29V90.84H140V91a.54.54,0,0,1,.43-.22c.34,0,.59.26.59.7s-.25.7-.59.7A.52.52,0,0,1,140,92Zm.72-.49a.4.4,0,0,0-.38-.44.41.41,0,0,0-.34.18v.53a.44.44,0,0,0,.34.18A.4.4,0,0,0,140.73,91.5Z"/><path class="cls-13" d="M141.31,92.17V90.84h.29V91a.59.59,0,0,1,.43-.22v.28h-.09a.47.47,0,0,0-.34.17v.91Z"/><path class="cls-13" d="M142.18,91.5a.69.69,0,1,1,1.38,0,.69.69,0,1,1-1.38,0Zm1.08,0a.39.39,0,1,0-.39.45A.4.4,0,0,0,143.26,91.5Z"/><path class="cls-13" d="M143.9,91.86v-.77h-.22v-.25h.22v-.37h.29v.37h.27v.25h-.27v.7c0,.09.05.16.13.16a.16.16,0,0,0,.13,0l.07.22a.38.38,0,0,1-.27.08A.31.31,0,0,1,143.9,91.86Z"/><path class="cls-13" d="M144.64,91.5a.69.69,0,1,1,1.37,0,.69.69,0,1,1-1.37,0Zm1.07,0a.39.39,0,1,0-.77,0,.39.39,0,1,0,.77,0Z"/><path class="cls-13" d="M146.22,91.5a.67.67,0,0,1,.69-.7.58.58,0,0,1,.51.24l-.19.18a.35.35,0,0,0-.31-.16.4.4,0,0,0-.4.44.41.41,0,0,0,.4.45.37.37,0,0,0,.31-.16l.19.18a.61.61,0,0,1-.51.23A.66.66,0,0,1,146.22,91.5Z"/><path class="cls-13" d="M147.59,91.5a.69.69,0,1,1,.68.7A.67.67,0,0,1,147.59,91.5Zm1.07,0a.39.39,0,1,0-.39.45A.4.4,0,0,0,148.66,91.5Z"/><path class="cls-13" d="M149.25,92.17V90.33h.29v1.84Z"/><circle class="cls-14" cx="222.66" cy="54" r="14.68"/><g class="cls-15"><polygon class="cls-16" points="219.07 50.1 223.82 54.86 218.05 59.83 229.98 71.75 229.9 70.45 237.83 59.75 225.94 47.86 218.9 47.86 219.07 50.1"/></g><path class="cls-13" d="M218.05,59.83V58l1.66-1.5c2.86-2.56,4.24-4,4.26-5.54,0-1.06-.62-1.9-2.12-1.9a4.83,4.83,0,0,0-2.78,1.06l-.86-2.16a7.13,7.13,0,0,1,4.24-1.34c3,0,4.56,1.72,4.56,4.08,0,2.18-1.56,3.92-3.46,5.6l-1.2,1v0h4.92v2.51Z"/></g></g></svg>