<svg xmlns="http://www.w3.org/2000/svg" xmlns:xlink="http://www.w3.org/1999/xlink" viewBox="0 0 236.63 108"><defs><style>.cls-1{fill:none;}.cls-2{fill:#f5f6fa;}.cls-3{fill:#0e9de5;}.cls-4{clip-path:url(#clip-path);}.cls-5{fill:#041742;}.cls-6{fill:#fff;}.cls-7{fill:#6ef9b7;}.cls-8{fill:#9ee7ff;}.cls-9{fill:#26db8d;}.cls-10{fill:#88dbf2;}.cls-11{fill:#d2dbeb;}.cls-12{fill:#b4c2d6;}</style><clipPath id="clip-path"><circle class="cls-1" cx="14.68" cy="54" r="14.68"/></clipPath></defs><title>Computer</title><g id="Layer_2" data-name="Layer 2"><g id="Layer_1-2" data-name="Layer 1"><rect class="cls-2" x="14.63" width="222" height="108"/><circle class="cls-3" cx="14.68" cy="54" r="14.68"/><g class="cls-4"><polygon class="cls-5" points="11.09 50.1 15.84 54.86 10.06 59.83 21.99 71.75 21.91 70.45 29.84 59.75 17.95 47.86 10.91 47.86 11.09 50.1"/></g><path class="cls-6" d="M10.07,59.83V58l1.66-1.5c2.86-2.56,4.24-4,4.26-5.54,0-1.06-.62-1.9-2.12-1.9a4.86,4.86,0,0,0-2.79,1.06l-.86-2.16a7.19,7.19,0,0,1,4.25-1.34c3,0,4.56,1.72,4.56,4.08,0,2.18-1.56,3.92-3.46,5.6l-1.2,1v0h4.92v2.51Z"/><rect class="cls-6" x="132.33" y="-23.61" width="2.13" height="156.4" transform="translate(18.4 141.49) rotate(-59.34)"/><rect class="cls-6" x="25.24" y="59.77" width="179.88" height="2.13" transform="translate(-13.5 40.6) rotate(-18.91)"/><rect class="cls-6" x="132.33" y="-41.21" width="2.13" height="191.6" transform="translate(58.59 177.79) rotate(-80.99)"/><rect class="cls-6" x="74.45" y="53.53" width="117.9" height="2.13" transform="translate(2.88 115.75) rotate(-47.37)"/><circle class="cls-7" cx="30.1" cy="89.99" r="9.13"/><circle class="cls-8" cx="66.63" cy="15" r="9.13"/><circle class="cls-7" cx="201.74" cy="95.11" r="9.13"/><circle class="cls-7" cx="200.26" cy="31.67" r="9.13"/><circle class="cls-9" cx="93.46" cy="97.95" r="5.62"/><circle class="cls-8" cx="228.01" cy="69.59" r="5.62"/><circle class="cls-7" cx="38.05" cy="39.47" r="5.62"/><circle class="cls-10" cx="173.32" cy="11.22" r="5.62"/><path class="cls-11" d="M167.46,67.73H83V20a.71.71,0,0,1,.71-.72h83.08a.72.72,0,0,1,.72.72Z"/><rect class="cls-6" x="86.92" y="24.21" width="76.56" height="38.95"/><polygon class="cls-12" points="187.35 81.25 63.06 81.25 82.94 67.73 167.46 67.73 187.35 81.25"/><path class="cls-11" d="M186.19,86.74h-122a1.16,1.16,0,0,1-1.15-1.16V81.25H187.35v4.33A1.16,1.16,0,0,1,186.19,86.74Z"/><polygon class="cls-6" points="131.79 77.45 118.62 77.45 116.63 81.25 133.78 81.25 131.79 77.45"/><path class="cls-10" d="M135.77,31.4c-2.37,0-8.73-2.55-11-3.54l-.61-.27-.59.28c-2.11,1-8.18,3.53-11,3.53h-1.46v1.46A31.48,31.48,0,0,0,123.37,58l.83.57L125,58a31.46,31.46,0,0,0,12.2-25.16V31.4Zm-21.65,2.79a45.43,45.43,0,0,0,9.79-3.27V54.73A29.08,29.08,0,0,1,114.12,34.19Zm10.37,20.53V30.9a56.06,56.06,0,0,0,9.8,3.27A29.26,29.26,0,0,1,124.49,54.72Z"/></g></g></svg>