<svg xmlns="http://www.w3.org/2000/svg" xmlns:xlink="http://www.w3.org/1999/xlink" viewBox="0 0 236.63 108.42"><defs><style>.cls-1{fill:none;}.cls-2{fill:#f5f6fa;}.cls-3{fill:#0e9de5;}.cls-4{clip-path:url(#clip-path);}.cls-5{fill:#041742;}.cls-6{fill:#fff;}.cls-7{fill:#6ef9b7;}.cls-8{fill:#9ee7ff;}.cls-9{fill:#26db8d;}.cls-10{fill:#88dbf2;}.cls-11{fill:#b4c2d6;}.cls-12{fill:#d2dbeb;}</style><clipPath id="clip-path"><circle class="cls-1" cx="14.68" cy="54.21" r="14.68"/></clipPath></defs><title>Phone</title><g id="Layer_2" data-name="Layer 2"><g id="Layer_1-2" data-name="Layer 1"><rect class="cls-2" x="13.77" width="222.86" height="108.42"/><circle class="cls-3" cx="14.68" cy="54.21" r="14.68"/><g class="cls-4"><polygon class="cls-5" points="10.87 51.74 16.09 56.96 13.82 62.42 27.14 75.74 35.02 64.94 17.26 47.19 10.87 51.74"/></g><path class="cls-6" d="M13.82,50.35h-.05l-2.9,1.39-.59-2.68,4.05-1.87h2.93V62.42H13.82Z"/><rect class="cls-6" x="119.48" y="-19.79" width="2" height="147.01" transform="translate(11.08 127.42) rotate(-58)"/><rect class="cls-6" x="53.2" y="47.25" width="169.08" height="2" transform="translate(-8.14 43.82) rotate(-17.57)"/><rect class="cls-6" x="119.48" y="-36.33" width="2" height="180.09" transform="matrix(0.18, -0.98, 0.98, 0.18, 46, 162.59)"/><rect class="cls-6" x="65.07" y="52.71" width="110.82" height="2" transform="translate(-1.82 103.13) rotate(-46.03)"/><circle class="cls-7" cx="218.33" cy="22.71" r="8.58"/><circle class="cls-8" cx="182.35" cy="92.38" r="8.58"/><circle class="cls-7" cx="57.14" cy="14.13" r="8.58"/><circle class="cls-7" cx="57.14" cy="73.78" r="8.58"/><circle class="cls-9" cx="158.96" cy="13.84" r="5.28"/><circle class="cls-8" cx="31.9" cy="37.54" r="5.28"/><circle class="cls-7" cx="209.74" cy="70.01" r="5.28"/><circle class="cls-10" cx="82.01" cy="93.59" r="5.28"/><rect class="cls-11" x="102.03" y="16.76" width="48.34" height="82.1" rx="2.06"/><rect class="cls-12" x="100.03" y="14.76" width="48.34" height="82.1" rx="2.06"/><rect class="cls-6" x="105.1" y="20.37" width="38.2" height="62.74"/><rect class="cls-6" x="119.05" y="17.48" width="10.31" height="1"/><circle class="cls-6" cx="124.2" cy="89.65" r="3.02"/><path class="cls-9" d="M135.77,40.05c-2.37,0-8.73-2.56-11-3.55l-.61-.26-.59.28c-2.11,1-8.18,3.53-11,3.53h-1.46V41.5a31.48,31.48,0,0,0,12.2,25.17l.83.57.83-.57a31.52,31.52,0,0,0,12.2-25.17V40.05Zm-21.65,2.78a45.46,45.46,0,0,0,9.79-3.26v23.8A29.08,29.08,0,0,1,114.12,42.83Zm10.37,20.53V39.55a55.28,55.28,0,0,0,9.8,3.26A29.23,29.23,0,0,1,124.49,63.36Z"/></g></g></svg>