<svg xmlns="http://www.w3.org/2000/svg" xmlns:xlink="http://www.w3.org/1999/xlink" viewBox="0 0 236.63 108.28"><defs><style>.cls-1{fill:none;}.cls-2{fill:#f5f6fa;}.cls-3{fill:#0e9de5;}.cls-4{fill:#fff;}.cls-5{clip-path:url(#clip-path);}.cls-6{fill:#041742;}.cls-7{clip-path:url(#clip-path-2);}.cls-8{fill:#6ef9b7;}.cls-9{fill:#26db8d;}.cls-10{fill:#9ee7ff;}</style><clipPath id="clip-path"><circle class="cls-1" cx="14.68" cy="54.28" r="14.68"/></clipPath><clipPath id="clip-path-2"><rect class="cls-1" x="14.63" y="0.28" width="222" height="108"/></clipPath></defs><title>consensus</title><g id="Layer_2" data-name="Layer 2"><g id="Layer_1-2" data-name="Layer 1"><rect class="cls-2" x="14.63" y="0.28" width="222" height="108"/><circle class="cls-3" cx="14.68" cy="54.28" r="14.68"/><path class="cls-4" d="M18.68,49.61h-5l-.28,2c.28,0,.52,0,.84,0a5.9,5.9,0,0,1,3.42.94,3.7,3.7,0,0,1,1.58,3.26c0,2.42-2.08,4.56-5.58,4.56A8.26,8.26,0,0,1,10,59.59l.56-2.28a7.27,7.27,0,0,0,2.92.64c1.26,0,2.6-.6,2.6-2S15,53.81,12.42,53.81a10.78,10.78,0,0,0-1.74.12l.84-6.82h7.16Z"/><g class="cls-5"><polygon class="cls-6" points="18.68 47.1 30.3 58.73 26.23 70.41 23.52 73.11 10 59.59 15.44 58.69 10.68 53.93 12.65 48.36 18.68 47.1"/></g><path class="cls-4" d="M18.68,49.61h-5l-.28,2c.28,0,.52,0,.84,0a5.9,5.9,0,0,1,3.42.94,3.7,3.7,0,0,1,1.58,3.26c0,2.42-2.08,4.56-5.58,4.56A8.26,8.26,0,0,1,10,59.59l.56-2.28a7.27,7.27,0,0,0,2.92.64c1.26,0,2.6-.6,2.6-2S15,53.81,12.42,53.81a10.78,10.78,0,0,0-1.74.12l.84-6.82h7.16Z"/><g class="cls-7"><polygon class="cls-4" points="161.45 108.28 189.27 92.05 189.27 52.89 155.61 33.46 121.68 53.18 121.68 92.33 149.42 108.28 161.45 108.28"/><polygon class="cls-8" points="155.61 33.46 121.68 53.18 155.61 72.61 189.27 52.89 155.61 33.46"/><polygon class="cls-9" points="161.45 108.28 189.27 92.05 189.27 52.89 155.61 72.61 155.49 108.28 161.45 108.28"/><path class="cls-4" d="M149.35.26q-5.55,0-11.12.13L121.68,10V49.16l33.8,19.44,33.79-19.72V9.72L172.44,0C164.74.11,157.05.21,149.35.26Z"/><path class="cls-10" d="M149.35.26q-5.55,0-11.12.13L121.68,10l33.93,19.43L189.27,9.72,172.44,0C164.74.11,157.05.21,149.35.26Z"/><polygon class="cls-8" points="155.61 29.44 189.27 9.72 189.27 48.88 155.48 68.6 155.61 29.44"/><polygon class="cls-4" points="226.26 108.28 226.26 74.92 192.6 55.48 158.66 75.2 158.66 108.28 226.26 108.28"/><polygon class="cls-8" points="192.6 55.48 158.66 75.2 192.6 94.64 226.26 74.92 192.6 55.48"/><polygon class="cls-9" points="226.26 108.28 226.26 74.92 192.6 94.64 192.55 108.28 226.26 108.28"/><polygon class="cls-4" points="158.66 31.32 192.6 11.6 226.26 31.03 226.26 70.19 192.46 89.91 158.66 70.47 158.66 31.32"/><polygon class="cls-10" points="192.6 11.6 158.66 31.32 192.6 50.75 226.26 31.03 192.6 11.6"/><polygon class="cls-8" points="192.6 50.75 226.26 31.03 226.26 70.19 192.46 89.91 192.6 50.75"/><polygon class="cls-4" points="236.63 82.4 229.59 78.33 195.65 98.05 195.65 108.28 236.63 108.28 236.63 82.4"/><polygon class="cls-8" points="236.63 82.4 229.59 78.33 195.65 98.05 213.51 108.28 236.63 108.28 236.63 82.4"/><polygon class="cls-4" points="236.63 38.51 229.59 34.45 195.65 54.17 195.65 93.32 221.67 108.28 236.63 108.28 236.63 38.51"/><polygon class="cls-10" points="236.63 38.51 229.59 34.45 195.65 54.17 229.59 73.6 236.63 69.47 236.63 38.51"/><polygon class="cls-8" points="236.63 69.47 229.59 73.6 229.47 108.28 236.63 108.28 236.63 69.47"/><polygon class="cls-4" points="152.29 108.28 152.29 74.06 118.63 54.63 84.69 74.35 84.69 108.28 152.29 108.28"/><polygon class="cls-8" points="118.63 54.63 84.69 74.35 118.63 93.79 152.29 74.06 118.63 54.63"/><polygon class="cls-9" points="152.29 108.28 152.29 74.06 118.63 93.79 118.58 108.28 152.29 108.28"/><polygon class="cls-4" points="84.69 31.18 118.63 11.46 152.29 30.89 152.29 70.05 118.49 89.77 84.69 70.34 84.69 31.18"/><polygon class="cls-10" points="118.63 11.46 84.69 31.18 118.63 50.62 152.29 30.89 118.63 11.46"/><polygon class="cls-8" points="118.63 50.62 152.29 30.89 152.29 70.05 118.49 89.77 118.63 50.62"/><polygon class="cls-4" points="189.27 108.28 189.27 96.09 155.61 76.66 121.68 96.38 121.68 108.28 189.27 108.28"/><polygon class="cls-8" points="168.47 108.28 189.27 96.09 155.61 76.66 121.68 96.38 142.46 108.28 168.47 108.28"/><polygon class="cls-9" points="189.27 108.28 189.27 96.09 168.47 108.28 189.27 108.28"/><polygon class="cls-4" points="160.28 108.28 189.27 91.36 189.27 52.21 155.61 32.77 121.68 52.49 121.68 91.65 150.61 108.28 160.28 108.28"/><polygon class="cls-10" points="155.61 32.77 121.68 52.49 155.61 71.93 189.27 52.21 155.61 32.77"/><polygon class="cls-8" points="160.28 108.28 189.27 91.36 189.27 52.21 155.61 71.93 155.49 108.28 160.28 108.28"/><polygon class="cls-4" points="207.8 108.28 192.6 99.51 177.5 108.28 207.8 108.28"/><polygon class="cls-8" points="207.8 108.28 192.6 99.51 177.5 108.28 207.8 108.28"/><polygon class="cls-4" points="226.26 108.28 226.26 75.06 192.6 55.62 158.66 75.34 158.66 108.28 226.26 108.28"/><polygon class="cls-10" points="192.6 55.62 158.66 75.34 192.6 94.78 226.26 75.06 192.6 55.62"/><polygon class="cls-8" points="226.26 108.28 226.26 75.06 192.6 94.78 192.55 108.28 226.26 108.28"/><polygon class="cls-4" points="115.3 108.28 115.3 95.24 81.64 75.81 47.7 95.53 47.7 108.28 115.3 108.28"/><polygon class="cls-10" points="93.04 108.28 115.3 95.24 81.64 75.81 47.7 95.53 69.98 108.28 93.04 108.28"/><polygon class="cls-9" points="115.3 108.28 115.3 95.24 93.04 108.28 115.3 108.28"/><polygon class="cls-4" points="86.06 108.28 115.3 91.22 115.3 52.07 81.64 32.63 47.7 52.36 47.7 91.51 76.87 108.28 86.06 108.28"/><polygon class="cls-10" points="81.64 32.63 47.7 52.36 81.64 71.79 115.3 52.07 81.64 32.63"/><polygon class="cls-8" points="86.06 108.28 115.3 91.22 115.3 52.07 81.64 71.79 81.51 108.28 86.06 108.28"/><polygon class="cls-4" points="136.72 108.28 118.63 97.83 100.64 108.28 136.72 108.28"/><polygon class="cls-8" points="136.72 108.28 118.63 97.83 100.64 108.28 136.72 108.28"/><polygon class="cls-4" points="152.29 108.28 152.29 73.38 118.63 53.95 84.69 73.67 84.69 108.28 152.29 108.28"/><polygon class="cls-10" points="118.63 53.95 84.69 73.67 118.63 93.1 152.29 73.38 118.63 53.95"/><polygon class="cls-8" points="152.29 108.28 152.29 73.38 118.63 93.1 118.57 108.28 152.29 108.28"/><polygon class="cls-4" points="189.27 108.28 189.27 96.23 155.61 76.8 121.68 96.52 121.68 108.28 189.27 108.28"/><polygon class="cls-10" points="168.7 108.28 189.27 96.23 155.61 76.8 121.68 96.52 142.22 108.28 168.7 108.28"/><polygon class="cls-8" points="189.27 108.28 189.27 96.23 168.7 108.28 189.27 108.28"/></g></g></g></svg>