<svg xmlns="http://www.w3.org/2000/svg" xmlns:xlink="http://www.w3.org/1999/xlink" viewBox="0 0 236.91 108"><defs><style>.cls-1{fill:none;}.cls-2{fill:#f5f6fa;}.cls-3{clip-path:url(#clip-path);}.cls-4{fill:#d2dbeb;}.cls-5{fill:#6ef9b7;}.cls-6{fill:#26db8d;}.cls-7{fill:#fff;}.cls-8{fill:#9ee7ff;}.cls-9{fill:#88dbf2;}.cls-10{fill:#0e9de5;}.cls-11{clip-path:url(#clip-path-2);}.cls-12{fill:#041742;}</style><clipPath id="clip-path"><rect class="cls-1" x="14.91" width="222" height="108"/></clipPath><clipPath id="clip-path-2"><circle class="cls-1" cx="14.68" cy="54" r="14.68"/></clipPath></defs><title>best</title><g id="Layer_2" data-name="Layer 2"><g id="content"><rect class="cls-2" x="14.91" width="222" height="108"/><g class="cls-3"><path class="cls-4" d="M236.91,108V93.29A147.63,147.63,0,0,0,76,108Z"/></g><path class="cls-5" d="M167.46,62.7a26.65,26.65,0,1,1,26.65-26.65A26.68,26.68,0,0,1,167.46,62.7Zm0-45.71a19.07,19.07,0,1,0,19.07,19.06A19.08,19.08,0,0,0,167.46,17Z"/><rect class="cls-6" x="137.15" y="36.05" width="60.63" height="54.27" rx="0.95"/><path class="cls-7" d="M175.43,58.28a8,8,0,1,0-11.9,6.9v7a3.93,3.93,0,1,0,7.86,0v-7A7.94,7.94,0,0,0,175.43,58.28Z"/><path class="cls-8" d="M134.35,70.55c3.57.15,6,.18,6,.18l8-8-8-7.94-37.68.12a23.39,23.39,0,1,0-.06,15.89l6.17-.52,3.39-2.89s3.19,3,3.19,3l2.7.43s3.41-3.43,3.38-3.37h0l3.41,3.31,3-.21,3.11-3s2.71,3.09,3.27,3.11ZM78.44,58.74a5.57,5.57,0,1,1-7.85,0,5.56,5.56,0,0,1,7.85,0Z"/><path class="cls-9" d="M69,68.19a7.79,7.79,0,1,0,0-11,7.79,7.79,0,0,0,0,11Zm7.86-7.86a3.33,3.33,0,1,1-4.71,0,3.33,3.33,0,0,1,4.71,0Z"/><path class="cls-9" d="M146.84,61.11,139,53.25l-37-.33a23.37,23.37,0,0,1,2.1,8.19Z"/><circle class="cls-10" cx="14.68" cy="54" r="14.68"/><g class="cls-11"><polygon class="cls-12" points="9.59 56.73 23.32 70.46 32.06 60.65 18.23 46.82 14.68 47.86 9.59 56.73"/></g><path class="cls-7" d="M15.35,59.83V56.72H9.58v-2l4.91-7.92h3.74v7.62h1.54v2.28H18.23v3.11Zm0-5.39V51.56c0-.78,0-1.58.08-2.42h-.06c-.42.84-.78,1.6-1.22,2.42L12.43,54.4l0,0Z"/></g></g></svg>