<svg xmlns="http://www.w3.org/2000/svg" xmlns:xlink="http://www.w3.org/1999/xlink" viewBox="0 0 236.92 114.11"><defs><style>.cls-1{fill:none;}.cls-2{fill:#f5f6fa;}.cls-3{fill:#0e9de5;}.cls-4{clip-path:url(#clip-path);}.cls-5{fill:#041742;}.cls-6{fill:#fff;}.cls-7{clip-path:url(#clip-path-2);}.cls-8{fill:#b3b3b3;}.cls-9{fill:#4befa4;}.cls-10{fill:#6ef9b7;}.cls-11{fill:#26db8d;}.cls-12{fill:#ccc;}.cls-13{fill:#fcd2c5;}.cls-14{fill:#88dbf2;}.cls-15{fill:#9ee7ff;}.cls-16,.cls-17{fill:#d2dbeb;}.cls-16{stroke:#fff;stroke-miterlimit:10;stroke-width:1.81px;}</style><clipPath id="clip-path"><circle class="cls-1" cx="222" cy="54" r="14.68"/></clipPath><clipPath id="clip-path-2"><rect class="cls-1" width="222" height="108"/></clipPath></defs><title>best</title><g id="Layer_2" data-name="Layer 2"><g id="content"><rect class="cls-2" width="222" height="108"/><circle class="cls-3" cx="222" cy="54" r="14.68"/><g class="cls-4"><polygon class="cls-5" points="225.79 48.44 236.92 59.58 229.21 70.88 227.71 69.44 217.41 59.15 223.58 58.03 219.59 54.04 221.73 53.07 218.45 49.78 218.79 47.91 222 47.43 225.79 48.44"/></g><path class="cls-6" d="M218,56.84a6.88,6.88,0,0,0,3,.8c1.58,0,2.38-.76,2.38-1.72,0-1.3-1.28-1.88-2.6-1.88h-1.24V51.86h1.18c1,0,2.3-.4,2.3-1.5,0-.78-.62-1.36-1.92-1.36a5.77,5.77,0,0,0-2.7.78l-.62-2.2a8.09,8.09,0,0,1,4-1c2.76,0,4.3,1.46,4.3,3.24a3.1,3.1,0,0,1-2.38,3v0a3.23,3.23,0,0,1,2.82,3.18c0,2.29-2,4-5.32,4a7.92,7.92,0,0,1-3.86-.9Z"/><g class="cls-7"><path class="cls-8" d="M199.81,73.34c1,.31,3.18,1.26,3.34,1.33a12.28,12.28,0,0,1,1.85.89,1.92,1.92,0,0,1,.43,1.12.6.6,0,0,1-.48.47c0,.52-1.24.37-1.21.5.16.5-.48.87-2.17.08-.1,0-4.61-1.16-6-1.63a18.94,18.94,0,0,1,1.71-3.4A19,19,0,0,1,199.81,73.34Z"/><path class="cls-8" d="M167,37.06c2.15,3.56,5.87,16.45,8.83,22.28,3.63,7.15-2.65,7.13-4.45,5.32-4.74-4.77-15.47-20.1-13.25-22.81C159.13,40.68,166.65,36.42,167,37.06Z"/><path class="cls-9" d="M167,37.06c1.52,2.51,4.09,9.68,6.93,15.4a49.29,49.29,0,0,1-6.2,3.74c-.77.39-3.09,1.64-3.89,2-4.43-6.16-7.19-14.5-5.71-16.31C159.13,40.68,166.65,36.42,167,37.06Z"/><path class="cls-8" d="M174.08,59.93a2.66,2.66,0,0,1,.83.2C179,62,193,71.49,197.53,72.75a14.8,14.8,0,0,0-1.41,3.52c-7.48-2.22-25.48-9.84-25.47-12.95C170.65,60.46,172.68,59.78,174.08,59.93Z"/><path class="cls-8" d="M200.13,72.48c.39-.14.77-.4.89.14.11.34-1.45,1.12-1.78,1.23-1.49.51-1.84-.36-1.35-1A7.12,7.12,0,0,0,200.13,72.48Z"/><path class="cls-6" d="M155.78,113.69c.49-7.83.71-13.37,1.49-14V81.28c-7.06.46-17.31-.59-19.65-1.61-.2,1.44.85,16,2.23,33.43Q147.82,113.43,155.78,113.69Z"/><path class="cls-6" d="M171.19,114.11c1.41-17.85,2.52-33,2.31-34.44-2.34,1-12.59,2.07-19.65,1.61V99.71c.78.61,1,6.14,1.49,14Q163.26,113.93,171.19,114.11Z"/><path class="cls-9" d="M173.51,76s1.4,9.27.39,10.28c-2.28,2.29-9.61-.06-16.63-.41s-19.77,2-20.16.58.86-8.92.86-8.92Z"/><path class="cls-8" d="M152.14,24.74c.51.33,5.8,2.78,7.23,2.46,0,.4-.65,4.72.45,6.94-.25,2.16-6.14,2.6-8-.89C152.4,32.18,152.57,26.68,152.14,24.74Z"/><path class="cls-5" d="M136.33,21.88c0-18.2,15.26-11.63,15.26-6.85,0,1.18-.59,1.91-1.64.74-1.76-2-7.68-3.4-3.52,7.39,1.1,2.84,5.16,6.32-2.7,12.17-7.1,5.3-.83,6.68-1.08,8.91-.65,5.71-16.17-5.46-9-14.47C135.06,28,136.33,27.37,136.33,21.88Z"/><path class="cls-8" d="M157,17.3c2.66-.37,5.29.06,6.06,2.54.28.89.48,9.07-3.78,10.62-1.8.65-5.57-2.24-5.87-4.37,0,0-.41-2.9-.41-2.93C152.56,20.33,154.11,17.71,157,17.3Z"/><path class="cls-10" d="M145.94,35.28c1.48-.47,5.86-2,5.86-2s3.37,2.52,5.47,2.52a3.73,3.73,0,0,0,2.55-1.63s5.29,1.2,6.27,1.68c3.8,1.85,4.07,5.42,4.54,8.36s4.67,33.44,3.86,35.14c-2,4.16-34.55,4.23-37.22,0-1.05-1.66,3.08-33.64,3.09-35.11C140.38,40.25,141.49,36.69,145.94,35.28Z"/><path class="cls-5" d="M160.81,15.89c4.66.55,4.15,7.35,2.11,8.48.64-5-2.83-6.38-2.83-6.38-6.24.36-7.87,8-7.32,9.84,0,0-7.4-5.68-1.91-11.43C154.5,12.58,160.81,15.89,160.81,15.89Z"/><path class="cls-8" d="M153,22a2.41,2.41,0,0,1,1.22.33c-.2,1-.74,2.58-1,3.37a2.58,2.58,0,0,1-1.61-1.91C151.56,23.06,152.24,22.05,153,22Z"/><path class="cls-11" d="M150.69,14.74a1.75,1.75,0,0,1,1-.35,2.28,2.28,0,0,1,1.41.56,9.56,9.56,0,0,0-3.29,2.63C149.37,16.7,149.33,15.7,150.69,14.74Z"/><path class="cls-8" d="M134.71,91.87c.24.33.6.63.11.89-.3.2-1.41-.91-1.5-1.26,0-.89.55-.86.46-1.71A8.08,8.08,0,0,0,134.71,91.87Z"/><path class="cls-8" d="M130,88.41a19.86,19.86,0,0,1,3.73.74,17.77,17.77,0,0,1,.07,2.64c0,1-.36,3.4-.39,3.57a12.6,12.6,0,0,1-.36,2,2,2,0,0,1-1,.71.61.61,0,0,1-.59-.33c-.48.18-.69-1.1-.8-1-.44.28-1-.24-.66-2.07C130.06,94.55,129.92,89.9,130,88.41Z"/><path class="cls-8" d="M142.71,38.7c.36-.66,8.07,3.25,9.08,4.38,2.34,2.61-7.68,18.41-12.19,23.39-1.71,1.89-8,2.2-4.69-5.11C137.6,55.4,140.73,42.36,142.71,38.7Z"/><path class="cls-9" d="M151.79,43.08c1.56,1.74-.82,10.2-4.95,16.56-.82-.29-3.19-1.43-4-1.78a51.88,51.88,0,0,1-6.35-3.45c2.57-5.85,4.81-13.13,6.21-15.71C143.07,38,150.78,42,151.79,43.08Z"/><path class="cls-8" d="M135.65,61c2.76-.75,3.95,1,4.19,2.4a2.8,2.8,0,0,1,0,.86c-.69,4.44-6.12,20.43-6.1,25.17A14.91,14.91,0,0,0,130,89C130.12,81.21,132.65,61.83,135.65,61Z"/><path class="cls-12" d="M23.22,62.36c-.34-.24-.64-.59-.89-.1-.2.31.93,1.41,1.27,1.49.89,0,.86-.57,1.71-.49A7.31,7.31,0,0,1,23.22,62.36Z"/><path class="cls-12" d="M26,63.3a19.31,19.31,0,0,0-2.64,0c-1,0-3.4.41-3.56.44a13.47,13.47,0,0,0-2,.38,2.05,2.05,0,0,0-.7,1,.61.61,0,0,0,.34.59c-.17.48,1.11.67,1,.78-.28.45.25,1,2.08.64.11,0,4.76.05,6.25,0A19.7,19.7,0,0,0,26,63.3Z"/><path class="cls-13" d="M51.61,56.85a2.71,2.71,0,0,0-.85,0c-4.43.75-20.35,6.39-25.09,6.44A14.77,14.77,0,0,1,26.14,67c7.8-.24,27.14-3,27.93-6C54.79,58.24,53,57.07,51.61,56.85Z"/><path class="cls-13" d="M64.24,36.53c-3,2.9-9.86,14.41-14.21,19.3-5.33,6,.75,7.57,2.95,6.28,5.8-3.41,20.08-15.5,18.62-18.68C71,42.05,64.78,36,64.24,36.53Z"/><path class="cls-14" d="M64.53,35.58a1.07,1.07,0,0,0-.94.28c-1.56,1.51-4.06,5.16-6.71,9S48.63,56,48.35,56.43c-1.88.49-19.94,5.88-22.69,5.91L26.17,68C33,67.77,49,65.62,53.51,62.88,58.23,60.09,74.43,47.37,72.46,43,71.8,41.59,66.09,35.82,64.53,35.58Z"/><path class="cls-6" d="M56.72,110.77q7.58-.08,15.15,0c2.11-7,3.88-11.91,4.67-12.42L78.25,80c-7.08-.2-17.19-2.19-19.42-3.43-.34,1.46-2.66,16.6-4,34.53A5.19,5.19,0,0,1,56.72,110.77Z"/><path class="cls-6" d="M88.41,111.11c2.28-15.15,4.44-29.9,4.44-29.9-7.06.37-17.3-.83-19.62-1.89C73,80.71,72,94.26,72,110.79Q80.19,110.88,88.41,111.11Z"/><path class="cls-12" d="M62.4,26.77c0,.4,1.15,4.63.29,7,.48,2.12,6.38,1.93,7.88-1.74-.71-1-1.46-6.45-1.24-8.42C68.85,23.94,63.86,26.94,62.4,26.77Z"/><path class="cls-12" d="M63.74,16.68c-2.68-.1-5.24.61-5.75,3.16-.18.91.49,9.07,4.89,10.16,1.86.46,5.29-2.82,5.37-5,0,0,.1-2.93.1-3C68.44,19.22,66.63,16.77,63.74,16.68Z"/><path class="cls-15" d="M76.62,33.37C75.16,32.84,70.57,32,70.57,32s-3.08,2.87-5.17,3.09c-1.44.16-2.71-1.35-2.71-1.35s-5.13,1.75-6,2.33c-3.58,2.25-2.22,7-2,11,.1,2.33,3.92,23.95.74,44.47,8.92,4.62,17.6,8,30.72,2.42l.42-13.35,2.94,12.76c.85-.13,2.63-.12,3.3-.19C96.32,54.59,89.65,38.14,76.62,33.37Z"/><path class="cls-14" d="M70.57,32s-3.08,2.87-5.17,3.09c-1.44.16-2.71-1.35-2.71-1.35s-4.8,1.64-5.94,2.27c.45,4.23,5.41,8.51,5.41,8.51s8.69-8.09,14.46-11.13a13.59,13.59,0,0,0-3-.87Z"/><path class="cls-5" d="M69.8,12.3c-5.2-5-14.79-.72-15.15,5-.08,1.25,1,4.34,12.9,2.12C68.92,21.46,69.36,26,69.36,26,73,23,73.78,16.08,69.8,12.3Z"/><path class="cls-12" d="M68.81,20.91a2.46,2.46,0,0,0-1.26.15c.06,1,.37,2.66.52,3.48a2.56,2.56,0,0,0,1.86-1.66A1.84,1.84,0,0,0,68.81,20.91Z"/><path class="cls-12" d="M45.91,82.33c0,.36,1.44.88,1.79.81.79-.41.54-.87,1.34-1.16a7.51,7.51,0,0,1-2.27.07C46.36,82,45.94,81.78,45.91,82.33Z"/><path class="cls-12" d="M47.23,82.83c-.94.48-2.91,1.8-3,1.9a12.21,12.21,0,0,0-1.67,1.2,1.94,1.94,0,0,0-.23,1.18.62.62,0,0,0,.56.38c0,.51,1.29.15,1.27.27-.06.53.63.77,2.15-.3.09-.06,4.34-1.95,5.65-2.67a19,19,0,0,0-2.29-3A19.49,19.49,0,0,0,47.23,82.83Z"/><path class="cls-15" d="M73,40.35a1.1,1.1,0,0,0-.74.65c-.77,2-1.5,6.4-2.27,11a118.14,118.14,0,0,1-2.51,12.53c-.16.53-.28,1-.38,1.53-1.49,1.23-3.44,3-5.5,4.79-4.5,4-10.1,8.94-12.58,10.13l2.84,4.9c6.13-3.08,19.73-11.77,22.66-16.15,3.09-4.51,12.43-22.88,8.81-26C82.07,42.74,74.47,39.91,73,40.35Z"/></g><path class="cls-16" d="M144.56,23.36c-6.49,0-23.88-7-30-9.69L112.88,13l-1.64.76c-5.75,2.68-22.34,9.65-29.95,9.65h-4v4c0,45.22,32,67.85,33.35,68.8l2.27,1.56,2.27-1.57c1.36-.94,33.34-23.66,33.34-68.79v-4ZM85.35,31c9.06-1.38,21.41-6.55,26.78-8.93V87.13A79.52,79.52,0,0,1,85.35,31ZM113.72,87.1V22c5.45,2.3,18.23,7.44,26.78,8.93A80,80,0,0,1,113.72,87.1Z"/><polygon class="cls-11" points="80.1 26.89 113.72 17.32 145.09 26.89 135.42 68.96 112.13 92.87 89.35 63.28 80.1 26.89"/><polygon class="cls-6" points="113.72 19.95 142.78 27.94 138.36 57.18 113.1 92.87 113.72 19.95"/><path class="cls-17" d="M144.56,23.36c-6.49,0-23.88-7-30-9.69L112.88,13l-1.64.76c-5.75,2.68-22.34,9.65-29.95,9.65h-4v4c0,45.22,32,67.85,33.35,68.8l2.27,1.56,2.27-1.57c1.36-.94,33.34-23.66,33.34-68.79v-4ZM85.35,31c9.06-1.38,21.41-6.55,26.78-8.93V87.13A79.52,79.52,0,0,1,85.35,31ZM113.72,87.1V22c5.45,2.3,18.23,7.44,26.78,8.93A80,80,0,0,1,113.72,87.1Z"/></g></g></svg>