<svg xmlns="http://www.w3.org/2000/svg" xmlns:xlink="http://www.w3.org/1999/xlink" viewBox="0 0 236.68 114.11"><defs><style>.cls-1{fill:none;}.cls-2{fill:#f5f6fa;}.cls-3{clip-path:url(#clip-path);}.cls-4{fill:#b3b3b3;}.cls-5{fill:#4befa4;}.cls-6{fill:#fff;}.cls-7{fill:#041742;}.cls-8{fill:#6ef9b7;}.cls-9{fill:#26db8d;}.cls-10{fill:#ccc;}.cls-11{fill:#fcd2c5;}.cls-12{fill:#88dbf2;}.cls-13{fill:#9ee7ff;}.cls-14,.cls-15{fill:#d2dbeb;}.cls-14{stroke:#fff;stroke-miterlimit:10;stroke-width:1.81px;}.cls-16{fill:#0e9de5;}.cls-17{clip-path:url(#clip-path-2);}</style><clipPath id="clip-path"><rect class="cls-1" x="14.68" width="222" height="108"/></clipPath><clipPath id="clip-path-2"><circle class="cls-1" cx="14.68" cy="54" r="14.68"/></clipPath></defs><title>tools</title><g id="Layer_2" data-name="Layer 2"><g id="content"><rect class="cls-2" x="14.68" width="222" height="108"/><g class="cls-3"><path class="cls-4" d="M214.49,73.34c1,.31,3.18,1.26,3.33,1.33a12.9,12.9,0,0,1,1.86.89,2.07,2.07,0,0,1,.43,1.12.6.6,0,0,1-.48.47c0,.52-1.25.37-1.21.5.16.5-.49.87-2.17.08-.1,0-4.61-1.16-6-1.63a19.64,19.64,0,0,1,1.71-3.4A18.79,18.79,0,0,1,214.49,73.34Z"/><path class="cls-4" d="M181.72,37.06c2.14,3.56,5.86,16.45,8.83,22.28,3.63,7.15-2.66,7.13-4.46,5.32-4.73-4.77-15.46-20.1-13.25-22.81C173.8,40.68,181.33,36.42,181.72,37.06Z"/><path class="cls-5" d="M181.72,37.06c1.51,2.51,4.09,9.68,6.92,15.4a48.47,48.47,0,0,1-6.19,3.74c-.78.39-3.1,1.64-3.9,2-4.42-6.16-7.19-14.5-5.71-16.31C173.8,40.68,181.33,36.42,181.72,37.06Z"/><path class="cls-4" d="M188.76,59.93a2.73,2.73,0,0,1,.83.2c4.09,1.86,18,11.36,22.61,12.62a14.8,14.8,0,0,0-1.41,3.52c-7.48-2.22-25.48-9.84-25.47-12.95C185.33,60.46,187.35,59.78,188.76,59.93Z"/><path class="cls-4" d="M214.81,72.48c.39-.14.77-.4.89.14.11.34-1.45,1.12-1.79,1.23-1.49.51-1.83-.36-1.35-1A7.18,7.18,0,0,0,214.81,72.48Z"/><path class="cls-6" d="M170.46,113.69c.49-7.83.71-13.37,1.49-14V81.28c-7.06.46-17.31-.59-19.66-1.61-.2,1.44.86,16,2.24,33.43Q162.5,113.43,170.46,113.69Z"/><path class="cls-6" d="M185.86,114.11c1.42-17.85,2.52-33,2.32-34.44-2.34,1-12.59,2.07-19.66,1.61V99.71c.78.61,1,6.14,1.49,14Q177.95,113.93,185.86,114.11Z"/><path class="cls-5" d="M188.19,76s1.39,9.27.39,10.28c-2.29,2.29-9.62-.06-16.63-.41s-19.77,2-20.16.58.86-8.92.86-8.92Z"/><path class="cls-4" d="M166.81,24.74c.52.33,5.8,2.78,7.24,2.46,0,.4-.65,4.72.45,6.94-.25,2.16-6.14,2.6-8-.89C167.08,32.18,167.24,26.68,166.81,24.74Z"/><path class="cls-7" d="M151,21.88c0-18.2,15.26-11.63,15.26-6.85,0,1.18-.59,1.91-1.63.74-1.76-2-7.69-3.4-3.52,7.39,1.09,2.84,5.15,6.32-2.7,12.17-7.11,5.3-.83,6.68-1.08,8.91-.65,5.71-16.17-5.46-9-14.47C149.74,28,151,27.37,151,21.88Z"/><path class="cls-4" d="M171.64,17.3c2.65-.37,5.28.06,6.05,2.54.28.89.48,9.07-3.78,10.62-1.8.65-5.56-2.24-5.86-4.37,0,0-.41-2.9-.42-2.93C167.24,20.33,168.78,17.71,171.64,17.3Z"/><path class="cls-8" d="M160.61,35.28c1.48-.47,5.86-2,5.86-2s3.37,2.52,5.48,2.52c1.44,0,2.55-1.63,2.55-1.63s5.29,1.2,6.27,1.68c3.79,1.85,4.06,5.42,4.54,8.36s4.66,33.44,3.86,35.14c-2,4.16-34.55,4.23-37.23,0-1.05-1.66,3.09-33.64,3.1-35.11C155.06,40.25,156.17,36.69,160.61,35.28Z"/><path class="cls-7" d="M175.49,15.89c4.66.55,4.15,7.35,2.11,8.48.64-5-2.84-6.38-2.84-6.38-6.24.36-7.87,8-7.31,9.84,0,0-7.4-5.68-1.92-11.43C169.17,12.58,175.49,15.89,175.49,15.89Z"/><path class="cls-4" d="M167.66,22a2.46,2.46,0,0,1,1.22.33,33.12,33.12,0,0,1-1,3.37,2.6,2.6,0,0,1-1.61-1.91C166.24,23.06,166.92,22.05,167.66,22Z"/><path class="cls-9" d="M165.36,14.74a1.78,1.78,0,0,1,1-.35,2.32,2.32,0,0,1,1.41.56,9.44,9.44,0,0,0-3.29,2.63C164,16.7,164,15.7,165.36,14.74Z"/><path class="cls-4" d="M149.39,91.87c.24.33.6.63.11.89-.3.2-1.42-.91-1.51-1.26,0-.89.56-.86.47-1.71A7.45,7.45,0,0,0,149.39,91.87Z"/><path class="cls-4" d="M144.68,88.41a19.86,19.86,0,0,1,3.73.74,21,21,0,0,1,.07,2.64c0,1-.37,3.4-.39,3.57a13.81,13.81,0,0,1-.36,2,2,2,0,0,1-1,.71.6.6,0,0,1-.59-.33c-.49.18-.69-1.1-.8-1-.44.28-1-.24-.66-2.07C144.74,94.55,144.6,89.9,144.68,88.41Z"/><path class="cls-4" d="M157.39,38.7c.36-.66,8.07,3.25,9.08,4.38,2.34,2.61-7.68,18.41-12.19,23.39-1.72,1.89-8,2.2-4.69-5.11C152.28,55.4,155.4,42.36,157.39,38.7Z"/><path class="cls-5" d="M166.47,43.08c1.56,1.74-.82,10.2-5,16.56-.81-.29-3.19-1.43-4-1.78a51.28,51.28,0,0,1-6.36-3.45c2.57-5.85,4.82-13.13,6.22-15.71C157.75,38,165.46,42,166.47,43.08Z"/><path class="cls-4" d="M150.33,61c2.75-.75,3.95,1,4.19,2.4a3.16,3.16,0,0,1,0,.86c-.7,4.44-6.12,20.43-6.11,25.17a14.91,14.91,0,0,0-3.77-.42C144.8,81.21,147.32,61.83,150.33,61Z"/><path class="cls-10" d="M37.9,62.36c-.34-.24-.64-.59-.9-.1-.19.31.93,1.41,1.28,1.49.89,0,.86-.57,1.7-.49A7.37,7.37,0,0,1,37.9,62.36Z"/><path class="cls-10" d="M40.62,63.3a19.15,19.15,0,0,0-2.63,0c-1.06,0-3.4.41-3.56.44a13.23,13.23,0,0,0-2,.38,2,2,0,0,0-.7,1,.6.6,0,0,0,.34.59c-.17.48,1.11.67,1,.78-.28.45.25,1,2.08.64.11,0,4.75.05,6.24,0A18.21,18.21,0,0,0,40.62,63.3Z"/><path class="cls-11" d="M66.29,56.85a2.77,2.77,0,0,0-.86,0c-4.43.75-20.34,6.39-25.08,6.44A14.77,14.77,0,0,1,40.82,67c7.79-.24,27.14-3,27.93-6C69.47,58.24,67.68,57.07,66.29,56.85Z"/><path class="cls-11" d="M78.92,36.53c-3,2.9-9.86,14.41-14.21,19.3-5.33,6,.75,7.57,3,6.28,5.79-3.41,20.07-15.5,18.62-18.68C85.65,42.05,79.46,36,78.92,36.53Z"/><path class="cls-12" d="M79.21,35.58a1.06,1.06,0,0,0-.94.28c-1.56,1.51-4.06,5.16-6.71,9S63.31,56,63,56.43c-1.87.49-19.93,5.88-22.68,5.91L40.85,68c6.86-.21,22.86-2.36,27.34-5.1,4.72-2.79,20.92-15.51,19-19.84C86.47,41.59,80.77,35.82,79.21,35.58Z"/><path class="cls-6" d="M71.39,110.77q7.59-.08,15.16,0c2.1-7,3.88-11.91,4.67-12.42L92.92,80c-7.07-.2-17.18-2.19-19.42-3.43-.34,1.46-2.66,16.6-4,34.53A5.13,5.13,0,0,1,71.39,110.77Z"/><path class="cls-6" d="M103.09,111.11c2.27-15.15,4.44-29.9,4.44-29.9-7.07.37-17.3-.83-19.63-1.89-.21,1.39-1.21,14.94-1.25,31.47Q94.87,110.88,103.09,111.11Z"/><path class="cls-10" d="M77.07,26.77c0,.4,1.16,4.63.29,7,.48,2.12,6.39,1.93,7.89-1.74-.71-1-1.46-6.45-1.24-8.42C83.53,23.94,78.53,26.94,77.07,26.77Z"/><path class="cls-10" d="M78.42,16.68c-2.68-.1-5.25.61-5.75,3.16-.19.91.48,9.07,4.89,10.16,1.86.46,5.29-2.82,5.36-5,0,0,.1-2.93.1-3C83.12,19.22,81.3,16.77,78.42,16.68Z"/><path class="cls-13" d="M91.29,33.37c-1.45-.53-6-1.39-6-1.39s-3.08,2.87-5.17,3.09c-1.44.16-2.72-1.35-2.72-1.35s-5.12,1.75-6,2.33c-3.58,2.25-2.21,7-2,11C69.39,49.4,73.21,71,70,91.54c8.92,4.62,17.61,8,30.72,2.42l.43-13.35,2.94,12.76c.85-.13,2.63-.12,3.3-.19C111,54.59,104.33,38.14,91.29,33.37Z"/><path class="cls-12" d="M85.25,32s-3.08,2.87-5.17,3.09c-1.44.16-2.72-1.35-2.72-1.35S72.57,35.36,71.42,36c.46,4.23,5.42,8.51,5.42,8.51s8.68-8.09,14.45-11.13a13.37,13.37,0,0,0-3-.87Z"/><path class="cls-7" d="M84.48,12.3c-5.21-5-14.79-.72-15.16,5-.08,1.25,1,4.34,12.91,2.12C83.6,21.46,84,26,84,26,87.63,23,88.46,16.08,84.48,12.3Z"/><path class="cls-10" d="M83.48,20.91a2.42,2.42,0,0,0-1.25.15c.06,1,.36,2.66.51,3.48a2.58,2.58,0,0,0,1.87-1.66A1.85,1.85,0,0,0,83.48,20.91Z"/><path class="cls-10" d="M60.59,82.33c-.05.36,1.43.88,1.78.81.79-.41.55-.87,1.34-1.16a7.51,7.51,0,0,1-2.27.07C61,82,60.61,81.78,60.59,82.33Z"/><path class="cls-10" d="M61.91,82.83c-.94.48-2.91,1.8-3,1.9a13.58,13.58,0,0,0-1.67,1.2A2,2,0,0,0,57,87.11a.6.6,0,0,0,.55.38c0,.51,1.29.15,1.28.27-.07.53.63.77,2.15-.3.09-.06,4.34-1.95,5.64-2.67a18.44,18.44,0,0,0-2.28-3A19.49,19.49,0,0,0,61.91,82.83Z"/><path class="cls-13" d="M87.63,40.35a1.1,1.1,0,0,0-.74.65c-.78,2-1.51,6.4-2.28,11A118.14,118.14,0,0,1,82.1,64.55c-.15.53-.28,1-.37,1.53-1.49,1.23-3.45,3-5.51,4.79-4.49,4-10.09,8.94-12.57,10.13l2.84,4.9c6.13-3.08,19.73-11.77,22.65-16.15,3.1-4.51,12.43-22.88,8.82-26C96.75,42.74,89.14,39.91,87.63,40.35Z"/></g><path class="cls-14" d="M159.24,23.36c-6.49,0-23.88-7-30-9.69L127.55,13l-1.63.76c-5.75,2.68-22.35,9.65-29.95,9.65H92v4c0,45.22,32,67.85,33.36,68.8l2.27,1.56,2.26-1.57c1.37-.94,33.35-23.66,33.35-68.79v-4ZM100,31c9-1.38,21.4-6.55,26.78-8.93V87.13A79.48,79.48,0,0,1,100,31ZM128.4,87.1V22c5.44,2.3,18.23,7.44,26.78,8.93A80,80,0,0,1,128.4,87.1Z"/><polygon class="cls-9" points="94.77 26.89 128.4 17.32 159.77 26.89 150.09 68.96 126.81 92.87 104.03 63.28 94.77 26.89"/><polygon class="cls-6" points="128.4 19.95 157.46 27.94 153.04 57.18 127.78 92.87 128.4 19.95"/><path class="cls-15" d="M159.24,23.36c-6.49,0-23.88-7-30-9.69L127.55,13l-1.63.76c-5.75,2.68-22.35,9.65-29.95,9.65H92v4c0,45.22,32,67.85,33.36,68.8l2.27,1.56,2.26-1.57c1.37-.94,33.35-23.66,33.35-68.79v-4ZM100,31c9-1.38,21.4-6.55,26.78-8.93V87.13A79.48,79.48,0,0,1,100,31ZM128.4,87.1V22c5.44,2.3,18.23,7.44,26.78,8.93A80,80,0,0,1,128.4,87.1Z"/><circle class="cls-16" cx="14.68" cy="54" r="14.68"/><g class="cls-17"><polygon class="cls-7" points="18.46 48.44 29.6 59.58 21.89 70.88 20.38 69.44 10.09 59.15 16.25 58.03 12.27 54.04 14.41 53.07 11.13 49.78 11.46 47.91 14.68 47.43 18.46 48.44"/></g><path class="cls-6" d="M10.71,56.84a6.88,6.88,0,0,0,3,.8c1.58,0,2.38-.76,2.38-1.72,0-1.3-1.28-1.88-2.6-1.88H12.27V51.86h1.18c1,0,2.3-.4,2.3-1.5,0-.78-.62-1.36-1.92-1.36a5.77,5.77,0,0,0-2.7.78l-.62-2.2a8.09,8.09,0,0,1,4-1c2.76,0,4.3,1.46,4.3,3.24a3.1,3.1,0,0,1-2.38,3v0a3.23,3.23,0,0,1,2.82,3.18c0,2.29-2,4-5.32,4a7.92,7.92,0,0,1-3.86-.9Z"/></g></g></svg>