<svg xmlns="http://www.w3.org/2000/svg" xmlns:xlink="http://www.w3.org/1999/xlink" viewBox="0 0 239.15 108"><defs><style>.cls-1{fill:none;}.cls-2{fill:#f5f6fa;}.cls-3{fill:#0e9de5;}.cls-4{clip-path:url(#clip-path);}.cls-5{fill:#041742;}.cls-6{fill:#fff;}.cls-7{clip-path:url(#clip-path-2);}.cls-8{fill:#d2dbeb;}.cls-9{fill:#6ef9b7;}.cls-10{fill:#26db8d;}.cls-11{fill:#9ee7ff;}.cls-12{fill:#88dbf2;}</style><clipPath id="clip-path"><circle class="cls-1" cx="221.77" cy="54" r="14.68"/></clipPath><clipPath id="clip-path-2"><rect class="cls-1" width="222" height="108"/></clipPath></defs><title>tools</title><g id="Layer_2" data-name="Layer 2"><g id="content"><rect class="cls-2" width="222" height="108"/><circle class="cls-3" cx="221.77" cy="54" r="14.68"/><g class="cls-4"><polygon class="cls-5" points="216.68 56.73 230.41 70.46 239.15 60.65 225.32 46.82 221.77 47.86 216.68 56.73"/></g><path class="cls-6" d="M222.44,59.83V56.72h-5.76v-2l4.9-7.92h3.74v7.62h1.54v2.28h-1.54v3.11Zm0-5.39V51.56c0-.78,0-1.58.08-2.42h-.06c-.42.84-.78,1.6-1.22,2.42l-1.72,2.84,0,0Z"/><g class="cls-7"><path class="cls-8" d="M222,108V93.29A147.61,147.61,0,0,0,61.12,108Z"/></g><path class="cls-9" d="M152.55,62.7A26.65,26.65,0,1,1,179.2,36.05,26.68,26.68,0,0,1,152.55,62.7Zm0-45.71a19.07,19.07,0,1,0,19.07,19.06A19.08,19.08,0,0,0,152.55,17Z"/><rect class="cls-10" x="122.24" y="36.05" width="60.63" height="54.27" rx="0.95"/><path class="cls-6" d="M160.53,58.28a8,8,0,1,0-11.9,6.9v7a3.93,3.93,0,1,0,7.85,0v-7A7.93,7.93,0,0,0,160.53,58.28Z"/><path class="cls-11" d="M119.45,70.55c3.56.15,6,.18,6,.18l8-8-8-7.94-37.69.12a23.33,23.33,0,1,0,0,15.89L94,70.24l3.38-2.89s3.19,3,3.19,3l2.71.43s3.41-3.43,3.37-3.37h0L110,70.68l3-.21,3.1-3s2.71,3.09,3.28,3.11ZM63.54,58.74a5.57,5.57,0,1,1-7.86,0,5.55,5.55,0,0,1,7.86,0Z"/><path class="cls-12" d="M54.08,68.19a7.79,7.79,0,1,0,0-11,7.79,7.79,0,0,0,0,11ZM62,60.33a3.34,3.34,0,1,1-4.72,0,3.34,3.34,0,0,1,4.72,0Z"/><path class="cls-12" d="M131.93,61.11l-7.86-7.86-37-.33a23.59,23.59,0,0,1,2.1,8.19Z"/></g></g></svg>