<svg xmlns="http://www.w3.org/2000/svg" xmlns:xlink="http://www.w3.org/1999/xlink" viewBox="0 0 237.17 108"><defs><style>.cls-1{fill:none;}.cls-2{fill:#f5f6fa;}.cls-3{fill:#0e9de5;}.cls-4{clip-path:url(#clip-path);}.cls-5{fill:#041742;}.cls-6{fill:#fff;}.cls-7{fill:#9ee7ff;}.cls-8{fill:#afc4d5;}.cls-9{fill:#d2dbeb;}.cls-10{fill:#fcfaf8;}.cls-11{clip-path:url(#clip-path-2);}.cls-12{fill:#26db8d;}.cls-13{clip-path:url(#clip-path-3);}</style><clipPath id="clip-path"><circle class="cls-1" cx="222" cy="54" r="14.68"/></clipPath><clipPath id="clip-path-2"><rect class="cls-1" x="59.74" y="20.94" width="99.14" height="62.77"/></clipPath><clipPath id="clip-path-3"><rect class="cls-1" x="157.05" y="59.55" width="19.35" height="31.79"/></clipPath></defs><title>where</title><g id="Layer_2" data-name="Layer 2"><g id="content"><rect class="cls-2" width="222" height="108"/><circle class="cls-3" cx="222" cy="54" r="14.68"/><g class="cls-4"><polygon class="cls-5" points="218.41 50.1 223.16 54.86 217.39 59.83 229.32 71.75 229.24 70.45 237.17 59.75 225.28 47.86 218.24 47.86 218.41 50.1"/></g><path class="cls-6" d="M217.39,59.83V58l1.66-1.5c2.86-2.56,4.24-4,4.26-5.54,0-1.06-.62-1.9-2.12-1.9a4.83,4.83,0,0,0-2.78,1.06l-.86-2.16a7.13,7.13,0,0,1,4.24-1.34c3,0,4.56,1.72,4.56,4.08,0,2.18-1.56,3.92-3.46,5.6l-1.2,1v0h4.92v2.51Z"/><circle class="cls-7" cx="58.74" cy="36.03" r="29.6"/><circle class="cls-7" cx="165.19" cy="60.84" r="21.4"/><circle class="cls-7" cx="85.55" cy="87.6" r="15.97"/><rect class="cls-8" x="56.63" y="17.51" width="105.53" height="73.02" rx="3.57"/><path class="cls-8" d="M174.53,90.79c0,1.38-3.48,1.5-5.32,1.5H48.76c-1.84,0-5.32-.12-5.32-1.5Z"/><polygon class="cls-9" points="108.74 88.35 43.44 88.35 43.44 90.65 108.74 90.65 174.53 90.65 174.53 88.35 108.74 88.35"/><polygon class="cls-10" points="108.74 90.56 43.44 90.56 43.44 90.79 108.74 90.79 174.53 90.79 174.53 90.56 108.74 90.56"/><path class="cls-2" d="M108.74,88.35h-8.15a2.22,2.22,0,0,0,2,1.15h13.3a2.22,2.22,0,0,0,2-1.15Z"/><rect class="cls-6" x="59.74" y="20.94" width="99.14" height="62.77"/><g class="cls-11"><circle class="cls-12" cx="58.74" cy="36.03" r="29.6"/><circle class="cls-12" cx="165.19" cy="60.84" r="21.4"/><circle class="cls-12" cx="85.55" cy="87.6" r="15.97"/></g><rect class="cls-9" x="154.48" y="56.7" width="24.49" height="41.6" rx="2.06"/><rect class="cls-6" x="157.05" y="59.55" width="19.35" height="31.79"/><rect class="cls-8" x="164.11" y="58.08" width="5.22" height="0.51"/><circle class="cls-8" cx="166.72" cy="94.65" r="1.53"/><g class="cls-13"><circle class="cls-12" cx="165.19" cy="60.84" r="21.4"/></g></g></g></svg>