<svg xmlns="http://www.w3.org/2000/svg" xmlns:xlink="http://www.w3.org/1999/xlink" viewBox="0 0 242.34 108"><defs><style>.cls-1{fill:none;}.cls-2{fill:#f5f6fa;}.cls-3{fill:#0e9de5;}.cls-4{clip-path:url(#clip-path);}.cls-5{fill:#041742;}.cls-6{fill:#fff;}.cls-7{fill:#9ee7ff;}.cls-10,.cls-8{fill:#d2dbeb;}.cls-8{stroke:#fff;stroke-miterlimit:10;stroke-width:2px;}.cls-9{fill:#26db8d;}</style><clipPath id="clip-path"><circle class="cls-1" cx="222" cy="54" r="14.68"/></clipPath></defs><title>why</title><g id="Layer_2" data-name="Layer 2"><g id="content"><rect class="cls-2" width="222" height="108"/><circle class="cls-3" cx="222" cy="54" r="14.68"/><g class="cls-4"><polygon class="cls-5" points="218.19 51.53 223.42 56.75 221.14 62.21 234.46 75.53 242.34 64.74 224.59 46.98 218.19 51.53"/></g><path class="cls-6" d="M221.14,50.15h0l-2.91,1.38-.58-2.67,4-1.88h2.93V62.21h-3.45Z"/><path class="cls-7" d="M222,94.41A147.52,147.52,0,0,0,0,94.5V108H222Z"/><path class="cls-8" d="M147.9,19.2c-7.19,0-26.45-7.75-33.26-10.73l-1.83-.8L111,8.51c-6.37,3-24.74,10.69-33.16,10.69H73.43v4.41c0,50.07,35.42,75.14,36.93,76.18l2.51,1.74,2.51-1.74c1.51-1.05,36.93-26.2,36.93-76.18V19.2ZM82.33,27.63c10-1.53,23.71-7.25,29.66-9.88V89.8A88,88,0,0,1,82.33,27.63Zm31.42,62.15V17.68c6,2.54,20.18,8.23,29.65,9.88C141.94,61.67,121.89,82.63,113.75,89.78Z"/><polygon class="cls-9" points="76.52 23.1 113.75 12.51 148.49 23.1 137.77 69.68 111.99 96.16 86.77 63.4 76.52 23.1"/><polygon class="cls-6" points="113.75 15.42 145.92 24.27 141.03 56.64 113.06 96.16 113.75 15.42"/><path class="cls-10" d="M147.9,19.2c-7.19,0-26.45-7.75-33.26-10.73l-1.83-.8L111,8.51c-6.37,3-24.74,10.69-33.16,10.69H73.43v4.41c0,50.07,35.42,75.14,36.93,76.18l2.51,1.74,2.51-1.74c1.51-1.05,36.93-26.2,36.93-76.18V19.2ZM82.33,27.63c10-1.53,23.71-7.25,29.66-9.88V89.8A88,88,0,0,1,82.33,27.63Zm31.42,62.15V17.68c6,2.54,20.18,8.23,29.65,9.88C141.94,61.67,121.89,82.63,113.75,89.78Z"/></g></g></svg>